<?xml version="1.0" encoding="UTF-8" standalone="no"?>
<!DOCTYPE svg PUBLIC "-//W3C//DTD SVG 1.1//EN"
 "http://www.w3.org/Graphics/SVG/1.1/DTD/svg11.dtd">
<!-- Generated by graphviz version 2.48.0 (20210717.1556)
 -->
<!-- Title: modules/bridge/Bridge.hpp Pages: 1 -->
<svg width="1687pt" height="308pt"
 viewBox="0.00 0.00 1687.00 308.00" xmlns="http://www.w3.org/2000/svg" xmlns:xlink="http://www.w3.org/1999/xlink">
<g id="graph0" class="graph" transform="scale(1 1) rotate(0) translate(4 304)">
<title>modules/bridge/Bridge.hpp</title>
<!-- Node1 -->
<g id="node1" class="node">
<title>Node1</title>
<g id="a_node1"><a xlink:title=" ">
<polygon fill="#bfbfbf" stroke="black" points="812,-280.5 812,-299.5 979,-299.5 979,-280.5 812,-280.5"/>
<text text-anchor="middle" x="895.5" y="-287.5" font-family="JetBrains Mono" font-size="10.00">modules/bridge/Bridge.hpp</text>
</a>
</g>
</g>
<!-- Node2 -->
<g id="node2" class="node">
<title>Node2</title>
<g id="a_node2"><a xlink:href="_settings_bridge_8hpp.html" target="_top" xlink:title=" ">
<polygon fill="none" stroke="black" points="171,-224.5 171,-243.5 296,-243.5 296,-224.5 171,-224.5"/>
<text text-anchor="middle" x="233.5" y="-231.5" font-family="JetBrains Mono" font-size="10.00">SettingsBridge.hpp</text>
</a>
</g>
</g>
<!-- Node1&#45;&gt;Node2 -->
<g id="edge1" class="edge">
<title>Node1&#45;&gt;Node2</title>
<path fill="none" stroke="midnightblue" d="M811.99,-282.19C681.15,-271.52 430.02,-251.03 306.19,-240.93"/>
<polygon fill="midnightblue" stroke="midnightblue" points="306.3,-237.43 296.05,-240.1 305.73,-244.4 306.3,-237.43"/>
</g>
<!-- Node4 -->
<g id="node4" class="node">
<title>Node4</title>
<g id="a_node4"><a xlink:title=" ">
<polygon fill="none" stroke="#bfbfbf" points="0,-168.5 0,-187.5 53,-187.5 53,-168.5 0,-168.5"/>
<text text-anchor="middle" x="26.5" y="-175.5" font-family="JetBrains Mono" font-size="10.00">QDebug</text>
</a>
</g>
</g>
<!-- Node1&#45;&gt;Node4 -->
<g id="edge59" class="edge">
<title>Node1&#45;&gt;Node4</title>
<path fill="none" stroke="midnightblue" d="M811.81,-287.92C646.18,-285.11 282.19,-275.46 161.5,-244 119.35,-233.01 74.59,-208.59 48.66,-193.01"/>
<polygon fill="midnightblue" stroke="midnightblue" points="50.36,-189.95 40,-187.71 46.7,-195.92 50.36,-189.95"/>
</g>
<!-- Node9 -->
<g id="node9" class="node">
<title>Node9</title>
<g id="a_node9"><a xlink:href="_port_settings_8hpp.html" target="_top" xlink:title=" ">
<polygon fill="none" stroke="black" points="686,-112.5 686,-131.5 865,-131.5 865,-112.5 686,-112.5"/>
<text text-anchor="middle" x="775.5" y="-119.5" font-family="JetBrains Mono" font-size="10.00">../backend/PortSettings.hpp</text>
</a>
</g>
</g>
<!-- Node1&#45;&gt;Node9 -->
<g id="edge61" class="edge">
<title>Node1&#45;&gt;Node9</title>
<path fill="none" stroke="midnightblue" d="M889.05,-280.08C869.83,-253.49 812.76,-174.54 787.62,-139.76"/>
<polygon fill="midnightblue" stroke="midnightblue" points="790.39,-137.62 781.69,-131.57 784.72,-141.72 790.39,-137.62"/>
</g>
<!-- Node19 -->
<g id="node19" class="node">
<title>Node19</title>
<g id="a_node19"><a xlink:href="_converted_data_types_8hpp.html" target="_top" xlink:title=" ">
<polygon fill="none" stroke="black" points="1179,-112.5 1179,-131.5 1328,-131.5 1328,-112.5 1179,-112.5"/>
<text text-anchor="middle" x="1253.5" y="-119.5" font-family="JetBrains Mono" font-size="10.00">ConvertedDataTypes.hpp</text>
</a>
</g>
</g>
<!-- Node1&#45;&gt;Node19 -->
<g id="edge62" class="edge">
<title>Node1&#45;&gt;Node19</title>
<path fill="none" stroke="midnightblue" d="M915.92,-280.42C936.96,-271.52 970.66,-257.1 999.5,-244 1083.16,-205.99 1181.02,-158.5 1227.04,-135.99"/>
<polygon fill="midnightblue" stroke="midnightblue" points="1228.61,-139.12 1236.05,-131.58 1225.53,-132.84 1228.61,-139.12"/>
</g>
<!-- Node21 -->
<g id="node21" class="node">
<title>Node21</title>
<g id="a_node21"><a xlink:href="_terminal_bridge_8hpp.html" target="_top" xlink:title=" ">
<polygon fill="none" stroke="black" points="604,-224.5 604,-243.5 729,-243.5 729,-224.5 604,-224.5"/>
<text text-anchor="middle" x="666.5" y="-231.5" font-family="JetBrains Mono" font-size="10.00">TerminalBridge.hpp</text>
</a>
</g>
</g>
<!-- Node1&#45;&gt;Node21 -->
<g id="edge37" class="edge">
<title>Node1&#45;&gt;Node21</title>
<path fill="none" stroke="midnightblue" d="M859.21,-280.44C819.52,-271.08 755.79,-256.06 712.59,-245.87"/>
<polygon fill="midnightblue" stroke="midnightblue" points="713.15,-242.41 702.62,-243.52 711.55,-249.22 713.15,-242.41"/>
</g>
<!-- Node23 -->
<g id="node23" class="node">
<title>Node23</title>
<g id="a_node23"><a xlink:href="_tests_bridge_8hpp.html" target="_top" xlink:title=" ">
<polygon fill="none" stroke="black" points="883,-224.5 883,-243.5 990,-243.5 990,-224.5 883,-224.5"/>
<text text-anchor="middle" x="936.5" y="-231.5" font-family="JetBrains Mono" font-size="10.00">TestsBridge.hpp</text>
</a>
</g>
</g>
<!-- Node1&#45;&gt;Node23 -->
<g id="edge46" class="edge">
<title>Node1&#45;&gt;Node23</title>
<path fill="none" stroke="midnightblue" d="M902.27,-280.08C908.06,-272.46 916.56,-261.26 923.64,-251.94"/>
<polygon fill="midnightblue" stroke="midnightblue" points="926.6,-253.83 929.86,-243.75 921.02,-249.6 926.6,-253.83"/>
</g>
<!-- Node24 -->
<g id="node24" class="node">
<title>Node24</title>
<g id="a_node24"><a xlink:href="_error_reporter_8hpp.html" target="_top" xlink:title=" ">
<polygon fill="none" stroke="black" points="1498,-56.5 1498,-75.5 1617,-75.5 1617,-56.5 1498,-56.5"/>
<text text-anchor="middle" x="1557.5" y="-63.5" font-family="JetBrains Mono" font-size="10.00">ErrorReporter.hpp</text>
</a>
</g>
</g>
<!-- Node1&#45;&gt;Node24 -->
<g id="edge56" class="edge">
<title>Node1&#45;&gt;Node24</title>
<path fill="none" stroke="midnightblue" d="M935.38,-280.47C1007.04,-264.78 1161.98,-229.14 1289.5,-188 1354.46,-167.04 1370.36,-160.23 1432.5,-132 1468.28,-115.75 1508.39,-94.29 1533.29,-80.57"/>
<polygon fill="midnightblue" stroke="midnightblue" points="1535.31,-83.45 1542.36,-75.54 1531.92,-77.32 1535.31,-83.45"/>
</g>
<!-- Node25 -->
<g id="node25" class="node">
<title>Node25</title>
<g id="a_node25"><a xlink:title=" ">
<polygon fill="none" stroke="#bfbfbf" points="1536,-224.5 1536,-243.5 1679,-243.5 1679,-224.5 1536,-224.5"/>
<text text-anchor="middle" x="1607.5" y="-231.5" font-family="JetBrains Mono" font-size="10.00">QQmlApplicationEngine</text>
</a>
</g>
</g>
<!-- Node1&#45;&gt;Node25 -->
<g id="edge60" class="edge">
<title>Node1&#45;&gt;Node25</title>
<path fill="none" stroke="midnightblue" d="M979.11,-283.86C1099.21,-276.27 1327.49,-261.12 1521.5,-244 1522.8,-243.88 1524.12,-243.77 1525.44,-243.65"/>
<polygon fill="midnightblue" stroke="midnightblue" points="1526.09,-247.1 1535.72,-242.69 1525.44,-240.13 1526.09,-247.1"/>
</g>
<!-- Node3 -->
<g id="node3" class="node">
<title>Node3</title>
<g id="a_node3"><a xlink:title=" ">
<polygon fill="none" stroke="#bfbfbf" points="1178,-0.5 1178,-19.5 1237,-19.5 1237,-0.5 1178,-0.5"/>
<text text-anchor="middle" x="1207.5" y="-7.5" font-family="JetBrains Mono" font-size="10.00">QObject</text>
</a>
</g>
</g>
<!-- Node2&#45;&gt;Node3 -->
<g id="edge2" class="edge">
<title>Node2&#45;&gt;Node3</title>
<path fill="none" stroke="midnightblue" d="M229.04,-224.41C214.84,-195.72 174.28,-102.43 221.5,-56 230.09,-47.56 984.47,-19.22 1167.72,-12.46"/>
<polygon fill="midnightblue" stroke="midnightblue" points="1167.88,-15.96 1177.74,-12.09 1167.62,-8.96 1167.88,-15.96"/>
</g>
<!-- Node2&#45;&gt;Node4 -->
<g id="edge3" class="edge">
<title>Node2&#45;&gt;Node4</title>
<path fill="none" stroke="midnightblue" d="M200.7,-224.44C163.24,-214.67 102.1,-198.72 63.11,-188.55"/>
<polygon fill="midnightblue" stroke="midnightblue" points="63.78,-185.11 53.22,-185.97 62.01,-191.88 63.78,-185.11"/>
</g>
<!-- Node5 -->
<g id="node5" class="node">
<title>Node5</title>
<g id="a_node5"><a xlink:title=" ">
<polygon fill="none" stroke="#bfbfbf" points="533,-0.5 533,-19.5 592,-19.5 592,-0.5 533,-0.5"/>
<text text-anchor="middle" x="562.5" y="-7.5" font-family="JetBrains Mono" font-size="10.00">QString</text>
</a>
</g>
</g>
<!-- Node2&#45;&gt;Node5 -->
<g id="edge4" class="edge">
<title>Node2&#45;&gt;Node5</title>
<path fill="none" stroke="midnightblue" d="M170.7,-226.42C146.22,-220.42 120.48,-209.14 105.5,-188 85.97,-160.44 87.85,-140.8 105.5,-112 149.34,-40.49 419.67,-18.63 522.68,-12.85"/>
<polygon fill="midnightblue" stroke="midnightblue" points="523.18,-16.33 532.97,-12.3 522.8,-9.34 523.18,-16.33"/>
</g>
<!-- Node6 -->
<g id="node6" class="node">
<title>Node6</title>
<g id="a_node6"><a xlink:title=" ">
<polygon fill="none" stroke="#bfbfbf" points="247,-56.5 247,-75.5 330,-75.5 330,-56.5 247,-56.5"/>
<text text-anchor="middle" x="288.5" y="-63.5" font-family="JetBrains Mono" font-size="10.00">QSerialPort</text>
</a>
</g>
</g>
<!-- Node2&#45;&gt;Node6 -->
<g id="edge5" class="edge">
<title>Node2&#45;&gt;Node6</title>
<path fill="none" stroke="midnightblue" d="M228.92,-224.47C222.8,-211.93 213.4,-187.86 219.5,-168 229.88,-134.23 255.91,-101.69 272.87,-83.05"/>
<polygon fill="midnightblue" stroke="midnightblue" points="275.44,-85.42 279.72,-75.73 270.33,-80.64 275.44,-85.42"/>
</g>
<!-- Node7 -->
<g id="node7" class="node">
<title>Node7</title>
<g id="a_node7"><a xlink:title=" ">
<polygon fill="none" stroke="#bfbfbf" points="348,-56.5 348,-75.5 455,-75.5 455,-56.5 348,-56.5"/>
<text text-anchor="middle" x="401.5" y="-63.5" font-family="JetBrains Mono" font-size="10.00">QSerialPortInfo</text>
</a>
</g>
</g>
<!-- Node2&#45;&gt;Node7 -->
<g id="edge6" class="edge">
<title>Node2&#45;&gt;Node7</title>
<path fill="none" stroke="midnightblue" d="M235.06,-224.23C237.76,-210.97 244.34,-185.5 257.5,-168 288.27,-127.08 340.5,-96.44 372.88,-80.16"/>
<polygon fill="midnightblue" stroke="midnightblue" points="374.81,-83.12 382.25,-75.58 371.73,-76.83 374.81,-83.12"/>
</g>
<!-- Node8 -->
<g id="node8" class="node">
<title>Node8</title>
<g id="a_node8"><a xlink:title=" ">
<polygon fill="none" stroke="#bfbfbf" points="842,-56.5 842,-75.5 943,-75.5 943,-56.5 842,-56.5"/>
<text text-anchor="middle" x="892.5" y="-63.5" font-family="JetBrains Mono" font-size="10.00">QSharedPointer</text>
</a>
</g>
</g>
<!-- Node2&#45;&gt;Node8 -->
<g id="edge7" class="edge">
<title>Node2&#45;&gt;Node8</title>
<path fill="none" stroke="midnightblue" d="M250.25,-224.42C274.93,-211.83 322.57,-187.7 363.5,-168 416.9,-142.3 427.42,-127.9 484.5,-112 548.32,-94.22 734.64,-78.53 831.86,-71.27"/>
<polygon fill="midnightblue" stroke="midnightblue" points="832.13,-74.76 841.84,-70.54 831.61,-67.78 832.13,-74.76"/>
</g>
<!-- Node2&#45;&gt;Node9 -->
<g id="edge8" class="edge">
<title>Node2&#45;&gt;Node9</title>
<path fill="none" stroke="midnightblue" d="M256.66,-224.39C294.86,-210.52 373.68,-183.24 442.5,-168 519.97,-150.84 609.13,-139.22 675.68,-132.08"/>
<polygon fill="midnightblue" stroke="midnightblue" points="676.17,-135.55 685.74,-131.02 675.43,-128.59 676.17,-135.55"/>
</g>
<!-- Node16 -->
<g id="node16" class="node">
<title>Node16</title>
<g id="a_node16"><a xlink:href="_interfaces_8hpp.html" target="_top" xlink:title=" ">
<polygon fill="none" stroke="black" points="452,-168.5 452,-187.5 619,-187.5 619,-168.5 452,-168.5"/>
<text text-anchor="middle" x="535.5" y="-175.5" font-family="JetBrains Mono" font-size="10.00">../backend/Interfaces.hpp</text>
</a>
</g>
</g>
<!-- Node2&#45;&gt;Node16 -->
<g id="edge22" class="edge">
<title>Node2&#45;&gt;Node16</title>
<path fill="none" stroke="midnightblue" d="M281.35,-224.44C334.7,-214.9 420.94,-199.48 477.94,-189.29"/>
<polygon fill="midnightblue" stroke="midnightblue" points="478.64,-192.72 487.87,-187.52 477.41,-185.83 478.64,-192.72"/>
</g>
<!-- Node9&#45;&gt;Node6 -->
<g id="edge9" class="edge">
<title>Node9&#45;&gt;Node6</title>
<path fill="none" stroke="midnightblue" d="M685.71,-113.75C599.53,-106.33 465.49,-93.6 340.35,-76.18"/>
<polygon fill="midnightblue" stroke="midnightblue" points="340.59,-72.68 330.2,-74.75 339.62,-79.61 340.59,-72.68"/>
</g>
<!-- Node9&#45;&gt;Node7 -->
<g id="edge14" class="edge">
<title>Node9&#45;&gt;Node7</title>
<path fill="none" stroke="midnightblue" d="M716.27,-112.47C655.71,-103.75 558.64,-89.76 465.44,-76.28"/>
<polygon fill="midnightblue" stroke="midnightblue" points="465.67,-72.78 455.27,-74.81 464.66,-79.7 465.67,-72.78"/>
</g>
<!-- Node9&#45;&gt;Node8 -->
<g id="edge12" class="edge">
<title>Node9&#45;&gt;Node8</title>
<path fill="none" stroke="midnightblue" d="M794.04,-112.44C813.12,-103.64 843.07,-89.81 864.94,-79.72"/>
<polygon fill="midnightblue" stroke="midnightblue" points="866.43,-82.88 874.05,-75.52 863.5,-76.53 866.43,-82.88"/>
</g>
<!-- Node10 -->
<g id="node10" class="node">
<title>Node10</title>
<g id="a_node10"><a xlink:title=" ">
<polygon fill="none" stroke="#bfbfbf" points="1209,-56.5 1209,-75.5 1256,-75.5 1256,-56.5 1209,-56.5"/>
<text text-anchor="middle" x="1232.5" y="-63.5" font-family="JetBrains Mono" font-size="10.00">QList</text>
</a>
</g>
</g>
<!-- Node9&#45;&gt;Node10 -->
<g id="edge10" class="edge">
<title>Node9&#45;&gt;Node10</title>
<path fill="none" stroke="midnightblue" d="M865.28,-115.91C949.38,-110.13 1078.62,-98.66 1198.73,-76.07"/>
<polygon fill="midnightblue" stroke="midnightblue" points="1199.68,-79.45 1208.84,-74.13 1198.36,-72.57 1199.68,-79.45"/>
</g>
<!-- Node11 -->
<g id="node11" class="node">
<title>Node11</title>
<g id="a_node11"><a xlink:title=" ">
<polygon fill="none" stroke="#bfbfbf" points="670,-56.5 670,-75.5 747,-75.5 747,-56.5 670,-56.5"/>
<text text-anchor="middle" x="708.5" y="-63.5" font-family="JetBrains Mono" font-size="10.00">functional</text>
</a>
</g>
</g>
<!-- Node9&#45;&gt;Node11 -->
<g id="edge11" class="edge">
<title>Node9&#45;&gt;Node11</title>
<path fill="none" stroke="midnightblue" d="M764.74,-112.32C754.73,-104.26 739.61,-92.08 727.57,-82.37"/>
<polygon fill="midnightblue" stroke="midnightblue" points="729.44,-79.38 719.46,-75.83 725.05,-84.83 729.44,-79.38"/>
</g>
<!-- Node12 -->
<g id="node12" class="node">
<title>Node12</title>
<g id="a_node12"><a xlink:title=" ">
<polygon fill="none" stroke="#bfbfbf" points="915,-0.5 915,-19.5 956,-19.5 956,-0.5 915,-0.5"/>
<text text-anchor="middle" x="935.5" y="-7.5" font-family="JetBrains Mono" font-size="10.00">QMap</text>
</a>
</g>
</g>
<!-- Node9&#45;&gt;Node12 -->
<g id="edge13" class="edge">
<title>Node9&#45;&gt;Node12</title>
<path fill="none" stroke="midnightblue" d="M776.35,-112.12C778.15,-98.23 783.58,-71.38 799.5,-56 828.14,-28.33 874.15,-17.67 904.61,-13.56"/>
<polygon fill="midnightblue" stroke="midnightblue" points="905.16,-17.02 914.68,-12.37 904.34,-10.07 905.16,-17.02"/>
</g>
<!-- Node13 -->
<g id="node13" class="node">
<title>Node13</title>
<g id="a_node13"><a xlink:title=" ">
<polygon fill="none" stroke="#bfbfbf" points="1255,-0.5 1255,-19.5 1308,-19.5 1308,-0.5 1255,-0.5"/>
<text text-anchor="middle" x="1281.5" y="-7.5" font-family="JetBrains Mono" font-size="10.00">QMutex</text>
</a>
</g>
</g>
<!-- Node9&#45;&gt;Node13 -->
<g id="edge15" class="edge">
<title>Node9&#45;&gt;Node13</title>
<path fill="none" stroke="midnightblue" d="M780.22,-112.37C788.72,-97.82 808.08,-68.74 833.5,-56 913.21,-16.05 1140.4,-34.25 1244.83,-19.88"/>
<polygon fill="midnightblue" stroke="midnightblue" points="1245.5,-23.32 1254.84,-18.34 1244.43,-16.4 1245.5,-23.32"/>
</g>
<!-- Node14 -->
<g id="node14" class="node">
<title>Node14</title>
<g id="a_node14"><a xlink:href="_program_object_8hpp.html" target="_top" xlink:title=" ">
<polygon fill="none" stroke="black" points="473,-56.5 473,-75.5 652,-75.5 652,-56.5 473,-56.5"/>
<text text-anchor="middle" x="562.5" y="-63.5" font-family="JetBrains Mono" font-size="10.00">../global/ProgramObject.hpp</text>
</a>
</g>
</g>
<!-- Node9&#45;&gt;Node14 -->
<g id="edge16" class="edge">
<title>Node9&#45;&gt;Node14</title>
<path fill="none" stroke="midnightblue" d="M741.75,-112.44C704.98,-103.12 646.05,-88.18 605.88,-78"/>
<polygon fill="midnightblue" stroke="midnightblue" points="606.65,-74.58 596.09,-75.52 604.93,-81.37 606.65,-74.58"/>
</g>
<!-- Node15 -->
<g id="node15" class="node">
<title>Node15</title>
<g id="a_node15"><a xlink:href="_static_generator_8hpp.html" target="_top" xlink:title=" ">
<polygon fill="none" stroke="black" points="1000,-56.5 1000,-75.5 1191,-75.5 1191,-56.5 1000,-56.5"/>
<text text-anchor="middle" x="1095.5" y="-63.5" font-family="JetBrains Mono" font-size="10.00">../global/StaticGenerator.hpp</text>
</a>
</g>
</g>
<!-- Node9&#45;&gt;Node15 -->
<g id="edge19" class="edge">
<title>Node9&#45;&gt;Node15</title>
<path fill="none" stroke="midnightblue" d="M826.2,-112.44C882.85,-102.89 974.5,-87.42 1034.88,-77.23"/>
<polygon fill="midnightblue" stroke="midnightblue" points="1035.75,-80.63 1045.03,-75.52 1034.59,-73.73 1035.75,-80.63"/>
</g>
<!-- Node14&#45;&gt;Node3 -->
<g id="edge18" class="edge">
<title>Node14&#45;&gt;Node3</title>
<path fill="none" stroke="midnightblue" d="M652.08,-56.82C655.26,-56.54 658.41,-56.27 661.5,-56 851.09,-39.57 1077.84,-21.33 1167.86,-14.15"/>
<polygon fill="midnightblue" stroke="midnightblue" points="1168.21,-17.64 1177.9,-13.35 1167.65,-10.66 1168.21,-17.64"/>
</g>
<!-- Node14&#45;&gt;Node5 -->
<g id="edge17" class="edge">
<title>Node14&#45;&gt;Node5</title>
<path fill="none" stroke="midnightblue" d="M562.5,-56.08C562.5,-49.01 562.5,-38.86 562.5,-29.99"/>
<polygon fill="midnightblue" stroke="midnightblue" points="566,-29.75 562.5,-19.75 559,-29.75 566,-29.75"/>
</g>
<!-- Node15&#45;&gt;Node12 -->
<g id="edge21" class="edge">
<title>Node15&#45;&gt;Node12</title>
<path fill="none" stroke="midnightblue" d="M1070.15,-56.44C1041.81,-46.88 995.94,-31.4 965.74,-21.21"/>
<polygon fill="midnightblue" stroke="midnightblue" points="966.75,-17.85 956.15,-17.97 964.51,-24.49 966.75,-17.85"/>
</g>
<!-- Node15&#45;&gt;Node13 -->
<g id="edge20" class="edge">
<title>Node15&#45;&gt;Node13</title>
<path fill="none" stroke="midnightblue" d="M1124.97,-56.44C1157.51,-47 1209.92,-31.78 1245.02,-21.59"/>
<polygon fill="midnightblue" stroke="midnightblue" points="1246.25,-24.88 1254.88,-18.73 1244.3,-18.16 1246.25,-24.88"/>
</g>
<!-- Node16&#45;&gt;Node3 -->
<g id="edge25" class="edge">
<title>Node16&#45;&gt;Node3</title>
<path fill="none" stroke="midnightblue" d="M451.64,-170.32C341.19,-158.56 168.58,-128.19 237.5,-56 245.67,-47.44 986.47,-19.25 1167.79,-12.47"/>
<polygon fill="midnightblue" stroke="midnightblue" points="1168.09,-15.97 1177.95,-12.1 1167.83,-8.97 1168.09,-15.97"/>
</g>
<!-- Node16&#45;&gt;Node6 -->
<g id="edge23" class="edge">
<title>Node16&#45;&gt;Node6</title>
<path fill="none" stroke="midnightblue" d="M516.12,-168.37C472.83,-149.09 368.11,-102.45 317.22,-79.79"/>
<polygon fill="midnightblue" stroke="midnightblue" points="318.35,-76.46 307.79,-75.59 315.5,-82.86 318.35,-76.46"/>
</g>
<!-- Node16&#45;&gt;Node7 -->
<g id="edge24" class="edge">
<title>Node16&#45;&gt;Node7</title>
<path fill="none" stroke="midnightblue" d="M544.33,-168.29C556.63,-155.1 575.94,-129.72 562.5,-112 550.41,-96.07 504.68,-84.25 465.02,-76.73"/>
<polygon fill="midnightblue" stroke="midnightblue" points="465.57,-73.27 455.1,-74.91 464.31,-80.16 465.57,-73.27"/>
</g>
<!-- Node16&#45;&gt;Node9 -->
<g id="edge26" class="edge">
<title>Node16&#45;&gt;Node9</title>
<path fill="none" stroke="midnightblue" d="M573.53,-168.44C615.31,-159.04 682.48,-143.93 727.77,-133.74"/>
<polygon fill="midnightblue" stroke="midnightblue" points="728.66,-137.13 737.65,-131.52 727.12,-130.3 728.66,-137.13"/>
</g>
<!-- Node17 -->
<g id="node17" class="node">
<title>Node17</title>
<g id="a_node17"><a xlink:href="_parsed_data_types_8hpp.html" target="_top" xlink:title=" ">
<polygon fill="none" stroke="black" points="1030,-112.5 1030,-131.5 1161,-131.5 1161,-112.5 1030,-112.5"/>
<text text-anchor="middle" x="1095.5" y="-119.5" font-family="JetBrains Mono" font-size="10.00">ParsedDataTypes.hpp</text>
</a>
</g>
</g>
<!-- Node16&#45;&gt;Node17 -->
<g id="edge27" class="edge">
<title>Node16&#45;&gt;Node17</title>
<path fill="none" stroke="midnightblue" d="M619.15,-168.9C622.31,-168.6 625.43,-168.3 628.5,-168 766.43,-154.68 927.27,-139.19 1019.66,-130.3"/>
<polygon fill="midnightblue" stroke="midnightblue" points="1020.14,-133.77 1029.76,-129.33 1019.47,-126.8 1020.14,-133.77"/>
</g>
<!-- Node16&#45;&gt;Node19 -->
<g id="edge32" class="edge">
<title>Node16&#45;&gt;Node19</title>
<path fill="none" stroke="midnightblue" d="M619.14,-168.79C622.3,-168.51 625.43,-168.25 628.5,-168 865.83,-148.64 928.3,-152.89 1168.75,-132.12"/>
<polygon fill="midnightblue" stroke="midnightblue" points="1169.2,-135.6 1178.86,-131.24 1168.59,-128.62 1169.2,-135.6"/>
</g>
<!-- Node20 -->
<g id="node20" class="node">
<title>Node20</title>
<g id="a_node20"><a xlink:title=" ">
<polygon fill="none" stroke="#bfbfbf" points="494,-112.5 494,-131.5 553,-131.5 553,-112.5 494,-112.5"/>
<text text-anchor="middle" x="523.5" y="-119.5" font-family="JetBrains Mono" font-size="10.00">variant</text>
</a>
</g>
</g>
<!-- Node16&#45;&gt;Node20 -->
<g id="edge36" class="edge">
<title>Node16&#45;&gt;Node20</title>
<path fill="none" stroke="midnightblue" d="M533.52,-168.08C531.93,-160.93 529.64,-150.64 527.65,-141.69"/>
<polygon fill="midnightblue" stroke="midnightblue" points="531.03,-140.75 525.44,-131.75 524.2,-142.27 531.03,-140.75"/>
</g>
<!-- Node17&#45;&gt;Node8 -->
<g id="edge29" class="edge">
<title>Node17&#45;&gt;Node8</title>
<path fill="none" stroke="midnightblue" d="M1063.33,-112.44C1028.44,-103.16 972.61,-88.31 934.33,-78.13"/>
<polygon fill="midnightblue" stroke="midnightblue" points="935.08,-74.7 924.52,-75.52 933.28,-81.47 935.08,-74.7"/>
</g>
<!-- Node17&#45;&gt;Node10 -->
<g id="edge28" class="edge">
<title>Node17&#45;&gt;Node10</title>
<path fill="none" stroke="midnightblue" d="M1117.21,-112.44C1139.85,-103.52 1175.57,-89.44 1201.25,-79.32"/>
<polygon fill="midnightblue" stroke="midnightblue" points="1202.87,-82.44 1210.89,-75.52 1200.31,-75.93 1202.87,-82.44"/>
</g>
<!-- Node17&#45;&gt;Node15 -->
<g id="edge31" class="edge">
<title>Node17&#45;&gt;Node15</title>
<path fill="none" stroke="midnightblue" d="M1095.5,-112.08C1095.5,-105.01 1095.5,-94.86 1095.5,-85.99"/>
<polygon fill="midnightblue" stroke="midnightblue" points="1099,-85.75 1095.5,-75.75 1092,-85.75 1099,-85.75"/>
</g>
<!-- Node18 -->
<g id="node18" class="node">
<title>Node18</title>
<g id="a_node18"><a xlink:title=" ">
<polygon fill="none" stroke="#bfbfbf" points="1274,-56.5 1274,-75.5 1327,-75.5 1327,-56.5 1274,-56.5"/>
<text text-anchor="middle" x="1300.5" y="-63.5" font-family="JetBrains Mono" font-size="10.00">memory</text>
</a>
</g>
</g>
<!-- Node17&#45;&gt;Node18 -->
<g id="edge30" class="edge">
<title>Node17&#45;&gt;Node18</title>
<path fill="none" stroke="midnightblue" d="M1127.98,-112.44C1164.98,-102.7 1225.29,-86.81 1263.92,-76.64"/>
<polygon fill="midnightblue" stroke="midnightblue" points="1264.94,-79.99 1273.72,-74.05 1263.16,-73.22 1264.94,-79.99"/>
</g>
<!-- Node19&#45;&gt;Node3 -->
<g id="edge35" class="edge">
<title>Node19&#45;&gt;Node3</title>
<path fill="none" stroke="midnightblue" d="M1301.19,-112.48C1342.21,-102.99 1391.57,-85.04 1369.5,-56 1365.69,-50.99 1293.58,-32.33 1246.87,-20.67"/>
<polygon fill="midnightblue" stroke="midnightblue" points="1247.58,-17.24 1237.03,-18.22 1245.89,-24.03 1247.58,-17.24"/>
</g>
<!-- Node19&#45;&gt;Node5 -->
<g id="edge34" class="edge">
<title>Node19&#45;&gt;Node5</title>
<path fill="none" stroke="midnightblue" d="M1280.05,-112.49C1311.89,-100.99 1358.42,-79.23 1336.5,-56 1311.07,-29.05 756.78,-15.17 602.2,-11.81"/>
<polygon fill="midnightblue" stroke="midnightblue" points="602.27,-8.31 592.19,-11.6 602.12,-15.31 602.27,-8.31"/>
</g>
<!-- Node19&#45;&gt;Node10 -->
<g id="edge33" class="edge">
<title>Node19&#45;&gt;Node10</title>
<path fill="none" stroke="midnightblue" d="M1250.03,-112.08C1247.19,-104.77 1243.07,-94.18 1239.54,-85.1"/>
<polygon fill="midnightblue" stroke="midnightblue" points="1242.79,-83.8 1235.9,-75.75 1236.27,-86.34 1242.79,-83.8"/>
</g>
<!-- Node21&#45;&gt;Node3 -->
<g id="edge38" class="edge">
<title>Node21&#45;&gt;Node3</title>
<path fill="none" stroke="midnightblue" d="M729.04,-229.15C874.93,-219.28 1233.29,-189.72 1337.5,-132 1372.45,-112.64 1410.04,-87.52 1385.5,-56 1383.33,-53.21 1298.89,-32.73 1247.11,-20.38"/>
<polygon fill="midnightblue" stroke="midnightblue" points="1247.76,-16.93 1237.22,-18.02 1246.14,-23.74 1247.76,-16.93"/>
</g>
<!-- Node21&#45;&gt;Node5 -->
<g id="edge40" class="edge">
<title>Node21&#45;&gt;Node5</title>
<path fill="none" stroke="midnightblue" d="M603.74,-227.27C495.69,-216.02 281.48,-187.2 233.5,-132 216.8,-112.79 224.18,-101.31 221.5,-76 220.56,-67.16 215.64,-62.68 221.5,-56 241.13,-33.61 437.12,-18.8 522.78,-13.34"/>
<polygon fill="midnightblue" stroke="midnightblue" points="523.14,-16.83 532.9,-12.71 522.71,-9.84 523.14,-16.83"/>
</g>
<!-- Node21&#45;&gt;Node6 -->
<g id="edge41" class="edge">
<title>Node21&#45;&gt;Node6</title>
<path fill="none" stroke="midnightblue" d="M603.93,-230.71C553.04,-226.71 480.58,-216.06 423.5,-188 371.22,-162.3 323.97,-110.52 301.81,-83.8"/>
<polygon fill="midnightblue" stroke="midnightblue" points="304.3,-81.32 295.28,-75.77 298.87,-85.74 304.3,-81.32"/>
</g>
<!-- Node21&#45;&gt;Node7 -->
<g id="edge42" class="edge">
<title>Node21&#45;&gt;Node7</title>
<path fill="none" stroke="midnightblue" d="M603.77,-227.39C546.1,-221.02 466.07,-208.72 442.5,-188 412.47,-161.6 404.4,-112.39 402.26,-85.58"/>
<polygon fill="midnightblue" stroke="midnightblue" points="405.75,-85.36 401.65,-75.59 398.76,-85.78 405.75,-85.36"/>
</g>
<!-- Node21&#45;&gt;Node8 -->
<g id="edge43" class="edge">
<title>Node21&#45;&gt;Node8</title>
<path fill="none" stroke="midnightblue" d="M705.54,-224.44C752.52,-212.09 830.57,-184.75 874.5,-132 885.38,-118.94 889.71,-99.78 891.42,-85.65"/>
<polygon fill="midnightblue" stroke="midnightblue" points="894.91,-85.87 892.3,-75.6 887.94,-85.26 894.91,-85.87"/>
</g>
<!-- Node21&#45;&gt;Node9 -->
<g id="edge44" class="edge">
<title>Node21&#45;&gt;Node9</title>
<path fill="none" stroke="midnightblue" d="M675.05,-224.37C693.36,-205.89 736.56,-162.29 759.9,-138.74"/>
<polygon fill="midnightblue" stroke="midnightblue" points="762.43,-141.16 766.99,-131.59 757.46,-136.23 762.43,-141.16"/>
</g>
<!-- Node21&#45;&gt;Node16 -->
<g id="edge45" class="edge">
<title>Node21&#45;&gt;Node16</title>
<path fill="none" stroke="midnightblue" d="M645.74,-224.44C624.18,-215.56 590.24,-201.56 565.71,-191.45"/>
<polygon fill="midnightblue" stroke="midnightblue" points="566.74,-188.09 556.16,-187.52 564.07,-194.56 566.74,-188.09"/>
</g>
<!-- Node22 -->
<g id="node22" class="node">
<title>Node22</title>
<g id="a_node22"><a xlink:title=" ">
<polygon fill="none" stroke="#bfbfbf" points="637,-168.5 637,-187.5 696,-187.5 696,-168.5 637,-168.5"/>
<text text-anchor="middle" x="666.5" y="-175.5" font-family="JetBrains Mono" font-size="10.00">utility</text>
</a>
</g>
</g>
<!-- Node21&#45;&gt;Node22 -->
<g id="edge39" class="edge">
<title>Node21&#45;&gt;Node22</title>
<path fill="none" stroke="midnightblue" d="M666.5,-224.08C666.5,-217.01 666.5,-206.86 666.5,-197.99"/>
<polygon fill="midnightblue" stroke="midnightblue" points="670,-197.75 666.5,-187.75 663,-197.75 670,-197.75"/>
</g>
<!-- Node23&#45;&gt;Node3 -->
<g id="edge47" class="edge">
<title>Node23&#45;&gt;Node3</title>
<path fill="none" stroke="midnightblue" d="M990.12,-226.69C1098.8,-213.08 1340.49,-178.41 1408.5,-132 1433.14,-115.18 1436.91,-104.57 1445.5,-76 1448.06,-67.49 1451.2,-62.82 1445.5,-56 1418.38,-23.53 1304.97,-28.32 1247.35,-19.79"/>
<polygon fill="midnightblue" stroke="midnightblue" points="1247.73,-16.3 1237.28,-18.03 1246.53,-23.19 1247.73,-16.3"/>
</g>
<!-- Node23&#45;&gt;Node5 -->
<g id="edge48" class="edge">
<title>Node23&#45;&gt;Node5</title>
<path fill="none" stroke="midnightblue" d="M941.2,-224.25C955.73,-195.86 996.43,-105.29 952.5,-56 929.44,-30.13 696.88,-16.96 602.24,-12.64"/>
<polygon fill="midnightblue" stroke="midnightblue" points="602.34,-9.14 592.2,-12.19 602.03,-16.14 602.34,-9.14"/>
</g>
<!-- Node23&#45;&gt;Node6 -->
<g id="edge49" class="edge">
<title>Node23&#45;&gt;Node6</title>
<path fill="none" stroke="midnightblue" d="M905.16,-224.44C872.85,-215.56 821.06,-201.16 776.5,-188 736.12,-176.08 633.9,-149.26 595.5,-132 579.86,-124.97 578.6,-117.91 562.5,-112 470.81,-78.31 439.84,-92 340.1,-76.2"/>
<polygon fill="midnightblue" stroke="midnightblue" points="340.67,-72.74 330.23,-74.57 339.53,-79.65 340.67,-72.74"/>
</g>
<!-- Node23&#45;&gt;Node7 -->
<g id="edge50" class="edge">
<title>Node23&#45;&gt;Node7</title>
<path fill="none" stroke="midnightblue" d="M917.06,-224.29C887.21,-211.1 828.11,-185.72 776.5,-168 661.32,-128.45 522,-94.43 449.94,-77.83"/>
<polygon fill="midnightblue" stroke="midnightblue" points="450.33,-74.33 439.8,-75.51 448.77,-81.15 450.33,-74.33"/>
</g>
<!-- Node23&#45;&gt;Node8 -->
<g id="edge51" class="edge">
<title>Node23&#45;&gt;Node8</title>
<path fill="none" stroke="midnightblue" d="M934.71,-224.43C930.51,-204.53 919.44,-153.75 907.5,-112 904.95,-103.08 901.74,-93.3 898.94,-85.14"/>
<polygon fill="midnightblue" stroke="midnightblue" points="902.2,-83.84 895.6,-75.56 895.59,-86.15 902.2,-83.84"/>
</g>
<!-- Node23&#45;&gt;Node9 -->
<g id="edge52" class="edge">
<title>Node23&#45;&gt;Node9</title>
<path fill="none" stroke="midnightblue" d="M932.38,-224.19C925.53,-210.4 910.53,-183.68 890.5,-168 870.5,-152.35 844.38,-141.55 822.09,-134.46"/>
<polygon fill="midnightblue" stroke="midnightblue" points="823.06,-131.09 812.48,-131.55 821.04,-137.79 823.06,-131.09"/>
</g>
<!-- Node23&#45;&gt;Node16 -->
<g id="edge54" class="edge">
<title>Node23&#45;&gt;Node16</title>
<path fill="none" stroke="midnightblue" d="M882.84,-225.77C812.37,-216.28 688.34,-199.58 609.14,-188.92"/>
<polygon fill="midnightblue" stroke="midnightblue" points="609.13,-185.38 598.75,-187.52 608.2,-192.32 609.13,-185.38"/>
</g>
<!-- Node23&#45;&gt;Node17 -->
<g id="edge55" class="edge">
<title>Node23&#45;&gt;Node17</title>
<path fill="none" stroke="midnightblue" d="M949.88,-224.34C963.67,-215.38 985.72,-200.91 1004.5,-188 1029.25,-170.98 1057.31,-150.8 1075.65,-137.49"/>
<polygon fill="midnightblue" stroke="midnightblue" points="1077.79,-140.26 1083.81,-131.55 1073.67,-134.6 1077.79,-140.26"/>
</g>
<!-- Node23&#45;&gt;Node19 -->
<g id="edge53" class="edge">
<title>Node23&#45;&gt;Node19</title>
<path fill="none" stroke="midnightblue" d="M961.11,-224.46C1017.17,-205.01 1154.49,-157.36 1218.99,-134.98"/>
<polygon fill="midnightblue" stroke="midnightblue" points="1220.39,-138.2 1228.69,-131.61 1218.09,-131.58 1220.39,-138.2"/>
</g>
<!-- Node24&#45;&gt;Node3 -->
<g id="edge57" class="edge">
<title>Node24&#45;&gt;Node3</title>
<path fill="none" stroke="midnightblue" d="M1497.89,-56.98C1425.7,-47.16 1307.28,-30.72 1247.1,-19.95"/>
<polygon fill="midnightblue" stroke="midnightblue" points="1247.73,-16.5 1237.26,-18.14 1246.46,-23.39 1247.73,-16.5"/>
</g>
<!-- Node24&#45;&gt;Node13 -->
<g id="edge58" class="edge">
<title>Node24&#45;&gt;Node13</title>
<path fill="none" stroke="midnightblue" d="M1513.77,-56.44C1459.73,-45.87 1368.75,-28.07 1318.19,-18.18"/>
<polygon fill="midnightblue" stroke="midnightblue" points="1318.82,-14.74 1308.34,-16.25 1317.48,-21.61 1318.82,-14.74"/>
</g>
</g>
</svg>
