<?xml version="1.0" encoding="UTF-8" standalone="no"?>
<!DOCTYPE svg PUBLIC "-//W3C//DTD SVG 1.1//EN"
 "http://www.w3.org/Graphics/SVG/1.1/DTD/svg11.dtd">
<!-- Generated by graphviz version 2.48.0 (20210717.1556)
 -->
<!-- Title: modules/backend/converter/Converter.cpp Pages: 1 -->
<svg width="1184pt" height="319pt"
 viewBox="0.00 0.00 1184.00 319.00" xmlns="http://www.w3.org/2000/svg" xmlns:xlink="http://www.w3.org/1999/xlink">
<g id="graph0" class="graph" transform="scale(1 1) rotate(0) translate(4 315)">
<title>modules/backend/converter/Converter.cpp</title>
<!-- Node1 -->
<g id="node1" class="node">
<title>Node1</title>
<g id="a_node1"><a xlink:title=" ">
<polygon fill="#bfbfbf" stroke="black" points="402,-280.5 402,-310.5 569,-310.5 569,-280.5 402,-280.5"/>
<text text-anchor="start" x="410" y="-298.5" font-family="JetBrains Mono" font-size="10.00">modules/backend/converter</text>
<text text-anchor="middle" x="485.5" y="-287.5" font-family="JetBrains Mono" font-size="10.00">/Converter.cpp</text>
</a>
</g>
</g>
<!-- Node2 -->
<g id="node2" class="node">
<title>Node2</title>
<g id="a_node2"><a xlink:href="_converter_8hpp.html" target="_top" xlink:title=" ">
<polygon fill="none" stroke="black" points="199,-224.5 199,-243.5 312,-243.5 312,-224.5 199,-224.5"/>
<text text-anchor="middle" x="255.5" y="-231.5" font-family="JetBrains Mono" font-size="10.00">../Converter.hpp</text>
</a>
</g>
</g>
<!-- Node1&#45;&gt;Node2 -->
<g id="edge1" class="edge">
<title>Node1&#45;&gt;Node2</title>
<path fill="none" stroke="midnightblue" d="M431.28,-280.47C390.74,-269.99 336.05,-255.84 298.49,-246.12"/>
<polygon fill="midnightblue" stroke="midnightblue" points="298.94,-242.62 288.38,-243.51 297.19,-249.4 298.94,-242.62"/>
</g>
<!-- Node20 -->
<g id="node20" class="node">
<title>Node20</title>
<g id="a_node20"><a xlink:title=" ">
<polygon fill="none" stroke="#bfbfbf" points="330,-224.5 330,-243.5 383,-243.5 383,-224.5 330,-224.5"/>
<text text-anchor="middle" x="356.5" y="-231.5" font-family="JetBrains Mono" font-size="10.00">bitset</text>
</a>
</g>
</g>
<!-- Node1&#45;&gt;Node20 -->
<g id="edge36" class="edge">
<title>Node1&#45;&gt;Node20</title>
<path fill="none" stroke="midnightblue" d="M454.93,-280.4C433.57,-270.55 405.28,-257.5 384.52,-247.92"/>
<polygon fill="midnightblue" stroke="midnightblue" points="385.82,-244.67 375.27,-243.66 382.89,-251.02 385.82,-244.67"/>
</g>
<!-- Node21 -->
<g id="node21" class="node">
<title>Node21</title>
<g id="a_node21"><a xlink:title=" ">
<polygon fill="none" stroke="#bfbfbf" points="401,-224.5 401,-243.5 484,-243.5 484,-224.5 401,-224.5"/>
<text text-anchor="middle" x="442.5" y="-231.5" font-family="JetBrains Mono" font-size="10.00">QDataStream</text>
</a>
</g>
</g>
<!-- Node1&#45;&gt;Node21 -->
<g id="edge37" class="edge">
<title>Node1&#45;&gt;Node21</title>
<path fill="none" stroke="midnightblue" d="M475.31,-280.4C469.13,-271.84 461.2,-260.87 454.68,-251.86"/>
<polygon fill="midnightblue" stroke="midnightblue" points="457.45,-249.71 448.76,-243.66 451.78,-253.81 457.45,-249.71"/>
</g>
<!-- Node22 -->
<g id="node22" class="node">
<title>Node22</title>
<g id="a_node22"><a xlink:title=" ">
<polygon fill="none" stroke="#bfbfbf" points="502,-224.5 502,-243.5 555,-243.5 555,-224.5 502,-224.5"/>
<text text-anchor="middle" x="528.5" y="-231.5" font-family="JetBrains Mono" font-size="10.00">QDebug</text>
</a>
</g>
</g>
<!-- Node1&#45;&gt;Node22 -->
<g id="edge38" class="edge">
<title>Node1&#45;&gt;Node22</title>
<path fill="none" stroke="midnightblue" d="M495.69,-280.4C501.87,-271.84 509.8,-260.87 516.32,-251.86"/>
<polygon fill="midnightblue" stroke="midnightblue" points="519.22,-253.81 522.24,-243.66 513.55,-249.71 519.22,-253.81"/>
</g>
<!-- Node23 -->
<g id="node23" class="node">
<title>Node23</title>
<g id="a_node23"><a xlink:title=" ">
<polygon fill="none" stroke="#bfbfbf" points="573,-224.5 573,-243.5 626,-243.5 626,-224.5 573,-224.5"/>
<text text-anchor="middle" x="599.5" y="-231.5" font-family="JetBrains Mono" font-size="10.00">limits</text>
</a>
</g>
</g>
<!-- Node1&#45;&gt;Node23 -->
<g id="edge39" class="edge">
<title>Node1&#45;&gt;Node23</title>
<path fill="none" stroke="midnightblue" d="M512.52,-280.4C531.13,-270.68 555.71,-257.86 573.99,-248.31"/>
<polygon fill="midnightblue" stroke="midnightblue" points="575.67,-251.39 582.91,-243.66 572.43,-245.18 575.67,-251.39"/>
</g>
<!-- Node24 -->
<g id="node24" class="node">
<title>Node24</title>
<g id="a_node24"><a xlink:title=" ">
<polygon fill="none" stroke="#bfbfbf" points="644,-224.5 644,-243.5 709,-243.5 709,-224.5 644,-224.5"/>
<text text-anchor="middle" x="676.5" y="-231.5" font-family="JetBrains Mono" font-size="10.00">stdint.h</text>
</a>
</g>
</g>
<!-- Node1&#45;&gt;Node24 -->
<g id="edge40" class="edge">
<title>Node1&#45;&gt;Node24</title>
<path fill="none" stroke="midnightblue" d="M530.76,-280.4C563.91,-270.07 608.35,-256.23 639.4,-246.56"/>
<polygon fill="midnightblue" stroke="midnightblue" points="640.48,-249.89 648.99,-243.57 638.4,-243.2 640.48,-249.89"/>
</g>
<!-- Node3 -->
<g id="node3" class="node">
<title>Node3</title>
<g id="a_node3"><a xlink:title=" ">
<polygon fill="none" stroke="#bfbfbf" points="96,-56.5 96,-75.5 143,-75.5 143,-56.5 96,-56.5"/>
<text text-anchor="middle" x="119.5" y="-63.5" font-family="JetBrains Mono" font-size="10.00">QList</text>
</a>
</g>
</g>
<!-- Node2&#45;&gt;Node3 -->
<g id="edge2" class="edge">
<title>Node2&#45;&gt;Node3</title>
<path fill="none" stroke="midnightblue" d="M253.38,-224.35C247.77,-202.96 230.67,-146.77 198.5,-112 185.63,-98.09 167.45,-87.33 151.78,-79.82"/>
<polygon fill="midnightblue" stroke="midnightblue" points="152.96,-76.52 142.41,-75.57 150.07,-82.89 152.96,-76.52"/>
</g>
<!-- Node4 -->
<g id="node4" class="node">
<title>Node4</title>
<g id="a_node4"><a xlink:title=" ">
<polygon fill="none" stroke="#bfbfbf" points="0,-0.5 0,-19.5 59,-19.5 59,-0.5 0,-0.5"/>
<text text-anchor="middle" x="29.5" y="-7.5" font-family="JetBrains Mono" font-size="10.00">QString</text>
</a>
</g>
</g>
<!-- Node2&#45;&gt;Node4 -->
<g id="edge3" class="edge">
<title>Node2&#45;&gt;Node4</title>
<path fill="none" stroke="midnightblue" d="M198.85,-224.99C145.26,-214.08 67.67,-188.91 30.5,-132 10.09,-100.74 17.53,-54.58 23.99,-29.26"/>
<polygon fill="midnightblue" stroke="midnightblue" points="27.4,-30.08 26.71,-19.51 20.66,-28.2 27.4,-30.08"/>
</g>
<!-- Node5 -->
<g id="node5" class="node">
<title>Node5</title>
<g id="a_node5"><a xlink:title=" ">
<polygon fill="none" stroke="#bfbfbf" points="814,-112.5 814,-131.5 873,-131.5 873,-112.5 814,-112.5"/>
<text text-anchor="middle" x="843.5" y="-119.5" font-family="JetBrains Mono" font-size="10.00">variant</text>
</a>
</g>
</g>
<!-- Node2&#45;&gt;Node5 -->
<g id="edge4" class="edge">
<title>Node2&#45;&gt;Node5</title>
<path fill="none" stroke="midnightblue" d="M312.01,-225.17C315.22,-224.76 318.4,-224.37 321.5,-224 476.33,-205.46 518.71,-223.72 670.5,-188 723.8,-175.46 782.92,-150.75 816.41,-135.67"/>
<polygon fill="midnightblue" stroke="midnightblue" points="817.9,-138.84 825.55,-131.51 815,-132.47 817.9,-138.84"/>
</g>
<!-- Node6 -->
<g id="node6" class="node">
<title>Node6</title>
<g id="a_node6"><a xlink:href="_converted_data_types_8hpp.html" target="_top" xlink:title=" ">
<polygon fill="none" stroke="black" points="40,-112.5 40,-131.5 189,-131.5 189,-112.5 40,-112.5"/>
<text text-anchor="middle" x="114.5" y="-119.5" font-family="JetBrains Mono" font-size="10.00">ConvertedDataTypes.hpp</text>
</a>
</g>
</g>
<!-- Node2&#45;&gt;Node6 -->
<g id="edge5" class="edge">
<title>Node2&#45;&gt;Node6</title>
<path fill="none" stroke="midnightblue" d="M244.44,-224.37C220.45,-205.65 163.4,-161.15 133.51,-137.83"/>
<polygon fill="midnightblue" stroke="midnightblue" points="135.55,-134.98 125.51,-131.59 131.24,-140.5 135.55,-134.98"/>
</g>
<!-- Node8 -->
<g id="node8" class="node">
<title>Node8</title>
<g id="a_node8"><a xlink:href="_parsed_data_types_8hpp.html" target="_top" xlink:title=" ">
<polygon fill="none" stroke="black" points="359,-112.5 359,-131.5 490,-131.5 490,-112.5 359,-112.5"/>
<text text-anchor="middle" x="424.5" y="-119.5" font-family="JetBrains Mono" font-size="10.00">ParsedDataTypes.hpp</text>
</a>
</g>
</g>
<!-- Node2&#45;&gt;Node8 -->
<g id="edge9" class="edge">
<title>Node2&#45;&gt;Node8</title>
<path fill="none" stroke="midnightblue" d="M268.76,-224.37C297.76,-205.49 367.06,-160.38 402.63,-137.24"/>
<polygon fill="midnightblue" stroke="midnightblue" points="404.83,-139.98 411.3,-131.59 401.01,-134.11 404.83,-139.98"/>
</g>
<!-- Node14 -->
<g id="node14" class="node">
<title>Node14</title>
<g id="a_node14"><a xlink:href="_program_object_8hpp.html" target="_top" xlink:title=" ">
<polygon fill="none" stroke="black" points="161,-56.5 161,-75.5 340,-75.5 340,-56.5 161,-56.5"/>
<text text-anchor="middle" x="250.5" y="-63.5" font-family="JetBrains Mono" font-size="10.00">../global/ProgramObject.hpp</text>
</a>
</g>
</g>
<!-- Node2&#45;&gt;Node14 -->
<g id="edge16" class="edge">
<title>Node2&#45;&gt;Node14</title>
<path fill="none" stroke="midnightblue" d="M255.23,-224.08C254.44,-197.95 252.13,-121.21 251.06,-85.58"/>
<polygon fill="midnightblue" stroke="midnightblue" points="254.56,-85.46 250.76,-75.57 247.56,-85.67 254.56,-85.46"/>
</g>
<!-- Node15 -->
<g id="node15" class="node">
<title>Node15</title>
<g id="a_node15"><a xlink:href="_interfaces_8hpp.html" target="_top" xlink:title=" ">
<polygon fill="none" stroke="black" points="560,-168.5 560,-187.5 661,-187.5 661,-168.5 560,-168.5"/>
<text text-anchor="middle" x="610.5" y="-175.5" font-family="JetBrains Mono" font-size="10.00">Interfaces.hpp</text>
</a>
</g>
</g>
<!-- Node2&#45;&gt;Node15 -->
<g id="edge19" class="edge">
<title>Node2&#45;&gt;Node15</title>
<path fill="none" stroke="midnightblue" d="M311.75,-224.44C376.74,-214.56 483.28,-198.35 550.02,-188.2"/>
<polygon fill="midnightblue" stroke="midnightblue" points="550.61,-191.65 559.97,-186.69 549.56,-184.73 550.61,-191.65"/>
</g>
<!-- Node6&#45;&gt;Node3 -->
<g id="edge6" class="edge">
<title>Node6&#45;&gt;Node3</title>
<path fill="none" stroke="midnightblue" d="M115.33,-112.08C115.98,-105.01 116.92,-94.86 117.74,-85.99"/>
<polygon fill="midnightblue" stroke="midnightblue" points="121.25,-86.03 118.69,-75.75 114.28,-85.39 121.25,-86.03"/>
</g>
<!-- Node6&#45;&gt;Node4 -->
<g id="edge7" class="edge">
<title>Node6&#45;&gt;Node4</title>
<path fill="none" stroke="midnightblue" d="M97.89,-112.36C84.26,-104.52 65.36,-91.78 53.5,-76 43.12,-62.19 36.83,-43.42 33.31,-29.6"/>
<polygon fill="midnightblue" stroke="midnightblue" points="36.71,-28.73 31.06,-19.77 29.88,-30.3 36.71,-28.73"/>
</g>
<!-- Node7 -->
<g id="node7" class="node">
<title>Node7</title>
<g id="a_node7"><a xlink:title=" ">
<polygon fill="none" stroke="#bfbfbf" points="221,-0.5 221,-19.5 280,-19.5 280,-0.5 221,-0.5"/>
<text text-anchor="middle" x="250.5" y="-7.5" font-family="JetBrains Mono" font-size="10.00">QObject</text>
</a>
</g>
</g>
<!-- Node6&#45;&gt;Node7 -->
<g id="edge8" class="edge">
<title>Node6&#45;&gt;Node7</title>
<path fill="none" stroke="midnightblue" d="M105.43,-112.3C92.81,-99.13 72.94,-73.78 86.5,-56 101.5,-36.33 167.13,-23.13 210.68,-16.36"/>
<polygon fill="midnightblue" stroke="midnightblue" points="211.32,-19.8 220.69,-14.85 210.28,-12.88 211.32,-19.8"/>
</g>
<!-- Node8&#45;&gt;Node3 -->
<g id="edge10" class="edge">
<title>Node8&#45;&gt;Node3</title>
<path fill="none" stroke="midnightblue" d="M360.4,-112.48C307.22,-104.95 229.45,-92.86 153.42,-76.24"/>
<polygon fill="midnightblue" stroke="midnightblue" points="153.71,-72.72 143.19,-73.98 152.2,-79.56 153.71,-72.72"/>
</g>
<!-- Node9 -->
<g id="node9" class="node">
<title>Node9</title>
<g id="a_node9"><a xlink:title=" ">
<polygon fill="none" stroke="#bfbfbf" points="429,-56.5 429,-75.5 530,-75.5 530,-56.5 429,-56.5"/>
<text text-anchor="middle" x="479.5" y="-63.5" font-family="JetBrains Mono" font-size="10.00">QSharedPointer</text>
</a>
</g>
</g>
<!-- Node8&#45;&gt;Node9 -->
<g id="edge11" class="edge">
<title>Node8&#45;&gt;Node9</title>
<path fill="none" stroke="midnightblue" d="M433.58,-112.08C441.67,-104.14 453.7,-92.34 463.41,-82.8"/>
<polygon fill="midnightblue" stroke="midnightblue" points="465.9,-85.25 470.59,-75.75 461,-80.26 465.9,-85.25"/>
</g>
<!-- Node10 -->
<g id="node10" class="node">
<title>Node10</title>
<g id="a_node10"><a xlink:title=" ">
<polygon fill="none" stroke="#bfbfbf" points="358,-56.5 358,-75.5 411,-75.5 411,-56.5 358,-56.5"/>
<text text-anchor="middle" x="384.5" y="-63.5" font-family="JetBrains Mono" font-size="10.00">memory</text>
</a>
</g>
</g>
<!-- Node8&#45;&gt;Node10 -->
<g id="edge12" class="edge">
<title>Node8&#45;&gt;Node10</title>
<path fill="none" stroke="midnightblue" d="M417.89,-112.08C412.24,-104.46 403.96,-93.26 397.05,-83.94"/>
<polygon fill="midnightblue" stroke="midnightblue" points="399.75,-81.7 390.98,-75.75 394.12,-85.87 399.75,-81.7"/>
</g>
<!-- Node11 -->
<g id="node11" class="node">
<title>Node11</title>
<g id="a_node11"><a xlink:href="_static_generator_8hpp.html" target="_top" xlink:title=" ">
<polygon fill="none" stroke="black" points="587,-56.5 587,-75.5 778,-75.5 778,-56.5 587,-56.5"/>
<text text-anchor="middle" x="682.5" y="-63.5" font-family="JetBrains Mono" font-size="10.00">../global/StaticGenerator.hpp</text>
</a>
</g>
</g>
<!-- Node8&#45;&gt;Node11 -->
<g id="edge13" class="edge">
<title>Node8&#45;&gt;Node11</title>
<path fill="none" stroke="midnightblue" d="M465.38,-112.44C510.48,-103 583.11,-87.8 631.8,-77.61"/>
<polygon fill="midnightblue" stroke="midnightblue" points="632.74,-80.99 641.81,-75.52 631.31,-74.14 632.74,-80.99"/>
</g>
<!-- Node12 -->
<g id="node12" class="node">
<title>Node12</title>
<g id="a_node12"><a xlink:title=" ">
<polygon fill="none" stroke="#bfbfbf" points="680,-0.5 680,-19.5 733,-19.5 733,-0.5 680,-0.5"/>
<text text-anchor="middle" x="706.5" y="-7.5" font-family="JetBrains Mono" font-size="10.00">QMutex</text>
</a>
</g>
</g>
<!-- Node11&#45;&gt;Node12 -->
<g id="edge14" class="edge">
<title>Node11&#45;&gt;Node12</title>
<path fill="none" stroke="midnightblue" d="M686.46,-56.08C689.71,-48.77 694.42,-38.18 698.45,-29.1"/>
<polygon fill="midnightblue" stroke="midnightblue" points="701.75,-30.31 702.61,-19.75 695.35,-27.47 701.75,-30.31"/>
</g>
<!-- Node13 -->
<g id="node13" class="node">
<title>Node13</title>
<g id="a_node13"><a xlink:title=" ">
<polygon fill="none" stroke="#bfbfbf" points="799,-0.5 799,-19.5 840,-19.5 840,-0.5 799,-0.5"/>
<text text-anchor="middle" x="819.5" y="-7.5" font-family="JetBrains Mono" font-size="10.00">QMap</text>
</a>
</g>
</g>
<!-- Node11&#45;&gt;Node13 -->
<g id="edge15" class="edge">
<title>Node11&#45;&gt;Node13</title>
<path fill="none" stroke="midnightblue" d="M704.21,-56.44C727.12,-47.41 763.41,-33.11 789.15,-22.96"/>
<polygon fill="midnightblue" stroke="midnightblue" points="790.77,-26.09 798.79,-19.16 788.2,-19.57 790.77,-26.09"/>
</g>
<!-- Node14&#45;&gt;Node4 -->
<g id="edge17" class="edge">
<title>Node14&#45;&gt;Node4</title>
<path fill="none" stroke="midnightblue" d="M215.48,-56.44C175.57,-46.69 110.48,-30.79 68.84,-20.61"/>
<polygon fill="midnightblue" stroke="midnightblue" points="69.59,-17.19 59.05,-18.22 67.93,-23.99 69.59,-17.19"/>
</g>
<!-- Node14&#45;&gt;Node7 -->
<g id="edge18" class="edge">
<title>Node14&#45;&gt;Node7</title>
<path fill="none" stroke="midnightblue" d="M250.5,-56.08C250.5,-49.01 250.5,-38.86 250.5,-29.99"/>
<polygon fill="midnightblue" stroke="midnightblue" points="254,-29.75 250.5,-19.75 247,-29.75 254,-29.75"/>
</g>
<!-- Node15&#45;&gt;Node5 -->
<g id="edge35" class="edge">
<title>Node15&#45;&gt;Node5</title>
<path fill="none" stroke="midnightblue" d="M647.42,-168.44C690.07,-158.56 759.97,-142.36 803.77,-132.21"/>
<polygon fill="midnightblue" stroke="midnightblue" points="804.83,-135.56 813.78,-129.89 803.24,-128.74 804.83,-135.56"/>
</g>
<!-- Node15&#45;&gt;Node6 -->
<g id="edge34" class="edge">
<title>Node15&#45;&gt;Node6</title>
<path fill="none" stroke="midnightblue" d="M559.75,-171.47C474.81,-162.23 302.98,-143.52 199.38,-132.24"/>
<polygon fill="midnightblue" stroke="midnightblue" points="199.59,-128.74 189.27,-131.14 198.83,-135.7 199.59,-128.74"/>
</g>
<!-- Node15&#45;&gt;Node7 -->
<g id="edge22" class="edge">
<title>Node15&#45;&gt;Node7</title>
<path fill="none" stroke="midnightblue" d="M608.18,-168.19C601.68,-145.37 580.99,-84.22 539.5,-56 499.66,-28.9 360.1,-17.25 290.53,-13.04"/>
<polygon fill="midnightblue" stroke="midnightblue" points="290.58,-9.53 280.4,-12.45 290.18,-16.52 290.58,-9.53"/>
</g>
<!-- Node15&#45;&gt;Node8 -->
<g id="edge33" class="edge">
<title>Node15&#45;&gt;Node8</title>
<path fill="none" stroke="midnightblue" d="M581.03,-168.44C549.33,-159.24 498.77,-144.56 463.73,-134.39"/>
<polygon fill="midnightblue" stroke="midnightblue" points="464.41,-130.94 453.83,-131.52 462.46,-137.67 464.41,-130.94"/>
</g>
<!-- Node16 -->
<g id="node16" class="node">
<title>Node16</title>
<g id="a_node16"><a xlink:title=" ">
<polygon fill="none" stroke="#bfbfbf" points="968,-56.5 968,-75.5 1051,-75.5 1051,-56.5 968,-56.5"/>
<text text-anchor="middle" x="1009.5" y="-63.5" font-family="JetBrains Mono" font-size="10.00">QSerialPort</text>
</a>
</g>
</g>
<!-- Node15&#45;&gt;Node16 -->
<g id="edge20" class="edge">
<title>Node15&#45;&gt;Node16</title>
<path fill="none" stroke="midnightblue" d="M634.65,-168.36C658.65,-159.64 696.39,-145.57 728.5,-132 747.91,-123.8 751.43,-118.45 771.5,-112 780.35,-109.15 890.64,-88.75 957.93,-76.41"/>
<polygon fill="midnightblue" stroke="midnightblue" points="958.73,-79.83 967.93,-74.58 957.47,-72.94 958.73,-79.83"/>
</g>
<!-- Node17 -->
<g id="node17" class="node">
<title>Node17</title>
<g id="a_node17"><a xlink:title=" ">
<polygon fill="none" stroke="#bfbfbf" points="1069,-56.5 1069,-75.5 1176,-75.5 1176,-56.5 1069,-56.5"/>
<text text-anchor="middle" x="1122.5" y="-63.5" font-family="JetBrains Mono" font-size="10.00">QSerialPortInfo</text>
</a>
</g>
</g>
<!-- Node15&#45;&gt;Node17 -->
<g id="edge21" class="edge">
<title>Node15&#45;&gt;Node17</title>
<path fill="none" stroke="midnightblue" d="M645.35,-168.44C676.7,-160.33 723.8,-147.18 763.5,-132 782.81,-124.62 785.7,-117.96 805.5,-112 912,-79.95 945.32,-91.51 1058.62,-76.22"/>
<polygon fill="midnightblue" stroke="midnightblue" points="1059.31,-79.66 1068.73,-74.82 1058.35,-72.73 1059.31,-79.66"/>
</g>
<!-- Node18 -->
<g id="node18" class="node">
<title>Node18</title>
<g id="a_node18"><a xlink:href="_port_settings_8hpp.html" target="_top" xlink:title=" ">
<polygon fill="none" stroke="black" points="606,-112.5 606,-131.5 719,-131.5 719,-112.5 606,-112.5"/>
<text text-anchor="middle" x="662.5" y="-119.5" font-family="JetBrains Mono" font-size="10.00">PortSettings.hpp</text>
</a>
</g>
</g>
<!-- Node15&#45;&gt;Node18 -->
<g id="edge23" class="edge">
<title>Node15&#45;&gt;Node18</title>
<path fill="none" stroke="midnightblue" d="M619.09,-168.08C626.66,-160.22 637.88,-148.57 647.01,-139.08"/>
<polygon fill="midnightblue" stroke="midnightblue" points="649.66,-141.38 654.07,-131.75 644.62,-136.53 649.66,-141.38"/>
</g>
<!-- Node18&#45;&gt;Node3 -->
<g id="edge25" class="edge">
<title>Node18&#45;&gt;Node3</title>
<path fill="none" stroke="midnightblue" d="M605.6,-117.33C495.08,-109.99 254.06,-92.9 153.05,-75.93"/>
<polygon fill="midnightblue" stroke="midnightblue" points="153.61,-72.47 143.15,-74.18 152.39,-79.37 153.61,-72.47"/>
</g>
<!-- Node18&#45;&gt;Node9 -->
<g id="edge27" class="edge">
<title>Node18&#45;&gt;Node9</title>
<path fill="none" stroke="midnightblue" d="M633.5,-112.44C602.32,-103.24 552.57,-88.56 518.09,-78.39"/>
<polygon fill="midnightblue" stroke="midnightblue" points="518.94,-74.99 508.36,-75.52 516.96,-81.7 518.94,-74.99"/>
</g>
<!-- Node18&#45;&gt;Node11 -->
<g id="edge32" class="edge">
<title>Node18&#45;&gt;Node11</title>
<path fill="none" stroke="midnightblue" d="M665.8,-112.08C668.48,-104.85 672.35,-94.41 675.69,-85.4"/>
<polygon fill="midnightblue" stroke="midnightblue" points="679.07,-86.34 679.26,-75.75 672.5,-83.91 679.07,-86.34"/>
</g>
<!-- Node18&#45;&gt;Node12 -->
<g id="edge30" class="edge">
<title>Node18&#45;&gt;Node12</title>
<path fill="none" stroke="midnightblue" d="M719.31,-115.13C744.54,-109.38 771.98,-98.08 787.5,-76 803.43,-53.34 771.07,-34.47 742.64,-23"/>
<polygon fill="midnightblue" stroke="midnightblue" points="743.81,-19.7 733.22,-19.4 741.31,-26.24 743.81,-19.7"/>
</g>
<!-- Node18&#45;&gt;Node13 -->
<g id="edge28" class="edge">
<title>Node18&#45;&gt;Node13</title>
<path fill="none" stroke="midnightblue" d="M703.97,-112.47C740.45,-104.15 789.81,-90.64 803.5,-76 815.02,-63.67 818.62,-44.42 819.58,-30.06"/>
<polygon fill="midnightblue" stroke="midnightblue" points="823.08,-29.92 819.88,-19.83 816.09,-29.72 823.08,-29.92"/>
</g>
<!-- Node18&#45;&gt;Node14 -->
<g id="edge31" class="edge">
<title>Node18&#45;&gt;Node14</title>
<path fill="none" stroke="midnightblue" d="M605.65,-113.55C532.82,-104 406.41,-87.43 325.69,-76.85"/>
<polygon fill="midnightblue" stroke="midnightblue" points="325.96,-73.36 315.59,-75.53 325.05,-80.3 325.96,-73.36"/>
</g>
<!-- Node18&#45;&gt;Node16 -->
<g id="edge24" class="edge">
<title>Node18&#45;&gt;Node16</title>
<path fill="none" stroke="midnightblue" d="M719.23,-112.88C776.9,-104.52 869.06,-90.87 957.81,-76.25"/>
<polygon fill="midnightblue" stroke="midnightblue" points="958.48,-79.68 967.77,-74.6 957.34,-72.78 958.48,-79.68"/>
</g>
<!-- Node18&#45;&gt;Node17 -->
<g id="edge29" class="edge">
<title>Node18&#45;&gt;Node17</title>
<path fill="none" stroke="midnightblue" d="M719.25,-115.15C794.48,-107.28 931.65,-92.47 1058.47,-76.23"/>
<polygon fill="midnightblue" stroke="midnightblue" points="1059.27,-79.66 1068.75,-74.91 1058.38,-72.71 1059.27,-79.66"/>
</g>
<!-- Node19 -->
<g id="node19" class="node">
<title>Node19</title>
<g id="a_node19"><a xlink:title=" ">
<polygon fill="none" stroke="#bfbfbf" points="873,-56.5 873,-75.5 950,-75.5 950,-56.5 873,-56.5"/>
<text text-anchor="middle" x="911.5" y="-63.5" font-family="JetBrains Mono" font-size="10.00">functional</text>
</a>
</g>
</g>
<!-- Node18&#45;&gt;Node19 -->
<g id="edge26" class="edge">
<title>Node18&#45;&gt;Node19</title>
<path fill="none" stroke="midnightblue" d="M701.95,-112.44C745.52,-103 815.7,-87.78 862.69,-77.59"/>
<polygon fill="midnightblue" stroke="midnightblue" points="863.61,-80.97 872.64,-75.43 862.13,-74.13 863.61,-80.97"/>
</g>
</g>
</svg>
