<?xml version="1.0" encoding="UTF-8" standalone="no"?>
<!DOCTYPE svg PUBLIC "-//W3C//DTD SVG 1.1//EN"
 "http://www.w3.org/Graphics/SVG/1.1/DTD/svg11.dtd">
<!-- Generated by graphviz version 2.48.0 (20210717.1556)
 -->
<!-- Title: modules/backend/ConvertedDataTypes.hpp Pages: 1 -->
<svg width="1537pt" height="218pt"
 viewBox="0.00 0.00 1536.83 218.00" xmlns="http://www.w3.org/2000/svg" xmlns:xlink="http://www.w3.org/1999/xlink">
<g id="graph0" class="graph" transform="scale(1 1) rotate(0) translate(4 214)">
<title>modules/backend/ConvertedDataTypes.hpp</title>
<!-- Node1 -->
<g id="node1" class="node">
<title>Node1</title>
<g id="a_node1"><a xlink:title=" ">
<polygon fill="#bfbfbf" stroke="black" points="1072,-179.5 1072,-209.5 1239,-209.5 1239,-179.5 1072,-179.5"/>
<text text-anchor="start" x="1080" y="-197.5" font-family="JetBrains Mono" font-size="10.00">modules/backend/Converted</text>
<text text-anchor="middle" x="1155.5" y="-186.5" font-family="JetBrains Mono" font-size="10.00">DataTypes.hpp</text>
</a>
</g>
</g>
<!-- Node2 -->
<g id="node2" class="node">
<title>Node2</title>
<g id="a_node2"><a xlink:href="_converter_8hpp.html" target="_top" xlink:title=" ">
<polygon fill="none" stroke="black" points="0,-67.5 0,-86.5 191,-86.5 191,-67.5 0,-67.5"/>
<text text-anchor="middle" x="95.5" y="-74.5" font-family="JetBrains Mono" font-size="10.00">modules/backend/Converter.hpp</text>
</a>
</g>
</g>
<!-- Node1&#45;&gt;Node2 -->
<g id="edge1" class="edge">
<title>Node1&#45;&gt;Node2</title>
<path fill="none" stroke="midnightblue" d="M1061.67,-183.28C855.16,-160.77 364.54,-107.32 173.51,-86.5"/>
<polygon fill="midnightblue" stroke="midnightblue" points="1061.56,-186.78 1071.88,-184.39 1062.32,-179.83 1061.56,-186.78"/>
</g>
<!-- Node4 -->
<g id="node4" class="node">
<title>Node4</title>
<g id="a_node4"><a xlink:href="_interfaces_8hpp.html" target="_top" xlink:title=" ">
<polygon fill="none" stroke="black" points="715,-123.5 715,-142.5 912,-142.5 912,-123.5 715,-123.5"/>
<text text-anchor="middle" x="813.5" y="-130.5" font-family="JetBrains Mono" font-size="10.00">modules/backend/Interfaces.hpp</text>
</a>
</g>
</g>
<!-- Node1&#45;&gt;Node4 -->
<g id="edge3" class="edge">
<title>Node1&#45;&gt;Node4</title>
<path fill="none" stroke="midnightblue" d="M1064.65,-177.69C999.76,-166.41 914.98,-151.65 862.39,-142.51"/>
<polygon fill="midnightblue" stroke="midnightblue" points="1064.43,-181.21 1074.88,-179.47 1065.63,-174.31 1064.43,-181.21"/>
</g>
<!-- Node12 -->
<g id="node12" class="node">
<title>Node12</title>
<g id="a_node12"><a xlink:href="_bridge_8hpp.html" target="_top" xlink:title=" ">
<polygon fill="none" stroke="black" points="1217,-6 1217,-25 1384,-25 1384,-6 1217,-6"/>
<text text-anchor="middle" x="1300.5" y="-13" font-family="JetBrains Mono" font-size="10.00">modules/bridge/Bridge.hpp</text>
</a>
</g>
</g>
<!-- Node1&#45;&gt;Node12 -->
<g id="edge18" class="edge">
<title>Node1&#45;&gt;Node12</title>
<path fill="none" stroke="midnightblue" d="M1249.44,-179C1346.11,-161.93 1487.04,-130.32 1519.5,-87 1558.12,-35.46 1461.2,-20.88 1384.17,-17.14"/>
<polygon fill="midnightblue" stroke="midnightblue" points="1248.6,-175.59 1239.35,-180.76 1249.8,-182.49 1248.6,-175.59"/>
</g>
<!-- Node15 -->
<g id="node15" class="node">
<title>Node15</title>
<g id="a_node15"><a xlink:href="_tests_bridge_8hpp.html" target="_top" xlink:title=" ">
<polygon fill="none" stroke="black" points="1314,-67.5 1314,-86.5 1511,-86.5 1511,-67.5 1314,-67.5"/>
<text text-anchor="middle" x="1412.5" y="-74.5" font-family="JetBrains Mono" font-size="10.00">modules/bridge/TestsBridge.hpp</text>
</a>
</g>
</g>
<!-- Node1&#45;&gt;Node15 -->
<g id="edge19" class="edge">
<title>Node1&#45;&gt;Node15</title>
<path fill="none" stroke="midnightblue" d="M1196.07,-175.27C1252.38,-149.96 1351.97,-105.2 1393.49,-86.54"/>
<polygon fill="midnightblue" stroke="midnightblue" points="1194.44,-172.16 1186.76,-179.45 1197.31,-178.55 1194.44,-172.16"/>
</g>
<!-- Node3 -->
<g id="node3" class="node">
<title>Node3</title>
<g id="a_node3"><a xlink:href="_converter_8cpp.html" target="_top" xlink:title=" ">
<polygon fill="none" stroke="black" points="12,-0.5 12,-30.5 179,-30.5 179,-0.5 12,-0.5"/>
<text text-anchor="start" x="20" y="-18.5" font-family="JetBrains Mono" font-size="10.00">modules/backend/converter</text>
<text text-anchor="middle" x="95.5" y="-7.5" font-family="JetBrains Mono" font-size="10.00">/Converter.cpp</text>
</a>
</g>
</g>
<!-- Node2&#45;&gt;Node3 -->
<g id="edge2" class="edge">
<title>Node2&#45;&gt;Node3</title>
<path fill="none" stroke="midnightblue" d="M95.5,-57.23C95.5,-48.59 95.5,-38.5 95.5,-30.52"/>
<polygon fill="midnightblue" stroke="midnightblue" points="92,-57.48 95.5,-67.48 99,-57.48 92,-57.48"/>
</g>
<!-- Node4&#45;&gt;Node2 -->
<g id="edge4" class="edge">
<title>Node4&#45;&gt;Node2</title>
<path fill="none" stroke="midnightblue" d="M704.68,-124.46C581.93,-115.85 376.32,-101.13 199.5,-87 196.79,-86.78 194.04,-86.56 191.27,-86.34"/>
<polygon fill="midnightblue" stroke="midnightblue" points="704.62,-127.96 714.84,-125.17 705.11,-120.98 704.62,-127.96"/>
</g>
<!-- Node5 -->
<g id="node5" class="node">
<title>Node5</title>
<g id="a_node5"><a xlink:href="_parser_8hpp.html" target="_top" xlink:title=" ">
<polygon fill="none" stroke="black" points="209,-67.5 209,-86.5 382,-86.5 382,-67.5 209,-67.5"/>
<text text-anchor="middle" x="295.5" y="-74.5" font-family="JetBrains Mono" font-size="10.00">modules/backend/Parser.hpp</text>
</a>
</g>
</g>
<!-- Node4&#45;&gt;Node5 -->
<g id="edge5" class="edge">
<title>Node4&#45;&gt;Node5</title>
<path fill="none" stroke="midnightblue" d="M721.55,-122.41C623.87,-112.23 470.91,-96.29 377.29,-86.53"/>
<polygon fill="midnightblue" stroke="midnightblue" points="721.4,-125.92 731.71,-123.47 722.12,-118.96 721.4,-125.92"/>
</g>
<!-- Node7 -->
<g id="node7" class="node">
<title>Node7</title>
<g id="a_node7"><a xlink:href="_port_operator_8hpp.html" target="_top" xlink:title=" ">
<polygon fill="none" stroke="black" points="400,-67.5 400,-86.5 609,-86.5 609,-67.5 400,-67.5"/>
<text text-anchor="middle" x="504.5" y="-74.5" font-family="JetBrains Mono" font-size="10.00">modules/backend/PortOperator.hpp</text>
</a>
</g>
</g>
<!-- Node4&#45;&gt;Node7 -->
<g id="edge7" class="edge">
<title>Node4&#45;&gt;Node7</title>
<path fill="none" stroke="midnightblue" d="M754.36,-121.66C695.96,-111.46 607.72,-96.04 553.23,-86.52"/>
<polygon fill="midnightblue" stroke="midnightblue" points="754.08,-125.17 764.54,-123.44 755.29,-118.27 754.08,-125.17"/>
</g>
<!-- Node9 -->
<g id="node9" class="node">
<title>Node9</title>
<g id="a_node9"><a xlink:href="_port_scanner_8hpp.html" target="_top" xlink:title=" ">
<polygon fill="none" stroke="black" points="627,-67.5 627,-86.5 830,-86.5 830,-67.5 627,-67.5"/>
<text text-anchor="middle" x="728.5" y="-74.5" font-family="JetBrains Mono" font-size="10.00">modules/backend/PortScanner.hpp</text>
</a>
</g>
</g>
<!-- Node4&#45;&gt;Node9 -->
<g id="edge9" class="edge">
<title>Node4&#45;&gt;Node9</title>
<path fill="none" stroke="midnightblue" d="M791.31,-117.9C775.72,-108 755.37,-95.07 742.12,-86.65"/>
<polygon fill="midnightblue" stroke="midnightblue" points="789.53,-120.92 799.84,-123.32 793.28,-115.01 789.53,-120.92"/>
</g>
<!-- Node11 -->
<g id="node11" class="node">
<title>Node11</title>
<g id="a_node11"><a xlink:href="_settings_bridge_8hpp.html" target="_top" xlink:title=" ">
<polygon fill="none" stroke="black" points="848,-67.5 848,-86.5 1063,-86.5 1063,-67.5 848,-67.5"/>
<text text-anchor="middle" x="955.5" y="-74.5" font-family="JetBrains Mono" font-size="10.00">modules/bridge/SettingsBridge.hpp</text>
</a>
</g>
</g>
<!-- Node4&#45;&gt;Node11 -->
<g id="edge11" class="edge">
<title>Node4&#45;&gt;Node11</title>
<path fill="none" stroke="midnightblue" d="M845.66,-119.77C872.33,-109.63 909.57,-95.47 933.1,-86.52"/>
<polygon fill="midnightblue" stroke="midnightblue" points="844.1,-116.62 836,-123.44 846.59,-123.16 844.1,-116.62"/>
</g>
<!-- Node14 -->
<g id="node14" class="node">
<title>Node14</title>
<g id="a_node14"><a xlink:href="_terminal_bridge_8hpp.html" target="_top" xlink:title=" ">
<polygon fill="none" stroke="black" points="1081,-67.5 1081,-86.5 1296,-86.5 1296,-67.5 1081,-67.5"/>
<text text-anchor="middle" x="1188.5" y="-74.5" font-family="JetBrains Mono" font-size="10.00">modules/bridge/TerminalBridge.hpp</text>
</a>
</g>
</g>
<!-- Node4&#45;&gt;Node14 -->
<g id="edge14" class="edge">
<title>Node4&#45;&gt;Node14</title>
<path fill="none" stroke="midnightblue" d="M883.09,-121.98C953.92,-111.78 1062.55,-96.14 1129.36,-86.52"/>
<polygon fill="midnightblue" stroke="midnightblue" points="882.32,-118.55 872.92,-123.44 883.32,-125.48 882.32,-118.55"/>
</g>
<!-- Node4&#45;&gt;Node15 -->
<g id="edge16" class="edge">
<title>Node4&#45;&gt;Node15</title>
<path fill="none" stroke="midnightblue" d="M918.12,-122.57C1030.99,-112.39 1209.11,-96.34 1317.92,-86.53"/>
<polygon fill="midnightblue" stroke="midnightblue" points="917.73,-119.09 908.08,-123.47 918.36,-126.06 917.73,-119.09"/>
</g>
<!-- Node6 -->
<g id="node6" class="node">
<title>Node6</title>
<g id="a_node6"><a xlink:href="_parser_8cpp.html" target="_top" xlink:title=" ">
<polygon fill="none" stroke="black" points="221,-0.5 221,-30.5 370,-30.5 370,-0.5 221,-0.5"/>
<text text-anchor="start" x="229" y="-18.5" font-family="JetBrains Mono" font-size="10.00">modules/backend/parser</text>
<text text-anchor="middle" x="295.5" y="-7.5" font-family="JetBrains Mono" font-size="10.00">/Parser.cpp</text>
</a>
</g>
</g>
<!-- Node5&#45;&gt;Node6 -->
<g id="edge6" class="edge">
<title>Node5&#45;&gt;Node6</title>
<path fill="none" stroke="midnightblue" d="M295.5,-57.23C295.5,-48.59 295.5,-38.5 295.5,-30.52"/>
<polygon fill="midnightblue" stroke="midnightblue" points="292,-57.48 295.5,-67.48 299,-57.48 292,-57.48"/>
</g>
<!-- Node8 -->
<g id="node8" class="node">
<title>Node8</title>
<g id="a_node8"><a xlink:href="_port_operator_8cpp.html" target="_top" xlink:title=" ">
<polygon fill="none" stroke="black" points="436,-0.5 436,-30.5 573,-30.5 573,-0.5 436,-0.5"/>
<text text-anchor="start" x="444" y="-18.5" font-family="JetBrains Mono" font-size="10.00">modules/backend/port</text>
<text text-anchor="middle" x="504.5" y="-7.5" font-family="JetBrains Mono" font-size="10.00">/PortOperator.cpp</text>
</a>
</g>
</g>
<!-- Node7&#45;&gt;Node8 -->
<g id="edge8" class="edge">
<title>Node7&#45;&gt;Node8</title>
<path fill="none" stroke="midnightblue" d="M504.5,-57.23C504.5,-48.59 504.5,-38.5 504.5,-30.52"/>
<polygon fill="midnightblue" stroke="midnightblue" points="501,-57.48 504.5,-67.48 508,-57.48 501,-57.48"/>
</g>
<!-- Node10 -->
<g id="node10" class="node">
<title>Node10</title>
<g id="a_node10"><a xlink:href="_port_scanner_8cpp.html" target="_top" xlink:title=" ">
<polygon fill="none" stroke="black" points="660,-0.5 660,-30.5 797,-30.5 797,-0.5 660,-0.5"/>
<text text-anchor="start" x="668" y="-18.5" font-family="JetBrains Mono" font-size="10.00">modules/backend/port</text>
<text text-anchor="middle" x="728.5" y="-7.5" font-family="JetBrains Mono" font-size="10.00">/PortScanner.cpp</text>
</a>
</g>
</g>
<!-- Node9&#45;&gt;Node10 -->
<g id="edge10" class="edge">
<title>Node9&#45;&gt;Node10</title>
<path fill="none" stroke="midnightblue" d="M728.5,-57.23C728.5,-48.59 728.5,-38.5 728.5,-30.52"/>
<polygon fill="midnightblue" stroke="midnightblue" points="725,-57.48 728.5,-67.48 732,-57.48 725,-57.48"/>
</g>
<!-- Node11&#45;&gt;Node12 -->
<g id="edge12" class="edge">
<title>Node11&#45;&gt;Node12</title>
<path fill="none" stroke="midnightblue" d="M1014.88,-65.76C1081.64,-54.25 1188.82,-35.76 1251.16,-25.01"/>
<polygon fill="midnightblue" stroke="midnightblue" points="1014.19,-62.33 1004.93,-67.48 1015.38,-69.22 1014.19,-62.33"/>
</g>
<!-- Node13 -->
<g id="node13" class="node">
<title>Node13</title>
<g id="a_node13"><a xlink:href="_settings_bridge_8cpp.html" target="_top" xlink:title=" ">
<polygon fill="none" stroke="black" points="848,-6 848,-25 1063,-25 1063,-6 848,-6"/>
<text text-anchor="middle" x="955.5" y="-13" font-family="JetBrains Mono" font-size="10.00">modules/bridge/SettingsBridge.cpp</text>
</a>
</g>
</g>
<!-- Node11&#45;&gt;Node13 -->
<g id="edge13" class="edge">
<title>Node11&#45;&gt;Node13</title>
<path fill="none" stroke="midnightblue" d="M955.5,-57.32C955.5,-46.5 955.5,-33.4 955.5,-25.01"/>
<polygon fill="midnightblue" stroke="midnightblue" points="952,-57.48 955.5,-67.48 959,-57.48 952,-57.48"/>
</g>
<!-- Node14&#45;&gt;Node12 -->
<g id="edge15" class="edge">
<title>Node14&#45;&gt;Node12</title>
<path fill="none" stroke="midnightblue" d="M1213.51,-62.71C1235.2,-51.19 1265.95,-34.86 1284.48,-25.01"/>
<polygon fill="midnightblue" stroke="midnightblue" points="1211.74,-59.69 1204.55,-67.48 1215.02,-65.87 1211.74,-59.69"/>
</g>
<!-- Node15&#45;&gt;Node12 -->
<g id="edge17" class="edge">
<title>Node15&#45;&gt;Node12</title>
<path fill="none" stroke="midnightblue" d="M1387.49,-62.71C1365.8,-51.19 1335.05,-34.86 1316.52,-25.01"/>
<polygon fill="midnightblue" stroke="midnightblue" points="1385.98,-65.87 1396.45,-67.48 1389.26,-59.69 1385.98,-65.87"/>
</g>
</g>
</svg>
