<?xml version="1.0" encoding="UTF-8" standalone="no"?>
<!DOCTYPE svg PUBLIC "-//W3C//DTD SVG 1.1//EN"
 "http://www.w3.org/Graphics/SVG/1.1/DTD/svg11.dtd">
<!-- Generated by graphviz version 2.48.0 (20210717.1556)
 -->
<!-- Title: modules/bridge/ErrorReporter.hpp Pages: 1 -->
<svg width="402pt" height="84pt"
 viewBox="0.00 0.00 402.00 84.00" xmlns="http://www.w3.org/2000/svg" xmlns:xlink="http://www.w3.org/1999/xlink">
<g id="graph0" class="graph" transform="scale(1 1) rotate(0) translate(4 80)">
<title>modules/bridge/ErrorReporter.hpp</title>
<!-- Node1 -->
<g id="node1" class="node">
<title>Node1</title>
<g id="a_node1"><a xlink:title=" ">
<polygon fill="#bfbfbf" stroke="black" points="82,-56.5 82,-75.5 291,-75.5 291,-56.5 82,-56.5"/>
<text text-anchor="middle" x="186.5" y="-63.5" font-family="JetBrains Mono" font-size="10.00">modules/bridge/ErrorReporter.hpp</text>
</a>
</g>
</g>
<!-- Node2 -->
<g id="node2" class="node">
<title>Node2</title>
<g id="a_node2"><a xlink:href="_bridge_8hpp.html" target="_top" xlink:title=" ">
<polygon fill="none" stroke="black" points="0,-0.5 0,-19.5 167,-19.5 167,-0.5 0,-0.5"/>
<text text-anchor="middle" x="83.5" y="-7.5" font-family="JetBrains Mono" font-size="10.00">modules/bridge/Bridge.hpp</text>
</a>
</g>
</g>
<!-- Node1&#45;&gt;Node2 -->
<g id="edge1" class="edge">
<title>Node1&#45;&gt;Node2</title>
<path fill="none" stroke="midnightblue" d="M160.92,-51.59C141.88,-41.61 116.44,-28.27 100.01,-19.65"/>
<polygon fill="midnightblue" stroke="midnightblue" points="159.47,-54.78 169.95,-56.32 162.72,-48.58 159.47,-54.78"/>
</g>
<!-- Node3 -->
<g id="node3" class="node">
<title>Node3</title>
<g id="a_node3"><a xlink:href="_error_reporter_8cpp.html" target="_top" xlink:title=" ">
<polygon fill="none" stroke="black" points="185,-0.5 185,-19.5 394,-19.5 394,-0.5 185,-0.5"/>
<text text-anchor="middle" x="289.5" y="-7.5" font-family="JetBrains Mono" font-size="10.00">modules/bridge/ErrorReporter.cpp</text>
</a>
</g>
</g>
<!-- Node1&#45;&gt;Node3 -->
<g id="edge2" class="edge">
<title>Node1&#45;&gt;Node3</title>
<path fill="none" stroke="midnightblue" d="M212.08,-51.59C231.12,-41.61 256.56,-28.27 272.99,-19.65"/>
<polygon fill="midnightblue" stroke="midnightblue" points="210.28,-48.58 203.05,-56.32 213.53,-54.78 210.28,-48.58"/>
</g>
</g>
</svg>
