<?xml version="1.0" encoding="UTF-8" standalone="no"?>
<!DOCTYPE svg PUBLIC "-//W3C//DTD SVG 1.1//EN"
 "http://www.w3.org/Graphics/SVG/1.1/DTD/svg11.dtd">
<!-- Generated by graphviz version 2.48.0 (20210717.1556)
 -->
<!-- Title: modules/bridge/ErrorReporter.hpp Pages: 1 -->
<svg width="217pt" height="84pt"
 viewBox="0.00 0.00 217.00 84.00" xmlns="http://www.w3.org/2000/svg" xmlns:xlink="http://www.w3.org/1999/xlink">
<g id="graph0" class="graph" transform="scale(1 1) rotate(0) translate(4 80)">
<title>modules/bridge/ErrorReporter.hpp</title>
<!-- Node1 -->
<g id="node1" class="node">
<title>Node1</title>
<g id="a_node1"><a xlink:title=" ">
<polygon fill="#bfbfbf" stroke="black" points="0,-56.5 0,-75.5 209,-75.5 209,-56.5 0,-56.5"/>
<text text-anchor="middle" x="104.5" y="-63.5" font-family="JetBrains Mono" font-size="10.00">modules/bridge/ErrorReporter.hpp</text>
</a>
</g>
</g>
<!-- Node2 -->
<g id="node2" class="node">
<title>Node2</title>
<g id="a_node2"><a xlink:title=" ">
<polygon fill="none" stroke="#bfbfbf" points="38,-0.5 38,-19.5 97,-19.5 97,-0.5 38,-0.5"/>
<text text-anchor="middle" x="67.5" y="-7.5" font-family="JetBrains Mono" font-size="10.00">QObject</text>
</a>
</g>
</g>
<!-- Node1&#45;&gt;Node2 -->
<g id="edge1" class="edge">
<title>Node1&#45;&gt;Node2</title>
<path fill="none" stroke="midnightblue" d="M98.39,-56.08C93.22,-48.53 85.65,-37.49 79.31,-28.23"/>
<polygon fill="midnightblue" stroke="midnightblue" points="82.04,-26.02 73.5,-19.75 76.26,-29.98 82.04,-26.02"/>
</g>
<!-- Node3 -->
<g id="node3" class="node">
<title>Node3</title>
<g id="a_node3"><a xlink:title=" ">
<polygon fill="none" stroke="#bfbfbf" points="115,-0.5 115,-19.5 168,-19.5 168,-0.5 115,-0.5"/>
<text text-anchor="middle" x="141.5" y="-7.5" font-family="JetBrains Mono" font-size="10.00">QMutex</text>
</a>
</g>
</g>
<!-- Node1&#45;&gt;Node3 -->
<g id="edge2" class="edge">
<title>Node1&#45;&gt;Node3</title>
<path fill="none" stroke="midnightblue" d="M110.61,-56.08C115.78,-48.53 123.35,-37.49 129.69,-28.23"/>
<polygon fill="midnightblue" stroke="midnightblue" points="132.74,-29.98 135.5,-19.75 126.96,-26.02 132.74,-29.98"/>
</g>
</g>
</svg>
