<?xml version="1.0" encoding="UTF-8" standalone="no"?>
<!DOCTYPE svg PUBLIC "-//W3C//DTD SVG 1.1//EN"
 "http://www.w3.org/Graphics/SVG/1.1/DTD/svg11.dtd">
<!-- Generated by graphviz version 2.48.0 (20210717.1556)
 -->
<!-- Title: modules/backend/Interfaces.hpp Pages: 1 -->
<svg width="1519pt" height="151pt"
 viewBox="0.00 0.00 1519.00 151.00" xmlns="http://www.w3.org/2000/svg" xmlns:xlink="http://www.w3.org/1999/xlink">
<g id="graph0" class="graph" transform="scale(1 1) rotate(0) translate(4 147)">
<title>modules/backend/Interfaces.hpp</title>
<!-- Node1 -->
<g id="node1" class="node">
<title>Node1</title>
<g id="a_node1"><a xlink:title=" ">
<polygon fill="#bfbfbf" stroke="black" points="630,-123.5 630,-142.5 827,-142.5 827,-123.5 630,-123.5"/>
<text text-anchor="middle" x="728.5" y="-130.5" font-family="JetBrains Mono" font-size="10.00">modules/backend/Interfaces.hpp</text>
</a>
</g>
</g>
<!-- Node2 -->
<g id="node2" class="node">
<title>Node2</title>
<g id="a_node2"><a xlink:href="_converter_8hpp.html" target="_top" xlink:title=" ">
<polygon fill="none" stroke="black" points="0,-67.5 0,-86.5 191,-86.5 191,-67.5 0,-67.5"/>
<text text-anchor="middle" x="95.5" y="-74.5" font-family="JetBrains Mono" font-size="10.00">modules/backend/Converter.hpp</text>
</a>
</g>
</g>
<!-- Node1&#45;&gt;Node2 -->
<g id="edge1" class="edge">
<title>Node1&#45;&gt;Node2</title>
<path fill="none" stroke="midnightblue" d="M619.38,-122.76C512.41,-113.7 344.73,-99.46 199.5,-87 196.79,-86.77 194.04,-86.53 191.27,-86.29"/>
<polygon fill="midnightblue" stroke="midnightblue" points="619.28,-126.27 629.54,-123.63 619.87,-119.29 619.28,-126.27"/>
</g>
<!-- Node4 -->
<g id="node4" class="node">
<title>Node4</title>
<g id="a_node4"><a xlink:href="_parser_8hpp.html" target="_top" xlink:title=" ">
<polygon fill="none" stroke="black" points="209,-67.5 209,-86.5 382,-86.5 382,-67.5 209,-67.5"/>
<text text-anchor="middle" x="295.5" y="-74.5" font-family="JetBrains Mono" font-size="10.00">modules/backend/Parser.hpp</text>
</a>
</g>
</g>
<!-- Node1&#45;&gt;Node4 -->
<g id="edge3" class="edge">
<title>Node1&#45;&gt;Node4</title>
<path fill="none" stroke="midnightblue" d="M649.9,-122.2C568.16,-112 441.49,-96.21 363.79,-86.52"/>
<polygon fill="midnightblue" stroke="midnightblue" points="649.53,-125.68 659.89,-123.44 650.4,-118.73 649.53,-125.68"/>
</g>
<!-- Node6 -->
<g id="node6" class="node">
<title>Node6</title>
<g id="a_node6"><a xlink:href="_port_operator_8hpp.html" target="_top" xlink:title=" ">
<polygon fill="none" stroke="black" points="400,-67.5 400,-86.5 609,-86.5 609,-67.5 400,-67.5"/>
<text text-anchor="middle" x="504.5" y="-74.5" font-family="JetBrains Mono" font-size="10.00">modules/backend/PortOperator.hpp</text>
</a>
</g>
</g>
<!-- Node1&#45;&gt;Node6 -->
<g id="edge5" class="edge">
<title>Node1&#45;&gt;Node6</title>
<path fill="none" stroke="midnightblue" d="M683.24,-121.09C640.92,-110.89 578.59,-95.86 539.83,-86.52"/>
<polygon fill="midnightblue" stroke="midnightblue" points="682.46,-124.5 693.01,-123.44 684.11,-117.7 682.46,-124.5"/>
</g>
<!-- Node8 -->
<g id="node8" class="node">
<title>Node8</title>
<g id="a_node8"><a xlink:href="_port_scanner_8hpp.html" target="_top" xlink:title=" ">
<polygon fill="none" stroke="black" points="627,-67.5 627,-86.5 830,-86.5 830,-67.5 627,-67.5"/>
<text text-anchor="middle" x="728.5" y="-74.5" font-family="JetBrains Mono" font-size="10.00">modules/backend/PortScanner.hpp</text>
</a>
</g>
</g>
<!-- Node1&#45;&gt;Node8 -->
<g id="edge7" class="edge">
<title>Node1&#45;&gt;Node8</title>
<path fill="none" stroke="midnightblue" d="M728.5,-112.8C728.5,-103.91 728.5,-93.78 728.5,-86.75"/>
<polygon fill="midnightblue" stroke="midnightblue" points="725,-113.08 728.5,-123.08 732,-113.08 725,-113.08"/>
</g>
<!-- Node10 -->
<g id="node10" class="node">
<title>Node10</title>
<g id="a_node10"><a xlink:href="_settings_bridge_8hpp.html" target="_top" xlink:title=" ">
<polygon fill="none" stroke="black" points="1296,-67.5 1296,-86.5 1511,-86.5 1511,-67.5 1296,-67.5"/>
<text text-anchor="middle" x="1403.5" y="-74.5" font-family="JetBrains Mono" font-size="10.00">modules/bridge/SettingsBridge.hpp</text>
</a>
</g>
</g>
<!-- Node1&#45;&gt;Node10 -->
<g id="edge9" class="edge">
<title>Node1&#45;&gt;Node10</title>
<path fill="none" stroke="midnightblue" d="M837.11,-123.31C963.65,-113.19 1171.37,-96.57 1296.99,-86.52"/>
<polygon fill="midnightblue" stroke="midnightblue" points="836.7,-119.83 827.01,-124.12 837.26,-126.81 836.7,-119.83"/>
</g>
<!-- Node13 -->
<g id="node13" class="node">
<title>Node13</title>
<g id="a_node13"><a xlink:href="_terminal_bridge_8hpp.html" target="_top" xlink:title=" ">
<polygon fill="none" stroke="black" points="848,-67.5 848,-86.5 1063,-86.5 1063,-67.5 848,-67.5"/>
<text text-anchor="middle" x="955.5" y="-74.5" font-family="JetBrains Mono" font-size="10.00">modules/bridge/TerminalBridge.hpp</text>
</a>
</g>
</g>
<!-- Node1&#45;&gt;Node13 -->
<g id="edge12" class="edge">
<title>Node1&#45;&gt;Node13</title>
<path fill="none" stroke="midnightblue" d="M774.37,-121.09C817.25,-110.89 880.42,-95.86 919.7,-86.52"/>
<polygon fill="midnightblue" stroke="midnightblue" points="773.39,-117.72 764.47,-123.44 775.01,-124.53 773.39,-117.72"/>
</g>
<!-- Node14 -->
<g id="node14" class="node">
<title>Node14</title>
<g id="a_node14"><a xlink:href="_tests_bridge_8hpp.html" target="_top" xlink:title=" ">
<polygon fill="none" stroke="black" points="1081,-67.5 1081,-86.5 1278,-86.5 1278,-67.5 1081,-67.5"/>
<text text-anchor="middle" x="1179.5" y="-74.5" font-family="JetBrains Mono" font-size="10.00">modules/bridge/TestsBridge.hpp</text>
</a>
</g>
</g>
<!-- Node1&#45;&gt;Node14 -->
<g id="edge14" class="edge">
<title>Node1&#45;&gt;Node14</title>
<path fill="none" stroke="midnightblue" d="M810.1,-122.23C895.24,-112.04 1027.36,-96.22 1108.37,-86.52"/>
<polygon fill="midnightblue" stroke="midnightblue" points="809.48,-118.78 799.96,-123.44 810.31,-125.73 809.48,-118.78"/>
</g>
<!-- Node3 -->
<g id="node3" class="node">
<title>Node3</title>
<g id="a_node3"><a xlink:href="_converter_8cpp.html" target="_top" xlink:title=" ">
<polygon fill="none" stroke="black" points="12,-0.5 12,-30.5 179,-30.5 179,-0.5 12,-0.5"/>
<text text-anchor="start" x="20" y="-18.5" font-family="JetBrains Mono" font-size="10.00">modules/backend/converter</text>
<text text-anchor="middle" x="95.5" y="-7.5" font-family="JetBrains Mono" font-size="10.00">/Converter.cpp</text>
</a>
</g>
</g>
<!-- Node2&#45;&gt;Node3 -->
<g id="edge2" class="edge">
<title>Node2&#45;&gt;Node3</title>
<path fill="none" stroke="midnightblue" d="M95.5,-57.23C95.5,-48.59 95.5,-38.5 95.5,-30.52"/>
<polygon fill="midnightblue" stroke="midnightblue" points="92,-57.48 95.5,-67.48 99,-57.48 92,-57.48"/>
</g>
<!-- Node5 -->
<g id="node5" class="node">
<title>Node5</title>
<g id="a_node5"><a xlink:href="_parser_8cpp.html" target="_top" xlink:title=" ">
<polygon fill="none" stroke="black" points="221,-0.5 221,-30.5 370,-30.5 370,-0.5 221,-0.5"/>
<text text-anchor="start" x="229" y="-18.5" font-family="JetBrains Mono" font-size="10.00">modules/backend/parser</text>
<text text-anchor="middle" x="295.5" y="-7.5" font-family="JetBrains Mono" font-size="10.00">/Parser.cpp</text>
</a>
</g>
</g>
<!-- Node4&#45;&gt;Node5 -->
<g id="edge4" class="edge">
<title>Node4&#45;&gt;Node5</title>
<path fill="none" stroke="midnightblue" d="M295.5,-57.23C295.5,-48.59 295.5,-38.5 295.5,-30.52"/>
<polygon fill="midnightblue" stroke="midnightblue" points="292,-57.48 295.5,-67.48 299,-57.48 292,-57.48"/>
</g>
<!-- Node7 -->
<g id="node7" class="node">
<title>Node7</title>
<g id="a_node7"><a xlink:href="_port_operator_8cpp.html" target="_top" xlink:title=" ">
<polygon fill="none" stroke="black" points="436,-0.5 436,-30.5 573,-30.5 573,-0.5 436,-0.5"/>
<text text-anchor="start" x="444" y="-18.5" font-family="JetBrains Mono" font-size="10.00">modules/backend/port</text>
<text text-anchor="middle" x="504.5" y="-7.5" font-family="JetBrains Mono" font-size="10.00">/PortOperator.cpp</text>
</a>
</g>
</g>
<!-- Node6&#45;&gt;Node7 -->
<g id="edge6" class="edge">
<title>Node6&#45;&gt;Node7</title>
<path fill="none" stroke="midnightblue" d="M504.5,-57.23C504.5,-48.59 504.5,-38.5 504.5,-30.52"/>
<polygon fill="midnightblue" stroke="midnightblue" points="501,-57.48 504.5,-67.48 508,-57.48 501,-57.48"/>
</g>
<!-- Node9 -->
<g id="node9" class="node">
<title>Node9</title>
<g id="a_node9"><a xlink:href="_port_scanner_8cpp.html" target="_top" xlink:title=" ">
<polygon fill="none" stroke="black" points="660,-0.5 660,-30.5 797,-30.5 797,-0.5 660,-0.5"/>
<text text-anchor="start" x="668" y="-18.5" font-family="JetBrains Mono" font-size="10.00">modules/backend/port</text>
<text text-anchor="middle" x="728.5" y="-7.5" font-family="JetBrains Mono" font-size="10.00">/PortScanner.cpp</text>
</a>
</g>
</g>
<!-- Node8&#45;&gt;Node9 -->
<g id="edge8" class="edge">
<title>Node8&#45;&gt;Node9</title>
<path fill="none" stroke="midnightblue" d="M728.5,-57.23C728.5,-48.59 728.5,-38.5 728.5,-30.52"/>
<polygon fill="midnightblue" stroke="midnightblue" points="725,-57.48 728.5,-67.48 732,-57.48 725,-57.48"/>
</g>
<!-- Node11 -->
<g id="node11" class="node">
<title>Node11</title>
<g id="a_node11"><a xlink:href="_bridge_8hpp.html" target="_top" xlink:title=" ">
<polygon fill="none" stroke="black" points="1096,-6 1096,-25 1263,-25 1263,-6 1096,-6"/>
<text text-anchor="middle" x="1179.5" y="-13" font-family="JetBrains Mono" font-size="10.00">modules/bridge/Bridge.hpp</text>
</a>
</g>
</g>
<!-- Node10&#45;&gt;Node11 -->
<g id="edge10" class="edge">
<title>Node10&#45;&gt;Node11</title>
<path fill="none" stroke="midnightblue" d="M1361.7,-64.9C1318.19,-53.34 1251.01,-35.5 1211.53,-25.01"/>
<polygon fill="midnightblue" stroke="midnightblue" points="1360.84,-68.29 1371.41,-67.48 1362.64,-61.53 1360.84,-68.29"/>
</g>
<!-- Node12 -->
<g id="node12" class="node">
<title>Node12</title>
<g id="a_node12"><a xlink:href="_settings_bridge_8cpp.html" target="_top" xlink:title=" ">
<polygon fill="none" stroke="black" points="1296,-6 1296,-25 1511,-25 1511,-6 1296,-6"/>
<text text-anchor="middle" x="1403.5" y="-13" font-family="JetBrains Mono" font-size="10.00">modules/bridge/SettingsBridge.cpp</text>
</a>
</g>
</g>
<!-- Node10&#45;&gt;Node12 -->
<g id="edge11" class="edge">
<title>Node10&#45;&gt;Node12</title>
<path fill="none" stroke="midnightblue" d="M1403.5,-57.32C1403.5,-46.5 1403.5,-33.4 1403.5,-25.01"/>
<polygon fill="midnightblue" stroke="midnightblue" points="1400,-57.48 1403.5,-67.48 1407,-57.48 1400,-57.48"/>
</g>
<!-- Node13&#45;&gt;Node11 -->
<g id="edge13" class="edge">
<title>Node13&#45;&gt;Node11</title>
<path fill="none" stroke="midnightblue" d="M997.3,-64.9C1040.81,-53.34 1107.99,-35.5 1147.47,-25.01"/>
<polygon fill="midnightblue" stroke="midnightblue" points="996.36,-61.53 987.59,-67.48 998.16,-68.29 996.36,-61.53"/>
</g>
<!-- Node14&#45;&gt;Node11 -->
<g id="edge15" class="edge">
<title>Node14&#45;&gt;Node11</title>
<path fill="none" stroke="midnightblue" d="M1179.5,-57.32C1179.5,-46.5 1179.5,-33.4 1179.5,-25.01"/>
<polygon fill="midnightblue" stroke="midnightblue" points="1176,-57.48 1179.5,-67.48 1183,-57.48 1176,-57.48"/>
</g>
</g>
</svg>
