<?xml version="1.0" encoding="UTF-8" standalone="no"?>
<!DOCTYPE svg PUBLIC "-//W3C//DTD SVG 1.1//EN"
 "http://www.w3.org/Graphics/SVG/1.1/DTD/svg11.dtd">
<!-- Generated by graphviz version 2.48.0 (20210717.1556)
 -->
<!-- Title: modules/backend/Interfaces.hpp Pages: 1 -->
<svg width="1242pt" height="196pt"
 viewBox="0.00 0.00 1242.00 196.00" xmlns="http://www.w3.org/2000/svg" xmlns:xlink="http://www.w3.org/1999/xlink">
<g id="graph0" class="graph" transform="scale(1 1) rotate(0) translate(4 192)">
<title>modules/backend/Interfaces.hpp</title>
<!-- Node1 -->
<g id="node1" class="node">
<title>Node1</title>
<g id="a_node1"><a xlink:title=" ">
<polygon fill="#bfbfbf" stroke="black" points="759,-168.5 759,-187.5 956,-187.5 956,-168.5 759,-168.5"/>
<text text-anchor="middle" x="857.5" y="-175.5" font-family="JetBrains Mono" font-size="10.00">modules/backend/Interfaces.hpp</text>
</a>
</g>
</g>
<!-- Node2 -->
<g id="node2" class="node">
<title>Node2</title>
<g id="a_node2"><a xlink:title=" ">
<polygon fill="none" stroke="#bfbfbf" points="0,-56.5 0,-75.5 83,-75.5 83,-56.5 0,-56.5"/>
<text text-anchor="middle" x="41.5" y="-63.5" font-family="JetBrains Mono" font-size="10.00">QSerialPort</text>
</a>
</g>
</g>
<!-- Node1&#45;&gt;Node2 -->
<g id="edge1" class="edge">
<title>Node1&#45;&gt;Node2</title>
<path fill="none" stroke="midnightblue" d="M758.72,-171.46C657.39,-165 495.38,-152.5 356.5,-132 259.37,-117.66 147.07,-92.36 86.25,-77.91"/>
<polygon fill="midnightblue" stroke="midnightblue" points="86.77,-74.44 76.23,-75.52 85.14,-81.25 86.77,-74.44"/>
</g>
<!-- Node3 -->
<g id="node3" class="node">
<title>Node3</title>
<g id="a_node3"><a xlink:title=" ">
<polygon fill="none" stroke="#bfbfbf" points="101,-56.5 101,-75.5 208,-75.5 208,-56.5 101,-56.5"/>
<text text-anchor="middle" x="154.5" y="-63.5" font-family="JetBrains Mono" font-size="10.00">QSerialPortInfo</text>
</a>
</g>
</g>
<!-- Node1&#45;&gt;Node3 -->
<g id="edge2" class="edge">
<title>Node1&#45;&gt;Node3</title>
<path fill="none" stroke="midnightblue" d="M759.5,-168.49C679.14,-160.88 562.58,-148.41 461.5,-132 367.71,-116.78 259.22,-92.13 199.59,-77.96"/>
<polygon fill="midnightblue" stroke="midnightblue" points="200.29,-74.53 189.75,-75.61 198.66,-81.34 200.29,-74.53"/>
</g>
<!-- Node4 -->
<g id="node4" class="node">
<title>Node4</title>
<g id="a_node4"><a xlink:title=" ">
<polygon fill="none" stroke="#bfbfbf" points="1079,-0.5 1079,-19.5 1138,-19.5 1138,-0.5 1079,-0.5"/>
<text text-anchor="middle" x="1108.5" y="-7.5" font-family="JetBrains Mono" font-size="10.00">QObject</text>
</a>
</g>
</g>
<!-- Node1&#45;&gt;Node4 -->
<g id="edge3" class="edge">
<title>Node1&#45;&gt;Node4</title>
<path fill="none" stroke="midnightblue" d="M956.1,-172.55C1019.69,-167.38 1094.18,-156.19 1114.5,-132 1138.88,-102.98 1125.97,-54.87 1116.18,-28.92"/>
<polygon fill="midnightblue" stroke="midnightblue" points="1119.4,-27.54 1112.42,-19.56 1112.9,-30.15 1119.4,-27.54"/>
</g>
<!-- Node5 -->
<g id="node5" class="node">
<title>Node5</title>
<g id="a_node5"><a xlink:href="_port_settings_8hpp.html" target="_top" xlink:title=" ">
<polygon fill="none" stroke="black" points="471,-112.5 471,-131.5 584,-131.5 584,-112.5 471,-112.5"/>
<text text-anchor="middle" x="527.5" y="-119.5" font-family="JetBrains Mono" font-size="10.00">PortSettings.hpp</text>
</a>
</g>
</g>
<!-- Node1&#45;&gt;Node5 -->
<g id="edge4" class="edge">
<title>Node1&#45;&gt;Node5</title>
<path fill="none" stroke="midnightblue" d="M805.21,-168.44C746.68,-158.87 651.9,-143.36 589.63,-133.17"/>
<polygon fill="midnightblue" stroke="midnightblue" points="589.98,-129.68 579.54,-131.52 588.85,-136.59 589.98,-129.68"/>
</g>
<!-- Node14 -->
<g id="node14" class="node">
<title>Node14</title>
<g id="a_node14"><a xlink:href="_parsed_data_types_8hpp.html" target="_top" xlink:title=" ">
<polygon fill="none" stroke="black" points="792,-112.5 792,-131.5 923,-131.5 923,-112.5 792,-112.5"/>
<text text-anchor="middle" x="857.5" y="-119.5" font-family="JetBrains Mono" font-size="10.00">ParsedDataTypes.hpp</text>
</a>
</g>
</g>
<!-- Node1&#45;&gt;Node14 -->
<g id="edge18" class="edge">
<title>Node1&#45;&gt;Node14</title>
<path fill="none" stroke="midnightblue" d="M857.5,-168.08C857.5,-161.01 857.5,-150.86 857.5,-141.99"/>
<polygon fill="midnightblue" stroke="midnightblue" points="861,-141.75 857.5,-131.75 854,-141.75 861,-141.75"/>
</g>
<!-- Node16 -->
<g id="node16" class="node">
<title>Node16</title>
<g id="a_node16"><a xlink:href="_converted_data_types_8hpp.html" target="_top" xlink:title=" ">
<polygon fill="none" stroke="black" points="956,-112.5 956,-131.5 1105,-131.5 1105,-112.5 956,-112.5"/>
<text text-anchor="middle" x="1030.5" y="-119.5" font-family="JetBrains Mono" font-size="10.00">ConvertedDataTypes.hpp</text>
</a>
</g>
</g>
<!-- Node1&#45;&gt;Node16 -->
<g id="edge23" class="edge">
<title>Node1&#45;&gt;Node16</title>
<path fill="none" stroke="midnightblue" d="M884.91,-168.44C914.27,-159.28 961.02,-144.69 993.6,-134.52"/>
<polygon fill="midnightblue" stroke="midnightblue" points="994.71,-137.84 1003.22,-131.52 992.63,-131.16 994.71,-137.84"/>
</g>
<!-- Node17 -->
<g id="node17" class="node">
<title>Node17</title>
<g id="a_node17"><a xlink:title=" ">
<polygon fill="none" stroke="#bfbfbf" points="1175,-112.5 1175,-131.5 1234,-131.5 1234,-112.5 1175,-112.5"/>
<text text-anchor="middle" x="1204.5" y="-119.5" font-family="JetBrains Mono" font-size="10.00">variant</text>
</a>
</g>
</g>
<!-- Node1&#45;&gt;Node17 -->
<g id="edge27" class="edge">
<title>Node1&#45;&gt;Node17</title>
<path fill="none" stroke="midnightblue" d="M921.8,-168.48C983.25,-160.1 1078.41,-146.48 1160.5,-132 1161.94,-131.75 1163.4,-131.48 1164.88,-131.21"/>
<polygon fill="midnightblue" stroke="midnightblue" points="1165.56,-134.64 1174.72,-129.32 1164.24,-127.77 1165.56,-134.64"/>
</g>
<!-- Node5&#45;&gt;Node2 -->
<g id="edge5" class="edge">
<title>Node5&#45;&gt;Node2</title>
<path fill="none" stroke="midnightblue" d="M470.9,-116.53C389.53,-109.8 234.6,-95.85 93.35,-76.18"/>
<polygon fill="midnightblue" stroke="midnightblue" points="93.59,-72.68 83.2,-74.75 92.62,-79.61 93.59,-72.68"/>
</g>
<!-- Node5&#45;&gt;Node3 -->
<g id="edge10" class="edge">
<title>Node5&#45;&gt;Node3</title>
<path fill="none" stroke="midnightblue" d="M470.85,-112.8C402.86,-102.96 289.17,-86.5 218.2,-76.22"/>
<polygon fill="midnightblue" stroke="midnightblue" points="218.45,-72.72 208.05,-74.75 217.44,-79.65 218.45,-72.72"/>
</g>
<!-- Node6 -->
<g id="node6" class="node">
<title>Node6</title>
<g id="a_node6"><a xlink:title=" ">
<polygon fill="none" stroke="#bfbfbf" points="995,-56.5 995,-75.5 1042,-75.5 1042,-56.5 995,-56.5"/>
<text text-anchor="middle" x="1018.5" y="-63.5" font-family="JetBrains Mono" font-size="10.00">QList</text>
</a>
</g>
</g>
<!-- Node5&#45;&gt;Node6 -->
<g id="edge6" class="edge">
<title>Node5&#45;&gt;Node6</title>
<path fill="none" stroke="midnightblue" d="M584.13,-118.66C669.28,-114.45 835.41,-103.49 984.59,-76.07"/>
<polygon fill="midnightblue" stroke="midnightblue" points="985.66,-79.43 994.84,-74.16 984.37,-72.55 985.66,-79.43"/>
</g>
<!-- Node7 -->
<g id="node7" class="node">
<title>Node7</title>
<g id="a_node7"><a xlink:title=" ">
<polygon fill="none" stroke="#bfbfbf" points="265,-56.5 265,-75.5 342,-75.5 342,-56.5 265,-56.5"/>
<text text-anchor="middle" x="303.5" y="-63.5" font-family="JetBrains Mono" font-size="10.00">functional</text>
</a>
</g>
</g>
<!-- Node5&#45;&gt;Node7 -->
<g id="edge7" class="edge">
<title>Node5&#45;&gt;Node7</title>
<path fill="none" stroke="midnightblue" d="M492.01,-112.44C453.18,-103.08 390.84,-88.06 348.58,-77.87"/>
<polygon fill="midnightblue" stroke="midnightblue" points="349.37,-74.46 338.83,-75.52 347.73,-81.26 349.37,-74.46"/>
</g>
<!-- Node8 -->
<g id="node8" class="node">
<title>Node8</title>
<g id="a_node8"><a xlink:title=" ">
<polygon fill="none" stroke="#bfbfbf" points="805,-56.5 805,-75.5 906,-75.5 906,-56.5 805,-56.5"/>
<text text-anchor="middle" x="855.5" y="-63.5" font-family="JetBrains Mono" font-size="10.00">QSharedPointer</text>
</a>
</g>
</g>
<!-- Node5&#45;&gt;Node8 -->
<g id="edge8" class="edge">
<title>Node5&#45;&gt;Node8</title>
<path fill="none" stroke="midnightblue" d="M579.47,-112.44C637.99,-102.81 732.97,-87.17 794.84,-76.99"/>
<polygon fill="midnightblue" stroke="midnightblue" points="795.55,-80.42 804.85,-75.34 794.41,-73.51 795.55,-80.42"/>
</g>
<!-- Node9 -->
<g id="node9" class="node">
<title>Node9</title>
<g id="a_node9"><a xlink:title=" ">
<polygon fill="none" stroke="#bfbfbf" points="497,-0.5 497,-19.5 538,-19.5 538,-0.5 497,-0.5"/>
<text text-anchor="middle" x="517.5" y="-7.5" font-family="JetBrains Mono" font-size="10.00">QMap</text>
</a>
</g>
</g>
<!-- Node5&#45;&gt;Node9 -->
<g id="edge9" class="edge">
<title>Node5&#45;&gt;Node9</title>
<path fill="none" stroke="midnightblue" d="M536.89,-112.38C549.03,-100.12 567.71,-76.83 559.5,-56 554.99,-44.55 546.03,-34.29 537.55,-26.47"/>
<polygon fill="midnightblue" stroke="midnightblue" points="539.59,-23.61 529.71,-19.76 535.03,-28.93 539.59,-23.61"/>
</g>
<!-- Node10 -->
<g id="node10" class="node">
<title>Node10</title>
<g id="a_node10"><a xlink:title=" ">
<polygon fill="none" stroke="#bfbfbf" points="349,-0.5 349,-19.5 402,-19.5 402,-0.5 349,-0.5"/>
<text text-anchor="middle" x="375.5" y="-7.5" font-family="JetBrains Mono" font-size="10.00">QMutex</text>
</a>
</g>
</g>
<!-- Node5&#45;&gt;Node10 -->
<g id="edge11" class="edge">
<title>Node5&#45;&gt;Node10</title>
<path fill="none" stroke="midnightblue" d="M470.87,-119.92C399.41,-117.21 282.55,-107.89 255.5,-76 228.7,-44.4 294.51,-25.64 338.91,-16.93"/>
<polygon fill="midnightblue" stroke="midnightblue" points="339.66,-20.35 348.85,-15.07 338.37,-13.47 339.66,-20.35"/>
</g>
<!-- Node11 -->
<g id="node11" class="node">
<title>Node11</title>
<g id="a_node11"><a xlink:href="_program_object_8hpp.html" target="_top" xlink:title=" ">
<polygon fill="none" stroke="black" points="608,-56.5 608,-75.5 787,-75.5 787,-56.5 608,-56.5"/>
<text text-anchor="middle" x="697.5" y="-63.5" font-family="JetBrains Mono" font-size="10.00">../global/ProgramObject.hpp</text>
</a>
</g>
</g>
<!-- Node5&#45;&gt;Node11 -->
<g id="edge12" class="edge">
<title>Node5&#45;&gt;Node11</title>
<path fill="none" stroke="midnightblue" d="M554.44,-112.44C583.16,-103.32 628.83,-88.81 660.82,-78.65"/>
<polygon fill="midnightblue" stroke="midnightblue" points="662.22,-81.88 670.69,-75.52 660.1,-75.21 662.22,-81.88"/>
</g>
<!-- Node13 -->
<g id="node13" class="node">
<title>Node13</title>
<g id="a_node13"><a xlink:href="_static_generator_8hpp.html" target="_top" xlink:title=" ">
<polygon fill="none" stroke="black" points="360,-56.5 360,-75.5 551,-75.5 551,-56.5 360,-56.5"/>
<text text-anchor="middle" x="455.5" y="-63.5" font-family="JetBrains Mono" font-size="10.00">../global/StaticGenerator.hpp</text>
</a>
</g>
</g>
<!-- Node5&#45;&gt;Node13 -->
<g id="edge15" class="edge">
<title>Node5&#45;&gt;Node13</title>
<path fill="none" stroke="midnightblue" d="M515.93,-112.32C505.08,-104.18 488.62,-91.84 475.62,-82.09"/>
<polygon fill="midnightblue" stroke="midnightblue" points="477.38,-79.03 467.28,-75.83 473.18,-84.63 477.38,-79.03"/>
</g>
<!-- Node11&#45;&gt;Node4 -->
<g id="edge14" class="edge">
<title>Node11&#45;&gt;Node4</title>
<path fill="none" stroke="midnightblue" d="M762.62,-56.44C848.53,-45.16 997.12,-25.63 1068.27,-16.29"/>
<polygon fill="midnightblue" stroke="midnightblue" points="1069.13,-19.7 1078.59,-14.93 1068.22,-12.76 1069.13,-19.7"/>
</g>
<!-- Node12 -->
<g id="node12" class="node">
<title>Node12</title>
<g id="a_node12"><a xlink:title=" ">
<polygon fill="none" stroke="#bfbfbf" points="835,-0.5 835,-19.5 894,-19.5 894,-0.5 835,-0.5"/>
<text text-anchor="middle" x="864.5" y="-7.5" font-family="JetBrains Mono" font-size="10.00">QString</text>
</a>
</g>
</g>
<!-- Node11&#45;&gt;Node12 -->
<g id="edge13" class="edge">
<title>Node11&#45;&gt;Node12</title>
<path fill="none" stroke="midnightblue" d="M723.96,-56.44C752.18,-47.32 797.04,-32.81 828.47,-22.65"/>
<polygon fill="midnightblue" stroke="midnightblue" points="829.72,-25.92 838.16,-19.52 827.57,-19.26 829.72,-25.92"/>
</g>
<!-- Node13&#45;&gt;Node9 -->
<g id="edge17" class="edge">
<title>Node13&#45;&gt;Node9</title>
<path fill="none" stroke="midnightblue" d="M465.46,-56.32C474.63,-48.34 488.44,-36.31 499.53,-26.65"/>
<polygon fill="midnightblue" stroke="midnightblue" points="502.12,-29.04 507.36,-19.83 497.52,-23.76 502.12,-29.04"/>
</g>
<!-- Node13&#45;&gt;Node10 -->
<g id="edge16" class="edge">
<title>Node13&#45;&gt;Node10</title>
<path fill="none" stroke="midnightblue" d="M442.65,-56.32C430.28,-47.98 411.37,-35.21 396.76,-25.35"/>
<polygon fill="midnightblue" stroke="midnightblue" points="398.57,-22.35 388.32,-19.65 394.65,-28.15 398.57,-22.35"/>
</g>
<!-- Node14&#45;&gt;Node6 -->
<g id="edge19" class="edge">
<title>Node14&#45;&gt;Node6</title>
<path fill="none" stroke="midnightblue" d="M883.01,-112.44C910.65,-103.17 954.87,-88.34 985.22,-78.16"/>
<polygon fill="midnightblue" stroke="midnightblue" points="986.57,-81.4 994.94,-74.9 984.35,-74.76 986.57,-81.4"/>
</g>
<!-- Node14&#45;&gt;Node8 -->
<g id="edge20" class="edge">
<title>Node14&#45;&gt;Node8</title>
<path fill="none" stroke="midnightblue" d="M857.17,-112.08C856.91,-105.01 856.53,-94.86 856.2,-85.99"/>
<polygon fill="midnightblue" stroke="midnightblue" points="859.69,-85.61 855.82,-75.75 852.7,-85.87 859.69,-85.61"/>
</g>
<!-- Node14&#45;&gt;Node13 -->
<g id="edge22" class="edge">
<title>Node14&#45;&gt;Node13</title>
<path fill="none" stroke="midnightblue" d="M793.8,-112.44C721.76,-102.77 604.65,-87.04 528.85,-76.85"/>
<polygon fill="midnightblue" stroke="midnightblue" points="529.28,-73.38 518.9,-75.52 528.35,-80.32 529.28,-73.38"/>
</g>
<!-- Node15 -->
<g id="node15" class="node">
<title>Node15</title>
<g id="a_node15"><a xlink:title=" ">
<polygon fill="none" stroke="#bfbfbf" points="924,-56.5 924,-75.5 977,-75.5 977,-56.5 924,-56.5"/>
<text text-anchor="middle" x="950.5" y="-63.5" font-family="JetBrains Mono" font-size="10.00">memory</text>
</a>
</g>
</g>
<!-- Node14&#45;&gt;Node15 -->
<g id="edge21" class="edge">
<title>Node14&#45;&gt;Node15</title>
<path fill="none" stroke="midnightblue" d="M872.44,-112.32C887.09,-103.82 909.63,-90.73 926.74,-80.8"/>
<polygon fill="midnightblue" stroke="midnightblue" points="928.7,-83.7 935.6,-75.65 925.19,-77.65 928.7,-83.7"/>
</g>
<!-- Node16&#45;&gt;Node4 -->
<g id="edge26" class="edge">
<title>Node16&#45;&gt;Node4</title>
<path fill="none" stroke="midnightblue" d="M1044.7,-112.26C1056.77,-104.18 1073.8,-91.15 1084.5,-76 1094.47,-61.89 1100.8,-43.15 1104.45,-29.42"/>
<polygon fill="midnightblue" stroke="midnightblue" points="1107.86,-30.21 1106.81,-19.67 1101.05,-28.57 1107.86,-30.21"/>
</g>
<!-- Node16&#45;&gt;Node6 -->
<g id="edge24" class="edge">
<title>Node16&#45;&gt;Node6</title>
<path fill="none" stroke="midnightblue" d="M1028.52,-112.08C1026.93,-104.93 1024.64,-94.64 1022.65,-85.69"/>
<polygon fill="midnightblue" stroke="midnightblue" points="1026.03,-84.75 1020.44,-75.75 1019.2,-86.27 1026.03,-84.75"/>
</g>
<!-- Node16&#45;&gt;Node12 -->
<g id="edge25" class="edge">
<title>Node16&#45;&gt;Node12</title>
<path fill="none" stroke="midnightblue" d="M1038.1,-112.1C1048.61,-98.65 1064.86,-72.95 1051.5,-56 1033.51,-33.17 953.49,-20.58 904.14,-14.86"/>
<polygon fill="midnightblue" stroke="midnightblue" points="904.43,-11.37 894.1,-13.74 903.65,-18.33 904.43,-11.37"/>
</g>
</g>
</svg>
