<?xml version="1.0" encoding="UTF-8" standalone="no"?>
<!DOCTYPE svg PUBLIC "-//W3C//DTD SVG 1.1//EN"
 "http://www.w3.org/Graphics/SVG/1.1/DTD/svg11.dtd">
<!-- Generated by graphviz version 2.48.0 (20210717.1556)
 -->
<!-- Title: modules/backend/Parser.hpp Pages: 1 -->
<svg width="1146pt" height="252pt"
 viewBox="0.00 0.00 1146.00 252.00" xmlns="http://www.w3.org/2000/svg" xmlns:xlink="http://www.w3.org/1999/xlink">
<g id="graph0" class="graph" transform="scale(1 1) rotate(0) translate(4 248)">
<title>modules/backend/Parser.hpp</title>
<!-- Node1 -->
<g id="node1" class="node">
<title>Node1</title>
<g id="a_node1"><a xlink:title=" ">
<polygon fill="#bfbfbf" stroke="black" points="575,-224.5 575,-243.5 748,-243.5 748,-224.5 575,-224.5"/>
<text text-anchor="middle" x="661.5" y="-231.5" font-family="JetBrains Mono" font-size="10.00">modules/backend/Parser.hpp</text>
</a>
</g>
</g>
<!-- Node2 -->
<g id="node2" class="node">
<title>Node2</title>
<g id="a_node2"><a xlink:href="_parsed_data_types_8hpp.html" target="_top" xlink:title=" ">
<polygon fill="none" stroke="black" points="257,-112.5 257,-131.5 388,-131.5 388,-112.5 257,-112.5"/>
<text text-anchor="middle" x="322.5" y="-119.5" font-family="JetBrains Mono" font-size="10.00">ParsedDataTypes.hpp</text>
</a>
</g>
</g>
<!-- Node1&#45;&gt;Node2 -->
<g id="edge1" class="edge">
<title>Node1&#45;&gt;Node2</title>
<path fill="none" stroke="midnightblue" d="M632,-224.43C601.87,-215.6 553.78,-201.29 512.5,-188 457.51,-170.3 394.11,-148.28 356.22,-134.95"/>
<polygon fill="midnightblue" stroke="midnightblue" points="357.29,-131.62 346.7,-131.59 354.97,-138.22 357.29,-131.62"/>
</g>
<!-- Node6 -->
<g id="node6" class="node">
<title>Node6</title>
<g id="a_node6"><a xlink:href="_static_generator_8hpp.html" target="_top" xlink:title=" ">
<polygon fill="none" stroke="black" points="682,-56.5 682,-75.5 873,-75.5 873,-56.5 682,-56.5"/>
<text text-anchor="middle" x="777.5" y="-63.5" font-family="JetBrains Mono" font-size="10.00">../global/StaticGenerator.hpp</text>
</a>
</g>
</g>
<!-- Node1&#45;&gt;Node6 -->
<g id="edge9" class="edge">
<title>Node1&#45;&gt;Node6</title>
<path fill="none" stroke="midnightblue" d="M675.49,-224.45C699.14,-209.16 746.56,-174.72 768.5,-132 775.9,-117.59 777.86,-99.14 778.13,-85.57"/>
<polygon fill="midnightblue" stroke="midnightblue" points="781.63,-85.5 778.05,-75.53 774.63,-85.56 781.63,-85.5"/>
</g>
<!-- Node9 -->
<g id="node9" class="node">
<title>Node9</title>
<g id="a_node9"><a xlink:title=" ">
<polygon fill="none" stroke="#bfbfbf" points="700,-112.5 700,-131.5 759,-131.5 759,-112.5 700,-112.5"/>
<text text-anchor="middle" x="729.5" y="-119.5" font-family="JetBrains Mono" font-size="10.00">variant</text>
</a>
</g>
</g>
<!-- Node1&#45;&gt;Node9 -->
<g id="edge8" class="edge">
<title>Node1&#45;&gt;Node9</title>
<path fill="none" stroke="midnightblue" d="M666.84,-224.37C678.01,-206.3 704.05,-164.18 718.8,-140.31"/>
<polygon fill="midnightblue" stroke="midnightblue" points="721.91,-141.94 724.19,-131.59 715.95,-138.26 721.91,-141.94"/>
</g>
<!-- Node10 -->
<g id="node10" class="node">
<title>Node10</title>
<g id="a_node10"><a xlink:href="_interfaces_8hpp.html" target="_top" xlink:title=" ">
<polygon fill="none" stroke="black" points="521,-168.5 521,-187.5 622,-187.5 622,-168.5 521,-168.5"/>
<text text-anchor="middle" x="571.5" y="-175.5" font-family="JetBrains Mono" font-size="10.00">Interfaces.hpp</text>
</a>
</g>
</g>
<!-- Node1&#45;&gt;Node10 -->
<g id="edge10" class="edge">
<title>Node1&#45;&gt;Node10</title>
<path fill="none" stroke="midnightblue" d="M647.04,-224.32C633,-215.9 611.45,-202.97 594.96,-193.07"/>
<polygon fill="midnightblue" stroke="midnightblue" points="596.3,-189.8 585.92,-187.65 592.7,-195.8 596.3,-189.8"/>
</g>
<!-- Node3 -->
<g id="node3" class="node">
<title>Node3</title>
<g id="a_node3"><a xlink:title=" ">
<polygon fill="none" stroke="#bfbfbf" points="167,-56.5 167,-75.5 214,-75.5 214,-56.5 167,-56.5"/>
<text text-anchor="middle" x="190.5" y="-63.5" font-family="JetBrains Mono" font-size="10.00">QList</text>
</a>
</g>
</g>
<!-- Node2&#45;&gt;Node3 -->
<g id="edge2" class="edge">
<title>Node2&#45;&gt;Node3</title>
<path fill="none" stroke="midnightblue" d="M301.58,-112.44C279.76,-103.52 245.35,-89.44 220.61,-79.32"/>
<polygon fill="midnightblue" stroke="midnightblue" points="221.9,-76.06 211.32,-75.52 219.25,-82.54 221.9,-76.06"/>
</g>
<!-- Node4 -->
<g id="node4" class="node">
<title>Node4</title>
<g id="a_node4"><a xlink:title=" ">
<polygon fill="none" stroke="#bfbfbf" points="232,-56.5 232,-75.5 333,-75.5 333,-56.5 232,-56.5"/>
<text text-anchor="middle" x="282.5" y="-63.5" font-family="JetBrains Mono" font-size="10.00">QSharedPointer</text>
</a>
</g>
</g>
<!-- Node2&#45;&gt;Node4 -->
<g id="edge3" class="edge">
<title>Node2&#45;&gt;Node4</title>
<path fill="none" stroke="midnightblue" d="M315.89,-112.08C310.24,-104.46 301.96,-93.26 295.05,-83.94"/>
<polygon fill="midnightblue" stroke="midnightblue" points="297.75,-81.7 288.98,-75.75 292.12,-85.87 297.75,-81.7"/>
</g>
<!-- Node5 -->
<g id="node5" class="node">
<title>Node5</title>
<g id="a_node5"><a xlink:title=" ">
<polygon fill="none" stroke="#bfbfbf" points="96,-56.5 96,-75.5 149,-75.5 149,-56.5 96,-56.5"/>
<text text-anchor="middle" x="122.5" y="-63.5" font-family="JetBrains Mono" font-size="10.00">memory</text>
</a>
</g>
</g>
<!-- Node2&#45;&gt;Node5 -->
<g id="edge4" class="edge">
<title>Node2&#45;&gt;Node5</title>
<path fill="none" stroke="midnightblue" d="M290.81,-112.44C255.07,-102.79 197.03,-87.12 159.31,-76.94"/>
<polygon fill="midnightblue" stroke="midnightblue" points="159.81,-73.45 149.24,-74.22 157.98,-80.21 159.81,-73.45"/>
</g>
<!-- Node2&#45;&gt;Node6 -->
<g id="edge5" class="edge">
<title>Node2&#45;&gt;Node6</title>
<path fill="none" stroke="midnightblue" d="M388.17,-113.21C469.45,-103.56 607.87,-87.13 695.89,-76.69"/>
<polygon fill="midnightblue" stroke="midnightblue" points="696.32,-80.16 705.84,-75.5 695.5,-73.21 696.32,-80.16"/>
</g>
<!-- Node7 -->
<g id="node7" class="node">
<title>Node7</title>
<g id="a_node7"><a xlink:title=" ">
<polygon fill="none" stroke="#bfbfbf" points="640,-0.5 640,-19.5 693,-19.5 693,-0.5 640,-0.5"/>
<text text-anchor="middle" x="666.5" y="-7.5" font-family="JetBrains Mono" font-size="10.00">QMutex</text>
</a>
</g>
</g>
<!-- Node6&#45;&gt;Node7 -->
<g id="edge6" class="edge">
<title>Node6&#45;&gt;Node7</title>
<path fill="none" stroke="midnightblue" d="M759.67,-56.32C741.78,-47.62 714.02,-34.12 693.45,-24.11"/>
<polygon fill="midnightblue" stroke="midnightblue" points="694.81,-20.88 684.29,-19.65 691.75,-27.18 694.81,-20.88"/>
</g>
<!-- Node8 -->
<g id="node8" class="node">
<title>Node8</title>
<g id="a_node8"><a xlink:title=" ">
<polygon fill="none" stroke="#bfbfbf" points="819,-0.5 819,-19.5 860,-19.5 860,-0.5 819,-0.5"/>
<text text-anchor="middle" x="839.5" y="-7.5" font-family="JetBrains Mono" font-size="10.00">QMap</text>
</a>
</g>
</g>
<!-- Node6&#45;&gt;Node8 -->
<g id="edge7" class="edge">
<title>Node6&#45;&gt;Node8</title>
<path fill="none" stroke="midnightblue" d="M787.46,-56.32C796.63,-48.34 810.44,-36.31 821.53,-26.65"/>
<polygon fill="midnightblue" stroke="midnightblue" points="824.12,-29.04 829.36,-19.83 819.52,-23.76 824.12,-29.04"/>
</g>
<!-- Node10&#45;&gt;Node2 -->
<g id="edge26" class="edge">
<title>Node10&#45;&gt;Node2</title>
<path fill="none" stroke="midnightblue" d="M532.05,-168.44C488.61,-159.02 418.71,-143.87 371.72,-133.68"/>
<polygon fill="midnightblue" stroke="midnightblue" points="372.28,-130.22 361.77,-131.52 370.8,-137.06 372.28,-130.22"/>
</g>
<!-- Node10&#45;&gt;Node9 -->
<g id="edge31" class="edge">
<title>Node10&#45;&gt;Node9</title>
<path fill="none" stroke="midnightblue" d="M596.54,-168.44C623.12,-159.36 665.31,-144.94 695.02,-134.78"/>
<polygon fill="midnightblue" stroke="midnightblue" points="696.25,-138.06 704.58,-131.52 693.99,-131.44 696.25,-138.06"/>
</g>
<!-- Node11 -->
<g id="node11" class="node">
<title>Node11</title>
<g id="a_node11"><a xlink:title=" ">
<polygon fill="none" stroke="#bfbfbf" points="930,-56.5 930,-75.5 1013,-75.5 1013,-56.5 930,-56.5"/>
<text text-anchor="middle" x="971.5" y="-63.5" font-family="JetBrains Mono" font-size="10.00">QSerialPort</text>
</a>
</g>
</g>
<!-- Node10&#45;&gt;Node11 -->
<g id="edge11" class="edge">
<title>Node10&#45;&gt;Node11</title>
<path fill="none" stroke="midnightblue" d="M580.07,-168.08C594.53,-153.63 625.37,-125.39 657.5,-112 669.47,-107.01 833.79,-85.01 919.81,-73.72"/>
<polygon fill="midnightblue" stroke="midnightblue" points="920.43,-77.17 929.89,-72.4 919.52,-70.23 920.43,-77.17"/>
</g>
<!-- Node12 -->
<g id="node12" class="node">
<title>Node12</title>
<g id="a_node12"><a xlink:title=" ">
<polygon fill="none" stroke="#bfbfbf" points="1031,-56.5 1031,-75.5 1138,-75.5 1138,-56.5 1031,-56.5"/>
<text text-anchor="middle" x="1084.5" y="-63.5" font-family="JetBrains Mono" font-size="10.00">QSerialPortInfo</text>
</a>
</g>
</g>
<!-- Node10&#45;&gt;Node12 -->
<g id="edge12" class="edge">
<title>Node10&#45;&gt;Node12</title>
<path fill="none" stroke="midnightblue" d="M587.63,-168.25C620.28,-150.54 691.15,-112.11 691.5,-112 829.59,-68.92 873.72,-93.47 1020.47,-76.18"/>
<polygon fill="midnightblue" stroke="midnightblue" points="1021.25,-79.61 1030.75,-74.92 1020.4,-72.66 1021.25,-79.61"/>
</g>
<!-- Node13 -->
<g id="node13" class="node">
<title>Node13</title>
<g id="a_node13"><a xlink:title=" ">
<polygon fill="none" stroke="#bfbfbf" points="0,-0.5 0,-19.5 59,-19.5 59,-0.5 0,-0.5"/>
<text text-anchor="middle" x="29.5" y="-7.5" font-family="JetBrains Mono" font-size="10.00">QObject</text>
</a>
</g>
</g>
<!-- Node10&#45;&gt;Node13 -->
<g id="edge13" class="edge">
<title>Node10&#45;&gt;Node13</title>
<path fill="none" stroke="midnightblue" d="M520.62,-175.27C399.72,-170.76 102.54,-157.23 65.5,-132 32.54,-109.55 28.25,-57.9 28.52,-29.89"/>
<polygon fill="midnightblue" stroke="midnightblue" points="32.02,-29.9 28.83,-19.8 25.03,-29.68 32.02,-29.9"/>
</g>
<!-- Node14 -->
<g id="node14" class="node">
<title>Node14</title>
<g id="a_node14"><a xlink:href="_port_settings_8hpp.html" target="_top" xlink:title=" ">
<polygon fill="none" stroke="black" points="492,-112.5 492,-131.5 605,-131.5 605,-112.5 492,-112.5"/>
<text text-anchor="middle" x="548.5" y="-119.5" font-family="JetBrains Mono" font-size="10.00">PortSettings.hpp</text>
</a>
</g>
</g>
<!-- Node10&#45;&gt;Node14 -->
<g id="edge14" class="edge">
<title>Node10&#45;&gt;Node14</title>
<path fill="none" stroke="midnightblue" d="M567.7,-168.08C564.59,-160.77 560.08,-150.18 556.21,-141.1"/>
<polygon fill="midnightblue" stroke="midnightblue" points="559.37,-139.58 552.23,-131.75 552.93,-142.32 559.37,-139.58"/>
</g>
<!-- Node18 -->
<g id="node18" class="node">
<title>Node18</title>
<g id="a_node18"><a xlink:href="_converted_data_types_8hpp.html" target="_top" xlink:title=" ">
<polygon fill="none" stroke="black" points="75,-112.5 75,-131.5 224,-131.5 224,-112.5 75,-112.5"/>
<text text-anchor="middle" x="149.5" y="-119.5" font-family="JetBrains Mono" font-size="10.00">ConvertedDataTypes.hpp</text>
</a>
</g>
</g>
<!-- Node10&#45;&gt;Node18 -->
<g id="edge27" class="edge">
<title>Node10&#45;&gt;Node18</title>
<path fill="none" stroke="midnightblue" d="M520.6,-170.49C447.39,-161.12 311.83,-143.77 226.38,-132.84"/>
<polygon fill="midnightblue" stroke="midnightblue" points="226.58,-129.33 216.22,-131.54 225.69,-136.28 226.58,-129.33"/>
</g>
<!-- Node14&#45;&gt;Node3 -->
<g id="edge16" class="edge">
<title>Node14&#45;&gt;Node3</title>
<path fill="none" stroke="midnightblue" d="M491.76,-115.38C428.7,-108.64 323.73,-95.93 224.14,-75.88"/>
<polygon fill="midnightblue" stroke="midnightblue" points="224.7,-72.43 214.21,-73.86 223.3,-79.29 224.7,-72.43"/>
</g>
<!-- Node14&#45;&gt;Node4 -->
<g id="edge18" class="edge">
<title>Node14&#45;&gt;Node4</title>
<path fill="none" stroke="midnightblue" d="M506.35,-112.44C459.75,-102.98 384.66,-87.74 334.45,-77.55"/>
<polygon fill="midnightblue" stroke="midnightblue" points="334.95,-74.08 324.45,-75.52 333.56,-80.94 334.95,-74.08"/>
</g>
<!-- Node14&#45;&gt;Node6 -->
<g id="edge25" class="edge">
<title>Node14&#45;&gt;Node6</title>
<path fill="none" stroke="midnightblue" d="M584.79,-112.44C624.48,-103.08 688.21,-88.06 731.41,-77.87"/>
<polygon fill="midnightblue" stroke="midnightblue" points="732.45,-81.22 741.38,-75.52 730.85,-74.41 732.45,-81.22"/>
</g>
<!-- Node14&#45;&gt;Node7 -->
<g id="edge21" class="edge">
<title>Node14&#45;&gt;Node7</title>
<path fill="none" stroke="midnightblue" d="M550.53,-112.38C554.09,-98.86 562.66,-72.49 578.5,-56 592.74,-41.17 612.93,-30.37 630.38,-23.07"/>
<polygon fill="midnightblue" stroke="midnightblue" points="631.72,-26.3 639.73,-19.37 629.15,-19.79 631.72,-26.3"/>
</g>
<!-- Node14&#45;&gt;Node8 -->
<g id="edge19" class="edge">
<title>Node14&#45;&gt;Node8</title>
<path fill="none" stroke="midnightblue" d="M605.3,-113.58C700.33,-101.15 881.36,-77.3 882.5,-76 896.43,-60.07 877.29,-39.34 860.29,-25.62"/>
<polygon fill="midnightblue" stroke="midnightblue" points="862.34,-22.79 852.26,-19.51 858.09,-28.35 862.34,-22.79"/>
</g>
<!-- Node14&#45;&gt;Node11 -->
<g id="edge15" class="edge">
<title>Node14&#45;&gt;Node11</title>
<path fill="none" stroke="midnightblue" d="M605.08,-113.8C609.96,-113.19 614.81,-112.58 619.5,-112 751.01,-95.67 784.28,-94.52 915.5,-76 916.96,-75.79 918.45,-75.58 919.94,-75.36"/>
<polygon fill="midnightblue" stroke="midnightblue" points="920.57,-78.81 929.94,-73.86 919.53,-71.89 920.57,-78.81"/>
</g>
<!-- Node14&#45;&gt;Node12 -->
<g id="edge20" class="edge">
<title>Node14&#45;&gt;Node12</title>
<path fill="none" stroke="midnightblue" d="M605.26,-115.97C709.03,-106.71 926.62,-87.02 1020.71,-76.15"/>
<polygon fill="midnightblue" stroke="midnightblue" points="1021.23,-79.61 1030.75,-74.97 1020.41,-72.66 1021.23,-79.61"/>
</g>
<!-- Node15 -->
<g id="node15" class="node">
<title>Node15</title>
<g id="a_node15"><a xlink:title=" ">
<polygon fill="none" stroke="#bfbfbf" points="587,-56.5 587,-75.5 664,-75.5 664,-56.5 587,-56.5"/>
<text text-anchor="middle" x="625.5" y="-63.5" font-family="JetBrains Mono" font-size="10.00">functional</text>
</a>
</g>
</g>
<!-- Node14&#45;&gt;Node15 -->
<g id="edge17" class="edge">
<title>Node14&#45;&gt;Node15</title>
<path fill="none" stroke="midnightblue" d="M560.87,-112.32C572.66,-104.06 590.63,-91.45 604.64,-81.63"/>
<polygon fill="midnightblue" stroke="midnightblue" points="606.98,-84.26 613.16,-75.65 602.96,-78.53 606.98,-84.26"/>
</g>
<!-- Node16 -->
<g id="node16" class="node">
<title>Node16</title>
<g id="a_node16"><a xlink:href="_program_object_8hpp.html" target="_top" xlink:title=" ">
<polygon fill="none" stroke="black" points="351,-56.5 351,-75.5 530,-75.5 530,-56.5 351,-56.5"/>
<text text-anchor="middle" x="440.5" y="-63.5" font-family="JetBrains Mono" font-size="10.00">../global/ProgramObject.hpp</text>
</a>
</g>
</g>
<!-- Node14&#45;&gt;Node16 -->
<g id="edge22" class="edge">
<title>Node14&#45;&gt;Node16</title>
<path fill="none" stroke="midnightblue" d="M531.15,-112.32C513.83,-103.66 486.98,-90.24 467,-80.25"/>
<polygon fill="midnightblue" stroke="midnightblue" points="468.32,-77 457.81,-75.65 465.19,-83.26 468.32,-77"/>
</g>
<!-- Node16&#45;&gt;Node13 -->
<g id="edge24" class="edge">
<title>Node16&#45;&gt;Node13</title>
<path fill="none" stroke="midnightblue" d="M375.38,-56.44C289.47,-45.16 140.88,-25.63 69.73,-16.29"/>
<polygon fill="midnightblue" stroke="midnightblue" points="69.78,-12.76 59.41,-14.93 68.87,-19.7 69.78,-12.76"/>
</g>
<!-- Node17 -->
<g id="node17" class="node">
<title>Node17</title>
<g id="a_node17"><a xlink:title=" ">
<polygon fill="none" stroke="#bfbfbf" points="244,-0.5 244,-19.5 303,-19.5 303,-0.5 244,-0.5"/>
<text text-anchor="middle" x="273.5" y="-7.5" font-family="JetBrains Mono" font-size="10.00">QString</text>
</a>
</g>
</g>
<!-- Node16&#45;&gt;Node17 -->
<g id="edge23" class="edge">
<title>Node16&#45;&gt;Node17</title>
<path fill="none" stroke="midnightblue" d="M414.04,-56.44C385.82,-47.32 340.96,-32.81 309.53,-22.65"/>
<polygon fill="midnightblue" stroke="midnightblue" points="310.43,-19.26 299.84,-19.52 308.28,-25.92 310.43,-19.26"/>
</g>
<!-- Node18&#45;&gt;Node3 -->
<g id="edge28" class="edge">
<title>Node18&#45;&gt;Node3</title>
<path fill="none" stroke="midnightblue" d="M156.27,-112.08C162.06,-104.46 170.56,-93.26 177.64,-83.94"/>
<polygon fill="midnightblue" stroke="midnightblue" points="180.6,-85.83 183.86,-75.75 175.02,-81.6 180.6,-85.83"/>
</g>
<!-- Node18&#45;&gt;Node13 -->
<g id="edge30" class="edge">
<title>Node18&#45;&gt;Node13</title>
<path fill="none" stroke="midnightblue" d="M116.24,-112.46C95.71,-105.64 70.19,-94.16 53.5,-76 41.68,-63.14 35.55,-43.96 32.46,-29.76"/>
<polygon fill="midnightblue" stroke="midnightblue" points="35.85,-28.85 30.57,-19.66 28.96,-30.14 35.85,-28.85"/>
</g>
<!-- Node18&#45;&gt;Node17 -->
<g id="edge29" class="edge">
<title>Node18&#45;&gt;Node17</title>
<path fill="none" stroke="midnightblue" d="M130.29,-112.49C105.99,-100.56 69.28,-77.85 86.5,-56 104.49,-33.17 184.51,-20.58 233.86,-14.86"/>
<polygon fill="midnightblue" stroke="midnightblue" points="234.35,-18.33 243.9,-13.74 233.57,-11.37 234.35,-18.33"/>
</g>
</g>
</svg>
