<?xml version="1.0" encoding="UTF-8" standalone="no"?>
<!DOCTYPE svg PUBLIC "-//W3C//DTD SVG 1.1//EN"
 "http://www.w3.org/Graphics/SVG/1.1/DTD/svg11.dtd">
<!-- Generated by graphviz version 2.48.0 (20210717.1556)
 -->
<!-- Title: modules/backend/ParsedDataTypes.hpp Pages: 1 -->
<svg width="454pt" height="151pt"
 viewBox="0.00 0.00 454.00 151.00" xmlns="http://www.w3.org/2000/svg" xmlns:xlink="http://www.w3.org/1999/xlink">
<g id="graph0" class="graph" transform="scale(1 1) rotate(0) translate(4 147)">
<title>modules/backend/ParsedDataTypes.hpp</title>
<!-- Node1 -->
<g id="node1" class="node">
<title>Node1</title>
<g id="a_node1"><a xlink:title=" ">
<polygon fill="#bfbfbf" stroke="black" points="76,-112.5 76,-142.5 249,-142.5 249,-112.5 76,-112.5"/>
<text text-anchor="start" x="84" y="-130.5" font-family="JetBrains Mono" font-size="10.00">modules/backend/ParsedData</text>
<text text-anchor="middle" x="162.5" y="-119.5" font-family="JetBrains Mono" font-size="10.00">Types.hpp</text>
</a>
</g>
</g>
<!-- Node2 -->
<g id="node2" class="node">
<title>Node2</title>
<g id="a_node2"><a xlink:title=" ">
<polygon fill="none" stroke="#bfbfbf" points="0,-56.5 0,-75.5 47,-75.5 47,-56.5 0,-56.5"/>
<text text-anchor="middle" x="23.5" y="-63.5" font-family="JetBrains Mono" font-size="10.00">QList</text>
</a>
</g>
</g>
<!-- Node1&#45;&gt;Node2 -->
<g id="edge1" class="edge">
<title>Node1&#45;&gt;Node2</title>
<path fill="none" stroke="midnightblue" d="M129.56,-112.4C106.34,-102.46 75.51,-89.26 53.08,-79.66"/>
<polygon fill="midnightblue" stroke="midnightblue" points="54.3,-76.38 43.73,-75.66 51.54,-82.81 54.3,-76.38"/>
</g>
<!-- Node3 -->
<g id="node3" class="node">
<title>Node3</title>
<g id="a_node3"><a xlink:title=" ">
<polygon fill="none" stroke="#bfbfbf" points="65,-56.5 65,-75.5 166,-75.5 166,-56.5 65,-56.5"/>
<text text-anchor="middle" x="115.5" y="-63.5" font-family="JetBrains Mono" font-size="10.00">QSharedPointer</text>
</a>
</g>
</g>
<!-- Node1&#45;&gt;Node3 -->
<g id="edge2" class="edge">
<title>Node1&#45;&gt;Node3</title>
<path fill="none" stroke="midnightblue" d="M151.36,-112.4C144.53,-103.75 135.76,-92.64 128.59,-83.58"/>
<polygon fill="midnightblue" stroke="midnightblue" points="131.28,-81.34 122.34,-75.66 125.79,-85.67 131.28,-81.34"/>
</g>
<!-- Node4 -->
<g id="node4" class="node">
<title>Node4</title>
<g id="a_node4"><a xlink:title=" ">
<polygon fill="none" stroke="#bfbfbf" points="184,-56.5 184,-75.5 237,-75.5 237,-56.5 184,-56.5"/>
<text text-anchor="middle" x="210.5" y="-63.5" font-family="JetBrains Mono" font-size="10.00">memory</text>
</a>
</g>
</g>
<!-- Node1&#45;&gt;Node4 -->
<g id="edge3" class="edge">
<title>Node1&#45;&gt;Node4</title>
<path fill="none" stroke="midnightblue" d="M173.88,-112.4C180.85,-103.75 189.81,-92.64 197.13,-83.58"/>
<polygon fill="midnightblue" stroke="midnightblue" points="199.96,-85.64 203.52,-75.66 194.51,-81.24 199.96,-85.64"/>
</g>
<!-- Node5 -->
<g id="node5" class="node">
<title>Node5</title>
<g id="a_node5"><a xlink:href="_static_generator_8hpp.html" target="_top" xlink:title=" ">
<polygon fill="none" stroke="black" points="255,-56.5 255,-75.5 446,-75.5 446,-56.5 255,-56.5"/>
<text text-anchor="middle" x="350.5" y="-63.5" font-family="JetBrains Mono" font-size="10.00">../global/StaticGenerator.hpp</text>
</a>
</g>
</g>
<!-- Node1&#45;&gt;Node5 -->
<g id="edge4" class="edge">
<title>Node1&#45;&gt;Node5</title>
<path fill="none" stroke="midnightblue" d="M207.05,-112.4C239.54,-102.12 283.04,-88.35 313.59,-78.68"/>
<polygon fill="midnightblue" stroke="midnightblue" points="314.94,-81.93 323.42,-75.57 312.83,-75.25 314.94,-81.93"/>
</g>
<!-- Node6 -->
<g id="node6" class="node">
<title>Node6</title>
<g id="a_node6"><a xlink:title=" ">
<polygon fill="none" stroke="#bfbfbf" points="291,-0.5 291,-19.5 344,-19.5 344,-0.5 291,-0.5"/>
<text text-anchor="middle" x="317.5" y="-7.5" font-family="JetBrains Mono" font-size="10.00">QMutex</text>
</a>
</g>
</g>
<!-- Node5&#45;&gt;Node6 -->
<g id="edge5" class="edge">
<title>Node5&#45;&gt;Node6</title>
<path fill="none" stroke="midnightblue" d="M345.05,-56.08C340.49,-48.61 333.83,-37.72 328.21,-28.52"/>
<polygon fill="midnightblue" stroke="midnightblue" points="331.05,-26.46 322.85,-19.75 325.08,-30.11 331.05,-26.46"/>
</g>
<!-- Node7 -->
<g id="node7" class="node">
<title>Node7</title>
<g id="a_node7"><a xlink:title=" ">
<polygon fill="none" stroke="#bfbfbf" points="362,-0.5 362,-19.5 403,-19.5 403,-0.5 362,-0.5"/>
<text text-anchor="middle" x="382.5" y="-7.5" font-family="JetBrains Mono" font-size="10.00">QMap</text>
</a>
</g>
</g>
<!-- Node5&#45;&gt;Node7 -->
<g id="edge6" class="edge">
<title>Node5&#45;&gt;Node7</title>
<path fill="none" stroke="midnightblue" d="M355.78,-56.08C360.21,-48.61 366.66,-37.72 372.12,-28.52"/>
<polygon fill="midnightblue" stroke="midnightblue" points="375.23,-30.14 377.31,-19.75 369.21,-26.57 375.23,-30.14"/>
</g>
</g>
</svg>
