<?xml version="1.0" encoding="UTF-8" standalone="no"?>
<!DOCTYPE svg PUBLIC "-//W3C//DTD SVG 1.1//EN"
 "http://www.w3.org/Graphics/SVG/1.1/DTD/svg11.dtd">
<!-- Generated by graphviz version 2.48.0 (20210717.1556)
 -->
<!-- Title: modules/backend/parser/ParsedDataPackage.cpp Pages: 1 -->
<svg width="454pt" height="207pt"
 viewBox="0.00 0.00 454.00 207.00" xmlns="http://www.w3.org/2000/svg" xmlns:xlink="http://www.w3.org/1999/xlink">
<g id="graph0" class="graph" transform="scale(1 1) rotate(0) translate(4 203)">
<title>modules/backend/parser/ParsedDataPackage.cpp</title>
<!-- Node1 -->
<g id="node1" class="node">
<title>Node1</title>
<g id="a_node1"><a xlink:title=" ">
<polygon fill="#bfbfbf" stroke="black" points="88,-168.5 88,-198.5 237,-198.5 237,-168.5 88,-168.5"/>
<text text-anchor="start" x="96" y="-186.5" font-family="JetBrains Mono" font-size="10.00">modules/backend/parser</text>
<text text-anchor="middle" x="162.5" y="-175.5" font-family="JetBrains Mono" font-size="10.00">/ParsedDataPackage.cpp</text>
</a>
</g>
</g>
<!-- Node2 -->
<g id="node2" class="node">
<title>Node2</title>
<g id="a_node2"><a xlink:href="_parsed_data_types_8hpp.html" target="_top" xlink:title=" ">
<polygon fill="none" stroke="black" points="88,-112.5 88,-131.5 237,-131.5 237,-112.5 88,-112.5"/>
<text text-anchor="middle" x="162.5" y="-119.5" font-family="JetBrains Mono" font-size="10.00">../ParsedDataTypes.hpp</text>
</a>
</g>
</g>
<!-- Node1&#45;&gt;Node2 -->
<g id="edge1" class="edge">
<title>Node1&#45;&gt;Node2</title>
<path fill="none" stroke="midnightblue" d="M162.5,-168.4C162.5,-160.47 162.5,-150.46 162.5,-141.86"/>
<polygon fill="midnightblue" stroke="midnightblue" points="166,-141.66 162.5,-131.66 159,-141.66 166,-141.66"/>
</g>
<!-- Node3 -->
<g id="node3" class="node">
<title>Node3</title>
<g id="a_node3"><a xlink:title=" ">
<polygon fill="none" stroke="#bfbfbf" points="0,-56.5 0,-75.5 47,-75.5 47,-56.5 0,-56.5"/>
<text text-anchor="middle" x="23.5" y="-63.5" font-family="JetBrains Mono" font-size="10.00">QList</text>
</a>
</g>
</g>
<!-- Node2&#45;&gt;Node3 -->
<g id="edge2" class="edge">
<title>Node2&#45;&gt;Node3</title>
<path fill="none" stroke="midnightblue" d="M140.48,-112.44C117.4,-103.48 80.94,-89.31 54.86,-79.18"/>
<polygon fill="midnightblue" stroke="midnightblue" points="56.01,-75.88 45.42,-75.52 53.48,-82.4 56.01,-75.88"/>
</g>
<!-- Node4 -->
<g id="node4" class="node">
<title>Node4</title>
<g id="a_node4"><a xlink:title=" ">
<polygon fill="none" stroke="#bfbfbf" points="65,-56.5 65,-75.5 166,-75.5 166,-56.5 65,-56.5"/>
<text text-anchor="middle" x="115.5" y="-63.5" font-family="JetBrains Mono" font-size="10.00">QSharedPointer</text>
</a>
</g>
</g>
<!-- Node2&#45;&gt;Node4 -->
<g id="edge3" class="edge">
<title>Node2&#45;&gt;Node4</title>
<path fill="none" stroke="midnightblue" d="M154.74,-112.08C147.96,-104.3 137.96,-92.8 129.74,-83.37"/>
<polygon fill="midnightblue" stroke="midnightblue" points="132.32,-81 123.12,-75.75 127.04,-85.59 132.32,-81"/>
</g>
<!-- Node5 -->
<g id="node5" class="node">
<title>Node5</title>
<g id="a_node5"><a xlink:title=" ">
<polygon fill="none" stroke="#bfbfbf" points="184,-56.5 184,-75.5 237,-75.5 237,-56.5 184,-56.5"/>
<text text-anchor="middle" x="210.5" y="-63.5" font-family="JetBrains Mono" font-size="10.00">memory</text>
</a>
</g>
</g>
<!-- Node2&#45;&gt;Node5 -->
<g id="edge4" class="edge">
<title>Node2&#45;&gt;Node5</title>
<path fill="none" stroke="midnightblue" d="M170.43,-112.08C177.35,-104.3 187.57,-92.8 195.95,-83.37"/>
<polygon fill="midnightblue" stroke="midnightblue" points="198.69,-85.55 202.72,-75.75 193.46,-80.9 198.69,-85.55"/>
</g>
<!-- Node6 -->
<g id="node6" class="node">
<title>Node6</title>
<g id="a_node6"><a xlink:href="_static_generator_8hpp.html" target="_top" xlink:title=" ">
<polygon fill="none" stroke="black" points="255,-56.5 255,-75.5 446,-75.5 446,-56.5 255,-56.5"/>
<text text-anchor="middle" x="350.5" y="-63.5" font-family="JetBrains Mono" font-size="10.00">../global/StaticGenerator.hpp</text>
</a>
</g>
</g>
<!-- Node2&#45;&gt;Node6 -->
<g id="edge5" class="edge">
<title>Node2&#45;&gt;Node6</title>
<path fill="none" stroke="midnightblue" d="M192.29,-112.44C224.33,-103.24 275.43,-88.56 310.85,-78.39"/>
<polygon fill="midnightblue" stroke="midnightblue" points="312.21,-81.64 320.85,-75.52 310.27,-74.91 312.21,-81.64"/>
</g>
<!-- Node7 -->
<g id="node7" class="node">
<title>Node7</title>
<g id="a_node7"><a xlink:title=" ">
<polygon fill="none" stroke="#bfbfbf" points="291,-0.5 291,-19.5 344,-19.5 344,-0.5 291,-0.5"/>
<text text-anchor="middle" x="317.5" y="-7.5" font-family="JetBrains Mono" font-size="10.00">QMutex</text>
</a>
</g>
</g>
<!-- Node6&#45;&gt;Node7 -->
<g id="edge6" class="edge">
<title>Node6&#45;&gt;Node7</title>
<path fill="none" stroke="midnightblue" d="M345.05,-56.08C340.49,-48.61 333.83,-37.72 328.21,-28.52"/>
<polygon fill="midnightblue" stroke="midnightblue" points="331.05,-26.46 322.85,-19.75 325.08,-30.11 331.05,-26.46"/>
</g>
<!-- Node8 -->
<g id="node8" class="node">
<title>Node8</title>
<g id="a_node8"><a xlink:title=" ">
<polygon fill="none" stroke="#bfbfbf" points="362,-0.5 362,-19.5 403,-19.5 403,-0.5 362,-0.5"/>
<text text-anchor="middle" x="382.5" y="-7.5" font-family="JetBrains Mono" font-size="10.00">QMap</text>
</a>
</g>
</g>
<!-- Node6&#45;&gt;Node8 -->
<g id="edge7" class="edge">
<title>Node6&#45;&gt;Node8</title>
<path fill="none" stroke="midnightblue" d="M355.78,-56.08C360.21,-48.61 366.66,-37.72 372.12,-28.52"/>
<polygon fill="midnightblue" stroke="midnightblue" points="375.23,-30.14 377.31,-19.75 369.21,-26.57 375.23,-30.14"/>
</g>
</g>
</svg>
