<?xml version="1.0" encoding="UTF-8" standalone="no"?>
<!DOCTYPE svg PUBLIC "-//W3C//DTD SVG 1.1//EN"
 "http://www.w3.org/Graphics/SVG/1.1/DTD/svg11.dtd">
<!-- Generated by graphviz version 2.48.0 (20210717.1556)
 -->
<!-- Title: modules/backend/ParsedDataTypes.hpp Pages: 1 -->
<svg width="1519pt" height="229pt"
 viewBox="0.00 0.00 1519.00 229.00" xmlns="http://www.w3.org/2000/svg" xmlns:xlink="http://www.w3.org/1999/xlink">
<g id="graph0" class="graph" transform="scale(1 1) rotate(0) translate(4 225)">
<title>modules/backend/ParsedDataTypes.hpp</title>
<!-- Node1 -->
<g id="node1" class="node">
<title>Node1</title>
<g id="a_node1"><a xlink:title=" ">
<polygon fill="#bfbfbf" stroke="black" points="530,-190.5 530,-220.5 703,-220.5 703,-190.5 530,-190.5"/>
<text text-anchor="start" x="538" y="-208.5" font-family="JetBrains Mono" font-size="10.00">modules/backend/ParsedData</text>
<text text-anchor="middle" x="616.5" y="-197.5" font-family="JetBrains Mono" font-size="10.00">Types.hpp</text>
</a>
</g>
</g>
<!-- Node2 -->
<g id="node2" class="node">
<title>Node2</title>
<g id="a_node2"><a xlink:href="_converter_8hpp.html" target="_top" xlink:title=" ">
<polygon fill="none" stroke="black" points="0,-67.5 0,-86.5 191,-86.5 191,-67.5 0,-67.5"/>
<text text-anchor="middle" x="95.5" y="-74.5" font-family="JetBrains Mono" font-size="10.00">modules/backend/Converter.hpp</text>
</a>
</g>
</g>
<!-- Node1&#45;&gt;Node2 -->
<g id="edge1" class="edge">
<title>Node1&#45;&gt;Node2</title>
<path fill="none" stroke="midnightblue" d="M548.91,-188.09C436.83,-160.88 216.39,-107.35 130.72,-86.55"/>
<polygon fill="midnightblue" stroke="midnightblue" points="548.21,-191.52 558.75,-190.48 549.86,-184.72 548.21,-191.52"/>
</g>
<!-- Node4 -->
<g id="node4" class="node">
<title>Node4</title>
<g id="a_node4"><a xlink:href="_interfaces_8hpp.html" target="_top" xlink:title=" ">
<polygon fill="none" stroke="black" points="518,-129 518,-148 715,-148 715,-129 518,-129"/>
<text text-anchor="middle" x="616.5" y="-136" font-family="JetBrains Mono" font-size="10.00">modules/backend/Interfaces.hpp</text>
</a>
</g>
</g>
<!-- Node1&#45;&gt;Node4 -->
<g id="edge3" class="edge">
<title>Node1&#45;&gt;Node4</title>
<path fill="none" stroke="midnightblue" d="M616.5,-180.25C616.5,-169.02 616.5,-156.38 616.5,-148.19"/>
<polygon fill="midnightblue" stroke="midnightblue" points="613,-180.4 616.5,-190.4 620,-180.4 613,-180.4"/>
</g>
<!-- Node5 -->
<g id="node5" class="node">
<title>Node5</title>
<g id="a_node5"><a xlink:href="_parser_8hpp.html" target="_top" xlink:title=" ">
<polygon fill="none" stroke="black" points="209,-67.5 209,-86.5 382,-86.5 382,-67.5 209,-67.5"/>
<text text-anchor="middle" x="295.5" y="-74.5" font-family="JetBrains Mono" font-size="10.00">modules/backend/Parser.hpp</text>
</a>
</g>
</g>
<!-- Node1&#45;&gt;Node5 -->
<g id="edge19" class="edge">
<title>Node1&#45;&gt;Node5</title>
<path fill="none" stroke="midnightblue" d="M571.48,-186.76C501.56,-159.2 369.48,-107.15 317.4,-86.63"/>
<polygon fill="midnightblue" stroke="midnightblue" points="570.33,-190.07 580.92,-190.48 572.9,-183.56 570.33,-190.07"/>
</g>
<!-- Node15 -->
<g id="node15" class="node">
<title>Node15</title>
<g id="a_node15"><a xlink:href="_tests_bridge_8hpp.html" target="_top" xlink:title=" ">
<polygon fill="none" stroke="black" points="1314,-67.5 1314,-86.5 1511,-86.5 1511,-67.5 1314,-67.5"/>
<text text-anchor="middle" x="1412.5" y="-74.5" font-family="JetBrains Mono" font-size="10.00">modules/bridge/TestsBridge.hpp</text>
</a>
</g>
</g>
<!-- Node1&#45;&gt;Node15 -->
<g id="edge20" class="edge">
<title>Node1&#45;&gt;Node15</title>
<path fill="none" stroke="midnightblue" d="M661.13,-186.21C680.8,-177.45 703.86,-166.21 723.5,-154 742.3,-142.31 741.85,-130.99 762.5,-123 875.09,-79.47 1184.13,-96.01 1304.5,-87 1307.6,-86.77 1310.74,-86.53 1313.92,-86.28"/>
<polygon fill="midnightblue" stroke="midnightblue" points="659.53,-183.09 651.77,-190.3 662.34,-189.5 659.53,-183.09"/>
</g>
<!-- Node16 -->
<g id="node16" class="node">
<title>Node16</title>
<g id="a_node16"><a xlink:href="_parsed_data_package_8cpp.html" target="_top" xlink:title=" ">
<polygon fill="none" stroke="black" points="772,-123.5 772,-153.5 921,-153.5 921,-123.5 772,-123.5"/>
<text text-anchor="start" x="780" y="-141.5" font-family="JetBrains Mono" font-size="10.00">modules/backend/parser</text>
<text text-anchor="middle" x="846.5" y="-130.5" font-family="JetBrains Mono" font-size="10.00">/ParsedDataPackage.cpp</text>
</a>
</g>
</g>
<!-- Node1&#45;&gt;Node16 -->
<g id="edge18" class="edge">
<title>Node1&#45;&gt;Node16</title>
<path fill="none" stroke="midnightblue" d="M675.89,-187.71C713.32,-177.14 761.1,-163.63 796.57,-153.61"/>
<polygon fill="midnightblue" stroke="midnightblue" points="674.79,-184.39 666.12,-190.48 676.7,-191.12 674.79,-184.39"/>
</g>
<!-- Node3 -->
<g id="node3" class="node">
<title>Node3</title>
<g id="a_node3"><a xlink:href="_converter_8cpp.html" target="_top" xlink:title=" ">
<polygon fill="none" stroke="black" points="12,-0.5 12,-30.5 179,-30.5 179,-0.5 12,-0.5"/>
<text text-anchor="start" x="20" y="-18.5" font-family="JetBrains Mono" font-size="10.00">modules/backend/converter</text>
<text text-anchor="middle" x="95.5" y="-7.5" font-family="JetBrains Mono" font-size="10.00">/Converter.cpp</text>
</a>
</g>
</g>
<!-- Node2&#45;&gt;Node3 -->
<g id="edge2" class="edge">
<title>Node2&#45;&gt;Node3</title>
<path fill="none" stroke="midnightblue" d="M95.5,-57.23C95.5,-48.59 95.5,-38.5 95.5,-30.52"/>
<polygon fill="midnightblue" stroke="midnightblue" points="92,-57.48 95.5,-67.48 99,-57.48 92,-57.48"/>
</g>
<!-- Node4&#45;&gt;Node2 -->
<g id="edge4" class="edge">
<title>Node4&#45;&gt;Node2</title>
<path fill="none" stroke="midnightblue" d="M531.75,-127.82C431.35,-116.36 265.69,-97.44 170.01,-86.51"/>
<polygon fill="midnightblue" stroke="midnightblue" points="531.52,-131.32 541.85,-128.98 532.32,-124.36 531.52,-131.32"/>
</g>
<!-- Node4&#45;&gt;Node5 -->
<g id="edge5" class="edge">
<title>Node4&#45;&gt;Node5</title>
<path fill="none" stroke="midnightblue" d="M560.48,-127.12C498.32,-115.59 399.17,-97.22 341.41,-86.51"/>
<polygon fill="midnightblue" stroke="midnightblue" points="560.04,-130.59 570.51,-128.98 561.31,-123.71 560.04,-130.59"/>
</g>
<!-- Node7 -->
<g id="node7" class="node">
<title>Node7</title>
<g id="a_node7"><a xlink:href="_port_operator_8hpp.html" target="_top" xlink:title=" ">
<polygon fill="none" stroke="black" points="400,-67.5 400,-86.5 609,-86.5 609,-67.5 400,-67.5"/>
<text text-anchor="middle" x="504.5" y="-74.5" font-family="JetBrains Mono" font-size="10.00">modules/backend/PortOperator.hpp</text>
</a>
</g>
</g>
<!-- Node4&#45;&gt;Node7 -->
<g id="edge7" class="edge">
<title>Node4&#45;&gt;Node7</title>
<path fill="none" stroke="midnightblue" d="M591.49,-124.21C569.8,-112.69 539.05,-96.36 520.52,-86.51"/>
<polygon fill="midnightblue" stroke="midnightblue" points="589.98,-127.37 600.45,-128.98 593.26,-121.19 589.98,-127.37"/>
</g>
<!-- Node9 -->
<g id="node9" class="node">
<title>Node9</title>
<g id="a_node9"><a xlink:href="_port_scanner_8hpp.html" target="_top" xlink:title=" ">
<polygon fill="none" stroke="black" points="627,-67.5 627,-86.5 830,-86.5 830,-67.5 627,-67.5"/>
<text text-anchor="middle" x="728.5" y="-74.5" font-family="JetBrains Mono" font-size="10.00">modules/backend/PortScanner.hpp</text>
</a>
</g>
</g>
<!-- Node4&#45;&gt;Node9 -->
<g id="edge9" class="edge">
<title>Node4&#45;&gt;Node9</title>
<path fill="none" stroke="midnightblue" d="M641.51,-124.21C663.2,-112.69 693.95,-96.36 712.48,-86.51"/>
<polygon fill="midnightblue" stroke="midnightblue" points="639.74,-121.19 632.55,-128.98 643.02,-127.37 639.74,-121.19"/>
</g>
<!-- Node11 -->
<g id="node11" class="node">
<title>Node11</title>
<g id="a_node11"><a xlink:href="_settings_bridge_8hpp.html" target="_top" xlink:title=" ">
<polygon fill="none" stroke="black" points="848,-67.5 848,-86.5 1063,-86.5 1063,-67.5 848,-67.5"/>
<text text-anchor="middle" x="955.5" y="-74.5" font-family="JetBrains Mono" font-size="10.00">modules/bridge/SettingsBridge.hpp</text>
</a>
</g>
</g>
<!-- Node4&#45;&gt;Node11 -->
<g id="edge11" class="edge">
<title>Node4&#45;&gt;Node11</title>
<path fill="none" stroke="midnightblue" d="M675.25,-127.19C740.88,-115.67 845.89,-97.24 907.02,-86.51"/>
<polygon fill="midnightblue" stroke="midnightblue" points="674.31,-123.8 665.07,-128.98 675.52,-130.69 674.31,-123.8"/>
</g>
<!-- Node14 -->
<g id="node14" class="node">
<title>Node14</title>
<g id="a_node14"><a xlink:href="_terminal_bridge_8hpp.html" target="_top" xlink:title=" ">
<polygon fill="none" stroke="black" points="1081,-67.5 1081,-86.5 1296,-86.5 1296,-67.5 1081,-67.5"/>
<text text-anchor="middle" x="1188.5" y="-74.5" font-family="JetBrains Mono" font-size="10.00">modules/bridge/TerminalBridge.hpp</text>
</a>
</g>
</g>
<!-- Node4&#45;&gt;Node14 -->
<g id="edge14" class="edge">
<title>Node4&#45;&gt;Node14</title>
<path fill="none" stroke="midnightblue" d="M690.04,-127.74C703.18,-126.09 716.74,-124.44 729.5,-123 855.01,-108.8 1000.13,-95.01 1093.03,-86.52"/>
<polygon fill="midnightblue" stroke="midnightblue" points="689.59,-124.27 680.11,-129 690.47,-131.21 689.59,-124.27"/>
</g>
<!-- Node4&#45;&gt;Node15 -->
<g id="edge16" class="edge">
<title>Node4&#45;&gt;Node15</title>
<path fill="none" stroke="midnightblue" d="M687.18,-127.71C701.19,-125.98 715.79,-124.31 729.5,-123 984.4,-98.69 1049.12,-105.63 1304.5,-87 1307.6,-86.77 1310.74,-86.54 1313.92,-86.3"/>
<polygon fill="midnightblue" stroke="midnightblue" points="686.6,-124.26 677.12,-128.98 687.48,-131.2 686.6,-124.26"/>
</g>
<!-- Node6 -->
<g id="node6" class="node">
<title>Node6</title>
<g id="a_node6"><a xlink:href="_parser_8cpp.html" target="_top" xlink:title=" ">
<polygon fill="none" stroke="black" points="221,-0.5 221,-30.5 370,-30.5 370,-0.5 221,-0.5"/>
<text text-anchor="start" x="229" y="-18.5" font-family="JetBrains Mono" font-size="10.00">modules/backend/parser</text>
<text text-anchor="middle" x="295.5" y="-7.5" font-family="JetBrains Mono" font-size="10.00">/Parser.cpp</text>
</a>
</g>
</g>
<!-- Node5&#45;&gt;Node6 -->
<g id="edge6" class="edge">
<title>Node5&#45;&gt;Node6</title>
<path fill="none" stroke="midnightblue" d="M295.5,-57.23C295.5,-48.59 295.5,-38.5 295.5,-30.52"/>
<polygon fill="midnightblue" stroke="midnightblue" points="292,-57.48 295.5,-67.48 299,-57.48 292,-57.48"/>
</g>
<!-- Node8 -->
<g id="node8" class="node">
<title>Node8</title>
<g id="a_node8"><a xlink:href="_port_operator_8cpp.html" target="_top" xlink:title=" ">
<polygon fill="none" stroke="black" points="436,-0.5 436,-30.5 573,-30.5 573,-0.5 436,-0.5"/>
<text text-anchor="start" x="444" y="-18.5" font-family="JetBrains Mono" font-size="10.00">modules/backend/port</text>
<text text-anchor="middle" x="504.5" y="-7.5" font-family="JetBrains Mono" font-size="10.00">/PortOperator.cpp</text>
</a>
</g>
</g>
<!-- Node7&#45;&gt;Node8 -->
<g id="edge8" class="edge">
<title>Node7&#45;&gt;Node8</title>
<path fill="none" stroke="midnightblue" d="M504.5,-57.23C504.5,-48.59 504.5,-38.5 504.5,-30.52"/>
<polygon fill="midnightblue" stroke="midnightblue" points="501,-57.48 504.5,-67.48 508,-57.48 501,-57.48"/>
</g>
<!-- Node10 -->
<g id="node10" class="node">
<title>Node10</title>
<g id="a_node10"><a xlink:href="_port_scanner_8cpp.html" target="_top" xlink:title=" ">
<polygon fill="none" stroke="black" points="660,-0.5 660,-30.5 797,-30.5 797,-0.5 660,-0.5"/>
<text text-anchor="start" x="668" y="-18.5" font-family="JetBrains Mono" font-size="10.00">modules/backend/port</text>
<text text-anchor="middle" x="728.5" y="-7.5" font-family="JetBrains Mono" font-size="10.00">/PortScanner.cpp</text>
</a>
</g>
</g>
<!-- Node9&#45;&gt;Node10 -->
<g id="edge10" class="edge">
<title>Node9&#45;&gt;Node10</title>
<path fill="none" stroke="midnightblue" d="M728.5,-57.23C728.5,-48.59 728.5,-38.5 728.5,-30.52"/>
<polygon fill="midnightblue" stroke="midnightblue" points="725,-57.48 728.5,-67.48 732,-57.48 725,-57.48"/>
</g>
<!-- Node12 -->
<g id="node12" class="node">
<title>Node12</title>
<g id="a_node12"><a xlink:href="_bridge_8hpp.html" target="_top" xlink:title=" ">
<polygon fill="none" stroke="black" points="1105,-6 1105,-25 1272,-25 1272,-6 1105,-6"/>
<text text-anchor="middle" x="1188.5" y="-13" font-family="JetBrains Mono" font-size="10.00">modules/bridge/Bridge.hpp</text>
</a>
</g>
</g>
<!-- Node11&#45;&gt;Node12 -->
<g id="edge12" class="edge">
<title>Node11&#45;&gt;Node12</title>
<path fill="none" stroke="midnightblue" d="M998.7,-64.97C1043.94,-53.41 1114.03,-35.52 1155.18,-25.01"/>
<polygon fill="midnightblue" stroke="midnightblue" points="997.71,-61.61 988.88,-67.48 999.44,-68.39 997.71,-61.61"/>
</g>
<!-- Node13 -->
<g id="node13" class="node">
<title>Node13</title>
<g id="a_node13"><a xlink:href="_settings_bridge_8cpp.html" target="_top" xlink:title=" ">
<polygon fill="none" stroke="black" points="848,-6 848,-25 1063,-25 1063,-6 848,-6"/>
<text text-anchor="middle" x="955.5" y="-13" font-family="JetBrains Mono" font-size="10.00">modules/bridge/SettingsBridge.cpp</text>
</a>
</g>
</g>
<!-- Node11&#45;&gt;Node13 -->
<g id="edge13" class="edge">
<title>Node11&#45;&gt;Node13</title>
<path fill="none" stroke="midnightblue" d="M955.5,-57.32C955.5,-46.5 955.5,-33.4 955.5,-25.01"/>
<polygon fill="midnightblue" stroke="midnightblue" points="952,-57.48 955.5,-67.48 959,-57.48 952,-57.48"/>
</g>
<!-- Node14&#45;&gt;Node12 -->
<g id="edge15" class="edge">
<title>Node14&#45;&gt;Node12</title>
<path fill="none" stroke="midnightblue" d="M1188.5,-57.32C1188.5,-46.5 1188.5,-33.4 1188.5,-25.01"/>
<polygon fill="midnightblue" stroke="midnightblue" points="1185,-57.48 1188.5,-67.48 1192,-57.48 1185,-57.48"/>
</g>
<!-- Node15&#45;&gt;Node12 -->
<g id="edge17" class="edge">
<title>Node15&#45;&gt;Node12</title>
<path fill="none" stroke="midnightblue" d="M1370.7,-64.9C1327.19,-53.34 1260.01,-35.5 1220.53,-25.01"/>
<polygon fill="midnightblue" stroke="midnightblue" points="1369.84,-68.29 1380.41,-67.48 1371.64,-61.53 1369.84,-68.29"/>
</g>
</g>
</svg>
