<?xml version="1.0" encoding="UTF-8" standalone="no"?>
<!DOCTYPE svg PUBLIC "-//W3C//DTD SVG 1.1//EN"
 "http://www.w3.org/Graphics/SVG/1.1/DTD/svg11.dtd">
<!-- Generated by graphviz version 2.48.0 (20210717.1556)
 -->
<!-- Title: modules/backend/PortSettings.hpp Pages: 1 -->
<svg width="979pt" height="140pt"
 viewBox="0.00 0.00 979.00 140.00" xmlns="http://www.w3.org/2000/svg" xmlns:xlink="http://www.w3.org/1999/xlink">
<g id="graph0" class="graph" transform="scale(1 1) rotate(0) translate(4 136)">
<title>modules/backend/PortSettings.hpp</title>
<!-- Node1 -->
<g id="node1" class="node">
<title>Node1</title>
<g id="a_node1"><a xlink:title=" ">
<polygon fill="#bfbfbf" stroke="black" points="286,-112.5 286,-131.5 495,-131.5 495,-112.5 286,-112.5"/>
<text text-anchor="middle" x="390.5" y="-119.5" font-family="JetBrains Mono" font-size="10.00">modules/backend/PortSettings.hpp</text>
</a>
</g>
</g>
<!-- Node2 -->
<g id="node2" class="node">
<title>Node2</title>
<g id="a_node2"><a xlink:title=" ">
<polygon fill="none" stroke="#bfbfbf" points="0,-56.5 0,-75.5 83,-75.5 83,-56.5 0,-56.5"/>
<text text-anchor="middle" x="41.5" y="-63.5" font-family="JetBrains Mono" font-size="10.00">QSerialPort</text>
</a>
</g>
</g>
<!-- Node1&#45;&gt;Node2 -->
<g id="edge1" class="edge">
<title>Node1&#45;&gt;Node2</title>
<path fill="none" stroke="midnightblue" d="M330.57,-112.5C272.33,-104.12 181.12,-90.68 93.11,-76.23"/>
<polygon fill="midnightblue" stroke="midnightblue" points="93.66,-72.78 83.23,-74.6 92.52,-79.68 93.66,-72.78"/>
</g>
<!-- Node3 -->
<g id="node3" class="node">
<title>Node3</title>
<g id="a_node3"><a xlink:title=" ">
<polygon fill="none" stroke="#bfbfbf" points="101,-56.5 101,-75.5 148,-75.5 148,-56.5 101,-56.5"/>
<text text-anchor="middle" x="124.5" y="-63.5" font-family="JetBrains Mono" font-size="10.00">QList</text>
</a>
</g>
</g>
<!-- Node1&#45;&gt;Node3 -->
<g id="edge2" class="edge">
<title>Node1&#45;&gt;Node3</title>
<path fill="none" stroke="midnightblue" d="M339.57,-112.48C294.22,-104.61 225.88,-92.04 158.19,-76.26"/>
<polygon fill="midnightblue" stroke="midnightblue" points="158.74,-72.79 148.21,-73.91 157.14,-79.61 158.74,-72.79"/>
</g>
<!-- Node4 -->
<g id="node4" class="node">
<title>Node4</title>
<g id="a_node4"><a xlink:title=" ">
<polygon fill="none" stroke="#bfbfbf" points="166,-56.5 166,-75.5 243,-75.5 243,-56.5 166,-56.5"/>
<text text-anchor="middle" x="204.5" y="-63.5" font-family="JetBrains Mono" font-size="10.00">functional</text>
</a>
</g>
</g>
<!-- Node1&#45;&gt;Node4 -->
<g id="edge3" class="edge">
<title>Node1&#45;&gt;Node4</title>
<path fill="none" stroke="midnightblue" d="M361.03,-112.44C329.33,-103.24 278.77,-88.56 243.73,-78.39"/>
<polygon fill="midnightblue" stroke="midnightblue" points="244.41,-74.94 233.83,-75.52 242.46,-81.67 244.41,-74.94"/>
</g>
<!-- Node5 -->
<g id="node5" class="node">
<title>Node5</title>
<g id="a_node5"><a xlink:title=" ">
<polygon fill="none" stroke="#bfbfbf" points="261,-56.5 261,-75.5 362,-75.5 362,-56.5 261,-56.5"/>
<text text-anchor="middle" x="311.5" y="-63.5" font-family="JetBrains Mono" font-size="10.00">QSharedPointer</text>
</a>
</g>
</g>
<!-- Node1&#45;&gt;Node5 -->
<g id="edge4" class="edge">
<title>Node1&#45;&gt;Node5</title>
<path fill="none" stroke="midnightblue" d="M377.81,-112.32C365.6,-103.98 346.92,-91.21 332.5,-81.35"/>
<polygon fill="midnightblue" stroke="midnightblue" points="334.39,-78.41 324.16,-75.65 330.44,-84.19 334.39,-78.41"/>
</g>
<!-- Node6 -->
<g id="node6" class="node">
<title>Node6</title>
<g id="a_node6"><a xlink:title=" ">
<polygon fill="none" stroke="#bfbfbf" points="524,-0.5 524,-19.5 565,-19.5 565,-0.5 524,-0.5"/>
<text text-anchor="middle" x="544.5" y="-7.5" font-family="JetBrains Mono" font-size="10.00">QMap</text>
</a>
</g>
</g>
<!-- Node1&#45;&gt;Node6 -->
<g id="edge5" class="edge">
<title>Node1&#45;&gt;Node6</title>
<path fill="none" stroke="midnightblue" d="M390.6,-112.16C391.24,-98.34 394.49,-71.58 409.5,-56 436.94,-27.51 482.87,-17.05 513.42,-13.22"/>
<polygon fill="midnightblue" stroke="midnightblue" points="513.97,-16.68 523.53,-12.12 513.21,-9.72 513.97,-16.68"/>
</g>
<!-- Node7 -->
<g id="node7" class="node">
<title>Node7</title>
<g id="a_node7"><a xlink:title=" ">
<polygon fill="none" stroke="#bfbfbf" points="419,-56.5 419,-75.5 526,-75.5 526,-56.5 419,-56.5"/>
<text text-anchor="middle" x="472.5" y="-63.5" font-family="JetBrains Mono" font-size="10.00">QSerialPortInfo</text>
</a>
</g>
</g>
<!-- Node1&#45;&gt;Node7 -->
<g id="edge6" class="edge">
<title>Node1&#45;&gt;Node7</title>
<path fill="none" stroke="midnightblue" d="M403.67,-112.32C416.35,-103.98 435.73,-91.21 450.71,-81.35"/>
<polygon fill="midnightblue" stroke="midnightblue" points="452.93,-84.08 459.36,-75.65 449.08,-78.23 452.93,-84.08"/>
</g>
<!-- Node8 -->
<g id="node8" class="node">
<title>Node8</title>
<g id="a_node8"><a xlink:title=" ">
<polygon fill="none" stroke="#bfbfbf" points="675,-0.5 675,-19.5 728,-19.5 728,-0.5 675,-0.5"/>
<text text-anchor="middle" x="701.5" y="-7.5" font-family="JetBrains Mono" font-size="10.00">QMutex</text>
</a>
</g>
</g>
<!-- Node1&#45;&gt;Node8 -->
<g id="edge7" class="edge">
<title>Node1&#45;&gt;Node8</title>
<path fill="none" stroke="midnightblue" d="M495.3,-114.59C593.36,-107.49 727.17,-94.55 743.5,-76 757.26,-60.37 738.97,-39.84 722.39,-26.08"/>
<polygon fill="midnightblue" stroke="midnightblue" points="724.08,-22.96 714.05,-19.55 719.77,-28.47 724.08,-22.96"/>
</g>
<!-- Node9 -->
<g id="node9" class="node">
<title>Node9</title>
<g id="a_node9"><a xlink:href="_program_object_8hpp.html" target="_top" xlink:title=" ">
<polygon fill="none" stroke="black" points="792,-56.5 792,-75.5 971,-75.5 971,-56.5 792,-56.5"/>
<text text-anchor="middle" x="881.5" y="-63.5" font-family="JetBrains Mono" font-size="10.00">../global/ProgramObject.hpp</text>
</a>
</g>
</g>
<!-- Node1&#45;&gt;Node9 -->
<g id="edge8" class="edge">
<title>Node1&#45;&gt;Node9</title>
<path fill="none" stroke="midnightblue" d="M468.03,-112.47C556.59,-102.73 701.17,-86.83 793.78,-76.65"/>
<polygon fill="midnightblue" stroke="midnightblue" points="794.42,-80.1 803.97,-75.53 793.65,-73.14 794.42,-80.1"/>
</g>
<!-- Node12 -->
<g id="node12" class="node">
<title>Node12</title>
<g id="a_node12"><a xlink:href="_static_generator_8hpp.html" target="_top" xlink:title=" ">
<polygon fill="none" stroke="black" points="544,-56.5 544,-75.5 735,-75.5 735,-56.5 544,-56.5"/>
<text text-anchor="middle" x="639.5" y="-63.5" font-family="JetBrains Mono" font-size="10.00">../global/StaticGenerator.hpp</text>
</a>
</g>
</g>
<!-- Node1&#45;&gt;Node12 -->
<g id="edge11" class="edge">
<title>Node1&#45;&gt;Node12</title>
<path fill="none" stroke="midnightblue" d="M429.95,-112.44C473.39,-103.02 543.29,-87.87 590.28,-77.68"/>
<polygon fill="midnightblue" stroke="midnightblue" points="591.2,-81.06 600.23,-75.52 589.72,-74.22 591.2,-81.06"/>
</g>
<!-- Node10 -->
<g id="node10" class="node">
<title>Node10</title>
<g id="a_node10"><a xlink:title=" ">
<polygon fill="none" stroke="#bfbfbf" points="813,-0.5 813,-19.5 872,-19.5 872,-0.5 813,-0.5"/>
<text text-anchor="middle" x="842.5" y="-7.5" font-family="JetBrains Mono" font-size="10.00">QString</text>
</a>
</g>
</g>
<!-- Node9&#45;&gt;Node10 -->
<g id="edge9" class="edge">
<title>Node9&#45;&gt;Node10</title>
<path fill="none" stroke="midnightblue" d="M875.06,-56.08C869.55,-48.46 861.47,-37.26 854.74,-27.94"/>
<polygon fill="midnightblue" stroke="midnightblue" points="857.51,-25.81 848.82,-19.75 851.84,-29.91 857.51,-25.81"/>
</g>
<!-- Node11 -->
<g id="node11" class="node">
<title>Node11</title>
<g id="a_node11"><a xlink:title=" ">
<polygon fill="none" stroke="#bfbfbf" points="890,-0.5 890,-19.5 949,-19.5 949,-0.5 890,-0.5"/>
<text text-anchor="middle" x="919.5" y="-7.5" font-family="JetBrains Mono" font-size="10.00">QObject</text>
</a>
</g>
</g>
<!-- Node9&#45;&gt;Node11 -->
<g id="edge10" class="edge">
<title>Node9&#45;&gt;Node11</title>
<path fill="none" stroke="midnightblue" d="M887.77,-56.08C893.14,-48.46 901.02,-37.26 907.58,-27.94"/>
<polygon fill="midnightblue" stroke="midnightblue" points="910.45,-29.94 913.34,-19.75 904.72,-25.91 910.45,-29.94"/>
</g>
<!-- Node12&#45;&gt;Node6 -->
<g id="edge13" class="edge">
<title>Node12&#45;&gt;Node6</title>
<path fill="none" stroke="midnightblue" d="M624.24,-56.32C609.28,-47.82 586.25,-34.73 568.77,-24.8"/>
<polygon fill="midnightblue" stroke="midnightblue" points="570.15,-21.55 559.73,-19.65 566.69,-27.64 570.15,-21.55"/>
</g>
<!-- Node12&#45;&gt;Node8 -->
<g id="edge12" class="edge">
<title>Node12&#45;&gt;Node8</title>
<path fill="none" stroke="midnightblue" d="M649.46,-56.32C658.63,-48.34 672.44,-36.31 683.53,-26.65"/>
<polygon fill="midnightblue" stroke="midnightblue" points="686.12,-29.04 691.36,-19.83 681.52,-23.76 686.12,-29.04"/>
</g>
</g>
</svg>
