<?xml version="1.0" encoding="UTF-8" standalone="no"?>
<!DOCTYPE svg PUBLIC "-//W3C//DTD SVG 1.1//EN"
 "http://www.w3.org/Graphics/SVG/1.1/DTD/svg11.dtd">
<!-- Generated by graphviz version 2.48.0 (20210717.1556)
 -->
<!-- Title: modules/backend/PortScanner.hpp Pages: 1 -->
<svg width="1147pt" height="252pt"
 viewBox="0.00 0.00 1147.00 252.00" xmlns="http://www.w3.org/2000/svg" xmlns:xlink="http://www.w3.org/1999/xlink">
<g id="graph0" class="graph" transform="scale(1 1) rotate(0) translate(4 248)">
<title>modules/backend/PortScanner.hpp</title>
<!-- Node1 -->
<g id="node1" class="node">
<title>Node1</title>
<g id="a_node1"><a xlink:title=" ">
<polygon fill="#bfbfbf" stroke="black" points="350,-224.5 350,-243.5 553,-243.5 553,-224.5 350,-224.5"/>
<text text-anchor="middle" x="451.5" y="-231.5" font-family="JetBrains Mono" font-size="10.00">modules/backend/PortScanner.hpp</text>
</a>
</g>
</g>
<!-- Node2 -->
<g id="node2" class="node">
<title>Node2</title>
<g id="a_node2"><a xlink:title=" ">
<polygon fill="none" stroke="#bfbfbf" points="279,-168.5 279,-187.5 362,-187.5 362,-168.5 279,-168.5"/>
<text text-anchor="middle" x="320.5" y="-175.5" font-family="JetBrains Mono" font-size="10.00">QStringList</text>
</a>
</g>
</g>
<!-- Node1&#45;&gt;Node2 -->
<g id="edge1" class="edge">
<title>Node1&#45;&gt;Node2</title>
<path fill="none" stroke="midnightblue" d="M430.74,-224.44C409.18,-215.56 375.24,-201.56 350.71,-191.45"/>
<polygon fill="midnightblue" stroke="midnightblue" points="351.74,-188.09 341.16,-187.52 349.07,-194.56 351.74,-188.09"/>
</g>
<!-- Node3 -->
<g id="node3" class="node">
<title>Node3</title>
<g id="a_node3"><a xlink:title=" ">
<polygon fill="none" stroke="#bfbfbf" points="101,-56.5 101,-75.5 208,-75.5 208,-56.5 101,-56.5"/>
<text text-anchor="middle" x="154.5" y="-63.5" font-family="JetBrains Mono" font-size="10.00">QSerialPortInfo</text>
</a>
</g>
</g>
<!-- Node1&#45;&gt;Node3 -->
<g id="edge2" class="edge">
<title>Node1&#45;&gt;Node3</title>
<path fill="none" stroke="midnightblue" d="M442.09,-224.19C427.55,-210.88 398.36,-185.34 370.5,-168 308.72,-129.54 229.92,-96.27 186.62,-79.2"/>
<polygon fill="midnightblue" stroke="midnightblue" points="187.76,-75.89 177.17,-75.51 185.21,-82.41 187.76,-75.89"/>
</g>
<!-- Node4 -->
<g id="node4" class="node">
<title>Node4</title>
<g id="a_node4"><a xlink:href="_program_object_8hpp.html" target="_top" xlink:title=" ">
<polygon fill="none" stroke="black" points="902,-56.5 902,-75.5 1081,-75.5 1081,-56.5 902,-56.5"/>
<text text-anchor="middle" x="991.5" y="-63.5" font-family="JetBrains Mono" font-size="10.00">../global/ProgramObject.hpp</text>
</a>
</g>
</g>
<!-- Node1&#45;&gt;Node4 -->
<g id="edge3" class="edge">
<title>Node1&#45;&gt;Node4</title>
<path fill="none" stroke="midnightblue" d="M553.05,-225.55C686.51,-213.74 911.09,-186.29 971.5,-132 984.52,-120.3 989.16,-100.36 990.77,-85.64"/>
<polygon fill="midnightblue" stroke="midnightblue" points="994.27,-85.86 991.5,-75.63 987.28,-85.35 994.27,-85.86"/>
</g>
<!-- Node7 -->
<g id="node7" class="node">
<title>Node7</title>
<g id="a_node7"><a xlink:href="_interfaces_8hpp.html" target="_top" xlink:title=" ">
<polygon fill="none" stroke="black" points="533,-168.5 533,-187.5 634,-187.5 634,-168.5 533,-168.5"/>
<text text-anchor="middle" x="583.5" y="-175.5" font-family="JetBrains Mono" font-size="10.00">Interfaces.hpp</text>
</a>
</g>
</g>
<!-- Node1&#45;&gt;Node7 -->
<g id="edge6" class="edge">
<title>Node1&#45;&gt;Node7</title>
<path fill="none" stroke="midnightblue" d="M472.42,-224.44C494.24,-215.52 528.65,-201.44 553.39,-191.32"/>
<polygon fill="midnightblue" stroke="midnightblue" points="554.75,-194.54 562.68,-187.52 552.1,-188.06 554.75,-194.54"/>
</g>
<!-- Node5 -->
<g id="node5" class="node">
<title>Node5</title>
<g id="a_node5"><a xlink:title=" ">
<polygon fill="none" stroke="#bfbfbf" points="903,-0.5 903,-19.5 962,-19.5 962,-0.5 903,-0.5"/>
<text text-anchor="middle" x="932.5" y="-7.5" font-family="JetBrains Mono" font-size="10.00">QString</text>
</a>
</g>
</g>
<!-- Node4&#45;&gt;Node5 -->
<g id="edge4" class="edge">
<title>Node4&#45;&gt;Node5</title>
<path fill="none" stroke="midnightblue" d="M982.02,-56.32C973.3,-48.34 960.16,-36.31 949.6,-26.65"/>
<polygon fill="midnightblue" stroke="midnightblue" points="951.89,-24 942.15,-19.83 947.17,-29.17 951.89,-24"/>
</g>
<!-- Node6 -->
<g id="node6" class="node">
<title>Node6</title>
<g id="a_node6"><a xlink:title=" ">
<polygon fill="none" stroke="#bfbfbf" points="1080,-0.5 1080,-19.5 1139,-19.5 1139,-0.5 1080,-0.5"/>
<text text-anchor="middle" x="1109.5" y="-7.5" font-family="JetBrains Mono" font-size="10.00">QObject</text>
</a>
</g>
</g>
<!-- Node4&#45;&gt;Node6 -->
<g id="edge5" class="edge">
<title>Node4&#45;&gt;Node6</title>
<path fill="none" stroke="midnightblue" d="M1010.2,-56.44C1029.44,-47.64 1059.65,-33.81 1081.7,-23.72"/>
<polygon fill="midnightblue" stroke="midnightblue" points="1083.25,-26.86 1090.89,-19.52 1080.34,-20.5 1083.25,-26.86"/>
</g>
<!-- Node7&#45;&gt;Node3 -->
<g id="edge8" class="edge">
<title>Node7&#45;&gt;Node3</title>
<path fill="none" stroke="midnightblue" d="M554.5,-168.47C526.73,-160.06 483.8,-146.39 447.5,-132 427.91,-124.23 424.59,-118.36 404.5,-112 342.62,-92.4 269.25,-80.46 218.06,-73.86"/>
<polygon fill="midnightblue" stroke="midnightblue" points="218.49,-70.38 208.13,-72.61 217.62,-77.33 218.49,-70.38"/>
</g>
<!-- Node7&#45;&gt;Node6 -->
<g id="edge9" class="edge">
<title>Node7&#45;&gt;Node6</title>
<path fill="none" stroke="midnightblue" d="M634.2,-175.43C709.04,-172.15 853.04,-162.15 971.5,-132 1036.05,-115.57 1073.23,-131.2 1110.5,-76 1119.57,-62.57 1118.15,-43.75 1115.15,-29.82"/>
<polygon fill="midnightblue" stroke="midnightblue" points="1118.48,-28.69 1112.58,-19.89 1111.7,-30.44 1118.48,-28.69"/>
</g>
<!-- Node8 -->
<g id="node8" class="node">
<title>Node8</title>
<g id="a_node8"><a xlink:title=" ">
<polygon fill="none" stroke="#bfbfbf" points="0,-56.5 0,-75.5 83,-75.5 83,-56.5 0,-56.5"/>
<text text-anchor="middle" x="41.5" y="-63.5" font-family="JetBrains Mono" font-size="10.00">QSerialPort</text>
</a>
</g>
</g>
<!-- Node7&#45;&gt;Node8 -->
<g id="edge7" class="edge">
<title>Node7&#45;&gt;Node8</title>
<path fill="none" stroke="midnightblue" d="M541.42,-168.46C443.36,-148.56 199.86,-99.14 93.08,-77.47"/>
<polygon fill="midnightblue" stroke="midnightblue" points="93.68,-74.02 83.18,-75.46 92.28,-80.88 93.68,-74.02"/>
</g>
<!-- Node9 -->
<g id="node9" class="node">
<title>Node9</title>
<g id="a_node9"><a xlink:href="_port_settings_8hpp.html" target="_top" xlink:title=" ">
<polygon fill="none" stroke="black" points="457,-112.5 457,-131.5 570,-131.5 570,-112.5 457,-112.5"/>
<text text-anchor="middle" x="513.5" y="-119.5" font-family="JetBrains Mono" font-size="10.00">PortSettings.hpp</text>
</a>
</g>
</g>
<!-- Node7&#45;&gt;Node9 -->
<g id="edge10" class="edge">
<title>Node7&#45;&gt;Node9</title>
<path fill="none" stroke="midnightblue" d="M572.25,-168.32C561.7,-160.18 545.7,-147.84 533.06,-138.09"/>
<polygon fill="midnightblue" stroke="midnightblue" points="535.01,-135.17 524.95,-131.83 530.73,-140.71 535.01,-135.17"/>
</g>
<!-- Node16 -->
<g id="node16" class="node">
<title>Node16</title>
<g id="a_node16"><a xlink:href="_parsed_data_types_8hpp.html" target="_top" xlink:title=" ">
<polygon fill="none" stroke="black" points="588,-112.5 588,-131.5 719,-131.5 719,-112.5 588,-112.5"/>
<text text-anchor="middle" x="653.5" y="-119.5" font-family="JetBrains Mono" font-size="10.00">ParsedDataTypes.hpp</text>
</a>
</g>
</g>
<!-- Node7&#45;&gt;Node16 -->
<g id="edge22" class="edge">
<title>Node7&#45;&gt;Node16</title>
<path fill="none" stroke="midnightblue" d="M594.75,-168.32C605.3,-160.18 621.3,-147.84 633.94,-138.09"/>
<polygon fill="midnightblue" stroke="midnightblue" points="636.27,-140.71 642.05,-131.83 631.99,-135.17 636.27,-140.71"/>
</g>
<!-- Node18 -->
<g id="node18" class="node">
<title>Node18</title>
<g id="a_node18"><a xlink:href="_converted_data_types_8hpp.html" target="_top" xlink:title=" ">
<polygon fill="none" stroke="black" points="737,-112.5 737,-131.5 886,-131.5 886,-112.5 737,-112.5"/>
<text text-anchor="middle" x="811.5" y="-119.5" font-family="JetBrains Mono" font-size="10.00">ConvertedDataTypes.hpp</text>
</a>
</g>
</g>
<!-- Node7&#45;&gt;Node18 -->
<g id="edge27" class="edge">
<title>Node7&#45;&gt;Node18</title>
<path fill="none" stroke="midnightblue" d="M619.63,-168.44C659.15,-159.08 722.6,-144.06 765.61,-133.87"/>
<polygon fill="midnightblue" stroke="midnightblue" points="766.62,-137.23 775.54,-131.52 765,-130.42 766.62,-137.23"/>
</g>
<!-- Node19 -->
<g id="node19" class="node">
<title>Node19</title>
<g id="a_node19"><a xlink:title=" ">
<polygon fill="none" stroke="#bfbfbf" points="904,-112.5 904,-131.5 963,-131.5 963,-112.5 904,-112.5"/>
<text text-anchor="middle" x="933.5" y="-119.5" font-family="JetBrains Mono" font-size="10.00">variant</text>
</a>
</g>
</g>
<!-- Node7&#45;&gt;Node19 -->
<g id="edge31" class="edge">
<title>Node7&#45;&gt;Node19</title>
<path fill="none" stroke="midnightblue" d="M634.08,-170.99C693.74,-163.62 796.13,-150.05 893.71,-132.01"/>
<polygon fill="midnightblue" stroke="midnightblue" points="894.56,-135.41 903.74,-130.14 893.27,-128.53 894.56,-135.41"/>
</g>
<!-- Node9&#45;&gt;Node3 -->
<g id="edge16" class="edge">
<title>Node9&#45;&gt;Node3</title>
<path fill="none" stroke="midnightblue" d="M456.62,-112.44C391.74,-102.68 285.92,-86.77 218.29,-76.6"/>
<polygon fill="midnightblue" stroke="midnightblue" points="218.6,-73.1 208.19,-75.08 217.55,-80.02 218.6,-73.1"/>
</g>
<!-- Node9&#45;&gt;Node4 -->
<g id="edge18" class="edge">
<title>Node9&#45;&gt;Node4</title>
<path fill="none" stroke="midnightblue" d="M570.21,-113.05C573.01,-112.69 575.79,-112.34 578.5,-112 687.52,-98.52 813.01,-85.15 896.78,-76.53"/>
<polygon fill="midnightblue" stroke="midnightblue" points="897.19,-80.01 906.78,-75.5 896.48,-73.04 897.19,-80.01"/>
</g>
<!-- Node9&#45;&gt;Node8 -->
<g id="edge11" class="edge">
<title>Node9&#45;&gt;Node8</title>
<path fill="none" stroke="midnightblue" d="M456.69,-116.25C377.48,-109.33 229.16,-95.34 93.37,-76.19"/>
<polygon fill="midnightblue" stroke="midnightblue" points="93.6,-72.68 83.21,-74.74 92.61,-79.61 93.6,-72.68"/>
</g>
<!-- Node10 -->
<g id="node10" class="node">
<title>Node10</title>
<g id="a_node10"><a xlink:title=" ">
<polygon fill="none" stroke="#bfbfbf" points="727,-56.5 727,-75.5 774,-75.5 774,-56.5 727,-56.5"/>
<text text-anchor="middle" x="750.5" y="-63.5" font-family="JetBrains Mono" font-size="10.00">QList</text>
</a>
</g>
</g>
<!-- Node9&#45;&gt;Node10 -->
<g id="edge12" class="edge">
<title>Node9&#45;&gt;Node10</title>
<path fill="none" stroke="midnightblue" d="M555.05,-112.46C594.28,-104.26 654.96,-91.21 716.81,-76.08"/>
<polygon fill="midnightblue" stroke="midnightblue" points="717.87,-79.42 726.74,-73.63 716.2,-72.62 717.87,-79.42"/>
</g>
<!-- Node11 -->
<g id="node11" class="node">
<title>Node11</title>
<g id="a_node11"><a xlink:title=" ">
<polygon fill="none" stroke="#bfbfbf" points="265,-56.5 265,-75.5 342,-75.5 342,-56.5 265,-56.5"/>
<text text-anchor="middle" x="303.5" y="-63.5" font-family="JetBrains Mono" font-size="10.00">functional</text>
</a>
</g>
</g>
<!-- Node9&#45;&gt;Node11 -->
<g id="edge13" class="edge">
<title>Node9&#45;&gt;Node11</title>
<path fill="none" stroke="midnightblue" d="M480.22,-112.44C444.05,-103.14 386.12,-88.25 346.52,-78.06"/>
<polygon fill="midnightblue" stroke="midnightblue" points="347.18,-74.62 336.62,-75.52 345.43,-81.4 347.18,-74.62"/>
</g>
<!-- Node12 -->
<g id="node12" class="node">
<title>Node12</title>
<g id="a_node12"><a xlink:title=" ">
<polygon fill="none" stroke="#bfbfbf" points="608,-56.5 608,-75.5 709,-75.5 709,-56.5 608,-56.5"/>
<text text-anchor="middle" x="658.5" y="-63.5" font-family="JetBrains Mono" font-size="10.00">QSharedPointer</text>
</a>
</g>
</g>
<!-- Node9&#45;&gt;Node12 -->
<g id="edge14" class="edge">
<title>Node9&#45;&gt;Node12</title>
<path fill="none" stroke="midnightblue" d="M536.48,-112.44C560.66,-103.44 598.92,-89.19 626.15,-79.05"/>
<polygon fill="midnightblue" stroke="midnightblue" points="627.48,-82.29 635.63,-75.52 625.04,-75.73 627.48,-82.29"/>
</g>
<!-- Node13 -->
<g id="node13" class="node">
<title>Node13</title>
<g id="a_node13"><a xlink:title=" ">
<polygon fill="none" stroke="#bfbfbf" points="355,-0.5 355,-19.5 396,-19.5 396,-0.5 355,-0.5"/>
<text text-anchor="middle" x="375.5" y="-7.5" font-family="JetBrains Mono" font-size="10.00">QMap</text>
</a>
</g>
</g>
<!-- Node9&#45;&gt;Node13 -->
<g id="edge15" class="edge">
<title>Node9&#45;&gt;Node13</title>
<path fill="none" stroke="midnightblue" d="M456.81,-112.99C382.83,-102.26 261.97,-83.7 255.5,-76 227.62,-42.84 300.78,-23.89 344.87,-15.77"/>
<polygon fill="midnightblue" stroke="midnightblue" points="345.6,-19.19 354.85,-14.02 344.39,-12.3 345.6,-19.19"/>
</g>
<!-- Node14 -->
<g id="node14" class="node">
<title>Node14</title>
<g id="a_node14"><a xlink:title=" ">
<polygon fill="none" stroke="#bfbfbf" points="491,-0.5 491,-19.5 544,-19.5 544,-0.5 491,-0.5"/>
<text text-anchor="middle" x="517.5" y="-7.5" font-family="JetBrains Mono" font-size="10.00">QMutex</text>
</a>
</g>
</g>
<!-- Node9&#45;&gt;Node14 -->
<g id="edge17" class="edge">
<title>Node9&#45;&gt;Node14</title>
<path fill="none" stroke="midnightblue" d="M527.29,-112.19C538.33,-104.24 553,-91.45 559.5,-76 567.16,-57.78 552.15,-39.03 537.99,-26.38"/>
<polygon fill="midnightblue" stroke="midnightblue" points="539.86,-23.39 529.93,-19.69 535.38,-28.77 539.86,-23.39"/>
</g>
<!-- Node15 -->
<g id="node15" class="node">
<title>Node15</title>
<g id="a_node15"><a xlink:href="_static_generator_8hpp.html" target="_top" xlink:title=" ">
<polygon fill="none" stroke="black" points="360,-56.5 360,-75.5 551,-75.5 551,-56.5 360,-56.5"/>
<text text-anchor="middle" x="455.5" y="-63.5" font-family="JetBrains Mono" font-size="10.00">../global/StaticGenerator.hpp</text>
</a>
</g>
</g>
<!-- Node9&#45;&gt;Node15 -->
<g id="edge19" class="edge">
<title>Node9&#45;&gt;Node15</title>
<path fill="none" stroke="midnightblue" d="M504.18,-112.32C495.61,-104.34 482.69,-92.31 472.31,-82.65"/>
<polygon fill="midnightblue" stroke="midnightblue" points="474.69,-80.09 464.99,-75.83 469.92,-85.21 474.69,-80.09"/>
</g>
<!-- Node15&#45;&gt;Node13 -->
<g id="edge21" class="edge">
<title>Node15&#45;&gt;Node13</title>
<path fill="none" stroke="midnightblue" d="M442.65,-56.32C430.28,-47.98 411.37,-35.21 396.76,-25.35"/>
<polygon fill="midnightblue" stroke="midnightblue" points="398.57,-22.35 388.32,-19.65 394.65,-28.15 398.57,-22.35"/>
</g>
<!-- Node15&#45;&gt;Node14 -->
<g id="edge20" class="edge">
<title>Node15&#45;&gt;Node14</title>
<path fill="none" stroke="midnightblue" d="M465.46,-56.32C474.63,-48.34 488.44,-36.31 499.53,-26.65"/>
<polygon fill="midnightblue" stroke="midnightblue" points="502.12,-29.04 507.36,-19.83 497.52,-23.76 502.12,-29.04"/>
</g>
<!-- Node16&#45;&gt;Node10 -->
<g id="edge23" class="edge">
<title>Node16&#45;&gt;Node10</title>
<path fill="none" stroke="midnightblue" d="M669.08,-112.32C684.5,-103.74 708.31,-90.49 726.21,-80.52"/>
<polygon fill="midnightblue" stroke="midnightblue" points="727.92,-83.58 734.95,-75.65 724.51,-77.46 727.92,-83.58"/>
</g>
<!-- Node16&#45;&gt;Node12 -->
<g id="edge24" class="edge">
<title>Node16&#45;&gt;Node12</title>
<path fill="none" stroke="midnightblue" d="M654.33,-112.08C654.98,-105.01 655.92,-94.86 656.74,-85.99"/>
<polygon fill="midnightblue" stroke="midnightblue" points="660.25,-86.03 657.69,-75.75 653.28,-85.39 660.25,-86.03"/>
</g>
<!-- Node16&#45;&gt;Node15 -->
<g id="edge26" class="edge">
<title>Node16&#45;&gt;Node15</title>
<path fill="none" stroke="midnightblue" d="M622.13,-112.44C588.24,-103.2 534.1,-88.44 496.78,-78.26"/>
<polygon fill="midnightblue" stroke="midnightblue" points="497.3,-74.77 486.73,-75.52 495.45,-81.52 497.3,-74.77"/>
</g>
<!-- Node17 -->
<g id="node17" class="node">
<title>Node17</title>
<g id="a_node17"><a xlink:title=" ">
<polygon fill="none" stroke="#bfbfbf" points="792,-56.5 792,-75.5 845,-75.5 845,-56.5 792,-56.5"/>
<text text-anchor="middle" x="818.5" y="-63.5" font-family="JetBrains Mono" font-size="10.00">memory</text>
</a>
</g>
</g>
<!-- Node16&#45;&gt;Node17 -->
<g id="edge25" class="edge">
<title>Node16&#45;&gt;Node17</title>
<path fill="none" stroke="midnightblue" d="M679.64,-112.44C707.52,-103.32 751.85,-88.81 782.9,-78.65"/>
<polygon fill="midnightblue" stroke="midnightblue" points="784.06,-81.95 792.48,-75.52 781.88,-75.3 784.06,-81.95"/>
</g>
<!-- Node18&#45;&gt;Node5 -->
<g id="edge29" class="edge">
<title>Node18&#45;&gt;Node5</title>
<path fill="none" stroke="midnightblue" d="M820.99,-112.37C841.4,-93.81 889.7,-49.91 915.52,-26.44"/>
<polygon fill="midnightblue" stroke="midnightblue" points="918,-28.91 923.05,-19.59 913.3,-23.73 918,-28.91"/>
</g>
<!-- Node18&#45;&gt;Node6 -->
<g id="edge30" class="edge">
<title>Node18&#45;&gt;Node6</title>
<path fill="none" stroke="midnightblue" d="M874.62,-112.49C954.12,-101.53 1081.42,-83.03 1089.5,-76 1102.7,-64.51 1107.32,-44.53 1108.87,-29.75"/>
<polygon fill="midnightblue" stroke="midnightblue" points="1112.37,-29.9 1109.55,-19.69 1105.38,-29.43 1112.37,-29.9"/>
</g>
<!-- Node18&#45;&gt;Node10 -->
<g id="edge28" class="edge">
<title>Node18&#45;&gt;Node10</title>
<path fill="none" stroke="midnightblue" d="M801.7,-112.32C792.68,-104.34 779.09,-92.31 768.18,-82.65"/>
<polygon fill="midnightblue" stroke="midnightblue" points="770.29,-79.84 760.48,-75.83 765.65,-85.08 770.29,-79.84"/>
</g>
</g>
</svg>
