<?xml version="1.0" encoding="UTF-8" standalone="no"?>
<!DOCTYPE svg PUBLIC "-//W3C//DTD SVG 1.1//EN"
 "http://www.w3.org/Graphics/SVG/1.1/DTD/svg11.dtd">
<!-- Generated by graphviz version 2.48.0 (20210717.1556)
 -->
<!-- Title: modules/backend/PortSettings.hpp Pages: 1 -->
<svg width="1713pt" height="218pt"
 viewBox="0.00 0.00 1713.00 218.00" xmlns="http://www.w3.org/2000/svg" xmlns:xlink="http://www.w3.org/1999/xlink">
<g id="graph0" class="graph" transform="scale(1 1) rotate(0) translate(4 214)">
<title>modules/backend/PortSettings.hpp</title>
<!-- Node1 -->
<g id="node1" class="node">
<title>Node1</title>
<g id="a_node1"><a xlink:title=" ">
<polygon fill="#bfbfbf" stroke="black" points="1075,-190.5 1075,-209.5 1284,-209.5 1284,-190.5 1075,-190.5"/>
<text text-anchor="middle" x="1179.5" y="-197.5" font-family="JetBrains Mono" font-size="10.00">modules/backend/PortSettings.hpp</text>
</a>
</g>
</g>
<!-- Node2 -->
<g id="node2" class="node">
<title>Node2</title>
<g id="a_node2"><a xlink:href="_interfaces_8hpp.html" target="_top" xlink:title=" ">
<polygon fill="none" stroke="black" points="744,-129 744,-148 941,-148 941,-129 744,-129"/>
<text text-anchor="middle" x="842.5" y="-136" font-family="JetBrains Mono" font-size="10.00">modules/backend/Interfaces.hpp</text>
</a>
</g>
</g>
<!-- Node1&#45;&gt;Node2 -->
<g id="edge1" class="edge">
<title>Node1&#45;&gt;Node2</title>
<path fill="none" stroke="midnightblue" d="M1121.09,-188.69C1055.86,-177.17 951.46,-158.74 890.69,-148.01"/>
<polygon fill="midnightblue" stroke="midnightblue" points="1120.76,-192.18 1131.22,-190.48 1121.98,-185.29 1120.76,-192.18"/>
</g>
<!-- Node7 -->
<g id="node7" class="node">
<title>Node7</title>
<g id="a_node7"><a xlink:href="_port_operator_8hpp.html" target="_top" xlink:title=" ">
<polygon fill="none" stroke="black" points="0,-67.5 0,-86.5 209,-86.5 209,-67.5 0,-67.5"/>
<text text-anchor="middle" x="104.5" y="-74.5" font-family="JetBrains Mono" font-size="10.00">modules/backend/PortOperator.hpp</text>
</a>
</g>
</g>
<!-- Node1&#45;&gt;Node7 -->
<g id="edge18" class="edge">
<title>Node1&#45;&gt;Node7</title>
<path fill="none" stroke="midnightblue" d="M1080.15,-189.51C989.93,-180.75 853.22,-167.16 734.5,-154 529.19,-131.24 286.67,-101.05 171.58,-86.52"/>
<polygon fill="midnightblue" stroke="midnightblue" points="1080.08,-193.02 1090.37,-190.5 1080.76,-186.05 1080.08,-193.02"/>
</g>
<!-- Node11 -->
<g id="node11" class="node">
<title>Node11</title>
<g id="a_node11"><a xlink:href="_settings_bridge_8hpp.html" target="_top" xlink:title=" ">
<polygon fill="none" stroke="black" points="848,-67.5 848,-86.5 1063,-86.5 1063,-67.5 848,-67.5"/>
<text text-anchor="middle" x="955.5" y="-74.5" font-family="JetBrains Mono" font-size="10.00">modules/bridge/SettingsBridge.hpp</text>
</a>
</g>
</g>
<!-- Node1&#45;&gt;Node11 -->
<g id="edge20" class="edge">
<title>Node1&#45;&gt;Node11</title>
<path fill="none" stroke="midnightblue" d="M1154.7,-185.61C1108.43,-160.61 1010.13,-107.51 971.53,-86.66"/>
<polygon fill="midnightblue" stroke="midnightblue" points="1153.29,-188.82 1163.75,-190.49 1156.61,-182.66 1153.29,-188.82"/>
</g>
<!-- Node12 -->
<g id="node12" class="node">
<title>Node12</title>
<g id="a_node12"><a xlink:href="_bridge_8hpp.html" target="_top" xlink:title=" ">
<polygon fill="none" stroke="black" points="1208,-6 1208,-25 1375,-25 1375,-6 1208,-6"/>
<text text-anchor="middle" x="1291.5" y="-13" font-family="JetBrains Mono" font-size="10.00">modules/bridge/Bridge.hpp</text>
</a>
</g>
</g>
<!-- Node1&#45;&gt;Node12 -->
<g id="edge19" class="edge">
<title>Node1&#45;&gt;Node12</title>
<path fill="none" stroke="midnightblue" d="M1294.63,-194.37C1372.2,-184.52 1469.35,-157.64 1520.5,-87 1525.71,-79.8 1526.07,-73.93 1520.5,-67 1502.24,-44.27 1432.71,-31.16 1375.01,-24.03"/>
<polygon fill="midnightblue" stroke="midnightblue" points="1293.83,-190.94 1284.31,-195.59 1294.66,-197.89 1293.83,-190.94"/>
</g>
<!-- Node14 -->
<g id="node14" class="node">
<title>Node14</title>
<g id="a_node14"><a xlink:href="_terminal_bridge_8hpp.html" target="_top" xlink:title=" ">
<polygon fill="none" stroke="black" points="1296,-67.5 1296,-86.5 1511,-86.5 1511,-67.5 1296,-67.5"/>
<text text-anchor="middle" x="1403.5" y="-74.5" font-family="JetBrains Mono" font-size="10.00">modules/bridge/TerminalBridge.hpp</text>
</a>
</g>
</g>
<!-- Node1&#45;&gt;Node14 -->
<g id="edge21" class="edge">
<title>Node1&#45;&gt;Node14</title>
<path fill="none" stroke="midnightblue" d="M1204.3,-185.61C1250.57,-160.61 1348.87,-107.51 1387.47,-86.66"/>
<polygon fill="midnightblue" stroke="midnightblue" points="1202.39,-182.66 1195.25,-190.49 1205.71,-188.82 1202.39,-182.66"/>
</g>
<!-- Node15 -->
<g id="node15" class="node">
<title>Node15</title>
<g id="a_node15"><a xlink:href="_tests_bridge_8hpp.html" target="_top" xlink:title=" ">
<polygon fill="none" stroke="black" points="1081,-67.5 1081,-86.5 1278,-86.5 1278,-67.5 1081,-67.5"/>
<text text-anchor="middle" x="1179.5" y="-74.5" font-family="JetBrains Mono" font-size="10.00">modules/bridge/TestsBridge.hpp</text>
</a>
</g>
</g>
<!-- Node1&#45;&gt;Node15 -->
<g id="edge22" class="edge">
<title>Node1&#45;&gt;Node15</title>
<path fill="none" stroke="midnightblue" d="M1179.5,-179.99C1179.5,-153.35 1179.5,-106 1179.5,-86.62"/>
<polygon fill="midnightblue" stroke="midnightblue" points="1176,-180.3 1179.5,-190.3 1183,-180.3 1176,-180.3"/>
</g>
<!-- Node16 -->
<g id="node16" class="node">
<title>Node16</title>
<g id="a_node16"><a xlink:href="_port_settings_8cpp.html" target="_top" xlink:title=" ">
<polygon fill="none" stroke="black" points="1568,-123.5 1568,-153.5 1705,-153.5 1705,-123.5 1568,-123.5"/>
<text text-anchor="start" x="1576" y="-141.5" font-family="JetBrains Mono" font-size="10.00">modules/backend/port</text>
<text text-anchor="middle" x="1636.5" y="-130.5" font-family="JetBrains Mono" font-size="10.00">/PortSettings.cpp</text>
</a>
</g>
</g>
<!-- Node1&#45;&gt;Node16 -->
<g id="edge17" class="edge">
<title>Node1&#45;&gt;Node16</title>
<path fill="none" stroke="midnightblue" d="M1270.65,-189.4C1346.49,-181.09 1457.21,-168.19 1553.5,-154 1558.13,-153.32 1562.9,-152.58 1567.7,-151.81"/>
<polygon fill="midnightblue" stroke="midnightblue" points="1270.21,-185.93 1260.65,-190.5 1270.97,-192.89 1270.21,-185.93"/>
</g>
<!-- Node3 -->
<g id="node3" class="node">
<title>Node3</title>
<g id="a_node3"><a xlink:href="_converter_8hpp.html" target="_top" xlink:title=" ">
<polygon fill="none" stroke="black" points="227,-67.5 227,-86.5 418,-86.5 418,-67.5 227,-67.5"/>
<text text-anchor="middle" x="322.5" y="-74.5" font-family="JetBrains Mono" font-size="10.00">modules/backend/Converter.hpp</text>
</a>
</g>
</g>
<!-- Node2&#45;&gt;Node3 -->
<g id="edge2" class="edge">
<title>Node2&#45;&gt;Node3</title>
<path fill="none" stroke="midnightblue" d="M757.91,-127.82C657.71,-116.36 492.37,-97.44 396.87,-86.51"/>
<polygon fill="midnightblue" stroke="midnightblue" points="757.66,-131.32 768,-128.98 758.46,-124.36 757.66,-131.32"/>
</g>
<!-- Node5 -->
<g id="node5" class="node">
<title>Node5</title>
<g id="a_node5"><a xlink:href="_parser_8hpp.html" target="_top" xlink:title=" ">
<polygon fill="none" stroke="black" points="436,-67.5 436,-86.5 609,-86.5 609,-67.5 436,-67.5"/>
<text text-anchor="middle" x="522.5" y="-74.5" font-family="JetBrains Mono" font-size="10.00">modules/backend/Parser.hpp</text>
</a>
</g>
</g>
<!-- Node2&#45;&gt;Node5 -->
<g id="edge4" class="edge">
<title>Node2&#45;&gt;Node5</title>
<path fill="none" stroke="midnightblue" d="M786.66,-127.12C724.69,-115.59 625.85,-97.22 568.26,-86.51"/>
<polygon fill="midnightblue" stroke="midnightblue" points="786.18,-130.59 796.65,-128.98 787.46,-123.71 786.18,-130.59"/>
</g>
<!-- Node2&#45;&gt;Node7 -->
<g id="edge6" class="edge">
<title>Node2&#45;&gt;Node7</title>
<path fill="none" stroke="midnightblue" d="M733.76,-128.73C592.71,-117.36 348.29,-97.66 209.23,-86.44"/>
<polygon fill="midnightblue" stroke="midnightblue" points="733.49,-132.22 743.74,-129.54 734.05,-125.24 733.49,-132.22"/>
</g>
<!-- Node9 -->
<g id="node9" class="node">
<title>Node9</title>
<g id="a_node9"><a xlink:href="_port_scanner_8hpp.html" target="_top" xlink:title=" ">
<polygon fill="none" stroke="black" points="627,-67.5 627,-86.5 830,-86.5 830,-67.5 627,-67.5"/>
<text text-anchor="middle" x="728.5" y="-74.5" font-family="JetBrains Mono" font-size="10.00">modules/backend/PortScanner.hpp</text>
</a>
</g>
</g>
<!-- Node2&#45;&gt;Node9 -->
<g id="edge8" class="edge">
<title>Node2&#45;&gt;Node9</title>
<path fill="none" stroke="midnightblue" d="M817.04,-124.21C794.96,-112.69 763.67,-96.36 744.8,-86.51"/>
<polygon fill="midnightblue" stroke="midnightblue" points="815.68,-127.45 826.17,-128.98 818.92,-121.25 815.68,-127.45"/>
</g>
<!-- Node2&#45;&gt;Node11 -->
<g id="edge10" class="edge">
<title>Node2&#45;&gt;Node11</title>
<path fill="none" stroke="midnightblue" d="M867.74,-124.21C889.62,-112.69 920.64,-96.36 939.34,-86.51"/>
<polygon fill="midnightblue" stroke="midnightblue" points="865.91,-121.22 858.69,-128.98 869.17,-127.41 865.91,-121.22"/>
</g>
<!-- Node2&#45;&gt;Node14 -->
<g id="edge13" class="edge">
<title>Node2&#45;&gt;Node14</title>
<path fill="none" stroke="midnightblue" d="M933.11,-127.89C1041.14,-116.43 1220.03,-97.46 1323.27,-86.51"/>
<polygon fill="midnightblue" stroke="midnightblue" points="932.45,-124.44 922.88,-128.98 933.19,-131.4 932.45,-124.44"/>
</g>
<!-- Node2&#45;&gt;Node15 -->
<g id="edge15" class="edge">
<title>Node2&#45;&gt;Node15</title>
<path fill="none" stroke="midnightblue" d="M900.91,-127.19C966.14,-115.67 1070.54,-97.24 1131.31,-86.51"/>
<polygon fill="midnightblue" stroke="midnightblue" points="900.02,-123.79 890.78,-128.98 901.24,-130.68 900.02,-123.79"/>
</g>
<!-- Node4 -->
<g id="node4" class="node">
<title>Node4</title>
<g id="a_node4"><a xlink:href="_converter_8cpp.html" target="_top" xlink:title=" ">
<polygon fill="none" stroke="black" points="239,-0.5 239,-30.5 406,-30.5 406,-0.5 239,-0.5"/>
<text text-anchor="start" x="247" y="-18.5" font-family="JetBrains Mono" font-size="10.00">modules/backend/converter</text>
<text text-anchor="middle" x="322.5" y="-7.5" font-family="JetBrains Mono" font-size="10.00">/Converter.cpp</text>
</a>
</g>
</g>
<!-- Node3&#45;&gt;Node4 -->
<g id="edge3" class="edge">
<title>Node3&#45;&gt;Node4</title>
<path fill="none" stroke="midnightblue" d="M322.5,-57.23C322.5,-48.59 322.5,-38.5 322.5,-30.52"/>
<polygon fill="midnightblue" stroke="midnightblue" points="319,-57.48 322.5,-67.48 326,-57.48 319,-57.48"/>
</g>
<!-- Node6 -->
<g id="node6" class="node">
<title>Node6</title>
<g id="a_node6"><a xlink:href="_parser_8cpp.html" target="_top" xlink:title=" ">
<polygon fill="none" stroke="black" points="448,-0.5 448,-30.5 597,-30.5 597,-0.5 448,-0.5"/>
<text text-anchor="start" x="456" y="-18.5" font-family="JetBrains Mono" font-size="10.00">modules/backend/parser</text>
<text text-anchor="middle" x="522.5" y="-7.5" font-family="JetBrains Mono" font-size="10.00">/Parser.cpp</text>
</a>
</g>
</g>
<!-- Node5&#45;&gt;Node6 -->
<g id="edge5" class="edge">
<title>Node5&#45;&gt;Node6</title>
<path fill="none" stroke="midnightblue" d="M522.5,-57.23C522.5,-48.59 522.5,-38.5 522.5,-30.52"/>
<polygon fill="midnightblue" stroke="midnightblue" points="519,-57.48 522.5,-67.48 526,-57.48 519,-57.48"/>
</g>
<!-- Node8 -->
<g id="node8" class="node">
<title>Node8</title>
<g id="a_node8"><a xlink:href="_port_operator_8cpp.html" target="_top" xlink:title=" ">
<polygon fill="none" stroke="black" points="36,-0.5 36,-30.5 173,-30.5 173,-0.5 36,-0.5"/>
<text text-anchor="start" x="44" y="-18.5" font-family="JetBrains Mono" font-size="10.00">modules/backend/port</text>
<text text-anchor="middle" x="104.5" y="-7.5" font-family="JetBrains Mono" font-size="10.00">/PortOperator.cpp</text>
</a>
</g>
</g>
<!-- Node7&#45;&gt;Node8 -->
<g id="edge7" class="edge">
<title>Node7&#45;&gt;Node8</title>
<path fill="none" stroke="midnightblue" d="M104.5,-57.23C104.5,-48.59 104.5,-38.5 104.5,-30.52"/>
<polygon fill="midnightblue" stroke="midnightblue" points="101,-57.48 104.5,-67.48 108,-57.48 101,-57.48"/>
</g>
<!-- Node10 -->
<g id="node10" class="node">
<title>Node10</title>
<g id="a_node10"><a xlink:href="_port_scanner_8cpp.html" target="_top" xlink:title=" ">
<polygon fill="none" stroke="black" points="660,-0.5 660,-30.5 797,-30.5 797,-0.5 660,-0.5"/>
<text text-anchor="start" x="668" y="-18.5" font-family="JetBrains Mono" font-size="10.00">modules/backend/port</text>
<text text-anchor="middle" x="728.5" y="-7.5" font-family="JetBrains Mono" font-size="10.00">/PortScanner.cpp</text>
</a>
</g>
</g>
<!-- Node9&#45;&gt;Node10 -->
<g id="edge9" class="edge">
<title>Node9&#45;&gt;Node10</title>
<path fill="none" stroke="midnightblue" d="M728.5,-57.23C728.5,-48.59 728.5,-38.5 728.5,-30.52"/>
<polygon fill="midnightblue" stroke="midnightblue" points="725,-57.48 728.5,-67.48 732,-57.48 725,-57.48"/>
</g>
<!-- Node11&#45;&gt;Node12 -->
<g id="edge11" class="edge">
<title>Node11&#45;&gt;Node12</title>
<path fill="none" stroke="midnightblue" d="M1013.73,-65.69C1078.78,-54.17 1182.86,-35.74 1243.45,-25.01"/>
<polygon fill="midnightblue" stroke="midnightblue" points="1012.88,-62.28 1003.64,-67.48 1014.1,-69.18 1012.88,-62.28"/>
</g>
<!-- Node13 -->
<g id="node13" class="node">
<title>Node13</title>
<g id="a_node13"><a xlink:href="_settings_bridge_8cpp.html" target="_top" xlink:title=" ">
<polygon fill="none" stroke="black" points="848,-6 848,-25 1063,-25 1063,-6 848,-6"/>
<text text-anchor="middle" x="955.5" y="-13" font-family="JetBrains Mono" font-size="10.00">modules/bridge/SettingsBridge.cpp</text>
</a>
</g>
</g>
<!-- Node11&#45;&gt;Node13 -->
<g id="edge12" class="edge">
<title>Node11&#45;&gt;Node13</title>
<path fill="none" stroke="midnightblue" d="M955.5,-57.32C955.5,-46.5 955.5,-33.4 955.5,-25.01"/>
<polygon fill="midnightblue" stroke="midnightblue" points="952,-57.48 955.5,-67.48 959,-57.48 952,-57.48"/>
</g>
<!-- Node14&#45;&gt;Node12 -->
<g id="edge14" class="edge">
<title>Node14&#45;&gt;Node12</title>
<path fill="none" stroke="midnightblue" d="M1378.49,-62.71C1356.8,-51.19 1326.05,-34.86 1307.52,-25.01"/>
<polygon fill="midnightblue" stroke="midnightblue" points="1376.98,-65.87 1387.45,-67.48 1380.26,-59.69 1376.98,-65.87"/>
</g>
<!-- Node15&#45;&gt;Node12 -->
<g id="edge16" class="edge">
<title>Node15&#45;&gt;Node12</title>
<path fill="none" stroke="midnightblue" d="M1204.51,-62.71C1226.2,-51.19 1256.95,-34.86 1275.48,-25.01"/>
<polygon fill="midnightblue" stroke="midnightblue" points="1202.74,-59.69 1195.55,-67.48 1206.02,-65.87 1202.74,-59.69"/>
</g>
</g>
</svg>
