<?xml version="1.0" encoding="UTF-8" standalone="no"?>
<!DOCTYPE svg PUBLIC "-//W3C//DTD SVG 1.1//EN"
 "http://www.w3.org/Graphics/SVG/1.1/DTD/svg11.dtd">
<!-- Generated by graphviz version 2.48.0 (20210717.1556)
 -->
<!-- Title: modules/backend/port/PortScanner.cpp Pages: 1 -->
<svg width="1147pt" height="319pt"
 viewBox="0.00 0.00 1147.00 319.00" xmlns="http://www.w3.org/2000/svg" xmlns:xlink="http://www.w3.org/1999/xlink">
<g id="graph0" class="graph" transform="scale(1 1) rotate(0) translate(4 315)">
<title>modules/backend/port/PortScanner.cpp</title>
<!-- Node1 -->
<g id="node1" class="node">
<title>Node1</title>
<g id="a_node1"><a xlink:title=" ">
<polygon fill="#bfbfbf" stroke="black" points="206,-280.5 206,-310.5 343,-310.5 343,-280.5 206,-280.5"/>
<text text-anchor="start" x="214" y="-298.5" font-family="JetBrains Mono" font-size="10.00">modules/backend/port</text>
<text text-anchor="middle" x="274.5" y="-287.5" font-family="JetBrains Mono" font-size="10.00">/PortScanner.cpp</text>
</a>
</g>
</g>
<!-- Node2 -->
<g id="node2" class="node">
<title>Node2</title>
<g id="a_node2"><a xlink:href="_port_scanner_8hpp.html" target="_top" xlink:title=" ">
<polygon fill="none" stroke="black" points="305,-224.5 305,-243.5 430,-243.5 430,-224.5 305,-224.5"/>
<text text-anchor="middle" x="367.5" y="-231.5" font-family="JetBrains Mono" font-size="10.00">../PortScanner.hpp</text>
</a>
</g>
</g>
<!-- Node1&#45;&gt;Node2 -->
<g id="edge1" class="edge">
<title>Node1&#45;&gt;Node2</title>
<path fill="none" stroke="midnightblue" d="M296.54,-280.4C311.31,-270.95 330.68,-258.56 345.45,-249.11"/>
<polygon fill="midnightblue" stroke="midnightblue" points="347.43,-252 353.97,-243.66 343.66,-246.1 347.43,-252"/>
</g>
<!-- Node21 -->
<g id="node21" class="node">
<title>Node21</title>
<g id="a_node21"><a xlink:href="_global_functions_8hpp.html" target="_top" xlink:title=" ">
<polygon fill="none" stroke="black" points="78,-224.5 78,-243.5 287,-243.5 287,-224.5 78,-224.5"/>
<text text-anchor="middle" x="182.5" y="-231.5" font-family="JetBrains Mono" font-size="10.00">../../global/GlobalFunctions.hpp</text>
</a>
</g>
</g>
<!-- Node1&#45;&gt;Node21 -->
<g id="edge33" class="edge">
<title>Node1&#45;&gt;Node21</title>
<path fill="none" stroke="midnightblue" d="M252.7,-280.4C238.09,-270.95 218.93,-258.56 204.32,-249.11"/>
<polygon fill="midnightblue" stroke="midnightblue" points="206.18,-246.15 195.89,-243.66 202.38,-252.03 206.18,-246.15"/>
</g>
<!-- Node3 -->
<g id="node3" class="node">
<title>Node3</title>
<g id="a_node3"><a xlink:title=" ">
<polygon fill="none" stroke="#bfbfbf" points="141,-168.5 141,-187.5 224,-187.5 224,-168.5 141,-168.5"/>
<text text-anchor="middle" x="182.5" y="-175.5" font-family="JetBrains Mono" font-size="10.00">QStringList</text>
</a>
</g>
</g>
<!-- Node2&#45;&gt;Node3 -->
<g id="edge2" class="edge">
<title>Node2&#45;&gt;Node3</title>
<path fill="none" stroke="midnightblue" d="M338.19,-224.44C306.66,-215.24 256.37,-200.56 221.51,-190.39"/>
<polygon fill="midnightblue" stroke="midnightblue" points="222.26,-186.96 211.68,-187.52 220.3,-193.68 222.26,-186.96"/>
</g>
<!-- Node4 -->
<g id="node4" class="node">
<title>Node4</title>
<g id="a_node4"><a xlink:title=" ">
<polygon fill="none" stroke="#bfbfbf" points="1032,-56.5 1032,-75.5 1139,-75.5 1139,-56.5 1032,-56.5"/>
<text text-anchor="middle" x="1085.5" y="-63.5" font-family="JetBrains Mono" font-size="10.00">QSerialPortInfo</text>
</a>
</g>
</g>
<!-- Node2&#45;&gt;Node4 -->
<g id="edge3" class="edge">
<title>Node2&#45;&gt;Node4</title>
<path fill="none" stroke="midnightblue" d="M424.54,-224.5C521.26,-209.52 723.22,-175.83 890.5,-132 948.81,-116.72 1015.06,-93.31 1053.39,-79.15"/>
<polygon fill="midnightblue" stroke="midnightblue" points="1054.82,-82.35 1062.97,-75.58 1052.38,-75.79 1054.82,-82.35"/>
</g>
<!-- Node5 -->
<g id="node5" class="node">
<title>Node5</title>
<g id="a_node5"><a xlink:href="_program_object_8hpp.html" target="_top" xlink:title=" ">
<polygon fill="none" stroke="black" points="58,-56.5 58,-75.5 237,-75.5 237,-56.5 58,-56.5"/>
<text text-anchor="middle" x="147.5" y="-63.5" font-family="JetBrains Mono" font-size="10.00">../global/ProgramObject.hpp</text>
</a>
</g>
</g>
<!-- Node2&#45;&gt;Node5 -->
<g id="edge4" class="edge">
<title>Node2&#45;&gt;Node5</title>
<path fill="none" stroke="midnightblue" d="M355.98,-224.31C320.34,-197.42 211.58,-115.35 166.94,-81.67"/>
<polygon fill="midnightblue" stroke="midnightblue" points="169,-78.83 158.9,-75.61 164.78,-84.42 169,-78.83"/>
</g>
<!-- Node8 -->
<g id="node8" class="node">
<title>Node8</title>
<g id="a_node8"><a xlink:href="_interfaces_8hpp.html" target="_top" xlink:title=" ">
<polygon fill="none" stroke="black" points="450,-168.5 450,-187.5 551,-187.5 551,-168.5 450,-168.5"/>
<text text-anchor="middle" x="500.5" y="-175.5" font-family="JetBrains Mono" font-size="10.00">Interfaces.hpp</text>
</a>
</g>
</g>
<!-- Node2&#45;&gt;Node8 -->
<g id="edge7" class="edge">
<title>Node2&#45;&gt;Node8</title>
<path fill="none" stroke="midnightblue" d="M388.57,-224.44C410.56,-215.52 445.23,-201.44 470.16,-191.32"/>
<polygon fill="midnightblue" stroke="midnightblue" points="471.58,-194.52 479.52,-187.52 468.94,-188.04 471.58,-194.52"/>
</g>
<!-- Node6 -->
<g id="node6" class="node">
<title>Node6</title>
<g id="a_node6"><a xlink:title=" ">
<polygon fill="none" stroke="#bfbfbf" points="177,-0.5 177,-19.5 236,-19.5 236,-0.5 177,-0.5"/>
<text text-anchor="middle" x="206.5" y="-7.5" font-family="JetBrains Mono" font-size="10.00">QString</text>
</a>
</g>
</g>
<!-- Node5&#45;&gt;Node6 -->
<g id="edge5" class="edge">
<title>Node5&#45;&gt;Node6</title>
<path fill="none" stroke="midnightblue" d="M156.98,-56.32C165.7,-48.34 178.84,-36.31 189.4,-26.65"/>
<polygon fill="midnightblue" stroke="midnightblue" points="191.83,-29.17 196.85,-19.83 187.11,-24 191.83,-29.17"/>
</g>
<!-- Node7 -->
<g id="node7" class="node">
<title>Node7</title>
<g id="a_node7"><a xlink:title=" ">
<polygon fill="none" stroke="#bfbfbf" points="0,-0.5 0,-19.5 59,-19.5 59,-0.5 0,-0.5"/>
<text text-anchor="middle" x="29.5" y="-7.5" font-family="JetBrains Mono" font-size="10.00">QObject</text>
</a>
</g>
</g>
<!-- Node5&#45;&gt;Node7 -->
<g id="edge6" class="edge">
<title>Node5&#45;&gt;Node7</title>
<path fill="none" stroke="midnightblue" d="M128.8,-56.44C109.56,-47.64 79.35,-33.81 57.3,-23.72"/>
<polygon fill="midnightblue" stroke="midnightblue" points="58.66,-20.5 48.11,-19.52 55.75,-26.86 58.66,-20.5"/>
</g>
<!-- Node8&#45;&gt;Node4 -->
<g id="edge9" class="edge">
<title>Node8&#45;&gt;Node4</title>
<path fill="none" stroke="midnightblue" d="M551.04,-172.13C616.89,-165.36 735.45,-151.65 835.5,-132 911.5,-117.07 998.75,-92.7 1047.47,-78.42"/>
<polygon fill="midnightblue" stroke="midnightblue" points="1048.66,-81.72 1057.26,-75.54 1046.68,-75.01 1048.66,-81.72"/>
</g>
<!-- Node8&#45;&gt;Node7 -->
<g id="edge10" class="edge">
<title>Node8&#45;&gt;Node7</title>
<path fill="none" stroke="midnightblue" d="M449.92,-173.73C340.12,-165.47 85.52,-139.74 32.5,-76 22.01,-63.39 22.45,-44.18 24.8,-29.91"/>
<polygon fill="midnightblue" stroke="midnightblue" points="28.31,-30.24 26.92,-19.74 21.46,-28.82 28.31,-30.24"/>
</g>
<!-- Node9 -->
<g id="node9" class="node">
<title>Node9</title>
<g id="a_node9"><a xlink:title=" ">
<polygon fill="none" stroke="#bfbfbf" points="294,-56.5 294,-75.5 377,-75.5 377,-56.5 294,-56.5"/>
<text text-anchor="middle" x="335.5" y="-63.5" font-family="JetBrains Mono" font-size="10.00">QSerialPort</text>
</a>
</g>
</g>
<!-- Node8&#45;&gt;Node9 -->
<g id="edge8" class="edge">
<title>Node8&#45;&gt;Node9</title>
<path fill="none" stroke="midnightblue" d="M494.27,-168.35C484.12,-154.79 462.79,-128.38 439.5,-112 419.22,-97.74 393.69,-86.61 373.01,-78.99"/>
<polygon fill="midnightblue" stroke="midnightblue" points="374.18,-75.69 363.59,-75.64 371.83,-82.29 374.18,-75.69"/>
</g>
<!-- Node10 -->
<g id="node10" class="node">
<title>Node10</title>
<g id="a_node10"><a xlink:href="_port_settings_8hpp.html" target="_top" xlink:title=" ">
<polygon fill="none" stroke="black" points="487,-112.5 487,-131.5 600,-131.5 600,-112.5 487,-112.5"/>
<text text-anchor="middle" x="543.5" y="-119.5" font-family="JetBrains Mono" font-size="10.00">PortSettings.hpp</text>
</a>
</g>
</g>
<!-- Node8&#45;&gt;Node10 -->
<g id="edge11" class="edge">
<title>Node8&#45;&gt;Node10</title>
<path fill="none" stroke="midnightblue" d="M507.6,-168.08C513.74,-160.38 522.77,-149.03 530.24,-139.65"/>
<polygon fill="midnightblue" stroke="midnightblue" points="533.04,-141.75 536.53,-131.75 527.56,-137.39 533.04,-141.75"/>
</g>
<!-- Node17 -->
<g id="node17" class="node">
<title>Node17</title>
<g id="a_node17"><a xlink:href="_parsed_data_types_8hpp.html" target="_top" xlink:title=" ">
<polygon fill="none" stroke="black" points="618,-112.5 618,-131.5 749,-131.5 749,-112.5 618,-112.5"/>
<text text-anchor="middle" x="683.5" y="-119.5" font-family="JetBrains Mono" font-size="10.00">ParsedDataTypes.hpp</text>
</a>
</g>
</g>
<!-- Node8&#45;&gt;Node17 -->
<g id="edge23" class="edge">
<title>Node8&#45;&gt;Node17</title>
<path fill="none" stroke="midnightblue" d="M529.5,-168.44C560.68,-159.24 610.43,-144.56 644.91,-134.39"/>
<polygon fill="midnightblue" stroke="midnightblue" points="646.04,-137.7 654.64,-131.52 644.06,-130.99 646.04,-137.7"/>
</g>
<!-- Node19 -->
<g id="node19" class="node">
<title>Node19</title>
<g id="a_node19"><a xlink:href="_converted_data_types_8hpp.html" target="_top" xlink:title=" ">
<polygon fill="none" stroke="black" points="281,-112.5 281,-131.5 430,-131.5 430,-112.5 281,-112.5"/>
<text text-anchor="middle" x="355.5" y="-119.5" font-family="JetBrains Mono" font-size="10.00">ConvertedDataTypes.hpp</text>
</a>
</g>
</g>
<!-- Node8&#45;&gt;Node19 -->
<g id="edge28" class="edge">
<title>Node8&#45;&gt;Node19</title>
<path fill="none" stroke="midnightblue" d="M477.52,-168.44C453.34,-159.44 415.08,-145.19 387.85,-135.05"/>
<polygon fill="midnightblue" stroke="midnightblue" points="388.96,-131.73 378.37,-131.52 386.52,-138.29 388.96,-131.73"/>
</g>
<!-- Node20 -->
<g id="node20" class="node">
<title>Node20</title>
<g id="a_node20"><a xlink:title=" ">
<polygon fill="none" stroke="#bfbfbf" points="767,-112.5 767,-131.5 826,-131.5 826,-112.5 767,-112.5"/>
<text text-anchor="middle" x="796.5" y="-119.5" font-family="JetBrains Mono" font-size="10.00">variant</text>
</a>
</g>
</g>
<!-- Node8&#45;&gt;Node20 -->
<g id="edge32" class="edge">
<title>Node8&#45;&gt;Node20</title>
<path fill="none" stroke="midnightblue" d="M551.09,-169.09C601.1,-161.07 679.99,-147.87 756.82,-132.26"/>
<polygon fill="midnightblue" stroke="midnightblue" points="757.57,-135.68 766.67,-130.24 756.17,-128.82 757.57,-135.68"/>
</g>
<!-- Node10&#45;&gt;Node4 -->
<g id="edge17" class="edge">
<title>Node10&#45;&gt;Node4</title>
<path fill="none" stroke="midnightblue" d="M600,-113.11C603.21,-112.72 606.4,-112.35 609.5,-112 789.83,-91.88 838.34,-97.08 1021.78,-76.14"/>
<polygon fill="midnightblue" stroke="midnightblue" points="1022.22,-79.62 1031.76,-74.99 1021.42,-72.66 1022.22,-79.62"/>
</g>
<!-- Node10&#45;&gt;Node5 -->
<g id="edge19" class="edge">
<title>Node10&#45;&gt;Node5</title>
<path fill="none" stroke="midnightblue" d="M486.76,-113.26C416.56,-103.69 296.92,-87.38 220.09,-76.9"/>
<polygon fill="midnightblue" stroke="midnightblue" points="220.39,-73.41 210.01,-75.52 219.45,-80.34 220.39,-73.41"/>
</g>
<!-- Node10&#45;&gt;Node9 -->
<g id="edge12" class="edge">
<title>Node10&#45;&gt;Node9</title>
<path fill="none" stroke="midnightblue" d="M510.54,-112.44C474.71,-103.14 417.34,-88.25 378.11,-78.06"/>
<polygon fill="midnightblue" stroke="midnightblue" points="378.86,-74.64 368.3,-75.52 377.1,-81.42 378.86,-74.64"/>
</g>
<!-- Node11 -->
<g id="node11" class="node">
<title>Node11</title>
<g id="a_node11"><a xlink:title=" ">
<polygon fill="none" stroke="#bfbfbf" points="529,-56.5 529,-75.5 576,-75.5 576,-56.5 529,-56.5"/>
<text text-anchor="middle" x="552.5" y="-63.5" font-family="JetBrains Mono" font-size="10.00">QList</text>
</a>
</g>
</g>
<!-- Node10&#45;&gt;Node11 -->
<g id="edge13" class="edge">
<title>Node10&#45;&gt;Node11</title>
<path fill="none" stroke="midnightblue" d="M544.99,-112.08C546.18,-104.93 547.89,-94.64 549.38,-85.69"/>
<polygon fill="midnightblue" stroke="midnightblue" points="552.85,-86.19 551.04,-75.75 545.95,-85.04 552.85,-86.19"/>
</g>
<!-- Node12 -->
<g id="node12" class="node">
<title>Node12</title>
<g id="a_node12"><a xlink:title=" ">
<polygon fill="none" stroke="#bfbfbf" points="395,-56.5 395,-75.5 472,-75.5 472,-56.5 395,-56.5"/>
<text text-anchor="middle" x="433.5" y="-63.5" font-family="JetBrains Mono" font-size="10.00">functional</text>
</a>
</g>
</g>
<!-- Node10&#45;&gt;Node12 -->
<g id="edge14" class="edge">
<title>Node10&#45;&gt;Node12</title>
<path fill="none" stroke="midnightblue" d="M525.83,-112.32C508.11,-103.62 480.6,-90.12 460.21,-80.11"/>
<polygon fill="midnightblue" stroke="midnightblue" points="461.65,-76.92 451.13,-75.65 458.56,-83.2 461.65,-76.92"/>
</g>
<!-- Node13 -->
<g id="node13" class="node">
<title>Node13</title>
<g id="a_node13"><a xlink:title=" ">
<polygon fill="none" stroke="#bfbfbf" points="633,-56.5 633,-75.5 734,-75.5 734,-56.5 633,-56.5"/>
<text text-anchor="middle" x="683.5" y="-63.5" font-family="JetBrains Mono" font-size="10.00">QSharedPointer</text>
</a>
</g>
</g>
<!-- Node10&#45;&gt;Node13 -->
<g id="edge15" class="edge">
<title>Node10&#45;&gt;Node13</title>
<path fill="none" stroke="midnightblue" d="M565.68,-112.44C588.93,-103.48 625.65,-89.31 651.92,-79.18"/>
<polygon fill="midnightblue" stroke="midnightblue" points="653.35,-82.38 661.42,-75.52 650.83,-75.85 653.35,-82.38"/>
</g>
<!-- Node14 -->
<g id="node14" class="node">
<title>Node14</title>
<g id="a_node14"><a xlink:title=" ">
<polygon fill="none" stroke="#bfbfbf" points="499,-0.5 499,-19.5 540,-19.5 540,-0.5 499,-0.5"/>
<text text-anchor="middle" x="519.5" y="-7.5" font-family="JetBrains Mono" font-size="10.00">QMap</text>
</a>
</g>
</g>
<!-- Node10&#45;&gt;Node14 -->
<g id="edge16" class="edge">
<title>Node10&#45;&gt;Node14</title>
<path fill="none" stroke="midnightblue" d="M537.44,-112.18C531.82,-103.44 523.85,-89.45 520.5,-76 516.71,-60.75 516.74,-42.87 517.57,-29.72"/>
<polygon fill="midnightblue" stroke="midnightblue" points="521.07,-29.83 518.41,-19.57 514.09,-29.25 521.07,-29.83"/>
</g>
<!-- Node15 -->
<g id="node15" class="node">
<title>Node15</title>
<g id="a_node15"><a xlink:title=" ">
<polygon fill="none" stroke="#bfbfbf" points="699,-0.5 699,-19.5 752,-19.5 752,-0.5 699,-0.5"/>
<text text-anchor="middle" x="725.5" y="-7.5" font-family="JetBrains Mono" font-size="10.00">QMutex</text>
</a>
</g>
</g>
<!-- Node10&#45;&gt;Node15 -->
<g id="edge18" class="edge">
<title>Node10&#45;&gt;Node15</title>
<path fill="none" stroke="midnightblue" d="M552.87,-112.13C567.36,-98.73 596.48,-73.09 624.5,-56 646.05,-42.86 672.11,-31.34 692.35,-23.25"/>
<polygon fill="midnightblue" stroke="midnightblue" points="693.75,-26.47 701.78,-19.56 691.2,-19.95 693.75,-26.47"/>
</g>
<!-- Node16 -->
<g id="node16" class="node">
<title>Node16</title>
<g id="a_node16"><a xlink:href="_static_generator_8hpp.html" target="_top" xlink:title=" ">
<polygon fill="none" stroke="black" points="752,-56.5 752,-75.5 943,-75.5 943,-56.5 752,-56.5"/>
<text text-anchor="middle" x="847.5" y="-63.5" font-family="JetBrains Mono" font-size="10.00">../global/StaticGenerator.hpp</text>
</a>
</g>
</g>
<!-- Node10&#45;&gt;Node16 -->
<g id="edge20" class="edge">
<title>Node10&#45;&gt;Node16</title>
<path fill="none" stroke="midnightblue" d="M591.67,-112.44C645.37,-102.9 732.19,-87.48 789.55,-77.29"/>
<polygon fill="midnightblue" stroke="midnightblue" points="790.32,-80.71 799.56,-75.52 789.1,-73.82 790.32,-80.71"/>
</g>
<!-- Node16&#45;&gt;Node14 -->
<g id="edge22" class="edge">
<title>Node16&#45;&gt;Node14</title>
<path fill="none" stroke="midnightblue" d="M795.53,-56.44C726.46,-45.07 606.61,-25.34 550.34,-16.08"/>
<polygon fill="midnightblue" stroke="midnightblue" points="550.72,-12.59 540.29,-14.42 549.59,-19.5 550.72,-12.59"/>
</g>
<!-- Node16&#45;&gt;Node15 -->
<g id="edge21" class="edge">
<title>Node16&#45;&gt;Node15</title>
<path fill="none" stroke="midnightblue" d="M828.17,-56.44C808.18,-47.6 776.76,-33.69 753.94,-23.59"/>
<polygon fill="midnightblue" stroke="midnightblue" points="755.3,-20.36 744.74,-19.52 752.47,-26.76 755.3,-20.36"/>
</g>
<!-- Node17&#45;&gt;Node11 -->
<g id="edge24" class="edge">
<title>Node17&#45;&gt;Node11</title>
<path fill="none" stroke="midnightblue" d="M662.74,-112.44C641.18,-103.56 607.24,-89.56 582.71,-79.45"/>
<polygon fill="midnightblue" stroke="midnightblue" points="583.74,-76.09 573.16,-75.52 581.07,-82.56 583.74,-76.09"/>
</g>
<!-- Node17&#45;&gt;Node13 -->
<g id="edge25" class="edge">
<title>Node17&#45;&gt;Node13</title>
<path fill="none" stroke="midnightblue" d="M683.5,-112.08C683.5,-105.01 683.5,-94.86 683.5,-85.99"/>
<polygon fill="midnightblue" stroke="midnightblue" points="687,-85.75 683.5,-75.75 680,-85.75 687,-85.75"/>
</g>
<!-- Node17&#45;&gt;Node16 -->
<g id="edge27" class="edge">
<title>Node17&#45;&gt;Node16</title>
<path fill="none" stroke="midnightblue" d="M709.49,-112.44C737.2,-103.32 781.25,-88.81 812.12,-78.65"/>
<polygon fill="midnightblue" stroke="midnightblue" points="813.23,-81.97 821.64,-75.52 811.04,-75.32 813.23,-81.97"/>
</g>
<!-- Node18 -->
<g id="node18" class="node">
<title>Node18</title>
<g id="a_node18"><a xlink:title=" ">
<polygon fill="none" stroke="#bfbfbf" points="961,-56.5 961,-75.5 1014,-75.5 1014,-56.5 961,-56.5"/>
<text text-anchor="middle" x="987.5" y="-63.5" font-family="JetBrains Mono" font-size="10.00">memory</text>
</a>
</g>
</g>
<!-- Node17&#45;&gt;Node18 -->
<g id="edge26" class="edge">
<title>Node17&#45;&gt;Node18</title>
<path fill="none" stroke="midnightblue" d="M743.34,-112.5C795.8,-104.7 874.29,-92.21 950.97,-76.19"/>
<polygon fill="midnightblue" stroke="midnightblue" points="951.74,-79.61 960.8,-74.12 950.3,-72.76 951.74,-79.61"/>
</g>
<!-- Node19&#45;&gt;Node6 -->
<g id="edge30" class="edge">
<title>Node19&#45;&gt;Node6</title>
<path fill="none" stroke="midnightblue" d="M340.96,-112.34C326.57,-103.61 304.06,-89.53 285.5,-76 263.7,-60.11 239.96,-40.2 224.26,-26.63"/>
<polygon fill="midnightblue" stroke="midnightblue" points="226.26,-23.73 216.42,-19.81 221.67,-29.01 226.26,-23.73"/>
</g>
<!-- Node19&#45;&gt;Node7 -->
<g id="edge31" class="edge">
<title>Node19&#45;&gt;Node7</title>
<path fill="none" stroke="midnightblue" d="M280.85,-119.11C201.3,-115.56 82.23,-105.35 48.5,-76 35.35,-64.56 31.06,-44.58 29.78,-29.78"/>
<polygon fill="midnightblue" stroke="midnightblue" points="33.27,-29.52 29.28,-19.7 26.28,-29.86 33.27,-29.52"/>
</g>
<!-- Node19&#45;&gt;Node11 -->
<g id="edge29" class="edge">
<title>Node19&#45;&gt;Node11</title>
<path fill="none" stroke="midnightblue" d="M386.72,-112.44C422.81,-102.55 482.01,-86.32 519.03,-76.17"/>
<polygon fill="midnightblue" stroke="midnightblue" points="520.13,-79.5 528.85,-73.48 518.28,-72.75 520.13,-79.5"/>
</g>
<!-- Node21&#45;&gt;Node3 -->
<g id="edge34" class="edge">
<title>Node21&#45;&gt;Node3</title>
<path fill="none" stroke="midnightblue" d="M182.5,-224.08C182.5,-217.01 182.5,-206.86 182.5,-197.99"/>
<polygon fill="midnightblue" stroke="midnightblue" points="186,-197.75 182.5,-187.75 179,-197.75 186,-197.75"/>
</g>
</g>
</svg>
