<?xml version="1.0" encoding="UTF-8" standalone="no"?>
<!DOCTYPE svg PUBLIC "-//W3C//DTD SVG 1.1//EN"
 "http://www.w3.org/Graphics/SVG/1.1/DTD/svg11.dtd">
<!-- Generated by graphviz version 2.48.0 (20210717.1556)
 -->
<!-- Title: modules/backend/port/PortOperator.cpp Pages: 1 -->
<svg width="1146pt" height="319pt"
 viewBox="0.00 0.00 1146.00 319.00" xmlns="http://www.w3.org/2000/svg" xmlns:xlink="http://www.w3.org/1999/xlink">
<g id="graph0" class="graph" transform="scale(1 1) rotate(0) translate(4 315)">
<title>modules/backend/port/PortOperator.cpp</title>
<!-- Node1 -->
<g id="node1" class="node">
<title>Node1</title>
<g id="a_node1"><a xlink:title=" ">
<polygon fill="#bfbfbf" stroke="black" points="656,-280.5 656,-310.5 793,-310.5 793,-280.5 656,-280.5"/>
<text text-anchor="start" x="664" y="-298.5" font-family="JetBrains Mono" font-size="10.00">modules/backend/port</text>
<text text-anchor="middle" x="724.5" y="-287.5" font-family="JetBrains Mono" font-size="10.00">/PortOperator.cpp</text>
</a>
</g>
</g>
<!-- Node2 -->
<g id="node2" class="node">
<title>Node2</title>
<g id="a_node2"><a xlink:href="_port_operator_8hpp.html" target="_top" xlink:title=" ">
<polygon fill="none" stroke="black" points="549,-224.5 549,-243.5 680,-243.5 680,-224.5 549,-224.5"/>
<text text-anchor="middle" x="614.5" y="-231.5" font-family="JetBrains Mono" font-size="10.00">../PortOperator.hpp</text>
</a>
</g>
</g>
<!-- Node1&#45;&gt;Node2 -->
<g id="edge1" class="edge">
<title>Node1&#45;&gt;Node2</title>
<path fill="none" stroke="midnightblue" d="M698.43,-280.4C680.63,-270.77 657.19,-258.09 639.6,-248.58"/>
<polygon fill="midnightblue" stroke="midnightblue" points="640.97,-245.34 630.51,-243.66 637.64,-251.49 640.97,-245.34"/>
</g>
<!-- Node21 -->
<g id="node21" class="node">
<title>Node21</title>
<g id="a_node21"><a xlink:title=" ">
<polygon fill="none" stroke="#bfbfbf" points="698,-224.5 698,-243.5 751,-243.5 751,-224.5 698,-224.5"/>
<text text-anchor="middle" x="724.5" y="-231.5" font-family="JetBrains Mono" font-size="10.00">QTimer</text>
</a>
</g>
</g>
<!-- Node1&#45;&gt;Node21 -->
<g id="edge32" class="edge">
<title>Node1&#45;&gt;Node21</title>
<path fill="none" stroke="midnightblue" d="M724.5,-280.4C724.5,-272.47 724.5,-262.46 724.5,-253.86"/>
<polygon fill="midnightblue" stroke="midnightblue" points="728,-253.66 724.5,-243.66 721,-253.66 728,-253.66"/>
</g>
<!-- Node22 -->
<g id="node22" class="node">
<title>Node22</title>
<g id="a_node22"><a xlink:title=" ">
<polygon fill="none" stroke="#bfbfbf" points="769,-224.5 769,-243.5 840,-243.5 840,-224.5 769,-224.5"/>
<text text-anchor="middle" x="804.5" y="-231.5" font-family="JetBrains Mono" font-size="10.00">QMetaEnum</text>
</a>
</g>
</g>
<!-- Node1&#45;&gt;Node22 -->
<g id="edge33" class="edge">
<title>Node1&#45;&gt;Node22</title>
<path fill="none" stroke="midnightblue" d="M743.46,-280.4C755.92,-271.13 772.2,-259.03 784.81,-249.65"/>
<polygon fill="midnightblue" stroke="midnightblue" points="786.92,-252.43 792.86,-243.66 782.75,-246.82 786.92,-252.43"/>
</g>
<!-- Node3 -->
<g id="node3" class="node">
<title>Node3</title>
<g id="a_node3"><a xlink:href="_port_settings_8hpp.html" target="_top" xlink:title=" ">
<polygon fill="none" stroke="black" points="438,-112.5 438,-131.5 551,-131.5 551,-112.5 438,-112.5"/>
<text text-anchor="middle" x="494.5" y="-119.5" font-family="JetBrains Mono" font-size="10.00">PortSettings.hpp</text>
</a>
</g>
</g>
<!-- Node2&#45;&gt;Node3 -->
<g id="edge2" class="edge">
<title>Node2&#45;&gt;Node3</title>
<path fill="none" stroke="midnightblue" d="M605.08,-224.37C584.84,-205.81 536.95,-161.91 511.34,-138.44"/>
<polygon fill="midnightblue" stroke="midnightblue" points="513.61,-135.77 503.87,-131.59 508.88,-140.93 513.61,-135.77"/>
</g>
<!-- Node15 -->
<g id="node15" class="node">
<title>Node15</title>
<g id="a_node15"><a xlink:title=" ">
<polygon fill="none" stroke="#bfbfbf" points="576,-168.5 576,-187.5 653,-187.5 653,-168.5 576,-168.5"/>
<text text-anchor="middle" x="614.5" y="-175.5" font-family="JetBrains Mono" font-size="10.00">QEventLoop</text>
</a>
</g>
</g>
<!-- Node2&#45;&gt;Node15 -->
<g id="edge16" class="edge">
<title>Node2&#45;&gt;Node15</title>
<path fill="none" stroke="midnightblue" d="M614.5,-224.08C614.5,-217.01 614.5,-206.86 614.5,-197.99"/>
<polygon fill="midnightblue" stroke="midnightblue" points="618,-197.75 614.5,-187.75 611,-197.75 618,-197.75"/>
</g>
<!-- Node16 -->
<g id="node16" class="node">
<title>Node16</title>
<g id="a_node16"><a xlink:href="_interfaces_8hpp.html" target="_top" xlink:title=" ">
<polygon fill="none" stroke="black" points="680,-168.5 680,-187.5 781,-187.5 781,-168.5 680,-168.5"/>
<text text-anchor="middle" x="730.5" y="-175.5" font-family="JetBrains Mono" font-size="10.00">Interfaces.hpp</text>
</a>
</g>
</g>
<!-- Node2&#45;&gt;Node16 -->
<g id="edge17" class="edge">
<title>Node2&#45;&gt;Node16</title>
<path fill="none" stroke="midnightblue" d="M632.88,-224.44C651.72,-215.68 681.23,-201.94 702.88,-191.86"/>
<polygon fill="midnightblue" stroke="midnightblue" points="704.62,-194.91 712.21,-187.52 701.66,-188.56 704.62,-194.91"/>
</g>
<!-- Node4 -->
<g id="node4" class="node">
<title>Node4</title>
<g id="a_node4"><a xlink:title=" ">
<polygon fill="none" stroke="#bfbfbf" points="298,-56.5 298,-75.5 381,-75.5 381,-56.5 298,-56.5"/>
<text text-anchor="middle" x="339.5" y="-63.5" font-family="JetBrains Mono" font-size="10.00">QSerialPort</text>
</a>
</g>
</g>
<!-- Node3&#45;&gt;Node4 -->
<g id="edge3" class="edge">
<title>Node3&#45;&gt;Node4</title>
<path fill="none" stroke="midnightblue" d="M469.94,-112.44C443.98,-103.4 402.83,-89.06 373.7,-78.92"/>
<polygon fill="midnightblue" stroke="midnightblue" points="374.54,-75.5 363.95,-75.52 372.24,-82.11 374.54,-75.5"/>
</g>
<!-- Node5 -->
<g id="node5" class="node">
<title>Node5</title>
<g id="a_node5"><a xlink:title=" ">
<polygon fill="none" stroke="#bfbfbf" points="924,-56.5 924,-75.5 971,-75.5 971,-56.5 924,-56.5"/>
<text text-anchor="middle" x="947.5" y="-63.5" font-family="JetBrains Mono" font-size="10.00">QList</text>
</a>
</g>
</g>
<!-- Node3&#45;&gt;Node5 -->
<g id="edge4" class="edge">
<title>Node3&#45;&gt;Node5</title>
<path fill="none" stroke="midnightblue" d="M551.3,-117.8C630.44,-112.7 778.42,-100.87 913.68,-75.85"/>
<polygon fill="midnightblue" stroke="midnightblue" points="914.63,-79.23 923.81,-73.95 913.34,-72.35 914.63,-79.23"/>
</g>
<!-- Node6 -->
<g id="node6" class="node">
<title>Node6</title>
<g id="a_node6"><a xlink:title=" ">
<polygon fill="none" stroke="#bfbfbf" points="164,-56.5 164,-75.5 241,-75.5 241,-56.5 164,-56.5"/>
<text text-anchor="middle" x="202.5" y="-63.5" font-family="JetBrains Mono" font-size="10.00">functional</text>
</a>
</g>
</g>
<!-- Node3&#45;&gt;Node6 -->
<g id="edge5" class="edge">
<title>Node3&#45;&gt;Node6</title>
<path fill="none" stroke="midnightblue" d="M448.23,-112.44C394.45,-102.5 306.08,-86.15 251.26,-76.02"/>
<polygon fill="midnightblue" stroke="midnightblue" points="251.56,-72.51 241.09,-74.14 250.29,-79.4 251.56,-72.51"/>
</g>
<!-- Node7 -->
<g id="node7" class="node">
<title>Node7</title>
<g id="a_node7"><a xlink:title=" ">
<polygon fill="none" stroke="#bfbfbf" points="805,-56.5 805,-75.5 906,-75.5 906,-56.5 805,-56.5"/>
<text text-anchor="middle" x="855.5" y="-63.5" font-family="JetBrains Mono" font-size="10.00">QSharedPointer</text>
</a>
</g>
</g>
<!-- Node3&#45;&gt;Node7 -->
<g id="edge6" class="edge">
<title>Node3&#45;&gt;Node7</title>
<path fill="none" stroke="midnightblue" d="M551.09,-112.55C609.46,-103.83 703.43,-89.79 794.79,-76.11"/>
<polygon fill="midnightblue" stroke="midnightblue" points="795.39,-79.56 804.76,-74.61 794.35,-72.63 795.39,-79.56"/>
</g>
<!-- Node8 -->
<g id="node8" class="node">
<title>Node8</title>
<g id="a_node8"><a xlink:title=" ">
<polygon fill="none" stroke="#bfbfbf" points="262,-0.5 262,-19.5 303,-19.5 303,-0.5 262,-0.5"/>
<text text-anchor="middle" x="282.5" y="-7.5" font-family="JetBrains Mono" font-size="10.00">QMap</text>
</a>
</g>
</g>
<!-- Node3&#45;&gt;Node8 -->
<g id="edge7" class="edge">
<title>Node3&#45;&gt;Node8</title>
<path fill="none" stroke="midnightblue" d="M437.71,-117.52C345.81,-111.3 172.85,-96.93 154.5,-76 124.03,-41.23 204.9,-22.73 251.77,-15.17"/>
<polygon fill="midnightblue" stroke="midnightblue" points="252.4,-18.61 261.76,-13.64 251.34,-11.69 252.4,-18.61"/>
</g>
<!-- Node9 -->
<g id="node9" class="node">
<title>Node9</title>
<g id="a_node9"><a xlink:title=" ">
<polygon fill="none" stroke="#bfbfbf" points="0,-56.5 0,-75.5 107,-75.5 107,-56.5 0,-56.5"/>
<text text-anchor="middle" x="53.5" y="-63.5" font-family="JetBrains Mono" font-size="10.00">QSerialPortInfo</text>
</a>
</g>
</g>
<!-- Node3&#45;&gt;Node9 -->
<g id="edge8" class="edge">
<title>Node3&#45;&gt;Node9</title>
<path fill="none" stroke="midnightblue" d="M437.92,-114.38C364.81,-105.78 233.61,-90.18 121.5,-76 120.2,-75.84 118.89,-75.67 117.57,-75.5"/>
<polygon fill="midnightblue" stroke="midnightblue" points="117.68,-71.99 107.31,-74.18 116.79,-78.93 117.68,-71.99"/>
</g>
<!-- Node10 -->
<g id="node10" class="node">
<title>Node10</title>
<g id="a_node10"><a xlink:title=" ">
<polygon fill="none" stroke="#bfbfbf" points="355,-0.5 355,-19.5 408,-19.5 408,-0.5 355,-0.5"/>
<text text-anchor="middle" x="381.5" y="-7.5" font-family="JetBrains Mono" font-size="10.00">QMutex</text>
</a>
</g>
</g>
<!-- Node3&#45;&gt;Node10 -->
<g id="edge9" class="edge">
<title>Node3&#45;&gt;Node10</title>
<path fill="none" stroke="midnightblue" d="M437.83,-116.46C383.46,-110.8 306.95,-98.92 288.5,-76 268.49,-51.14 311.05,-31.71 345,-20.8"/>
<polygon fill="midnightblue" stroke="midnightblue" points="346.2,-24.09 354.74,-17.82 344.15,-17.4 346.2,-24.09"/>
</g>
<!-- Node11 -->
<g id="node11" class="node">
<title>Node11</title>
<g id="a_node11"><a xlink:href="_program_object_8hpp.html" target="_top" xlink:title=" ">
<polygon fill="none" stroke="black" points="608,-56.5 608,-75.5 787,-75.5 787,-56.5 608,-56.5"/>
<text text-anchor="middle" x="697.5" y="-63.5" font-family="JetBrains Mono" font-size="10.00">../global/ProgramObject.hpp</text>
</a>
</g>
</g>
<!-- Node3&#45;&gt;Node11 -->
<g id="edge10" class="edge">
<title>Node3&#45;&gt;Node11</title>
<path fill="none" stroke="midnightblue" d="M526.67,-112.44C561.56,-103.16 617.39,-88.31 655.67,-78.13"/>
<polygon fill="midnightblue" stroke="midnightblue" points="656.72,-81.47 665.48,-75.52 654.92,-74.7 656.72,-81.47"/>
</g>
<!-- Node14 -->
<g id="node14" class="node">
<title>Node14</title>
<g id="a_node14"><a xlink:href="_static_generator_8hpp.html" target="_top" xlink:title=" ">
<polygon fill="none" stroke="black" points="399,-56.5 399,-75.5 590,-75.5 590,-56.5 399,-56.5"/>
<text text-anchor="middle" x="494.5" y="-63.5" font-family="JetBrains Mono" font-size="10.00">../global/StaticGenerator.hpp</text>
</a>
</g>
</g>
<!-- Node3&#45;&gt;Node14 -->
<g id="edge13" class="edge">
<title>Node3&#45;&gt;Node14</title>
<path fill="none" stroke="midnightblue" d="M494.5,-112.08C494.5,-105.01 494.5,-94.86 494.5,-85.99"/>
<polygon fill="midnightblue" stroke="midnightblue" points="498,-85.75 494.5,-75.75 491,-85.75 498,-85.75"/>
</g>
<!-- Node12 -->
<g id="node12" class="node">
<title>Node12</title>
<g id="a_node12"><a xlink:title=" ">
<polygon fill="none" stroke="#bfbfbf" points="835,-0.5 835,-19.5 894,-19.5 894,-0.5 835,-0.5"/>
<text text-anchor="middle" x="864.5" y="-7.5" font-family="JetBrains Mono" font-size="10.00">QString</text>
</a>
</g>
</g>
<!-- Node11&#45;&gt;Node12 -->
<g id="edge11" class="edge">
<title>Node11&#45;&gt;Node12</title>
<path fill="none" stroke="midnightblue" d="M723.96,-56.44C752.18,-47.32 797.04,-32.81 828.47,-22.65"/>
<polygon fill="midnightblue" stroke="midnightblue" points="829.72,-25.92 838.16,-19.52 827.57,-19.26 829.72,-25.92"/>
</g>
<!-- Node13 -->
<g id="node13" class="node">
<title>Node13</title>
<g id="a_node13"><a xlink:title=" ">
<polygon fill="none" stroke="#bfbfbf" points="1079,-0.5 1079,-19.5 1138,-19.5 1138,-0.5 1079,-0.5"/>
<text text-anchor="middle" x="1108.5" y="-7.5" font-family="JetBrains Mono" font-size="10.00">QObject</text>
</a>
</g>
</g>
<!-- Node11&#45;&gt;Node13 -->
<g id="edge12" class="edge">
<title>Node11&#45;&gt;Node13</title>
<path fill="none" stroke="midnightblue" d="M762.62,-56.44C848.53,-45.16 997.12,-25.63 1068.27,-16.29"/>
<polygon fill="midnightblue" stroke="midnightblue" points="1069.13,-19.7 1078.59,-14.93 1068.22,-12.76 1069.13,-19.7"/>
</g>
<!-- Node14&#45;&gt;Node8 -->
<g id="edge15" class="edge">
<title>Node14&#45;&gt;Node8</title>
<path fill="none" stroke="midnightblue" d="M460.91,-56.44C420.18,-46.07 352.14,-28.74 312.9,-18.74"/>
<polygon fill="midnightblue" stroke="midnightblue" points="313.67,-15.33 303.11,-16.25 311.94,-22.11 313.67,-15.33"/>
</g>
<!-- Node14&#45;&gt;Node10 -->
<g id="edge14" class="edge">
<title>Node14&#45;&gt;Node10</title>
<path fill="none" stroke="midnightblue" d="M476.59,-56.44C458.25,-47.68 429.49,-33.94 408.41,-23.86"/>
<polygon fill="midnightblue" stroke="midnightblue" points="409.85,-20.67 399.32,-19.52 406.83,-26.99 409.85,-20.67"/>
</g>
<!-- Node16&#45;&gt;Node3 -->
<g id="edge21" class="edge">
<title>Node16&#45;&gt;Node3</title>
<path fill="none" stroke="midnightblue" d="M693.11,-168.44C652.11,-159.06 586.25,-143.99 541.72,-133.8"/>
<polygon fill="midnightblue" stroke="midnightblue" points="542.25,-130.34 531.72,-131.52 540.69,-137.16 542.25,-130.34"/>
</g>
<!-- Node16&#45;&gt;Node4 -->
<g id="edge18" class="edge">
<title>Node16&#45;&gt;Node4</title>
<path fill="none" stroke="midnightblue" d="M711.1,-168.44C679.75,-154.89 615.77,-128.33 559.5,-112 528.57,-103.02 445.93,-86.89 391.21,-76.58"/>
<polygon fill="midnightblue" stroke="midnightblue" points="391.81,-73.13 381.33,-74.72 390.52,-80.01 391.81,-73.13"/>
</g>
<!-- Node16&#45;&gt;Node9 -->
<g id="edge19" class="edge">
<title>Node16&#45;&gt;Node9</title>
<path fill="none" stroke="midnightblue" d="M679.95,-169.84C619.92,-161.25 516.81,-146.23 428.5,-132 315.58,-113.8 183.9,-90.49 110.47,-77.31"/>
<polygon fill="midnightblue" stroke="midnightblue" points="110.97,-73.84 100.5,-75.52 109.73,-80.73 110.97,-73.84"/>
</g>
<!-- Node16&#45;&gt;Node13 -->
<g id="edge20" class="edge">
<title>Node16&#45;&gt;Node13</title>
<path fill="none" stroke="midnightblue" d="M781.06,-174.8C880.86,-169.95 1095.49,-156.72 1117.5,-132 1142.74,-103.65 1127.99,-55.27 1117.04,-29.1"/>
<polygon fill="midnightblue" stroke="midnightblue" points="1120.11,-27.37 1112.85,-19.65 1113.71,-30.21 1120.11,-27.37"/>
</g>
<!-- Node17 -->
<g id="node17" class="node">
<title>Node17</title>
<g id="a_node17"><a xlink:href="_parsed_data_types_8hpp.html" target="_top" xlink:title=" ">
<polygon fill="none" stroke="black" points="733,-112.5 733,-131.5 864,-131.5 864,-112.5 733,-112.5"/>
<text text-anchor="middle" x="798.5" y="-119.5" font-family="JetBrains Mono" font-size="10.00">ParsedDataTypes.hpp</text>
</a>
</g>
</g>
<!-- Node16&#45;&gt;Node17 -->
<g id="edge22" class="edge">
<title>Node16&#45;&gt;Node17</title>
<path fill="none" stroke="midnightblue" d="M741.43,-168.32C751.67,-160.18 767.22,-147.84 779.5,-138.09"/>
<polygon fill="midnightblue" stroke="midnightblue" points="781.72,-140.79 787.38,-131.83 777.37,-135.31 781.72,-140.79"/>
</g>
<!-- Node19 -->
<g id="node19" class="node">
<title>Node19</title>
<g id="a_node19"><a xlink:href="_converted_data_types_8hpp.html" target="_top" xlink:title=" ">
<polygon fill="none" stroke="black" points="882,-112.5 882,-131.5 1031,-131.5 1031,-112.5 882,-112.5"/>
<text text-anchor="middle" x="956.5" y="-119.5" font-family="JetBrains Mono" font-size="10.00">ConvertedDataTypes.hpp</text>
</a>
</g>
</g>
<!-- Node16&#45;&gt;Node19 -->
<g id="edge27" class="edge">
<title>Node16&#45;&gt;Node19</title>
<path fill="none" stroke="midnightblue" d="M766.31,-168.44C805.49,-159.08 868.38,-144.06 911.02,-133.87"/>
<polygon fill="midnightblue" stroke="midnightblue" points="911.94,-137.24 920.86,-131.52 910.32,-130.44 911.94,-137.24"/>
</g>
<!-- Node20 -->
<g id="node20" class="node">
<title>Node20</title>
<g id="a_node20"><a xlink:title=" ">
<polygon fill="none" stroke="#bfbfbf" points="1049,-112.5 1049,-131.5 1108,-131.5 1108,-112.5 1049,-112.5"/>
<text text-anchor="middle" x="1078.5" y="-119.5" font-family="JetBrains Mono" font-size="10.00">variant</text>
</a>
</g>
</g>
<!-- Node16&#45;&gt;Node20 -->
<g id="edge31" class="edge">
<title>Node16&#45;&gt;Node20</title>
<path fill="none" stroke="midnightblue" d="M781.2,-171.04C840.73,-163.73 942.63,-150.24 1038.8,-132.2"/>
<polygon fill="midnightblue" stroke="midnightblue" points="1039.51,-135.63 1048.68,-130.32 1038.21,-128.75 1039.51,-135.63"/>
</g>
<!-- Node17&#45;&gt;Node5 -->
<g id="edge23" class="edge">
<title>Node17&#45;&gt;Node5</title>
<path fill="none" stroke="midnightblue" d="M822.11,-112.44C846.96,-103.44 886.27,-89.19 914.25,-79.05"/>
<polygon fill="midnightblue" stroke="midnightblue" points="915.79,-82.21 924,-75.52 913.41,-75.63 915.79,-82.21"/>
</g>
<!-- Node17&#45;&gt;Node7 -->
<g id="edge24" class="edge">
<title>Node17&#45;&gt;Node7</title>
<path fill="none" stroke="midnightblue" d="M807.66,-112.32C816,-104.42 828.53,-92.55 838.68,-82.94"/>
<polygon fill="midnightblue" stroke="midnightblue" points="841.32,-85.25 846.18,-75.83 836.51,-80.17 841.32,-85.25"/>
</g>
<!-- Node17&#45;&gt;Node14 -->
<g id="edge26" class="edge">
<title>Node17&#45;&gt;Node14</title>
<path fill="none" stroke="midnightblue" d="M750.33,-112.44C696.63,-102.9 609.81,-87.48 552.45,-77.29"/>
<polygon fill="midnightblue" stroke="midnightblue" points="552.9,-73.82 542.44,-75.52 551.68,-80.71 552.9,-73.82"/>
</g>
<!-- Node18 -->
<g id="node18" class="node">
<title>Node18</title>
<g id="a_node18"><a xlink:title=" ">
<polygon fill="none" stroke="#bfbfbf" points="989,-56.5 989,-75.5 1042,-75.5 1042,-56.5 989,-56.5"/>
<text text-anchor="middle" x="1015.5" y="-63.5" font-family="JetBrains Mono" font-size="10.00">memory</text>
</a>
</g>
</g>
<!-- Node17&#45;&gt;Node18 -->
<g id="edge25" class="edge">
<title>Node17&#45;&gt;Node18</title>
<path fill="none" stroke="midnightblue" d="M833.41,-112.47C868.07,-103.98 922.95,-90.47 979.02,-76.36"/>
<polygon fill="midnightblue" stroke="midnightblue" points="979.91,-79.74 988.75,-73.9 978.2,-72.96 979.91,-79.74"/>
</g>
<!-- Node19&#45;&gt;Node5 -->
<g id="edge28" class="edge">
<title>Node19&#45;&gt;Node5</title>
<path fill="none" stroke="midnightblue" d="M955.01,-112.08C953.82,-104.93 952.11,-94.64 950.62,-85.69"/>
<polygon fill="midnightblue" stroke="midnightblue" points="954.05,-85.04 948.96,-75.75 947.15,-86.19 954.05,-85.04"/>
</g>
<!-- Node19&#45;&gt;Node12 -->
<g id="edge29" class="edge">
<title>Node19&#45;&gt;Node12</title>
<path fill="none" stroke="midnightblue" d="M990.14,-112.49C1025.15,-102.01 1072.22,-82.29 1051.5,-56 1033.51,-33.17 953.49,-20.58 904.14,-14.86"/>
<polygon fill="midnightblue" stroke="midnightblue" points="904.43,-11.37 894.1,-13.74 903.65,-18.33 904.43,-11.37"/>
</g>
<!-- Node19&#45;&gt;Node13 -->
<g id="edge30" class="edge">
<title>Node19&#45;&gt;Node13</title>
<path fill="none" stroke="midnightblue" d="M992.76,-112.49C1016.06,-105.63 1045.89,-94.08 1067.5,-76 1082.65,-63.33 1093.99,-43.57 1100.86,-29.16"/>
<polygon fill="midnightblue" stroke="midnightblue" points="1104.16,-30.35 1105.06,-19.79 1097.78,-27.49 1104.16,-30.35"/>
</g>
</g>
</svg>
