<?xml version="1.0" encoding="UTF-8" standalone="no"?>
<!DOCTYPE svg PUBLIC "-//W3C//DTD SVG 1.1//EN"
 "http://www.w3.org/Graphics/SVG/1.1/DTD/svg11.dtd">
<!-- Generated by graphviz version 2.48.0 (20210717.1556)
 -->
<!-- Title: modules/global/ProgramObject.hpp Pages: 1 -->
<svg width="217pt" height="84pt"
 viewBox="0.00 0.00 217.00 84.00" xmlns="http://www.w3.org/2000/svg" xmlns:xlink="http://www.w3.org/1999/xlink">
<g id="graph0" class="graph" transform="scale(1 1) rotate(0) translate(4 80)">
<title>modules/global/ProgramObject.hpp</title>
<!-- Node1 -->
<g id="node1" class="node">
<title>Node1</title>
<g id="a_node1"><a xlink:title=" ">
<polygon fill="#bfbfbf" stroke="black" points="0,-56.5 0,-75.5 209,-75.5 209,-56.5 0,-56.5"/>
<text text-anchor="middle" x="104.5" y="-63.5" font-family="JetBrains Mono" font-size="10.00">modules/global/ProgramObject.hpp</text>
</a>
</g>
</g>
<!-- Node2 -->
<g id="node2" class="node">
<title>Node2</title>
<g id="a_node2"><a xlink:title=" ">
<polygon fill="none" stroke="#bfbfbf" points="37,-0.5 37,-19.5 96,-19.5 96,-0.5 37,-0.5"/>
<text text-anchor="middle" x="66.5" y="-7.5" font-family="JetBrains Mono" font-size="10.00">QString</text>
</a>
</g>
</g>
<!-- Node1&#45;&gt;Node2 -->
<g id="edge1" class="edge">
<title>Node1&#45;&gt;Node2</title>
<path fill="none" stroke="midnightblue" d="M98.23,-56.08C92.86,-48.46 84.98,-37.26 78.42,-27.94"/>
<polygon fill="midnightblue" stroke="midnightblue" points="81.28,-25.91 72.66,-19.75 75.55,-29.94 81.28,-25.91"/>
</g>
<!-- Node3 -->
<g id="node3" class="node">
<title>Node3</title>
<g id="a_node3"><a xlink:title=" ">
<polygon fill="none" stroke="#bfbfbf" points="114,-0.5 114,-19.5 173,-19.5 173,-0.5 114,-0.5"/>
<text text-anchor="middle" x="143.5" y="-7.5" font-family="JetBrains Mono" font-size="10.00">QObject</text>
</a>
</g>
</g>
<!-- Node1&#45;&gt;Node3 -->
<g id="edge2" class="edge">
<title>Node1&#45;&gt;Node3</title>
<path fill="none" stroke="midnightblue" d="M110.94,-56.08C116.45,-48.46 124.53,-37.26 131.26,-27.94"/>
<polygon fill="midnightblue" stroke="midnightblue" points="134.16,-29.91 137.18,-19.75 128.49,-25.81 134.16,-29.91"/>
</g>
</g>
</svg>
