<?xml version="1.0" encoding="UTF-8" standalone="no"?>
<!DOCTYPE svg PUBLIC "-//W3C//DTD SVG 1.1//EN"
 "http://www.w3.org/Graphics/SVG/1.1/DTD/svg11.dtd">
<!-- Generated by graphviz version 2.48.0 (20210717.1556)
 -->
<!-- Title: modules/global/ProgramObject.hpp Pages: 1 -->
<svg width="1713pt" height="285pt"
 viewBox="0.00 0.00 1713.00 285.00" xmlns="http://www.w3.org/2000/svg" xmlns:xlink="http://www.w3.org/1999/xlink">
<g id="graph0" class="graph" transform="scale(1 1) rotate(0) translate(4 281)">
<title>modules/global/ProgramObject.hpp</title>
<!-- Node1 -->
<g id="node1" class="node">
<title>Node1</title>
<g id="a_node1"><a xlink:title=" ">
<polygon fill="#bfbfbf" stroke="black" points="572,-257.5 572,-276.5 781,-276.5 781,-257.5 572,-257.5"/>
<text text-anchor="middle" x="676.5" y="-264.5" font-family="JetBrains Mono" font-size="10.00">modules/global/ProgramObject.hpp</text>
</a>
</g>
</g>
<!-- Node2 -->
<g id="node2" class="node">
<title>Node2</title>
<g id="a_node2"><a xlink:href="_converter_8hpp.html" target="_top" xlink:title=" ">
<polygon fill="none" stroke="black" points="0,-67.5 0,-86.5 191,-86.5 191,-67.5 0,-67.5"/>
<text text-anchor="middle" x="95.5" y="-74.5" font-family="JetBrains Mono" font-size="10.00">modules/backend/Converter.hpp</text>
</a>
</g>
</g>
<!-- Node1&#45;&gt;Node2 -->
<g id="edge1" class="edge">
<title>Node1&#45;&gt;Node2</title>
<path fill="none" stroke="midnightblue" d="M638.15,-254.61C608.23,-245.66 565.64,-232.78 528.5,-221 373.04,-171.7 187.4,-109.15 120.81,-86.59"/>
<polygon fill="midnightblue" stroke="midnightblue" points="637.21,-257.98 647.79,-257.49 639.21,-251.28 637.21,-257.98"/>
</g>
<!-- Node4 -->
<g id="node4" class="node">
<title>Node4</title>
<g id="a_node4"><a xlink:href="_port_scanner_8hpp.html" target="_top" xlink:title=" ">
<polygon fill="none" stroke="black" points="209,-67.5 209,-86.5 412,-86.5 412,-67.5 209,-67.5"/>
<text text-anchor="middle" x="310.5" y="-74.5" font-family="JetBrains Mono" font-size="10.00">modules/backend/PortScanner.hpp</text>
</a>
</g>
</g>
<!-- Node1&#45;&gt;Node4 -->
<g id="edge3" class="edge">
<title>Node1&#45;&gt;Node4</title>
<path fill="none" stroke="midnightblue" d="M650.73,-252.76C580.24,-216.56 385.66,-116.61 327.28,-86.62"/>
<polygon fill="midnightblue" stroke="midnightblue" points="649.33,-255.98 659.82,-257.43 652.53,-249.75 649.33,-255.98"/>
</g>
<!-- Node6 -->
<g id="node6" class="node">
<title>Node6</title>
<g id="a_node6"><a xlink:href="_port_settings_8hpp.html" target="_top" xlink:title=" ">
<polygon fill="none" stroke="black" points="851,-196 851,-215 1060,-215 1060,-196 851,-196"/>
<text text-anchor="middle" x="955.5" y="-203" font-family="JetBrains Mono" font-size="10.00">modules/backend/PortSettings.hpp</text>
</a>
</g>
</g>
<!-- Node1&#45;&gt;Node6 -->
<g id="edge5" class="edge">
<title>Node1&#45;&gt;Node6</title>
<path fill="none" stroke="midnightblue" d="M726.53,-255.33C780.64,-243.79 865.81,-225.63 915.6,-215.01"/>
<polygon fill="midnightblue" stroke="midnightblue" points="725.52,-251.97 716.47,-257.48 726.98,-258.81 725.52,-251.97"/>
</g>
<!-- Node18 -->
<g id="node18" class="node">
<title>Node18</title>
<g id="a_node18"><a xlink:href="_program_object_8cpp.html" target="_top" xlink:title=" ">
<polygon fill="none" stroke="black" points="1078,-190.5 1078,-220.5 1245,-220.5 1245,-190.5 1078,-190.5"/>
<text text-anchor="start" x="1086" y="-208.5" font-family="JetBrains Mono" font-size="10.00">modules/global/program</text>
<text text-anchor="middle" x="1161.5" y="-197.5" font-family="JetBrains Mono" font-size="10.00">_object/ProgramObject.cpp</text>
</a>
</g>
</g>
<!-- Node1&#45;&gt;Node18 -->
<g id="edge26" class="edge">
<title>Node1&#45;&gt;Node18</title>
<path fill="none" stroke="midnightblue" d="M769.2,-256.42C848.72,-247.96 966.29,-234.83 1068.5,-221 1071.58,-220.58 1074.71,-220.15 1077.87,-219.7"/>
<polygon fill="midnightblue" stroke="midnightblue" points="768.79,-252.95 759.21,-257.49 769.53,-259.91 768.79,-252.95"/>
</g>
<!-- Node3 -->
<g id="node3" class="node">
<title>Node3</title>
<g id="a_node3"><a xlink:href="_converter_8cpp.html" target="_top" xlink:title=" ">
<polygon fill="none" stroke="black" points="12,-0.5 12,-30.5 179,-30.5 179,-0.5 12,-0.5"/>
<text text-anchor="start" x="20" y="-18.5" font-family="JetBrains Mono" font-size="10.00">modules/backend/converter</text>
<text text-anchor="middle" x="95.5" y="-7.5" font-family="JetBrains Mono" font-size="10.00">/Converter.cpp</text>
</a>
</g>
</g>
<!-- Node2&#45;&gt;Node3 -->
<g id="edge2" class="edge">
<title>Node2&#45;&gt;Node3</title>
<path fill="none" stroke="midnightblue" d="M95.5,-57.23C95.5,-48.59 95.5,-38.5 95.5,-30.52"/>
<polygon fill="midnightblue" stroke="midnightblue" points="92,-57.48 95.5,-67.48 99,-57.48 92,-57.48"/>
</g>
<!-- Node5 -->
<g id="node5" class="node">
<title>Node5</title>
<g id="a_node5"><a xlink:href="_port_scanner_8cpp.html" target="_top" xlink:title=" ">
<polygon fill="none" stroke="black" points="242,-0.5 242,-30.5 379,-30.5 379,-0.5 242,-0.5"/>
<text text-anchor="start" x="250" y="-18.5" font-family="JetBrains Mono" font-size="10.00">modules/backend/port</text>
<text text-anchor="middle" x="310.5" y="-7.5" font-family="JetBrains Mono" font-size="10.00">/PortScanner.cpp</text>
</a>
</g>
</g>
<!-- Node4&#45;&gt;Node5 -->
<g id="edge4" class="edge">
<title>Node4&#45;&gt;Node5</title>
<path fill="none" stroke="midnightblue" d="M310.5,-57.23C310.5,-48.59 310.5,-38.5 310.5,-30.52"/>
<polygon fill="midnightblue" stroke="midnightblue" points="307,-57.48 310.5,-67.48 314,-57.48 307,-57.48"/>
</g>
<!-- Node7 -->
<g id="node7" class="node">
<title>Node7</title>
<g id="a_node7"><a xlink:href="_interfaces_8hpp.html" target="_top" xlink:title=" ">
<polygon fill="none" stroke="black" points="643,-129 643,-148 840,-148 840,-129 643,-129"/>
<text text-anchor="middle" x="741.5" y="-136" font-family="JetBrains Mono" font-size="10.00">modules/backend/Interfaces.hpp</text>
</a>
</g>
</g>
<!-- Node6&#45;&gt;Node7 -->
<g id="edge6" class="edge">
<title>Node6&#45;&gt;Node7</title>
<path fill="none" stroke="midnightblue" d="M917.4,-192.93C875.03,-180.06 807.58,-159.57 769.69,-148.06"/>
<polygon fill="midnightblue" stroke="midnightblue" points="916.5,-196.31 927.08,-195.87 918.53,-189.61 916.5,-196.31"/>
</g>
<!-- Node10 -->
<g id="node10" class="node">
<title>Node10</title>
<g id="a_node10"><a xlink:href="_port_operator_8hpp.html" target="_top" xlink:title=" ">
<polygon fill="none" stroke="black" points="621,-67.5 621,-86.5 830,-86.5 830,-67.5 621,-67.5"/>
<text text-anchor="middle" x="725.5" y="-74.5" font-family="JetBrains Mono" font-size="10.00">modules/backend/PortOperator.hpp</text>
</a>
</g>
</g>
<!-- Node6&#45;&gt;Node10 -->
<g id="edge21" class="edge">
<title>Node6&#45;&gt;Node10</title>
<path fill="none" stroke="midnightblue" d="M938.46,-188.91C918.24,-171.05 882.91,-141.84 848.5,-123 818.88,-106.79 782.24,-94.24 756.68,-86.56"/>
<polygon fill="midnightblue" stroke="midnightblue" points="936.37,-191.74 946.16,-195.8 941.04,-186.52 936.37,-191.74"/>
</g>
<!-- Node12 -->
<g id="node12" class="node">
<title>Node12</title>
<g id="a_node12"><a xlink:href="_settings_bridge_8hpp.html" target="_top" xlink:title=" ">
<polygon fill="none" stroke="black" points="848,-67.5 848,-86.5 1063,-86.5 1063,-67.5 848,-67.5"/>
<text text-anchor="middle" x="955.5" y="-74.5" font-family="JetBrains Mono" font-size="10.00">modules/bridge/SettingsBridge.hpp</text>
</a>
</g>
</g>
<!-- Node6&#45;&gt;Node12 -->
<g id="edge23" class="edge">
<title>Node6&#45;&gt;Node12</title>
<path fill="none" stroke="midnightblue" d="M955.5,-185.44C955.5,-157.62 955.5,-107.04 955.5,-86.76"/>
<polygon fill="midnightblue" stroke="midnightblue" points="952,-185.81 955.5,-195.81 959,-185.81 952,-185.81"/>
</g>
<!-- Node13 -->
<g id="node13" class="node">
<title>Node13</title>
<g id="a_node13"><a xlink:href="_bridge_8hpp.html" target="_top" xlink:title=" ">
<polygon fill="none" stroke="black" points="1217,-6 1217,-25 1384,-25 1384,-6 1217,-6"/>
<text text-anchor="middle" x="1300.5" y="-13" font-family="JetBrains Mono" font-size="10.00">modules/bridge/Bridge.hpp</text>
</a>
</g>
</g>
<!-- Node6&#45;&gt;Node13 -->
<g id="edge22" class="edge">
<title>Node6&#45;&gt;Node13</title>
<path fill="none" stroke="midnightblue" d="M1028.2,-194.53C1173.52,-173.88 1488.63,-125.16 1519.5,-87 1560.14,-36.78 1461.99,-21.87 1384.22,-17.71"/>
<polygon fill="midnightblue" stroke="midnightblue" points="1027.45,-191.1 1018.04,-195.97 1028.43,-198.03 1027.45,-191.1"/>
</g>
<!-- Node15 -->
<g id="node15" class="node">
<title>Node15</title>
<g id="a_node15"><a xlink:href="_terminal_bridge_8hpp.html" target="_top" xlink:title=" ">
<polygon fill="none" stroke="black" points="1081,-67.5 1081,-86.5 1296,-86.5 1296,-67.5 1081,-67.5"/>
<text text-anchor="middle" x="1188.5" y="-74.5" font-family="JetBrains Mono" font-size="10.00">modules/bridge/TerminalBridge.hpp</text>
</a>
</g>
</g>
<!-- Node6&#45;&gt;Node15 -->
<g id="edge24" class="edge">
<title>Node6&#45;&gt;Node15</title>
<path fill="none" stroke="midnightblue" d="M980.34,-191.01C1028.4,-164.92 1132.89,-108.19 1172.68,-86.59"/>
<polygon fill="midnightblue" stroke="midnightblue" points="978.63,-187.96 971.52,-195.81 981.97,-194.11 978.63,-187.96"/>
</g>
<!-- Node16 -->
<g id="node16" class="node">
<title>Node16</title>
<g id="a_node16"><a xlink:href="_tests_bridge_8hpp.html" target="_top" xlink:title=" ">
<polygon fill="none" stroke="black" points="1314,-67.5 1314,-86.5 1511,-86.5 1511,-67.5 1314,-67.5"/>
<text text-anchor="middle" x="1412.5" y="-74.5" font-family="JetBrains Mono" font-size="10.00">modules/bridge/TestsBridge.hpp</text>
</a>
</g>
</g>
<!-- Node6&#45;&gt;Node16 -->
<g id="edge25" class="edge">
<title>Node6&#45;&gt;Node16</title>
<path fill="none" stroke="midnightblue" d="M996.43,-193.17C1086.78,-168.16 1301.62,-108.69 1381.71,-86.52"/>
<polygon fill="midnightblue" stroke="midnightblue" points="995.26,-189.86 986.55,-195.9 997.12,-196.61 995.26,-189.86"/>
</g>
<!-- Node17 -->
<g id="node17" class="node">
<title>Node17</title>
<g id="a_node17"><a xlink:href="_port_settings_8cpp.html" target="_top" xlink:title=" ">
<polygon fill="none" stroke="black" points="1568,-123.5 1568,-153.5 1705,-153.5 1705,-123.5 1568,-123.5"/>
<text text-anchor="start" x="1576" y="-141.5" font-family="JetBrains Mono" font-size="10.00">modules/backend/port</text>
<text text-anchor="middle" x="1636.5" y="-130.5" font-family="JetBrains Mono" font-size="10.00">/PortSettings.cpp</text>
</a>
</g>
</g>
<!-- Node6&#45;&gt;Node17 -->
<g id="edge20" class="edge">
<title>Node6&#45;&gt;Node17</title>
<path fill="none" stroke="midnightblue" d="M1027.33,-194.7C1040.98,-193 1055.17,-191.35 1068.5,-190 1283.55,-168.24 1339,-180.63 1553.5,-154 1558.15,-153.42 1562.93,-152.76 1567.74,-152.05"/>
<polygon fill="midnightblue" stroke="midnightblue" points="1026.49,-191.27 1017.01,-196 1027.37,-198.22 1026.49,-191.27"/>
</g>
<!-- Node7&#45;&gt;Node2 -->
<g id="edge7" class="edge">
<title>Node7&#45;&gt;Node2</title>
<path fill="none" stroke="midnightblue" d="M638.67,-128.03C514.42,-116.58 307.25,-97.5 187.88,-86.51"/>
<polygon fill="midnightblue" stroke="midnightblue" points="638.67,-131.54 648.94,-128.98 639.31,-124.57 638.67,-131.54"/>
</g>
<!-- Node7&#45;&gt;Node4 -->
<g id="edge12" class="edge">
<title>Node7&#45;&gt;Node4</title>
<path fill="none" stroke="midnightblue" d="M669.62,-127.58C586.4,-116.09 450.73,-97.36 372.14,-86.51"/>
<polygon fill="midnightblue" stroke="midnightblue" points="669.36,-131.07 679.75,-128.98 670.32,-124.14 669.36,-131.07"/>
</g>
<!-- Node8 -->
<g id="node8" class="node">
<title>Node8</title>
<g id="a_node8"><a xlink:href="_parser_8hpp.html" target="_top" xlink:title=" ">
<polygon fill="none" stroke="black" points="430,-67.5 430,-86.5 603,-86.5 603,-67.5 430,-67.5"/>
<text text-anchor="middle" x="516.5" y="-74.5" font-family="JetBrains Mono" font-size="10.00">modules/backend/Parser.hpp</text>
</a>
</g>
</g>
<!-- Node7&#45;&gt;Node8 -->
<g id="edge8" class="edge">
<title>Node7&#45;&gt;Node8</title>
<path fill="none" stroke="midnightblue" d="M699.51,-126.4C655.81,-114.84 588.33,-97 548.68,-86.51"/>
<polygon fill="midnightblue" stroke="midnightblue" points="698.7,-129.8 709.26,-128.98 700.49,-123.03 698.7,-129.8"/>
</g>
<!-- Node7&#45;&gt;Node10 -->
<g id="edge10" class="edge">
<title>Node7&#45;&gt;Node10</title>
<path fill="none" stroke="midnightblue" d="M736.57,-119.16C733.64,-108.27 730.07,-94.99 727.79,-86.51"/>
<polygon fill="midnightblue" stroke="midnightblue" points="733.23,-120.23 739.21,-128.98 739.99,-118.41 733.23,-120.23"/>
</g>
<!-- Node7&#45;&gt;Node12 -->
<g id="edge13" class="edge">
<title>Node7&#45;&gt;Node12</title>
<path fill="none" stroke="midnightblue" d="M781.96,-126.25C823.54,-114.69 887.34,-96.95 924.9,-86.51"/>
<polygon fill="midnightblue" stroke="midnightblue" points="780.86,-122.92 772.16,-128.98 782.73,-129.67 780.86,-122.92"/>
</g>
<!-- Node7&#45;&gt;Node15 -->
<g id="edge16" class="edge">
<title>Node7&#45;&gt;Node15</title>
<path fill="none" stroke="midnightblue" d="M815.53,-127.65C901.79,-116.16 1042.89,-97.38 1124.57,-86.51"/>
<polygon fill="midnightblue" stroke="midnightblue" points="814.99,-124.19 805.54,-128.98 815.92,-131.12 814.99,-124.19"/>
</g>
<!-- Node7&#45;&gt;Node16 -->
<g id="edge18" class="edge">
<title>Node7&#45;&gt;Node16</title>
<path fill="none" stroke="midnightblue" d="M847.93,-128.06C976.93,-116.62 1192.43,-97.51 1316.54,-86.51"/>
<polygon fill="midnightblue" stroke="midnightblue" points="847.29,-124.61 837.64,-128.98 847.91,-131.58 847.29,-124.61"/>
</g>
<!-- Node9 -->
<g id="node9" class="node">
<title>Node9</title>
<g id="a_node9"><a xlink:href="_parser_8cpp.html" target="_top" xlink:title=" ">
<polygon fill="none" stroke="black" points="442,-0.5 442,-30.5 591,-30.5 591,-0.5 442,-0.5"/>
<text text-anchor="start" x="450" y="-18.5" font-family="JetBrains Mono" font-size="10.00">modules/backend/parser</text>
<text text-anchor="middle" x="516.5" y="-7.5" font-family="JetBrains Mono" font-size="10.00">/Parser.cpp</text>
</a>
</g>
</g>
<!-- Node8&#45;&gt;Node9 -->
<g id="edge9" class="edge">
<title>Node8&#45;&gt;Node9</title>
<path fill="none" stroke="midnightblue" d="M516.5,-57.23C516.5,-48.59 516.5,-38.5 516.5,-30.52"/>
<polygon fill="midnightblue" stroke="midnightblue" points="513,-57.48 516.5,-67.48 520,-57.48 513,-57.48"/>
</g>
<!-- Node11 -->
<g id="node11" class="node">
<title>Node11</title>
<g id="a_node11"><a xlink:href="_port_operator_8cpp.html" target="_top" xlink:title=" ">
<polygon fill="none" stroke="black" points="657,-0.5 657,-30.5 794,-30.5 794,-0.5 657,-0.5"/>
<text text-anchor="start" x="665" y="-18.5" font-family="JetBrains Mono" font-size="10.00">modules/backend/port</text>
<text text-anchor="middle" x="725.5" y="-7.5" font-family="JetBrains Mono" font-size="10.00">/PortOperator.cpp</text>
</a>
</g>
</g>
<!-- Node10&#45;&gt;Node11 -->
<g id="edge11" class="edge">
<title>Node10&#45;&gt;Node11</title>
<path fill="none" stroke="midnightblue" d="M725.5,-57.23C725.5,-48.59 725.5,-38.5 725.5,-30.52"/>
<polygon fill="midnightblue" stroke="midnightblue" points="722,-57.48 725.5,-67.48 729,-57.48 722,-57.48"/>
</g>
<!-- Node12&#45;&gt;Node13 -->
<g id="edge14" class="edge">
<title>Node12&#45;&gt;Node13</title>
<path fill="none" stroke="midnightblue" d="M1014.88,-65.76C1081.64,-54.25 1188.82,-35.76 1251.16,-25.01"/>
<polygon fill="midnightblue" stroke="midnightblue" points="1014.19,-62.33 1004.93,-67.48 1015.38,-69.22 1014.19,-62.33"/>
</g>
<!-- Node14 -->
<g id="node14" class="node">
<title>Node14</title>
<g id="a_node14"><a xlink:href="_settings_bridge_8cpp.html" target="_top" xlink:title=" ">
<polygon fill="none" stroke="black" points="848,-6 848,-25 1063,-25 1063,-6 848,-6"/>
<text text-anchor="middle" x="955.5" y="-13" font-family="JetBrains Mono" font-size="10.00">modules/bridge/SettingsBridge.cpp</text>
</a>
</g>
</g>
<!-- Node12&#45;&gt;Node14 -->
<g id="edge15" class="edge">
<title>Node12&#45;&gt;Node14</title>
<path fill="none" stroke="midnightblue" d="M955.5,-57.32C955.5,-46.5 955.5,-33.4 955.5,-25.01"/>
<polygon fill="midnightblue" stroke="midnightblue" points="952,-57.48 955.5,-67.48 959,-57.48 952,-57.48"/>
</g>
<!-- Node15&#45;&gt;Node13 -->
<g id="edge17" class="edge">
<title>Node15&#45;&gt;Node13</title>
<path fill="none" stroke="midnightblue" d="M1213.51,-62.71C1235.2,-51.19 1265.95,-34.86 1284.48,-25.01"/>
<polygon fill="midnightblue" stroke="midnightblue" points="1211.74,-59.69 1204.55,-67.48 1215.02,-65.87 1211.74,-59.69"/>
</g>
<!-- Node16&#45;&gt;Node13 -->
<g id="edge19" class="edge">
<title>Node16&#45;&gt;Node13</title>
<path fill="none" stroke="midnightblue" d="M1387.49,-62.71C1365.8,-51.19 1335.05,-34.86 1316.52,-25.01"/>
<polygon fill="midnightblue" stroke="midnightblue" points="1385.98,-65.87 1396.45,-67.48 1389.26,-59.69 1385.98,-65.87"/>
</g>
</g>
</svg>
