<?xml version="1.0" encoding="UTF-8" standalone="no"?>
<!DOCTYPE svg PUBLIC "-//W3C//DTD SVG 1.1//EN"
 "http://www.w3.org/Graphics/SVG/1.1/DTD/svg11.dtd">
<!-- Generated by graphviz version 2.48.0 (20210717.1556)
 -->
<!-- Title: modules/global/program_object/ProgramObject.cpp Pages: 1 -->
<svg width="222pt" height="151pt"
 viewBox="0.00 0.00 222.00 151.00" xmlns="http://www.w3.org/2000/svg" xmlns:xlink="http://www.w3.org/1999/xlink">
<g id="graph0" class="graph" transform="scale(1 1) rotate(0) translate(4 147)">
<title>modules/global/program_object/ProgramObject.cpp</title>
<!-- Node1 -->
<g id="node1" class="node">
<title>Node1</title>
<g id="a_node1"><a xlink:title=" ">
<polygon fill="#bfbfbf" stroke="black" points="43,-112.5 43,-142.5 210,-142.5 210,-112.5 43,-112.5"/>
<text text-anchor="start" x="51" y="-130.5" font-family="JetBrains Mono" font-size="10.00">modules/global/program</text>
<text text-anchor="middle" x="126.5" y="-119.5" font-family="JetBrains Mono" font-size="10.00">_object/ProgramObject.cpp</text>
</a>
</g>
</g>
<!-- Node2 -->
<g id="node2" class="node">
<title>Node2</title>
<g id="a_node2"><a xlink:href="_program_object_8hpp.html" target="_top" xlink:title=" ">
<polygon fill="none" stroke="black" points="0,-56.5 0,-75.5 137,-75.5 137,-56.5 0,-56.5"/>
<text text-anchor="middle" x="68.5" y="-63.5" font-family="JetBrains Mono" font-size="10.00">../ProgramObject.hpp</text>
</a>
</g>
</g>
<!-- Node1&#45;&gt;Node2 -->
<g id="edge1" class="edge">
<title>Node1&#45;&gt;Node2</title>
<path fill="none" stroke="midnightblue" d="M112.75,-112.4C104.15,-103.58 93.05,-92.18 84.11,-83.02"/>
<polygon fill="midnightblue" stroke="midnightblue" points="86.43,-80.38 76.94,-75.66 81.41,-85.26 86.43,-80.38"/>
</g>
<!-- Node5 -->
<g id="node5" class="node">
<title>Node5</title>
<g id="a_node5"><a xlink:title=" ">
<polygon fill="none" stroke="#bfbfbf" points="155,-56.5 155,-75.5 214,-75.5 214,-56.5 155,-56.5"/>
<text text-anchor="middle" x="184.5" y="-63.5" font-family="JetBrains Mono" font-size="10.00">QtDebug</text>
</a>
</g>
</g>
<!-- Node1&#45;&gt;Node5 -->
<g id="edge4" class="edge">
<title>Node1&#45;&gt;Node5</title>
<path fill="none" stroke="midnightblue" d="M140.25,-112.4C148.85,-103.58 159.95,-92.18 168.89,-83.02"/>
<polygon fill="midnightblue" stroke="midnightblue" points="171.59,-85.26 176.06,-75.66 166.57,-80.38 171.59,-85.26"/>
</g>
<!-- Node3 -->
<g id="node3" class="node">
<title>Node3</title>
<g id="a_node3"><a xlink:title=" ">
<polygon fill="none" stroke="#bfbfbf" points="1,-0.5 1,-19.5 60,-19.5 60,-0.5 1,-0.5"/>
<text text-anchor="middle" x="30.5" y="-7.5" font-family="JetBrains Mono" font-size="10.00">QString</text>
</a>
</g>
</g>
<!-- Node2&#45;&gt;Node3 -->
<g id="edge2" class="edge">
<title>Node2&#45;&gt;Node3</title>
<path fill="none" stroke="midnightblue" d="M62.23,-56.08C56.86,-48.46 48.98,-37.26 42.42,-27.94"/>
<polygon fill="midnightblue" stroke="midnightblue" points="45.28,-25.91 36.66,-19.75 39.55,-29.94 45.28,-25.91"/>
</g>
<!-- Node4 -->
<g id="node4" class="node">
<title>Node4</title>
<g id="a_node4"><a xlink:title=" ">
<polygon fill="none" stroke="#bfbfbf" points="78,-0.5 78,-19.5 137,-19.5 137,-0.5 78,-0.5"/>
<text text-anchor="middle" x="107.5" y="-7.5" font-family="JetBrains Mono" font-size="10.00">QObject</text>
</a>
</g>
</g>
<!-- Node2&#45;&gt;Node4 -->
<g id="edge3" class="edge">
<title>Node2&#45;&gt;Node4</title>
<path fill="none" stroke="midnightblue" d="M74.94,-56.08C80.45,-48.46 88.53,-37.26 95.26,-27.94"/>
<polygon fill="midnightblue" stroke="midnightblue" points="98.16,-29.91 101.18,-19.75 92.49,-25.81 98.16,-29.91"/>
</g>
</g>
</svg>
