<?xml version="1.0" encoding="UTF-8" standalone="no"?>
<!DOCTYPE svg PUBLIC "-//W3C//DTD SVG 1.1//EN"
 "http://www.w3.org/Graphics/SVG/1.1/DTD/svg11.dtd">
<!-- Generated by graphviz version 2.48.0 (20210717.1556)
 -->
<!-- Title: modules/global/StaticGenerator.hpp Pages: 1 -->
<svg width="229pt" height="84pt"
 viewBox="0.00 0.00 229.00 84.00" xmlns="http://www.w3.org/2000/svg" xmlns:xlink="http://www.w3.org/1999/xlink">
<g id="graph0" class="graph" transform="scale(1 1) rotate(0) translate(4 80)">
<title>modules/global/StaticGenerator.hpp</title>
<!-- Node1 -->
<g id="node1" class="node">
<title>Node1</title>
<g id="a_node1"><a xlink:title=" ">
<polygon fill="#bfbfbf" stroke="black" points="0,-56.5 0,-75.5 221,-75.5 221,-56.5 0,-56.5"/>
<text text-anchor="middle" x="110.5" y="-63.5" font-family="JetBrains Mono" font-size="10.00">modules/global/StaticGenerator.hpp</text>
</a>
</g>
</g>
<!-- Node2 -->
<g id="node2" class="node">
<title>Node2</title>
<g id="a_node2"><a xlink:title=" ">
<polygon fill="none" stroke="#bfbfbf" points="52,-0.5 52,-19.5 105,-19.5 105,-0.5 52,-0.5"/>
<text text-anchor="middle" x="78.5" y="-7.5" font-family="JetBrains Mono" font-size="10.00">QMutex</text>
</a>
</g>
</g>
<!-- Node1&#45;&gt;Node2 -->
<g id="edge1" class="edge">
<title>Node1&#45;&gt;Node2</title>
<path fill="none" stroke="midnightblue" d="M105.22,-56.08C100.79,-48.61 94.34,-37.72 88.88,-28.52"/>
<polygon fill="midnightblue" stroke="midnightblue" points="91.79,-26.57 83.69,-19.75 85.77,-30.14 91.79,-26.57"/>
</g>
<!-- Node3 -->
<g id="node3" class="node">
<title>Node3</title>
<g id="a_node3"><a xlink:title=" ">
<polygon fill="none" stroke="#bfbfbf" points="123,-0.5 123,-19.5 164,-19.5 164,-0.5 123,-0.5"/>
<text text-anchor="middle" x="143.5" y="-7.5" font-family="JetBrains Mono" font-size="10.00">QMap</text>
</a>
</g>
</g>
<!-- Node1&#45;&gt;Node3 -->
<g id="edge2" class="edge">
<title>Node1&#45;&gt;Node3</title>
<path fill="none" stroke="midnightblue" d="M115.95,-56.08C120.51,-48.61 127.17,-37.72 132.79,-28.52"/>
<polygon fill="midnightblue" stroke="midnightblue" points="135.92,-30.11 138.15,-19.75 129.95,-26.46 135.92,-30.11"/>
</g>
</g>
</svg>
