<?xml version="1.0" encoding="UTF-8" standalone="no"?>
<!DOCTYPE svg PUBLIC "-//W3C//DTD SVG 1.1//EN"
 "http://www.w3.org/Graphics/SVG/1.1/DTD/svg11.dtd">
<!-- Generated by graphviz version 2.48.0 (20210717.1556)
 -->
<!-- Title: modules/global/StaticGenerator.hpp Pages: 1 -->
<svg width="1713pt" height="285pt"
 viewBox="0.00 0.00 1713.00 285.00" xmlns="http://www.w3.org/2000/svg" xmlns:xlink="http://www.w3.org/1999/xlink">
<g id="graph0" class="graph" transform="scale(1 1) rotate(0) translate(4 281)">
<title>modules/global/StaticGenerator.hpp</title>
<!-- Node1 -->
<g id="node1" class="node">
<title>Node1</title>
<g id="a_node1"><a xlink:title=" ">
<polygon fill="#bfbfbf" stroke="black" points="407,-257.5 407,-276.5 628,-276.5 628,-257.5 407,-257.5"/>
<text text-anchor="middle" x="517.5" y="-264.5" font-family="JetBrains Mono" font-size="10.00">modules/global/StaticGenerator.hpp</text>
</a>
</g>
</g>
<!-- Node2 -->
<g id="node2" class="node">
<title>Node2</title>
<g id="a_node2"><a xlink:href="_parsed_data_types_8hpp.html" target="_top" xlink:title=" ">
<polygon fill="none" stroke="black" points="431,-190.5 431,-220.5 604,-220.5 604,-190.5 431,-190.5"/>
<text text-anchor="start" x="439" y="-208.5" font-family="JetBrains Mono" font-size="10.00">modules/backend/ParsedData</text>
<text text-anchor="middle" x="517.5" y="-197.5" font-family="JetBrains Mono" font-size="10.00">Types.hpp</text>
</a>
</g>
</g>
<!-- Node1&#45;&gt;Node2 -->
<g id="edge1" class="edge">
<title>Node1&#45;&gt;Node2</title>
<path fill="none" stroke="midnightblue" d="M517.5,-247.23C517.5,-238.59 517.5,-228.5 517.5,-220.52"/>
<polygon fill="midnightblue" stroke="midnightblue" points="514,-247.48 517.5,-257.48 521,-247.48 514,-247.48"/>
</g>
<!-- Node6 -->
<g id="node6" class="node">
<title>Node6</title>
<g id="a_node6"><a xlink:href="_parser_8hpp.html" target="_top" xlink:title=" ">
<polygon fill="none" stroke="black" points="0,-67.5 0,-86.5 173,-86.5 173,-67.5 0,-67.5"/>
<text text-anchor="middle" x="86.5" y="-74.5" font-family="JetBrains Mono" font-size="10.00">modules/backend/Parser.hpp</text>
</a>
</g>
</g>
<!-- Node1&#45;&gt;Node6 -->
<g id="edge22" class="edge">
<title>Node1&#45;&gt;Node6</title>
<path fill="none" stroke="midnightblue" d="M486.65,-253.76C436.29,-233.66 333.41,-192.07 247.5,-154 194.94,-130.71 133.76,-101.14 104.24,-86.72"/>
<polygon fill="midnightblue" stroke="midnightblue" points="485.42,-257.04 496,-257.49 488.01,-250.53 485.42,-257.04"/>
</g>
<!-- Node18 -->
<g id="node18" class="node">
<title>Node18</title>
<g id="a_node18"><a xlink:href="_port_settings_8hpp.html" target="_top" xlink:title=" ">
<polygon fill="none" stroke="black" points="949,-196 949,-215 1158,-215 1158,-196 949,-196"/>
<text text-anchor="middle" x="1053.5" y="-203" font-family="JetBrains Mono" font-size="10.00">modules/backend/PortSettings.hpp</text>
</a>
</g>
</g>
<!-- Node1&#45;&gt;Node18 -->
<g id="edge23" class="edge">
<title>Node1&#45;&gt;Node18</title>
<path fill="none" stroke="midnightblue" d="M604.38,-256.36C707.64,-244.89 878.31,-225.95 976.85,-215.01"/>
<polygon fill="midnightblue" stroke="midnightblue" points="603.85,-252.89 594.3,-257.48 604.62,-259.85 603.85,-252.89"/>
</g>
<!-- Node3 -->
<g id="node3" class="node">
<title>Node3</title>
<g id="a_node3"><a xlink:href="_converter_8hpp.html" target="_top" xlink:title=" ">
<polygon fill="none" stroke="black" points="191,-67.5 191,-86.5 382,-86.5 382,-67.5 191,-67.5"/>
<text text-anchor="middle" x="286.5" y="-74.5" font-family="JetBrains Mono" font-size="10.00">modules/backend/Converter.hpp</text>
</a>
</g>
</g>
<!-- Node2&#45;&gt;Node3 -->
<g id="edge2" class="edge">
<title>Node2&#45;&gt;Node3</title>
<path fill="none" stroke="midnightblue" d="M482.92,-185.56C432.07,-157.72 339.2,-106.86 302.26,-86.63"/>
<polygon fill="midnightblue" stroke="midnightblue" points="481.44,-188.75 491.9,-190.48 484.81,-182.61 481.44,-188.75"/>
</g>
<!-- Node5 -->
<g id="node5" class="node">
<title>Node5</title>
<g id="a_node5"><a xlink:href="_interfaces_8hpp.html" target="_top" xlink:title=" ">
<polygon fill="none" stroke="black" points="627,-129 627,-148 824,-148 824,-129 627,-129"/>
<text text-anchor="middle" x="725.5" y="-136" font-family="JetBrains Mono" font-size="10.00">modules/backend/Interfaces.hpp</text>
</a>
</g>
</g>
<!-- Node2&#45;&gt;Node5 -->
<g id="edge4" class="edge">
<title>Node2&#45;&gt;Node5</title>
<path fill="none" stroke="midnightblue" d="M572.12,-187.43C612.69,-174.75 666.3,-158 698.21,-148.03"/>
<polygon fill="midnightblue" stroke="midnightblue" points="570.88,-184.15 562.38,-190.48 572.97,-190.83 570.88,-184.15"/>
</g>
<!-- Node2&#45;&gt;Node6 -->
<g id="edge20" class="edge">
<title>Node2&#45;&gt;Node6</title>
<path fill="none" stroke="midnightblue" d="M459.9,-187.59C366.67,-160.23 186.08,-107.23 115.64,-86.55"/>
<polygon fill="midnightblue" stroke="midnightblue" points="459.15,-191.02 469.73,-190.48 461.12,-184.3 459.15,-191.02"/>
</g>
<!-- Node16 -->
<g id="node16" class="node">
<title>Node16</title>
<g id="a_node16"><a xlink:href="_tests_bridge_8hpp.html" target="_top" xlink:title=" ">
<polygon fill="none" stroke="black" points="1081,-67.5 1081,-86.5 1278,-86.5 1278,-67.5 1081,-67.5"/>
<text text-anchor="middle" x="1179.5" y="-74.5" font-family="JetBrains Mono" font-size="10.00">modules/bridge/TestsBridge.hpp</text>
</a>
</g>
</g>
<!-- Node2&#45;&gt;Node16 -->
<g id="edge21" class="edge">
<title>Node2&#45;&gt;Node16</title>
<path fill="none" stroke="midnightblue" d="M614.53,-190.4C676.94,-180.97 759.69,-167.8 832.5,-154 946.72,-132.35 1080.87,-101.38 1143.67,-86.55"/>
<polygon fill="midnightblue" stroke="midnightblue" points="613.67,-186.99 604.3,-191.94 614.71,-193.91 613.67,-186.99"/>
</g>
<!-- Node17 -->
<g id="node17" class="node">
<title>Node17</title>
<g id="a_node17"><a xlink:href="_parsed_data_package_8cpp.html" target="_top" xlink:title=" ">
<polygon fill="none" stroke="black" points="443,-123.5 443,-153.5 592,-153.5 592,-123.5 443,-123.5"/>
<text text-anchor="start" x="451" y="-141.5" font-family="JetBrains Mono" font-size="10.00">modules/backend/parser</text>
<text text-anchor="middle" x="517.5" y="-130.5" font-family="JetBrains Mono" font-size="10.00">/ParsedDataPackage.cpp</text>
</a>
</g>
</g>
<!-- Node2&#45;&gt;Node17 -->
<g id="edge19" class="edge">
<title>Node2&#45;&gt;Node17</title>
<path fill="none" stroke="midnightblue" d="M517.5,-180.11C517.5,-171.15 517.5,-161.32 517.5,-153.58"/>
<polygon fill="midnightblue" stroke="midnightblue" points="514,-180.4 517.5,-190.4 521,-180.4 514,-180.4"/>
</g>
<!-- Node4 -->
<g id="node4" class="node">
<title>Node4</title>
<g id="a_node4"><a xlink:href="_converter_8cpp.html" target="_top" xlink:title=" ">
<polygon fill="none" stroke="black" points="203,-0.5 203,-30.5 370,-30.5 370,-0.5 203,-0.5"/>
<text text-anchor="start" x="211" y="-18.5" font-family="JetBrains Mono" font-size="10.00">modules/backend/converter</text>
<text text-anchor="middle" x="286.5" y="-7.5" font-family="JetBrains Mono" font-size="10.00">/Converter.cpp</text>
</a>
</g>
</g>
<!-- Node3&#45;&gt;Node4 -->
<g id="edge3" class="edge">
<title>Node3&#45;&gt;Node4</title>
<path fill="none" stroke="midnightblue" d="M286.5,-57.23C286.5,-48.59 286.5,-38.5 286.5,-30.52"/>
<polygon fill="midnightblue" stroke="midnightblue" points="283,-57.48 286.5,-67.48 290,-57.48 283,-57.48"/>
</g>
<!-- Node5&#45;&gt;Node3 -->
<g id="edge5" class="edge">
<title>Node5&#45;&gt;Node3</title>
<path fill="none" stroke="midnightblue" d="M652.54,-127.61C567.8,-116.13 429.42,-97.37 349.28,-86.51"/>
<polygon fill="midnightblue" stroke="midnightblue" points="652.22,-131.1 662.6,-128.98 653.16,-124.16 652.22,-131.1"/>
</g>
<!-- Node5&#45;&gt;Node6 -->
<g id="edge6" class="edge">
<title>Node5&#45;&gt;Node6</title>
<path fill="none" stroke="midnightblue" d="M645,-127.8C630.2,-126.12 614.89,-124.45 600.5,-123 414.54,-104.23 367.65,-103.81 181.5,-87 178.78,-86.75 176.01,-86.5 173.22,-86.25"/>
<polygon fill="midnightblue" stroke="midnightblue" points="644.8,-131.3 655.13,-128.97 645.6,-124.35 644.8,-131.3"/>
</g>
<!-- Node8 -->
<g id="node8" class="node">
<title>Node8</title>
<g id="a_node8"><a xlink:href="_port_operator_8hpp.html" target="_top" xlink:title=" ">
<polygon fill="none" stroke="black" points="621,-67.5 621,-86.5 830,-86.5 830,-67.5 621,-67.5"/>
<text text-anchor="middle" x="725.5" y="-74.5" font-family="JetBrains Mono" font-size="10.00">modules/backend/PortOperator.hpp</text>
</a>
</g>
</g>
<!-- Node5&#45;&gt;Node8 -->
<g id="edge8" class="edge">
<title>Node5&#45;&gt;Node8</title>
<path fill="none" stroke="midnightblue" d="M725.5,-118.82C725.5,-108 725.5,-94.9 725.5,-86.51"/>
<polygon fill="midnightblue" stroke="midnightblue" points="722,-118.98 725.5,-128.98 729,-118.98 722,-118.98"/>
</g>
<!-- Node10 -->
<g id="node10" class="node">
<title>Node10</title>
<g id="a_node10"><a xlink:href="_port_scanner_8hpp.html" target="_top" xlink:title=" ">
<polygon fill="none" stroke="black" points="400,-67.5 400,-86.5 603,-86.5 603,-67.5 400,-67.5"/>
<text text-anchor="middle" x="501.5" y="-74.5" font-family="JetBrains Mono" font-size="10.00">modules/backend/PortScanner.hpp</text>
</a>
</g>
</g>
<!-- Node5&#45;&gt;Node10 -->
<g id="edge10" class="edge">
<title>Node5&#45;&gt;Node10</title>
<path fill="none" stroke="midnightblue" d="M683.7,-126.4C640.19,-114.84 573.01,-97 533.53,-86.51"/>
<polygon fill="midnightblue" stroke="midnightblue" points="682.84,-129.79 693.41,-128.98 684.64,-123.03 682.84,-129.79"/>
</g>
<!-- Node12 -->
<g id="node12" class="node">
<title>Node12</title>
<g id="a_node12"><a xlink:href="_settings_bridge_8hpp.html" target="_top" xlink:title=" ">
<polygon fill="none" stroke="black" points="848,-67.5 848,-86.5 1063,-86.5 1063,-67.5 848,-67.5"/>
<text text-anchor="middle" x="955.5" y="-74.5" font-family="JetBrains Mono" font-size="10.00">modules/bridge/SettingsBridge.hpp</text>
</a>
</g>
</g>
<!-- Node5&#45;&gt;Node12 -->
<g id="edge12" class="edge">
<title>Node5&#45;&gt;Node12</title>
<path fill="none" stroke="midnightblue" d="M768.14,-126.47C812.8,-114.91 881.99,-97.02 922.61,-86.51"/>
<polygon fill="midnightblue" stroke="midnightblue" points="767.26,-123.08 758.45,-128.98 769.01,-129.86 767.26,-123.08"/>
</g>
<!-- Node15 -->
<g id="node15" class="node">
<title>Node15</title>
<g id="a_node15"><a xlink:href="_terminal_bridge_8hpp.html" target="_top" xlink:title=" ">
<polygon fill="none" stroke="black" points="1296,-67.5 1296,-86.5 1511,-86.5 1511,-67.5 1296,-67.5"/>
<text text-anchor="middle" x="1403.5" y="-74.5" font-family="JetBrains Mono" font-size="10.00">modules/bridge/TerminalBridge.hpp</text>
</a>
</g>
</g>
<!-- Node5&#45;&gt;Node15 -->
<g id="edge15" class="edge">
<title>Node5&#45;&gt;Node15</title>
<path fill="none" stroke="midnightblue" d="M832.64,-128.1C962.95,-116.66 1181.01,-97.53 1306.54,-86.51"/>
<polygon fill="midnightblue" stroke="midnightblue" points="832.3,-124.61 822.64,-128.98 832.91,-131.59 832.3,-124.61"/>
</g>
<!-- Node5&#45;&gt;Node16 -->
<g id="edge17" class="edge">
<title>Node5&#45;&gt;Node16</title>
<path fill="none" stroke="midnightblue" d="M800.68,-127.65C888.3,-116.16 1031.61,-97.38 1114.57,-86.51"/>
<polygon fill="midnightblue" stroke="midnightblue" points="800.01,-124.21 790.55,-128.98 800.92,-131.15 800.01,-124.21"/>
</g>
<!-- Node7 -->
<g id="node7" class="node">
<title>Node7</title>
<g id="a_node7"><a xlink:href="_parser_8cpp.html" target="_top" xlink:title=" ">
<polygon fill="none" stroke="black" points="12,-0.5 12,-30.5 161,-30.5 161,-0.5 12,-0.5"/>
<text text-anchor="start" x="20" y="-18.5" font-family="JetBrains Mono" font-size="10.00">modules/backend/parser</text>
<text text-anchor="middle" x="86.5" y="-7.5" font-family="JetBrains Mono" font-size="10.00">/Parser.cpp</text>
</a>
</g>
</g>
<!-- Node6&#45;&gt;Node7 -->
<g id="edge7" class="edge">
<title>Node6&#45;&gt;Node7</title>
<path fill="none" stroke="midnightblue" d="M86.5,-57.23C86.5,-48.59 86.5,-38.5 86.5,-30.52"/>
<polygon fill="midnightblue" stroke="midnightblue" points="83,-57.48 86.5,-67.48 90,-57.48 83,-57.48"/>
</g>
<!-- Node9 -->
<g id="node9" class="node">
<title>Node9</title>
<g id="a_node9"><a xlink:href="_port_operator_8cpp.html" target="_top" xlink:title=" ">
<polygon fill="none" stroke="black" points="657,-0.5 657,-30.5 794,-30.5 794,-0.5 657,-0.5"/>
<text text-anchor="start" x="665" y="-18.5" font-family="JetBrains Mono" font-size="10.00">modules/backend/port</text>
<text text-anchor="middle" x="725.5" y="-7.5" font-family="JetBrains Mono" font-size="10.00">/PortOperator.cpp</text>
</a>
</g>
</g>
<!-- Node8&#45;&gt;Node9 -->
<g id="edge9" class="edge">
<title>Node8&#45;&gt;Node9</title>
<path fill="none" stroke="midnightblue" d="M725.5,-57.23C725.5,-48.59 725.5,-38.5 725.5,-30.52"/>
<polygon fill="midnightblue" stroke="midnightblue" points="722,-57.48 725.5,-67.48 729,-57.48 722,-57.48"/>
</g>
<!-- Node11 -->
<g id="node11" class="node">
<title>Node11</title>
<g id="a_node11"><a xlink:href="_port_scanner_8cpp.html" target="_top" xlink:title=" ">
<polygon fill="none" stroke="black" points="433,-0.5 433,-30.5 570,-30.5 570,-0.5 433,-0.5"/>
<text text-anchor="start" x="441" y="-18.5" font-family="JetBrains Mono" font-size="10.00">modules/backend/port</text>
<text text-anchor="middle" x="501.5" y="-7.5" font-family="JetBrains Mono" font-size="10.00">/PortScanner.cpp</text>
</a>
</g>
</g>
<!-- Node10&#45;&gt;Node11 -->
<g id="edge11" class="edge">
<title>Node10&#45;&gt;Node11</title>
<path fill="none" stroke="midnightblue" d="M501.5,-57.23C501.5,-48.59 501.5,-38.5 501.5,-30.52"/>
<polygon fill="midnightblue" stroke="midnightblue" points="498,-57.48 501.5,-67.48 505,-57.48 498,-57.48"/>
</g>
<!-- Node13 -->
<g id="node13" class="node">
<title>Node13</title>
<g id="a_node13"><a xlink:href="_bridge_8hpp.html" target="_top" xlink:title=" ">
<polygon fill="none" stroke="black" points="1208,-6 1208,-25 1375,-25 1375,-6 1208,-6"/>
<text text-anchor="middle" x="1291.5" y="-13" font-family="JetBrains Mono" font-size="10.00">modules/bridge/Bridge.hpp</text>
</a>
</g>
</g>
<!-- Node12&#45;&gt;Node13 -->
<g id="edge13" class="edge">
<title>Node12&#45;&gt;Node13</title>
<path fill="none" stroke="midnightblue" d="M1013.73,-65.69C1078.78,-54.17 1182.86,-35.74 1243.45,-25.01"/>
<polygon fill="midnightblue" stroke="midnightblue" points="1012.88,-62.28 1003.64,-67.48 1014.1,-69.18 1012.88,-62.28"/>
</g>
<!-- Node14 -->
<g id="node14" class="node">
<title>Node14</title>
<g id="a_node14"><a xlink:href="_settings_bridge_8cpp.html" target="_top" xlink:title=" ">
<polygon fill="none" stroke="black" points="848,-6 848,-25 1063,-25 1063,-6 848,-6"/>
<text text-anchor="middle" x="955.5" y="-13" font-family="JetBrains Mono" font-size="10.00">modules/bridge/SettingsBridge.cpp</text>
</a>
</g>
</g>
<!-- Node12&#45;&gt;Node14 -->
<g id="edge14" class="edge">
<title>Node12&#45;&gt;Node14</title>
<path fill="none" stroke="midnightblue" d="M955.5,-57.32C955.5,-46.5 955.5,-33.4 955.5,-25.01"/>
<polygon fill="midnightblue" stroke="midnightblue" points="952,-57.48 955.5,-67.48 959,-57.48 952,-57.48"/>
</g>
<!-- Node15&#45;&gt;Node13 -->
<g id="edge16" class="edge">
<title>Node15&#45;&gt;Node13</title>
<path fill="none" stroke="midnightblue" d="M1378.49,-62.71C1356.8,-51.19 1326.05,-34.86 1307.52,-25.01"/>
<polygon fill="midnightblue" stroke="midnightblue" points="1376.98,-65.87 1387.45,-67.48 1380.26,-59.69 1376.98,-65.87"/>
</g>
<!-- Node16&#45;&gt;Node13 -->
<g id="edge18" class="edge">
<title>Node16&#45;&gt;Node13</title>
<path fill="none" stroke="midnightblue" d="M1204.51,-62.71C1226.2,-51.19 1256.95,-34.86 1275.48,-25.01"/>
<polygon fill="midnightblue" stroke="midnightblue" points="1202.74,-59.69 1195.55,-67.48 1206.02,-65.87 1202.74,-59.69"/>
</g>
<!-- Node18&#45;&gt;Node5 -->
<g id="edge24" class="edge">
<title>Node18&#45;&gt;Node5</title>
<path fill="none" stroke="midnightblue" d="M1000.3,-193.96C935.75,-181.16 828.16,-159.84 768.55,-148.03"/>
<polygon fill="midnightblue" stroke="midnightblue" points="999.79,-197.42 1010.28,-195.94 1001.15,-190.56 999.79,-197.42"/>
</g>
<!-- Node18&#45;&gt;Node8 -->
<g id="edge26" class="edge">
<title>Node18&#45;&gt;Node8</title>
<path fill="none" stroke="midnightblue" d="M1021.73,-192.25C955.64,-166.76 804.77,-108.57 747.82,-86.61"/>
<polygon fill="midnightblue" stroke="midnightblue" points="1020.62,-195.57 1031.21,-195.9 1023.14,-189.04 1020.62,-195.57"/>
</g>
<!-- Node18&#45;&gt;Node12 -->
<g id="edge28" class="edge">
<title>Node18&#45;&gt;Node12</title>
<path fill="none" stroke="midnightblue" d="M1040.42,-187.62C1019.3,-160.36 978.42,-107.58 962.28,-86.76"/>
<polygon fill="midnightblue" stroke="midnightblue" points="1037.87,-190.04 1046.76,-195.81 1043.41,-185.76 1037.87,-190.04"/>
</g>
<!-- Node18&#45;&gt;Node13 -->
<g id="edge27" class="edge">
<title>Node18&#45;&gt;Node13</title>
<path fill="none" stroke="midnightblue" d="M1144.91,-194.7C1267.42,-179.47 1474.82,-145.6 1520.5,-87 1562.44,-33.2 1456.67,-19.4 1375.22,-16.42"/>
<polygon fill="midnightblue" stroke="midnightblue" points="1144.29,-191.25 1134.79,-195.94 1145.14,-198.2 1144.29,-191.25"/>
</g>
<!-- Node18&#45;&gt;Node15 -->
<g id="edge29" class="edge">
<title>Node18&#45;&gt;Node15</title>
<path fill="none" stroke="midnightblue" d="M1086.97,-192.4C1157.26,-167 1318.79,-108.62 1379.69,-86.61"/>
<polygon fill="midnightblue" stroke="midnightblue" points="1085.5,-189.21 1077.28,-195.9 1087.88,-195.8 1085.5,-189.21"/>
</g>
<!-- Node18&#45;&gt;Node16 -->
<g id="edge30" class="edge">
<title>Node18&#45;&gt;Node16</title>
<path fill="none" stroke="midnightblue" d="M1069.26,-188.67C1096.09,-161.74 1149.77,-107.85 1170.78,-86.76"/>
<polygon fill="midnightblue" stroke="midnightblue" points="1066.74,-186.25 1062.16,-195.81 1071.7,-191.19 1066.74,-186.25"/>
</g>
<!-- Node19 -->
<g id="node19" class="node">
<title>Node19</title>
<g id="a_node19"><a xlink:href="_port_settings_8cpp.html" target="_top" xlink:title=" ">
<polygon fill="none" stroke="black" points="1568,-123.5 1568,-153.5 1705,-153.5 1705,-123.5 1568,-123.5"/>
<text text-anchor="start" x="1576" y="-141.5" font-family="JetBrains Mono" font-size="10.00">modules/backend/port</text>
<text text-anchor="middle" x="1636.5" y="-130.5" font-family="JetBrains Mono" font-size="10.00">/PortSettings.cpp</text>
</a>
</g>
</g>
<!-- Node18&#45;&gt;Node19 -->
<g id="edge25" class="edge">
<title>Node18&#45;&gt;Node19</title>
<path fill="none" stroke="midnightblue" d="M1168.12,-195.3C1269.64,-186.58 1421.76,-172.14 1553.5,-154 1558.14,-153.36 1562.91,-152.66 1567.72,-151.91"/>
<polygon fill="midnightblue" stroke="midnightblue" points="1167.81,-191.81 1158.14,-196.15 1168.41,-198.78 1167.81,-191.81"/>
</g>
</g>
</svg>
