<?xml version="1.0" encoding="UTF-8" standalone="no"?>
<!DOCTYPE svg PUBLIC "-//W3C//DTD SVG 1.1//EN"
 "http://www.w3.org/Graphics/SVG/1.1/DTD/svg11.dtd">
<!-- Generated by graphviz version 2.48.0 (20210717.1556)
 -->
<!-- Title: modules/bridge/TerminalBridge.hpp Pages: 1 -->
<svg width="1203pt" height="252pt"
 viewBox="0.00 0.00 1203.00 252.00" xmlns="http://www.w3.org/2000/svg" xmlns:xlink="http://www.w3.org/1999/xlink">
<g id="graph0" class="graph" transform="scale(1 1) rotate(0) translate(4 248)">
<title>modules/bridge/TerminalBridge.hpp</title>
<!-- Node1 -->
<g id="node1" class="node">
<title>Node1</title>
<g id="a_node1"><a xlink:title=" ">
<polygon fill="#bfbfbf" stroke="black" points="484,-224.5 484,-243.5 699,-243.5 699,-224.5 484,-224.5"/>
<text text-anchor="middle" x="591.5" y="-231.5" font-family="JetBrains Mono" font-size="10.00">modules/bridge/TerminalBridge.hpp</text>
</a>
</g>
</g>
<!-- Node2 -->
<g id="node2" class="node">
<title>Node2</title>
<g id="a_node2"><a xlink:title=" ">
<polygon fill="none" stroke="#bfbfbf" points="1136,-0.5 1136,-19.5 1195,-19.5 1195,-0.5 1136,-0.5"/>
<text text-anchor="middle" x="1165.5" y="-7.5" font-family="JetBrains Mono" font-size="10.00">QObject</text>
</a>
</g>
</g>
<!-- Node1&#45;&gt;Node2 -->
<g id="edge1" class="edge">
<title>Node1&#45;&gt;Node2</title>
<path fill="none" stroke="midnightblue" d="M699.35,-226.4C804.62,-219.07 956.95,-205.88 1013.5,-188 1090.81,-163.56 1126.78,-151.03 1157.5,-76 1163.5,-61.35 1165.34,-43.41 1165.77,-30.09"/>
<polygon fill="midnightblue" stroke="midnightblue" points="1169.27,-29.81 1165.85,-19.78 1162.27,-29.75 1169.27,-29.81"/>
</g>
<!-- Node3 -->
<g id="node3" class="node">
<title>Node3</title>
<g id="a_node3"><a xlink:title=" ">
<polygon fill="none" stroke="#bfbfbf" points="257,-168.5 257,-187.5 316,-187.5 316,-168.5 257,-168.5"/>
<text text-anchor="middle" x="286.5" y="-175.5" font-family="JetBrains Mono" font-size="10.00">utility</text>
</a>
</g>
</g>
<!-- Node1&#45;&gt;Node3 -->
<g id="edge2" class="edge">
<title>Node1&#45;&gt;Node3</title>
<path fill="none" stroke="midnightblue" d="M538.92,-224.43C486.15,-215.71 402.57,-201.58 330.5,-188 329.06,-187.73 327.6,-187.45 326.12,-187.16"/>
<polygon fill="midnightblue" stroke="midnightblue" points="326.79,-183.73 316.3,-185.23 325.43,-190.6 326.79,-183.73"/>
</g>
<!-- Node4 -->
<g id="node4" class="node">
<title>Node4</title>
<g id="a_node4"><a xlink:title=" ">
<polygon fill="none" stroke="#bfbfbf" points="1041,-0.5 1041,-19.5 1100,-19.5 1100,-0.5 1041,-0.5"/>
<text text-anchor="middle" x="1070.5" y="-7.5" font-family="JetBrains Mono" font-size="10.00">QString</text>
</a>
</g>
</g>
<!-- Node1&#45;&gt;Node4 -->
<g id="edge3" class="edge">
<title>Node1&#45;&gt;Node4</title>
<path fill="none" stroke="midnightblue" d="M699.28,-226.85C830.86,-216.8 1041.79,-191.63 1089.5,-132 1113.42,-102.1 1094.28,-54.38 1080.83,-28.72"/>
<polygon fill="midnightblue" stroke="midnightblue" points="1083.78,-26.82 1075.89,-19.76 1077.65,-30.2 1083.78,-26.82"/>
</g>
<!-- Node5 -->
<g id="node5" class="node">
<title>Node5</title>
<g id="a_node5"><a xlink:title=" ">
<polygon fill="none" stroke="#bfbfbf" points="0,-56.5 0,-75.5 83,-75.5 83,-56.5 0,-56.5"/>
<text text-anchor="middle" x="41.5" y="-63.5" font-family="JetBrains Mono" font-size="10.00">QSerialPort</text>
</a>
</g>
</g>
<!-- Node1&#45;&gt;Node5 -->
<g id="edge4" class="edge">
<title>Node1&#45;&gt;Node5</title>
<path fill="none" stroke="midnightblue" d="M483.98,-229.96C414.85,-225.34 323.98,-214.25 247.5,-188 172.95,-162.42 95.58,-108.15 60.64,-81.87"/>
<polygon fill="midnightblue" stroke="midnightblue" points="62.4,-78.81 52.33,-75.54 58.16,-84.38 62.4,-78.81"/>
</g>
<!-- Node6 -->
<g id="node6" class="node">
<title>Node6</title>
<g id="a_node6"><a xlink:title=" ">
<polygon fill="none" stroke="#bfbfbf" points="101,-56.5 101,-75.5 208,-75.5 208,-56.5 101,-56.5"/>
<text text-anchor="middle" x="154.5" y="-63.5" font-family="JetBrains Mono" font-size="10.00">QSerialPortInfo</text>
</a>
</g>
</g>
<!-- Node1&#45;&gt;Node6 -->
<g id="edge5" class="edge">
<title>Node1&#45;&gt;Node6</title>
<path fill="none" stroke="midnightblue" d="M568.93,-224.42C496.62,-196.96 270.61,-111.11 186.48,-79.15"/>
<polygon fill="midnightblue" stroke="midnightblue" points="187.53,-75.8 176.94,-75.52 185.05,-82.35 187.53,-75.8"/>
</g>
<!-- Node7 -->
<g id="node7" class="node">
<title>Node7</title>
<g id="a_node7"><a xlink:title=" ">
<polygon fill="none" stroke="#bfbfbf" points="805,-56.5 805,-75.5 906,-75.5 906,-56.5 805,-56.5"/>
<text text-anchor="middle" x="855.5" y="-63.5" font-family="JetBrains Mono" font-size="10.00">QSharedPointer</text>
</a>
</g>
</g>
<!-- Node1&#45;&gt;Node7 -->
<g id="edge6" class="edge">
<title>Node1&#45;&gt;Node7</title>
<path fill="none" stroke="midnightblue" d="M596.42,-224.47C609.62,-202.35 648.14,-142.72 696.5,-112 714.69,-100.44 766.31,-86.95 805.85,-77.77"/>
<polygon fill="midnightblue" stroke="midnightblue" points="806.64,-81.18 815.61,-75.54 805.08,-74.36 806.64,-81.18"/>
</g>
<!-- Node8 -->
<g id="node8" class="node">
<title>Node8</title>
<g id="a_node8"><a xlink:href="_port_settings_8hpp.html" target="_top" xlink:title=" ">
<polygon fill="none" stroke="black" points="411,-112.5 411,-131.5 590,-131.5 590,-112.5 411,-112.5"/>
<text text-anchor="middle" x="500.5" y="-119.5" font-family="JetBrains Mono" font-size="10.00">../backend/PortSettings.hpp</text>
</a>
</g>
</g>
<!-- Node1&#45;&gt;Node8 -->
<g id="edge7" class="edge">
<title>Node1&#45;&gt;Node8</title>
<path fill="none" stroke="midnightblue" d="M584.36,-224.37C569.21,-206.05 533.63,-163.05 514.04,-139.36"/>
<polygon fill="midnightblue" stroke="midnightblue" points="516.68,-137.07 507.61,-131.59 511.28,-141.53 516.68,-137.07"/>
</g>
<!-- Node15 -->
<g id="node15" class="node">
<title>Node15</title>
<g id="a_node15"><a xlink:href="_interfaces_8hpp.html" target="_top" xlink:title=" ">
<polygon fill="none" stroke="black" points="664,-168.5 664,-187.5 831,-187.5 831,-168.5 664,-168.5"/>
<text text-anchor="middle" x="747.5" y="-175.5" font-family="JetBrains Mono" font-size="10.00">../backend/Interfaces.hpp</text>
</a>
</g>
</g>
<!-- Node1&#45;&gt;Node15 -->
<g id="edge21" class="edge">
<title>Node1&#45;&gt;Node15</title>
<path fill="none" stroke="midnightblue" d="M616.22,-224.44C642.35,-215.4 683.76,-201.06 713.08,-190.92"/>
<polygon fill="midnightblue" stroke="midnightblue" points="714.59,-194.1 722.9,-187.52 712.3,-187.48 714.59,-194.1"/>
</g>
<!-- Node8&#45;&gt;Node5 -->
<g id="edge8" class="edge">
<title>Node8&#45;&gt;Node5</title>
<path fill="none" stroke="midnightblue" d="M410.92,-112.93C330.25,-105.24 208.23,-92.61 93.24,-76.17"/>
<polygon fill="midnightblue" stroke="midnightblue" points="93.6,-72.69 83.21,-74.73 92.61,-79.62 93.6,-72.69"/>
</g>
<!-- Node8&#45;&gt;Node6 -->
<g id="edge13" class="edge">
<title>Node8&#45;&gt;Node6</title>
<path fill="none" stroke="midnightblue" d="M445.68,-112.44C383.91,-102.8 283.64,-87.15 218.38,-76.97"/>
<polygon fill="midnightblue" stroke="midnightblue" points="218.63,-73.47 208.21,-75.38 217.56,-80.38 218.63,-73.47"/>
</g>
<!-- Node8&#45;&gt;Node7 -->
<g id="edge11" class="edge">
<title>Node8&#45;&gt;Node7</title>
<path fill="none" stroke="midnightblue" d="M556.7,-112.47C614.09,-103.75 706.05,-89.77 794.98,-76.23"/>
<polygon fill="midnightblue" stroke="midnightblue" points="795.61,-79.68 804.97,-74.71 794.56,-72.76 795.61,-79.68"/>
</g>
<!-- Node9 -->
<g id="node9" class="node">
<title>Node9</title>
<g id="a_node9"><a xlink:title=" ">
<polygon fill="none" stroke="#bfbfbf" points="924,-56.5 924,-75.5 971,-75.5 971,-56.5 924,-56.5"/>
<text text-anchor="middle" x="947.5" y="-63.5" font-family="JetBrains Mono" font-size="10.00">QList</text>
</a>
</g>
</g>
<!-- Node8&#45;&gt;Node9 -->
<g id="edge9" class="edge">
<title>Node8&#45;&gt;Node9</title>
<path fill="none" stroke="midnightblue" d="M590.19,-115.59C672.29,-109.66 797.19,-98.15 913.68,-76.08"/>
<polygon fill="midnightblue" stroke="midnightblue" points="914.68,-79.45 923.84,-74.13 913.36,-72.58 914.68,-79.45"/>
</g>
<!-- Node10 -->
<g id="node10" class="node">
<title>Node10</title>
<g id="a_node10"><a xlink:title=" ">
<polygon fill="none" stroke="#bfbfbf" points="265,-56.5 265,-75.5 342,-75.5 342,-56.5 265,-56.5"/>
<text text-anchor="middle" x="303.5" y="-63.5" font-family="JetBrains Mono" font-size="10.00">functional</text>
</a>
</g>
</g>
<!-- Node8&#45;&gt;Node10 -->
<g id="edge10" class="edge">
<title>Node8&#45;&gt;Node10</title>
<path fill="none" stroke="midnightblue" d="M469.28,-112.44C435.57,-103.2 381.7,-88.44 344.57,-78.26"/>
<polygon fill="midnightblue" stroke="midnightblue" points="345.14,-74.78 334.57,-75.52 343.29,-81.54 345.14,-74.78"/>
</g>
<!-- Node11 -->
<g id="node11" class="node">
<title>Node11</title>
<g id="a_node11"><a xlink:title=" ">
<polygon fill="none" stroke="#bfbfbf" points="412,-0.5 412,-19.5 453,-19.5 453,-0.5 412,-0.5"/>
<text text-anchor="middle" x="432.5" y="-7.5" font-family="JetBrains Mono" font-size="10.00">QMap</text>
</a>
</g>
</g>
<!-- Node8&#45;&gt;Node11 -->
<g id="edge12" class="edge">
<title>Node8&#45;&gt;Node11</title>
<path fill="none" stroke="midnightblue" d="M446.42,-112.47C424.98,-106.15 402.4,-95.14 389.5,-76 377.98,-58.89 395.42,-39.11 411.42,-25.91"/>
<polygon fill="midnightblue" stroke="midnightblue" points="413.74,-28.54 419.5,-19.65 409.45,-23.01 413.74,-28.54"/>
</g>
<!-- Node12 -->
<g id="node12" class="node">
<title>Node12</title>
<g id="a_node12"><a xlink:title=" ">
<polygon fill="none" stroke="#bfbfbf" points="307,-0.5 307,-19.5 360,-19.5 360,-0.5 307,-0.5"/>
<text text-anchor="middle" x="333.5" y="-7.5" font-family="JetBrains Mono" font-size="10.00">QMutex</text>
</a>
</g>
</g>
<!-- Node8&#45;&gt;Node12 -->
<g id="edge14" class="edge">
<title>Node8&#45;&gt;Node12</title>
<path fill="none" stroke="midnightblue" d="M428.61,-112.49C360.38,-103.68 266.62,-89.35 255.5,-76 237.91,-54.89 270.66,-35.39 298.97,-23.36"/>
<polygon fill="midnightblue" stroke="midnightblue" points="300.36,-26.57 308.32,-19.58 297.74,-20.09 300.36,-26.57"/>
</g>
<!-- Node13 -->
<g id="node13" class="node">
<title>Node13</title>
<g id="a_node13"><a xlink:href="_program_object_8hpp.html" target="_top" xlink:title=" ">
<polygon fill="none" stroke="black" points="608,-56.5 608,-75.5 787,-75.5 787,-56.5 608,-56.5"/>
<text text-anchor="middle" x="697.5" y="-63.5" font-family="JetBrains Mono" font-size="10.00">../global/ProgramObject.hpp</text>
</a>
</g>
</g>
<!-- Node8&#45;&gt;Node13 -->
<g id="edge15" class="edge">
<title>Node8&#45;&gt;Node13</title>
<path fill="none" stroke="midnightblue" d="M531.72,-112.44C565.43,-103.2 619.3,-88.44 656.43,-78.26"/>
<polygon fill="midnightblue" stroke="midnightblue" points="657.71,-81.54 666.43,-75.52 655.86,-74.78 657.71,-81.54"/>
</g>
<!-- Node14 -->
<g id="node14" class="node">
<title>Node14</title>
<g id="a_node14"><a xlink:href="_static_generator_8hpp.html" target="_top" xlink:title=" ">
<polygon fill="none" stroke="black" points="399,-56.5 399,-75.5 590,-75.5 590,-56.5 399,-56.5"/>
<text text-anchor="middle" x="494.5" y="-63.5" font-family="JetBrains Mono" font-size="10.00">../global/StaticGenerator.hpp</text>
</a>
</g>
</g>
<!-- Node8&#45;&gt;Node14 -->
<g id="edge18" class="edge">
<title>Node8&#45;&gt;Node14</title>
<path fill="none" stroke="midnightblue" d="M499.51,-112.08C498.71,-104.93 497.57,-94.64 496.58,-85.69"/>
<polygon fill="midnightblue" stroke="midnightblue" points="500.06,-85.3 495.47,-75.75 493.1,-86.08 500.06,-85.3"/>
</g>
<!-- Node13&#45;&gt;Node2 -->
<g id="edge17" class="edge">
<title>Node13&#45;&gt;Node2</title>
<path fill="none" stroke="midnightblue" d="M787.27,-56.51C870.84,-48.3 998.8,-34.93 1109.5,-20 1114.73,-19.29 1120.23,-18.49 1125.65,-17.66"/>
<polygon fill="midnightblue" stroke="midnightblue" points="1126.56,-21.06 1135.9,-16.04 1125.47,-14.14 1126.56,-21.06"/>
</g>
<!-- Node13&#45;&gt;Node4 -->
<g id="edge16" class="edge">
<title>Node13&#45;&gt;Node4</title>
<path fill="none" stroke="midnightblue" d="M756.6,-56.44C833.23,-45.35 964.83,-26.3 1030.62,-16.77"/>
<polygon fill="midnightblue" stroke="midnightblue" points="1031.2,-20.23 1040.6,-15.33 1030.2,-13.3 1031.2,-20.23"/>
</g>
<!-- Node14&#45;&gt;Node11 -->
<g id="edge20" class="edge">
<title>Node14&#45;&gt;Node11</title>
<path fill="none" stroke="midnightblue" d="M484.54,-56.32C475.37,-48.34 461.56,-36.31 450.47,-26.65"/>
<polygon fill="midnightblue" stroke="midnightblue" points="452.48,-23.76 442.64,-19.83 447.88,-29.04 452.48,-23.76"/>
</g>
<!-- Node14&#45;&gt;Node12 -->
<g id="edge19" class="edge">
<title>Node14&#45;&gt;Node12</title>
<path fill="none" stroke="midnightblue" d="M468.99,-56.44C441.9,-47.36 398.91,-32.94 368.63,-22.78"/>
<polygon fill="midnightblue" stroke="midnightblue" points="369.49,-19.38 358.89,-19.52 367.26,-26.01 369.49,-19.38"/>
</g>
<!-- Node15&#45;&gt;Node2 -->
<g id="edge24" class="edge">
<title>Node15&#45;&gt;Node2</title>
<path fill="none" stroke="midnightblue" d="M831.05,-174.08C918.26,-169.63 1047.98,-158.64 1089.5,-132 1127.66,-107.52 1150.06,-56.33 1159.76,-29.04"/>
<polygon fill="midnightblue" stroke="midnightblue" points="1163.09,-30.15 1162.96,-19.55 1156.45,-27.91 1163.09,-30.15"/>
</g>
<!-- Node15&#45;&gt;Node5 -->
<g id="edge22" class="edge">
<title>Node15&#45;&gt;Node5</title>
<path fill="none" stroke="midnightblue" d="M663.63,-169.62C583.86,-162.08 460.61,-149.06 354.5,-132 258.93,-116.64 148.3,-92.04 87.49,-77.92"/>
<polygon fill="midnightblue" stroke="midnightblue" points="87.98,-74.44 77.45,-75.58 86.39,-81.26 87.98,-74.44"/>
</g>
<!-- Node15&#45;&gt;Node6 -->
<g id="edge23" class="edge">
<title>Node15&#45;&gt;Node6</title>
<path fill="none" stroke="midnightblue" d="M663.9,-173.29C592.9,-168.45 488.91,-157.36 401.5,-132 381.26,-126.13 378.47,-118.75 358.5,-112 312.58,-96.46 258.99,-84.88 218.27,-77.36"/>
<polygon fill="midnightblue" stroke="midnightblue" points="218.67,-73.88 208.2,-75.54 217.42,-80.77 218.67,-73.88"/>
</g>
<!-- Node15&#45;&gt;Node8 -->
<g id="edge25" class="edge">
<title>Node15&#45;&gt;Node8</title>
<path fill="none" stroke="midnightblue" d="M708.36,-168.44C665.27,-159.02 595.94,-143.87 549.33,-133.68"/>
<polygon fill="midnightblue" stroke="midnightblue" points="549.97,-130.23 539.45,-131.52 548.48,-137.07 549.97,-130.23"/>
</g>
<!-- Node16 -->
<g id="node16" class="node">
<title>Node16</title>
<g id="a_node16"><a xlink:href="_parsed_data_types_8hpp.html" target="_top" xlink:title=" ">
<polygon fill="none" stroke="black" points="705,-112.5 705,-131.5 836,-131.5 836,-112.5 705,-112.5"/>
<text text-anchor="middle" x="770.5" y="-119.5" font-family="JetBrains Mono" font-size="10.00">ParsedDataTypes.hpp</text>
</a>
</g>
</g>
<!-- Node15&#45;&gt;Node16 -->
<g id="edge26" class="edge">
<title>Node15&#45;&gt;Node16</title>
<path fill="none" stroke="midnightblue" d="M751.3,-168.08C754.41,-160.77 758.92,-150.18 762.79,-141.1"/>
<polygon fill="midnightblue" stroke="midnightblue" points="766.07,-142.32 766.77,-131.75 759.63,-139.58 766.07,-142.32"/>
</g>
<!-- Node18 -->
<g id="node18" class="node">
<title>Node18</title>
<g id="a_node18"><a xlink:href="_converted_data_types_8hpp.html" target="_top" xlink:title=" ">
<polygon fill="none" stroke="black" points="854,-112.5 854,-131.5 1003,-131.5 1003,-112.5 854,-112.5"/>
<text text-anchor="middle" x="928.5" y="-119.5" font-family="JetBrains Mono" font-size="10.00">ConvertedDataTypes.hpp</text>
</a>
</g>
</g>
<!-- Node15&#45;&gt;Node18 -->
<g id="edge31" class="edge">
<title>Node15&#45;&gt;Node18</title>
<path fill="none" stroke="midnightblue" d="M776.18,-168.44C807.03,-159.24 856.23,-144.56 890.33,-134.39"/>
<polygon fill="midnightblue" stroke="midnightblue" points="891.37,-137.73 899.95,-131.52 889.37,-131.02 891.37,-137.73"/>
</g>
<!-- Node19 -->
<g id="node19" class="node">
<title>Node19</title>
<g id="a_node19"><a xlink:title=" ">
<polygon fill="none" stroke="#bfbfbf" points="1021,-112.5 1021,-131.5 1080,-131.5 1080,-112.5 1021,-112.5"/>
<text text-anchor="middle" x="1050.5" y="-119.5" font-family="JetBrains Mono" font-size="10.00">variant</text>
</a>
</g>
</g>
<!-- Node15&#45;&gt;Node19 -->
<g id="edge35" class="edge">
<title>Node15&#45;&gt;Node19</title>
<path fill="none" stroke="midnightblue" d="M804.04,-168.48C855.62,-160.46 934.16,-147.64 1010.84,-132.25"/>
<polygon fill="midnightblue" stroke="midnightblue" points="1011.56,-135.67 1020.67,-130.26 1010.17,-128.81 1011.56,-135.67"/>
</g>
<!-- Node16&#45;&gt;Node7 -->
<g id="edge28" class="edge">
<title>Node16&#45;&gt;Node7</title>
<path fill="none" stroke="midnightblue" d="M784.16,-112.32C797.42,-103.9 817.77,-90.97 833.35,-81.07"/>
<polygon fill="midnightblue" stroke="midnightblue" points="835.31,-83.97 841.88,-75.65 831.56,-78.06 835.31,-83.97"/>
</g>
<!-- Node16&#45;&gt;Node9 -->
<g id="edge27" class="edge">
<title>Node16&#45;&gt;Node9</title>
<path fill="none" stroke="midnightblue" d="M798.55,-112.44C829.91,-102.88 880.67,-87.39 914.07,-77.2"/>
<polygon fill="midnightblue" stroke="midnightblue" points="915.29,-80.49 923.83,-74.22 913.25,-73.79 915.29,-80.49"/>
</g>
<!-- Node16&#45;&gt;Node14 -->
<g id="edge30" class="edge">
<title>Node16&#45;&gt;Node14</title>
<path fill="none" stroke="midnightblue" d="M726.77,-112.44C678.32,-102.96 600.17,-87.67 548.08,-77.48"/>
<polygon fill="midnightblue" stroke="midnightblue" points="548.51,-74 538.03,-75.52 547.17,-80.87 548.51,-74"/>
</g>
<!-- Node17 -->
<g id="node17" class="node">
<title>Node17</title>
<g id="a_node17"><a xlink:title=" ">
<polygon fill="none" stroke="#bfbfbf" points="989,-56.5 989,-75.5 1042,-75.5 1042,-56.5 989,-56.5"/>
<text text-anchor="middle" x="1015.5" y="-63.5" font-family="JetBrains Mono" font-size="10.00">memory</text>
</a>
</g>
</g>
<!-- Node16&#45;&gt;Node17 -->
<g id="edge29" class="edge">
<title>Node16&#45;&gt;Node17</title>
<path fill="none" stroke="midnightblue" d="M812.85,-112.45C853.18,-104.19 915.85,-91.06 978.69,-76.36"/>
<polygon fill="midnightblue" stroke="midnightblue" points="979.84,-79.69 988.77,-73.99 978.24,-72.87 979.84,-79.69"/>
</g>
<!-- Node18&#45;&gt;Node2 -->
<g id="edge34" class="edge">
<title>Node18&#45;&gt;Node2</title>
<path fill="none" stroke="midnightblue" d="M965.52,-112.45C994.86,-104.94 1036.44,-92.6 1070.5,-76 1099.04,-62.09 1128.73,-40.42 1147.17,-25.97"/>
<polygon fill="midnightblue" stroke="midnightblue" points="1149.39,-28.68 1155.03,-19.71 1145.02,-23.2 1149.39,-28.68"/>
</g>
<!-- Node18&#45;&gt;Node4 -->
<g id="edge33" class="edge">
<title>Node18&#45;&gt;Node4</title>
<path fill="none" stroke="midnightblue" d="M983.08,-112.46C1007,-106.11 1033.63,-95.09 1051.5,-76 1063.16,-63.54 1067.71,-44.3 1069.46,-29.99"/>
<polygon fill="midnightblue" stroke="midnightblue" points="1072.97,-30.05 1070.34,-19.78 1065.99,-29.44 1072.97,-30.05"/>
</g>
<!-- Node18&#45;&gt;Node9 -->
<g id="edge32" class="edge">
<title>Node18&#45;&gt;Node9</title>
<path fill="none" stroke="midnightblue" d="M931.64,-112.08C934.18,-104.85 937.86,-94.41 941.03,-85.4"/>
<polygon fill="midnightblue" stroke="midnightblue" points="944.4,-86.35 944.42,-75.75 937.8,-84.02 944.4,-86.35"/>
</g>
</g>
</svg>
