<?xml version="1.0" encoding="UTF-8" standalone="no"?>
<!DOCTYPE svg PUBLIC "-//W3C//DTD SVG 1.1//EN"
 "http://www.w3.org/Graphics/SVG/1.1/DTD/svg11.dtd">
<!-- Generated by graphviz version 2.48.0 (20210717.1556)
 -->
<!-- Title: backend::BufferedPortFlowOperator::sendDataFromBufferToPort Pages: 1 -->
<svg width="563pt" height="88pt"
 viewBox="0.00 0.00 563.00 88.00" xmlns="http://www.w3.org/2000/svg" xmlns:xlink="http://www.w3.org/1999/xlink">
<g id="graph0" class="graph" transform="scale(1 1) rotate(0) translate(4 84)">
<title>backend::BufferedPortFlowOperator::sendDataFromBufferToPort</title>
<!-- Node1 -->
<g id="node1" class="node">
<title>Node1</title>
<g id="a_node1"><a xlink:title=" ">
<polygon fill="#bfbfbf" stroke="black" points="0,-24.5 0,-54.5 221,-54.5 221,-24.5 0,-24.5"/>
<text text-anchor="start" x="8" y="-42.5" font-family="JetBrains Mono" font-size="10.00">backend::BufferedPortFlow</text>
<text text-anchor="middle" x="110.5" y="-31.5" font-family="JetBrains Mono" font-size="10.00">Operator::sendDataFromBufferToPort</text>
</a>
</g>
</g>
<!-- Node2 -->
<g id="node2" class="node">
<title>Node2</title>
<g id="a_node2"><a xlink:href="classbackend_1_1_byte_buffer.html#a5b209f927506b8d069300a2c8c0b4806" target="_top" xlink:title=" ">
<polygon fill="none" stroke="black" points="257,-24.5 257,-54.5 388,-54.5 388,-24.5 257,-24.5"/>
<text text-anchor="start" x="265" y="-42.5" font-family="JetBrains Mono" font-size="10.00">backend::ByteBuffer</text>
<text text-anchor="middle" x="322.5" y="-31.5" font-family="JetBrains Mono" font-size="10.00">::getAllBytes</text>
</a>
</g>
</g>
<!-- Node1&#45;&gt;Node2 -->
<g id="edge1" class="edge">
<title>Node1&#45;&gt;Node2</title>
<path fill="none" stroke="midnightblue" d="M221.11,-39.5C229.81,-39.5 238.46,-39.5 246.84,-39.5"/>
<polygon fill="midnightblue" stroke="midnightblue" points="246.89,-43 256.89,-39.5 246.89,-36 246.89,-43"/>
</g>
<!-- Node3 -->
<g id="node3" class="node">
<title>Node3</title>
<g id="a_node3"><a xlink:href="classbackend_1_1_byte_buffer.html#a9c2e1cb7e4bb27ba0289715a96a484dc" target="_top" xlink:title=" ">
<polygon fill="none" stroke="black" points="424,-49.5 424,-79.5 555,-79.5 555,-49.5 424,-49.5"/>
<text text-anchor="start" x="432" y="-67.5" font-family="JetBrains Mono" font-size="10.00">backend::ByteBuffer</text>
<text text-anchor="middle" x="489.5" y="-56.5" font-family="JetBrains Mono" font-size="10.00">::getBytes</text>
</a>
</g>
</g>
<!-- Node2&#45;&gt;Node3 -->
<g id="edge2" class="edge">
<title>Node2&#45;&gt;Node3</title>
<path fill="none" stroke="midnightblue" d="M388.24,-49.31C396.67,-50.59 405.37,-51.9 413.95,-53.2"/>
<polygon fill="midnightblue" stroke="midnightblue" points="413.54,-56.68 423.95,-54.72 414.59,-49.76 413.54,-56.68"/>
</g>
<!-- Node4 -->
<g id="node4" class="node">
<title>Node4</title>
<g id="a_node4"><a xlink:href="classbackend_1_1_byte_buffer.html#a772302de15163276f0c77d8d02b40a48" target="_top" xlink:title=" ">
<polygon fill="none" stroke="black" points="424,-0.5 424,-30.5 555,-30.5 555,-0.5 424,-0.5"/>
<text text-anchor="start" x="432" y="-18.5" font-family="JetBrains Mono" font-size="10.00">backend::ByteBuffer</text>
<text text-anchor="middle" x="489.5" y="-7.5" font-family="JetBrains Mono" font-size="10.00">::isEmpty</text>
</a>
</g>
</g>
<!-- Node2&#45;&gt;Node4 -->
<g id="edge3" class="edge">
<title>Node2&#45;&gt;Node4</title>
<path fill="none" stroke="midnightblue" d="M388.24,-30.08C396.67,-28.86 405.37,-27.59 413.95,-26.34"/>
<polygon fill="midnightblue" stroke="midnightblue" points="414.56,-29.79 423.95,-24.89 413.55,-22.87 414.56,-29.79"/>
</g>
</g>
</svg>
