<?xml version="1.0" encoding="UTF-8" standalone="no"?>
<!DOCTYPE svg PUBLIC "-//W3C//DTD SVG 1.1//EN"
 "http://www.w3.org/Graphics/SVG/1.1/DTD/svg11.dtd">
<!-- Generated by graphviz version 2.48.0 (20210717.1556)
 -->
<!-- Title: backend::ParserComponent Pages: 1 -->
<svg width="455pt" height="409pt"
 viewBox="0.00 0.00 455.00 409.00" xmlns="http://www.w3.org/2000/svg" xmlns:xlink="http://www.w3.org/1999/xlink">
<g id="graph0" class="graph" transform="scale(1 1) rotate(0) translate(4 405)">
<title>backend::ParserComponent</title>
<!-- Node1 -->
<g id="node1" class="node">
<title>Node1</title>
<g id="a_node1"><a xlink:title="This is the base class for all parsers in the parsing tree.">
<polygon fill="#bfbfbf" stroke="black" points="118,-0.5 118,-112.5 279,-112.5 279,-0.5 118,-0.5"/>
<text text-anchor="middle" x="198.5" y="-100.5" font-family="JetBrains Mono" font-size="10.00">backend::ParserComponent</text>
<polyline fill="none" stroke="black" points="118,-93.5 279,-93.5 "/>
<text text-anchor="start" x="126" y="-81.5" font-family="JetBrains Mono" font-size="10.00"># current_type_</text>
<polyline fill="none" stroke="black" points="118,-74.5 279,-74.5 "/>
<text text-anchor="start" x="126" y="-62.5" font-family="JetBrains Mono" font-size="10.00">+ getParent()</text>
<text text-anchor="start" x="126" y="-51.5" font-family="JetBrains Mono" font-size="10.00">+ setParent()</text>
<text text-anchor="start" x="126" y="-40.5" font-family="JetBrains Mono" font-size="10.00">+ addChild()</text>
<text text-anchor="start" x="126" y="-29.5" font-family="JetBrains Mono" font-size="10.00">+ isComposite()</text>
<text text-anchor="start" x="126" y="-18.5" font-family="JetBrains Mono" font-size="10.00">+ setBuffer()</text>
<text text-anchor="start" x="126" y="-7.5" font-family="JetBrains Mono" font-size="10.00"># createPackage()</text>
</a>
</g>
</g>
<!-- Node2 -->
<g id="node2" class="node">
<title>Node2</title>
<g id="a_node2"><a xlink:href="classinterface_1_1_parser_component.html" target="_top" xlink:title="ParserComponent common interface.">
<polygon fill="none" stroke="black" points="0,-160.5 0,-305.5 173,-305.5 173,-160.5 0,-160.5"/>
<text text-anchor="middle" x="86.5" y="-293.5" font-family="JetBrains Mono" font-size="10.00">interface::ParserComponent</text>
<polyline fill="none" stroke="black" points="0,-286.5 173,-286.5 "/>
<text text-anchor="middle" x="86.5" y="-274.5" font-family="JetBrains Mono" font-size="10.00"> </text>
<polyline fill="none" stroke="black" points="0,-267.5 173,-267.5 "/>
<text text-anchor="start" x="8" y="-255.5" font-family="JetBrains Mono" font-size="10.00">+ getParent()</text>
<text text-anchor="start" x="8" y="-244.5" font-family="JetBrains Mono" font-size="10.00">+ setParent()</text>
<text text-anchor="start" x="8" y="-233.5" font-family="JetBrains Mono" font-size="10.00">+ addChild()</text>
<text text-anchor="start" x="8" y="-222.5" font-family="JetBrains Mono" font-size="10.00">+ isComposite()</text>
<text text-anchor="start" x="8" y="-211.5" font-family="JetBrains Mono" font-size="10.00">+ setBuffer()</text>
<text text-anchor="start" x="8" y="-200.5" font-family="JetBrains Mono" font-size="10.00">+ parseCommand()</text>
<text text-anchor="start" x="8" y="-189.5" font-family="JetBrains Mono" font-size="10.00">+ createPackage()</text>
<text text-anchor="start" x="8" y="-178.5" font-family="JetBrains Mono" font-size="10.00">+ getPackage()</text>
<text text-anchor="start" x="8" y="-167.5" font-family="JetBrains Mono" font-size="10.00">+ startProcessing()</text>
</a>
</g>
</g>
<!-- Node2&#45;&gt;Node1 -->
<g id="edge1" class="edge">
<title>Node2&#45;&gt;Node1</title>
<path fill="none" stroke="midnightblue" d="M115.88,-151.4C119.45,-144.32 123.33,-137.41 127.5,-131 131.56,-124.75 136.21,-118.58 141.13,-112.62"/>
<polygon fill="none" stroke="midnightblue" points="112.71,-149.92 111.52,-160.45 119.01,-152.96 112.71,-149.92"/>
</g>
<!-- Node2&#45;&gt;Node1 -->
<g id="edge5" class="edge">
<title>Node2&#45;&gt;Node1</title>
<path fill="none" stroke="#404040" d="M132.54,-160.27C140.51,-147.86 148.75,-135.01 156.6,-122.78"/>
<polygon fill="none" stroke="#404040" points="156.6,-122.78 156.48,-115.57 163.08,-112.68 163.21,-119.89 156.6,-122.78"/>
<text text-anchor="middle" x="176" y="-134" font-family="JetBrains Mono" font-size="10.00"> #parent_</text>
</g>
<!-- Node3 -->
<g id="node3" class="node">
<title>Node3</title>
<g id="a_node3"><a xlink:title=" ">
<polygon fill="none" stroke="#bfbfbf" points="191,-204.5 191,-261.5 286,-261.5 286,-204.5 191,-204.5"/>
<text text-anchor="middle" x="238.5" y="-249.5" font-family="JetBrains Mono" font-size="10.00">AcceptedTypes</text>
<polyline fill="none" stroke="#bfbfbf" points="191,-242.5 286,-242.5 "/>
<text text-anchor="middle" x="238.5" y="-230.5" font-family="JetBrains Mono" font-size="10.00"> </text>
<polyline fill="none" stroke="#bfbfbf" points="191,-223.5 286,-223.5 "/>
<text text-anchor="middle" x="238.5" y="-211.5" font-family="JetBrains Mono" font-size="10.00"> </text>
</a>
</g>
</g>
<!-- Node3&#45;&gt;Node1 -->
<g id="edge2" class="edge">
<title>Node3&#45;&gt;Node1</title>
<path fill="none" stroke="#404040" d="M232.16,-204.35C227.27,-183 220.29,-152.54 213.95,-124.88"/>
<polygon fill="none" stroke="#404040" points="213.86,-124.53 208.63,-119.57 211.18,-112.83 216.42,-117.79 213.86,-124.53"/>
<text text-anchor="middle" x="247" y="-134" font-family="JetBrains Mono" font-size="10.00"> #package_</text>
</g>
<!-- Node4 -->
<g id="node4" class="node">
<title>Node4</title>
<g id="a_node4"><a xlink:href="classinterface_1_1_byte_buffer.html" target="_top" xlink:title="ByteBuffer common interface.">
<polygon fill="none" stroke="black" points="304,-166 304,-300 447,-300 447,-166 304,-166"/>
<text text-anchor="middle" x="375.5" y="-288" font-family="JetBrains Mono" font-size="10.00">interface::ByteBuffer</text>
<polyline fill="none" stroke="black" points="304,-281 447,-281 "/>
<text text-anchor="middle" x="375.5" y="-269" font-family="JetBrains Mono" font-size="10.00"> </text>
<polyline fill="none" stroke="black" points="304,-262 447,-262 "/>
<text text-anchor="start" x="312" y="-250" font-family="JetBrains Mono" font-size="10.00">+ ~ByteBuffer()</text>
<text text-anchor="start" x="312" y="-239" font-family="JetBrains Mono" font-size="10.00">+ appendBytes()</text>
<text text-anchor="start" x="312" y="-228" font-family="JetBrains Mono" font-size="10.00">+ appendByte()</text>
<text text-anchor="start" x="312" y="-217" font-family="JetBrains Mono" font-size="10.00">+ getAllBytes()</text>
<text text-anchor="start" x="312" y="-206" font-family="JetBrains Mono" font-size="10.00">+ getBytes()</text>
<text text-anchor="start" x="312" y="-195" font-family="JetBrains Mono" font-size="10.00">+ getByte()</text>
<text text-anchor="start" x="312" y="-184" font-family="JetBrains Mono" font-size="10.00">+ isEmpty()</text>
<text text-anchor="start" x="312" y="-173" font-family="JetBrains Mono" font-size="10.00">+ size()</text>
</a>
</g>
</g>
<!-- Node4&#45;&gt;Node1 -->
<g id="edge3" class="edge">
<title>Node4&#45;&gt;Node1</title>
<path fill="none" stroke="#404040" d="M315.72,-165.92C304.55,-154.1 292.82,-142.04 281.5,-131 278.11,-127.69 274.6,-124.34 271.04,-120.99"/>
<polygon fill="none" stroke="#404040" points="270.86,-120.83 263.75,-119.67 262.07,-112.66 269.19,-113.81 270.86,-120.83"/>
<text text-anchor="middle" x="319" y="-134" font-family="JetBrains Mono" font-size="10.00"> #buffer_</text>
</g>
<!-- Node5 -->
<g id="node5" class="node">
<title>Node5</title>
<g id="a_node5"><a xlink:title=" ">
<polygon fill="none" stroke="#bfbfbf" points="346,-343.5 346,-400.5 405,-400.5 405,-343.5 346,-343.5"/>
<text text-anchor="middle" x="375.5" y="-388.5" font-family="JetBrains Mono" font-size="10.00">QObject</text>
<polyline fill="none" stroke="#bfbfbf" points="346,-381.5 405,-381.5 "/>
<text text-anchor="middle" x="375.5" y="-369.5" font-family="JetBrains Mono" font-size="10.00"> </text>
<polyline fill="none" stroke="#bfbfbf" points="346,-362.5 405,-362.5 "/>
<text text-anchor="middle" x="375.5" y="-350.5" font-family="JetBrains Mono" font-size="10.00"> </text>
</a>
</g>
</g>
<!-- Node5&#45;&gt;Node4 -->
<g id="edge4" class="edge">
<title>Node5&#45;&gt;Node4</title>
<path fill="none" stroke="midnightblue" d="M375.5,-333.08C375.5,-322.85 375.5,-311.48 375.5,-300.19"/>
<polygon fill="none" stroke="midnightblue" points="372,-333.28 375.5,-343.28 379,-333.28 372,-333.28"/>
</g>
</g>
</svg>
