<?xml version="1.0" encoding="UTF-8" standalone="no"?>
<!DOCTYPE svg PUBLIC "-//W3C//DTD SVG 1.1//EN"
 "http://www.w3.org/Graphics/SVG/1.1/DTD/svg11.dtd">
<!-- Generated by graphviz version 2.48.0 (20210717.1556)
 -->
<!-- Title: backend::RootParser::startProcessing Pages: 1 -->
<svg width="891pt" height="186pt"
 viewBox="0.00 0.00 891.00 186.00" xmlns="http://www.w3.org/2000/svg" xmlns:xlink="http://www.w3.org/1999/xlink">
<g id="graph0" class="graph" transform="scale(1 1) rotate(0) translate(4 182)">
<title>backend::RootParser::startProcessing</title>
<!-- Node1 -->
<g id="node1" class="node">
<title>Node1</title>
<g id="a_node1"><a xlink:title="Starts parsing procedure for the entire tree.">
<polygon fill="#bfbfbf" stroke="black" points="0,-98.5 0,-128.5 131,-128.5 131,-98.5 0,-98.5"/>
<text text-anchor="start" x="8" y="-116.5" font-family="JetBrains Mono" font-size="10.00">backend::RootParser</text>
<text text-anchor="middle" x="65.5" y="-105.5" font-family="JetBrains Mono" font-size="10.00">::startProcessing</text>
</a>
</g>
</g>
<!-- Node2 -->
<g id="node2" class="node">
<title>Node2</title>
<g id="a_node2"><a xlink:href="classbackend_1_1_complex_parser.html#a24ff46b718bc29b91c1f9dbd63b99cb8" target="_top" xlink:title=" ">
<polygon fill="none" stroke="black" points="167,-98.5 167,-128.5 316,-128.5 316,-98.5 167,-98.5"/>
<text text-anchor="start" x="175" y="-116.5" font-family="JetBrains Mono" font-size="10.00">backend::ComplexParser</text>
<text text-anchor="middle" x="241.5" y="-105.5" font-family="JetBrains Mono" font-size="10.00">::parseCommand</text>
</a>
</g>
</g>
<!-- Node1&#45;&gt;Node2 -->
<g id="edge1" class="edge">
<title>Node1&#45;&gt;Node2</title>
<path fill="none" stroke="midnightblue" d="M131.29,-113.5C139.62,-113.5 148.25,-113.5 156.83,-113.5"/>
<polygon fill="midnightblue" stroke="midnightblue" points="156.87,-117 166.87,-113.5 156.87,-110 156.87,-117"/>
</g>
<!-- Node3 -->
<g id="node3" class="node">
<title>Node3</title>
<g id="a_node3"><a xlink:href="classbackend_1_1_parser_component.html#a85ef9bd7806f4c75a9534f9ed0bcdc6d" target="_top" xlink:title="Allocates a new package.">
<polygon fill="none" stroke="black" points="352,-147.5 352,-177.5 513,-177.5 513,-147.5 352,-147.5"/>
<text text-anchor="start" x="360" y="-165.5" font-family="JetBrains Mono" font-size="10.00">backend::ParserComponent</text>
<text text-anchor="middle" x="432.5" y="-154.5" font-family="JetBrains Mono" font-size="10.00">::createPackage</text>
</a>
</g>
</g>
<!-- Node2&#45;&gt;Node3 -->
<g id="edge2" class="edge">
<title>Node2&#45;&gt;Node3</title>
<path fill="none" stroke="midnightblue" d="M300.49,-128.53C320.54,-133.73 343.17,-139.6 363.92,-144.98"/>
<polygon fill="midnightblue" stroke="midnightblue" points="363.06,-148.37 373.62,-147.49 364.82,-141.6 363.06,-148.37"/>
</g>
<!-- Node4 -->
<g id="node4" class="node">
<title>Node4</title>
<g id="a_node4"><a xlink:href="classbackend_1_1_complex_parser.html#ae56300ff36c91f88abddbb64f2d2f567" target="_top" xlink:title=" ">
<polygon fill="none" stroke="black" points="358,-98.5 358,-128.5 507,-128.5 507,-98.5 358,-98.5"/>
<text text-anchor="start" x="366" y="-116.5" font-family="JetBrains Mono" font-size="10.00">backend::ComplexParser</text>
<text text-anchor="middle" x="432.5" y="-105.5" font-family="JetBrains Mono" font-size="10.00">::proccessingLoop</text>
</a>
</g>
</g>
<!-- Node2&#45;&gt;Node4 -->
<g id="edge3" class="edge">
<title>Node2&#45;&gt;Node4</title>
<path fill="none" stroke="midnightblue" d="M316.11,-106.9C326.48,-106.75 337.2,-106.71 347.74,-106.79"/>
<polygon fill="midnightblue" stroke="midnightblue" points="347.74,-110.29 357.78,-106.9 347.81,-103.29 347.74,-110.29"/>
</g>
<!-- Node8 -->
<g id="node8" class="node">
<title>Node8</title>
<g id="a_node8"><a xlink:href="classbackend_1_1_complex_parser.html#a9078103573155db37cd48558d150b22f" target="_top" xlink:title=" ">
<polygon fill="none" stroke="black" points="355,-49.5 355,-79.5 510,-79.5 510,-49.5 355,-49.5"/>
<text text-anchor="start" x="363" y="-67.5" font-family="JetBrains Mono" font-size="10.00">backend::ComplexParser</text>
<text text-anchor="middle" x="432.5" y="-56.5" font-family="JetBrains Mono" font-size="10.00">::specialPostOperations</text>
</a>
</g>
</g>
<!-- Node2&#45;&gt;Node8 -->
<g id="edge8" class="edge">
<title>Node2&#45;&gt;Node8</title>
<path fill="none" stroke="midnightblue" d="M300.49,-98.47C320.54,-93.27 343.17,-87.4 363.92,-82.02"/>
<polygon fill="midnightblue" stroke="midnightblue" points="364.82,-85.4 373.62,-79.51 363.06,-78.63 364.82,-85.4"/>
</g>
<!-- Node9 -->
<g id="node9" class="node">
<title>Node9</title>
<g id="a_node9"><a xlink:href="classbackend_1_1_complex_parser.html#a41a945f539d7dc36fbd1121f23b537a7" target="_top" xlink:title=" ">
<polygon fill="none" stroke="black" points="358,-0.5 358,-30.5 507,-30.5 507,-0.5 358,-0.5"/>
<text text-anchor="start" x="366" y="-18.5" font-family="JetBrains Mono" font-size="10.00">backend::ComplexParser</text>
<text text-anchor="middle" x="432.5" y="-7.5" font-family="JetBrains Mono" font-size="10.00">::specialPreOperations</text>
</a>
</g>
</g>
<!-- Node2&#45;&gt;Node9 -->
<g id="edge9" class="edge">
<title>Node2&#45;&gt;Node9</title>
<path fill="none" stroke="midnightblue" d="M261.21,-98.26C282.2,-81.8 317.81,-55.75 352,-39.5 356.06,-37.57 360.32,-35.75 364.66,-34.05"/>
<polygon fill="midnightblue" stroke="midnightblue" points="366.09,-37.25 374.25,-30.5 363.66,-30.69 366.09,-37.25"/>
</g>
<!-- Node4&#45;&gt;Node2 -->
<g id="edge7" class="edge">
<title>Node4&#45;&gt;Node2</title>
<path fill="none" stroke="midnightblue" d="M357.78,-120.1C347.41,-120.25 336.68,-120.29 326.14,-120.21"/>
<polygon fill="midnightblue" stroke="midnightblue" points="326.15,-116.71 316.11,-120.1 326.07,-123.71 326.15,-116.71"/>
</g>
<!-- Node5 -->
<g id="node5" class="node">
<title>Node5</title>
<g id="a_node5"><a xlink:href="classbackend_1_1_complex_parser.html#a62faf25d62bf3dc4c956933e1b3f1c82" target="_top" xlink:title=" ">
<polygon fill="none" stroke="black" points="549,-122.5 549,-152.5 698,-152.5 698,-122.5 549,-122.5"/>
<text text-anchor="start" x="557" y="-140.5" font-family="JetBrains Mono" font-size="10.00">backend::ComplexParser</text>
<text text-anchor="middle" x="623.5" y="-129.5" font-family="JetBrains Mono" font-size="10.00">::checkCode</text>
</a>
</g>
</g>
<!-- Node4&#45;&gt;Node5 -->
<g id="edge4" class="edge">
<title>Node4&#45;&gt;Node5</title>
<path fill="none" stroke="midnightblue" d="M507.11,-122.85C517.48,-124.16 528.2,-125.53 538.74,-126.86"/>
<polygon fill="midnightblue" stroke="midnightblue" points="538.42,-130.35 548.78,-128.14 539.3,-123.41 538.42,-130.35"/>
</g>
<!-- Node7 -->
<g id="node7" class="node">
<title>Node7</title>
<g id="a_node7"><a xlink:href="classinterface_1_1_byte_buffer.html#aa7b62b689587133486f5f0409a37633e" target="_top" xlink:title=" ">
<polygon fill="none" stroke="black" points="552,-73.5 552,-103.5 695,-103.5 695,-73.5 552,-73.5"/>
<text text-anchor="start" x="560" y="-91.5" font-family="JetBrains Mono" font-size="10.00">interface::ByteBuffer</text>
<text text-anchor="middle" x="623.5" y="-80.5" font-family="JetBrains Mono" font-size="10.00">::getByte</text>
</a>
</g>
</g>
<!-- Node4&#45;&gt;Node7 -->
<g id="edge6" class="edge">
<title>Node4&#45;&gt;Node7</title>
<path fill="none" stroke="midnightblue" d="M507.11,-103.76C518.5,-102.26 530.31,-100.69 541.83,-99.17"/>
<polygon fill="midnightblue" stroke="midnightblue" points="542.42,-102.62 551.88,-97.84 541.5,-95.68 542.42,-102.62"/>
</g>
<!-- Node6 -->
<g id="node6" class="node">
<title>Node6</title>
<g id="a_node6"><a xlink:href="classglobal_1_1_throwing_object.html#a3452fa130272c905381c30fa8ea74d92" target="_top" xlink:title=" ">
<polygon fill="none" stroke="black" points="734,-122.5 734,-152.5 883,-152.5 883,-122.5 734,-122.5"/>
<text text-anchor="start" x="742" y="-140.5" font-family="JetBrains Mono" font-size="10.00">global::ThrowingObject</text>
<text text-anchor="middle" x="808.5" y="-129.5" font-family="JetBrains Mono" font-size="10.00">::throwIf</text>
</a>
</g>
</g>
<!-- Node5&#45;&gt;Node6 -->
<g id="edge5" class="edge">
<title>Node5&#45;&gt;Node6</title>
<path fill="none" stroke="midnightblue" d="M698.14,-137.5C706.47,-137.5 715.01,-137.5 723.46,-137.5"/>
<polygon fill="midnightblue" stroke="midnightblue" points="723.71,-141 733.71,-137.5 723.71,-134 723.71,-141"/>
</g>
</g>
</svg>
