<?xml version="1.0" encoding="UTF-8" standalone="no"?>
<!DOCTYPE svg PUBLIC "-//W3C//DTD SVG 1.1//EN"
 "http://www.w3.org/Graphics/SVG/1.1/DTD/svg11.dtd">
<!-- Generated by graphviz version 2.48.0 (20210717.1556)
 -->
<!-- Title: interface::ByteBuffer Pages: 1 -->
<svg width="151pt" height="237pt"
 viewBox="0.00 0.00 151.00 237.00" xmlns="http://www.w3.org/2000/svg" xmlns:xlink="http://www.w3.org/1999/xlink">
<g id="graph0" class="graph" transform="scale(1 1) rotate(0) translate(4 233)">
<title>interface::ByteBuffer</title>
<!-- Node1 -->
<g id="node1" class="node">
<title>Node1</title>
<g id="a_node1"><a xlink:title="ByteBuffer common interface.">
<polygon fill="#bfbfbf" stroke="black" points="0,-0.5 0,-134.5 143,-134.5 143,-0.5 0,-0.5"/>
<text text-anchor="middle" x="71.5" y="-122.5" font-family="JetBrains Mono" font-size="10.00">interface::ByteBuffer</text>
<polyline fill="none" stroke="black" points="0,-115.5 143,-115.5 "/>
<text text-anchor="middle" x="71.5" y="-103.5" font-family="JetBrains Mono" font-size="10.00"> </text>
<polyline fill="none" stroke="black" points="0,-96.5 143,-96.5 "/>
<text text-anchor="start" x="8" y="-84.5" font-family="JetBrains Mono" font-size="10.00">+ ~ByteBuffer()</text>
<text text-anchor="start" x="8" y="-73.5" font-family="JetBrains Mono" font-size="10.00">+ appendBytes()</text>
<text text-anchor="start" x="8" y="-62.5" font-family="JetBrains Mono" font-size="10.00">+ appendByte()</text>
<text text-anchor="start" x="8" y="-51.5" font-family="JetBrains Mono" font-size="10.00">+ getAllBytes()</text>
<text text-anchor="start" x="8" y="-40.5" font-family="JetBrains Mono" font-size="10.00">+ getBytes()</text>
<text text-anchor="start" x="8" y="-29.5" font-family="JetBrains Mono" font-size="10.00">+ getByte()</text>
<text text-anchor="start" x="8" y="-18.5" font-family="JetBrains Mono" font-size="10.00">+ isEmpty()</text>
<text text-anchor="start" x="8" y="-7.5" font-family="JetBrains Mono" font-size="10.00">+ size()</text>
</a>
</g>
</g>
<!-- Node2 -->
<g id="node2" class="node">
<title>Node2</title>
<g id="a_node2"><a xlink:title=" ">
<polygon fill="none" stroke="#bfbfbf" points="42,-171.5 42,-228.5 101,-228.5 101,-171.5 42,-171.5"/>
<text text-anchor="middle" x="71.5" y="-216.5" font-family="JetBrains Mono" font-size="10.00">QObject</text>
<polyline fill="none" stroke="#bfbfbf" points="42,-209.5 101,-209.5 "/>
<text text-anchor="middle" x="71.5" y="-197.5" font-family="JetBrains Mono" font-size="10.00"> </text>
<polyline fill="none" stroke="#bfbfbf" points="42,-190.5 101,-190.5 "/>
<text text-anchor="middle" x="71.5" y="-178.5" font-family="JetBrains Mono" font-size="10.00"> </text>
</a>
</g>
</g>
<!-- Node2&#45;&gt;Node1 -->
<g id="edge1" class="edge">
<title>Node2&#45;&gt;Node1</title>
<path fill="none" stroke="midnightblue" d="M71.5,-161.16C71.5,-152.78 71.5,-143.67 71.5,-134.53"/>
<polygon fill="none" stroke="midnightblue" points="68,-161.32 71.5,-171.32 75,-161.32 68,-161.32"/>
</g>
</g>
</svg>
