<?xml version="1.0" encoding="UTF-8" standalone="no"?>
<!DOCTYPE svg PUBLIC "-//W3C//DTD SVG 1.1//EN"
 "http://www.w3.org/Graphics/SVG/1.1/DTD/svg11.dtd">
<!-- Generated by graphviz version 2.48.0 (20210717.1556)
 -->
<!-- Title: backend::ValueParser::parseCommand Pages: 1 -->
<svg width="336pt" height="137pt"
 viewBox="0.00 0.00 336.00 137.00" xmlns="http://www.w3.org/2000/svg" xmlns:xlink="http://www.w3.org/1999/xlink">
<g id="graph0" class="graph" transform="scale(1 1) rotate(0) translate(4 133)">
<title>backend::ValueParser::parseCommand</title>
<!-- Node1 -->
<g id="node1" class="node">
<title>Node1</title>
<g id="a_node1"><a xlink:title=" ">
<polygon fill="#bfbfbf" stroke="black" points="0,-49.5 0,-79.5 137,-79.5 137,-49.5 0,-49.5"/>
<text text-anchor="start" x="8" y="-67.5" font-family="JetBrains Mono" font-size="10.00">backend::ValueParser</text>
<text text-anchor="middle" x="68.5" y="-56.5" font-family="JetBrains Mono" font-size="10.00">::parseCommand</text>
</a>
</g>
</g>
<!-- Node2 -->
<g id="node2" class="node">
<title>Node2</title>
<g id="a_node2"><a xlink:href="classinterface_1_1_byte_buffer.html#aa7b62b689587133486f5f0409a37633e" target="_top" xlink:title=" ">
<polygon fill="none" stroke="black" points="179,-98.5 179,-128.5 322,-128.5 322,-98.5 179,-98.5"/>
<text text-anchor="start" x="187" y="-116.5" font-family="JetBrains Mono" font-size="10.00">interface::ByteBuffer</text>
<text text-anchor="middle" x="250.5" y="-105.5" font-family="JetBrains Mono" font-size="10.00">::getByte</text>
</a>
</g>
</g>
<!-- Node1&#45;&gt;Node2 -->
<g id="edge1" class="edge">
<title>Node1&#45;&gt;Node2</title>
<path fill="none" stroke="midnightblue" d="M124.97,-79.6C143.8,-84.73 164.99,-90.5 184.49,-95.8"/>
<polygon fill="midnightblue" stroke="midnightblue" points="183.64,-99.2 194.21,-98.45 185.48,-92.44 183.64,-99.2"/>
</g>
<!-- Node3 -->
<g id="node3" class="node">
<title>Node3</title>
<g id="a_node3"><a xlink:href="classglobal_1_1_static_generator.html#a53bf58b7902b0cf43096d4a42272e366" target="_top" xlink:title=" ">
<polygon fill="none" stroke="black" points="173,-49.5 173,-79.5 328,-79.5 328,-49.5 173,-49.5"/>
<text text-anchor="start" x="181" y="-67.5" font-family="JetBrains Mono" font-size="10.00">global::StaticGenerator</text>
<text text-anchor="middle" x="250.5" y="-56.5" font-family="JetBrains Mono" font-size="10.00">::getValue</text>
</a>
</g>
</g>
<!-- Node1&#45;&gt;Node3 -->
<g id="edge2" class="edge">
<title>Node1&#45;&gt;Node3</title>
<path fill="none" stroke="midnightblue" d="M137.04,-64.5C145.43,-64.5 154.09,-64.5 162.72,-64.5"/>
<polygon fill="midnightblue" stroke="midnightblue" points="162.81,-68 172.81,-64.5 162.81,-61 162.81,-68"/>
</g>
<!-- Node4 -->
<g id="node4" class="node">
<title>Node4</title>
<g id="a_node4"><a xlink:href="classbackend_1_1_value_parser.html#a3b92d29097a5002d1992e9a58ee55934" target="_top" xlink:title=" ">
<polygon fill="none" stroke="black" points="182,-0.5 182,-30.5 319,-30.5 319,-0.5 182,-0.5"/>
<text text-anchor="start" x="190" y="-18.5" font-family="JetBrains Mono" font-size="10.00">backend::ValueParser</text>
<text text-anchor="middle" x="250.5" y="-7.5" font-family="JetBrains Mono" font-size="10.00">::redirectValueBytes</text>
</a>
</g>
</g>
<!-- Node1&#45;&gt;Node4 -->
<g id="edge3" class="edge">
<title>Node1&#45;&gt;Node4</title>
<path fill="none" stroke="midnightblue" d="M124.97,-49.4C143.8,-44.27 164.99,-38.5 184.49,-33.2"/>
<polygon fill="midnightblue" stroke="midnightblue" points="185.48,-36.56 194.21,-30.55 183.64,-29.8 185.48,-36.56"/>
</g>
</g>
</svg>
