<?xml version="1.0" encoding="UTF-8" standalone="no"?>
<!DOCTYPE svg PUBLIC "-//W3C//DTD SVG 1.1//EN"
 "http://www.w3.org/Graphics/SVG/1.1/DTD/svg11.dtd">
<!-- Generated by graphviz version 2.48.0 (20210717.1556)
 -->
<!-- Title: backend::RootParser Pages: 1 -->
<svg width="348pt" height="656pt"
 viewBox="0.00 0.00 348.00 656.00" xmlns="http://www.w3.org/2000/svg" xmlns:xlink="http://www.w3.org/1999/xlink">
<g id="graph0" class="graph" transform="scale(1 1) rotate(0) translate(4 652)">
<title>backend::RootParser</title>
<!-- Node1 -->
<g id="node1" class="node">
<title>Node1</title>
<g id="a_node1"><a xlink:title="Root of the processing tree.">
<polygon fill="#bfbfbf" stroke="black" points="110,-0.5 110,-90.5 241,-90.5 241,-0.5 110,-0.5"/>
<text text-anchor="middle" x="175.5" y="-78.5" font-family="JetBrains Mono" font-size="10.00">backend::RootParser</text>
<polyline fill="none" stroke="black" points="110,-71.5 241,-71.5 "/>
<text text-anchor="middle" x="175.5" y="-59.5" font-family="JetBrains Mono" font-size="10.00"> </text>
<polyline fill="none" stroke="black" points="110,-52.5 241,-52.5 "/>
<text text-anchor="start" x="118" y="-40.5" font-family="JetBrains Mono" font-size="10.00">+ RootParser()</text>
<text text-anchor="start" x="118" y="-29.5" font-family="JetBrains Mono" font-size="10.00">+ createPackage()</text>
<text text-anchor="start" x="118" y="-18.5" font-family="JetBrains Mono" font-size="10.00">+ getPackage()</text>
<text text-anchor="start" x="118" y="-7.5" font-family="JetBrains Mono" font-size="10.00">+ startProcessing()</text>
</a>
</g>
</g>
<!-- Node2 -->
<g id="node2" class="node">
<title>Node2</title>
<g id="a_node2"><a xlink:href="classbackend_1_1_complex_parser.html" target="_top" xlink:title="This class provides composite objects which can have children.">
<polygon fill="none" stroke="black" points="92,-127.5 92,-283.5 259,-283.5 259,-127.5 92,-127.5"/>
<text text-anchor="middle" x="175.5" y="-271.5" font-family="JetBrains Mono" font-size="10.00">backend::ComplexParser</text>
<polyline fill="none" stroke="black" points="92,-264.5 259,-264.5 "/>
<text text-anchor="start" x="100" y="-252.5" font-family="JetBrains Mono" font-size="10.00"># children_</text>
<text text-anchor="start" x="100" y="-241.5" font-family="JetBrains Mono" font-size="10.00"># commands_count_</text>
<polyline fill="none" stroke="black" points="92,-234.5 259,-234.5 "/>
<text text-anchor="start" x="100" y="-222.5" font-family="JetBrains Mono" font-size="10.00">+ ComplexParser()</text>
<text text-anchor="start" x="100" y="-211.5" font-family="JetBrains Mono" font-size="10.00">+ isComposite()</text>
<text text-anchor="start" x="100" y="-200.5" font-family="JetBrains Mono" font-size="10.00">+ addChild()</text>
<text text-anchor="start" x="100" y="-189.5" font-family="JetBrains Mono" font-size="10.00">+ setBuffer()</text>
<text text-anchor="start" x="100" y="-178.5" font-family="JetBrains Mono" font-size="10.00"># checkCode()</text>
<text text-anchor="start" x="100" y="-167.5" font-family="JetBrains Mono" font-size="10.00"># proccessingLoop()</text>
<text text-anchor="start" x="100" y="-156.5" font-family="JetBrains Mono" font-size="10.00"># parseCommand()</text>
<text text-anchor="start" x="100" y="-145.5" font-family="JetBrains Mono" font-size="10.00"># specialPreOperations()</text>
<text text-anchor="start" x="100" y="-134.5" font-family="JetBrains Mono" font-size="10.00"># specialPostOperations()</text>
</a>
</g>
</g>
<!-- Node2&#45;&gt;Node1 -->
<g id="edge1" class="edge">
<title>Node2&#45;&gt;Node1</title>
<path fill="none" stroke="midnightblue" d="M175.5,-117.08C175.5,-108.02 175.5,-99.11 175.5,-90.83"/>
<polygon fill="none" stroke="midnightblue" points="172,-117.35 175.5,-127.35 179,-117.35 172,-117.35"/>
</g>
<!-- Node3 -->
<g id="node3" class="node">
<title>Node3</title>
<g id="a_node3"><a xlink:href="classbackend_1_1_parser_component.html" target="_top" xlink:title="This is the base class for all parsers in the parsing tree.">
<polygon fill="none" stroke="black" points="8,-320.5 8,-465.5 169,-465.5 169,-320.5 8,-320.5"/>
<text text-anchor="middle" x="88.5" y="-453.5" font-family="JetBrains Mono" font-size="10.00">backend::ParserComponent</text>
<polyline fill="none" stroke="black" points="8,-446.5 169,-446.5 "/>
<text text-anchor="start" x="16" y="-434.5" font-family="JetBrains Mono" font-size="10.00"># parent_</text>
<text text-anchor="start" x="16" y="-423.5" font-family="JetBrains Mono" font-size="10.00"># buffer_</text>
<text text-anchor="start" x="16" y="-412.5" font-family="JetBrains Mono" font-size="10.00"># package_</text>
<text text-anchor="start" x="16" y="-401.5" font-family="JetBrains Mono" font-size="10.00"># current_type_</text>
<polyline fill="none" stroke="black" points="8,-394.5 169,-394.5 "/>
<text text-anchor="start" x="16" y="-382.5" font-family="JetBrains Mono" font-size="10.00">+ getParent()</text>
<text text-anchor="start" x="16" y="-371.5" font-family="JetBrains Mono" font-size="10.00">+ setParent()</text>
<text text-anchor="start" x="16" y="-360.5" font-family="JetBrains Mono" font-size="10.00">+ addChild()</text>
<text text-anchor="start" x="16" y="-349.5" font-family="JetBrains Mono" font-size="10.00">+ isComposite()</text>
<text text-anchor="start" x="16" y="-338.5" font-family="JetBrains Mono" font-size="10.00">+ setBuffer()</text>
<text text-anchor="start" x="16" y="-327.5" font-family="JetBrains Mono" font-size="10.00"># createPackage()</text>
</a>
</g>
</g>
<!-- Node3&#45;&gt;Node2 -->
<g id="edge2" class="edge">
<title>Node3&#45;&gt;Node2</title>
<path fill="none" stroke="midnightblue" d="M126.41,-311.18C130.71,-302.01 135.08,-292.68 139.36,-283.56"/>
<polygon fill="none" stroke="midnightblue" points="123.21,-309.74 122.14,-320.28 129.55,-312.71 123.21,-309.74"/>
</g>
<!-- Node4 -->
<g id="node4" class="node">
<title>Node4</title>
<g id="a_node4"><a xlink:href="classinterface_1_1_parser_component.html" target="_top" xlink:title="ParserComponent common interface.">
<polygon fill="none" stroke="black" points="0,-502.5 0,-647.5 173,-647.5 173,-502.5 0,-502.5"/>
<text text-anchor="middle" x="86.5" y="-635.5" font-family="JetBrains Mono" font-size="10.00">interface::ParserComponent</text>
<polyline fill="none" stroke="black" points="0,-628.5 173,-628.5 "/>
<text text-anchor="middle" x="86.5" y="-616.5" font-family="JetBrains Mono" font-size="10.00"> </text>
<polyline fill="none" stroke="black" points="0,-609.5 173,-609.5 "/>
<text text-anchor="start" x="8" y="-597.5" font-family="JetBrains Mono" font-size="10.00">+ getParent()</text>
<text text-anchor="start" x="8" y="-586.5" font-family="JetBrains Mono" font-size="10.00">+ setParent()</text>
<text text-anchor="start" x="8" y="-575.5" font-family="JetBrains Mono" font-size="10.00">+ addChild()</text>
<text text-anchor="start" x="8" y="-564.5" font-family="JetBrains Mono" font-size="10.00">+ isComposite()</text>
<text text-anchor="start" x="8" y="-553.5" font-family="JetBrains Mono" font-size="10.00">+ setBuffer()</text>
<text text-anchor="start" x="8" y="-542.5" font-family="JetBrains Mono" font-size="10.00">+ parseCommand()</text>
<text text-anchor="start" x="8" y="-531.5" font-family="JetBrains Mono" font-size="10.00">+ createPackage()</text>
<text text-anchor="start" x="8" y="-520.5" font-family="JetBrains Mono" font-size="10.00">+ getPackage()</text>
<text text-anchor="start" x="8" y="-509.5" font-family="JetBrains Mono" font-size="10.00">+ startProcessing()</text>
</a>
</g>
</g>
<!-- Node4&#45;&gt;Node3 -->
<g id="edge3" class="edge">
<title>Node4&#45;&gt;Node3</title>
<path fill="none" stroke="midnightblue" d="M87.41,-492.08C87.51,-483.28 87.61,-474.37 87.7,-465.71"/>
<polygon fill="none" stroke="midnightblue" points="83.91,-492.3 87.3,-502.34 90.91,-492.38 83.91,-492.3"/>
</g>
<!-- Node5 -->
<g id="node5" class="node">
<title>Node5</title>
<g id="a_node5"><a xlink:href="classglobal_1_1_program_object.html" target="_top" xlink:title="This class is used to provide basic program functionalites for objects.">
<polygon fill="none" stroke="black" points="191,-364.5 191,-421.5 334,-421.5 334,-364.5 191,-364.5"/>
<text text-anchor="middle" x="262.5" y="-409.5" font-family="JetBrains Mono" font-size="10.00">global::ProgramObject</text>
<polyline fill="none" stroke="black" points="191,-402.5 334,-402.5 "/>
<text text-anchor="middle" x="262.5" y="-390.5" font-family="JetBrains Mono" font-size="10.00"> </text>
<polyline fill="none" stroke="black" points="191,-383.5 334,-383.5 "/>
<text text-anchor="middle" x="262.5" y="-371.5" font-family="JetBrains Mono" font-size="10.00"> </text>
</a>
</g>
</g>
<!-- Node5&#45;&gt;Node2 -->
<g id="edge4" class="edge">
<title>Node5&#45;&gt;Node2</title>
<path fill="none" stroke="midnightblue" d="M245.14,-354.99C235.57,-334.59 223.32,-308.47 211.77,-283.83"/>
<polygon fill="none" stroke="midnightblue" points="242.06,-356.66 249.48,-364.23 248.4,-353.69 242.06,-356.66"/>
</g>
<!-- Node6 -->
<g id="node6" class="node">
<title>Node6</title>
<g id="a_node6"><a xlink:href="classglobal_1_1_throwing_object.html" target="_top" xlink:title="This is base class which allows us to check statements at runtime.">
<polygon fill="none" stroke="black" points="191,-546.5 191,-603.5 340,-603.5 340,-546.5 191,-546.5"/>
<text text-anchor="middle" x="265.5" y="-591.5" font-family="JetBrains Mono" font-size="10.00">global::ThrowingObject</text>
<polyline fill="none" stroke="black" points="191,-584.5 340,-584.5 "/>
<text text-anchor="middle" x="265.5" y="-572.5" font-family="JetBrains Mono" font-size="10.00"> </text>
<polyline fill="none" stroke="black" points="191,-565.5 340,-565.5 "/>
<text text-anchor="start" x="199" y="-553.5" font-family="JetBrains Mono" font-size="10.00">+ throwIf()</text>
</a>
</g>
</g>
<!-- Node6&#45;&gt;Node5 -->
<g id="edge5" class="edge">
<title>Node6&#45;&gt;Node5</title>
<path fill="none" stroke="midnightblue" d="M264.87,-536.19C264.3,-501.99 263.47,-452.43 262.96,-421.76"/>
<polygon fill="none" stroke="midnightblue" points="261.37,-536.33 265.04,-546.27 268.37,-536.21 261.37,-536.33"/>
</g>
</g>
</svg>
