<?xml version="1.0" encoding="UTF-8" standalone="no"?>
<!DOCTYPE svg PUBLIC "-//W3C//DTD SVG 1.1//EN"
 "http://www.w3.org/Graphics/SVG/1.1/DTD/svg11.dtd">
<!-- Generated by graphviz version 2.48.0 (20210717.1556)
 -->
<!-- Title: backend::ValueParser Pages: 1 -->
<svg width="760pt" height="535pt"
 viewBox="0.00 0.00 760.00 535.00" xmlns="http://www.w3.org/2000/svg" xmlns:xlink="http://www.w3.org/1999/xlink">
<g id="graph0" class="graph" transform="scale(1 1) rotate(0) translate(4 531)">
<title>backend::ValueParser</title>
<!-- Node1 -->
<g id="node1" class="node">
<title>Node1</title>
<g id="a_node1"><a xlink:title="Base class for parsers which parses a numeric value.">
<polygon fill="#bfbfbf" stroke="black" points="312,-94.5 312,-162.5 461,-162.5 461,-94.5 312,-94.5"/>
<text text-anchor="middle" x="386.5" y="-150.5" font-family="JetBrains Mono" font-size="10.00">backend::ValueParser</text>
<polyline fill="none" stroke="black" points="312,-143.5 461,-143.5 "/>
<text text-anchor="middle" x="386.5" y="-131.5" font-family="JetBrains Mono" font-size="10.00"> </text>
<polyline fill="none" stroke="black" points="312,-124.5 461,-124.5 "/>
<text text-anchor="start" x="320" y="-112.5" font-family="JetBrains Mono" font-size="10.00"># parseCommand()</text>
<text text-anchor="start" x="320" y="-101.5" font-family="JetBrains Mono" font-size="10.00"># redirectValueBytes()</text>
</a>
</g>
</g>
<!-- Node4 -->
<g id="node4" class="node">
<title>Node4</title>
<g id="a_node4"><a xlink:href="classbackend_1_1_current_value_parser.html" target="_top" xlink:title="Redirects number&#39;s bytes to unit test current value.">
<polygon fill="none" stroke="black" points="0,-0.5 0,-57.5 179,-57.5 179,-0.5 0,-0.5"/>
<text text-anchor="middle" x="89.5" y="-45.5" font-family="JetBrains Mono" font-size="10.00">backend::CurrentValueParser</text>
<polyline fill="none" stroke="black" points="0,-38.5 179,-38.5 "/>
<text text-anchor="middle" x="89.5" y="-26.5" font-family="JetBrains Mono" font-size="10.00"> </text>
<polyline fill="none" stroke="black" points="0,-19.5 179,-19.5 "/>
<text text-anchor="start" x="8" y="-7.5" font-family="JetBrains Mono" font-size="10.00"># redirectValueBytes()</text>
</a>
</g>
</g>
<!-- Node1&#45;&gt;Node4 -->
<g id="edge3" class="edge">
<title>Node1&#45;&gt;Node4</title>
<path fill="none" stroke="midnightblue" d="M302.38,-99.88C261.96,-86.61 213.65,-70.75 173.27,-57.5"/>
<polygon fill="none" stroke="midnightblue" points="301.34,-103.23 311.94,-103.02 303.53,-96.58 301.34,-103.23"/>
</g>
<!-- Node5 -->
<g id="node5" class="node">
<title>Node5</title>
<g id="a_node5"><a xlink:href="classbackend_1_1_expected_value_parser.html" target="_top" xlink:title="Redirects number&#39;s bytes to unit test expected value.">
<polygon fill="none" stroke="black" points="197,-0.5 197,-57.5 382,-57.5 382,-0.5 197,-0.5"/>
<text text-anchor="middle" x="289.5" y="-45.5" font-family="JetBrains Mono" font-size="10.00">backend::ExpectedValueParser</text>
<polyline fill="none" stroke="black" points="197,-38.5 382,-38.5 "/>
<text text-anchor="middle" x="289.5" y="-26.5" font-family="JetBrains Mono" font-size="10.00"> </text>
<polyline fill="none" stroke="black" points="197,-19.5 382,-19.5 "/>
<text text-anchor="start" x="205" y="-7.5" font-family="JetBrains Mono" font-size="10.00"># redirectValueBytes()</text>
</a>
</g>
</g>
<!-- Node1&#45;&gt;Node5 -->
<g id="edge4" class="edge">
<title>Node1&#45;&gt;Node5</title>
<path fill="none" stroke="midnightblue" d="M346.57,-87.36C336.68,-77.42 326.29,-66.98 317.13,-57.78"/>
<polygon fill="none" stroke="midnightblue" points="344.13,-89.87 353.66,-94.49 349.09,-84.93 344.13,-89.87"/>
</g>
<!-- Node6 -->
<g id="node6" class="node">
<title>Node6</title>
<g id="a_node6"><a xlink:href="classbackend_1_1_lower_value_parser.html" target="_top" xlink:title="Redirects number&#39;s bytes to unit test lower value.">
<polygon fill="none" stroke="black" points="400,-0.5 400,-57.5 567,-57.5 567,-0.5 400,-0.5"/>
<text text-anchor="middle" x="483.5" y="-45.5" font-family="JetBrains Mono" font-size="10.00">backend::LowerValueParser</text>
<polyline fill="none" stroke="black" points="400,-38.5 567,-38.5 "/>
<text text-anchor="middle" x="483.5" y="-26.5" font-family="JetBrains Mono" font-size="10.00"> </text>
<polyline fill="none" stroke="black" points="400,-19.5 567,-19.5 "/>
<text text-anchor="start" x="408" y="-7.5" font-family="JetBrains Mono" font-size="10.00"># redirectValueBytes()</text>
</a>
</g>
</g>
<!-- Node1&#45;&gt;Node6 -->
<g id="edge5" class="edge">
<title>Node1&#45;&gt;Node6</title>
<path fill="none" stroke="midnightblue" d="M426.43,-87.36C436.32,-77.42 446.71,-66.98 455.87,-57.78"/>
<polygon fill="none" stroke="midnightblue" points="423.91,-84.93 419.34,-94.49 428.87,-89.87 423.91,-84.93"/>
</g>
<!-- Node7 -->
<g id="node7" class="node">
<title>Node7</title>
<g id="a_node7"><a xlink:href="classbackend_1_1_upper_value_parser.html" target="_top" xlink:title="Redirects number&#39;s bytes to unit test upper value.">
<polygon fill="none" stroke="black" points="585,-0.5 585,-57.5 752,-57.5 752,-0.5 585,-0.5"/>
<text text-anchor="middle" x="668.5" y="-45.5" font-family="JetBrains Mono" font-size="10.00">backend::UpperValueParser</text>
<polyline fill="none" stroke="black" points="585,-38.5 752,-38.5 "/>
<text text-anchor="middle" x="668.5" y="-26.5" font-family="JetBrains Mono" font-size="10.00"> </text>
<polyline fill="none" stroke="black" points="585,-19.5 752,-19.5 "/>
<text text-anchor="start" x="593" y="-7.5" font-family="JetBrains Mono" font-size="10.00"># redirectValueBytes()</text>
</a>
</g>
</g>
<!-- Node1&#45;&gt;Node7 -->
<g id="edge6" class="edge">
<title>Node1&#45;&gt;Node7</title>
<path fill="none" stroke="midnightblue" d="M471.18,-98.22C508.51,-85.32 552.14,-70.23 588.87,-57.53"/>
<polygon fill="none" stroke="midnightblue" points="469.64,-95.05 461.33,-101.63 471.93,-101.67 469.64,-95.05"/>
</g>
<!-- Node2 -->
<g id="node2" class="node">
<title>Node2</title>
<g id="a_node2"><a xlink:href="classbackend_1_1_parser_component.html" target="_top" xlink:title="This is the base class for all parsers in the parsing tree.">
<polygon fill="none" stroke="black" points="306,-199.5 306,-344.5 467,-344.5 467,-199.5 306,-199.5"/>
<text text-anchor="middle" x="386.5" y="-332.5" font-family="JetBrains Mono" font-size="10.00">backend::ParserComponent</text>
<polyline fill="none" stroke="black" points="306,-325.5 467,-325.5 "/>
<text text-anchor="start" x="314" y="-313.5" font-family="JetBrains Mono" font-size="10.00"># parent_</text>
<text text-anchor="start" x="314" y="-302.5" font-family="JetBrains Mono" font-size="10.00"># buffer_</text>
<text text-anchor="start" x="314" y="-291.5" font-family="JetBrains Mono" font-size="10.00"># package_</text>
<text text-anchor="start" x="314" y="-280.5" font-family="JetBrains Mono" font-size="10.00"># current_type_</text>
<polyline fill="none" stroke="black" points="306,-273.5 467,-273.5 "/>
<text text-anchor="start" x="314" y="-261.5" font-family="JetBrains Mono" font-size="10.00">+ getParent()</text>
<text text-anchor="start" x="314" y="-250.5" font-family="JetBrains Mono" font-size="10.00">+ setParent()</text>
<text text-anchor="start" x="314" y="-239.5" font-family="JetBrains Mono" font-size="10.00">+ addChild()</text>
<text text-anchor="start" x="314" y="-228.5" font-family="JetBrains Mono" font-size="10.00">+ isComposite()</text>
<text text-anchor="start" x="314" y="-217.5" font-family="JetBrains Mono" font-size="10.00">+ setBuffer()</text>
<text text-anchor="start" x="314" y="-206.5" font-family="JetBrains Mono" font-size="10.00"># createPackage()</text>
</a>
</g>
</g>
<!-- Node2&#45;&gt;Node1 -->
<g id="edge1" class="edge">
<title>Node2&#45;&gt;Node1</title>
<path fill="none" stroke="midnightblue" d="M386.5,-189.19C386.5,-179.83 386.5,-170.73 386.5,-162.58"/>
<polygon fill="none" stroke="midnightblue" points="383,-189.42 386.5,-199.42 390,-189.42 383,-189.42"/>
</g>
<!-- Node3 -->
<g id="node3" class="node">
<title>Node3</title>
<g id="a_node3"><a xlink:href="classinterface_1_1_parser_component.html" target="_top" xlink:title="ParserComponent common interface.">
<polygon fill="none" stroke="black" points="300,-381.5 300,-526.5 473,-526.5 473,-381.5 300,-381.5"/>
<text text-anchor="middle" x="386.5" y="-514.5" font-family="JetBrains Mono" font-size="10.00">interface::ParserComponent</text>
<polyline fill="none" stroke="black" points="300,-507.5 473,-507.5 "/>
<text text-anchor="middle" x="386.5" y="-495.5" font-family="JetBrains Mono" font-size="10.00"> </text>
<polyline fill="none" stroke="black" points="300,-488.5 473,-488.5 "/>
<text text-anchor="start" x="308" y="-476.5" font-family="JetBrains Mono" font-size="10.00">+ getParent()</text>
<text text-anchor="start" x="308" y="-465.5" font-family="JetBrains Mono" font-size="10.00">+ setParent()</text>
<text text-anchor="start" x="308" y="-454.5" font-family="JetBrains Mono" font-size="10.00">+ addChild()</text>
<text text-anchor="start" x="308" y="-443.5" font-family="JetBrains Mono" font-size="10.00">+ isComposite()</text>
<text text-anchor="start" x="308" y="-432.5" font-family="JetBrains Mono" font-size="10.00">+ setBuffer()</text>
<text text-anchor="start" x="308" y="-421.5" font-family="JetBrains Mono" font-size="10.00">+ parseCommand()</text>
<text text-anchor="start" x="308" y="-410.5" font-family="JetBrains Mono" font-size="10.00">+ createPackage()</text>
<text text-anchor="start" x="308" y="-399.5" font-family="JetBrains Mono" font-size="10.00">+ getPackage()</text>
<text text-anchor="start" x="308" y="-388.5" font-family="JetBrains Mono" font-size="10.00">+ startProcessing()</text>
</a>
</g>
</g>
<!-- Node3&#45;&gt;Node2 -->
<g id="edge2" class="edge">
<title>Node3&#45;&gt;Node2</title>
<path fill="none" stroke="midnightblue" d="M386.5,-371.08C386.5,-362.28 386.5,-353.37 386.5,-344.71"/>
<polygon fill="none" stroke="midnightblue" points="383,-371.34 386.5,-381.34 390,-371.34 383,-371.34"/>
</g>
</g>
</svg>
