<?xml version="1.0" encoding="UTF-8" standalone="no"?>
<!DOCTYPE svg PUBLIC "-//W3C//DTD SVG 1.1//EN"
 "http://www.w3.org/Graphics/SVG/1.1/DTD/svg11.dtd">
<!-- Generated by graphviz version 2.48.0 (20210717.1556)
 -->
<!-- Title: interface::ByteBuffer::bytesArrived Pages: 1 -->
<svg width="575pt" height="88pt"
 viewBox="0.00 0.00 575.00 88.00" xmlns="http://www.w3.org/2000/svg" xmlns:xlink="http://www.w3.org/1999/xlink">
<g id="graph0" class="graph" transform="scale(1 1) rotate(0) translate(4 84)">
<title>interface::ByteBuffer::bytesArrived</title>
<!-- Node1 -->
<g id="node1" class="node">
<title>Node1</title>
<g id="a_node1"><a xlink:title=" ">
<polygon fill="#bfbfbf" stroke="black" points="424,-24.5 424,-54.5 567,-54.5 567,-24.5 424,-24.5"/>
<text text-anchor="start" x="432" y="-42.5" font-family="JetBrains Mono" font-size="10.00">interface::ByteBuffer</text>
<text text-anchor="middle" x="495.5" y="-31.5" font-family="JetBrains Mono" font-size="10.00">::bytesArrived</text>
</a>
</g>
</g>
<!-- Node2 -->
<g id="node2" class="node">
<title>Node2</title>
<g id="a_node2"><a xlink:href="classbackend_1_1_byte_buffer.html#a2e7f819ae23c9b881a8ee2c93638bd29" target="_top" xlink:title=" ">
<polygon fill="none" stroke="black" points="257,-49.5 257,-79.5 388,-79.5 388,-49.5 257,-49.5"/>
<text text-anchor="start" x="265" y="-67.5" font-family="JetBrains Mono" font-size="10.00">backend::ByteBuffer</text>
<text text-anchor="middle" x="322.5" y="-56.5" font-family="JetBrains Mono" font-size="10.00">::appendByte</text>
</a>
</g>
</g>
<!-- Node1&#45;&gt;Node2 -->
<g id="edge1" class="edge">
<title>Node1&#45;&gt;Node2</title>
<path fill="none" stroke="midnightblue" d="M413.87,-51.29C405.24,-52.55 396.53,-53.82 388.12,-55.05"/>
<polygon fill="midnightblue" stroke="midnightblue" points="414.57,-54.72 423.96,-49.81 413.56,-47.8 414.57,-54.72"/>
</g>
<!-- Node3 -->
<g id="node3" class="node">
<title>Node3</title>
<g id="a_node3"><a xlink:href="classbackend_1_1_byte_buffer.html#aa7e49ca8228657db7a7d248b0297ba3b" target="_top" xlink:title=" ">
<polygon fill="none" stroke="black" points="257,-0.5 257,-30.5 388,-30.5 388,-0.5 257,-0.5"/>
<text text-anchor="start" x="265" y="-18.5" font-family="JetBrains Mono" font-size="10.00">backend::ByteBuffer</text>
<text text-anchor="middle" x="322.5" y="-7.5" font-family="JetBrains Mono" font-size="10.00">::appendBytes</text>
</a>
</g>
</g>
<!-- Node1&#45;&gt;Node3 -->
<g id="edge2" class="edge">
<title>Node1&#45;&gt;Node3</title>
<path fill="none" stroke="midnightblue" d="M413.87,-28.18C405.24,-26.97 396.53,-25.75 388.12,-24.57"/>
<polygon fill="midnightblue" stroke="midnightblue" points="413.57,-31.68 423.96,-29.6 414.54,-24.74 413.57,-31.68"/>
</g>
<!-- Node4 -->
<g id="node4" class="node">
<title>Node4</title>
<g id="a_node4"><a xlink:href="classbackend_1_1_buffered_port_flow_operator.html#a21ee905396872c8494167f3ab6d6395f" target="_top" xlink:title=" ">
<polygon fill="none" stroke="black" points="0,-0.5 0,-30.5 221,-30.5 221,-0.5 0,-0.5"/>
<text text-anchor="start" x="8" y="-18.5" font-family="JetBrains Mono" font-size="10.00">backend::BufferedPortFlow</text>
<text text-anchor="middle" x="110.5" y="-7.5" font-family="JetBrains Mono" font-size="10.00">Operator::sendDataFromPortToBuffer</text>
</a>
</g>
</g>
<!-- Node3&#45;&gt;Node4 -->
<g id="edge3" class="edge">
<title>Node3&#45;&gt;Node4</title>
<path fill="none" stroke="midnightblue" d="M246.51,-15.5C238.28,-15.5 229.78,-15.5 221.24,-15.5"/>
<polygon fill="midnightblue" stroke="midnightblue" points="246.78,-19 256.78,-15.5 246.78,-12 246.78,-19"/>
</g>
</g>
</svg>
