<?xml version="1.0" encoding="UTF-8" standalone="no"?>
<!DOCTYPE svg PUBLIC "-//W3C//DTD SVG 1.1//EN"
 "http://www.w3.org/Graphics/SVG/1.1/DTD/svg11.dtd">
<!-- Generated by graphviz version 2.48.0 (20210717.1556)
 -->
<!-- Title: interface::ByteBuffer Pages: 1 -->
<svg width="151pt" height="419pt"
 viewBox="0.00 0.00 151.00 419.00" xmlns="http://www.w3.org/2000/svg" xmlns:xlink="http://www.w3.org/1999/xlink">
<g id="graph0" class="graph" transform="scale(1 1) rotate(0) translate(4 415)">
<title>interface::ByteBuffer</title>
<!-- Node1 -->
<g id="node1" class="node">
<title>Node1</title>
<g id="a_node1"><a xlink:title="ByteBuffer common interface.">
<polygon fill="#bfbfbf" stroke="black" points="0,-182.5 0,-316.5 143,-316.5 143,-182.5 0,-182.5"/>
<text text-anchor="middle" x="71.5" y="-304.5" font-family="JetBrains Mono" font-size="10.00">interface::ByteBuffer</text>
<polyline fill="none" stroke="black" points="0,-297.5 143,-297.5 "/>
<text text-anchor="middle" x="71.5" y="-285.5" font-family="JetBrains Mono" font-size="10.00"> </text>
<polyline fill="none" stroke="black" points="0,-278.5 143,-278.5 "/>
<text text-anchor="start" x="8" y="-266.5" font-family="JetBrains Mono" font-size="10.00">+ ~ByteBuffer()</text>
<text text-anchor="start" x="8" y="-255.5" font-family="JetBrains Mono" font-size="10.00">+ appendBytes()</text>
<text text-anchor="start" x="8" y="-244.5" font-family="JetBrains Mono" font-size="10.00">+ appendByte()</text>
<text text-anchor="start" x="8" y="-233.5" font-family="JetBrains Mono" font-size="10.00">+ getAllBytes()</text>
<text text-anchor="start" x="8" y="-222.5" font-family="JetBrains Mono" font-size="10.00">+ getBytes()</text>
<text text-anchor="start" x="8" y="-211.5" font-family="JetBrains Mono" font-size="10.00">+ getByte()</text>
<text text-anchor="start" x="8" y="-200.5" font-family="JetBrains Mono" font-size="10.00">+ isEmpty()</text>
<text text-anchor="start" x="8" y="-189.5" font-family="JetBrains Mono" font-size="10.00">+ size()</text>
</a>
</g>
</g>
<!-- Node3 -->
<g id="node3" class="node">
<title>Node3</title>
<g id="a_node3"><a xlink:href="classbackend_1_1_byte_buffer.html" target="_top" xlink:title="Objects of this class are buffers which can be shared and modified by several objects.">
<polygon fill="none" stroke="black" points="6,-0.5 6,-145.5 137,-145.5 137,-0.5 6,-0.5"/>
<text text-anchor="middle" x="71.5" y="-133.5" font-family="JetBrains Mono" font-size="10.00">backend::ByteBuffer</text>
<polyline fill="none" stroke="black" points="6,-126.5 137,-126.5 "/>
<text text-anchor="middle" x="71.5" y="-114.5" font-family="JetBrains Mono" font-size="10.00"> </text>
<polyline fill="none" stroke="black" points="6,-107.5 137,-107.5 "/>
<text text-anchor="start" x="14" y="-95.5" font-family="JetBrains Mono" font-size="10.00">+ ByteBuffer()</text>
<text text-anchor="start" x="14" y="-84.5" font-family="JetBrains Mono" font-size="10.00">+ ~ByteBuffer()</text>
<text text-anchor="start" x="14" y="-73.5" font-family="JetBrains Mono" font-size="10.00">+ appendBytes()</text>
<text text-anchor="start" x="14" y="-62.5" font-family="JetBrains Mono" font-size="10.00">+ appendByte()</text>
<text text-anchor="start" x="14" y="-51.5" font-family="JetBrains Mono" font-size="10.00">+ getAllBytes()</text>
<text text-anchor="start" x="14" y="-40.5" font-family="JetBrains Mono" font-size="10.00">+ getBytes()</text>
<text text-anchor="start" x="14" y="-29.5" font-family="JetBrains Mono" font-size="10.00">+ getByte()</text>
<text text-anchor="start" x="14" y="-18.5" font-family="JetBrains Mono" font-size="10.00">+ isEmpty()</text>
<text text-anchor="start" x="14" y="-7.5" font-family="JetBrains Mono" font-size="10.00">+ size()</text>
</a>
</g>
</g>
<!-- Node1&#45;&gt;Node3 -->
<g id="edge2" class="edge">
<title>Node1&#45;&gt;Node3</title>
<path fill="none" stroke="midnightblue" d="M71.5,-171.84C71.5,-163.09 71.5,-154.2 71.5,-145.51"/>
<polygon fill="none" stroke="midnightblue" points="68,-172.03 71.5,-182.03 75,-172.03 68,-172.03"/>
</g>
<!-- Node2 -->
<g id="node2" class="node">
<title>Node2</title>
<g id="a_node2"><a xlink:title=" ">
<polygon fill="none" stroke="#bfbfbf" points="42,-353.5 42,-410.5 101,-410.5 101,-353.5 42,-353.5"/>
<text text-anchor="middle" x="71.5" y="-398.5" font-family="JetBrains Mono" font-size="10.00">QObject</text>
<polyline fill="none" stroke="#bfbfbf" points="42,-391.5 101,-391.5 "/>
<text text-anchor="middle" x="71.5" y="-379.5" font-family="JetBrains Mono" font-size="10.00"> </text>
<polyline fill="none" stroke="#bfbfbf" points="42,-372.5 101,-372.5 "/>
<text text-anchor="middle" x="71.5" y="-360.5" font-family="JetBrains Mono" font-size="10.00"> </text>
</a>
</g>
</g>
<!-- Node2&#45;&gt;Node1 -->
<g id="edge1" class="edge">
<title>Node2&#45;&gt;Node1</title>
<path fill="none" stroke="midnightblue" d="M71.5,-343.16C71.5,-334.78 71.5,-325.67 71.5,-316.53"/>
<polygon fill="none" stroke="midnightblue" points="68,-343.32 71.5,-353.32 75,-343.32 68,-343.32"/>
</g>
</g>
</svg>
