<?xml version="1.0" encoding="UTF-8" standalone="no"?>
<!DOCTYPE svg PUBLIC "-//W3C//DTD SVG 1.1//EN"
 "http://www.w3.org/Graphics/SVG/1.1/DTD/svg11.dtd">
<!-- Generated by graphviz version 2.48.0 (20210717.1556)
 -->
<!-- Title: backend::ExpectedValueParser Pages: 1 -->
<svg width="455pt" height="610pt"
 viewBox="0.00 0.00 455.00 610.00" xmlns="http://www.w3.org/2000/svg" xmlns:xlink="http://www.w3.org/1999/xlink">
<g id="graph0" class="graph" transform="scale(1 1) rotate(0) translate(4 606)">
<title>backend::ExpectedValueParser</title>
<!-- Node1 -->
<g id="node1" class="node">
<title>Node1</title>
<g id="a_node1"><a xlink:title="Redirects number&#39;s bytes to unit test expected value.">
<polygon fill="#bfbfbf" stroke="black" points="106,-0.5 106,-57.5 291,-57.5 291,-0.5 106,-0.5"/>
<text text-anchor="middle" x="198.5" y="-45.5" font-family="JetBrains Mono" font-size="10.00">backend::ExpectedValueParser</text>
<polyline fill="none" stroke="black" points="106,-38.5 291,-38.5 "/>
<text text-anchor="middle" x="198.5" y="-26.5" font-family="JetBrains Mono" font-size="10.00"> </text>
<polyline fill="none" stroke="black" points="106,-19.5 291,-19.5 "/>
<text text-anchor="start" x="114" y="-7.5" font-family="JetBrains Mono" font-size="10.00"># redirectValueBytes()</text>
</a>
</g>
</g>
<!-- Node2 -->
<g id="node2" class="node">
<title>Node2</title>
<g id="a_node2"><a xlink:href="classbackend_1_1_value_parser.html" target="_top" xlink:title="Base class for parsers which parses a numeric value.">
<polygon fill="none" stroke="black" points="124,-95.5 124,-163.5 273,-163.5 273,-95.5 124,-95.5"/>
<text text-anchor="middle" x="198.5" y="-151.5" font-family="JetBrains Mono" font-size="10.00">backend::ValueParser</text>
<polyline fill="none" stroke="black" points="124,-144.5 273,-144.5 "/>
<text text-anchor="middle" x="198.5" y="-132.5" font-family="JetBrains Mono" font-size="10.00"> </text>
<polyline fill="none" stroke="black" points="124,-125.5 273,-125.5 "/>
<text text-anchor="start" x="132" y="-113.5" font-family="JetBrains Mono" font-size="10.00"># parseCommand()</text>
<text text-anchor="start" x="132" y="-102.5" font-family="JetBrains Mono" font-size="10.00"># redirectValueBytes()</text>
</a>
</g>
</g>
<!-- Node2&#45;&gt;Node1 -->
<g id="edge1" class="edge">
<title>Node2&#45;&gt;Node1</title>
<path fill="none" stroke="midnightblue" d="M198.5,-85.38C198.5,-75.94 198.5,-66.2 198.5,-57.57"/>
<polygon fill="none" stroke="midnightblue" points="195,-85.43 198.5,-95.43 202,-85.43 195,-85.43"/>
</g>
<!-- Node3 -->
<g id="node3" class="node">
<title>Node3</title>
<g id="a_node3"><a xlink:href="classbackend_1_1_parser_component.html" target="_top" xlink:title="This is the base class for all parsers in the parsing tree.">
<polygon fill="none" stroke="black" points="118,-201.5 118,-313.5 279,-313.5 279,-201.5 118,-201.5"/>
<text text-anchor="middle" x="198.5" y="-301.5" font-family="JetBrains Mono" font-size="10.00">backend::ParserComponent</text>
<polyline fill="none" stroke="black" points="118,-294.5 279,-294.5 "/>
<text text-anchor="start" x="126" y="-282.5" font-family="JetBrains Mono" font-size="10.00"># current_type_</text>
<polyline fill="none" stroke="black" points="118,-275.5 279,-275.5 "/>
<text text-anchor="start" x="126" y="-263.5" font-family="JetBrains Mono" font-size="10.00">+ getParent()</text>
<text text-anchor="start" x="126" y="-252.5" font-family="JetBrains Mono" font-size="10.00">+ setParent()</text>
<text text-anchor="start" x="126" y="-241.5" font-family="JetBrains Mono" font-size="10.00">+ addChild()</text>
<text text-anchor="start" x="126" y="-230.5" font-family="JetBrains Mono" font-size="10.00">+ isComposite()</text>
<text text-anchor="start" x="126" y="-219.5" font-family="JetBrains Mono" font-size="10.00">+ setBuffer()</text>
<text text-anchor="start" x="126" y="-208.5" font-family="JetBrains Mono" font-size="10.00"># createPackage()</text>
</a>
</g>
</g>
<!-- Node3&#45;&gt;Node2 -->
<g id="edge2" class="edge">
<title>Node3&#45;&gt;Node2</title>
<path fill="none" stroke="midnightblue" d="M198.5,-190.96C198.5,-181.48 198.5,-172.08 198.5,-163.62"/>
<polygon fill="none" stroke="midnightblue" points="195,-191.23 198.5,-201.23 202,-191.23 195,-191.23"/>
</g>
<!-- Node4 -->
<g id="node4" class="node">
<title>Node4</title>
<g id="a_node4"><a xlink:href="classinterface_1_1_parser_component.html" target="_top" xlink:title="ParserComponent common interface.">
<polygon fill="none" stroke="black" points="0,-361.5 0,-506.5 173,-506.5 173,-361.5 0,-361.5"/>
<text text-anchor="middle" x="86.5" y="-494.5" font-family="JetBrains Mono" font-size="10.00">interface::ParserComponent</text>
<polyline fill="none" stroke="black" points="0,-487.5 173,-487.5 "/>
<text text-anchor="middle" x="86.5" y="-475.5" font-family="JetBrains Mono" font-size="10.00"> </text>
<polyline fill="none" stroke="black" points="0,-468.5 173,-468.5 "/>
<text text-anchor="start" x="8" y="-456.5" font-family="JetBrains Mono" font-size="10.00">+ getParent()</text>
<text text-anchor="start" x="8" y="-445.5" font-family="JetBrains Mono" font-size="10.00">+ setParent()</text>
<text text-anchor="start" x="8" y="-434.5" font-family="JetBrains Mono" font-size="10.00">+ addChild()</text>
<text text-anchor="start" x="8" y="-423.5" font-family="JetBrains Mono" font-size="10.00">+ isComposite()</text>
<text text-anchor="start" x="8" y="-412.5" font-family="JetBrains Mono" font-size="10.00">+ setBuffer()</text>
<text text-anchor="start" x="8" y="-401.5" font-family="JetBrains Mono" font-size="10.00">+ parseCommand()</text>
<text text-anchor="start" x="8" y="-390.5" font-family="JetBrains Mono" font-size="10.00">+ createPackage()</text>
<text text-anchor="start" x="8" y="-379.5" font-family="JetBrains Mono" font-size="10.00">+ getPackage()</text>
<text text-anchor="start" x="8" y="-368.5" font-family="JetBrains Mono" font-size="10.00">+ startProcessing()</text>
</a>
</g>
</g>
<!-- Node4&#45;&gt;Node3 -->
<g id="edge3" class="edge">
<title>Node4&#45;&gt;Node3</title>
<path fill="none" stroke="midnightblue" d="M115.88,-352.4C119.45,-345.32 123.33,-338.41 127.5,-332 131.56,-325.75 136.21,-319.58 141.13,-313.62"/>
<polygon fill="none" stroke="midnightblue" points="112.71,-350.92 111.52,-361.45 119.01,-353.96 112.71,-350.92"/>
</g>
<!-- Node4&#45;&gt;Node3 -->
<g id="edge7" class="edge">
<title>Node4&#45;&gt;Node3</title>
<path fill="none" stroke="#404040" d="M132.54,-361.27C140.51,-348.86 148.75,-336.01 156.6,-323.78"/>
<polygon fill="none" stroke="#404040" points="156.6,-323.78 156.48,-316.57 163.08,-313.68 163.21,-320.89 156.6,-323.78"/>
<text text-anchor="middle" x="176" y="-335" font-family="JetBrains Mono" font-size="10.00"> #parent_</text>
</g>
<!-- Node5 -->
<g id="node5" class="node">
<title>Node5</title>
<g id="a_node5"><a xlink:title=" ">
<polygon fill="none" stroke="#bfbfbf" points="191,-405.5 191,-462.5 286,-462.5 286,-405.5 191,-405.5"/>
<text text-anchor="middle" x="238.5" y="-450.5" font-family="JetBrains Mono" font-size="10.00">AcceptedTypes</text>
<polyline fill="none" stroke="#bfbfbf" points="191,-443.5 286,-443.5 "/>
<text text-anchor="middle" x="238.5" y="-431.5" font-family="JetBrains Mono" font-size="10.00"> </text>
<polyline fill="none" stroke="#bfbfbf" points="191,-424.5 286,-424.5 "/>
<text text-anchor="middle" x="238.5" y="-412.5" font-family="JetBrains Mono" font-size="10.00"> </text>
</a>
</g>
</g>
<!-- Node5&#45;&gt;Node3 -->
<g id="edge4" class="edge">
<title>Node5&#45;&gt;Node3</title>
<path fill="none" stroke="#404040" d="M232.16,-405.35C227.27,-384 220.29,-353.54 213.95,-325.88"/>
<polygon fill="none" stroke="#404040" points="213.86,-325.53 208.63,-320.57 211.18,-313.83 216.42,-318.79 213.86,-325.53"/>
<text text-anchor="middle" x="247" y="-335" font-family="JetBrains Mono" font-size="10.00"> #package_</text>
</g>
<!-- Node6 -->
<g id="node6" class="node">
<title>Node6</title>
<g id="a_node6"><a xlink:href="classinterface_1_1_byte_buffer.html" target="_top" xlink:title="ByteBuffer common interface.">
<polygon fill="none" stroke="black" points="304,-367 304,-501 447,-501 447,-367 304,-367"/>
<text text-anchor="middle" x="375.5" y="-489" font-family="JetBrains Mono" font-size="10.00">interface::ByteBuffer</text>
<polyline fill="none" stroke="black" points="304,-482 447,-482 "/>
<text text-anchor="middle" x="375.5" y="-470" font-family="JetBrains Mono" font-size="10.00"> </text>
<polyline fill="none" stroke="black" points="304,-463 447,-463 "/>
<text text-anchor="start" x="312" y="-451" font-family="JetBrains Mono" font-size="10.00">+ ~ByteBuffer()</text>
<text text-anchor="start" x="312" y="-440" font-family="JetBrains Mono" font-size="10.00">+ appendBytes()</text>
<text text-anchor="start" x="312" y="-429" font-family="JetBrains Mono" font-size="10.00">+ appendByte()</text>
<text text-anchor="start" x="312" y="-418" font-family="JetBrains Mono" font-size="10.00">+ getAllBytes()</text>
<text text-anchor="start" x="312" y="-407" font-family="JetBrains Mono" font-size="10.00">+ getBytes()</text>
<text text-anchor="start" x="312" y="-396" font-family="JetBrains Mono" font-size="10.00">+ getByte()</text>
<text text-anchor="start" x="312" y="-385" font-family="JetBrains Mono" font-size="10.00">+ isEmpty()</text>
<text text-anchor="start" x="312" y="-374" font-family="JetBrains Mono" font-size="10.00">+ size()</text>
</a>
</g>
</g>
<!-- Node6&#45;&gt;Node3 -->
<g id="edge5" class="edge">
<title>Node6&#45;&gt;Node3</title>
<path fill="none" stroke="#404040" d="M315.72,-366.92C304.55,-355.1 292.82,-343.04 281.5,-332 278.11,-328.69 274.6,-325.34 271.04,-321.99"/>
<polygon fill="none" stroke="#404040" points="270.86,-321.83 263.75,-320.67 262.07,-313.66 269.19,-314.81 270.86,-321.83"/>
<text text-anchor="middle" x="319" y="-335" font-family="JetBrains Mono" font-size="10.00"> #buffer_</text>
</g>
<!-- Node7 -->
<g id="node7" class="node">
<title>Node7</title>
<g id="a_node7"><a xlink:title=" ">
<polygon fill="none" stroke="#bfbfbf" points="346,-544.5 346,-601.5 405,-601.5 405,-544.5 346,-544.5"/>
<text text-anchor="middle" x="375.5" y="-589.5" font-family="JetBrains Mono" font-size="10.00">QObject</text>
<polyline fill="none" stroke="#bfbfbf" points="346,-582.5 405,-582.5 "/>
<text text-anchor="middle" x="375.5" y="-570.5" font-family="JetBrains Mono" font-size="10.00"> </text>
<polyline fill="none" stroke="#bfbfbf" points="346,-563.5 405,-563.5 "/>
<text text-anchor="middle" x="375.5" y="-551.5" font-family="JetBrains Mono" font-size="10.00"> </text>
</a>
</g>
</g>
<!-- Node7&#45;&gt;Node6 -->
<g id="edge6" class="edge">
<title>Node7&#45;&gt;Node6</title>
<path fill="none" stroke="midnightblue" d="M375.5,-534.08C375.5,-523.85 375.5,-512.48 375.5,-501.19"/>
<polygon fill="none" stroke="midnightblue" points="372,-534.28 375.5,-544.28 379,-534.28 372,-534.28"/>
</g>
</g>
</svg>
