<?xml version="1.0" encoding="UTF-8" standalone="no"?>
<!DOCTYPE svg PUBLIC "-//W3C//DTD SVG 1.1//EN"
 "http://www.w3.org/Graphics/SVG/1.1/DTD/svg11.dtd">
<!-- Generated by graphviz version 2.48.0 (20210717.1556)
 -->
<!-- Title: backend::AbstractValueConverter Pages: 1 -->
<svg width="1703pt" height="171pt"
 viewBox="0.00 0.00 1703.00 171.00" xmlns="http://www.w3.org/2000/svg" xmlns:xlink="http://www.w3.org/1999/xlink">
<g id="graph0" class="graph" transform="scale(1 1) rotate(0) translate(4 167)">
<title>backend::AbstractValueConverter</title>
<!-- Node1 -->
<g id="node1" class="node">
<title>Node1</title>
<g id="a_node1"><a xlink:title="This is interface for all value converters.">
<polygon fill="#bfbfbf" stroke="black" points="761,-105.5 761,-162.5 964,-162.5 964,-105.5 761,-105.5"/>
<text text-anchor="middle" x="862.5" y="-150.5" font-family="JetBrains Mono" font-size="10.00">backend::AbstractValueConverter</text>
<polyline fill="none" stroke="black" points="761,-143.5 964,-143.5 "/>
<text text-anchor="middle" x="862.5" y="-131.5" font-family="JetBrains Mono" font-size="10.00"> </text>
<polyline fill="none" stroke="black" points="761,-124.5 964,-124.5 "/>
<text text-anchor="start" x="769" y="-112.5" font-family="JetBrains Mono" font-size="10.00">+ getValue()</text>
</a>
</g>
</g>
<!-- Node2 -->
<g id="node2" class="node">
<title>Node2</title>
<g id="a_node2"><a xlink:href="classbackend_1_1_bit_value_converter.html" target="_top" xlink:title="Converts a 1&#45;byte value to a bit type.">
<polygon fill="none" stroke="black" points="0,-6 0,-63 173,-63 173,-6 0,-6"/>
<text text-anchor="middle" x="86.5" y="-51" font-family="JetBrains Mono" font-size="10.00">backend::BitValueConverter</text>
<polyline fill="none" stroke="black" points="0,-44 173,-44 "/>
<text text-anchor="middle" x="86.5" y="-32" font-family="JetBrains Mono" font-size="10.00"> </text>
<polyline fill="none" stroke="black" points="0,-25 173,-25 "/>
<text text-anchor="start" x="8" y="-13" font-family="JetBrains Mono" font-size="10.00">+ getValue()</text>
</a>
</g>
</g>
<!-- Node1&#45;&gt;Node2 -->
<g id="edge1" class="edge">
<title>Node1&#45;&gt;Node2</title>
<path fill="none" stroke="midnightblue" d="M750.9,-130.88C614.94,-126.38 378.95,-112.4 181.5,-69 174.07,-67.37 166.42,-65.32 158.84,-63.05"/>
<polygon fill="none" stroke="midnightblue" points="750.81,-134.38 760.92,-131.2 751.04,-127.38 750.81,-134.38"/>
</g>
<!-- Node3 -->
<g id="node3" class="node">
<title>Node3</title>
<g id="a_node3"><a xlink:href="classbackend_1_1_bool_value_converter.html" target="_top" xlink:title="Converts a 1&#45;byte value to a bool type.">
<polygon fill="none" stroke="black" points="191,-6 191,-63 370,-63 370,-6 191,-6"/>
<text text-anchor="middle" x="280.5" y="-51" font-family="JetBrains Mono" font-size="10.00">backend::BoolValueConverter</text>
<polyline fill="none" stroke="black" points="191,-44 370,-44 "/>
<text text-anchor="middle" x="280.5" y="-32" font-family="JetBrains Mono" font-size="10.00"> </text>
<polyline fill="none" stroke="black" points="191,-25 370,-25 "/>
<text text-anchor="start" x="199" y="-13" font-family="JetBrains Mono" font-size="10.00">+ getValue()</text>
</a>
</g>
</g>
<!-- Node1&#45;&gt;Node3 -->
<g id="edge2" class="edge">
<title>Node1&#45;&gt;Node3</title>
<path fill="none" stroke="midnightblue" d="M750.86,-124.55C652.03,-115.58 504.35,-98.52 378.5,-69 371.24,-67.3 363.75,-65.26 356.31,-63.05"/>
<polygon fill="none" stroke="midnightblue" points="750.6,-128.04 760.87,-125.45 751.22,-121.07 750.6,-128.04"/>
</g>
<!-- Node4 -->
<g id="node4" class="node">
<title>Node4</title>
<g id="a_node4"><a xlink:href="classbackend_1_1_char_value_converter.html" target="_top" xlink:title="Converts a 1&#45;byte value to a char.">
<polygon fill="none" stroke="black" points="388,-6 388,-63 567,-63 567,-6 388,-6"/>
<text text-anchor="middle" x="477.5" y="-51" font-family="JetBrains Mono" font-size="10.00">backend::CharValueConverter</text>
<polyline fill="none" stroke="black" points="388,-44 567,-44 "/>
<text text-anchor="middle" x="477.5" y="-32" font-family="JetBrains Mono" font-size="10.00"> </text>
<polyline fill="none" stroke="black" points="388,-25 567,-25 "/>
<text text-anchor="start" x="396" y="-13" font-family="JetBrains Mono" font-size="10.00">+ getValue()</text>
</a>
</g>
</g>
<!-- Node1&#45;&gt;Node4 -->
<g id="edge3" class="edge">
<title>Node1&#45;&gt;Node4</title>
<path fill="none" stroke="midnightblue" d="M751.03,-111.12C697.59,-99.88 632.86,-85.15 575.5,-69 569.01,-67.17 562.32,-65.16 555.62,-63.06"/>
<polygon fill="none" stroke="midnightblue" points="750.37,-114.56 760.88,-113.18 751.81,-107.71 750.37,-114.56"/>
</g>
<!-- Node5 -->
<g id="node5" class="node">
<title>Node5</title>
<g id="a_node5"><a xlink:href="classbackend_1_1_int16_numeric_value_converter.html" target="_top" xlink:title="This converter converts 2&#45;byte value to stringlized int16_t type.">
<polygon fill="none" stroke="black" points="585,-0.5 585,-68.5 758,-68.5 758,-0.5 585,-0.5"/>
<text text-anchor="start" x="593" y="-56.5" font-family="JetBrains Mono" font-size="10.00">backend::Int16NumericValue</text>
<text text-anchor="middle" x="671.5" y="-45.5" font-family="JetBrains Mono" font-size="10.00">Converter</text>
<polyline fill="none" stroke="black" points="585,-38.5 758,-38.5 "/>
<text text-anchor="middle" x="671.5" y="-26.5" font-family="JetBrains Mono" font-size="10.00"> </text>
<polyline fill="none" stroke="black" points="585,-19.5 758,-19.5 "/>
<text text-anchor="start" x="593" y="-7.5" font-family="JetBrains Mono" font-size="10.00">+ getValue()</text>
</a>
</g>
</g>
<!-- Node1&#45;&gt;Node5 -->
<g id="edge4" class="edge">
<title>Node1&#45;&gt;Node5</title>
<path fill="none" stroke="midnightblue" d="M799.38,-100.78C779.09,-90.42 756.58,-78.93 736.17,-68.51"/>
<polygon fill="none" stroke="midnightblue" points="798.03,-104.02 808.53,-105.45 801.22,-97.79 798.03,-104.02"/>
</g>
<!-- Node6 -->
<g id="node6" class="node">
<title>Node6</title>
<g id="a_node6"><a xlink:href="classbackend_1_1_int32_numeric_value_converter.html" target="_top" xlink:title="This converter converts 4&#45;byte value to stringlized int32_t type.">
<polygon fill="none" stroke="black" points="776,-0.5 776,-68.5 949,-68.5 949,-0.5 776,-0.5"/>
<text text-anchor="start" x="784" y="-56.5" font-family="JetBrains Mono" font-size="10.00">backend::Int32NumericValue</text>
<text text-anchor="middle" x="862.5" y="-45.5" font-family="JetBrains Mono" font-size="10.00">Converter</text>
<polyline fill="none" stroke="black" points="776,-38.5 949,-38.5 "/>
<text text-anchor="middle" x="862.5" y="-26.5" font-family="JetBrains Mono" font-size="10.00"> </text>
<polyline fill="none" stroke="black" points="776,-19.5 949,-19.5 "/>
<text text-anchor="start" x="784" y="-7.5" font-family="JetBrains Mono" font-size="10.00">+ getValue()</text>
</a>
</g>
</g>
<!-- Node1&#45;&gt;Node6 -->
<g id="edge5" class="edge">
<title>Node1&#45;&gt;Node6</title>
<path fill="none" stroke="midnightblue" d="M862.5,-95.06C862.5,-86.39 862.5,-77.24 862.5,-68.79"/>
<polygon fill="none" stroke="midnightblue" points="859,-95.32 862.5,-105.32 866,-95.32 859,-95.32"/>
</g>
<!-- Node7 -->
<g id="node7" class="node">
<title>Node7</title>
<g id="a_node7"><a xlink:href="classbackend_1_1_int64_numeric_value_converter.html" target="_top" xlink:title="This converter converts 8&#45;byte value to stringlized int64_t type.">
<polygon fill="none" stroke="black" points="967,-0.5 967,-68.5 1140,-68.5 1140,-0.5 967,-0.5"/>
<text text-anchor="start" x="975" y="-56.5" font-family="JetBrains Mono" font-size="10.00">backend::Int64NumericValue</text>
<text text-anchor="middle" x="1053.5" y="-45.5" font-family="JetBrains Mono" font-size="10.00">Converter</text>
<polyline fill="none" stroke="black" points="967,-38.5 1140,-38.5 "/>
<text text-anchor="middle" x="1053.5" y="-26.5" font-family="JetBrains Mono" font-size="10.00"> </text>
<polyline fill="none" stroke="black" points="967,-19.5 1140,-19.5 "/>
<text text-anchor="start" x="975" y="-7.5" font-family="JetBrains Mono" font-size="10.00">+ getValue()</text>
</a>
</g>
</g>
<!-- Node1&#45;&gt;Node7 -->
<g id="edge6" class="edge">
<title>Node1&#45;&gt;Node7</title>
<path fill="none" stroke="midnightblue" d="M925.62,-100.78C945.91,-90.42 968.42,-78.93 988.83,-68.51"/>
<polygon fill="none" stroke="midnightblue" points="923.78,-97.79 916.47,-105.45 926.97,-104.02 923.78,-97.79"/>
</g>
<!-- Node8 -->
<g id="node8" class="node">
<title>Node8</title>
<g id="a_node8"><a xlink:href="classbackend_1_1_int8_numeric_value_converter.html" target="_top" xlink:title="This converter converts 1&#45;byte value to stringlized int8_t type.">
<polygon fill="none" stroke="black" points="1158,-0.5 1158,-68.5 1325,-68.5 1325,-0.5 1158,-0.5"/>
<text text-anchor="start" x="1166" y="-56.5" font-family="JetBrains Mono" font-size="10.00">backend::Int8NumericValue</text>
<text text-anchor="middle" x="1241.5" y="-45.5" font-family="JetBrains Mono" font-size="10.00">Converter</text>
<polyline fill="none" stroke="black" points="1158,-38.5 1325,-38.5 "/>
<text text-anchor="middle" x="1241.5" y="-26.5" font-family="JetBrains Mono" font-size="10.00"> </text>
<polyline fill="none" stroke="black" points="1158,-19.5 1325,-19.5 "/>
<text text-anchor="start" x="1166" y="-7.5" font-family="JetBrains Mono" font-size="10.00">+ getValue()</text>
</a>
</g>
</g>
<!-- Node1&#45;&gt;Node8 -->
<g id="edge7" class="edge">
<title>Node1&#45;&gt;Node8</title>
<path fill="none" stroke="midnightblue" d="M974.11,-111.63C1027.59,-100.49 1092.3,-85.72 1149.5,-69 1152.27,-68.19 1155.08,-67.34 1157.92,-66.46"/>
<polygon fill="none" stroke="midnightblue" points="973.35,-108.21 964.26,-113.66 974.76,-115.07 973.35,-108.21"/>
</g>
<!-- Node9 -->
<g id="node9" class="node">
<title>Node9</title>
<g id="a_node9"><a xlink:href="classbackend_1_1_ptr_value_converter.html" target="_top" xlink:title="Converts a 1&#45;byte value to a pointer type.">
<polygon fill="none" stroke="black" points="1343,-6 1343,-63 1516,-63 1516,-6 1343,-6"/>
<text text-anchor="middle" x="1429.5" y="-51" font-family="JetBrains Mono" font-size="10.00">backend::PtrValueConverter</text>
<polyline fill="none" stroke="black" points="1343,-44 1516,-44 "/>
<text text-anchor="middle" x="1429.5" y="-32" font-family="JetBrains Mono" font-size="10.00"> </text>
<polyline fill="none" stroke="black" points="1343,-25 1516,-25 "/>
<text text-anchor="start" x="1351" y="-13" font-family="JetBrains Mono" font-size="10.00">+ getValue()</text>
</a>
</g>
</g>
<!-- Node1&#45;&gt;Node9 -->
<g id="edge8" class="edge">
<title>Node1&#45;&gt;Node9</title>
<path fill="none" stroke="midnightblue" d="M974.49,-124.31C1070.88,-115.29 1213.19,-98.29 1334.5,-69 1341.56,-67.3 1348.82,-65.27 1356.04,-63.06"/>
<polygon fill="none" stroke="midnightblue" points="974.07,-120.83 964.43,-125.23 974.71,-127.8 974.07,-120.83"/>
</g>
<!-- Node10 -->
<g id="node10" class="node">
<title>Node10</title>
<g id="a_node10"><a xlink:href="classbackend_1_1_unsigned_numeric_value_converter.html" target="_top" xlink:title="This converter converts several bytes to unsigned numeric value.">
<polygon fill="none" stroke="black" points="1534,-0.5 1534,-68.5 1695,-68.5 1695,-0.5 1534,-0.5"/>
<text text-anchor="start" x="1542" y="-56.5" font-family="JetBrains Mono" font-size="10.00">backend::UnsignedNumeric</text>
<text text-anchor="middle" x="1614.5" y="-45.5" font-family="JetBrains Mono" font-size="10.00">ValueConverter</text>
<polyline fill="none" stroke="black" points="1534,-38.5 1695,-38.5 "/>
<text text-anchor="middle" x="1614.5" y="-26.5" font-family="JetBrains Mono" font-size="10.00"> </text>
<polyline fill="none" stroke="black" points="1534,-19.5 1695,-19.5 "/>
<text text-anchor="start" x="1542" y="-7.5" font-family="JetBrains Mono" font-size="10.00">+ getValue()</text>
</a>
</g>
</g>
<!-- Node1&#45;&gt;Node10 -->
<g id="edge9" class="edge">
<title>Node1&#45;&gt;Node10</title>
<path fill="none" stroke="midnightblue" d="M974.28,-131.16C1107.24,-126.93 1335.16,-113.19 1525.5,-69 1528.23,-68.37 1531,-67.67 1533.77,-66.92"/>
<polygon fill="none" stroke="midnightblue" points="973.97,-127.67 964.08,-131.47 974.18,-134.66 973.97,-127.67"/>
</g>
</g>
</svg>
