<?xml version="1.0" encoding="UTF-8" standalone="no"?>
<!DOCTYPE svg PUBLIC "-//W3C//DTD SVG 1.1//EN"
 "http://www.w3.org/Graphics/SVG/1.1/DTD/svg11.dtd">
<!-- Generated by graphviz version 2.48.0 (20210717.1556)
 -->
<!-- Title: interface::Converter Pages: 1 -->
<svg width="187pt" height="215pt"
 viewBox="0.00 0.00 187.00 215.00" xmlns="http://www.w3.org/2000/svg" xmlns:xlink="http://www.w3.org/1999/xlink">
<g id="graph0" class="graph" transform="scale(1 1) rotate(0) translate(4 211)">
<title>interface::Converter</title>
<!-- Node1 -->
<g id="node1" class="node">
<title>Node1</title>
<g id="a_node1"><a xlink:title="Converter common interface.">
<polygon fill="#bfbfbf" stroke="black" points="0,-127.5 0,-206.5 179,-206.5 179,-127.5 0,-127.5"/>
<text text-anchor="middle" x="89.5" y="-194.5" font-family="JetBrains Mono" font-size="10.00">interface::Converter</text>
<polyline fill="none" stroke="black" points="0,-187.5 179,-187.5 "/>
<text text-anchor="middle" x="89.5" y="-175.5" font-family="JetBrains Mono" font-size="10.00"> </text>
<polyline fill="none" stroke="black" points="0,-168.5 179,-168.5 "/>
<text text-anchor="start" x="8" y="-156.5" font-family="JetBrains Mono" font-size="10.00">+ setPack()</text>
<text text-anchor="start" x="8" y="-145.5" font-family="JetBrains Mono" font-size="10.00">+ getConvertedTransaction()</text>
<text text-anchor="start" x="8" y="-134.5" font-family="JetBrains Mono" font-size="10.00">+ reset()</text>
</a>
</g>
</g>
<!-- Node2 -->
<g id="node2" class="node">
<title>Node2</title>
<g id="a_node2"><a xlink:href="classbackend_1_1_converter.html" target="_top" xlink:title="This class converts TransactionDataPackage objects to Transaction.">
<polygon fill="none" stroke="black" points="0,-0.5 0,-90.5 179,-90.5 179,-0.5 0,-0.5"/>
<text text-anchor="middle" x="89.5" y="-78.5" font-family="JetBrains Mono" font-size="10.00">backend::Converter</text>
<polyline fill="none" stroke="black" points="0,-71.5 179,-71.5 "/>
<text text-anchor="middle" x="89.5" y="-59.5" font-family="JetBrains Mono" font-size="10.00"> </text>
<polyline fill="none" stroke="black" points="0,-52.5 179,-52.5 "/>
<text text-anchor="start" x="8" y="-40.5" font-family="JetBrains Mono" font-size="10.00">+ Converter()</text>
<text text-anchor="start" x="8" y="-29.5" font-family="JetBrains Mono" font-size="10.00">+ getConvertedTransaction()</text>
<text text-anchor="start" x="8" y="-18.5" font-family="JetBrains Mono" font-size="10.00">+ reset()</text>
<text text-anchor="start" x="8" y="-7.5" font-family="JetBrains Mono" font-size="10.00">+ setPack()</text>
</a>
</g>
</g>
<!-- Node1&#45;&gt;Node2 -->
<g id="edge1" class="edge">
<title>Node1&#45;&gt;Node2</title>
<path fill="none" stroke="midnightblue" d="M89.5,-117.19C89.5,-108.49 89.5,-99.48 89.5,-90.91"/>
<polygon fill="none" stroke="midnightblue" points="86,-117.2 89.5,-127.2 93,-117.2 86,-117.2"/>
</g>
</g>
</svg>
