<?xml version="1.0" encoding="UTF-8" standalone="no"?>
<!DOCTYPE svg PUBLIC "-//W3C//DTD SVG 1.1//EN"
 "http://www.w3.org/Graphics/SVG/1.1/DTD/svg11.dtd">
<!-- Generated by graphviz version 2.48.0 (20210717.1556)
 -->
<!-- Title: bridge::Terminal&lt; BufferType, PortOperatorType &gt; Pages: 1 -->
<svg width="261pt" height="526pt"
 viewBox="0.00 0.00 260.50 526.00" xmlns="http://www.w3.org/2000/svg" xmlns:xlink="http://www.w3.org/1999/xlink">
<g id="graph0" class="graph" transform="scale(1 1) rotate(0) translate(4 522)">
<title>bridge::Terminal&lt; BufferType, PortOperatorType &gt;</title>
<!-- Node1 -->
<g id="node1" class="node">
<title>Node1</title>
<g id="a_node1"><a xlink:title="This class object is direct binding with terminal window in QML.">
<polygon fill="#bfbfbf" stroke="black" points="3,-171.5 3,-283.5 164,-283.5 164,-171.5 3,-171.5"/>
<text text-anchor="start" x="11" y="-271.5" font-family="JetBrains Mono" font-size="10.00">bridge::Terminal&lt; Buffer</text>
<text text-anchor="middle" x="83.5" y="-260.5" font-family="JetBrains Mono" font-size="10.00">Type, PortOperatorType &gt;</text>
<polyline fill="none" stroke="black" points="3,-253.5 164,-253.5 "/>
<text text-anchor="middle" x="83.5" y="-241.5" font-family="JetBrains Mono" font-size="10.00"> </text>
<polyline fill="none" stroke="black" points="3,-234.5 164,-234.5 "/>
<text text-anchor="start" x="11" y="-222.5" font-family="JetBrains Mono" font-size="10.00">+ applySettings()</text>
<text text-anchor="start" x="11" y="-211.5" font-family="JetBrains Mono" font-size="10.00">+ openPort()</text>
<text text-anchor="start" x="11" y="-200.5" font-family="JetBrains Mono" font-size="10.00">+ closeAllPorts()</text>
<text text-anchor="start" x="11" y="-189.5" font-family="JetBrains Mono" font-size="10.00">+ restorePorts()</text>
<text text-anchor="start" x="11" y="-178.5" font-family="JetBrains Mono" font-size="10.00">+ sendData()</text>
</a>
</g>
</g>
<!-- Node4 -->
<g id="node4" class="node">
<title>Node4</title>
<g id="a_node4"><a xlink:href="classbridge_1_1_terminal.html" target="_top" xlink:title=" ">
<polygon fill="none" stroke="black" points="0,-0.5 0,-112.5 167,-112.5 167,-0.5 0,-0.5"/>
<text text-anchor="start" x="8" y="-100.5" font-family="JetBrains Mono" font-size="10.00">bridge::Terminal&lt; Buffer</text>
<text text-anchor="middle" x="83.5" y="-89.5" font-family="JetBrains Mono" font-size="10.00">Type, PortOperatortType &gt;</text>
<polyline fill="none" stroke="black" points="0,-82.5 167,-82.5 "/>
<text text-anchor="middle" x="83.5" y="-70.5" font-family="JetBrains Mono" font-size="10.00"> </text>
<polyline fill="none" stroke="black" points="0,-63.5 167,-63.5 "/>
<text text-anchor="start" x="8" y="-51.5" font-family="JetBrains Mono" font-size="10.00">+ applySettings()</text>
<text text-anchor="start" x="8" y="-40.5" font-family="JetBrains Mono" font-size="10.00">+ openPort()</text>
<text text-anchor="start" x="8" y="-29.5" font-family="JetBrains Mono" font-size="10.00">+ closeAllPorts()</text>
<text text-anchor="start" x="8" y="-18.5" font-family="JetBrains Mono" font-size="10.00">+ restorePorts()</text>
<text text-anchor="start" x="8" y="-7.5" font-family="JetBrains Mono" font-size="10.00">+ sendData()</text>
</a>
</g>
</g>
<!-- Node1&#45;&gt;Node4 -->
<g id="edge3" class="edge">
<title>Node1&#45;&gt;Node4</title>
<path fill="none" stroke="orange" d="M83.5,-160.86C83.5,-144.93 83.5,-128.06 83.5,-112.67"/>
<polygon fill="orange" stroke="orange" points="80,-161.16 83.5,-171.16 87,-161.16 80,-161.16"/>
<text text-anchor="start" x="83.5" y="-145" font-family="JetBrains Mono" font-size="10.00"> &lt; BufferType, PortOperatort</text>
<text text-anchor="middle" x="168" y="-134" font-family="JetBrains Mono" font-size="10.00">Type &gt;</text>
</g>
<!-- Node2 -->
<g id="node2" class="node">
<title>Node2</title>
<g id="a_node2"><a xlink:href="classbridge_1_1_terminal_base.html" target="_top" xlink:title="This is base class for a terminal window direct binding.">
<polygon fill="none" stroke="black" points="15,-321.5 15,-422.5 152,-422.5 152,-321.5 15,-321.5"/>
<text text-anchor="middle" x="83.5" y="-410.5" font-family="JetBrains Mono" font-size="10.00">bridge::TerminalBase</text>
<polyline fill="none" stroke="black" points="15,-403.5 152,-403.5 "/>
<text text-anchor="middle" x="83.5" y="-391.5" font-family="JetBrains Mono" font-size="10.00"> </text>
<polyline fill="none" stroke="black" points="15,-384.5 152,-384.5 "/>
<text text-anchor="start" x="23" y="-372.5" font-family="JetBrains Mono" font-size="10.00">+ applySettings()</text>
<text text-anchor="start" x="23" y="-361.5" font-family="JetBrains Mono" font-size="10.00">+ openPort()</text>
<text text-anchor="start" x="23" y="-350.5" font-family="JetBrains Mono" font-size="10.00">+ closeAllPorts()</text>
<text text-anchor="start" x="23" y="-339.5" font-family="JetBrains Mono" font-size="10.00">+ restorePorts()</text>
<text text-anchor="start" x="23" y="-328.5" font-family="JetBrains Mono" font-size="10.00">+ sendData()</text>
</a>
</g>
</g>
<!-- Node2&#45;&gt;Node1 -->
<g id="edge1" class="edge">
<title>Node2&#45;&gt;Node1</title>
<path fill="none" stroke="midnightblue" d="M83.5,-311.11C83.5,-302.1 83.5,-292.83 83.5,-283.91"/>
<polygon fill="none" stroke="midnightblue" points="80,-311.16 83.5,-321.16 87,-311.16 80,-311.16"/>
</g>
<!-- Node3 -->
<g id="node3" class="node">
<title>Node3</title>
<g id="a_node3"><a xlink:title=" ">
<polygon fill="none" stroke="#bfbfbf" points="54,-460.5 54,-517.5 113,-517.5 113,-460.5 54,-460.5"/>
<text text-anchor="middle" x="83.5" y="-505.5" font-family="JetBrains Mono" font-size="10.00">QObject</text>
<polyline fill="none" stroke="#bfbfbf" points="54,-498.5 113,-498.5 "/>
<text text-anchor="middle" x="83.5" y="-486.5" font-family="JetBrains Mono" font-size="10.00"> </text>
<polyline fill="none" stroke="#bfbfbf" points="54,-479.5 113,-479.5 "/>
<text text-anchor="middle" x="83.5" y="-467.5" font-family="JetBrains Mono" font-size="10.00"> </text>
</a>
</g>
</g>
<!-- Node3&#45;&gt;Node2 -->
<g id="edge2" class="edge">
<title>Node3&#45;&gt;Node2</title>
<path fill="none" stroke="midnightblue" d="M83.5,-450.19C83.5,-441.43 83.5,-431.99 83.5,-422.81"/>
<polygon fill="none" stroke="midnightblue" points="80,-450.45 83.5,-460.45 87,-450.45 80,-450.45"/>
</g>
</g>
</svg>
