<?xml version="1.0" encoding="UTF-8" standalone="no"?>
<!DOCTYPE svg PUBLIC "-//W3C//DTD SVG 1.1//EN"
 "http://www.w3.org/Graphics/SVG/1.1/DTD/svg11.dtd">
<!-- Generated by graphviz version 2.48.0 (20210717.1556)
 -->
<!-- Title: backend::CurrentValueParser Pages: 1 -->
<svg width="187pt" height="535pt"
 viewBox="0.00 0.00 187.00 535.00" xmlns="http://www.w3.org/2000/svg" xmlns:xlink="http://www.w3.org/1999/xlink">
<g id="graph0" class="graph" transform="scale(1 1) rotate(0) translate(4 531)">
<title>backend::CurrentValueParser</title>
<!-- Node1 -->
<g id="node1" class="node">
<title>Node1</title>
<g id="a_node1"><a xlink:title="Redirects number&#39;s bytes to unit test current value.">
<polygon fill="#bfbfbf" stroke="black" points="0,-0.5 0,-57.5 179,-57.5 179,-0.5 0,-0.5"/>
<text text-anchor="middle" x="89.5" y="-45.5" font-family="JetBrains Mono" font-size="10.00">backend::CurrentValueParser</text>
<polyline fill="none" stroke="black" points="0,-38.5 179,-38.5 "/>
<text text-anchor="middle" x="89.5" y="-26.5" font-family="JetBrains Mono" font-size="10.00"> </text>
<polyline fill="none" stroke="black" points="0,-19.5 179,-19.5 "/>
<text text-anchor="start" x="8" y="-7.5" font-family="JetBrains Mono" font-size="10.00"># redirectValueBytes()</text>
</a>
</g>
</g>
<!-- Node2 -->
<g id="node2" class="node">
<title>Node2</title>
<g id="a_node2"><a xlink:href="classbackend_1_1_value_parser.html" target="_top" xlink:title="Base class for parsers which parses a numeric value.">
<polygon fill="none" stroke="black" points="15,-94.5 15,-162.5 164,-162.5 164,-94.5 15,-94.5"/>
<text text-anchor="middle" x="89.5" y="-150.5" font-family="JetBrains Mono" font-size="10.00">backend::ValueParser</text>
<polyline fill="none" stroke="black" points="15,-143.5 164,-143.5 "/>
<text text-anchor="middle" x="89.5" y="-131.5" font-family="JetBrains Mono" font-size="10.00"> </text>
<polyline fill="none" stroke="black" points="15,-124.5 164,-124.5 "/>
<text text-anchor="start" x="23" y="-112.5" font-family="JetBrains Mono" font-size="10.00"># parseCommand()</text>
<text text-anchor="start" x="23" y="-101.5" font-family="JetBrains Mono" font-size="10.00"># redirectValueBytes()</text>
</a>
</g>
</g>
<!-- Node2&#45;&gt;Node1 -->
<g id="edge1" class="edge">
<title>Node2&#45;&gt;Node1</title>
<path fill="none" stroke="midnightblue" d="M89.5,-84.45C89.5,-75.4 89.5,-66.09 89.5,-57.78"/>
<polygon fill="none" stroke="midnightblue" points="86,-84.49 89.5,-94.49 93,-84.49 86,-84.49"/>
</g>
<!-- Node3 -->
<g id="node3" class="node">
<title>Node3</title>
<g id="a_node3"><a xlink:href="classbackend_1_1_parser_component.html" target="_top" xlink:title="This is the base class for all parsers in the parsing tree.">
<polygon fill="none" stroke="black" points="9,-199.5 9,-344.5 170,-344.5 170,-199.5 9,-199.5"/>
<text text-anchor="middle" x="89.5" y="-332.5" font-family="JetBrains Mono" font-size="10.00">backend::ParserComponent</text>
<polyline fill="none" stroke="black" points="9,-325.5 170,-325.5 "/>
<text text-anchor="start" x="17" y="-313.5" font-family="JetBrains Mono" font-size="10.00"># parent_</text>
<text text-anchor="start" x="17" y="-302.5" font-family="JetBrains Mono" font-size="10.00"># buffer_</text>
<text text-anchor="start" x="17" y="-291.5" font-family="JetBrains Mono" font-size="10.00"># package_</text>
<text text-anchor="start" x="17" y="-280.5" font-family="JetBrains Mono" font-size="10.00"># current_type_</text>
<polyline fill="none" stroke="black" points="9,-273.5 170,-273.5 "/>
<text text-anchor="start" x="17" y="-261.5" font-family="JetBrains Mono" font-size="10.00">+ getParent()</text>
<text text-anchor="start" x="17" y="-250.5" font-family="JetBrains Mono" font-size="10.00">+ setParent()</text>
<text text-anchor="start" x="17" y="-239.5" font-family="JetBrains Mono" font-size="10.00">+ addChild()</text>
<text text-anchor="start" x="17" y="-228.5" font-family="JetBrains Mono" font-size="10.00">+ isComposite()</text>
<text text-anchor="start" x="17" y="-217.5" font-family="JetBrains Mono" font-size="10.00">+ setBuffer()</text>
<text text-anchor="start" x="17" y="-206.5" font-family="JetBrains Mono" font-size="10.00"># createPackage()</text>
</a>
</g>
</g>
<!-- Node3&#45;&gt;Node2 -->
<g id="edge2" class="edge">
<title>Node3&#45;&gt;Node2</title>
<path fill="none" stroke="midnightblue" d="M89.5,-189.19C89.5,-179.83 89.5,-170.73 89.5,-162.58"/>
<polygon fill="none" stroke="midnightblue" points="86,-189.42 89.5,-199.42 93,-189.42 86,-189.42"/>
</g>
<!-- Node4 -->
<g id="node4" class="node">
<title>Node4</title>
<g id="a_node4"><a xlink:href="classinterface_1_1_parser_component.html" target="_top" xlink:title="ParserComponent common interface.">
<polygon fill="none" stroke="black" points="3,-381.5 3,-526.5 176,-526.5 176,-381.5 3,-381.5"/>
<text text-anchor="middle" x="89.5" y="-514.5" font-family="JetBrains Mono" font-size="10.00">interface::ParserComponent</text>
<polyline fill="none" stroke="black" points="3,-507.5 176,-507.5 "/>
<text text-anchor="middle" x="89.5" y="-495.5" font-family="JetBrains Mono" font-size="10.00"> </text>
<polyline fill="none" stroke="black" points="3,-488.5 176,-488.5 "/>
<text text-anchor="start" x="11" y="-476.5" font-family="JetBrains Mono" font-size="10.00">+ getParent()</text>
<text text-anchor="start" x="11" y="-465.5" font-family="JetBrains Mono" font-size="10.00">+ setParent()</text>
<text text-anchor="start" x="11" y="-454.5" font-family="JetBrains Mono" font-size="10.00">+ addChild()</text>
<text text-anchor="start" x="11" y="-443.5" font-family="JetBrains Mono" font-size="10.00">+ isComposite()</text>
<text text-anchor="start" x="11" y="-432.5" font-family="JetBrains Mono" font-size="10.00">+ setBuffer()</text>
<text text-anchor="start" x="11" y="-421.5" font-family="JetBrains Mono" font-size="10.00">+ parseCommand()</text>
<text text-anchor="start" x="11" y="-410.5" font-family="JetBrains Mono" font-size="10.00">+ createPackage()</text>
<text text-anchor="start" x="11" y="-399.5" font-family="JetBrains Mono" font-size="10.00">+ getPackage()</text>
<text text-anchor="start" x="11" y="-388.5" font-family="JetBrains Mono" font-size="10.00">+ startProcessing()</text>
</a>
</g>
</g>
<!-- Node4&#45;&gt;Node3 -->
<g id="edge3" class="edge">
<title>Node4&#45;&gt;Node3</title>
<path fill="none" stroke="midnightblue" d="M89.5,-371.08C89.5,-362.28 89.5,-353.37 89.5,-344.71"/>
<polygon fill="none" stroke="midnightblue" points="86,-371.34 89.5,-381.34 93,-371.34 86,-371.34"/>
</g>
</g>
</svg>
