<?xml version="1.0" encoding="UTF-8" standalone="no"?>
<!DOCTYPE svg PUBLIC "-//W3C//DTD SVG 1.1//EN"
 "http://www.w3.org/Graphics/SVG/1.1/DTD/svg11.dtd">
<!-- Generated by graphviz version 2.48.0 (20210717.1556)
 -->
<!-- Title: backend::ValueParser Pages: 1 -->
<svg width="455pt" height="515pt"
 viewBox="0.00 0.00 455.00 515.00" xmlns="http://www.w3.org/2000/svg" xmlns:xlink="http://www.w3.org/1999/xlink">
<g id="graph0" class="graph" transform="scale(1 1) rotate(0) translate(4 511)">
<title>backend::ValueParser</title>
<!-- Node1 -->
<g id="node1" class="node">
<title>Node1</title>
<g id="a_node1"><a xlink:title="Base class for parsers which parses a numeric value.">
<polygon fill="#bfbfbf" stroke="black" points="124,-0.5 124,-68.5 273,-68.5 273,-0.5 124,-0.5"/>
<text text-anchor="middle" x="198.5" y="-56.5" font-family="JetBrains Mono" font-size="10.00">backend::ValueParser</text>
<polyline fill="none" stroke="black" points="124,-49.5 273,-49.5 "/>
<text text-anchor="middle" x="198.5" y="-37.5" font-family="JetBrains Mono" font-size="10.00"> </text>
<polyline fill="none" stroke="black" points="124,-30.5 273,-30.5 "/>
<text text-anchor="start" x="132" y="-18.5" font-family="JetBrains Mono" font-size="10.00"># parseCommand()</text>
<text text-anchor="start" x="132" y="-7.5" font-family="JetBrains Mono" font-size="10.00"># redirectValueBytes()</text>
</a>
</g>
</g>
<!-- Node2 -->
<g id="node2" class="node">
<title>Node2</title>
<g id="a_node2"><a xlink:href="classbackend_1_1_parser_component.html" target="_top" xlink:title="This is the base class for all parsers in the parsing tree.">
<polygon fill="none" stroke="black" points="118,-106.5 118,-218.5 279,-218.5 279,-106.5 118,-106.5"/>
<text text-anchor="middle" x="198.5" y="-206.5" font-family="JetBrains Mono" font-size="10.00">backend::ParserComponent</text>
<polyline fill="none" stroke="black" points="118,-199.5 279,-199.5 "/>
<text text-anchor="start" x="126" y="-187.5" font-family="JetBrains Mono" font-size="10.00"># current_type_</text>
<polyline fill="none" stroke="black" points="118,-180.5 279,-180.5 "/>
<text text-anchor="start" x="126" y="-168.5" font-family="JetBrains Mono" font-size="10.00">+ getParent()</text>
<text text-anchor="start" x="126" y="-157.5" font-family="JetBrains Mono" font-size="10.00">+ setParent()</text>
<text text-anchor="start" x="126" y="-146.5" font-family="JetBrains Mono" font-size="10.00">+ addChild()</text>
<text text-anchor="start" x="126" y="-135.5" font-family="JetBrains Mono" font-size="10.00">+ isComposite()</text>
<text text-anchor="start" x="126" y="-124.5" font-family="JetBrains Mono" font-size="10.00">+ setBuffer()</text>
<text text-anchor="start" x="126" y="-113.5" font-family="JetBrains Mono" font-size="10.00"># createPackage()</text>
</a>
</g>
</g>
<!-- Node2&#45;&gt;Node1 -->
<g id="edge1" class="edge">
<title>Node2&#45;&gt;Node1</title>
<path fill="none" stroke="midnightblue" d="M198.5,-95.96C198.5,-86.48 198.5,-77.08 198.5,-68.62"/>
<polygon fill="none" stroke="midnightblue" points="195,-96.23 198.5,-106.23 202,-96.23 195,-96.23"/>
</g>
<!-- Node3 -->
<g id="node3" class="node">
<title>Node3</title>
<g id="a_node3"><a xlink:href="classinterface_1_1_parser_component.html" target="_top" xlink:title="ParserComponent common interface.">
<polygon fill="none" stroke="black" points="0,-266.5 0,-411.5 173,-411.5 173,-266.5 0,-266.5"/>
<text text-anchor="middle" x="86.5" y="-399.5" font-family="JetBrains Mono" font-size="10.00">interface::ParserComponent</text>
<polyline fill="none" stroke="black" points="0,-392.5 173,-392.5 "/>
<text text-anchor="middle" x="86.5" y="-380.5" font-family="JetBrains Mono" font-size="10.00"> </text>
<polyline fill="none" stroke="black" points="0,-373.5 173,-373.5 "/>
<text text-anchor="start" x="8" y="-361.5" font-family="JetBrains Mono" font-size="10.00">+ getParent()</text>
<text text-anchor="start" x="8" y="-350.5" font-family="JetBrains Mono" font-size="10.00">+ setParent()</text>
<text text-anchor="start" x="8" y="-339.5" font-family="JetBrains Mono" font-size="10.00">+ addChild()</text>
<text text-anchor="start" x="8" y="-328.5" font-family="JetBrains Mono" font-size="10.00">+ isComposite()</text>
<text text-anchor="start" x="8" y="-317.5" font-family="JetBrains Mono" font-size="10.00">+ setBuffer()</text>
<text text-anchor="start" x="8" y="-306.5" font-family="JetBrains Mono" font-size="10.00">+ parseCommand()</text>
<text text-anchor="start" x="8" y="-295.5" font-family="JetBrains Mono" font-size="10.00">+ createPackage()</text>
<text text-anchor="start" x="8" y="-284.5" font-family="JetBrains Mono" font-size="10.00">+ getPackage()</text>
<text text-anchor="start" x="8" y="-273.5" font-family="JetBrains Mono" font-size="10.00">+ startProcessing()</text>
</a>
</g>
</g>
<!-- Node3&#45;&gt;Node2 -->
<g id="edge2" class="edge">
<title>Node3&#45;&gt;Node2</title>
<path fill="none" stroke="midnightblue" d="M115.88,-257.4C119.45,-250.32 123.33,-243.41 127.5,-237 131.56,-230.75 136.21,-224.58 141.13,-218.62"/>
<polygon fill="none" stroke="midnightblue" points="112.71,-255.92 111.52,-266.45 119.01,-258.96 112.71,-255.92"/>
</g>
<!-- Node3&#45;&gt;Node2 -->
<g id="edge6" class="edge">
<title>Node3&#45;&gt;Node2</title>
<path fill="none" stroke="#404040" d="M132.54,-266.27C140.51,-253.86 148.75,-241.01 156.6,-228.78"/>
<polygon fill="none" stroke="#404040" points="156.6,-228.78 156.48,-221.57 163.08,-218.68 163.21,-225.89 156.6,-228.78"/>
<text text-anchor="middle" x="176" y="-240" font-family="JetBrains Mono" font-size="10.00"> #parent_</text>
</g>
<!-- Node4 -->
<g id="node4" class="node">
<title>Node4</title>
<g id="a_node4"><a xlink:title=" ">
<polygon fill="none" stroke="#bfbfbf" points="191,-310.5 191,-367.5 286,-367.5 286,-310.5 191,-310.5"/>
<text text-anchor="middle" x="238.5" y="-355.5" font-family="JetBrains Mono" font-size="10.00">AcceptedTypes</text>
<polyline fill="none" stroke="#bfbfbf" points="191,-348.5 286,-348.5 "/>
<text text-anchor="middle" x="238.5" y="-336.5" font-family="JetBrains Mono" font-size="10.00"> </text>
<polyline fill="none" stroke="#bfbfbf" points="191,-329.5 286,-329.5 "/>
<text text-anchor="middle" x="238.5" y="-317.5" font-family="JetBrains Mono" font-size="10.00"> </text>
</a>
</g>
</g>
<!-- Node4&#45;&gt;Node2 -->
<g id="edge3" class="edge">
<title>Node4&#45;&gt;Node2</title>
<path fill="none" stroke="#404040" d="M232.16,-310.35C227.27,-289 220.29,-258.54 213.95,-230.88"/>
<polygon fill="none" stroke="#404040" points="213.86,-230.53 208.63,-225.57 211.18,-218.83 216.42,-223.79 213.86,-230.53"/>
<text text-anchor="middle" x="247" y="-240" font-family="JetBrains Mono" font-size="10.00"> #package_</text>
</g>
<!-- Node5 -->
<g id="node5" class="node">
<title>Node5</title>
<g id="a_node5"><a xlink:href="classinterface_1_1_byte_buffer.html" target="_top" xlink:title="ByteBuffer common interface.">
<polygon fill="none" stroke="black" points="304,-272 304,-406 447,-406 447,-272 304,-272"/>
<text text-anchor="middle" x="375.5" y="-394" font-family="JetBrains Mono" font-size="10.00">interface::ByteBuffer</text>
<polyline fill="none" stroke="black" points="304,-387 447,-387 "/>
<text text-anchor="middle" x="375.5" y="-375" font-family="JetBrains Mono" font-size="10.00"> </text>
<polyline fill="none" stroke="black" points="304,-368 447,-368 "/>
<text text-anchor="start" x="312" y="-356" font-family="JetBrains Mono" font-size="10.00">+ ~ByteBuffer()</text>
<text text-anchor="start" x="312" y="-345" font-family="JetBrains Mono" font-size="10.00">+ appendBytes()</text>
<text text-anchor="start" x="312" y="-334" font-family="JetBrains Mono" font-size="10.00">+ appendByte()</text>
<text text-anchor="start" x="312" y="-323" font-family="JetBrains Mono" font-size="10.00">+ getAllBytes()</text>
<text text-anchor="start" x="312" y="-312" font-family="JetBrains Mono" font-size="10.00">+ getBytes()</text>
<text text-anchor="start" x="312" y="-301" font-family="JetBrains Mono" font-size="10.00">+ getByte()</text>
<text text-anchor="start" x="312" y="-290" font-family="JetBrains Mono" font-size="10.00">+ isEmpty()</text>
<text text-anchor="start" x="312" y="-279" font-family="JetBrains Mono" font-size="10.00">+ size()</text>
</a>
</g>
</g>
<!-- Node5&#45;&gt;Node2 -->
<g id="edge4" class="edge">
<title>Node5&#45;&gt;Node2</title>
<path fill="none" stroke="#404040" d="M315.72,-271.92C304.55,-260.1 292.82,-248.04 281.5,-237 278.11,-233.69 274.6,-230.34 271.04,-226.99"/>
<polygon fill="none" stroke="#404040" points="270.86,-226.83 263.75,-225.67 262.07,-218.66 269.19,-219.81 270.86,-226.83"/>
<text text-anchor="middle" x="319" y="-240" font-family="JetBrains Mono" font-size="10.00"> #buffer_</text>
</g>
<!-- Node6 -->
<g id="node6" class="node">
<title>Node6</title>
<g id="a_node6"><a xlink:title=" ">
<polygon fill="none" stroke="#bfbfbf" points="346,-449.5 346,-506.5 405,-506.5 405,-449.5 346,-449.5"/>
<text text-anchor="middle" x="375.5" y="-494.5" font-family="JetBrains Mono" font-size="10.00">QObject</text>
<polyline fill="none" stroke="#bfbfbf" points="346,-487.5 405,-487.5 "/>
<text text-anchor="middle" x="375.5" y="-475.5" font-family="JetBrains Mono" font-size="10.00"> </text>
<polyline fill="none" stroke="#bfbfbf" points="346,-468.5 405,-468.5 "/>
<text text-anchor="middle" x="375.5" y="-456.5" font-family="JetBrains Mono" font-size="10.00"> </text>
</a>
</g>
</g>
<!-- Node6&#45;&gt;Node5 -->
<g id="edge5" class="edge">
<title>Node6&#45;&gt;Node5</title>
<path fill="none" stroke="midnightblue" d="M375.5,-439.08C375.5,-428.85 375.5,-417.48 375.5,-406.19"/>
<polygon fill="none" stroke="midnightblue" points="372,-439.28 375.5,-449.28 379,-439.28 372,-439.28"/>
</g>
</g>
</svg>
