<?xml version="1.0" encoding="UTF-8" standalone="no"?>
<!DOCTYPE svg PUBLIC "-//W3C//DTD SVG 1.1//EN"
 "http://www.w3.org/Graphics/SVG/1.1/DTD/svg11.dtd">
<!-- Generated by graphviz version 2.48.0 (20210717.1556)
 -->
<!-- Title: backend::PortScanner::getCompletePortData Pages: 1 -->
<svg width="330pt" height="88pt"
 viewBox="0.00 0.00 330.00 88.00" xmlns="http://www.w3.org/2000/svg" xmlns:xlink="http://www.w3.org/1999/xlink">
<g id="graph0" class="graph" transform="scale(1 1) rotate(0) translate(4 84)">
<title>backend::PortScanner::getCompletePortData</title>
<!-- Node1 -->
<g id="node1" class="node">
<title>Node1</title>
<g id="a_node1"><a xlink:title=" ">
<polygon fill="#bfbfbf" stroke="black" points="0,-24.5 0,-54.5 143,-54.5 143,-24.5 0,-24.5"/>
<text text-anchor="start" x="8" y="-42.5" font-family="JetBrains Mono" font-size="10.00">backend::PortScanner</text>
<text text-anchor="middle" x="71.5" y="-31.5" font-family="JetBrains Mono" font-size="10.00">::getCompletePortData</text>
</a>
</g>
</g>
<!-- Node2 -->
<g id="node2" class="node">
<title>Node2</title>
<g id="a_node2"><a xlink:href="classbackend_1_1_port_scanner.html#a5b6b784a5c6bab9ff6c302f7f325d87c" target="_top" xlink:title=" ">
<polygon fill="none" stroke="black" points="179,-49.5 179,-79.5 322,-79.5 322,-49.5 179,-49.5"/>
<text text-anchor="start" x="187" y="-67.5" font-family="JetBrains Mono" font-size="10.00">backend::PortScanner</text>
<text text-anchor="middle" x="250.5" y="-56.5" font-family="JetBrains Mono" font-size="10.00">::getPortDescriptions</text>
</a>
</g>
</g>
<!-- Node1&#45;&gt;Node2 -->
<g id="edge1" class="edge">
<title>Node1&#45;&gt;Node2</title>
<path fill="none" stroke="midnightblue" d="M143.22,-49.49C151.66,-50.68 160.33,-51.91 168.9,-53.12"/>
<polygon fill="midnightblue" stroke="midnightblue" points="168.5,-56.59 178.89,-54.53 169.48,-49.66 168.5,-56.59"/>
</g>
<!-- Node3 -->
<g id="node3" class="node">
<title>Node3</title>
<g id="a_node3"><a xlink:href="classbackend_1_1_port_scanner.html#a23bce7655551aab78d3227d2df18d44b" target="_top" xlink:title=" ">
<polygon fill="none" stroke="black" points="182,-0.5 182,-30.5 319,-30.5 319,-0.5 182,-0.5"/>
<text text-anchor="start" x="190" y="-18.5" font-family="JetBrains Mono" font-size="10.00">backend::PortScanner</text>
<text text-anchor="middle" x="250.5" y="-7.5" font-family="JetBrains Mono" font-size="10.00">::getPortNames</text>
</a>
</g>
</g>
<!-- Node1&#45;&gt;Node3 -->
<g id="edge2" class="edge">
<title>Node1&#45;&gt;Node3</title>
<path fill="none" stroke="midnightblue" d="M143.22,-29.91C152.55,-28.65 162.16,-27.34 171.61,-26.06"/>
<polygon fill="midnightblue" stroke="midnightblue" points="172.33,-29.5 181.77,-24.68 171.39,-22.56 172.33,-29.5"/>
</g>
</g>
</svg>
