<?xml version="1.0" encoding="UTF-8" standalone="no"?>
<!DOCTYPE svg PUBLIC "-//W3C//DTD SVG 1.1//EN"
 "http://www.w3.org/Graphics/SVG/1.1/DTD/svg11.dtd">
<!-- Generated by graphviz version 2.48.0 (20210717.1556)
 -->
<!-- Title: backend::ExpectedValueParser Pages: 1 -->
<svg width="193pt" height="535pt"
 viewBox="0.00 0.00 193.00 535.00" xmlns="http://www.w3.org/2000/svg" xmlns:xlink="http://www.w3.org/1999/xlink">
<g id="graph0" class="graph" transform="scale(1 1) rotate(0) translate(4 531)">
<title>backend::ExpectedValueParser</title>
<!-- Node1 -->
<g id="node1" class="node">
<title>Node1</title>
<g id="a_node1"><a xlink:title="Redirects number&#39;s bytes to unit test expected value.">
<polygon fill="#bfbfbf" stroke="black" points="0,-0.5 0,-57.5 185,-57.5 185,-0.5 0,-0.5"/>
<text text-anchor="middle" x="92.5" y="-45.5" font-family="JetBrains Mono" font-size="10.00">backend::ExpectedValueParser</text>
<polyline fill="none" stroke="black" points="0,-38.5 185,-38.5 "/>
<text text-anchor="middle" x="92.5" y="-26.5" font-family="JetBrains Mono" font-size="10.00"> </text>
<polyline fill="none" stroke="black" points="0,-19.5 185,-19.5 "/>
<text text-anchor="start" x="8" y="-7.5" font-family="JetBrains Mono" font-size="10.00"># redirectValueBytes()</text>
</a>
</g>
</g>
<!-- Node2 -->
<g id="node2" class="node">
<title>Node2</title>
<g id="a_node2"><a xlink:href="classbackend_1_1_value_parser.html" target="_top" xlink:title="Base class for parsers which parses a numeric value.">
<polygon fill="none" stroke="black" points="18,-94.5 18,-162.5 167,-162.5 167,-94.5 18,-94.5"/>
<text text-anchor="middle" x="92.5" y="-150.5" font-family="JetBrains Mono" font-size="10.00">backend::ValueParser</text>
<polyline fill="none" stroke="black" points="18,-143.5 167,-143.5 "/>
<text text-anchor="middle" x="92.5" y="-131.5" font-family="JetBrains Mono" font-size="10.00"> </text>
<polyline fill="none" stroke="black" points="18,-124.5 167,-124.5 "/>
<text text-anchor="start" x="26" y="-112.5" font-family="JetBrains Mono" font-size="10.00"># parseCommand()</text>
<text text-anchor="start" x="26" y="-101.5" font-family="JetBrains Mono" font-size="10.00"># redirectValueBytes()</text>
</a>
</g>
</g>
<!-- Node2&#45;&gt;Node1 -->
<g id="edge1" class="edge">
<title>Node2&#45;&gt;Node1</title>
<path fill="none" stroke="midnightblue" d="M92.5,-84.45C92.5,-75.4 92.5,-66.09 92.5,-57.78"/>
<polygon fill="none" stroke="midnightblue" points="89,-84.49 92.5,-94.49 96,-84.49 89,-84.49"/>
</g>
<!-- Node3 -->
<g id="node3" class="node">
<title>Node3</title>
<g id="a_node3"><a xlink:href="classbackend_1_1_parser_component.html" target="_top" xlink:title="This is the base class for all parsers in the parsing tree.">
<polygon fill="none" stroke="black" points="12,-199.5 12,-344.5 173,-344.5 173,-199.5 12,-199.5"/>
<text text-anchor="middle" x="92.5" y="-332.5" font-family="JetBrains Mono" font-size="10.00">backend::ParserComponent</text>
<polyline fill="none" stroke="black" points="12,-325.5 173,-325.5 "/>
<text text-anchor="start" x="20" y="-313.5" font-family="JetBrains Mono" font-size="10.00"># parent_</text>
<text text-anchor="start" x="20" y="-302.5" font-family="JetBrains Mono" font-size="10.00"># buffer_</text>
<text text-anchor="start" x="20" y="-291.5" font-family="JetBrains Mono" font-size="10.00"># package_</text>
<text text-anchor="start" x="20" y="-280.5" font-family="JetBrains Mono" font-size="10.00"># current_type_</text>
<polyline fill="none" stroke="black" points="12,-273.5 173,-273.5 "/>
<text text-anchor="start" x="20" y="-261.5" font-family="JetBrains Mono" font-size="10.00">+ getParent()</text>
<text text-anchor="start" x="20" y="-250.5" font-family="JetBrains Mono" font-size="10.00">+ setParent()</text>
<text text-anchor="start" x="20" y="-239.5" font-family="JetBrains Mono" font-size="10.00">+ addChild()</text>
<text text-anchor="start" x="20" y="-228.5" font-family="JetBrains Mono" font-size="10.00">+ isComposite()</text>
<text text-anchor="start" x="20" y="-217.5" font-family="JetBrains Mono" font-size="10.00">+ setBuffer()</text>
<text text-anchor="start" x="20" y="-206.5" font-family="JetBrains Mono" font-size="10.00"># createPackage()</text>
</a>
</g>
</g>
<!-- Node3&#45;&gt;Node2 -->
<g id="edge2" class="edge">
<title>Node3&#45;&gt;Node2</title>
<path fill="none" stroke="midnightblue" d="M92.5,-189.19C92.5,-179.83 92.5,-170.73 92.5,-162.58"/>
<polygon fill="none" stroke="midnightblue" points="89,-189.42 92.5,-199.42 96,-189.42 89,-189.42"/>
</g>
<!-- Node4 -->
<g id="node4" class="node">
<title>Node4</title>
<g id="a_node4"><a xlink:href="classinterface_1_1_parser_component.html" target="_top" xlink:title="ParserComponent common interface.">
<polygon fill="none" stroke="black" points="6,-381.5 6,-526.5 179,-526.5 179,-381.5 6,-381.5"/>
<text text-anchor="middle" x="92.5" y="-514.5" font-family="JetBrains Mono" font-size="10.00">interface::ParserComponent</text>
<polyline fill="none" stroke="black" points="6,-507.5 179,-507.5 "/>
<text text-anchor="middle" x="92.5" y="-495.5" font-family="JetBrains Mono" font-size="10.00"> </text>
<polyline fill="none" stroke="black" points="6,-488.5 179,-488.5 "/>
<text text-anchor="start" x="14" y="-476.5" font-family="JetBrains Mono" font-size="10.00">+ getParent()</text>
<text text-anchor="start" x="14" y="-465.5" font-family="JetBrains Mono" font-size="10.00">+ setParent()</text>
<text text-anchor="start" x="14" y="-454.5" font-family="JetBrains Mono" font-size="10.00">+ addChild()</text>
<text text-anchor="start" x="14" y="-443.5" font-family="JetBrains Mono" font-size="10.00">+ isComposite()</text>
<text text-anchor="start" x="14" y="-432.5" font-family="JetBrains Mono" font-size="10.00">+ setBuffer()</text>
<text text-anchor="start" x="14" y="-421.5" font-family="JetBrains Mono" font-size="10.00">+ parseCommand()</text>
<text text-anchor="start" x="14" y="-410.5" font-family="JetBrains Mono" font-size="10.00">+ createPackage()</text>
<text text-anchor="start" x="14" y="-399.5" font-family="JetBrains Mono" font-size="10.00">+ getPackage()</text>
<text text-anchor="start" x="14" y="-388.5" font-family="JetBrains Mono" font-size="10.00">+ startProcessing()</text>
</a>
</g>
</g>
<!-- Node4&#45;&gt;Node3 -->
<g id="edge3" class="edge">
<title>Node4&#45;&gt;Node3</title>
<path fill="none" stroke="midnightblue" d="M92.5,-371.08C92.5,-362.28 92.5,-353.37 92.5,-344.71"/>
<polygon fill="none" stroke="midnightblue" points="89,-371.34 92.5,-381.34 96,-371.34 89,-371.34"/>
</g>
</g>
</svg>
