<?xml version="1.0" encoding="UTF-8" standalone="no"?>
<!DOCTYPE svg PUBLIC "-//W3C//DTD SVG 1.1//EN"
 "http://www.w3.org/Graphics/SVG/1.1/DTD/svg11.dtd">
<!-- Generated by graphviz version 2.48.0 (20210717.1556)
 -->
<!-- Title: bridge::TerminalSettings::prepareSettings Pages: 1 -->
<svg width="372pt" height="235pt"
 viewBox="0.00 0.00 372.00 235.00" xmlns="http://www.w3.org/2000/svg" xmlns:xlink="http://www.w3.org/1999/xlink">
<g id="graph0" class="graph" transform="scale(1 1) rotate(0) translate(4 231)">
<title>bridge::TerminalSettings::prepareSettings</title>
<!-- Node1 -->
<g id="node1" class="node">
<title>Node1</title>
<g id="a_node1"><a xlink:title=" ">
<polygon fill="#bfbfbf" stroke="black" points="0,-98.5 0,-128.5 161,-128.5 161,-98.5 0,-98.5"/>
<text text-anchor="start" x="8" y="-116.5" font-family="JetBrains Mono" font-size="10.00">bridge::TerminalSettings</text>
<text text-anchor="middle" x="80.5" y="-105.5" font-family="JetBrains Mono" font-size="10.00">::prepareSettings</text>
</a>
</g>
</g>
<!-- Node2 -->
<g id="node2" class="node">
<title>Node2</title>
<g id="a_node2"><a xlink:href="classbackend_1_1_port_flow_settings.html#acd26460c97cac3e9c13dbc9fa634e2ef" target="_top" xlink:title=" ">
<polygon fill="none" stroke="black" points="197,-196.5 197,-226.5 364,-226.5 364,-196.5 197,-196.5"/>
<text text-anchor="start" x="205" y="-214.5" font-family="JetBrains Mono" font-size="10.00">backend::PortFlowSettings</text>
<text text-anchor="middle" x="280.5" y="-203.5" font-family="JetBrains Mono" font-size="10.00">::setBaudRate</text>
</a>
</g>
</g>
<!-- Node1&#45;&gt;Node2 -->
<g id="edge1" class="edge">
<title>Node1&#45;&gt;Node2</title>
<path fill="none" stroke="midnightblue" d="M101.35,-128.74C123.59,-145.2 161.23,-171.25 197,-187.5 201.35,-189.48 205.91,-191.34 210.55,-193.08"/>
<polygon fill="midnightblue" stroke="midnightblue" points="209.57,-196.44 220.16,-196.48 211.9,-189.84 209.57,-196.44"/>
</g>
<!-- Node3 -->
<g id="node3" class="node">
<title>Node3</title>
<g id="a_node3"><a xlink:href="classbackend_1_1_port_flow_settings.html#a4e5a5a08eda2a07ba2c6cc5b50ee047c" target="_top" xlink:title=" ">
<polygon fill="none" stroke="black" points="197,-147.5 197,-177.5 364,-177.5 364,-147.5 197,-147.5"/>
<text text-anchor="start" x="205" y="-165.5" font-family="JetBrains Mono" font-size="10.00">backend::PortFlowSettings</text>
<text text-anchor="middle" x="280.5" y="-154.5" font-family="JetBrains Mono" font-size="10.00">::setDataBits</text>
</a>
</g>
</g>
<!-- Node1&#45;&gt;Node3 -->
<g id="edge2" class="edge">
<title>Node1&#45;&gt;Node3</title>
<path fill="none" stroke="midnightblue" d="M142.25,-128.53C163.35,-133.76 187.18,-139.65 209,-145.05"/>
<polygon fill="midnightblue" stroke="midnightblue" points="208.31,-148.49 218.86,-147.49 210,-141.69 208.31,-148.49"/>
</g>
<!-- Node4 -->
<g id="node4" class="node">
<title>Node4</title>
<g id="a_node4"><a xlink:href="classbackend_1_1_port_flow_settings.html#af70b7ad871eccc2d6532a327989f79c4" target="_top" xlink:title=" ">
<polygon fill="none" stroke="black" points="197,-98.5 197,-128.5 364,-128.5 364,-98.5 197,-98.5"/>
<text text-anchor="start" x="205" y="-116.5" font-family="JetBrains Mono" font-size="10.00">backend::PortFlowSettings</text>
<text text-anchor="middle" x="280.5" y="-105.5" font-family="JetBrains Mono" font-size="10.00">::setFlowControl</text>
</a>
</g>
</g>
<!-- Node1&#45;&gt;Node4 -->
<g id="edge3" class="edge">
<title>Node1&#45;&gt;Node4</title>
<path fill="none" stroke="midnightblue" d="M161.18,-113.5C169.51,-113.5 178.02,-113.5 186.48,-113.5"/>
<polygon fill="midnightblue" stroke="midnightblue" points="186.75,-117 196.75,-113.5 186.75,-110 186.75,-117"/>
</g>
<!-- Node5 -->
<g id="node5" class="node">
<title>Node5</title>
<g id="a_node5"><a xlink:href="classbackend_1_1_port_flow_settings.html#a4304ea1767d95d0f6ba56381c04e2d09" target="_top" xlink:title=" ">
<polygon fill="none" stroke="black" points="197,-49.5 197,-79.5 364,-79.5 364,-49.5 197,-49.5"/>
<text text-anchor="start" x="205" y="-67.5" font-family="JetBrains Mono" font-size="10.00">backend::PortFlowSettings</text>
<text text-anchor="middle" x="280.5" y="-56.5" font-family="JetBrains Mono" font-size="10.00">::setParity</text>
</a>
</g>
</g>
<!-- Node1&#45;&gt;Node5 -->
<g id="edge4" class="edge">
<title>Node1&#45;&gt;Node5</title>
<path fill="none" stroke="midnightblue" d="M142.25,-98.47C163.35,-93.24 187.18,-87.35 209,-81.95"/>
<polygon fill="midnightblue" stroke="midnightblue" points="210,-85.31 218.86,-79.51 208.31,-78.51 210,-85.31"/>
</g>
<!-- Node6 -->
<g id="node6" class="node">
<title>Node6</title>
<g id="a_node6"><a xlink:href="classbackend_1_1_port_flow_settings.html#a331344fe9294fc5cb471ab13d4016e8b" target="_top" xlink:title=" ">
<polygon fill="none" stroke="black" points="197,-0.5 197,-30.5 364,-30.5 364,-0.5 197,-0.5"/>
<text text-anchor="start" x="205" y="-18.5" font-family="JetBrains Mono" font-size="10.00">backend::PortFlowSettings</text>
<text text-anchor="middle" x="280.5" y="-7.5" font-family="JetBrains Mono" font-size="10.00">::setStopBits</text>
</a>
</g>
</g>
<!-- Node1&#45;&gt;Node6 -->
<g id="edge5" class="edge">
<title>Node1&#45;&gt;Node6</title>
<path fill="none" stroke="midnightblue" d="M101.82,-98.26C124.17,-82.09 161.62,-56.68 197,-40.5 202.02,-38.2 207.3,-36.05 212.67,-34.05"/>
<polygon fill="midnightblue" stroke="midnightblue" points="214.14,-37.24 222.39,-30.6 211.8,-30.65 214.14,-37.24"/>
</g>
</g>
</svg>
