<?xml version="1.0" encoding="UTF-8" standalone="no"?>
<!DOCTYPE svg PUBLIC "-//W3C//DTD SVG 1.1//EN"
 "http://www.w3.org/Graphics/SVG/1.1/DTD/svg11.dtd">
<!-- Generated by graphviz version 2.48.0 (20210717.1556)
 -->
<!-- Title: global::ThrowingObject::throwIf Pages: 1 -->
<svg width="987pt" height="323pt"
 viewBox="0.00 0.00 987.00 323.00" xmlns="http://www.w3.org/2000/svg" xmlns:xlink="http://www.w3.org/1999/xlink">
<g id="graph0" class="graph" transform="scale(1 1) rotate(0) translate(4 319)">
<title>global::ThrowingObject::throwIf</title>
<!-- Node1 -->
<g id="node1" class="node">
<title>Node1</title>
<g id="a_node1"><a xlink:title=" ">
<polygon fill="#bfbfbf" stroke="black" points="830,-142.5 830,-172.5 979,-172.5 979,-142.5 830,-142.5"/>
<text text-anchor="start" x="838" y="-160.5" font-family="JetBrains Mono" font-size="10.00">global::ThrowingObject</text>
<text text-anchor="middle" x="904.5" y="-149.5" font-family="JetBrains Mono" font-size="10.00">::throwIf</text>
</a>
</g>
</g>
<!-- Node2 -->
<g id="node2" class="node">
<title>Node2</title>
<g id="a_node2"><a xlink:href="classbackend_1_1_complex_parser.html#ab9c1611f44bfccc201254d7abef10a86" target="_top" xlink:title=" ">
<polygon fill="none" stroke="black" points="633,-284.5 633,-314.5 782,-314.5 782,-284.5 633,-284.5"/>
<text text-anchor="start" x="641" y="-302.5" font-family="JetBrains Mono" font-size="10.00">backend::ComplexParser</text>
<text text-anchor="middle" x="707.5" y="-291.5" font-family="JetBrains Mono" font-size="10.00">::addChild</text>
</a>
</g>
</g>
<!-- Node1&#45;&gt;Node2 -->
<g id="edge1" class="edge">
<title>Node1&#45;&gt;Node2</title>
<path fill="none" stroke="midnightblue" d="M887.79,-181.07C868.71,-207.85 834.07,-251.03 794,-275.5 788.34,-278.95 782.17,-281.93 775.82,-284.48"/>
<polygon fill="midnightblue" stroke="midnightblue" points="890.8,-182.87 893.64,-172.66 885.06,-178.86 890.8,-182.87"/>
</g>
<!-- Node3 -->
<g id="node3" class="node">
<title>Node3</title>
<g id="a_node3"><a xlink:href="classbackend_1_1_complex_parser.html#a62faf25d62bf3dc4c956933e1b3f1c82" target="_top" xlink:title=" ">
<polygon fill="none" stroke="black" points="633,-235.5 633,-265.5 782,-265.5 782,-235.5 633,-235.5"/>
<text text-anchor="start" x="641" y="-253.5" font-family="JetBrains Mono" font-size="10.00">backend::ComplexParser</text>
<text text-anchor="middle" x="707.5" y="-242.5" font-family="JetBrains Mono" font-size="10.00">::checkCode</text>
</a>
</g>
</g>
<!-- Node1&#45;&gt;Node3 -->
<g id="edge2" class="edge">
<title>Node1&#45;&gt;Node3</title>
<path fill="none" stroke="midnightblue" d="M875.22,-178.54C853.83,-193.63 823.24,-213.51 794,-226.5 786.53,-229.82 778.49,-232.79 770.44,-235.42"/>
<polygon fill="midnightblue" stroke="midnightblue" points="877.41,-181.27 883.51,-172.6 873.34,-175.58 877.41,-181.27"/>
</g>
<!-- Node7 -->
<g id="node7" class="node">
<title>Node7</title>
<g id="a_node7"><a xlink:href="classbackend_1_1_unit_test_converter.html#ac1838800049ad36de6b240969e9de88d" target="_top" xlink:title=" ">
<polygon fill="none" stroke="black" points="621,-186.5 621,-216.5 794,-216.5 794,-186.5 621,-186.5"/>
<text text-anchor="start" x="629" y="-204.5" font-family="JetBrains Mono" font-size="10.00">backend::UnitTestConverter</text>
<text text-anchor="middle" x="707.5" y="-193.5" font-family="JetBrains Mono" font-size="10.00">::convertValues</text>
</a>
</g>
</g>
<!-- Node1&#45;&gt;Node7 -->
<g id="edge7" class="edge">
<title>Node1&#45;&gt;Node7</title>
<path fill="none" stroke="midnightblue" d="M826.97,-174.77C809.83,-178.64 791.79,-182.71 775.09,-186.47"/>
<polygon fill="midnightblue" stroke="midnightblue" points="827.95,-178.13 836.94,-172.52 826.41,-171.31 827.95,-178.13"/>
</g>
<!-- Node8 -->
<g id="node8" class="node">
<title>Node8</title>
<g id="a_node8"><a xlink:href="classbackend_1_1_unit_test_converter.html#a781b3fa289cf793d676aeb2c514625e6" target="_top" xlink:title=" ">
<polygon fill="none" stroke="black" points="412,-142.5 412,-172.5 585,-172.5 585,-142.5 412,-142.5"/>
<text text-anchor="start" x="420" y="-160.5" font-family="JetBrains Mono" font-size="10.00">backend::UnitTestConverter</text>
<text text-anchor="middle" x="498.5" y="-149.5" font-family="JetBrains Mono" font-size="10.00">::getUnitTest</text>
</a>
</g>
</g>
<!-- Node1&#45;&gt;Node8 -->
<g id="edge14" class="edge">
<title>Node1&#45;&gt;Node8</title>
<path fill="none" stroke="midnightblue" d="M819.53,-157.5C750.92,-157.5 654.32,-157.5 585.23,-157.5"/>
<polygon fill="midnightblue" stroke="midnightblue" points="819.87,-161 829.87,-157.5 819.87,-154 819.87,-161"/>
</g>
<!-- Node11 -->
<g id="node11" class="node">
<title>Node11</title>
<g id="a_node11"><a xlink:href="classbackend_1_1_port_scanner.html#a26ff8bb40b23cc88da75d8e0e01c46ed" target="_top" xlink:title=" ">
<polygon fill="none" stroke="black" points="639,-98.5 639,-128.5 776,-128.5 776,-98.5 639,-98.5"/>
<text text-anchor="start" x="647" y="-116.5" font-family="JetBrains Mono" font-size="10.00">backend::PortScanner</text>
<text text-anchor="middle" x="707.5" y="-105.5" font-family="JetBrains Mono" font-size="10.00">::getPortByNumber</text>
</a>
</g>
</g>
<!-- Node1&#45;&gt;Node11 -->
<g id="edge11" class="edge">
<title>Node1&#45;&gt;Node11</title>
<path fill="none" stroke="midnightblue" d="M826.97,-140.23C809.83,-136.36 791.79,-132.29 775.09,-128.53"/>
<polygon fill="midnightblue" stroke="midnightblue" points="826.41,-143.69 836.94,-142.48 827.95,-136.87 826.41,-143.69"/>
</g>
<!-- Node12 -->
<g id="node12" class="node">
<title>Node12</title>
<g id="a_node12"><a xlink:href="classbackend_1_1_unit_test_converter.html#afab0b08e1cbb2b880de687c92ad68758" target="_top" xlink:title=" ">
<polygon fill="none" stroke="black" points="621,-49.5 621,-79.5 794,-79.5 794,-49.5 621,-49.5"/>
<text text-anchor="start" x="629" y="-67.5" font-family="JetBrains Mono" font-size="10.00">backend::UnitTestConverter</text>
<text text-anchor="middle" x="707.5" y="-56.5" font-family="JetBrains Mono" font-size="10.00">::getTestResult</text>
</a>
</g>
</g>
<!-- Node1&#45;&gt;Node12 -->
<g id="edge12" class="edge">
<title>Node1&#45;&gt;Node12</title>
<path fill="none" stroke="midnightblue" d="M875.22,-136.46C853.83,-121.37 823.24,-101.49 794,-88.5 786.53,-85.18 778.49,-82.21 770.44,-79.58"/>
<polygon fill="midnightblue" stroke="midnightblue" points="873.34,-139.42 883.51,-142.4 877.41,-133.73 873.34,-139.42"/>
</g>
<!-- Node13 -->
<g id="node13" class="node">
<title>Node13</title>
<g id="a_node13"><a xlink:href="classbackend_1_1_port_state_operator.html#a7c549585483ea80a829c46dc8585f0d4" target="_top" xlink:title=" ">
<polygon fill="none" stroke="black" points="621,-0.5 621,-30.5 794,-30.5 794,-0.5 621,-0.5"/>
<text text-anchor="start" x="629" y="-18.5" font-family="JetBrains Mono" font-size="10.00">backend::PortStateOperator</text>
<text text-anchor="middle" x="707.5" y="-7.5" font-family="JetBrains Mono" font-size="10.00">::openPort</text>
</a>
</g>
</g>
<!-- Node1&#45;&gt;Node13 -->
<g id="edge15" class="edge">
<title>Node1&#45;&gt;Node13</title>
<path fill="none" stroke="midnightblue" d="M887.79,-133.93C868.71,-107.15 834.07,-63.97 794,-39.5 788.34,-36.05 782.17,-33.07 775.82,-30.52"/>
<polygon fill="midnightblue" stroke="midnightblue" points="885.06,-136.14 893.64,-142.34 890.8,-132.13 885.06,-136.14"/>
</g>
<!-- Node4 -->
<g id="node4" class="node">
<title>Node4</title>
<g id="a_node4"><a xlink:href="classbackend_1_1_complex_parser.html#ae56300ff36c91f88abddbb64f2d2f567" target="_top" xlink:title=" ">
<polygon fill="none" stroke="black" points="424,-235.5 424,-265.5 573,-265.5 573,-235.5 424,-235.5"/>
<text text-anchor="start" x="432" y="-253.5" font-family="JetBrains Mono" font-size="10.00">backend::ComplexParser</text>
<text text-anchor="middle" x="498.5" y="-242.5" font-family="JetBrains Mono" font-size="10.00">::proccessingLoop</text>
</a>
</g>
</g>
<!-- Node3&#45;&gt;Node4 -->
<g id="edge3" class="edge">
<title>Node3&#45;&gt;Node4</title>
<path fill="none" stroke="midnightblue" d="M622.81,-250.5C606.38,-250.5 589.25,-250.5 573.17,-250.5"/>
<polygon fill="midnightblue" stroke="midnightblue" points="622.94,-254 632.94,-250.5 622.94,-247 622.94,-254"/>
</g>
<!-- Node5 -->
<g id="node5" class="node">
<title>Node5</title>
<g id="a_node5"><a xlink:href="classbackend_1_1_complex_parser.html#a24ff46b718bc29b91c1f9dbd63b99cb8" target="_top" xlink:title=" ">
<polygon fill="none" stroke="black" points="215,-235.5 215,-265.5 364,-265.5 364,-235.5 215,-235.5"/>
<text text-anchor="start" x="223" y="-253.5" font-family="JetBrains Mono" font-size="10.00">backend::ComplexParser</text>
<text text-anchor="middle" x="289.5" y="-242.5" font-family="JetBrains Mono" font-size="10.00">::parseCommand</text>
</a>
</g>
</g>
<!-- Node4&#45;&gt;Node5 -->
<g id="edge4" class="edge">
<title>Node4&#45;&gt;Node5</title>
<path fill="none" stroke="midnightblue" d="M413.81,-243.86C397.38,-243.67 380.25,-243.72 364.17,-244.01"/>
<polygon fill="midnightblue" stroke="midnightblue" points="413.89,-247.36 423.94,-244.01 413.99,-240.36 413.89,-247.36"/>
</g>
<!-- Node5&#45;&gt;Node4 -->
<g id="edge5" class="edge">
<title>Node5&#45;&gt;Node4</title>
<path fill="none" stroke="midnightblue" d="M374.3,-257.14C390.74,-257.33 407.87,-257.28 423.94,-256.99"/>
<polygon fill="midnightblue" stroke="midnightblue" points="374.22,-253.64 364.17,-256.99 374.12,-260.64 374.22,-253.64"/>
</g>
<!-- Node6 -->
<g id="node6" class="node">
<title>Node6</title>
<g id="a_node6"><a xlink:href="classbackend_1_1_root_parser.html#aa9ec5690c984c1b3a3d8dd3c1063d109" target="_top" xlink:title="Starts parsing procedure for the entire tree.">
<polygon fill="none" stroke="black" points="18,-235.5 18,-265.5 149,-265.5 149,-235.5 18,-235.5"/>
<text text-anchor="start" x="26" y="-253.5" font-family="JetBrains Mono" font-size="10.00">backend::RootParser</text>
<text text-anchor="middle" x="83.5" y="-242.5" font-family="JetBrains Mono" font-size="10.00">::startProcessing</text>
</a>
</g>
</g>
<!-- Node5&#45;&gt;Node6 -->
<g id="edge6" class="edge">
<title>Node5&#45;&gt;Node6</title>
<path fill="none" stroke="midnightblue" d="M204.68,-250.5C186.18,-250.5 166.86,-250.5 149.26,-250.5"/>
<polygon fill="midnightblue" stroke="midnightblue" points="204.85,-254 214.85,-250.5 204.85,-247 204.85,-254"/>
</g>
<!-- Node7&#45;&gt;Node8 -->
<g id="edge8" class="edge">
<title>Node7&#45;&gt;Node8</title>
<path fill="none" stroke="midnightblue" d="M626.02,-184.39C607.61,-180.48 588.16,-176.35 570.19,-172.53"/>
<polygon fill="midnightblue" stroke="midnightblue" points="625.33,-187.83 635.84,-186.48 626.79,-180.98 625.33,-187.83"/>
</g>
<!-- Node9 -->
<g id="node9" class="node">
<title>Node9</title>
<g id="a_node9"><a xlink:href="classbackend_1_1_test_case_converter.html#a60a93de828d1fcaa56437b0516674785" target="_top" xlink:title=" ">
<polygon fill="none" stroke="black" points="203,-142.5 203,-172.5 376,-172.5 376,-142.5 203,-142.5"/>
<text text-anchor="start" x="211" y="-160.5" font-family="JetBrains Mono" font-size="10.00">backend::TestCaseConverter</text>
<text text-anchor="middle" x="289.5" y="-149.5" font-family="JetBrains Mono" font-size="10.00">::getTestCase</text>
</a>
</g>
</g>
<!-- Node8&#45;&gt;Node9 -->
<g id="edge9" class="edge">
<title>Node8&#45;&gt;Node9</title>
<path fill="none" stroke="midnightblue" d="M401.8,-157.5C393.24,-157.5 384.6,-157.5 376.12,-157.5"/>
<polygon fill="midnightblue" stroke="midnightblue" points="401.81,-161 411.81,-157.5 401.81,-154 401.81,-161"/>
</g>
<!-- Node10 -->
<g id="node10" class="node">
<title>Node10</title>
<g id="a_node10"><a xlink:href="classbackend_1_1_converter.html#ad767ae6c03f9086aa32942ffd0d71a80" target="_top" xlink:title=" ">
<polygon fill="none" stroke="black" points="0,-142.5 0,-172.5 167,-172.5 167,-142.5 0,-142.5"/>
<text text-anchor="start" x="8" y="-160.5" font-family="JetBrains Mono" font-size="10.00">backend::Converter</text>
<text text-anchor="middle" x="83.5" y="-149.5" font-family="JetBrains Mono" font-size="10.00">::getConvertedTransaction</text>
</a>
</g>
</g>
<!-- Node9&#45;&gt;Node10 -->
<g id="edge10" class="edge">
<title>Node9&#45;&gt;Node10</title>
<path fill="none" stroke="midnightblue" d="M192.6,-157.5C184.14,-157.5 175.63,-157.5 167.3,-157.5"/>
<polygon fill="midnightblue" stroke="midnightblue" points="192.87,-161 202.87,-157.5 192.87,-154 192.87,-161"/>
</g>
<!-- Node12&#45;&gt;Node8 -->
<g id="edge13" class="edge">
<title>Node12&#45;&gt;Node8</title>
<path fill="none" stroke="midnightblue" d="M635.82,-82.87C630.76,-84.63 625.77,-86.51 621,-88.5 584.95,-103.53 546.19,-126.95 522.39,-142.26"/>
<polygon fill="midnightblue" stroke="midnightblue" points="637.23,-86.09 645.62,-79.62 635.02,-79.44 637.23,-86.09"/>
</g>
</g>
</svg>
