<?xml version="1.0" encoding="UTF-8" standalone="no"?>
<!DOCTYPE svg PUBLIC "-//W3C//DTD SVG 1.1//EN"
 "http://www.w3.org/Graphics/SVG/1.1/DTD/svg11.dtd">
<!-- Generated by graphviz version 2.48.0 (20210717.1556)
 -->
<!-- Title: backend::PortFlowSettings::setDataBits Pages: 1 -->
<svg width="372pt" height="88pt"
 viewBox="0.00 0.00 372.00 88.00" xmlns="http://www.w3.org/2000/svg" xmlns:xlink="http://www.w3.org/1999/xlink">
<g id="graph0" class="graph" transform="scale(1 1) rotate(0) translate(4 84)">
<title>backend::PortFlowSettings::setDataBits</title>
<!-- Node1 -->
<g id="node1" class="node">
<title>Node1</title>
<g id="a_node1"><a xlink:title=" ">
<polygon fill="#bfbfbf" stroke="black" points="197,-24.5 197,-54.5 364,-54.5 364,-24.5 197,-24.5"/>
<text text-anchor="start" x="205" y="-42.5" font-family="JetBrains Mono" font-size="10.00">backend::PortFlowSettings</text>
<text text-anchor="middle" x="280.5" y="-31.5" font-family="JetBrains Mono" font-size="10.00">::setDataBits</text>
</a>
</g>
</g>
<!-- Node2 -->
<g id="node2" class="node">
<title>Node2</title>
<g id="a_node2"><a xlink:href="classbridge_1_1_terminal_settings.html#a36901a5b8e7c7401d16847062020cbeb" target="_top" xlink:title=" ">
<polygon fill="none" stroke="black" points="0,-49.5 0,-79.5 161,-79.5 161,-49.5 0,-49.5"/>
<text text-anchor="start" x="8" y="-67.5" font-family="JetBrains Mono" font-size="10.00">bridge::TerminalSettings</text>
<text text-anchor="middle" x="80.5" y="-56.5" font-family="JetBrains Mono" font-size="10.00">::prepareSettings</text>
</a>
</g>
</g>
<!-- Node1&#45;&gt;Node2 -->
<g id="edge1" class="edge">
<title>Node1&#45;&gt;Node2</title>
<path fill="none" stroke="midnightblue" d="M186.87,-51.2C178.24,-52.29 169.54,-53.38 161.04,-54.46"/>
<polygon fill="midnightblue" stroke="midnightblue" points="187.48,-54.65 196.96,-49.92 186.6,-47.7 187.48,-54.65"/>
</g>
<!-- Node3 -->
<g id="node3" class="node">
<title>Node3</title>
<g id="a_node3"><a xlink:href="classbridge_1_1_tests_settings.html#a5c219fa7a990bb9ba5117cde932c9604" target="_top" xlink:title=" ">
<polygon fill="none" stroke="black" points="9,-0.5 9,-30.5 152,-30.5 152,-0.5 9,-0.5"/>
<text text-anchor="start" x="17" y="-18.5" font-family="JetBrains Mono" font-size="10.00">bridge::TestsSettings</text>
<text text-anchor="middle" x="80.5" y="-7.5" font-family="JetBrains Mono" font-size="10.00">::prepareSettings</text>
</a>
</g>
</g>
<!-- Node1&#45;&gt;Node3 -->
<g id="edge2" class="edge">
<title>Node1&#45;&gt;Node3</title>
<path fill="none" stroke="midnightblue" d="M186.8,-28.26C175.19,-26.86 163.46,-25.43 152.26,-24.08"/>
<polygon fill="midnightblue" stroke="midnightblue" points="186.62,-31.77 196.96,-29.5 187.46,-24.82 186.62,-31.77"/>
</g>
</g>
</svg>
