<?xml version="1.0" encoding="UTF-8" standalone="no"?>
<!DOCTYPE svg PUBLIC "-//W3C//DTD SVG 1.1//EN"
 "http://www.w3.org/Graphics/SVG/1.1/DTD/svg11.dtd">
<!-- Generated by graphviz version 2.48.0 (20210717.1556)
 -->
<!-- Title: backend::PortFlowOperator Pages: 1 -->
<svg width="231pt" height="502pt"
 viewBox="0.00 0.00 231.00 502.00" xmlns="http://www.w3.org/2000/svg" xmlns:xlink="http://www.w3.org/1999/xlink">
<g id="graph0" class="graph" transform="scale(1 1) rotate(0) translate(4 498)">
<title>backend::PortFlowOperator</title>
<!-- Node1 -->
<g id="node1" class="node">
<title>Node1</title>
<g id="a_node1"><a xlink:title="Extended PortStateOperator which allows to exchange data.">
<polygon fill="#bfbfbf" stroke="black" points="5,-0.5 5,-101.5 172,-101.5 172,-0.5 5,-0.5"/>
<text text-anchor="middle" x="88.5" y="-89.5" font-family="JetBrains Mono" font-size="10.00">backend::PortFlowOperator</text>
<polyline fill="none" stroke="black" points="5,-82.5 172,-82.5 "/>
<text text-anchor="middle" x="88.5" y="-70.5" font-family="JetBrains Mono" font-size="10.00"> </text>
<polyline fill="none" stroke="black" points="5,-63.5 172,-63.5 "/>
<text text-anchor="start" x="13" y="-51.5" font-family="JetBrains Mono" font-size="10.00">+ PortFlowOperator()</text>
<text text-anchor="start" x="13" y="-40.5" font-family="JetBrains Mono" font-size="10.00">+ PortFlowOperator()</text>
<text text-anchor="start" x="13" y="-29.5" font-family="JetBrains Mono" font-size="10.00">+ ~PortFlowOperator()</text>
<text text-anchor="start" x="13" y="-18.5" font-family="JetBrains Mono" font-size="10.00">+ sendBytesToPort()</text>
<text text-anchor="start" x="13" y="-7.5" font-family="JetBrains Mono" font-size="10.00">+ getAllBytesFromPort()</text>
</a>
</g>
</g>
<!-- Node2 -->
<g id="node2" class="node">
<title>Node2</title>
<g id="a_node2"><a xlink:href="classbackend_1_1_port_state_operator.html" target="_top" xlink:title="This base class provides basic RS232 port operators.">
<polygon fill="none" stroke="black" points="2,-138.5 2,-305.5 175,-305.5 175,-138.5 2,-138.5"/>
<text text-anchor="middle" x="88.5" y="-293.5" font-family="JetBrains Mono" font-size="10.00">backend::PortStateOperator</text>
<polyline fill="none" stroke="black" points="2,-286.5 175,-286.5 "/>
<text text-anchor="start" x="10" y="-274.5" font-family="JetBrains Mono" font-size="10.00"># current_port_</text>
<text text-anchor="start" x="10" y="-263.5" font-family="JetBrains Mono" font-size="10.00"># current_port_info_</text>
<polyline fill="none" stroke="black" points="2,-256.5 175,-256.5 "/>
<text text-anchor="start" x="10" y="-244.5" font-family="JetBrains Mono" font-size="10.00">+ PortStateOperator()</text>
<text text-anchor="start" x="10" y="-233.5" font-family="JetBrains Mono" font-size="10.00">+ PortStateOperator()</text>
<text text-anchor="start" x="10" y="-222.5" font-family="JetBrains Mono" font-size="10.00">+ ~PortStateOperator()</text>
<text text-anchor="start" x="10" y="-211.5" font-family="JetBrains Mono" font-size="10.00">+ changePort()</text>
<text text-anchor="start" x="10" y="-200.5" font-family="JetBrains Mono" font-size="10.00">+ changeSettings()</text>
<text text-anchor="start" x="10" y="-189.5" font-family="JetBrains Mono" font-size="10.00">+ closePort()</text>
<text text-anchor="start" x="10" y="-178.5" font-family="JetBrains Mono" font-size="10.00">+ openPort()</text>
<text text-anchor="start" x="10" y="-167.5" font-family="JetBrains Mono" font-size="10.00">+ isOpen()</text>
<text text-anchor="start" x="10" y="-156.5" font-family="JetBrains Mono" font-size="10.00">+ getError()</text>
<text text-anchor="start" x="10" y="-145.5" font-family="JetBrains Mono" font-size="10.00"># deviceErrorService()</text>
</a>
</g>
</g>
<!-- Node2&#45;&gt;Node1 -->
<g id="edge1" class="edge">
<title>Node2&#45;&gt;Node1</title>
<path fill="none" stroke="midnightblue" d="M88.5,-128.47C88.5,-119.28 88.5,-110.21 88.5,-101.71"/>
<polygon fill="none" stroke="midnightblue" points="85,-128.48 88.5,-138.48 92,-128.48 85,-128.48"/>
</g>
<!-- Node3 -->
<g id="node3" class="node">
<title>Node3</title>
<g id="a_node3"><a xlink:title=" ">
<polygon fill="none" stroke="#bfbfbf" points="0,-342.5 0,-399.5 59,-399.5 59,-342.5 0,-342.5"/>
<text text-anchor="middle" x="29.5" y="-387.5" font-family="JetBrains Mono" font-size="10.00">QObject</text>
<polyline fill="none" stroke="#bfbfbf" points="0,-380.5 59,-380.5 "/>
<text text-anchor="middle" x="29.5" y="-368.5" font-family="JetBrains Mono" font-size="10.00"> </text>
<polyline fill="none" stroke="#bfbfbf" points="0,-361.5 59,-361.5 "/>
<text text-anchor="middle" x="29.5" y="-349.5" font-family="JetBrains Mono" font-size="10.00"> </text>
</a>
</g>
</g>
<!-- Node3&#45;&gt;Node2 -->
<g id="edge2" class="edge">
<title>Node3&#45;&gt;Node2</title>
<path fill="none" stroke="midnightblue" d="M44.39,-332.9C47.77,-324.48 51.49,-315.21 55.29,-305.74"/>
<polygon fill="none" stroke="midnightblue" points="41.07,-331.77 40.6,-342.35 47.57,-334.37 41.07,-331.77"/>
</g>
<!-- Node4 -->
<g id="node4" class="node">
<title>Node4</title>
<g id="a_node4"><a xlink:href="classglobal_1_1_program_object.html" target="_top" xlink:title="This class is used to provide basic program functionalites for objects.">
<polygon fill="none" stroke="black" points="77,-342.5 77,-399.5 220,-399.5 220,-342.5 77,-342.5"/>
<text text-anchor="middle" x="148.5" y="-387.5" font-family="JetBrains Mono" font-size="10.00">global::ProgramObject</text>
<polyline fill="none" stroke="black" points="77,-380.5 220,-380.5 "/>
<text text-anchor="middle" x="148.5" y="-368.5" font-family="JetBrains Mono" font-size="10.00"> </text>
<polyline fill="none" stroke="black" points="77,-361.5 220,-361.5 "/>
<text text-anchor="middle" x="148.5" y="-349.5" font-family="JetBrains Mono" font-size="10.00"> </text>
</a>
</g>
</g>
<!-- Node4&#45;&gt;Node2 -->
<g id="edge3" class="edge">
<title>Node4&#45;&gt;Node2</title>
<path fill="none" stroke="midnightblue" d="M133.36,-332.9C129.92,-324.48 126.14,-315.21 122.27,-305.74"/>
<polygon fill="none" stroke="midnightblue" points="130.19,-334.41 137.21,-342.35 136.68,-331.77 130.19,-334.41"/>
</g>
<!-- Node5 -->
<g id="node5" class="node">
<title>Node5</title>
<g id="a_node5"><a xlink:href="classglobal_1_1_throwing_object.html" target="_top" xlink:title="This is base class which allows us to check statements at runtime.">
<polygon fill="none" stroke="black" points="74,-436.5 74,-493.5 223,-493.5 223,-436.5 74,-436.5"/>
<text text-anchor="middle" x="148.5" y="-481.5" font-family="JetBrains Mono" font-size="10.00">global::ThrowingObject</text>
<polyline fill="none" stroke="black" points="74,-474.5 223,-474.5 "/>
<text text-anchor="middle" x="148.5" y="-462.5" font-family="JetBrains Mono" font-size="10.00"> </text>
<polyline fill="none" stroke="black" points="74,-455.5 223,-455.5 "/>
<text text-anchor="start" x="82" y="-443.5" font-family="JetBrains Mono" font-size="10.00">+ throwIf()</text>
</a>
</g>
</g>
<!-- Node5&#45;&gt;Node4 -->
<g id="edge4" class="edge">
<title>Node5&#45;&gt;Node4</title>
<path fill="none" stroke="midnightblue" d="M148.5,-426.21C148.5,-417.29 148.5,-407.95 148.5,-399.58"/>
<polygon fill="none" stroke="midnightblue" points="145,-426.4 148.5,-436.4 152,-426.4 145,-426.4"/>
</g>
</g>
</svg>
