<?xml version="1.0" encoding="UTF-8" standalone="no"?>
<!DOCTYPE svg PUBLIC "-//W3C//DTD SVG 1.1//EN"
 "http://www.w3.org/Graphics/SVG/1.1/DTD/svg11.dtd">
<!-- Generated by graphviz version 2.48.0 (20210717.1556)
 -->
<!-- Title: backend::ByteBuffer::getBytes Pages: 1 -->
<svg width="563pt" height="88pt"
 viewBox="0.00 0.00 563.00 88.00" xmlns="http://www.w3.org/2000/svg" xmlns:xlink="http://www.w3.org/1999/xlink">
<g id="graph0" class="graph" transform="scale(1 1) rotate(0) translate(4 84)">
<title>backend::ByteBuffer::getBytes</title>
<!-- Node1 -->
<g id="node1" class="node">
<title>Node1</title>
<g id="a_node1"><a xlink:title=" ">
<polygon fill="#bfbfbf" stroke="black" points="424,-24.5 424,-54.5 555,-54.5 555,-24.5 424,-24.5"/>
<text text-anchor="start" x="432" y="-42.5" font-family="JetBrains Mono" font-size="10.00">backend::ByteBuffer</text>
<text text-anchor="middle" x="489.5" y="-31.5" font-family="JetBrains Mono" font-size="10.00">::getBytes</text>
</a>
</g>
</g>
<!-- Node2 -->
<g id="node2" class="node">
<title>Node2</title>
<g id="a_node2"><a xlink:href="classbackend_1_1_byte_buffer.html#a5b209f927506b8d069300a2c8c0b4806" target="_top" xlink:title=" ">
<polygon fill="none" stroke="black" points="257,-49.5 257,-79.5 388,-79.5 388,-49.5 257,-49.5"/>
<text text-anchor="start" x="265" y="-67.5" font-family="JetBrains Mono" font-size="10.00">backend::ByteBuffer</text>
<text text-anchor="middle" x="322.5" y="-56.5" font-family="JetBrains Mono" font-size="10.00">::getAllBytes</text>
</a>
</g>
</g>
<!-- Node1&#45;&gt;Node2 -->
<g id="edge1" class="edge">
<title>Node1&#45;&gt;Node2</title>
<path fill="none" stroke="midnightblue" d="M413.76,-50.82C405.18,-52.12 396.48,-53.44 388.05,-54.72"/>
<polygon fill="midnightblue" stroke="midnightblue" points="414.4,-54.27 423.76,-49.31 413.35,-47.35 414.4,-54.27"/>
</g>
<!-- Node4 -->
<g id="node4" class="node">
<title>Node4</title>
<g id="a_node4"><a xlink:href="classbackend_1_1_byte_buffer.html#a169b29845ca2d4e86999e42334733d2d" target="_top" xlink:title=" ">
<polygon fill="none" stroke="black" points="257,-0.5 257,-30.5 388,-30.5 388,-0.5 257,-0.5"/>
<text text-anchor="start" x="265" y="-18.5" font-family="JetBrains Mono" font-size="10.00">backend::ByteBuffer</text>
<text text-anchor="middle" x="322.5" y="-7.5" font-family="JetBrains Mono" font-size="10.00">::getByte</text>
</a>
</g>
</g>
<!-- Node1&#45;&gt;Node4 -->
<g id="edge3" class="edge">
<title>Node1&#45;&gt;Node4</title>
<path fill="none" stroke="midnightblue" d="M413.76,-28.63C405.18,-27.38 396.48,-26.12 388.05,-24.89"/>
<polygon fill="midnightblue" stroke="midnightblue" points="413.36,-32.11 423.76,-30.08 414.37,-25.18 413.36,-32.11"/>
</g>
<!-- Node3 -->
<g id="node3" class="node">
<title>Node3</title>
<g id="a_node3"><a xlink:href="classbackend_1_1_buffered_port_flow_operator.html#af57f6e8996d45ab47671ad9056770c4d" target="_top" xlink:title=" ">
<polygon fill="none" stroke="black" points="0,-49.5 0,-79.5 221,-79.5 221,-49.5 0,-49.5"/>
<text text-anchor="start" x="8" y="-67.5" font-family="JetBrains Mono" font-size="10.00">backend::BufferedPortFlow</text>
<text text-anchor="middle" x="110.5" y="-56.5" font-family="JetBrains Mono" font-size="10.00">Operator::sendDataFromBufferToPort</text>
</a>
</g>
</g>
<!-- Node2&#45;&gt;Node3 -->
<g id="edge2" class="edge">
<title>Node2&#45;&gt;Node3</title>
<path fill="none" stroke="midnightblue" d="M246.51,-64.5C238.28,-64.5 229.78,-64.5 221.24,-64.5"/>
<polygon fill="midnightblue" stroke="midnightblue" points="246.78,-68 256.78,-64.5 246.78,-61 246.78,-68"/>
</g>
</g>
</svg>
