<?xml version="1.0" encoding="UTF-8" standalone="no"?>
<!DOCTYPE svg PUBLIC "-//W3C//DTD SVG 1.1//EN"
 "http://www.w3.org/Graphics/SVG/1.1/DTD/svg11.dtd">
<!-- Generated by graphviz version 2.48.0 (20210717.1556)
 -->
<!-- Title: backend::PortStateOperator Pages: 1 -->
<svg width="231pt" height="364pt"
 viewBox="0.00 0.00 231.00 364.00" xmlns="http://www.w3.org/2000/svg" xmlns:xlink="http://www.w3.org/1999/xlink">
<g id="graph0" class="graph" transform="scale(1 1) rotate(0) translate(4 360)">
<title>backend::PortStateOperator</title>
<!-- Node1 -->
<g id="node1" class="node">
<title>Node1</title>
<g id="a_node1"><a xlink:title="This base class provides basic RS232 port operators.">
<polygon fill="#bfbfbf" stroke="black" points="2,-0.5 2,-167.5 175,-167.5 175,-0.5 2,-0.5"/>
<text text-anchor="middle" x="88.5" y="-155.5" font-family="JetBrains Mono" font-size="10.00">backend::PortStateOperator</text>
<polyline fill="none" stroke="black" points="2,-148.5 175,-148.5 "/>
<text text-anchor="start" x="10" y="-136.5" font-family="JetBrains Mono" font-size="10.00"># current_port_</text>
<text text-anchor="start" x="10" y="-125.5" font-family="JetBrains Mono" font-size="10.00"># current_port_info_</text>
<polyline fill="none" stroke="black" points="2,-118.5 175,-118.5 "/>
<text text-anchor="start" x="10" y="-106.5" font-family="JetBrains Mono" font-size="10.00">+ PortStateOperator()</text>
<text text-anchor="start" x="10" y="-95.5" font-family="JetBrains Mono" font-size="10.00">+ PortStateOperator()</text>
<text text-anchor="start" x="10" y="-84.5" font-family="JetBrains Mono" font-size="10.00">+ ~PortStateOperator()</text>
<text text-anchor="start" x="10" y="-73.5" font-family="JetBrains Mono" font-size="10.00">+ changePort()</text>
<text text-anchor="start" x="10" y="-62.5" font-family="JetBrains Mono" font-size="10.00">+ changeSettings()</text>
<text text-anchor="start" x="10" y="-51.5" font-family="JetBrains Mono" font-size="10.00">+ closePort()</text>
<text text-anchor="start" x="10" y="-40.5" font-family="JetBrains Mono" font-size="10.00">+ openPort()</text>
<text text-anchor="start" x="10" y="-29.5" font-family="JetBrains Mono" font-size="10.00">+ isOpen()</text>
<text text-anchor="start" x="10" y="-18.5" font-family="JetBrains Mono" font-size="10.00">+ getError()</text>
<text text-anchor="start" x="10" y="-7.5" font-family="JetBrains Mono" font-size="10.00"># deviceErrorService()</text>
</a>
</g>
</g>
<!-- Node2 -->
<g id="node2" class="node">
<title>Node2</title>
<g id="a_node2"><a xlink:title=" ">
<polygon fill="none" stroke="#bfbfbf" points="0,-204.5 0,-261.5 59,-261.5 59,-204.5 0,-204.5"/>
<text text-anchor="middle" x="29.5" y="-249.5" font-family="JetBrains Mono" font-size="10.00">QObject</text>
<polyline fill="none" stroke="#bfbfbf" points="0,-242.5 59,-242.5 "/>
<text text-anchor="middle" x="29.5" y="-230.5" font-family="JetBrains Mono" font-size="10.00"> </text>
<polyline fill="none" stroke="#bfbfbf" points="0,-223.5 59,-223.5 "/>
<text text-anchor="middle" x="29.5" y="-211.5" font-family="JetBrains Mono" font-size="10.00"> </text>
</a>
</g>
</g>
<!-- Node2&#45;&gt;Node1 -->
<g id="edge1" class="edge">
<title>Node2&#45;&gt;Node1</title>
<path fill="none" stroke="midnightblue" d="M44.39,-194.9C47.77,-186.48 51.49,-177.21 55.29,-167.74"/>
<polygon fill="none" stroke="midnightblue" points="41.07,-193.77 40.6,-204.35 47.57,-196.37 41.07,-193.77"/>
</g>
<!-- Node3 -->
<g id="node3" class="node">
<title>Node3</title>
<g id="a_node3"><a xlink:href="classglobal_1_1_program_object.html" target="_top" xlink:title="This class is used to provide basic program functionalites for objects.">
<polygon fill="none" stroke="black" points="77,-204.5 77,-261.5 220,-261.5 220,-204.5 77,-204.5"/>
<text text-anchor="middle" x="148.5" y="-249.5" font-family="JetBrains Mono" font-size="10.00">global::ProgramObject</text>
<polyline fill="none" stroke="black" points="77,-242.5 220,-242.5 "/>
<text text-anchor="middle" x="148.5" y="-230.5" font-family="JetBrains Mono" font-size="10.00"> </text>
<polyline fill="none" stroke="black" points="77,-223.5 220,-223.5 "/>
<text text-anchor="middle" x="148.5" y="-211.5" font-family="JetBrains Mono" font-size="10.00"> </text>
</a>
</g>
</g>
<!-- Node3&#45;&gt;Node1 -->
<g id="edge2" class="edge">
<title>Node3&#45;&gt;Node1</title>
<path fill="none" stroke="midnightblue" d="M133.36,-194.9C129.92,-186.48 126.14,-177.21 122.27,-167.74"/>
<polygon fill="none" stroke="midnightblue" points="130.19,-196.41 137.21,-204.35 136.68,-193.77 130.19,-196.41"/>
</g>
<!-- Node4 -->
<g id="node4" class="node">
<title>Node4</title>
<g id="a_node4"><a xlink:href="classglobal_1_1_throwing_object.html" target="_top" xlink:title="This is base class which allows us to check statements at runtime.">
<polygon fill="none" stroke="black" points="74,-298.5 74,-355.5 223,-355.5 223,-298.5 74,-298.5"/>
<text text-anchor="middle" x="148.5" y="-343.5" font-family="JetBrains Mono" font-size="10.00">global::ThrowingObject</text>
<polyline fill="none" stroke="black" points="74,-336.5 223,-336.5 "/>
<text text-anchor="middle" x="148.5" y="-324.5" font-family="JetBrains Mono" font-size="10.00"> </text>
<polyline fill="none" stroke="black" points="74,-317.5 223,-317.5 "/>
<text text-anchor="start" x="82" y="-305.5" font-family="JetBrains Mono" font-size="10.00">+ throwIf()</text>
</a>
</g>
</g>
<!-- Node4&#45;&gt;Node3 -->
<g id="edge3" class="edge">
<title>Node4&#45;&gt;Node3</title>
<path fill="none" stroke="midnightblue" d="M148.5,-288.21C148.5,-279.29 148.5,-269.95 148.5,-261.58"/>
<polygon fill="none" stroke="midnightblue" points="145,-288.4 148.5,-298.4 152,-288.4 145,-288.4"/>
</g>
</g>
</svg>
