<?xml version="1.0" encoding="UTF-8" standalone="no"?>
<!DOCTYPE svg PUBLIC "-//W3C//DTD SVG 1.1//EN"
 "http://www.w3.org/Graphics/SVG/1.1/DTD/svg11.dtd">
<!-- Generated by graphviz version 2.48.0 (20210717.1556)
 -->
<!-- Title: backend::Converter::getConvertedTransaction Pages: 1 -->
<svg width="1011pt" height="176pt"
 viewBox="0.00 0.00 1011.00 176.00" xmlns="http://www.w3.org/2000/svg" xmlns:xlink="http://www.w3.org/1999/xlink">
<g id="graph0" class="graph" transform="scale(1 1) rotate(0) translate(4 172)">
<title>backend::Converter::getConvertedTransaction</title>
<!-- Node1 -->
<g id="node1" class="node">
<title>Node1</title>
<g id="a_node1"><a xlink:title=" ">
<polygon fill="#bfbfbf" stroke="black" points="0,-68.5 0,-98.5 167,-98.5 167,-68.5 0,-68.5"/>
<text text-anchor="start" x="8" y="-86.5" font-family="JetBrains Mono" font-size="10.00">backend::Converter</text>
<text text-anchor="middle" x="83.5" y="-75.5" font-family="JetBrains Mono" font-size="10.00">::getConvertedTransaction</text>
</a>
</g>
</g>
<!-- Node2 -->
<g id="node2" class="node">
<title>Node2</title>
<g id="a_node2"><a xlink:href="classbackend_1_1_transaction_data_package.html#a1571bb68f4ba74bb929514ed12f24321" target="_top" xlink:title=" ">
<polygon fill="none" stroke="black" points="209,-93.5 209,-123.5 370,-123.5 370,-93.5 209,-93.5"/>
<text text-anchor="start" x="217" y="-111.5" font-family="JetBrains Mono" font-size="10.00">backend::TransactionData</text>
<text text-anchor="middle" x="289.5" y="-100.5" font-family="JetBrains Mono" font-size="10.00">Package::getCases</text>
</a>
</g>
</g>
<!-- Node1&#45;&gt;Node2 -->
<g id="edge1" class="edge">
<title>Node1&#45;&gt;Node2</title>
<path fill="none" stroke="midnightblue" d="M167.18,-93.63C177.56,-94.9 188.21,-96.21 198.7,-97.49"/>
<polygon fill="midnightblue" stroke="midnightblue" points="198.32,-100.98 208.68,-98.72 199.18,-94.03 198.32,-100.98"/>
</g>
<!-- Node3 -->
<g id="node3" class="node">
<title>Node3</title>
<g id="a_node3"><a xlink:href="classbackend_1_1_test_case_converter.html#a60a93de828d1fcaa56437b0516674785" target="_top" xlink:title=" ">
<polygon fill="none" stroke="black" points="203,-44.5 203,-74.5 376,-74.5 376,-44.5 203,-44.5"/>
<text text-anchor="start" x="211" y="-62.5" font-family="JetBrains Mono" font-size="10.00">backend::TestCaseConverter</text>
<text text-anchor="middle" x="289.5" y="-51.5" font-family="JetBrains Mono" font-size="10.00">::getTestCase</text>
</a>
</g>
</g>
<!-- Node1&#45;&gt;Node3 -->
<g id="edge2" class="edge">
<title>Node1&#45;&gt;Node3</title>
<path fill="none" stroke="midnightblue" d="M167.18,-73.77C175.6,-72.78 184.19,-71.77 192.73,-70.77"/>
<polygon fill="midnightblue" stroke="midnightblue" points="193.19,-74.24 202.71,-69.59 192.37,-67.29 193.19,-74.24"/>
</g>
<!-- Node4 -->
<g id="node4" class="node">
<title>Node4</title>
<g id="a_node4"><a xlink:href="classbackend_1_1_unit_test_converter.html#a781b3fa289cf793d676aeb2c514625e6" target="_top" xlink:title=" ">
<polygon fill="none" stroke="black" points="412,-44.5 412,-74.5 585,-74.5 585,-44.5 412,-44.5"/>
<text text-anchor="start" x="420" y="-62.5" font-family="JetBrains Mono" font-size="10.00">backend::UnitTestConverter</text>
<text text-anchor="middle" x="498.5" y="-51.5" font-family="JetBrains Mono" font-size="10.00">::getUnitTest</text>
</a>
</g>
</g>
<!-- Node3&#45;&gt;Node4 -->
<g id="edge3" class="edge">
<title>Node3&#45;&gt;Node4</title>
<path fill="none" stroke="midnightblue" d="M376.19,-59.5C384.66,-59.5 393.3,-59.5 401.87,-59.5"/>
<polygon fill="midnightblue" stroke="midnightblue" points="401.88,-63 411.88,-59.5 401.88,-56 401.88,-63"/>
</g>
<!-- Node5 -->
<g id="node5" class="node">
<title>Node5</title>
<g id="a_node5"><a xlink:href="classbackend_1_1_unit_test_converter.html#ac1838800049ad36de6b240969e9de88d" target="_top" xlink:title=" ">
<polygon fill="none" stroke="black" points="621,-88.5 621,-118.5 794,-118.5 794,-88.5 621,-88.5"/>
<text text-anchor="start" x="629" y="-106.5" font-family="JetBrains Mono" font-size="10.00">backend::UnitTestConverter</text>
<text text-anchor="middle" x="707.5" y="-95.5" font-family="JetBrains Mono" font-size="10.00">::convertValues</text>
</a>
</g>
</g>
<!-- Node4&#45;&gt;Node5 -->
<g id="edge4" class="edge">
<title>Node4&#45;&gt;Node5</title>
<path fill="none" stroke="midnightblue" d="M570.16,-74.52C588.13,-78.34 607.57,-82.47 625.99,-86.39"/>
<polygon fill="midnightblue" stroke="midnightblue" points="625.3,-89.82 635.81,-88.47 626.75,-82.97 625.3,-89.82"/>
</g>
<!-- Node8 -->
<g id="node8" class="node">
<title>Node8</title>
<g id="a_node8"><a xlink:href="classglobal_1_1_throwing_object.html#a3452fa130272c905381c30fa8ea74d92" target="_top" xlink:title=" ">
<polygon fill="none" stroke="black" points="842,-39.5 842,-69.5 991,-69.5 991,-39.5 842,-39.5"/>
<text text-anchor="start" x="850" y="-57.5" font-family="JetBrains Mono" font-size="10.00">global::ThrowingObject</text>
<text text-anchor="middle" x="916.5" y="-46.5" font-family="JetBrains Mono" font-size="10.00">::throwIf</text>
</a>
</g>
</g>
<!-- Node4&#45;&gt;Node8 -->
<g id="edge10" class="edge">
<title>Node4&#45;&gt;Node8</title>
<path fill="none" stroke="midnightblue" d="M585.19,-58.47C657.28,-57.6 759.77,-56.37 831.41,-55.51"/>
<polygon fill="midnightblue" stroke="midnightblue" points="831.79,-59.01 841.75,-55.39 831.71,-52.01 831.79,-59.01"/>
</g>
<!-- Node9 -->
<g id="node9" class="node">
<title>Node9</title>
<g id="a_node9"><a xlink:href="classbackend_1_1_unit_test_converter.html#afab0b08e1cbb2b880de687c92ad68758" target="_top" xlink:title=" ">
<polygon fill="none" stroke="black" points="621,-0.5 621,-30.5 794,-30.5 794,-0.5 621,-0.5"/>
<text text-anchor="start" x="629" y="-18.5" font-family="JetBrains Mono" font-size="10.00">backend::UnitTestConverter</text>
<text text-anchor="middle" x="707.5" y="-7.5" font-family="JetBrains Mono" font-size="10.00">::getTestResult</text>
</a>
</g>
</g>
<!-- Node4&#45;&gt;Node9 -->
<g id="edge8" class="edge">
<title>Node4&#45;&gt;Node9</title>
<path fill="none" stroke="midnightblue" d="M570.16,-44.48C588.13,-40.66 607.57,-36.53 625.99,-32.61"/>
<polygon fill="midnightblue" stroke="midnightblue" points="626.75,-36.03 635.81,-30.53 625.3,-29.18 626.75,-36.03"/>
</g>
<!-- Node6 -->
<g id="node6" class="node">
<title>Node6</title>
<g id="a_node6"><a xlink:href="classbackend_1_1_unit_test_converter.html#abbdcfd718926ef92e551a767e4e20928" target="_top" xlink:title=" ">
<polygon fill="none" stroke="black" points="830,-137.5 830,-167.5 1003,-167.5 1003,-137.5 830,-137.5"/>
<text text-anchor="start" x="838" y="-155.5" font-family="JetBrains Mono" font-size="10.00">backend::UnitTestConverter</text>
<text text-anchor="middle" x="916.5" y="-144.5" font-family="JetBrains Mono" font-size="10.00">::getDescriptor</text>
</a>
</g>
</g>
<!-- Node5&#45;&gt;Node6 -->
<g id="edge5" class="edge">
<title>Node5&#45;&gt;Node6</title>
<path fill="none" stroke="midnightblue" d="M772.01,-118.53C794.17,-123.78 819.21,-129.71 842.1,-135.13"/>
<polygon fill="midnightblue" stroke="midnightblue" points="841.57,-138.6 852.11,-137.49 843.18,-131.78 841.57,-138.6"/>
</g>
<!-- Node7 -->
<g id="node7" class="node">
<title>Node7</title>
<g id="a_node7"><a xlink:href="classglobal_1_1_static_generator.html#a53bf58b7902b0cf43096d4a42272e366" target="_top" xlink:title=" ">
<polygon fill="none" stroke="black" points="839,-88.5 839,-118.5 994,-118.5 994,-88.5 839,-88.5"/>
<text text-anchor="start" x="847" y="-106.5" font-family="JetBrains Mono" font-size="10.00">global::StaticGenerator</text>
<text text-anchor="middle" x="916.5" y="-95.5" font-family="JetBrains Mono" font-size="10.00">::getValue</text>
</a>
</g>
</g>
<!-- Node5&#45;&gt;Node7 -->
<g id="edge6" class="edge">
<title>Node5&#45;&gt;Node7</title>
<path fill="none" stroke="midnightblue" d="M794.19,-103.5C805.51,-103.5 817.13,-103.5 828.48,-103.5"/>
<polygon fill="midnightblue" stroke="midnightblue" points="828.81,-107 838.81,-103.5 828.81,-100 828.81,-107"/>
</g>
<!-- Node5&#45;&gt;Node8 -->
<g id="edge7" class="edge">
<title>Node5&#45;&gt;Node8</title>
<path fill="none" stroke="midnightblue" d="M772.01,-88.47C794.17,-83.22 819.21,-77.29 842.1,-71.87"/>
<polygon fill="midnightblue" stroke="midnightblue" points="843.18,-75.22 852.11,-69.51 841.57,-68.4 843.18,-75.22"/>
</g>
<!-- Node9&#45;&gt;Node8 -->
<g id="edge9" class="edge">
<title>Node9&#45;&gt;Node8</title>
<path fill="none" stroke="midnightblue" d="M788.24,-30.52C802.58,-33.22 817.57,-36.05 832.01,-38.77"/>
<polygon fill="midnightblue" stroke="midnightblue" points="831.44,-42.22 841.91,-40.64 832.73,-35.34 831.44,-42.22"/>
</g>
</g>
</svg>
