<?xml version="1.0" encoding="UTF-8" standalone="no"?>
<!DOCTYPE svg PUBLIC "-//W3C//DTD SVG 1.1//EN"
 "http://www.w3.org/Graphics/SVG/1.1/DTD/svg11.dtd">
<!-- Generated by graphviz version 2.48.0 (20210717.1556)
 -->
<!-- Title: bridge::TerminalBase Pages: 1 -->
<svg width="313pt" height="526pt"
 viewBox="0.00 0.00 312.50 526.00" xmlns="http://www.w3.org/2000/svg" xmlns:xlink="http://www.w3.org/1999/xlink">
<g id="graph0" class="graph" transform="scale(1 1) rotate(0) translate(4 522)">
<title>bridge::TerminalBase</title>
<!-- Node1 -->
<g id="node1" class="node">
<title>Node1</title>
<g id="a_node1"><a xlink:title="This is base class for a terminal window direct binding.">
<polygon fill="#bfbfbf" stroke="black" points="11,-321.5 11,-422.5 148,-422.5 148,-321.5 11,-321.5"/>
<text text-anchor="middle" x="79.5" y="-410.5" font-family="JetBrains Mono" font-size="10.00">bridge::TerminalBase</text>
<polyline fill="none" stroke="black" points="11,-403.5 148,-403.5 "/>
<text text-anchor="middle" x="79.5" y="-391.5" font-family="JetBrains Mono" font-size="10.00"> </text>
<polyline fill="none" stroke="black" points="11,-384.5 148,-384.5 "/>
<text text-anchor="start" x="19" y="-372.5" font-family="JetBrains Mono" font-size="10.00">+ applySettings()</text>
<text text-anchor="start" x="19" y="-361.5" font-family="JetBrains Mono" font-size="10.00">+ openPort()</text>
<text text-anchor="start" x="19" y="-350.5" font-family="JetBrains Mono" font-size="10.00">+ closeAllPorts()</text>
<text text-anchor="start" x="19" y="-339.5" font-family="JetBrains Mono" font-size="10.00">+ restorePorts()</text>
<text text-anchor="start" x="19" y="-328.5" font-family="JetBrains Mono" font-size="10.00">+ sendData()</text>
</a>
</g>
</g>
<!-- Node3 -->
<g id="node3" class="node">
<title>Node3</title>
<g id="a_node3"><a xlink:href="classbridge_1_1_terminal.html" target="_top" xlink:title=" ">
<polygon fill="none" stroke="black" points="0,-0.5 0,-112.5 167,-112.5 167,-0.5 0,-0.5"/>
<text text-anchor="start" x="8" y="-100.5" font-family="JetBrains Mono" font-size="10.00">bridge::Terminal&lt; Buffer</text>
<text text-anchor="middle" x="83.5" y="-89.5" font-family="JetBrains Mono" font-size="10.00">Type, PortOperatortType &gt;</text>
<polyline fill="none" stroke="black" points="0,-82.5 167,-82.5 "/>
<text text-anchor="middle" x="83.5" y="-70.5" font-family="JetBrains Mono" font-size="10.00"> </text>
<polyline fill="none" stroke="black" points="0,-63.5 167,-63.5 "/>
<text text-anchor="start" x="8" y="-51.5" font-family="JetBrains Mono" font-size="10.00">+ applySettings()</text>
<text text-anchor="start" x="8" y="-40.5" font-family="JetBrains Mono" font-size="10.00">+ openPort()</text>
<text text-anchor="start" x="8" y="-29.5" font-family="JetBrains Mono" font-size="10.00">+ closeAllPorts()</text>
<text text-anchor="start" x="8" y="-18.5" font-family="JetBrains Mono" font-size="10.00">+ restorePorts()</text>
<text text-anchor="start" x="8" y="-7.5" font-family="JetBrains Mono" font-size="10.00">+ sendData()</text>
</a>
</g>
</g>
<!-- Node1&#45;&gt;Node3 -->
<g id="edge2" class="edge">
<title>Node1&#45;&gt;Node3</title>
<path fill="none" stroke="midnightblue" d="M80.27,-310.98C81,-253.77 82.09,-168.33 82.8,-112.75"/>
<polygon fill="none" stroke="midnightblue" points="76.76,-311.28 80.13,-321.32 83.76,-311.37 76.76,-311.28"/>
</g>
<!-- Node4 -->
<g id="node4" class="node">
<title>Node4</title>
<g id="a_node4"><a xlink:href="classbridge_1_1_terminal.html" target="_top" xlink:title="This class object is direct binding with terminal window in QML.">
<polygon fill="none" stroke="black" points="96,-171.5 96,-283.5 257,-283.5 257,-171.5 96,-171.5"/>
<text text-anchor="start" x="104" y="-271.5" font-family="JetBrains Mono" font-size="10.00">bridge::Terminal&lt; Buffer</text>
<text text-anchor="middle" x="176.5" y="-260.5" font-family="JetBrains Mono" font-size="10.00">Type, PortOperatorType &gt;</text>
<polyline fill="none" stroke="black" points="96,-253.5 257,-253.5 "/>
<text text-anchor="middle" x="176.5" y="-241.5" font-family="JetBrains Mono" font-size="10.00"> </text>
<polyline fill="none" stroke="black" points="96,-234.5 257,-234.5 "/>
<text text-anchor="start" x="104" y="-222.5" font-family="JetBrains Mono" font-size="10.00">+ applySettings()</text>
<text text-anchor="start" x="104" y="-211.5" font-family="JetBrains Mono" font-size="10.00">+ openPort()</text>
<text text-anchor="start" x="104" y="-200.5" font-family="JetBrains Mono" font-size="10.00">+ closeAllPorts()</text>
<text text-anchor="start" x="104" y="-189.5" font-family="JetBrains Mono" font-size="10.00">+ restorePorts()</text>
<text text-anchor="start" x="104" y="-178.5" font-family="JetBrains Mono" font-size="10.00">+ sendData()</text>
</a>
</g>
</g>
<!-- Node1&#45;&gt;Node4 -->
<g id="edge3" class="edge">
<title>Node1&#45;&gt;Node4</title>
<path fill="none" stroke="midnightblue" d="M119.08,-312.86C125.59,-303.29 132.32,-293.4 138.78,-283.91"/>
<polygon fill="none" stroke="midnightblue" points="116.16,-310.92 113.43,-321.16 121.95,-314.86 116.16,-310.92"/>
</g>
<!-- Node2 -->
<g id="node2" class="node">
<title>Node2</title>
<g id="a_node2"><a xlink:title=" ">
<polygon fill="none" stroke="#bfbfbf" points="50,-460.5 50,-517.5 109,-517.5 109,-460.5 50,-460.5"/>
<text text-anchor="middle" x="79.5" y="-505.5" font-family="JetBrains Mono" font-size="10.00">QObject</text>
<polyline fill="none" stroke="#bfbfbf" points="50,-498.5 109,-498.5 "/>
<text text-anchor="middle" x="79.5" y="-486.5" font-family="JetBrains Mono" font-size="10.00"> </text>
<polyline fill="none" stroke="#bfbfbf" points="50,-479.5 109,-479.5 "/>
<text text-anchor="middle" x="79.5" y="-467.5" font-family="JetBrains Mono" font-size="10.00"> </text>
</a>
</g>
</g>
<!-- Node2&#45;&gt;Node1 -->
<g id="edge1" class="edge">
<title>Node2&#45;&gt;Node1</title>
<path fill="none" stroke="midnightblue" d="M79.5,-450.19C79.5,-441.43 79.5,-431.99 79.5,-422.81"/>
<polygon fill="none" stroke="midnightblue" points="76,-450.45 79.5,-460.45 83,-450.45 76,-450.45"/>
</g>
<!-- Node4&#45;&gt;Node3 -->
<g id="edge4" class="edge">
<title>Node4&#45;&gt;Node3</title>
<path fill="none" stroke="orange" d="M141.13,-162.22C132.14,-145.9 122.57,-128.5 113.86,-112.67"/>
<polygon fill="orange" stroke="orange" points="138.16,-164.09 146.05,-171.16 144.29,-160.71 138.16,-164.09"/>
<text text-anchor="start" x="135.5" y="-145" font-family="JetBrains Mono" font-size="10.00"> &lt; BufferType, PortOperatort</text>
<text text-anchor="middle" x="220" y="-134" font-family="JetBrains Mono" font-size="10.00">Type &gt;</text>
</g>
</g>
</svg>
