<?xml version="1.0" encoding="UTF-8" standalone="no"?>
<!DOCTYPE svg PUBLIC "-//W3C//DTD SVG 1.1//EN"
 "http://www.w3.org/Graphics/SVG/1.1/DTD/svg11.dtd">
<!-- Generated by graphviz version 2.48.0 (20210717.1556)
 -->
<!-- Title: bridge::ErrorReporter Pages: 1 -->
<svg width="151pt" height="171pt"
 viewBox="0.00 0.00 151.00 171.00" xmlns="http://www.w3.org/2000/svg" xmlns:xlink="http://www.w3.org/1999/xlink">
<g id="graph0" class="graph" transform="scale(1 1) rotate(0) translate(4 167)">
<title>bridge::ErrorReporter</title>
<!-- Node1 -->
<g id="node1" class="node">
<title>Node1</title>
<g id="a_node1"><a xlink:title="Object of this class propagates errors from C++ to QML.">
<polygon fill="#bfbfbf" stroke="black" points="0,-0.5 0,-68.5 143,-68.5 143,-0.5 0,-0.5"/>
<text text-anchor="middle" x="71.5" y="-56.5" font-family="JetBrains Mono" font-size="10.00">bridge::ErrorReporter</text>
<polyline fill="none" stroke="black" points="0,-49.5 143,-49.5 "/>
<text text-anchor="middle" x="71.5" y="-37.5" font-family="JetBrains Mono" font-size="10.00"> </text>
<polyline fill="none" stroke="black" points="0,-30.5 143,-30.5 "/>
<text text-anchor="start" x="8" y="-18.5" font-family="JetBrains Mono" font-size="10.00">+ ErrorReporter()</text>
<text text-anchor="start" x="8" y="-7.5" font-family="JetBrains Mono" font-size="10.00">+ errorService()</text>
</a>
</g>
</g>
<!-- Node2 -->
<g id="node2" class="node">
<title>Node2</title>
<g id="a_node2"><a xlink:title=" ">
<polygon fill="none" stroke="#bfbfbf" points="42,-105.5 42,-162.5 101,-162.5 101,-105.5 42,-105.5"/>
<text text-anchor="middle" x="71.5" y="-150.5" font-family="JetBrains Mono" font-size="10.00">QObject</text>
<polyline fill="none" stroke="#bfbfbf" points="42,-143.5 101,-143.5 "/>
<text text-anchor="middle" x="71.5" y="-131.5" font-family="JetBrains Mono" font-size="10.00"> </text>
<polyline fill="none" stroke="#bfbfbf" points="42,-124.5 101,-124.5 "/>
<text text-anchor="middle" x="71.5" y="-112.5" font-family="JetBrains Mono" font-size="10.00"> </text>
</a>
</g>
</g>
<!-- Node2&#45;&gt;Node1 -->
<g id="edge1" class="edge">
<title>Node2&#45;&gt;Node1</title>
<path fill="none" stroke="midnightblue" d="M71.5,-95.06C71.5,-86.39 71.5,-77.24 71.5,-68.79"/>
<polygon fill="none" stroke="midnightblue" points="68,-95.32 71.5,-105.32 75,-95.32 68,-95.32"/>
</g>
</g>
</svg>
