<?xml version="1.0" encoding="UTF-8" standalone="no"?>
<!DOCTYPE svg PUBLIC "-//W3C//DTD SVG 1.1//EN"
 "http://www.w3.org/Graphics/SVG/1.1/DTD/svg11.dtd">
<!-- Generated by graphviz version 2.48.0 (20210717.1556)
 -->
<!-- Title: bridge::Terminal&lt; BufferType, PortOperatorType &gt; Pages: 1 -->
<svg width="169pt" height="353pt"
 viewBox="0.00 0.00 169.00 353.00" xmlns="http://www.w3.org/2000/svg" xmlns:xlink="http://www.w3.org/1999/xlink">
<g id="graph0" class="graph" transform="scale(1 1) rotate(0) translate(4 349)">
<title>bridge::Terminal&lt; BufferType, PortOperatorType &gt;</title>
<!-- Node1 -->
<g id="node1" class="node">
<title>Node1</title>
<g id="a_node1"><a xlink:title="This class object is direct binding with terminal window in QML.">
<polygon fill="#bfbfbf" stroke="black" points="0,-0.5 0,-112.5 161,-112.5 161,-0.5 0,-0.5"/>
<text text-anchor="start" x="8" y="-100.5" font-family="JetBrains Mono" font-size="10.00">bridge::Terminal&lt; Buffer</text>
<text text-anchor="middle" x="80.5" y="-89.5" font-family="JetBrains Mono" font-size="10.00">Type, PortOperatorType &gt;</text>
<polyline fill="none" stroke="black" points="0,-82.5 161,-82.5 "/>
<text text-anchor="middle" x="80.5" y="-70.5" font-family="JetBrains Mono" font-size="10.00"> </text>
<polyline fill="none" stroke="black" points="0,-63.5 161,-63.5 "/>
<text text-anchor="start" x="8" y="-51.5" font-family="JetBrains Mono" font-size="10.00">+ applySettings()</text>
<text text-anchor="start" x="8" y="-40.5" font-family="JetBrains Mono" font-size="10.00">+ openPort()</text>
<text text-anchor="start" x="8" y="-29.5" font-family="JetBrains Mono" font-size="10.00">+ closeAllPorts()</text>
<text text-anchor="start" x="8" y="-18.5" font-family="JetBrains Mono" font-size="10.00">+ restorePorts()</text>
<text text-anchor="start" x="8" y="-7.5" font-family="JetBrains Mono" font-size="10.00">+ sendData()</text>
</a>
</g>
</g>
<!-- Node2 -->
<g id="node2" class="node">
<title>Node2</title>
<g id="a_node2"><a xlink:href="classbridge_1_1_terminal_base.html" target="_top" xlink:title="This is base class for a terminal window direct binding.">
<polygon fill="none" stroke="black" points="12,-149.5 12,-250.5 149,-250.5 149,-149.5 12,-149.5"/>
<text text-anchor="middle" x="80.5" y="-238.5" font-family="JetBrains Mono" font-size="10.00">bridge::TerminalBase</text>
<polyline fill="none" stroke="black" points="12,-231.5 149,-231.5 "/>
<text text-anchor="middle" x="80.5" y="-219.5" font-family="JetBrains Mono" font-size="10.00"> </text>
<polyline fill="none" stroke="black" points="12,-212.5 149,-212.5 "/>
<text text-anchor="start" x="20" y="-200.5" font-family="JetBrains Mono" font-size="10.00">+ applySettings()</text>
<text text-anchor="start" x="20" y="-189.5" font-family="JetBrains Mono" font-size="10.00">+ openPort()</text>
<text text-anchor="start" x="20" y="-178.5" font-family="JetBrains Mono" font-size="10.00">+ closeAllPorts()</text>
<text text-anchor="start" x="20" y="-167.5" font-family="JetBrains Mono" font-size="10.00">+ restorePorts()</text>
<text text-anchor="start" x="20" y="-156.5" font-family="JetBrains Mono" font-size="10.00">+ sendData()</text>
</a>
</g>
</g>
<!-- Node2&#45;&gt;Node1 -->
<g id="edge1" class="edge">
<title>Node2&#45;&gt;Node1</title>
<path fill="none" stroke="midnightblue" d="M80.5,-139.01C80.5,-130.29 80.5,-121.34 80.5,-112.72"/>
<polygon fill="none" stroke="midnightblue" points="77,-139.11 80.5,-149.11 84,-139.11 77,-139.11"/>
</g>
<!-- Node3 -->
<g id="node3" class="node">
<title>Node3</title>
<g id="a_node3"><a xlink:title=" ">
<polygon fill="none" stroke="#bfbfbf" points="51,-287.5 51,-344.5 110,-344.5 110,-287.5 51,-287.5"/>
<text text-anchor="middle" x="80.5" y="-332.5" font-family="JetBrains Mono" font-size="10.00">QObject</text>
<polyline fill="none" stroke="#bfbfbf" points="51,-325.5 110,-325.5 "/>
<text text-anchor="middle" x="80.5" y="-313.5" font-family="JetBrains Mono" font-size="10.00"> </text>
<polyline fill="none" stroke="#bfbfbf" points="51,-306.5 110,-306.5 "/>
<text text-anchor="middle" x="80.5" y="-294.5" font-family="JetBrains Mono" font-size="10.00"> </text>
</a>
</g>
</g>
<!-- Node3&#45;&gt;Node2 -->
<g id="edge2" class="edge">
<title>Node3&#45;&gt;Node2</title>
<path fill="none" stroke="midnightblue" d="M80.5,-277.35C80.5,-268.8 80.5,-259.58 80.5,-250.61"/>
<polygon fill="none" stroke="midnightblue" points="77,-277.4 80.5,-287.4 84,-277.4 77,-277.4"/>
</g>
</g>
</svg>
