<?xml version="1.0" encoding="UTF-8" standalone="no"?>
<!DOCTYPE svg PUBLIC "-//W3C//DTD SVG 1.1//EN"
 "http://www.w3.org/Graphics/SVG/1.1/DTD/svg11.dtd">
<!-- Generated by graphviz version 2.48.0 (20210717.1556)
 -->
<!-- Title: backend::Int16NumericValueConverter Pages: 1 -->
<svg width="211pt" height="171pt"
 viewBox="0.00 0.00 211.00 171.00" xmlns="http://www.w3.org/2000/svg" xmlns:xlink="http://www.w3.org/1999/xlink">
<g id="graph0" class="graph" transform="scale(1 1) rotate(0) translate(4 167)">
<title>backend::Int16NumericValueConverter</title>
<!-- Node1 -->
<g id="node1" class="node">
<title>Node1</title>
<g id="a_node1"><a xlink:title="This converter converts 2&#45;byte value to stringlized int16_t type.">
<polygon fill="#bfbfbf" stroke="black" points="15,-0.5 15,-68.5 188,-68.5 188,-0.5 15,-0.5"/>
<text text-anchor="start" x="23" y="-56.5" font-family="JetBrains Mono" font-size="10.00">backend::Int16NumericValue</text>
<text text-anchor="middle" x="101.5" y="-45.5" font-family="JetBrains Mono" font-size="10.00">Converter</text>
<polyline fill="none" stroke="black" points="15,-38.5 188,-38.5 "/>
<text text-anchor="middle" x="101.5" y="-26.5" font-family="JetBrains Mono" font-size="10.00"> </text>
<polyline fill="none" stroke="black" points="15,-19.5 188,-19.5 "/>
<text text-anchor="start" x="23" y="-7.5" font-family="JetBrains Mono" font-size="10.00">+ getValue()</text>
</a>
</g>
</g>
<!-- Node2 -->
<g id="node2" class="node">
<title>Node2</title>
<g id="a_node2"><a xlink:href="classbackend_1_1_abstract_value_converter.html" target="_top" xlink:title="This is interface for all value converters.">
<polygon fill="none" stroke="black" points="0,-105.5 0,-162.5 203,-162.5 203,-105.5 0,-105.5"/>
<text text-anchor="middle" x="101.5" y="-150.5" font-family="JetBrains Mono" font-size="10.00">backend::AbstractValueConverter</text>
<polyline fill="none" stroke="black" points="0,-143.5 203,-143.5 "/>
<text text-anchor="middle" x="101.5" y="-131.5" font-family="JetBrains Mono" font-size="10.00"> </text>
<polyline fill="none" stroke="black" points="0,-124.5 203,-124.5 "/>
<text text-anchor="start" x="8" y="-112.5" font-family="JetBrains Mono" font-size="10.00">+ getValue()</text>
</a>
</g>
</g>
<!-- Node2&#45;&gt;Node1 -->
<g id="edge1" class="edge">
<title>Node2&#45;&gt;Node1</title>
<path fill="none" stroke="midnightblue" d="M101.5,-95.06C101.5,-86.39 101.5,-77.24 101.5,-68.79"/>
<polygon fill="none" stroke="midnightblue" points="98,-95.32 101.5,-105.32 105,-95.32 98,-95.32"/>
</g>
</g>
</svg>
