<?xml version="1.0" encoding="UTF-8" standalone="no"?>
<!DOCTYPE svg PUBLIC "-//W3C//DTD SVG 1.1//EN"
 "http://www.w3.org/Graphics/SVG/1.1/DTD/svg11.dtd">
<!-- Generated by graphviz version 2.48.0 (20210717.1556)
 -->
<!-- Title: global::ProgramObject Pages: 1 -->
<svg width="891pt" height="684pt"
 viewBox="0.00 0.00 891.00 684.00" xmlns="http://www.w3.org/2000/svg" xmlns:xlink="http://www.w3.org/1999/xlink">
<g id="graph0" class="graph" transform="scale(1 1) rotate(0) translate(4 680)">
<title>global::ProgramObject</title>
<!-- Node1 -->
<g id="node1" class="node">
<title>Node1</title>
<g id="a_node1"><a xlink:title="This class is used to provide basic program functionalites for objects.">
<polygon fill="#bfbfbf" stroke="black" points="346,-524.5 346,-581.5 489,-581.5 489,-524.5 346,-524.5"/>
<text text-anchor="middle" x="417.5" y="-569.5" font-family="JetBrains Mono" font-size="10.00">global::ProgramObject</text>
<polyline fill="none" stroke="black" points="346,-562.5 489,-562.5 "/>
<text text-anchor="middle" x="417.5" y="-550.5" font-family="JetBrains Mono" font-size="10.00"> </text>
<polyline fill="none" stroke="black" points="346,-543.5 489,-543.5 "/>
<text text-anchor="middle" x="417.5" y="-531.5" font-family="JetBrains Mono" font-size="10.00"> </text>
</a>
</g>
</g>
<!-- Node3 -->
<g id="node3" class="node">
<title>Node3</title>
<g id="a_node3"><a xlink:href="classbackend_1_1_byte_buffer.html" target="_top" xlink:title="Objects of this class are buffers which can be shared and modified by several objects.">
<polygon fill="none" stroke="black" points="0,-331.5 0,-476.5 131,-476.5 131,-331.5 0,-331.5"/>
<text text-anchor="middle" x="65.5" y="-464.5" font-family="JetBrains Mono" font-size="10.00">backend::ByteBuffer</text>
<polyline fill="none" stroke="black" points="0,-457.5 131,-457.5 "/>
<text text-anchor="middle" x="65.5" y="-445.5" font-family="JetBrains Mono" font-size="10.00"> </text>
<polyline fill="none" stroke="black" points="0,-438.5 131,-438.5 "/>
<text text-anchor="start" x="8" y="-426.5" font-family="JetBrains Mono" font-size="10.00">+ ByteBuffer()</text>
<text text-anchor="start" x="8" y="-415.5" font-family="JetBrains Mono" font-size="10.00">+ ~ByteBuffer()</text>
<text text-anchor="start" x="8" y="-404.5" font-family="JetBrains Mono" font-size="10.00">+ appendBytes()</text>
<text text-anchor="start" x="8" y="-393.5" font-family="JetBrains Mono" font-size="10.00">+ appendByte()</text>
<text text-anchor="start" x="8" y="-382.5" font-family="JetBrains Mono" font-size="10.00">+ getAllBytes()</text>
<text text-anchor="start" x="8" y="-371.5" font-family="JetBrains Mono" font-size="10.00">+ getBytes()</text>
<text text-anchor="start" x="8" y="-360.5" font-family="JetBrains Mono" font-size="10.00">+ getByte()</text>
<text text-anchor="start" x="8" y="-349.5" font-family="JetBrains Mono" font-size="10.00">+ isEmpty()</text>
<text text-anchor="start" x="8" y="-338.5" font-family="JetBrains Mono" font-size="10.00">+ size()</text>
</a>
</g>
</g>
<!-- Node1&#45;&gt;Node3 -->
<g id="edge2" class="edge">
<title>Node1&#45;&gt;Node3</title>
<path fill="none" stroke="midnightblue" d="M335.73,-546.36C277.6,-539.33 199.51,-523.52 139.5,-488 134.02,-484.75 128.72,-480.97 123.65,-476.83"/>
<polygon fill="none" stroke="midnightblue" points="335.64,-549.88 345.98,-547.54 336.44,-542.92 335.64,-549.88"/>
</g>
<!-- Node4 -->
<g id="node4" class="node">
<title>Node4</title>
<g id="a_node4"><a xlink:href="classbackend_1_1_complex_parser.html" target="_top" xlink:title="This class provides composite objects which can have children.">
<polygon fill="none" stroke="black" points="149,-326 149,-482 316,-482 316,-326 149,-326"/>
<text text-anchor="middle" x="232.5" y="-470" font-family="JetBrains Mono" font-size="10.00">backend::ComplexParser</text>
<polyline fill="none" stroke="black" points="149,-463 316,-463 "/>
<text text-anchor="start" x="157" y="-451" font-family="JetBrains Mono" font-size="10.00"># children_</text>
<text text-anchor="start" x="157" y="-440" font-family="JetBrains Mono" font-size="10.00"># commands_count_</text>
<polyline fill="none" stroke="black" points="149,-433 316,-433 "/>
<text text-anchor="start" x="157" y="-421" font-family="JetBrains Mono" font-size="10.00">+ ComplexParser()</text>
<text text-anchor="start" x="157" y="-410" font-family="JetBrains Mono" font-size="10.00">+ isComposite()</text>
<text text-anchor="start" x="157" y="-399" font-family="JetBrains Mono" font-size="10.00">+ addChild()</text>
<text text-anchor="start" x="157" y="-388" font-family="JetBrains Mono" font-size="10.00">+ setBuffer()</text>
<text text-anchor="start" x="157" y="-377" font-family="JetBrains Mono" font-size="10.00"># checkCode()</text>
<text text-anchor="start" x="157" y="-366" font-family="JetBrains Mono" font-size="10.00"># proccessingLoop()</text>
<text text-anchor="start" x="157" y="-355" font-family="JetBrains Mono" font-size="10.00"># parseCommand()</text>
<text text-anchor="start" x="157" y="-344" font-family="JetBrains Mono" font-size="10.00"># specialPreOperations()</text>
<text text-anchor="start" x="157" y="-333" font-family="JetBrains Mono" font-size="10.00"># specialPostOperations()</text>
</a>
</g>
</g>
<!-- Node1&#45;&gt;Node4 -->
<g id="edge3" class="edge">
<title>Node1&#45;&gt;Node4</title>
<path fill="none" stroke="midnightblue" d="M366.5,-518.68C352.61,-509.13 337.75,-498.46 324.5,-488 321.71,-485.8 318.91,-483.54 316.09,-481.23"/>
<polygon fill="none" stroke="midnightblue" points="364.76,-521.73 374.99,-524.47 368.7,-515.94 364.76,-521.73"/>
</g>
<!-- Node8 -->
<g id="node8" class="node">
<title>Node8</title>
<g id="a_node8"><a xlink:href="classbackend_1_1_port_scanner.html" target="_top" xlink:title="Objects of this class are looking for avalaible RS232 ports.">
<polygon fill="none" stroke="black" points="334,-320.5 334,-487.5 501,-487.5 501,-320.5 334,-320.5"/>
<text text-anchor="middle" x="417.5" y="-475.5" font-family="JetBrains Mono" font-size="10.00">backend::PortScanner</text>
<polyline fill="none" stroke="black" points="334,-468.5 501,-468.5 "/>
<text text-anchor="middle" x="417.5" y="-456.5" font-family="JetBrains Mono" font-size="10.00"> </text>
<polyline fill="none" stroke="black" points="334,-449.5 501,-449.5 "/>
<text text-anchor="start" x="342" y="-437.5" font-family="JetBrains Mono" font-size="10.00">+ PortScanner()</text>
<text text-anchor="start" x="342" y="-426.5" font-family="JetBrains Mono" font-size="10.00">+ ~PortScanner()</text>
<text text-anchor="start" x="342" y="-415.5" font-family="JetBrains Mono" font-size="10.00">+ getPortByNumber()</text>
<text text-anchor="start" x="342" y="-404.5" font-family="JetBrains Mono" font-size="10.00">+ getPortByName()</text>
<text text-anchor="start" x="342" y="-393.5" font-family="JetBrains Mono" font-size="10.00">+ getProductIndetifiers()</text>
<text text-anchor="start" x="342" y="-382.5" font-family="JetBrains Mono" font-size="10.00">+ getVendorIndetifiers()</text>
<text text-anchor="start" x="342" y="-371.5" font-family="JetBrains Mono" font-size="10.00">+ getPortNames()</text>
<text text-anchor="start" x="342" y="-360.5" font-family="JetBrains Mono" font-size="10.00">+ getPortDescriptions()</text>
<text text-anchor="start" x="342" y="-349.5" font-family="JetBrains Mono" font-size="10.00">+ getCompletePortData()</text>
<text text-anchor="start" x="342" y="-338.5" font-family="JetBrains Mono" font-size="10.00">+ portsCount()</text>
<text text-anchor="start" x="342" y="-327.5" font-family="JetBrains Mono" font-size="10.00">+ rescan()</text>
</a>
</g>
</g>
<!-- Node1&#45;&gt;Node8 -->
<g id="edge7" class="edge">
<title>Node1&#45;&gt;Node8</title>
<path fill="none" stroke="midnightblue" d="M417.5,-514.35C417.5,-506.08 417.5,-497.01 417.5,-487.74"/>
<polygon fill="none" stroke="midnightblue" points="414,-514.35 417.5,-524.35 421,-514.35 414,-514.35"/>
</g>
<!-- Node9 -->
<g id="node9" class="node">
<title>Node9</title>
<g id="a_node9"><a xlink:href="classbackend_1_1_port_state_operator.html" target="_top" xlink:title="This base class provides basic RS232 port operators.">
<polygon fill="none" stroke="black" points="519,-320.5 519,-487.5 692,-487.5 692,-320.5 519,-320.5"/>
<text text-anchor="middle" x="605.5" y="-475.5" font-family="JetBrains Mono" font-size="10.00">backend::PortStateOperator</text>
<polyline fill="none" stroke="black" points="519,-468.5 692,-468.5 "/>
<text text-anchor="start" x="527" y="-456.5" font-family="JetBrains Mono" font-size="10.00"># current_port_</text>
<text text-anchor="start" x="527" y="-445.5" font-family="JetBrains Mono" font-size="10.00"># current_port_info_</text>
<polyline fill="none" stroke="black" points="519,-438.5 692,-438.5 "/>
<text text-anchor="start" x="527" y="-426.5" font-family="JetBrains Mono" font-size="10.00">+ PortStateOperator()</text>
<text text-anchor="start" x="527" y="-415.5" font-family="JetBrains Mono" font-size="10.00">+ PortStateOperator()</text>
<text text-anchor="start" x="527" y="-404.5" font-family="JetBrains Mono" font-size="10.00">+ ~PortStateOperator()</text>
<text text-anchor="start" x="527" y="-393.5" font-family="JetBrains Mono" font-size="10.00">+ changePort()</text>
<text text-anchor="start" x="527" y="-382.5" font-family="JetBrains Mono" font-size="10.00">+ changeSettings()</text>
<text text-anchor="start" x="527" y="-371.5" font-family="JetBrains Mono" font-size="10.00">+ closePort()</text>
<text text-anchor="start" x="527" y="-360.5" font-family="JetBrains Mono" font-size="10.00">+ openPort()</text>
<text text-anchor="start" x="527" y="-349.5" font-family="JetBrains Mono" font-size="10.00">+ isOpen()</text>
<text text-anchor="start" x="527" y="-338.5" font-family="JetBrains Mono" font-size="10.00">+ getError()</text>
<text text-anchor="start" x="527" y="-327.5" font-family="JetBrains Mono" font-size="10.00"># deviceErrorService()</text>
</a>
</g>
</g>
<!-- Node1&#45;&gt;Node9 -->
<g id="edge8" class="edge">
<title>Node1&#45;&gt;Node9</title>
<path fill="none" stroke="midnightblue" d="M467.79,-518.44C481.52,-508.89 496.27,-498.28 509.5,-488 512.63,-485.57 515.8,-483.07 518.98,-480.52"/>
<polygon fill="none" stroke="midnightblue" points="465.63,-515.67 459.38,-524.23 469.6,-521.43 465.63,-515.67"/>
</g>
<!-- Node12 -->
<g id="node12" class="node">
<title>Node12</title>
<g id="a_node12"><a xlink:href="classbackend_1_1_unit_test_converter.html" target="_top" xlink:title="This class converts UnitTestDataPackage objects to UnitTest object which can be send to QML or JS fun...">
<polygon fill="none" stroke="black" points="710,-353.5 710,-454.5 883,-454.5 883,-353.5 710,-353.5"/>
<text text-anchor="middle" x="796.5" y="-442.5" font-family="JetBrains Mono" font-size="10.00">backend::UnitTestConverter</text>
<polyline fill="none" stroke="black" points="710,-435.5 883,-435.5 "/>
<text text-anchor="middle" x="796.5" y="-423.5" font-family="JetBrains Mono" font-size="10.00"> </text>
<polyline fill="none" stroke="black" points="710,-416.5 883,-416.5 "/>
<text text-anchor="start" x="718" y="-404.5" font-family="JetBrains Mono" font-size="10.00">+ UnitTestConverter()</text>
<text text-anchor="start" x="718" y="-393.5" font-family="JetBrains Mono" font-size="10.00">+ getUnitTest()</text>
<text text-anchor="start" x="718" y="-382.5" font-family="JetBrains Mono" font-size="10.00"># convertValues()</text>
<text text-anchor="start" x="718" y="-371.5" font-family="JetBrains Mono" font-size="10.00"># getDescriptor()</text>
<text text-anchor="start" x="718" y="-360.5" font-family="JetBrains Mono" font-size="10.00"># getTestResult()</text>
</a>
</g>
</g>
<!-- Node1&#45;&gt;Node12 -->
<g id="edge11" class="edge">
<title>Node1&#45;&gt;Node12</title>
<path fill="none" stroke="midnightblue" d="M499.03,-544.26C557.59,-536.2 637.06,-520.04 700.5,-488 717.41,-479.46 733.8,-467.29 748.1,-454.89"/>
<polygon fill="none" stroke="midnightblue" points="498.53,-540.79 489.08,-545.57 499.45,-547.73 498.53,-540.79"/>
</g>
<!-- Node2 -->
<g id="node2" class="node">
<title>Node2</title>
<g id="a_node2"><a xlink:href="classglobal_1_1_throwing_object.html" target="_top" xlink:title="This is base class which allows us to check statements at runtime.">
<polygon fill="none" stroke="black" points="343,-618.5 343,-675.5 492,-675.5 492,-618.5 343,-618.5"/>
<text text-anchor="middle" x="417.5" y="-663.5" font-family="JetBrains Mono" font-size="10.00">global::ThrowingObject</text>
<polyline fill="none" stroke="black" points="343,-656.5 492,-656.5 "/>
<text text-anchor="middle" x="417.5" y="-644.5" font-family="JetBrains Mono" font-size="10.00"> </text>
<polyline fill="none" stroke="black" points="343,-637.5 492,-637.5 "/>
<text text-anchor="start" x="351" y="-625.5" font-family="JetBrains Mono" font-size="10.00">+ throwIf()</text>
</a>
</g>
</g>
<!-- Node2&#45;&gt;Node1 -->
<g id="edge1" class="edge">
<title>Node2&#45;&gt;Node1</title>
<path fill="none" stroke="midnightblue" d="M417.5,-608.21C417.5,-599.29 417.5,-589.95 417.5,-581.58"/>
<polygon fill="none" stroke="midnightblue" points="414,-608.4 417.5,-618.4 421,-608.4 414,-608.4"/>
</g>
<!-- Node5 -->
<g id="node5" class="node">
<title>Node5</title>
<g id="a_node5"><a xlink:href="classbackend_1_1_root_parser.html" target="_top" xlink:title="Root of the processing tree.">
<polygon fill="none" stroke="black" points="3,-188 3,-278 134,-278 134,-188 3,-188"/>
<text text-anchor="middle" x="68.5" y="-266" font-family="JetBrains Mono" font-size="10.00">backend::RootParser</text>
<polyline fill="none" stroke="black" points="3,-259 134,-259 "/>
<text text-anchor="middle" x="68.5" y="-247" font-family="JetBrains Mono" font-size="10.00"> </text>
<polyline fill="none" stroke="black" points="3,-240 134,-240 "/>
<text text-anchor="start" x="11" y="-228" font-family="JetBrains Mono" font-size="10.00">+ RootParser()</text>
<text text-anchor="start" x="11" y="-217" font-family="JetBrains Mono" font-size="10.00">+ createPackage()</text>
<text text-anchor="start" x="11" y="-206" font-family="JetBrains Mono" font-size="10.00">+ getPackage()</text>
<text text-anchor="start" x="11" y="-195" font-family="JetBrains Mono" font-size="10.00">+ startProcessing()</text>
</a>
</g>
</g>
<!-- Node4&#45;&gt;Node5 -->
<g id="edge4" class="edge">
<title>Node4&#45;&gt;Node5</title>
<path fill="none" stroke="midnightblue" d="M150.61,-318.61C137.04,-304.63 123.46,-290.64 111.37,-278.18"/>
<polygon fill="none" stroke="midnightblue" points="148.22,-321.18 157.7,-325.92 153.25,-316.3 148.22,-321.18"/>
</g>
<!-- Node6 -->
<g id="node6" class="node">
<title>Node6</title>
<g id="a_node6"><a xlink:href="classbackend_1_1_test_case_parser.html" target="_top" xlink:title="Parses all test case. It receives commands from buffer and processes it. Recognizes commands from Tes...">
<polygon fill="none" stroke="black" points="152,-193.5 152,-272.5 313,-272.5 313,-193.5 152,-193.5"/>
<text text-anchor="middle" x="232.5" y="-260.5" font-family="JetBrains Mono" font-size="10.00">backend::TestCaseParser</text>
<polyline fill="none" stroke="black" points="152,-253.5 313,-253.5 "/>
<text text-anchor="middle" x="232.5" y="-241.5" font-family="JetBrains Mono" font-size="10.00"> </text>
<polyline fill="none" stroke="black" points="152,-234.5 313,-234.5 "/>
<text text-anchor="start" x="160" y="-222.5" font-family="JetBrains Mono" font-size="10.00">+ TestCaseParser()</text>
<text text-anchor="start" x="160" y="-211.5" font-family="JetBrains Mono" font-size="10.00"># createPackage()</text>
<text text-anchor="start" x="160" y="-200.5" font-family="JetBrains Mono" font-size="10.00"># specialPreOperations()</text>
</a>
</g>
</g>
<!-- Node4&#45;&gt;Node6 -->
<g id="edge5" class="edge">
<title>Node4&#45;&gt;Node6</title>
<path fill="none" stroke="midnightblue" d="M232.5,-315.51C232.5,-300.47 232.5,-285.56 232.5,-272.68"/>
<polygon fill="none" stroke="midnightblue" points="229,-315.92 232.5,-325.92 236,-315.92 229,-315.92"/>
</g>
<!-- Node7 -->
<g id="node7" class="node">
<title>Node7</title>
<g id="a_node7"><a xlink:href="classbackend_1_1_unit_test_parser.html" target="_top" xlink:title="Parses all unit test It receives commands from buffer and processes it. Recognizes commands from Unit...">
<polygon fill="none" stroke="black" points="331,-199 331,-267 492,-267 492,-199 331,-199"/>
<text text-anchor="middle" x="411.5" y="-255" font-family="JetBrains Mono" font-size="10.00">backend::UnitTestParser</text>
<polyline fill="none" stroke="black" points="331,-248 492,-248 "/>
<text text-anchor="middle" x="411.5" y="-236" font-family="JetBrains Mono" font-size="10.00"> </text>
<polyline fill="none" stroke="black" points="331,-229 492,-229 "/>
<text text-anchor="start" x="339" y="-217" font-family="JetBrains Mono" font-size="10.00">+ UnitTestParser()</text>
<text text-anchor="start" x="339" y="-206" font-family="JetBrains Mono" font-size="10.00"># specialPreOperations()</text>
</a>
</g>
</g>
<!-- Node4&#45;&gt;Node7 -->
<g id="edge6" class="edge">
<title>Node4&#45;&gt;Node7</title>
<path fill="none" stroke="midnightblue" d="M321.55,-318.92C340.92,-300.64 360.31,-282.33 376.1,-267.42"/>
<polygon fill="none" stroke="midnightblue" points="319.01,-316.51 314.14,-325.92 323.82,-321.6 319.01,-316.51"/>
</g>
<!-- Node10 -->
<g id="node10" class="node">
<title>Node10</title>
<g id="a_node10"><a xlink:href="classbackend_1_1_port_flow_operator.html" target="_top" xlink:title="Extended PortStateOperator which allows to exchange data.">
<polygon fill="none" stroke="black" points="522,-182.5 522,-283.5 689,-283.5 689,-182.5 522,-182.5"/>
<text text-anchor="middle" x="605.5" y="-271.5" font-family="JetBrains Mono" font-size="10.00">backend::PortFlowOperator</text>
<polyline fill="none" stroke="black" points="522,-264.5 689,-264.5 "/>
<text text-anchor="middle" x="605.5" y="-252.5" font-family="JetBrains Mono" font-size="10.00"> </text>
<polyline fill="none" stroke="black" points="522,-245.5 689,-245.5 "/>
<text text-anchor="start" x="530" y="-233.5" font-family="JetBrains Mono" font-size="10.00">+ PortFlowOperator()</text>
<text text-anchor="start" x="530" y="-222.5" font-family="JetBrains Mono" font-size="10.00">+ PortFlowOperator()</text>
<text text-anchor="start" x="530" y="-211.5" font-family="JetBrains Mono" font-size="10.00">+ ~PortFlowOperator()</text>
<text text-anchor="start" x="530" y="-200.5" font-family="JetBrains Mono" font-size="10.00">+ sendBytesToPort()</text>
<text text-anchor="start" x="530" y="-189.5" font-family="JetBrains Mono" font-size="10.00">+ getAllBytesFromPort()</text>
</a>
</g>
</g>
<!-- Node9&#45;&gt;Node10 -->
<g id="edge9" class="edge">
<title>Node9&#45;&gt;Node10</title>
<path fill="none" stroke="midnightblue" d="M605.5,-310.47C605.5,-301.28 605.5,-292.21 605.5,-283.71"/>
<polygon fill="none" stroke="midnightblue" points="602,-310.48 605.5,-320.48 609,-310.48 602,-310.48"/>
</g>
<!-- Node11 -->
<g id="node11" class="node">
<title>Node11</title>
<g id="a_node11"><a xlink:href="classbackend_1_1_buffered_port_flow_operator.html" target="_top" xlink:title="Extended PortFlowOperator which operates on the buffers.">
<polygon fill="none" stroke="black" points="510,-0.5 510,-145.5 701,-145.5 701,-0.5 510,-0.5"/>
<text text-anchor="start" x="518" y="-133.5" font-family="JetBrains Mono" font-size="10.00">backend::BufferedPortFlow</text>
<text text-anchor="middle" x="605.5" y="-122.5" font-family="JetBrains Mono" font-size="10.00">Operator</text>
<polyline fill="none" stroke="black" points="510,-115.5 701,-115.5 "/>
<text text-anchor="start" x="518" y="-103.5" font-family="JetBrains Mono" font-size="10.00"># input_byte_buffer_</text>
<text text-anchor="start" x="518" y="-92.5" font-family="JetBrains Mono" font-size="10.00"># output_byte_buffer_</text>
<polyline fill="none" stroke="black" points="510,-85.5 701,-85.5 "/>
<text text-anchor="start" x="518" y="-73.5" font-family="JetBrains Mono" font-size="10.00">+ BufferedPortFlowOperator()</text>
<text text-anchor="start" x="518" y="-62.5" font-family="JetBrains Mono" font-size="10.00">+ BufferedPortFlowOperator()</text>
<text text-anchor="start" x="518" y="-51.5" font-family="JetBrains Mono" font-size="10.00">+ ~BufferedPortFlowOperator()</text>
<text text-anchor="start" x="518" y="-40.5" font-family="JetBrains Mono" font-size="10.00">+ setInputByteBuffer()</text>
<text text-anchor="start" x="518" y="-29.5" font-family="JetBrains Mono" font-size="10.00">+ setOutputByteBuffer()</text>
<text text-anchor="start" x="518" y="-18.5" font-family="JetBrains Mono" font-size="10.00"># sendDataFromPortToBuffer()</text>
<text text-anchor="start" x="518" y="-7.5" font-family="JetBrains Mono" font-size="10.00"># sendDataFromBufferToPort()</text>
</a>
</g>
</g>
<!-- Node10&#45;&gt;Node11 -->
<g id="edge10" class="edge">
<title>Node10&#45;&gt;Node11</title>
<path fill="none" stroke="midnightblue" d="M605.5,-172.38C605.5,-163.66 605.5,-154.59 605.5,-145.66"/>
<polygon fill="none" stroke="midnightblue" points="602,-172.44 605.5,-182.44 609,-172.44 602,-172.44"/>
</g>
</g>
</svg>
