<?xml version="1.0" encoding="UTF-8" standalone="no"?>
<!DOCTYPE svg PUBLIC "-//W3C//DTD SVG 1.1//EN"
 "http://www.w3.org/Graphics/SVG/1.1/DTD/svg11.dtd">
<!-- Generated by graphviz version 2.48.0 (20210717.1556)
 -->
<!-- Title: backend::LowerValueParser Pages: 1 -->
<svg width="181pt" height="535pt"
 viewBox="0.00 0.00 181.00 535.00" xmlns="http://www.w3.org/2000/svg" xmlns:xlink="http://www.w3.org/1999/xlink">
<g id="graph0" class="graph" transform="scale(1 1) rotate(0) translate(4 531)">
<title>backend::LowerValueParser</title>
<!-- Node1 -->
<g id="node1" class="node">
<title>Node1</title>
<g id="a_node1"><a xlink:title="Redirects number&#39;s bytes to unit test lower value.">
<polygon fill="#bfbfbf" stroke="black" points="3,-0.5 3,-57.5 170,-57.5 170,-0.5 3,-0.5"/>
<text text-anchor="middle" x="86.5" y="-45.5" font-family="JetBrains Mono" font-size="10.00">backend::LowerValueParser</text>
<polyline fill="none" stroke="black" points="3,-38.5 170,-38.5 "/>
<text text-anchor="middle" x="86.5" y="-26.5" font-family="JetBrains Mono" font-size="10.00"> </text>
<polyline fill="none" stroke="black" points="3,-19.5 170,-19.5 "/>
<text text-anchor="start" x="11" y="-7.5" font-family="JetBrains Mono" font-size="10.00"># redirectValueBytes()</text>
</a>
</g>
</g>
<!-- Node2 -->
<g id="node2" class="node">
<title>Node2</title>
<g id="a_node2"><a xlink:href="classbackend_1_1_value_parser.html" target="_top" xlink:title="Base class for parsers which parses a numeric value.">
<polygon fill="none" stroke="black" points="12,-94.5 12,-162.5 161,-162.5 161,-94.5 12,-94.5"/>
<text text-anchor="middle" x="86.5" y="-150.5" font-family="JetBrains Mono" font-size="10.00">backend::ValueParser</text>
<polyline fill="none" stroke="black" points="12,-143.5 161,-143.5 "/>
<text text-anchor="middle" x="86.5" y="-131.5" font-family="JetBrains Mono" font-size="10.00"> </text>
<polyline fill="none" stroke="black" points="12,-124.5 161,-124.5 "/>
<text text-anchor="start" x="20" y="-112.5" font-family="JetBrains Mono" font-size="10.00"># parseCommand()</text>
<text text-anchor="start" x="20" y="-101.5" font-family="JetBrains Mono" font-size="10.00"># redirectValueBytes()</text>
</a>
</g>
</g>
<!-- Node2&#45;&gt;Node1 -->
<g id="edge1" class="edge">
<title>Node2&#45;&gt;Node1</title>
<path fill="none" stroke="midnightblue" d="M86.5,-84.45C86.5,-75.4 86.5,-66.09 86.5,-57.78"/>
<polygon fill="none" stroke="midnightblue" points="83,-84.49 86.5,-94.49 90,-84.49 83,-84.49"/>
</g>
<!-- Node3 -->
<g id="node3" class="node">
<title>Node3</title>
<g id="a_node3"><a xlink:href="classbackend_1_1_parser_component.html" target="_top" xlink:title="This is the base class for all parsers in the parsing tree.">
<polygon fill="none" stroke="black" points="6,-199.5 6,-344.5 167,-344.5 167,-199.5 6,-199.5"/>
<text text-anchor="middle" x="86.5" y="-332.5" font-family="JetBrains Mono" font-size="10.00">backend::ParserComponent</text>
<polyline fill="none" stroke="black" points="6,-325.5 167,-325.5 "/>
<text text-anchor="start" x="14" y="-313.5" font-family="JetBrains Mono" font-size="10.00"># parent_</text>
<text text-anchor="start" x="14" y="-302.5" font-family="JetBrains Mono" font-size="10.00"># buffer_</text>
<text text-anchor="start" x="14" y="-291.5" font-family="JetBrains Mono" font-size="10.00"># package_</text>
<text text-anchor="start" x="14" y="-280.5" font-family="JetBrains Mono" font-size="10.00"># current_type_</text>
<polyline fill="none" stroke="black" points="6,-273.5 167,-273.5 "/>
<text text-anchor="start" x="14" y="-261.5" font-family="JetBrains Mono" font-size="10.00">+ getParent()</text>
<text text-anchor="start" x="14" y="-250.5" font-family="JetBrains Mono" font-size="10.00">+ setParent()</text>
<text text-anchor="start" x="14" y="-239.5" font-family="JetBrains Mono" font-size="10.00">+ addChild()</text>
<text text-anchor="start" x="14" y="-228.5" font-family="JetBrains Mono" font-size="10.00">+ isComposite()</text>
<text text-anchor="start" x="14" y="-217.5" font-family="JetBrains Mono" font-size="10.00">+ setBuffer()</text>
<text text-anchor="start" x="14" y="-206.5" font-family="JetBrains Mono" font-size="10.00"># createPackage()</text>
</a>
</g>
</g>
<!-- Node3&#45;&gt;Node2 -->
<g id="edge2" class="edge">
<title>Node3&#45;&gt;Node2</title>
<path fill="none" stroke="midnightblue" d="M86.5,-189.19C86.5,-179.83 86.5,-170.73 86.5,-162.58"/>
<polygon fill="none" stroke="midnightblue" points="83,-189.42 86.5,-199.42 90,-189.42 83,-189.42"/>
</g>
<!-- Node4 -->
<g id="node4" class="node">
<title>Node4</title>
<g id="a_node4"><a xlink:href="classinterface_1_1_parser_component.html" target="_top" xlink:title="ParserComponent common interface.">
<polygon fill="none" stroke="black" points="0,-381.5 0,-526.5 173,-526.5 173,-381.5 0,-381.5"/>
<text text-anchor="middle" x="86.5" y="-514.5" font-family="JetBrains Mono" font-size="10.00">interface::ParserComponent</text>
<polyline fill="none" stroke="black" points="0,-507.5 173,-507.5 "/>
<text text-anchor="middle" x="86.5" y="-495.5" font-family="JetBrains Mono" font-size="10.00"> </text>
<polyline fill="none" stroke="black" points="0,-488.5 173,-488.5 "/>
<text text-anchor="start" x="8" y="-476.5" font-family="JetBrains Mono" font-size="10.00">+ getParent()</text>
<text text-anchor="start" x="8" y="-465.5" font-family="JetBrains Mono" font-size="10.00">+ setParent()</text>
<text text-anchor="start" x="8" y="-454.5" font-family="JetBrains Mono" font-size="10.00">+ addChild()</text>
<text text-anchor="start" x="8" y="-443.5" font-family="JetBrains Mono" font-size="10.00">+ isComposite()</text>
<text text-anchor="start" x="8" y="-432.5" font-family="JetBrains Mono" font-size="10.00">+ setBuffer()</text>
<text text-anchor="start" x="8" y="-421.5" font-family="JetBrains Mono" font-size="10.00">+ parseCommand()</text>
<text text-anchor="start" x="8" y="-410.5" font-family="JetBrains Mono" font-size="10.00">+ createPackage()</text>
<text text-anchor="start" x="8" y="-399.5" font-family="JetBrains Mono" font-size="10.00">+ getPackage()</text>
<text text-anchor="start" x="8" y="-388.5" font-family="JetBrains Mono" font-size="10.00">+ startProcessing()</text>
</a>
</g>
</g>
<!-- Node4&#45;&gt;Node3 -->
<g id="edge3" class="edge">
<title>Node4&#45;&gt;Node3</title>
<path fill="none" stroke="midnightblue" d="M86.5,-371.08C86.5,-362.28 86.5,-353.37 86.5,-344.71"/>
<polygon fill="none" stroke="midnightblue" points="83,-371.34 86.5,-381.34 90,-371.34 83,-371.34"/>
</g>
</g>
</svg>
