<?xml version="1.0" encoding="UTF-8" standalone="no"?>
<!DOCTYPE svg PUBLIC "-//W3C//DTD SVG 1.1//EN"
 "http://www.w3.org/Graphics/SVG/1.1/DTD/svg11.dtd">
<!-- Generated by graphviz version 2.48.0 (20210717.1556)
 -->
<!-- Title: backend::ComplexParser::parseCommand Pages: 1 -->
<svg width="724pt" height="186pt"
 viewBox="0.00 0.00 724.00 186.00" xmlns="http://www.w3.org/2000/svg" xmlns:xlink="http://www.w3.org/1999/xlink">
<g id="graph0" class="graph" transform="scale(1 1) rotate(0) translate(4 182)">
<title>backend::ComplexParser::parseCommand</title>
<!-- Node1 -->
<g id="node1" class="node">
<title>Node1</title>
<g id="a_node1"><a xlink:title=" ">
<polygon fill="#bfbfbf" stroke="black" points="0,-98.5 0,-128.5 149,-128.5 149,-98.5 0,-98.5"/>
<text text-anchor="start" x="8" y="-116.5" font-family="JetBrains Mono" font-size="10.00">backend::ComplexParser</text>
<text text-anchor="middle" x="74.5" y="-105.5" font-family="JetBrains Mono" font-size="10.00">::parseCommand</text>
</a>
</g>
</g>
<!-- Node2 -->
<g id="node2" class="node">
<title>Node2</title>
<g id="a_node2"><a xlink:href="classbackend_1_1_parser_component.html#a85ef9bd7806f4c75a9534f9ed0bcdc6d" target="_top" xlink:title="Allocates a new package.">
<polygon fill="none" stroke="black" points="185,-147.5 185,-177.5 346,-177.5 346,-147.5 185,-147.5"/>
<text text-anchor="start" x="193" y="-165.5" font-family="JetBrains Mono" font-size="10.00">backend::ParserComponent</text>
<text text-anchor="middle" x="265.5" y="-154.5" font-family="JetBrains Mono" font-size="10.00">::createPackage</text>
</a>
</g>
</g>
<!-- Node1&#45;&gt;Node2 -->
<g id="edge1" class="edge">
<title>Node1&#45;&gt;Node2</title>
<path fill="none" stroke="midnightblue" d="M133.49,-128.53C153.54,-133.73 176.17,-139.6 196.92,-144.98"/>
<polygon fill="midnightblue" stroke="midnightblue" points="196.06,-148.37 206.62,-147.49 197.82,-141.6 196.06,-148.37"/>
</g>
<!-- Node3 -->
<g id="node3" class="node">
<title>Node3</title>
<g id="a_node3"><a xlink:href="classbackend_1_1_complex_parser.html#ae56300ff36c91f88abddbb64f2d2f567" target="_top" xlink:title=" ">
<polygon fill="none" stroke="black" points="191,-98.5 191,-128.5 340,-128.5 340,-98.5 191,-98.5"/>
<text text-anchor="start" x="199" y="-116.5" font-family="JetBrains Mono" font-size="10.00">backend::ComplexParser</text>
<text text-anchor="middle" x="265.5" y="-105.5" font-family="JetBrains Mono" font-size="10.00">::proccessingLoop</text>
</a>
</g>
</g>
<!-- Node1&#45;&gt;Node3 -->
<g id="edge2" class="edge">
<title>Node1&#45;&gt;Node3</title>
<path fill="none" stroke="midnightblue" d="M149.11,-106.9C159.48,-106.75 170.2,-106.71 180.74,-106.79"/>
<polygon fill="midnightblue" stroke="midnightblue" points="180.74,-110.29 190.78,-106.9 180.81,-103.29 180.74,-110.29"/>
</g>
<!-- Node7 -->
<g id="node7" class="node">
<title>Node7</title>
<g id="a_node7"><a xlink:href="classbackend_1_1_complex_parser.html#a9078103573155db37cd48558d150b22f" target="_top" xlink:title=" ">
<polygon fill="none" stroke="black" points="188,-49.5 188,-79.5 343,-79.5 343,-49.5 188,-49.5"/>
<text text-anchor="start" x="196" y="-67.5" font-family="JetBrains Mono" font-size="10.00">backend::ComplexParser</text>
<text text-anchor="middle" x="265.5" y="-56.5" font-family="JetBrains Mono" font-size="10.00">::specialPostOperations</text>
</a>
</g>
</g>
<!-- Node1&#45;&gt;Node7 -->
<g id="edge7" class="edge">
<title>Node1&#45;&gt;Node7</title>
<path fill="none" stroke="midnightblue" d="M133.49,-98.47C153.54,-93.27 176.17,-87.4 196.92,-82.02"/>
<polygon fill="midnightblue" stroke="midnightblue" points="197.82,-85.4 206.62,-79.51 196.06,-78.63 197.82,-85.4"/>
</g>
<!-- Node8 -->
<g id="node8" class="node">
<title>Node8</title>
<g id="a_node8"><a xlink:href="classbackend_1_1_complex_parser.html#a41a945f539d7dc36fbd1121f23b537a7" target="_top" xlink:title=" ">
<polygon fill="none" stroke="black" points="191,-0.5 191,-30.5 340,-30.5 340,-0.5 191,-0.5"/>
<text text-anchor="start" x="199" y="-18.5" font-family="JetBrains Mono" font-size="10.00">backend::ComplexParser</text>
<text text-anchor="middle" x="265.5" y="-7.5" font-family="JetBrains Mono" font-size="10.00">::specialPreOperations</text>
</a>
</g>
</g>
<!-- Node1&#45;&gt;Node8 -->
<g id="edge8" class="edge">
<title>Node1&#45;&gt;Node8</title>
<path fill="none" stroke="midnightblue" d="M94.21,-98.26C115.2,-81.8 150.81,-55.75 185,-39.5 189.06,-37.57 193.32,-35.75 197.66,-34.05"/>
<polygon fill="midnightblue" stroke="midnightblue" points="199.09,-37.25 207.25,-30.5 196.66,-30.69 199.09,-37.25"/>
</g>
<!-- Node3&#45;&gt;Node1 -->
<g id="edge6" class="edge">
<title>Node3&#45;&gt;Node1</title>
<path fill="none" stroke="midnightblue" d="M190.78,-120.1C180.41,-120.25 169.68,-120.29 159.14,-120.21"/>
<polygon fill="midnightblue" stroke="midnightblue" points="159.15,-116.71 149.11,-120.1 159.07,-123.71 159.15,-116.71"/>
</g>
<!-- Node4 -->
<g id="node4" class="node">
<title>Node4</title>
<g id="a_node4"><a xlink:href="classbackend_1_1_complex_parser.html#a62faf25d62bf3dc4c956933e1b3f1c82" target="_top" xlink:title=" ">
<polygon fill="none" stroke="black" points="382,-122.5 382,-152.5 531,-152.5 531,-122.5 382,-122.5"/>
<text text-anchor="start" x="390" y="-140.5" font-family="JetBrains Mono" font-size="10.00">backend::ComplexParser</text>
<text text-anchor="middle" x="456.5" y="-129.5" font-family="JetBrains Mono" font-size="10.00">::checkCode</text>
</a>
</g>
</g>
<!-- Node3&#45;&gt;Node4 -->
<g id="edge3" class="edge">
<title>Node3&#45;&gt;Node4</title>
<path fill="none" stroke="midnightblue" d="M340.11,-122.85C350.48,-124.16 361.2,-125.53 371.74,-126.86"/>
<polygon fill="midnightblue" stroke="midnightblue" points="371.42,-130.35 381.78,-128.14 372.3,-123.41 371.42,-130.35"/>
</g>
<!-- Node6 -->
<g id="node6" class="node">
<title>Node6</title>
<g id="a_node6"><a xlink:href="classinterface_1_1_byte_buffer.html#aa7b62b689587133486f5f0409a37633e" target="_top" xlink:title=" ">
<polygon fill="none" stroke="black" points="385,-73.5 385,-103.5 528,-103.5 528,-73.5 385,-73.5"/>
<text text-anchor="start" x="393" y="-91.5" font-family="JetBrains Mono" font-size="10.00">interface::ByteBuffer</text>
<text text-anchor="middle" x="456.5" y="-80.5" font-family="JetBrains Mono" font-size="10.00">::getByte</text>
</a>
</g>
</g>
<!-- Node3&#45;&gt;Node6 -->
<g id="edge5" class="edge">
<title>Node3&#45;&gt;Node6</title>
<path fill="none" stroke="midnightblue" d="M340.11,-103.76C351.5,-102.26 363.31,-100.69 374.83,-99.17"/>
<polygon fill="midnightblue" stroke="midnightblue" points="375.42,-102.62 384.88,-97.84 374.5,-95.68 375.42,-102.62"/>
</g>
<!-- Node5 -->
<g id="node5" class="node">
<title>Node5</title>
<g id="a_node5"><a xlink:href="classglobal_1_1_throwing_object.html#a3452fa130272c905381c30fa8ea74d92" target="_top" xlink:title=" ">
<polygon fill="none" stroke="black" points="567,-122.5 567,-152.5 716,-152.5 716,-122.5 567,-122.5"/>
<text text-anchor="start" x="575" y="-140.5" font-family="JetBrains Mono" font-size="10.00">global::ThrowingObject</text>
<text text-anchor="middle" x="641.5" y="-129.5" font-family="JetBrains Mono" font-size="10.00">::throwIf</text>
</a>
</g>
</g>
<!-- Node4&#45;&gt;Node5 -->
<g id="edge4" class="edge">
<title>Node4&#45;&gt;Node5</title>
<path fill="none" stroke="midnightblue" d="M531.14,-137.5C539.47,-137.5 548.01,-137.5 556.46,-137.5"/>
<polygon fill="midnightblue" stroke="midnightblue" points="556.71,-141 566.71,-137.5 556.71,-134 556.71,-141"/>
</g>
</g>
</svg>
