<?xml version="1.0" encoding="UTF-8" standalone="no"?>
<!DOCTYPE svg PUBLIC "-//W3C//DTD SVG 1.1//EN"
 "http://www.w3.org/Graphics/SVG/1.1/DTD/svg11.dtd">
<!-- Generated by graphviz version 2.48.0 (20210717.1556)
 -->
<!-- Title: global::StaticGenerator::getValue Pages: 1 -->
<svg width="993pt" height="88pt"
 viewBox="0.00 0.00 993.00 88.00" xmlns="http://www.w3.org/2000/svg" xmlns:xlink="http://www.w3.org/1999/xlink">
<g id="graph0" class="graph" transform="scale(1 1) rotate(0) translate(4 84)">
<title>global::StaticGenerator::getValue</title>
<!-- Node1 -->
<g id="node1" class="node">
<title>Node1</title>
<g id="a_node1"><a xlink:title=" ">
<polygon fill="#bfbfbf" stroke="black" points="830,-24.5 830,-54.5 985,-54.5 985,-24.5 830,-24.5"/>
<text text-anchor="start" x="838" y="-42.5" font-family="JetBrains Mono" font-size="10.00">global::StaticGenerator</text>
<text text-anchor="middle" x="907.5" y="-31.5" font-family="JetBrains Mono" font-size="10.00">::getValue</text>
</a>
</g>
</g>
<!-- Node2 -->
<g id="node2" class="node">
<title>Node2</title>
<g id="a_node2"><a xlink:href="classbackend_1_1_unit_test_converter.html#ac1838800049ad36de6b240969e9de88d" target="_top" xlink:title=" ">
<polygon fill="none" stroke="black" points="621,-49.5 621,-79.5 794,-79.5 794,-49.5 621,-49.5"/>
<text text-anchor="start" x="629" y="-67.5" font-family="JetBrains Mono" font-size="10.00">backend::UnitTestConverter</text>
<text text-anchor="middle" x="707.5" y="-56.5" font-family="JetBrains Mono" font-size="10.00">::convertValues</text>
</a>
</g>
</g>
<!-- Node1&#45;&gt;Node2 -->
<g id="edge1" class="edge">
<title>Node1&#45;&gt;Node2</title>
<path fill="none" stroke="midnightblue" d="M819.94,-50.43C811.35,-51.51 802.64,-52.61 794.06,-53.7"/>
<polygon fill="midnightblue" stroke="midnightblue" points="820.47,-53.89 829.95,-49.17 819.59,-46.95 820.47,-53.89"/>
</g>
<!-- Node6 -->
<g id="node6" class="node">
<title>Node6</title>
<g id="a_node6"><a xlink:href="classbackend_1_1_value_parser.html#a30fb2da048b261d72a5db26ccfe5d4df" target="_top" xlink:title=" ">
<polygon fill="none" stroke="black" points="639,-0.5 639,-30.5 776,-30.5 776,-0.5 639,-0.5"/>
<text text-anchor="start" x="647" y="-18.5" font-family="JetBrains Mono" font-size="10.00">backend::ValueParser</text>
<text text-anchor="middle" x="707.5" y="-7.5" font-family="JetBrains Mono" font-size="10.00">::parseCommand</text>
</a>
</g>
</g>
<!-- Node1&#45;&gt;Node6 -->
<g id="edge5" class="edge">
<title>Node1&#45;&gt;Node6</title>
<path fill="none" stroke="midnightblue" d="M819.88,-29C805.23,-27.22 790.21,-25.4 776.13,-23.7"/>
<polygon fill="midnightblue" stroke="midnightblue" points="819.6,-32.49 829.95,-30.22 820.44,-25.54 819.6,-32.49"/>
</g>
<!-- Node3 -->
<g id="node3" class="node">
<title>Node3</title>
<g id="a_node3"><a xlink:href="classbackend_1_1_unit_test_converter.html#a781b3fa289cf793d676aeb2c514625e6" target="_top" xlink:title=" ">
<polygon fill="none" stroke="black" points="412,-49.5 412,-79.5 585,-79.5 585,-49.5 412,-49.5"/>
<text text-anchor="start" x="420" y="-67.5" font-family="JetBrains Mono" font-size="10.00">backend::UnitTestConverter</text>
<text text-anchor="middle" x="498.5" y="-56.5" font-family="JetBrains Mono" font-size="10.00">::getUnitTest</text>
</a>
</g>
</g>
<!-- Node2&#45;&gt;Node3 -->
<g id="edge2" class="edge">
<title>Node2&#45;&gt;Node3</title>
<path fill="none" stroke="midnightblue" d="M610.8,-64.5C602.24,-64.5 593.6,-64.5 585.12,-64.5"/>
<polygon fill="midnightblue" stroke="midnightblue" points="610.81,-68 620.81,-64.5 610.81,-61 610.81,-68"/>
</g>
<!-- Node4 -->
<g id="node4" class="node">
<title>Node4</title>
<g id="a_node4"><a xlink:href="classbackend_1_1_test_case_converter.html#a60a93de828d1fcaa56437b0516674785" target="_top" xlink:title=" ">
<polygon fill="none" stroke="black" points="203,-49.5 203,-79.5 376,-79.5 376,-49.5 203,-49.5"/>
<text text-anchor="start" x="211" y="-67.5" font-family="JetBrains Mono" font-size="10.00">backend::TestCaseConverter</text>
<text text-anchor="middle" x="289.5" y="-56.5" font-family="JetBrains Mono" font-size="10.00">::getTestCase</text>
</a>
</g>
</g>
<!-- Node3&#45;&gt;Node4 -->
<g id="edge3" class="edge">
<title>Node3&#45;&gt;Node4</title>
<path fill="none" stroke="midnightblue" d="M401.8,-64.5C393.24,-64.5 384.6,-64.5 376.12,-64.5"/>
<polygon fill="midnightblue" stroke="midnightblue" points="401.81,-68 411.81,-64.5 401.81,-61 401.81,-68"/>
</g>
<!-- Node5 -->
<g id="node5" class="node">
<title>Node5</title>
<g id="a_node5"><a xlink:href="classbackend_1_1_converter.html#ad767ae6c03f9086aa32942ffd0d71a80" target="_top" xlink:title=" ">
<polygon fill="none" stroke="black" points="0,-49.5 0,-79.5 167,-79.5 167,-49.5 0,-49.5"/>
<text text-anchor="start" x="8" y="-67.5" font-family="JetBrains Mono" font-size="10.00">backend::Converter</text>
<text text-anchor="middle" x="83.5" y="-56.5" font-family="JetBrains Mono" font-size="10.00">::getConvertedTransaction</text>
</a>
</g>
</g>
<!-- Node4&#45;&gt;Node5 -->
<g id="edge4" class="edge">
<title>Node4&#45;&gt;Node5</title>
<path fill="none" stroke="midnightblue" d="M192.6,-64.5C184.14,-64.5 175.63,-64.5 167.3,-64.5"/>
<polygon fill="midnightblue" stroke="midnightblue" points="192.87,-68 202.87,-64.5 192.87,-61 192.87,-68"/>
</g>
</g>
</svg>
