<?xml version="1.0" encoding="UTF-8" standalone="no"?>
<!DOCTYPE svg PUBLIC "-//W3C//DTD SVG 1.1//EN"
 "http://www.w3.org/Graphics/SVG/1.1/DTD/svg11.dtd">
<!-- Generated by graphviz version 2.48.0 (20210717.1556)
 -->
<!-- Title: backend::PortFlowSettings::flowControl Pages: 1 -->
<svg width="593pt" height="39pt"
 viewBox="0.00 0.00 593.00 39.00" xmlns="http://www.w3.org/2000/svg" xmlns:xlink="http://www.w3.org/1999/xlink">
<g id="graph0" class="graph" transform="scale(1 1) rotate(0) translate(4 35)">
<title>backend::PortFlowSettings::flowControl</title>
<!-- Node1 -->
<g id="node1" class="node">
<title>Node1</title>
<g id="a_node1"><a xlink:title=" ">
<polygon fill="#bfbfbf" stroke="black" points="418,-0.5 418,-30.5 585,-30.5 585,-0.5 418,-0.5"/>
<text text-anchor="start" x="426" y="-18.5" font-family="JetBrains Mono" font-size="10.00">backend::PortFlowSettings</text>
<text text-anchor="middle" x="501.5" y="-7.5" font-family="JetBrains Mono" font-size="10.00">::flowControl</text>
</a>
</g>
</g>
<!-- Node2 -->
<g id="node2" class="node">
<title>Node2</title>
<g id="a_node2"><a xlink:href="classbackend_1_1_port_state_operator.html#a1a843c304d57ca8ce655b53984724d9f" target="_top" xlink:title=" ">
<polygon fill="none" stroke="black" points="209,-0.5 209,-30.5 382,-30.5 382,-0.5 209,-0.5"/>
<text text-anchor="start" x="217" y="-18.5" font-family="JetBrains Mono" font-size="10.00">backend::PortStateOperator</text>
<text text-anchor="middle" x="295.5" y="-7.5" font-family="JetBrains Mono" font-size="10.00">::changeSettings</text>
</a>
</g>
</g>
<!-- Node1&#45;&gt;Node2 -->
<g id="edge1" class="edge">
<title>Node1&#45;&gt;Node2</title>
<path fill="none" stroke="midnightblue" d="M407.59,-15.5C399.16,-15.5 390.65,-15.5 382.29,-15.5"/>
<polygon fill="midnightblue" stroke="midnightblue" points="407.82,-19 417.82,-15.5 407.82,-12 407.82,-19"/>
</g>
<!-- Node3 -->
<g id="node3" class="node">
<title>Node3</title>
<g id="a_node3"><a xlink:href="classbackend_1_1_port_state_operator.html#ac8560242f252ee6dc9f63b21145f9d1d" target="_top" xlink:title=" ">
<polygon fill="none" stroke="black" points="0,-0.5 0,-30.5 173,-30.5 173,-0.5 0,-0.5"/>
<text text-anchor="start" x="8" y="-18.5" font-family="JetBrains Mono" font-size="10.00">backend::PortStateOperator</text>
<text text-anchor="middle" x="86.5" y="-7.5" font-family="JetBrains Mono" font-size="10.00">::PortStateOperator</text>
</a>
</g>
</g>
<!-- Node2&#45;&gt;Node3 -->
<g id="edge2" class="edge">
<title>Node2&#45;&gt;Node3</title>
<path fill="none" stroke="midnightblue" d="M198.8,-15.5C190.24,-15.5 181.6,-15.5 173.12,-15.5"/>
<polygon fill="midnightblue" stroke="midnightblue" points="198.81,-19 208.81,-15.5 198.81,-12 198.81,-19"/>
</g>
</g>
</svg>
