<?xml version="1.0" encoding="UTF-8" standalone="no"?>
<!DOCTYPE svg PUBLIC "-//W3C//DTD SVG 1.1//EN"
 "http://www.w3.org/Graphics/SVG/1.1/DTD/svg11.dtd">
<!-- Generated by graphviz version 2.48.0 (20210717.1556)
 -->
<!-- Title: interface::ParserComponent Pages: 1 -->
<svg width="1656pt" height="656pt"
 viewBox="0.00 0.00 1656.00 656.00" xmlns="http://www.w3.org/2000/svg" xmlns:xlink="http://www.w3.org/1999/xlink">
<g id="graph0" class="graph" transform="scale(1 1) rotate(0) translate(4 652)">
<title>interface::ParserComponent</title>
<!-- Node1 -->
<g id="node1" class="node">
<title>Node1</title>
<g id="a_node1"><a xlink:title="ParserComponent common interface.">
<polygon fill="#bfbfbf" stroke="black" points="644,-502.5 644,-647.5 817,-647.5 817,-502.5 644,-502.5"/>
<text text-anchor="middle" x="730.5" y="-635.5" font-family="JetBrains Mono" font-size="10.00">interface::ParserComponent</text>
<polyline fill="none" stroke="black" points="644,-628.5 817,-628.5 "/>
<text text-anchor="middle" x="730.5" y="-616.5" font-family="JetBrains Mono" font-size="10.00"> </text>
<polyline fill="none" stroke="black" points="644,-609.5 817,-609.5 "/>
<text text-anchor="start" x="652" y="-597.5" font-family="JetBrains Mono" font-size="10.00">+ getParent()</text>
<text text-anchor="start" x="652" y="-586.5" font-family="JetBrains Mono" font-size="10.00">+ setParent()</text>
<text text-anchor="start" x="652" y="-575.5" font-family="JetBrains Mono" font-size="10.00">+ addChild()</text>
<text text-anchor="start" x="652" y="-564.5" font-family="JetBrains Mono" font-size="10.00">+ isComposite()</text>
<text text-anchor="start" x="652" y="-553.5" font-family="JetBrains Mono" font-size="10.00">+ setBuffer()</text>
<text text-anchor="start" x="652" y="-542.5" font-family="JetBrains Mono" font-size="10.00">+ parseCommand()</text>
<text text-anchor="start" x="652" y="-531.5" font-family="JetBrains Mono" font-size="10.00">+ createPackage()</text>
<text text-anchor="start" x="652" y="-520.5" font-family="JetBrains Mono" font-size="10.00">+ getPackage()</text>
<text text-anchor="start" x="652" y="-509.5" font-family="JetBrains Mono" font-size="10.00">+ startProcessing()</text>
</a>
</g>
</g>
<!-- Node2 -->
<g id="node2" class="node">
<title>Node2</title>
<g id="a_node2"><a xlink:href="classbackend_1_1_parser_component.html" target="_top" xlink:title="This is the base class for all parsers in the parsing tree.">
<polygon fill="none" stroke="black" points="650,-320.5 650,-465.5 811,-465.5 811,-320.5 650,-320.5"/>
<text text-anchor="middle" x="730.5" y="-453.5" font-family="JetBrains Mono" font-size="10.00">backend::ParserComponent</text>
<polyline fill="none" stroke="black" points="650,-446.5 811,-446.5 "/>
<text text-anchor="start" x="658" y="-434.5" font-family="JetBrains Mono" font-size="10.00"># parent_</text>
<text text-anchor="start" x="658" y="-423.5" font-family="JetBrains Mono" font-size="10.00"># buffer_</text>
<text text-anchor="start" x="658" y="-412.5" font-family="JetBrains Mono" font-size="10.00"># package_</text>
<text text-anchor="start" x="658" y="-401.5" font-family="JetBrains Mono" font-size="10.00"># current_type_</text>
<polyline fill="none" stroke="black" points="650,-394.5 811,-394.5 "/>
<text text-anchor="start" x="658" y="-382.5" font-family="JetBrains Mono" font-size="10.00">+ getParent()</text>
<text text-anchor="start" x="658" y="-371.5" font-family="JetBrains Mono" font-size="10.00">+ setParent()</text>
<text text-anchor="start" x="658" y="-360.5" font-family="JetBrains Mono" font-size="10.00">+ addChild()</text>
<text text-anchor="start" x="658" y="-349.5" font-family="JetBrains Mono" font-size="10.00">+ isComposite()</text>
<text text-anchor="start" x="658" y="-338.5" font-family="JetBrains Mono" font-size="10.00">+ setBuffer()</text>
<text text-anchor="start" x="658" y="-327.5" font-family="JetBrains Mono" font-size="10.00"># createPackage()</text>
</a>
</g>
</g>
<!-- Node1&#45;&gt;Node2 -->
<g id="edge1" class="edge">
<title>Node1&#45;&gt;Node2</title>
<path fill="none" stroke="midnightblue" d="M730.5,-492.08C730.5,-483.28 730.5,-474.37 730.5,-465.71"/>
<polygon fill="none" stroke="midnightblue" points="727,-492.34 730.5,-502.34 734,-492.34 727,-492.34"/>
</g>
<!-- Node3 -->
<g id="node3" class="node">
<title>Node3</title>
<g id="a_node3"><a xlink:href="classbackend_1_1_complex_parser.html" target="_top" xlink:title="This class provides composite objects which can have children.">
<polygon fill="none" stroke="black" points="146,-127.5 146,-283.5 313,-283.5 313,-127.5 146,-127.5"/>
<text text-anchor="middle" x="229.5" y="-271.5" font-family="JetBrains Mono" font-size="10.00">backend::ComplexParser</text>
<polyline fill="none" stroke="black" points="146,-264.5 313,-264.5 "/>
<text text-anchor="start" x="154" y="-252.5" font-family="JetBrains Mono" font-size="10.00"># children_</text>
<text text-anchor="start" x="154" y="-241.5" font-family="JetBrains Mono" font-size="10.00"># commands_count_</text>
<polyline fill="none" stroke="black" points="146,-234.5 313,-234.5 "/>
<text text-anchor="start" x="154" y="-222.5" font-family="JetBrains Mono" font-size="10.00">+ ComplexParser()</text>
<text text-anchor="start" x="154" y="-211.5" font-family="JetBrains Mono" font-size="10.00">+ isComposite()</text>
<text text-anchor="start" x="154" y="-200.5" font-family="JetBrains Mono" font-size="10.00">+ addChild()</text>
<text text-anchor="start" x="154" y="-189.5" font-family="JetBrains Mono" font-size="10.00">+ setBuffer()</text>
<text text-anchor="start" x="154" y="-178.5" font-family="JetBrains Mono" font-size="10.00"># checkCode()</text>
<text text-anchor="start" x="154" y="-167.5" font-family="JetBrains Mono" font-size="10.00"># proccessingLoop()</text>
<text text-anchor="start" x="154" y="-156.5" font-family="JetBrains Mono" font-size="10.00"># parseCommand()</text>
<text text-anchor="start" x="154" y="-145.5" font-family="JetBrains Mono" font-size="10.00"># specialPreOperations()</text>
<text text-anchor="start" x="154" y="-134.5" font-family="JetBrains Mono" font-size="10.00"># specialPostOperations()</text>
</a>
</g>
</g>
<!-- Node2&#45;&gt;Node3 -->
<g id="edge2" class="edge">
<title>Node2&#45;&gt;Node3</title>
<path fill="none" stroke="midnightblue" d="M639.77,-379.6C554.26,-365.29 424.42,-336.64 322.5,-284 319.33,-282.36 316.16,-280.6 313.02,-278.73"/>
<polygon fill="none" stroke="midnightblue" points="639.27,-383.07 649.71,-381.23 640.41,-376.16 639.27,-383.07"/>
</g>
<!-- Node7 -->
<g id="node7" class="node">
<title>Node7</title>
<g id="a_node7"><a xlink:href="classbackend_1_1_end_parser.html" target="_top" xlink:title="Returns false ,so parsing of all package is finished.">
<polygon fill="none" stroke="black" points="331,-177 331,-234 456,-234 456,-177 331,-177"/>
<text text-anchor="middle" x="393.5" y="-222" font-family="JetBrains Mono" font-size="10.00">backend::EndParser</text>
<polyline fill="none" stroke="black" points="331,-215 456,-215 "/>
<text text-anchor="middle" x="393.5" y="-203" font-family="JetBrains Mono" font-size="10.00"> </text>
<polyline fill="none" stroke="black" points="331,-196 456,-196 "/>
<text text-anchor="start" x="339" y="-184" font-family="JetBrains Mono" font-size="10.00"># parseCommand()</text>
</a>
</g>
</g>
<!-- Node2&#45;&gt;Node7 -->
<g id="edge6" class="edge">
<title>Node2&#45;&gt;Node7</title>
<path fill="none" stroke="midnightblue" d="M640.24,-366.12C586.58,-348.16 518.81,-320.83 465.5,-284 445.71,-270.32 427.32,-250.35 414.08,-234.11"/>
<polygon fill="none" stroke="midnightblue" points="639.15,-369.45 649.75,-369.25 641.35,-362.8 639.15,-369.45"/>
</g>
<!-- Node8 -->
<g id="node8" class="node">
<title>Node8</title>
<g id="a_node8"><a xlink:href="classbackend_1_1_global_start_parser.html" target="_top" xlink:title="This parser recognizes start signal and returns true.">
<polygon fill="none" stroke="black" points="474,-177 474,-234 647,-234 647,-177 474,-177"/>
<text text-anchor="middle" x="560.5" y="-222" font-family="JetBrains Mono" font-size="10.00">backend::GlobalStartParser</text>
<polyline fill="none" stroke="black" points="474,-215 647,-215 "/>
<text text-anchor="middle" x="560.5" y="-203" font-family="JetBrains Mono" font-size="10.00"> </text>
<polyline fill="none" stroke="black" points="474,-196 647,-196 "/>
<text text-anchor="start" x="482" y="-184" font-family="JetBrains Mono" font-size="10.00">+ parseCommand()</text>
</a>
</g>
</g>
<!-- Node2&#45;&gt;Node8 -->
<g id="edge7" class="edge">
<title>Node2&#45;&gt;Node8</title>
<path fill="none" stroke="midnightblue" d="M657.92,-312.8C632.17,-284.71 604.88,-254.92 585.75,-234.05"/>
<polygon fill="none" stroke="midnightblue" points="655.44,-315.27 664.77,-320.28 660.6,-310.54 655.44,-315.27"/>
</g>
<!-- Node9 -->
<g id="node9" class="node">
<title>Node9</title>
<g id="a_node9"><a xlink:href="classbackend_1_1_name_parser.html" target="_top" xlink:title="Parses unit test expression name.">
<polygon fill="none" stroke="black" points="665,-177 665,-234 796,-234 796,-177 665,-177"/>
<text text-anchor="middle" x="730.5" y="-222" font-family="JetBrains Mono" font-size="10.00">backend::NameParser</text>
<polyline fill="none" stroke="black" points="665,-215 796,-215 "/>
<text text-anchor="middle" x="730.5" y="-203" font-family="JetBrains Mono" font-size="10.00"> </text>
<polyline fill="none" stroke="black" points="665,-196 796,-196 "/>
<text text-anchor="start" x="673" y="-184" font-family="JetBrains Mono" font-size="10.00"># parseCommand()</text>
</a>
</g>
</g>
<!-- Node2&#45;&gt;Node9 -->
<g id="edge8" class="edge">
<title>Node2&#45;&gt;Node9</title>
<path fill="none" stroke="midnightblue" d="M730.5,-309.92C730.5,-282.69 730.5,-254.21 730.5,-234.05"/>
<polygon fill="none" stroke="midnightblue" points="727,-310.28 730.5,-320.28 734,-310.28 727,-310.28"/>
</g>
<!-- Node10 -->
<g id="node10" class="node">
<title>Node10</title>
<g id="a_node10"><a xlink:href="classbackend_1_1_test_result_parser.html" target="_top" xlink:title="This parser reads unit test result from the buffer.">
<polygon fill="none" stroke="black" points="814,-177 814,-234 981,-234 981,-177 814,-177"/>
<text text-anchor="middle" x="897.5" y="-222" font-family="JetBrains Mono" font-size="10.00">backend::TestResultParser</text>
<polyline fill="none" stroke="black" points="814,-215 981,-215 "/>
<text text-anchor="middle" x="897.5" y="-203" font-family="JetBrains Mono" font-size="10.00"> </text>
<polyline fill="none" stroke="black" points="814,-196 981,-196 "/>
<text text-anchor="start" x="822" y="-184" font-family="JetBrains Mono" font-size="10.00"># parseCommand()</text>
</a>
</g>
</g>
<!-- Node2&#45;&gt;Node10 -->
<g id="edge9" class="edge">
<title>Node2&#45;&gt;Node10</title>
<path fill="none" stroke="midnightblue" d="M801.8,-312.8C827.09,-284.71 853.91,-254.92 872.7,-234.05"/>
<polygon fill="none" stroke="midnightblue" points="799.16,-310.51 795.07,-320.28 804.36,-315.19 799.16,-310.51"/>
</g>
<!-- Node11 -->
<g id="node11" class="node">
<title>Node11</title>
<g id="a_node11"><a xlink:href="classbackend_1_1_type_descriptor_parser.html" target="_top" xlink:title="Parses unit test type descriptor.">
<polygon fill="none" stroke="black" points="999,-177 999,-234 1190,-234 1190,-177 999,-177"/>
<text text-anchor="middle" x="1094.5" y="-222" font-family="JetBrains Mono" font-size="10.00">backend::TypeDescriptorParser</text>
<polyline fill="none" stroke="black" points="999,-215 1190,-215 "/>
<text text-anchor="middle" x="1094.5" y="-203" font-family="JetBrains Mono" font-size="10.00"> </text>
<polyline fill="none" stroke="black" points="999,-196 1190,-196 "/>
<text text-anchor="start" x="1007" y="-184" font-family="JetBrains Mono" font-size="10.00"># parseCommand()</text>
</a>
</g>
</g>
<!-- Node2&#45;&gt;Node11 -->
<g id="edge10" class="edge">
<title>Node2&#45;&gt;Node11</title>
<path fill="none" stroke="midnightblue" d="M820.52,-360.89C871.8,-341.64 936.4,-314.76 990.5,-284 1015.75,-269.64 1041.96,-250.07 1061.75,-234.19"/>
<polygon fill="none" stroke="midnightblue" points="819.26,-357.63 811.11,-364.39 821.7,-364.19 819.26,-357.63"/>
</g>
<!-- Node12 -->
<g id="node12" class="node">
<title>Node12</title>
<g id="a_node12"><a xlink:href="classbackend_1_1_value_parser.html" target="_top" xlink:title="Base class for parsers which parses a numeric value.">
<polygon fill="none" stroke="black" points="1208,-171.5 1208,-239.5 1357,-239.5 1357,-171.5 1208,-171.5"/>
<text text-anchor="middle" x="1282.5" y="-227.5" font-family="JetBrains Mono" font-size="10.00">backend::ValueParser</text>
<polyline fill="none" stroke="black" points="1208,-220.5 1357,-220.5 "/>
<text text-anchor="middle" x="1282.5" y="-208.5" font-family="JetBrains Mono" font-size="10.00"> </text>
<polyline fill="none" stroke="black" points="1208,-201.5 1357,-201.5 "/>
<text text-anchor="start" x="1216" y="-189.5" font-family="JetBrains Mono" font-size="10.00"># parseCommand()</text>
<text text-anchor="start" x="1216" y="-178.5" font-family="JetBrains Mono" font-size="10.00"># redirectValueBytes()</text>
</a>
</g>
</g>
<!-- Node2&#45;&gt;Node12 -->
<g id="edge11" class="edge">
<title>Node2&#45;&gt;Node12</title>
<path fill="none" stroke="midnightblue" d="M821.46,-385.14C919.7,-374.63 1078.37,-348.41 1199.5,-284 1220.21,-272.98 1239.61,-255.46 1254.43,-239.87"/>
<polygon fill="none" stroke="midnightblue" points="820.85,-381.69 811.26,-386.2 821.57,-388.65 820.85,-381.69"/>
</g>
<!-- Node4 -->
<g id="node4" class="node">
<title>Node4</title>
<g id="a_node4"><a xlink:href="classbackend_1_1_root_parser.html" target="_top" xlink:title="Root of the processing tree.">
<polygon fill="none" stroke="black" points="0,-0.5 0,-90.5 131,-90.5 131,-0.5 0,-0.5"/>
<text text-anchor="middle" x="65.5" y="-78.5" font-family="JetBrains Mono" font-size="10.00">backend::RootParser</text>
<polyline fill="none" stroke="black" points="0,-71.5 131,-71.5 "/>
<text text-anchor="middle" x="65.5" y="-59.5" font-family="JetBrains Mono" font-size="10.00"> </text>
<polyline fill="none" stroke="black" points="0,-52.5 131,-52.5 "/>
<text text-anchor="start" x="8" y="-40.5" font-family="JetBrains Mono" font-size="10.00">+ RootParser()</text>
<text text-anchor="start" x="8" y="-29.5" font-family="JetBrains Mono" font-size="10.00">+ createPackage()</text>
<text text-anchor="start" x="8" y="-18.5" font-family="JetBrains Mono" font-size="10.00">+ getPackage()</text>
<text text-anchor="start" x="8" y="-7.5" font-family="JetBrains Mono" font-size="10.00">+ startProcessing()</text>
</a>
</g>
</g>
<!-- Node3&#45;&gt;Node4 -->
<g id="edge3" class="edge">
<title>Node3&#45;&gt;Node4</title>
<path fill="none" stroke="midnightblue" d="M142.11,-120.3C131.55,-110.14 121.12,-100.09 111.51,-90.83"/>
<polygon fill="none" stroke="midnightblue" points="139.79,-122.93 149.42,-127.35 144.65,-117.89 139.79,-122.93"/>
</g>
<!-- Node5 -->
<g id="node5" class="node">
<title>Node5</title>
<g id="a_node5"><a xlink:href="classbackend_1_1_test_case_parser.html" target="_top" xlink:title="Parses all test case. It receives commands from buffer and processes it. Recognizes commands from Tes...">
<polygon fill="none" stroke="black" points="149,-6 149,-85 310,-85 310,-6 149,-6"/>
<text text-anchor="middle" x="229.5" y="-73" font-family="JetBrains Mono" font-size="10.00">backend::TestCaseParser</text>
<polyline fill="none" stroke="black" points="149,-66 310,-66 "/>
<text text-anchor="middle" x="229.5" y="-54" font-family="JetBrains Mono" font-size="10.00"> </text>
<polyline fill="none" stroke="black" points="149,-47 310,-47 "/>
<text text-anchor="start" x="157" y="-35" font-family="JetBrains Mono" font-size="10.00">+ TestCaseParser()</text>
<text text-anchor="start" x="157" y="-24" font-family="JetBrains Mono" font-size="10.00"># createPackage()</text>
<text text-anchor="start" x="157" y="-13" font-family="JetBrains Mono" font-size="10.00"># specialPreOperations()</text>
</a>
</g>
</g>
<!-- Node3&#45;&gt;Node5 -->
<g id="edge4" class="edge">
<title>Node3&#45;&gt;Node5</title>
<path fill="none" stroke="midnightblue" d="M229.5,-117.12C229.5,-106.02 229.5,-95.14 229.5,-85.37"/>
<polygon fill="none" stroke="midnightblue" points="226,-117.35 229.5,-127.35 233,-117.35 226,-117.35"/>
</g>
<!-- Node6 -->
<g id="node6" class="node">
<title>Node6</title>
<g id="a_node6"><a xlink:href="classbackend_1_1_unit_test_parser.html" target="_top" xlink:title="Parses all unit test It receives commands from buffer and processes it. Recognizes commands from Unit...">
<polygon fill="none" stroke="black" points="328,-11.5 328,-79.5 489,-79.5 489,-11.5 328,-11.5"/>
<text text-anchor="middle" x="408.5" y="-67.5" font-family="JetBrains Mono" font-size="10.00">backend::UnitTestParser</text>
<polyline fill="none" stroke="black" points="328,-60.5 489,-60.5 "/>
<text text-anchor="middle" x="408.5" y="-48.5" font-family="JetBrains Mono" font-size="10.00"> </text>
<polyline fill="none" stroke="black" points="328,-41.5 489,-41.5 "/>
<text text-anchor="start" x="336" y="-29.5" font-family="JetBrains Mono" font-size="10.00">+ UnitTestParser()</text>
<text text-anchor="start" x="336" y="-18.5" font-family="JetBrains Mono" font-size="10.00"># specialPreOperations()</text>
</a>
</g>
</g>
<!-- Node3&#45;&gt;Node6 -->
<g id="edge5" class="edge">
<title>Node3&#45;&gt;Node6</title>
<path fill="none" stroke="midnightblue" d="M320.82,-123.89C338.52,-108.27 356.13,-92.72 370.88,-79.71"/>
<polygon fill="none" stroke="midnightblue" points="318.42,-121.35 313.23,-130.59 323.05,-126.6 318.42,-121.35"/>
</g>
<!-- Node13 -->
<g id="node13" class="node">
<title>Node13</title>
<g id="a_node13"><a xlink:href="classbackend_1_1_current_value_parser.html" target="_top" xlink:title="Redirects number&#39;s bytes to unit test current value.">
<polygon fill="none" stroke="black" points="896,-17 896,-74 1075,-74 1075,-17 896,-17"/>
<text text-anchor="middle" x="985.5" y="-62" font-family="JetBrains Mono" font-size="10.00">backend::CurrentValueParser</text>
<polyline fill="none" stroke="black" points="896,-55 1075,-55 "/>
<text text-anchor="middle" x="985.5" y="-43" font-family="JetBrains Mono" font-size="10.00"> </text>
<polyline fill="none" stroke="black" points="896,-36 1075,-36 "/>
<text text-anchor="start" x="904" y="-24" font-family="JetBrains Mono" font-size="10.00"># redirectValueBytes()</text>
</a>
</g>
</g>
<!-- Node12&#45;&gt;Node13 -->
<g id="edge12" class="edge">
<title>Node12&#45;&gt;Node13</title>
<path fill="none" stroke="midnightblue" d="M1246.4,-164.11C1232.79,-150.79 1216.46,-136.88 1199.5,-127 1153.22,-100.05 1134.57,-110.01 1084.5,-91 1071.11,-85.92 1056.95,-79.93 1043.65,-74.02"/>
<polygon fill="none" stroke="midnightblue" points="1244.14,-166.8 1253.67,-171.42 1249.1,-161.86 1244.14,-166.8"/>
</g>
<!-- Node14 -->
<g id="node14" class="node">
<title>Node14</title>
<g id="a_node14"><a xlink:href="classbackend_1_1_expected_value_parser.html" target="_top" xlink:title="Redirects number&#39;s bytes to unit test expected value.">
<polygon fill="none" stroke="black" points="1093,-17 1093,-74 1278,-74 1278,-17 1093,-17"/>
<text text-anchor="middle" x="1185.5" y="-62" font-family="JetBrains Mono" font-size="10.00">backend::ExpectedValueParser</text>
<polyline fill="none" stroke="black" points="1093,-55 1278,-55 "/>
<text text-anchor="middle" x="1185.5" y="-43" font-family="JetBrains Mono" font-size="10.00"> </text>
<polyline fill="none" stroke="black" points="1093,-36 1278,-36 "/>
<text text-anchor="start" x="1101" y="-24" font-family="JetBrains Mono" font-size="10.00"># redirectValueBytes()</text>
</a>
</g>
</g>
<!-- Node12&#45;&gt;Node14 -->
<g id="edge13" class="edge">
<title>Node12&#45;&gt;Node14</title>
<path fill="none" stroke="midnightblue" d="M1256.77,-162.59C1239.57,-134.57 1217.42,-98.49 1202.41,-74.05"/>
<polygon fill="none" stroke="midnightblue" points="1253.95,-164.69 1262.17,-171.38 1259.92,-161.02 1253.95,-164.69"/>
</g>
<!-- Node15 -->
<g id="node15" class="node">
<title>Node15</title>
<g id="a_node15"><a xlink:href="classbackend_1_1_lower_value_parser.html" target="_top" xlink:title="Redirects number&#39;s bytes to unit test lower value.">
<polygon fill="none" stroke="black" points="1296,-17 1296,-74 1463,-74 1463,-17 1296,-17"/>
<text text-anchor="middle" x="1379.5" y="-62" font-family="JetBrains Mono" font-size="10.00">backend::LowerValueParser</text>
<polyline fill="none" stroke="black" points="1296,-55 1463,-55 "/>
<text text-anchor="middle" x="1379.5" y="-43" font-family="JetBrains Mono" font-size="10.00"> </text>
<polyline fill="none" stroke="black" points="1296,-36 1463,-36 "/>
<text text-anchor="start" x="1304" y="-24" font-family="JetBrains Mono" font-size="10.00"># redirectValueBytes()</text>
</a>
</g>
</g>
<!-- Node12&#45;&gt;Node15 -->
<g id="edge14" class="edge">
<title>Node12&#45;&gt;Node15</title>
<path fill="none" stroke="midnightblue" d="M1308.23,-162.59C1325.43,-134.57 1347.58,-98.49 1362.59,-74.05"/>
<polygon fill="none" stroke="midnightblue" points="1305.08,-161.02 1302.83,-171.38 1311.05,-164.69 1305.08,-161.02"/>
</g>
<!-- Node16 -->
<g id="node16" class="node">
<title>Node16</title>
<g id="a_node16"><a xlink:href="classbackend_1_1_upper_value_parser.html" target="_top" xlink:title="Redirects number&#39;s bytes to unit test upper value.">
<polygon fill="none" stroke="black" points="1481,-17 1481,-74 1648,-74 1648,-17 1481,-17"/>
<text text-anchor="middle" x="1564.5" y="-62" font-family="JetBrains Mono" font-size="10.00">backend::UpperValueParser</text>
<polyline fill="none" stroke="black" points="1481,-55 1648,-55 "/>
<text text-anchor="middle" x="1564.5" y="-43" font-family="JetBrains Mono" font-size="10.00"> </text>
<polyline fill="none" stroke="black" points="1481,-36 1648,-36 "/>
<text text-anchor="start" x="1489" y="-24" font-family="JetBrains Mono" font-size="10.00"># redirectValueBytes()</text>
</a>
</g>
</g>
<!-- Node12&#45;&gt;Node16 -->
<g id="edge15" class="edge">
<title>Node12&#45;&gt;Node16</title>
<path fill="none" stroke="midnightblue" d="M1350.58,-166.36C1401.42,-137.87 1469.72,-99.61 1515.33,-74.05"/>
<polygon fill="none" stroke="midnightblue" points="1348.63,-163.44 1341.62,-171.38 1352.05,-169.54 1348.63,-163.44"/>
</g>
</g>
</svg>
