<?xml version="1.0" encoding="UTF-8" standalone="no"?>
<!DOCTYPE svg PUBLIC "-//W3C//DTD SVG 1.1//EN"
 "http://www.w3.org/Graphics/SVG/1.1/DTD/svg11.dtd">
<!-- Generated by graphviz version 2.48.0 (20210717.1556)
 -->
<!-- Title: backend::GlobalStartParser Pages: 1 -->
<svg width="181pt" height="430pt"
 viewBox="0.00 0.00 181.00 430.00" xmlns="http://www.w3.org/2000/svg" xmlns:xlink="http://www.w3.org/1999/xlink">
<g id="graph0" class="graph" transform="scale(1 1) rotate(0) translate(4 426)">
<title>backend::GlobalStartParser</title>
<!-- Node1 -->
<g id="node1" class="node">
<title>Node1</title>
<g id="a_node1"><a xlink:title="This parser recognizes start signal and returns true.">
<polygon fill="#bfbfbf" stroke="black" points="0,-0.5 0,-57.5 173,-57.5 173,-0.5 0,-0.5"/>
<text text-anchor="middle" x="86.5" y="-45.5" font-family="JetBrains Mono" font-size="10.00">backend::GlobalStartParser</text>
<polyline fill="none" stroke="black" points="0,-38.5 173,-38.5 "/>
<text text-anchor="middle" x="86.5" y="-26.5" font-family="JetBrains Mono" font-size="10.00"> </text>
<polyline fill="none" stroke="black" points="0,-19.5 173,-19.5 "/>
<text text-anchor="start" x="8" y="-7.5" font-family="JetBrains Mono" font-size="10.00">+ parseCommand()</text>
</a>
</g>
</g>
<!-- Node2 -->
<g id="node2" class="node">
<title>Node2</title>
<g id="a_node2"><a xlink:href="classbackend_1_1_parser_component.html" target="_top" xlink:title="This is the base class for all parsers in the parsing tree.">
<polygon fill="none" stroke="black" points="6,-94.5 6,-239.5 167,-239.5 167,-94.5 6,-94.5"/>
<text text-anchor="middle" x="86.5" y="-227.5" font-family="JetBrains Mono" font-size="10.00">backend::ParserComponent</text>
<polyline fill="none" stroke="black" points="6,-220.5 167,-220.5 "/>
<text text-anchor="start" x="14" y="-208.5" font-family="JetBrains Mono" font-size="10.00"># parent_</text>
<text text-anchor="start" x="14" y="-197.5" font-family="JetBrains Mono" font-size="10.00"># buffer_</text>
<text text-anchor="start" x="14" y="-186.5" font-family="JetBrains Mono" font-size="10.00"># package_</text>
<text text-anchor="start" x="14" y="-175.5" font-family="JetBrains Mono" font-size="10.00"># current_type_</text>
<polyline fill="none" stroke="black" points="6,-168.5 167,-168.5 "/>
<text text-anchor="start" x="14" y="-156.5" font-family="JetBrains Mono" font-size="10.00">+ getParent()</text>
<text text-anchor="start" x="14" y="-145.5" font-family="JetBrains Mono" font-size="10.00">+ setParent()</text>
<text text-anchor="start" x="14" y="-134.5" font-family="JetBrains Mono" font-size="10.00">+ addChild()</text>
<text text-anchor="start" x="14" y="-123.5" font-family="JetBrains Mono" font-size="10.00">+ isComposite()</text>
<text text-anchor="start" x="14" y="-112.5" font-family="JetBrains Mono" font-size="10.00">+ setBuffer()</text>
<text text-anchor="start" x="14" y="-101.5" font-family="JetBrains Mono" font-size="10.00"># createPackage()</text>
</a>
</g>
</g>
<!-- Node2&#45;&gt;Node1 -->
<g id="edge1" class="edge">
<title>Node2&#45;&gt;Node1</title>
<path fill="none" stroke="midnightblue" d="M86.5,-84.39C86.5,-74.86 86.5,-65.71 86.5,-57.71"/>
<polygon fill="none" stroke="midnightblue" points="83,-84.42 86.5,-94.42 90,-84.42 83,-84.42"/>
</g>
<!-- Node3 -->
<g id="node3" class="node">
<title>Node3</title>
<g id="a_node3"><a xlink:href="classinterface_1_1_parser_component.html" target="_top" xlink:title="ParserComponent common interface.">
<polygon fill="none" stroke="black" points="0,-276.5 0,-421.5 173,-421.5 173,-276.5 0,-276.5"/>
<text text-anchor="middle" x="86.5" y="-409.5" font-family="JetBrains Mono" font-size="10.00">interface::ParserComponent</text>
<polyline fill="none" stroke="black" points="0,-402.5 173,-402.5 "/>
<text text-anchor="middle" x="86.5" y="-390.5" font-family="JetBrains Mono" font-size="10.00"> </text>
<polyline fill="none" stroke="black" points="0,-383.5 173,-383.5 "/>
<text text-anchor="start" x="8" y="-371.5" font-family="JetBrains Mono" font-size="10.00">+ getParent()</text>
<text text-anchor="start" x="8" y="-360.5" font-family="JetBrains Mono" font-size="10.00">+ setParent()</text>
<text text-anchor="start" x="8" y="-349.5" font-family="JetBrains Mono" font-size="10.00">+ addChild()</text>
<text text-anchor="start" x="8" y="-338.5" font-family="JetBrains Mono" font-size="10.00">+ isComposite()</text>
<text text-anchor="start" x="8" y="-327.5" font-family="JetBrains Mono" font-size="10.00">+ setBuffer()</text>
<text text-anchor="start" x="8" y="-316.5" font-family="JetBrains Mono" font-size="10.00">+ parseCommand()</text>
<text text-anchor="start" x="8" y="-305.5" font-family="JetBrains Mono" font-size="10.00">+ createPackage()</text>
<text text-anchor="start" x="8" y="-294.5" font-family="JetBrains Mono" font-size="10.00">+ getPackage()</text>
<text text-anchor="start" x="8" y="-283.5" font-family="JetBrains Mono" font-size="10.00">+ startProcessing()</text>
</a>
</g>
</g>
<!-- Node3&#45;&gt;Node2 -->
<g id="edge2" class="edge">
<title>Node3&#45;&gt;Node2</title>
<path fill="none" stroke="midnightblue" d="M86.5,-266.08C86.5,-257.28 86.5,-248.37 86.5,-239.71"/>
<polygon fill="none" stroke="midnightblue" points="83,-266.34 86.5,-276.34 90,-266.34 83,-266.34"/>
</g>
</g>
</svg>
