<?xml version="1.0" encoding="UTF-8" standalone="no"?>
<!DOCTYPE svg PUBLIC "-//W3C//DTD SVG 1.1//EN"
 "http://www.w3.org/Graphics/SVG/1.1/DTD/svg11.dtd">
<!-- Generated by graphviz version 2.48.0 (20210717.1556)
 -->
<!-- Title: backend::PortFlowOperator Pages: 1 -->
<svg width="238pt" height="684pt"
 viewBox="0.00 0.00 238.00 684.00" xmlns="http://www.w3.org/2000/svg" xmlns:xlink="http://www.w3.org/1999/xlink">
<g id="graph0" class="graph" transform="scale(1 1) rotate(0) translate(4 680)">
<title>backend::PortFlowOperator</title>
<!-- Node1 -->
<g id="node1" class="node">
<title>Node1</title>
<g id="a_node1"><a xlink:title="Extended PortStateOperator which allows to exchange data.">
<polygon fill="#bfbfbf" stroke="black" points="12,-182.5 12,-283.5 179,-283.5 179,-182.5 12,-182.5"/>
<text text-anchor="middle" x="95.5" y="-271.5" font-family="JetBrains Mono" font-size="10.00">backend::PortFlowOperator</text>
<polyline fill="none" stroke="black" points="12,-264.5 179,-264.5 "/>
<text text-anchor="middle" x="95.5" y="-252.5" font-family="JetBrains Mono" font-size="10.00"> </text>
<polyline fill="none" stroke="black" points="12,-245.5 179,-245.5 "/>
<text text-anchor="start" x="20" y="-233.5" font-family="JetBrains Mono" font-size="10.00">+ PortFlowOperator()</text>
<text text-anchor="start" x="20" y="-222.5" font-family="JetBrains Mono" font-size="10.00">+ PortFlowOperator()</text>
<text text-anchor="start" x="20" y="-211.5" font-family="JetBrains Mono" font-size="10.00">+ ~PortFlowOperator()</text>
<text text-anchor="start" x="20" y="-200.5" font-family="JetBrains Mono" font-size="10.00">+ sendBytesToPort()</text>
<text text-anchor="start" x="20" y="-189.5" font-family="JetBrains Mono" font-size="10.00">+ getAllBytesFromPort()</text>
</a>
</g>
</g>
<!-- Node6 -->
<g id="node6" class="node">
<title>Node6</title>
<g id="a_node6"><a xlink:href="classbackend_1_1_buffered_port_flow_operator.html" target="_top" xlink:title="Extended PortFlowOperator which operates on the buffers.">
<polygon fill="none" stroke="black" points="0,-0.5 0,-145.5 191,-145.5 191,-0.5 0,-0.5"/>
<text text-anchor="start" x="8" y="-133.5" font-family="JetBrains Mono" font-size="10.00">backend::BufferedPortFlow</text>
<text text-anchor="middle" x="95.5" y="-122.5" font-family="JetBrains Mono" font-size="10.00">Operator</text>
<polyline fill="none" stroke="black" points="0,-115.5 191,-115.5 "/>
<text text-anchor="start" x="8" y="-103.5" font-family="JetBrains Mono" font-size="10.00"># input_byte_buffer_</text>
<text text-anchor="start" x="8" y="-92.5" font-family="JetBrains Mono" font-size="10.00"># output_byte_buffer_</text>
<polyline fill="none" stroke="black" points="0,-85.5 191,-85.5 "/>
<text text-anchor="start" x="8" y="-73.5" font-family="JetBrains Mono" font-size="10.00">+ BufferedPortFlowOperator()</text>
<text text-anchor="start" x="8" y="-62.5" font-family="JetBrains Mono" font-size="10.00">+ BufferedPortFlowOperator()</text>
<text text-anchor="start" x="8" y="-51.5" font-family="JetBrains Mono" font-size="10.00">+ ~BufferedPortFlowOperator()</text>
<text text-anchor="start" x="8" y="-40.5" font-family="JetBrains Mono" font-size="10.00">+ setInputByteBuffer()</text>
<text text-anchor="start" x="8" y="-29.5" font-family="JetBrains Mono" font-size="10.00">+ setOutputByteBuffer()</text>
<text text-anchor="start" x="8" y="-18.5" font-family="JetBrains Mono" font-size="10.00"># sendDataFromPortToBuffer()</text>
<text text-anchor="start" x="8" y="-7.5" font-family="JetBrains Mono" font-size="10.00"># sendDataFromBufferToPort()</text>
</a>
</g>
</g>
<!-- Node1&#45;&gt;Node6 -->
<g id="edge5" class="edge">
<title>Node1&#45;&gt;Node6</title>
<path fill="none" stroke="midnightblue" d="M95.5,-172.38C95.5,-163.66 95.5,-154.59 95.5,-145.66"/>
<polygon fill="none" stroke="midnightblue" points="92,-172.44 95.5,-182.44 99,-172.44 92,-172.44"/>
</g>
<!-- Node2 -->
<g id="node2" class="node">
<title>Node2</title>
<g id="a_node2"><a xlink:href="classbackend_1_1_port_state_operator.html" target="_top" xlink:title="This base class provides basic RS232 port operators.">
<polygon fill="none" stroke="black" points="9,-320.5 9,-487.5 182,-487.5 182,-320.5 9,-320.5"/>
<text text-anchor="middle" x="95.5" y="-475.5" font-family="JetBrains Mono" font-size="10.00">backend::PortStateOperator</text>
<polyline fill="none" stroke="black" points="9,-468.5 182,-468.5 "/>
<text text-anchor="start" x="17" y="-456.5" font-family="JetBrains Mono" font-size="10.00"># current_port_</text>
<text text-anchor="start" x="17" y="-445.5" font-family="JetBrains Mono" font-size="10.00"># current_port_info_</text>
<polyline fill="none" stroke="black" points="9,-438.5 182,-438.5 "/>
<text text-anchor="start" x="17" y="-426.5" font-family="JetBrains Mono" font-size="10.00">+ PortStateOperator()</text>
<text text-anchor="start" x="17" y="-415.5" font-family="JetBrains Mono" font-size="10.00">+ PortStateOperator()</text>
<text text-anchor="start" x="17" y="-404.5" font-family="JetBrains Mono" font-size="10.00">+ ~PortStateOperator()</text>
<text text-anchor="start" x="17" y="-393.5" font-family="JetBrains Mono" font-size="10.00">+ changePort()</text>
<text text-anchor="start" x="17" y="-382.5" font-family="JetBrains Mono" font-size="10.00">+ changeSettings()</text>
<text text-anchor="start" x="17" y="-371.5" font-family="JetBrains Mono" font-size="10.00">+ closePort()</text>
<text text-anchor="start" x="17" y="-360.5" font-family="JetBrains Mono" font-size="10.00">+ openPort()</text>
<text text-anchor="start" x="17" y="-349.5" font-family="JetBrains Mono" font-size="10.00">+ isOpen()</text>
<text text-anchor="start" x="17" y="-338.5" font-family="JetBrains Mono" font-size="10.00">+ getError()</text>
<text text-anchor="start" x="17" y="-327.5" font-family="JetBrains Mono" font-size="10.00"># deviceErrorService()</text>
</a>
</g>
</g>
<!-- Node2&#45;&gt;Node1 -->
<g id="edge1" class="edge">
<title>Node2&#45;&gt;Node1</title>
<path fill="none" stroke="midnightblue" d="M95.5,-310.47C95.5,-301.28 95.5,-292.21 95.5,-283.71"/>
<polygon fill="none" stroke="midnightblue" points="92,-310.48 95.5,-320.48 99,-310.48 92,-310.48"/>
</g>
<!-- Node3 -->
<g id="node3" class="node">
<title>Node3</title>
<g id="a_node3"><a xlink:title=" ">
<polygon fill="none" stroke="#bfbfbf" points="7,-524.5 7,-581.5 66,-581.5 66,-524.5 7,-524.5"/>
<text text-anchor="middle" x="36.5" y="-569.5" font-family="JetBrains Mono" font-size="10.00">QObject</text>
<polyline fill="none" stroke="#bfbfbf" points="7,-562.5 66,-562.5 "/>
<text text-anchor="middle" x="36.5" y="-550.5" font-family="JetBrains Mono" font-size="10.00"> </text>
<polyline fill="none" stroke="#bfbfbf" points="7,-543.5 66,-543.5 "/>
<text text-anchor="middle" x="36.5" y="-531.5" font-family="JetBrains Mono" font-size="10.00"> </text>
</a>
</g>
</g>
<!-- Node3&#45;&gt;Node2 -->
<g id="edge2" class="edge">
<title>Node3&#45;&gt;Node2</title>
<path fill="none" stroke="midnightblue" d="M51.39,-514.9C54.77,-506.48 58.49,-497.21 62.29,-487.74"/>
<polygon fill="none" stroke="midnightblue" points="48.07,-513.77 47.6,-524.35 54.57,-516.37 48.07,-513.77"/>
</g>
<!-- Node4 -->
<g id="node4" class="node">
<title>Node4</title>
<g id="a_node4"><a xlink:href="classglobal_1_1_program_object.html" target="_top" xlink:title="This class is used to provide basic program functionalites for objects.">
<polygon fill="none" stroke="black" points="84,-524.5 84,-581.5 227,-581.5 227,-524.5 84,-524.5"/>
<text text-anchor="middle" x="155.5" y="-569.5" font-family="JetBrains Mono" font-size="10.00">global::ProgramObject</text>
<polyline fill="none" stroke="black" points="84,-562.5 227,-562.5 "/>
<text text-anchor="middle" x="155.5" y="-550.5" font-family="JetBrains Mono" font-size="10.00"> </text>
<polyline fill="none" stroke="black" points="84,-543.5 227,-543.5 "/>
<text text-anchor="middle" x="155.5" y="-531.5" font-family="JetBrains Mono" font-size="10.00"> </text>
</a>
</g>
</g>
<!-- Node4&#45;&gt;Node2 -->
<g id="edge3" class="edge">
<title>Node4&#45;&gt;Node2</title>
<path fill="none" stroke="midnightblue" d="M140.36,-514.9C136.92,-506.48 133.14,-497.21 129.27,-487.74"/>
<polygon fill="none" stroke="midnightblue" points="137.19,-516.41 144.21,-524.35 143.68,-513.77 137.19,-516.41"/>
</g>
<!-- Node5 -->
<g id="node5" class="node">
<title>Node5</title>
<g id="a_node5"><a xlink:href="classglobal_1_1_throwing_object.html" target="_top" xlink:title="This is base class which allows us to check statements at runtime.">
<polygon fill="none" stroke="black" points="81,-618.5 81,-675.5 230,-675.5 230,-618.5 81,-618.5"/>
<text text-anchor="middle" x="155.5" y="-663.5" font-family="JetBrains Mono" font-size="10.00">global::ThrowingObject</text>
<polyline fill="none" stroke="black" points="81,-656.5 230,-656.5 "/>
<text text-anchor="middle" x="155.5" y="-644.5" font-family="JetBrains Mono" font-size="10.00"> </text>
<polyline fill="none" stroke="black" points="81,-637.5 230,-637.5 "/>
<text text-anchor="start" x="89" y="-625.5" font-family="JetBrains Mono" font-size="10.00">+ throwIf()</text>
</a>
</g>
</g>
<!-- Node5&#45;&gt;Node4 -->
<g id="edge4" class="edge">
<title>Node5&#45;&gt;Node4</title>
<path fill="none" stroke="midnightblue" d="M155.5,-608.21C155.5,-599.29 155.5,-589.95 155.5,-581.58"/>
<polygon fill="none" stroke="midnightblue" points="152,-608.4 155.5,-618.4 159,-608.4 152,-608.4"/>
</g>
</g>
</svg>
