<?xml version="1.0" encoding="UTF-8" standalone="no"?>
<!DOCTYPE svg PUBLIC "-//W3C//DTD SVG 1.1//EN"
 "http://www.w3.org/Graphics/SVG/1.1/DTD/svg11.dtd">
<!-- Generated by graphviz version 2.48.0 (20210717.1556)
 -->
<!-- Title: backend::ComplexParser::proccessingLoop Pages: 1 -->
<svg width="539pt" height="186pt"
 viewBox="0.00 0.00 539.00 186.00" xmlns="http://www.w3.org/2000/svg" xmlns:xlink="http://www.w3.org/1999/xlink">
<g id="graph0" class="graph" transform="scale(1 1) rotate(0) translate(4 182)">
<title>backend::ComplexParser::proccessingLoop</title>
<!-- Node1 -->
<g id="node1" class="node">
<title>Node1</title>
<g id="a_node1"><a xlink:title=" ">
<polygon fill="#bfbfbf" stroke="black" points="0,-73.5 0,-103.5 149,-103.5 149,-73.5 0,-73.5"/>
<text text-anchor="start" x="8" y="-91.5" font-family="JetBrains Mono" font-size="10.00">backend::ComplexParser</text>
<text text-anchor="middle" x="74.5" y="-80.5" font-family="JetBrains Mono" font-size="10.00">::proccessingLoop</text>
</a>
</g>
</g>
<!-- Node2 -->
<g id="node2" class="node">
<title>Node2</title>
<g id="a_node2"><a xlink:href="classbackend_1_1_complex_parser.html#a62faf25d62bf3dc4c956933e1b3f1c82" target="_top" xlink:title=" ">
<polygon fill="none" stroke="black" points="185,-147.5 185,-177.5 334,-177.5 334,-147.5 185,-147.5"/>
<text text-anchor="start" x="193" y="-165.5" font-family="JetBrains Mono" font-size="10.00">backend::ComplexParser</text>
<text text-anchor="middle" x="259.5" y="-154.5" font-family="JetBrains Mono" font-size="10.00">::checkCode</text>
</a>
</g>
</g>
<!-- Node1&#45;&gt;Node2 -->
<g id="edge1" class="edge">
<title>Node1&#45;&gt;Node2</title>
<path fill="none" stroke="midnightblue" d="M106.25,-103.67C127.98,-114.11 157.94,-127.94 185,-138.5 189.8,-140.37 194.81,-142.22 199.87,-144.02"/>
<polygon fill="midnightblue" stroke="midnightblue" points="199,-147.42 209.6,-147.39 201.29,-140.81 199,-147.42"/>
</g>
<!-- Node4 -->
<g id="node4" class="node">
<title>Node4</title>
<g id="a_node4"><a xlink:href="classinterface_1_1_byte_buffer.html#aa7b62b689587133486f5f0409a37633e" target="_top" xlink:title=" ">
<polygon fill="none" stroke="black" points="188,-98.5 188,-128.5 331,-128.5 331,-98.5 188,-98.5"/>
<text text-anchor="start" x="196" y="-116.5" font-family="JetBrains Mono" font-size="10.00">interface::ByteBuffer</text>
<text text-anchor="middle" x="259.5" y="-105.5" font-family="JetBrains Mono" font-size="10.00">::getByte</text>
</a>
</g>
</g>
<!-- Node1&#45;&gt;Node4 -->
<g id="edge3" class="edge">
<title>Node1&#45;&gt;Node4</title>
<path fill="none" stroke="midnightblue" d="M149.14,-98.56C158.65,-99.86 168.43,-101.2 178.04,-102.51"/>
<polygon fill="midnightblue" stroke="midnightblue" points="177.6,-105.98 187.98,-103.87 178.54,-99.04 177.6,-105.98"/>
</g>
<!-- Node5 -->
<g id="node5" class="node">
<title>Node5</title>
<g id="a_node5"><a xlink:href="classbackend_1_1_complex_parser.html#a24ff46b718bc29b91c1f9dbd63b99cb8" target="_top" xlink:title=" ">
<polygon fill="none" stroke="black" points="185,-49.5 185,-79.5 334,-79.5 334,-49.5 185,-49.5"/>
<text text-anchor="start" x="193" y="-67.5" font-family="JetBrains Mono" font-size="10.00">backend::ComplexParser</text>
<text text-anchor="middle" x="259.5" y="-56.5" font-family="JetBrains Mono" font-size="10.00">::parseCommand</text>
</a>
</g>
</g>
<!-- Node1&#45;&gt;Node5 -->
<g id="edge4" class="edge">
<title>Node1&#45;&gt;Node5</title>
<path fill="none" stroke="midnightblue" d="M140.53,-73.48C151.66,-71.8 163.35,-70.19 174.88,-68.74"/>
<polygon fill="midnightblue" stroke="midnightblue" points="175.44,-72.2 184.95,-67.51 174.6,-65.25 175.44,-72.2"/>
</g>
<!-- Node3 -->
<g id="node3" class="node">
<title>Node3</title>
<g id="a_node3"><a xlink:href="classglobal_1_1_throwing_object.html#a3452fa130272c905381c30fa8ea74d92" target="_top" xlink:title=" ">
<polygon fill="none" stroke="black" points="376,-147.5 376,-177.5 525,-177.5 525,-147.5 376,-147.5"/>
<text text-anchor="start" x="384" y="-165.5" font-family="JetBrains Mono" font-size="10.00">global::ThrowingObject</text>
<text text-anchor="middle" x="450.5" y="-154.5" font-family="JetBrains Mono" font-size="10.00">::throwIf</text>
</a>
</g>
</g>
<!-- Node2&#45;&gt;Node3 -->
<g id="edge2" class="edge">
<title>Node2&#45;&gt;Node3</title>
<path fill="none" stroke="midnightblue" d="M334.11,-162.5C344.48,-162.5 355.2,-162.5 365.74,-162.5"/>
<polygon fill="midnightblue" stroke="midnightblue" points="365.78,-166 375.78,-162.5 365.78,-159 365.78,-166"/>
</g>
<!-- Node5&#45;&gt;Node1 -->
<g id="edge6" class="edge">
<title>Node5&#45;&gt;Node1</title>
<path fill="none" stroke="midnightblue" d="M193.56,-79.51C182.44,-81.19 170.74,-82.8 159.21,-84.25"/>
<polygon fill="midnightblue" stroke="midnightblue" points="158.65,-80.79 149.14,-85.48 159.49,-87.74 158.65,-80.79"/>
</g>
<!-- Node6 -->
<g id="node6" class="node">
<title>Node6</title>
<g id="a_node6"><a xlink:href="classbackend_1_1_parser_component.html#a85ef9bd7806f4c75a9534f9ed0bcdc6d" target="_top" xlink:title="Allocates a new package.">
<polygon fill="none" stroke="black" points="370,-98.5 370,-128.5 531,-128.5 531,-98.5 370,-98.5"/>
<text text-anchor="start" x="378" y="-116.5" font-family="JetBrains Mono" font-size="10.00">backend::ParserComponent</text>
<text text-anchor="middle" x="450.5" y="-105.5" font-family="JetBrains Mono" font-size="10.00">::createPackage</text>
</a>
</g>
</g>
<!-- Node5&#45;&gt;Node6 -->
<g id="edge5" class="edge">
<title>Node5&#45;&gt;Node6</title>
<path fill="none" stroke="midnightblue" d="M318.49,-79.53C338.54,-84.73 361.17,-90.6 381.92,-95.98"/>
<polygon fill="midnightblue" stroke="midnightblue" points="381.06,-99.37 391.62,-98.49 382.82,-92.6 381.06,-99.37"/>
</g>
<!-- Node7 -->
<g id="node7" class="node">
<title>Node7</title>
<g id="a_node7"><a xlink:href="classbackend_1_1_complex_parser.html#a9078103573155db37cd48558d150b22f" target="_top" xlink:title=" ">
<polygon fill="none" stroke="black" points="373,-49.5 373,-79.5 528,-79.5 528,-49.5 373,-49.5"/>
<text text-anchor="start" x="381" y="-67.5" font-family="JetBrains Mono" font-size="10.00">backend::ComplexParser</text>
<text text-anchor="middle" x="450.5" y="-56.5" font-family="JetBrains Mono" font-size="10.00">::specialPostOperations</text>
</a>
</g>
</g>
<!-- Node5&#45;&gt;Node7 -->
<g id="edge7" class="edge">
<title>Node5&#45;&gt;Node7</title>
<path fill="none" stroke="midnightblue" d="M334.11,-64.5C343.48,-64.5 353.13,-64.5 362.67,-64.5"/>
<polygon fill="midnightblue" stroke="midnightblue" points="362.97,-68 372.97,-64.5 362.97,-61 362.97,-68"/>
</g>
<!-- Node8 -->
<g id="node8" class="node">
<title>Node8</title>
<g id="a_node8"><a xlink:href="classbackend_1_1_complex_parser.html#a41a945f539d7dc36fbd1121f23b537a7" target="_top" xlink:title=" ">
<polygon fill="none" stroke="black" points="376,-0.5 376,-30.5 525,-30.5 525,-0.5 376,-0.5"/>
<text text-anchor="start" x="384" y="-18.5" font-family="JetBrains Mono" font-size="10.00">backend::ComplexParser</text>
<text text-anchor="middle" x="450.5" y="-7.5" font-family="JetBrains Mono" font-size="10.00">::specialPreOperations</text>
</a>
</g>
</g>
<!-- Node5&#45;&gt;Node8 -->
<g id="edge8" class="edge">
<title>Node5&#45;&gt;Node8</title>
<path fill="none" stroke="midnightblue" d="M318.49,-49.47C338.54,-44.27 361.17,-38.4 381.92,-33.02"/>
<polygon fill="midnightblue" stroke="midnightblue" points="382.82,-36.4 391.62,-30.51 381.06,-29.63 382.82,-36.4"/>
</g>
</g>
</svg>
