<?xml version="1.0" encoding="UTF-8" standalone="no"?>
<!DOCTYPE svg PUBLIC "-//W3C//DTD SVG 1.1//EN"
 "http://www.w3.org/Graphics/SVG/1.1/DTD/svg11.dtd">
<!-- Generated by graphviz version 2.48.0 (20210717.1556)
 -->
<!-- Title: backend::RootParser Pages: 1 -->
<svg width="622pt" height="731pt"
 viewBox="0.00 0.00 622.00 731.00" xmlns="http://www.w3.org/2000/svg" xmlns:xlink="http://www.w3.org/1999/xlink">
<g id="graph0" class="graph" transform="scale(1 1) rotate(0) translate(4 727)">
<title>backend::RootParser</title>
<!-- Node1 -->
<g id="node1" class="node">
<title>Node1</title>
<g id="a_node1"><a xlink:title="Root of the processing tree.">
<polygon fill="#bfbfbf" stroke="black" points="257,-0.5 257,-90.5 388,-90.5 388,-0.5 257,-0.5"/>
<text text-anchor="middle" x="322.5" y="-78.5" font-family="JetBrains Mono" font-size="10.00">backend::RootParser</text>
<polyline fill="none" stroke="black" points="257,-71.5 388,-71.5 "/>
<text text-anchor="middle" x="322.5" y="-59.5" font-family="JetBrains Mono" font-size="10.00"> </text>
<polyline fill="none" stroke="black" points="257,-52.5 388,-52.5 "/>
<text text-anchor="start" x="265" y="-40.5" font-family="JetBrains Mono" font-size="10.00">+ RootParser()</text>
<text text-anchor="start" x="265" y="-29.5" font-family="JetBrains Mono" font-size="10.00">+ createPackage()</text>
<text text-anchor="start" x="265" y="-18.5" font-family="JetBrains Mono" font-size="10.00">+ getPackage()</text>
<text text-anchor="start" x="265" y="-7.5" font-family="JetBrains Mono" font-size="10.00">+ startProcessing()</text>
</a>
</g>
</g>
<!-- Node2 -->
<g id="node2" class="node">
<title>Node2</title>
<g id="a_node2"><a xlink:href="classbackend_1_1_complex_parser.html" target="_top" xlink:title="This class provides composite objects which can have children.">
<polygon fill="none" stroke="black" points="239,-128.5 239,-284.5 406,-284.5 406,-128.5 239,-128.5"/>
<text text-anchor="middle" x="322.5" y="-272.5" font-family="JetBrains Mono" font-size="10.00">backend::ComplexParser</text>
<polyline fill="none" stroke="black" points="239,-265.5 406,-265.5 "/>
<text text-anchor="start" x="247" y="-253.5" font-family="JetBrains Mono" font-size="10.00"># children_</text>
<text text-anchor="start" x="247" y="-242.5" font-family="JetBrains Mono" font-size="10.00"># commands_count_</text>
<polyline fill="none" stroke="black" points="239,-235.5 406,-235.5 "/>
<text text-anchor="start" x="247" y="-223.5" font-family="JetBrains Mono" font-size="10.00">+ ComplexParser()</text>
<text text-anchor="start" x="247" y="-212.5" font-family="JetBrains Mono" font-size="10.00">+ isComposite()</text>
<text text-anchor="start" x="247" y="-201.5" font-family="JetBrains Mono" font-size="10.00">+ addChild()</text>
<text text-anchor="start" x="247" y="-190.5" font-family="JetBrains Mono" font-size="10.00">+ setBuffer()</text>
<text text-anchor="start" x="247" y="-179.5" font-family="JetBrains Mono" font-size="10.00"># checkCode()</text>
<text text-anchor="start" x="247" y="-168.5" font-family="JetBrains Mono" font-size="10.00"># proccessingLoop()</text>
<text text-anchor="start" x="247" y="-157.5" font-family="JetBrains Mono" font-size="10.00"># parseCommand()</text>
<text text-anchor="start" x="247" y="-146.5" font-family="JetBrains Mono" font-size="10.00"># specialPreOperations()</text>
<text text-anchor="start" x="247" y="-135.5" font-family="JetBrains Mono" font-size="10.00"># specialPostOperations()</text>
</a>
</g>
</g>
<!-- Node2&#45;&gt;Node1 -->
<g id="edge1" class="edge">
<title>Node2&#45;&gt;Node1</title>
<path fill="none" stroke="midnightblue" d="M322.5,-118.3C322.5,-108.71 322.5,-99.26 322.5,-90.54"/>
<polygon fill="none" stroke="midnightblue" points="319,-118.33 322.5,-128.33 326,-118.33 319,-118.33"/>
</g>
<!-- Node3 -->
<g id="node3" class="node">
<title>Node3</title>
<g id="a_node3"><a xlink:href="classbackend_1_1_parser_component.html" target="_top" xlink:title="This is the base class for all parsers in the parsing tree.">
<polygon fill="none" stroke="black" points="158,-322.5 158,-434.5 319,-434.5 319,-322.5 158,-322.5"/>
<text text-anchor="middle" x="238.5" y="-422.5" font-family="JetBrains Mono" font-size="10.00">backend::ParserComponent</text>
<polyline fill="none" stroke="black" points="158,-415.5 319,-415.5 "/>
<text text-anchor="start" x="166" y="-403.5" font-family="JetBrains Mono" font-size="10.00"># current_type_</text>
<polyline fill="none" stroke="black" points="158,-396.5 319,-396.5 "/>
<text text-anchor="start" x="166" y="-384.5" font-family="JetBrains Mono" font-size="10.00">+ getParent()</text>
<text text-anchor="start" x="166" y="-373.5" font-family="JetBrains Mono" font-size="10.00">+ setParent()</text>
<text text-anchor="start" x="166" y="-362.5" font-family="JetBrains Mono" font-size="10.00">+ addChild()</text>
<text text-anchor="start" x="166" y="-351.5" font-family="JetBrains Mono" font-size="10.00">+ isComposite()</text>
<text text-anchor="start" x="166" y="-340.5" font-family="JetBrains Mono" font-size="10.00">+ setBuffer()</text>
<text text-anchor="start" x="166" y="-329.5" font-family="JetBrains Mono" font-size="10.00"># createPackage()</text>
</a>
</g>
</g>
<!-- Node3&#45;&gt;Node2 -->
<g id="edge2" class="edge">
<title>Node3&#45;&gt;Node2</title>
<path fill="none" stroke="midnightblue" d="M270.3,-313.14C274.9,-303.83 279.67,-294.18 284.38,-284.65"/>
<polygon fill="none" stroke="midnightblue" points="267.06,-311.79 265.77,-322.31 273.34,-314.89 267.06,-311.79"/>
</g>
<!-- Node4 -->
<g id="node4" class="node">
<title>Node4</title>
<g id="a_node4"><a xlink:href="classinterface_1_1_parser_component.html" target="_top" xlink:title="ParserComponent common interface.">
<polygon fill="none" stroke="black" points="0,-482.5 0,-627.5 173,-627.5 173,-482.5 0,-482.5"/>
<text text-anchor="middle" x="86.5" y="-615.5" font-family="JetBrains Mono" font-size="10.00">interface::ParserComponent</text>
<polyline fill="none" stroke="black" points="0,-608.5 173,-608.5 "/>
<text text-anchor="middle" x="86.5" y="-596.5" font-family="JetBrains Mono" font-size="10.00"> </text>
<polyline fill="none" stroke="black" points="0,-589.5 173,-589.5 "/>
<text text-anchor="start" x="8" y="-577.5" font-family="JetBrains Mono" font-size="10.00">+ getParent()</text>
<text text-anchor="start" x="8" y="-566.5" font-family="JetBrains Mono" font-size="10.00">+ setParent()</text>
<text text-anchor="start" x="8" y="-555.5" font-family="JetBrains Mono" font-size="10.00">+ addChild()</text>
<text text-anchor="start" x="8" y="-544.5" font-family="JetBrains Mono" font-size="10.00">+ isComposite()</text>
<text text-anchor="start" x="8" y="-533.5" font-family="JetBrains Mono" font-size="10.00">+ setBuffer()</text>
<text text-anchor="start" x="8" y="-522.5" font-family="JetBrains Mono" font-size="10.00">+ parseCommand()</text>
<text text-anchor="start" x="8" y="-511.5" font-family="JetBrains Mono" font-size="10.00">+ createPackage()</text>
<text text-anchor="start" x="8" y="-500.5" font-family="JetBrains Mono" font-size="10.00">+ getPackage()</text>
<text text-anchor="start" x="8" y="-489.5" font-family="JetBrains Mono" font-size="10.00">+ startProcessing()</text>
</a>
</g>
</g>
<!-- Node4&#45;&gt;Node3 -->
<g id="edge3" class="edge">
<title>Node4&#45;&gt;Node3</title>
<path fill="none" stroke="midnightblue" d="M106.17,-473.11C109.64,-465.95 113.72,-459.11 118.5,-453 129.19,-439.34 143.18,-427.6 157.82,-417.77"/>
<polygon fill="none" stroke="midnightblue" points="102.94,-471.77 102.09,-482.33 109.34,-474.6 102.94,-471.77"/>
</g>
<!-- Node4&#45;&gt;Node3 -->
<g id="edge7" class="edge">
<title>Node4&#45;&gt;Node3</title>
<path fill="none" stroke="#404040" d="M148.98,-482.27C160.01,-469.61 171.43,-456.5 182.27,-444.05"/>
<polygon fill="none" stroke="#404040" points="182.55,-443.73 183.48,-436.58 190.43,-434.68 189.51,-441.83 182.55,-443.73"/>
<text text-anchor="middle" x="200" y="-456" font-family="JetBrains Mono" font-size="10.00"> #parent_</text>
</g>
<!-- Node5 -->
<g id="node5" class="node">
<title>Node5</title>
<g id="a_node5"><a xlink:title=" ">
<polygon fill="none" stroke="#bfbfbf" points="191,-526.5 191,-583.5 286,-583.5 286,-526.5 191,-526.5"/>
<text text-anchor="middle" x="238.5" y="-571.5" font-family="JetBrains Mono" font-size="10.00">AcceptedTypes</text>
<polyline fill="none" stroke="#bfbfbf" points="191,-564.5 286,-564.5 "/>
<text text-anchor="middle" x="238.5" y="-552.5" font-family="JetBrains Mono" font-size="10.00"> </text>
<polyline fill="none" stroke="#bfbfbf" points="191,-545.5 286,-545.5 "/>
<text text-anchor="middle" x="238.5" y="-533.5" font-family="JetBrains Mono" font-size="10.00"> </text>
</a>
</g>
</g>
<!-- Node5&#45;&gt;Node3 -->
<g id="edge4" class="edge">
<title>Node5&#45;&gt;Node3</title>
<path fill="none" stroke="#404040" d="M238.5,-526.35C238.5,-505 238.5,-474.54 238.5,-446.88"/>
<polygon fill="none" stroke="#404040" points="238.5,-446.83 234.5,-440.83 238.5,-434.83 242.5,-440.83 238.5,-446.83"/>
<text text-anchor="middle" x="269" y="-456" font-family="JetBrains Mono" font-size="10.00"> #package_</text>
</g>
<!-- Node6 -->
<g id="node6" class="node">
<title>Node6</title>
<g id="a_node6"><a xlink:href="classinterface_1_1_byte_buffer.html" target="_top" xlink:title="ByteBuffer common interface.">
<polygon fill="none" stroke="black" points="304,-488 304,-622 447,-622 447,-488 304,-488"/>
<text text-anchor="middle" x="375.5" y="-610" font-family="JetBrains Mono" font-size="10.00">interface::ByteBuffer</text>
<polyline fill="none" stroke="black" points="304,-603 447,-603 "/>
<text text-anchor="middle" x="375.5" y="-591" font-family="JetBrains Mono" font-size="10.00"> </text>
<polyline fill="none" stroke="black" points="304,-584 447,-584 "/>
<text text-anchor="start" x="312" y="-572" font-family="JetBrains Mono" font-size="10.00">+ ~ByteBuffer()</text>
<text text-anchor="start" x="312" y="-561" font-family="JetBrains Mono" font-size="10.00">+ appendBytes()</text>
<text text-anchor="start" x="312" y="-550" font-family="JetBrains Mono" font-size="10.00">+ appendByte()</text>
<text text-anchor="start" x="312" y="-539" font-family="JetBrains Mono" font-size="10.00">+ getAllBytes()</text>
<text text-anchor="start" x="312" y="-528" font-family="JetBrains Mono" font-size="10.00">+ getBytes()</text>
<text text-anchor="start" x="312" y="-517" font-family="JetBrains Mono" font-size="10.00">+ getByte()</text>
<text text-anchor="start" x="312" y="-506" font-family="JetBrains Mono" font-size="10.00">+ isEmpty()</text>
<text text-anchor="start" x="312" y="-495" font-family="JetBrains Mono" font-size="10.00">+ size()</text>
</a>
</g>
</g>
<!-- Node6&#45;&gt;Node3 -->
<g id="edge5" class="edge">
<title>Node6&#45;&gt;Node3</title>
<path fill="none" stroke="#404040" d="M329.81,-487.79C321.28,-476.04 312.28,-464.04 303.5,-453 301.19,-450.09 298.8,-447.15 296.36,-444.19"/>
<polygon fill="none" stroke="#404040" points="296.16,-443.96 289.25,-441.92 288.46,-434.76 295.38,-436.79 296.16,-443.96"/>
<text text-anchor="middle" x="340" y="-456" font-family="JetBrains Mono" font-size="10.00"> #buffer_</text>
</g>
<!-- Node7 -->
<g id="node7" class="node">
<title>Node7</title>
<g id="a_node7"><a xlink:title=" ">
<polygon fill="none" stroke="#bfbfbf" points="346,-665.5 346,-722.5 405,-722.5 405,-665.5 346,-665.5"/>
<text text-anchor="middle" x="375.5" y="-710.5" font-family="JetBrains Mono" font-size="10.00">QObject</text>
<polyline fill="none" stroke="#bfbfbf" points="346,-703.5 405,-703.5 "/>
<text text-anchor="middle" x="375.5" y="-691.5" font-family="JetBrains Mono" font-size="10.00"> </text>
<polyline fill="none" stroke="#bfbfbf" points="346,-684.5 405,-684.5 "/>
<text text-anchor="middle" x="375.5" y="-672.5" font-family="JetBrains Mono" font-size="10.00"> </text>
</a>
</g>
</g>
<!-- Node7&#45;&gt;Node6 -->
<g id="edge6" class="edge">
<title>Node7&#45;&gt;Node6</title>
<path fill="none" stroke="midnightblue" d="M375.5,-655.08C375.5,-644.85 375.5,-633.48 375.5,-622.19"/>
<polygon fill="none" stroke="midnightblue" points="372,-655.28 375.5,-665.28 379,-655.28 372,-655.28"/>
</g>
<!-- Node8 -->
<g id="node8" class="node">
<title>Node8</title>
<g id="a_node8"><a xlink:href="classglobal_1_1_program_object.html" target="_top" xlink:title="This class is used to provide basic program functionalites for objects.">
<polygon fill="none" stroke="black" points="402,-350 402,-407 545,-407 545,-350 402,-350"/>
<text text-anchor="middle" x="473.5" y="-395" font-family="JetBrains Mono" font-size="10.00">global::ProgramObject</text>
<polyline fill="none" stroke="black" points="402,-388 545,-388 "/>
<text text-anchor="middle" x="473.5" y="-376" font-family="JetBrains Mono" font-size="10.00"> </text>
<polyline fill="none" stroke="black" points="402,-369 545,-369 "/>
<text text-anchor="middle" x="473.5" y="-357" font-family="JetBrains Mono" font-size="10.00"> </text>
</a>
</g>
</g>
<!-- Node8&#45;&gt;Node2 -->
<g id="edge8" class="edge">
<title>Node8&#45;&gt;Node2</title>
<path fill="none" stroke="midnightblue" d="M441.93,-341.95C427.12,-325.28 408.84,-304.71 391.09,-284.72"/>
<polygon fill="none" stroke="midnightblue" points="439.65,-344.66 448.9,-349.81 444.88,-340.01 439.65,-344.66"/>
</g>
<!-- Node9 -->
<g id="node9" class="node">
<title>Node9</title>
<g id="a_node9"><a xlink:href="classglobal_1_1_throwing_object.html" target="_top" xlink:title="This is base class which allows us to check statements at runtime.">
<polygon fill="none" stroke="black" points="465,-526.5 465,-583.5 614,-583.5 614,-526.5 465,-526.5"/>
<text text-anchor="middle" x="539.5" y="-571.5" font-family="JetBrains Mono" font-size="10.00">global::ThrowingObject</text>
<polyline fill="none" stroke="black" points="465,-564.5 614,-564.5 "/>
<text text-anchor="middle" x="539.5" y="-552.5" font-family="JetBrains Mono" font-size="10.00"> </text>
<polyline fill="none" stroke="black" points="465,-545.5 614,-545.5 "/>
<text text-anchor="start" x="473" y="-533.5" font-family="JetBrains Mono" font-size="10.00">+ throwIf()</text>
</a>
</g>
</g>
<!-- Node9&#45;&gt;Node8 -->
<g id="edge9" class="edge">
<title>Node9&#45;&gt;Node8</title>
<path fill="none" stroke="midnightblue" d="M525.37,-516.63C512.92,-483.73 495.09,-436.58 483.91,-407.02"/>
<polygon fill="none" stroke="midnightblue" points="522.23,-518.23 529.04,-526.35 528.78,-515.76 522.23,-518.23"/>
</g>
</g>
</svg>
