<?xml version="1.0" encoding="UTF-8" standalone="no"?>
<!DOCTYPE svg PUBLIC "-//W3C//DTD SVG 1.1//EN"
 "http://www.w3.org/Graphics/SVG/1.1/DTD/svg11.dtd">
<!-- Generated by graphviz version 2.48.0 (20210717.1556)
 -->
<!-- Title: backend::BufferedPortFlowOperator Pages: 1 -->
<svg width="381pt" height="753pt"
 viewBox="0.00 0.00 381.00 753.00" xmlns="http://www.w3.org/2000/svg" xmlns:xlink="http://www.w3.org/1999/xlink">
<g id="graph0" class="graph" transform="scale(1 1) rotate(0) translate(4 749)">
<title>backend::BufferedPortFlowOperator</title>
<!-- Node1 -->
<g id="node1" class="node">
<title>Node1</title>
<g id="a_node1"><a xlink:title="Extended PortFlowOperator which operates on the buffers.">
<polygon fill="#bfbfbf" stroke="black" points="74,-0.5 74,-134.5 265,-134.5 265,-0.5 74,-0.5"/>
<text text-anchor="start" x="82" y="-122.5" font-family="JetBrains Mono" font-size="10.00">backend::BufferedPortFlow</text>
<text text-anchor="middle" x="169.5" y="-111.5" font-family="JetBrains Mono" font-size="10.00">Operator</text>
<polyline fill="none" stroke="black" points="74,-104.5 265,-104.5 "/>
<text text-anchor="middle" x="169.5" y="-92.5" font-family="JetBrains Mono" font-size="10.00"> </text>
<polyline fill="none" stroke="black" points="74,-85.5 265,-85.5 "/>
<text text-anchor="start" x="82" y="-73.5" font-family="JetBrains Mono" font-size="10.00">+ BufferedPortFlowOperator()</text>
<text text-anchor="start" x="82" y="-62.5" font-family="JetBrains Mono" font-size="10.00">+ BufferedPortFlowOperator()</text>
<text text-anchor="start" x="82" y="-51.5" font-family="JetBrains Mono" font-size="10.00">+ ~BufferedPortFlowOperator()</text>
<text text-anchor="start" x="82" y="-40.5" font-family="JetBrains Mono" font-size="10.00">+ setInputByteBuffer()</text>
<text text-anchor="start" x="82" y="-29.5" font-family="JetBrains Mono" font-size="10.00">+ setOutputByteBuffer()</text>
<text text-anchor="start" x="82" y="-18.5" font-family="JetBrains Mono" font-size="10.00"># sendDataFromPortToBuffer()</text>
<text text-anchor="start" x="82" y="-7.5" font-family="JetBrains Mono" font-size="10.00"># sendDataFromBufferToPort()</text>
</a>
</g>
</g>
<!-- Node2 -->
<g id="node2" class="node">
<title>Node2</title>
<g id="a_node2"><a xlink:href="classbackend_1_1_port_flow_operator.html" target="_top" xlink:title="Extended PortStateOperator which allows to exchange data.">
<polygon fill="none" stroke="black" points="3,-226.5 3,-327.5 170,-327.5 170,-226.5 3,-226.5"/>
<text text-anchor="middle" x="86.5" y="-315.5" font-family="JetBrains Mono" font-size="10.00">backend::PortFlowOperator</text>
<polyline fill="none" stroke="black" points="3,-308.5 170,-308.5 "/>
<text text-anchor="middle" x="86.5" y="-296.5" font-family="JetBrains Mono" font-size="10.00"> </text>
<polyline fill="none" stroke="black" points="3,-289.5 170,-289.5 "/>
<text text-anchor="start" x="11" y="-277.5" font-family="JetBrains Mono" font-size="10.00">+ PortFlowOperator()</text>
<text text-anchor="start" x="11" y="-266.5" font-family="JetBrains Mono" font-size="10.00">+ PortFlowOperator()</text>
<text text-anchor="start" x="11" y="-255.5" font-family="JetBrains Mono" font-size="10.00">+ ~PortFlowOperator()</text>
<text text-anchor="start" x="11" y="-244.5" font-family="JetBrains Mono" font-size="10.00">+ sendBytesToPort()</text>
<text text-anchor="start" x="11" y="-233.5" font-family="JetBrains Mono" font-size="10.00">+ getAllBytesFromPort()</text>
</a>
</g>
</g>
<!-- Node2&#45;&gt;Node1 -->
<g id="edge1" class="edge">
<title>Node2&#45;&gt;Node1</title>
<path fill="none" stroke="midnightblue" d="M110.21,-216.72C120.46,-191.1 132.49,-161.01 143.03,-134.67"/>
<polygon fill="none" stroke="midnightblue" points="106.84,-215.71 106.38,-226.3 113.34,-218.31 106.84,-215.71"/>
</g>
<!-- Node3 -->
<g id="node3" class="node">
<title>Node3</title>
<g id="a_node3"><a xlink:href="classbackend_1_1_port_state_operator.html" target="_top" xlink:title="This base class provides basic RS232 port operators.">
<polygon fill="none" stroke="black" points="0,-387.5 0,-554.5 173,-554.5 173,-387.5 0,-387.5"/>
<text text-anchor="middle" x="86.5" y="-542.5" font-family="JetBrains Mono" font-size="10.00">backend::PortStateOperator</text>
<polyline fill="none" stroke="black" points="0,-535.5 173,-535.5 "/>
<text text-anchor="start" x="8" y="-523.5" font-family="JetBrains Mono" font-size="10.00"># current_port_</text>
<text text-anchor="start" x="8" y="-512.5" font-family="JetBrains Mono" font-size="10.00"># current_port_info_</text>
<polyline fill="none" stroke="black" points="0,-505.5 173,-505.5 "/>
<text text-anchor="start" x="8" y="-493.5" font-family="JetBrains Mono" font-size="10.00">+ PortStateOperator()</text>
<text text-anchor="start" x="8" y="-482.5" font-family="JetBrains Mono" font-size="10.00">+ PortStateOperator()</text>
<text text-anchor="start" x="8" y="-471.5" font-family="JetBrains Mono" font-size="10.00">+ ~PortStateOperator()</text>
<text text-anchor="start" x="8" y="-460.5" font-family="JetBrains Mono" font-size="10.00">+ changePort()</text>
<text text-anchor="start" x="8" y="-449.5" font-family="JetBrains Mono" font-size="10.00">+ changeSettings()</text>
<text text-anchor="start" x="8" y="-438.5" font-family="JetBrains Mono" font-size="10.00">+ closePort()</text>
<text text-anchor="start" x="8" y="-427.5" font-family="JetBrains Mono" font-size="10.00">+ openPort()</text>
<text text-anchor="start" x="8" y="-416.5" font-family="JetBrains Mono" font-size="10.00">+ isOpen()</text>
<text text-anchor="start" x="8" y="-405.5" font-family="JetBrains Mono" font-size="10.00">+ getError()</text>
<text text-anchor="start" x="8" y="-394.5" font-family="JetBrains Mono" font-size="10.00"># deviceErrorService()</text>
</a>
</g>
</g>
<!-- Node3&#45;&gt;Node2 -->
<g id="edge2" class="edge">
<title>Node3&#45;&gt;Node2</title>
<path fill="none" stroke="midnightblue" d="M86.5,-377.41C86.5,-360.27 86.5,-342.99 86.5,-327.76"/>
<polygon fill="none" stroke="midnightblue" points="83,-377.46 86.5,-387.46 90,-377.46 83,-377.46"/>
</g>
<!-- Node4 -->
<g id="node4" class="node">
<title>Node4</title>
<g id="a_node4"><a xlink:title=" ">
<polygon fill="none" stroke="#bfbfbf" points="244,-592.5 244,-649.5 303,-649.5 303,-592.5 244,-592.5"/>
<text text-anchor="middle" x="273.5" y="-637.5" font-family="JetBrains Mono" font-size="10.00">QObject</text>
<polyline fill="none" stroke="#bfbfbf" points="244,-630.5 303,-630.5 "/>
<text text-anchor="middle" x="273.5" y="-618.5" font-family="JetBrains Mono" font-size="10.00"> </text>
<polyline fill="none" stroke="#bfbfbf" points="244,-611.5 303,-611.5 "/>
<text text-anchor="middle" x="273.5" y="-599.5" font-family="JetBrains Mono" font-size="10.00"> </text>
</a>
</g>
</g>
<!-- Node4&#45;&gt;Node3 -->
<g id="edge3" class="edge">
<title>Node4&#45;&gt;Node3</title>
<path fill="none" stroke="midnightblue" d="M235.89,-590.24C217.82,-575.93 195.34,-558.14 173.36,-540.74"/>
<polygon fill="none" stroke="midnightblue" points="233.86,-593.09 243.87,-596.55 238.2,-587.6 233.86,-593.09"/>
</g>
<!-- Node8 -->
<g id="node8" class="node">
<title>Node8</title>
<g id="a_node8"><a xlink:href="classinterface_1_1_byte_buffer.html" target="_top" xlink:title="ByteBuffer common interface.">
<polygon fill="none" stroke="black" points="230,-404 230,-538 373,-538 373,-404 230,-404"/>
<text text-anchor="middle" x="301.5" y="-526" font-family="JetBrains Mono" font-size="10.00">interface::ByteBuffer</text>
<polyline fill="none" stroke="black" points="230,-519 373,-519 "/>
<text text-anchor="middle" x="301.5" y="-507" font-family="JetBrains Mono" font-size="10.00"> </text>
<polyline fill="none" stroke="black" points="230,-500 373,-500 "/>
<text text-anchor="start" x="238" y="-488" font-family="JetBrains Mono" font-size="10.00">+ ~ByteBuffer()</text>
<text text-anchor="start" x="238" y="-477" font-family="JetBrains Mono" font-size="10.00">+ appendBytes()</text>
<text text-anchor="start" x="238" y="-466" font-family="JetBrains Mono" font-size="10.00">+ appendByte()</text>
<text text-anchor="start" x="238" y="-455" font-family="JetBrains Mono" font-size="10.00">+ getAllBytes()</text>
<text text-anchor="start" x="238" y="-444" font-family="JetBrains Mono" font-size="10.00">+ getBytes()</text>
<text text-anchor="start" x="238" y="-433" font-family="JetBrains Mono" font-size="10.00">+ getByte()</text>
<text text-anchor="start" x="238" y="-422" font-family="JetBrains Mono" font-size="10.00">+ isEmpty()</text>
<text text-anchor="start" x="238" y="-411" font-family="JetBrains Mono" font-size="10.00">+ size()</text>
</a>
</g>
</g>
<!-- Node4&#45;&gt;Node8 -->
<g id="edge8" class="edge">
<title>Node4&#45;&gt;Node8</title>
<path fill="none" stroke="midnightblue" d="M280.63,-582.32C283.18,-568.86 286.13,-553.26 288.99,-538.1"/>
<polygon fill="none" stroke="midnightblue" points="277.19,-581.69 278.77,-592.16 284.06,-582.99 277.19,-581.69"/>
</g>
<!-- Node5 -->
<g id="node5" class="node">
<title>Node5</title>
<g id="a_node5"><a xlink:href="classglobal_1_1_program_object.html" target="_top" xlink:title="This class is used to provide basic program functionalites for objects.">
<polygon fill="none" stroke="black" points="53,-592.5 53,-649.5 196,-649.5 196,-592.5 53,-592.5"/>
<text text-anchor="middle" x="124.5" y="-637.5" font-family="JetBrains Mono" font-size="10.00">global::ProgramObject</text>
<polyline fill="none" stroke="black" points="53,-630.5 196,-630.5 "/>
<text text-anchor="middle" x="124.5" y="-618.5" font-family="JetBrains Mono" font-size="10.00"> </text>
<polyline fill="none" stroke="black" points="53,-611.5 196,-611.5 "/>
<text text-anchor="middle" x="124.5" y="-599.5" font-family="JetBrains Mono" font-size="10.00"> </text>
</a>
</g>
</g>
<!-- Node5&#45;&gt;Node3 -->
<g id="edge4" class="edge">
<title>Node5&#45;&gt;Node3</title>
<path fill="none" stroke="midnightblue" d="M114.8,-582.21C112.6,-573.67 110.19,-564.27 107.73,-554.68"/>
<polygon fill="none" stroke="midnightblue" points="111.48,-583.35 117.35,-592.16 118.26,-581.61 111.48,-583.35"/>
</g>
<!-- Node7 -->
<g id="node7" class="node">
<title>Node7</title>
<g id="a_node7"><a xlink:href="classbackend_1_1_byte_buffer.html" target="_top" xlink:title="Objects of this class are buffers which can be shared and modified by several objects.">
<polygon fill="none" stroke="black" points="188,-204.5 188,-349.5 319,-349.5 319,-204.5 188,-204.5"/>
<text text-anchor="middle" x="253.5" y="-337.5" font-family="JetBrains Mono" font-size="10.00">backend::ByteBuffer</text>
<polyline fill="none" stroke="black" points="188,-330.5 319,-330.5 "/>
<text text-anchor="middle" x="253.5" y="-318.5" font-family="JetBrains Mono" font-size="10.00"> </text>
<polyline fill="none" stroke="black" points="188,-311.5 319,-311.5 "/>
<text text-anchor="start" x="196" y="-299.5" font-family="JetBrains Mono" font-size="10.00">+ ByteBuffer()</text>
<text text-anchor="start" x="196" y="-288.5" font-family="JetBrains Mono" font-size="10.00">+ ~ByteBuffer()</text>
<text text-anchor="start" x="196" y="-277.5" font-family="JetBrains Mono" font-size="10.00">+ appendBytes()</text>
<text text-anchor="start" x="196" y="-266.5" font-family="JetBrains Mono" font-size="10.00">+ appendByte()</text>
<text text-anchor="start" x="196" y="-255.5" font-family="JetBrains Mono" font-size="10.00">+ getAllBytes()</text>
<text text-anchor="start" x="196" y="-244.5" font-family="JetBrains Mono" font-size="10.00">+ getBytes()</text>
<text text-anchor="start" x="196" y="-233.5" font-family="JetBrains Mono" font-size="10.00">+ getByte()</text>
<text text-anchor="start" x="196" y="-222.5" font-family="JetBrains Mono" font-size="10.00">+ isEmpty()</text>
<text text-anchor="start" x="196" y="-211.5" font-family="JetBrains Mono" font-size="10.00">+ size()</text>
</a>
</g>
</g>
<!-- Node5&#45;&gt;Node7 -->
<g id="edge9" class="edge">
<title>Node5&#45;&gt;Node7</title>
<path fill="none" stroke="midnightblue" d="M161.72,-584.66C169.54,-575.63 177.06,-565.49 182.5,-555 217.78,-486.95 202.03,-461.14 221.5,-387 224.68,-374.89 228.25,-362.08 231.83,-349.66"/>
<polygon fill="none" stroke="midnightblue" points="158.93,-582.52 154.81,-592.28 164.11,-587.22 158.93,-582.52"/>
</g>
<!-- Node6 -->
<g id="node6" class="node">
<title>Node6</title>
<g id="a_node6"><a xlink:href="classglobal_1_1_throwing_object.html" target="_top" xlink:title="This is base class which allows us to check statements at runtime.">
<polygon fill="none" stroke="black" points="50,-687.5 50,-744.5 199,-744.5 199,-687.5 50,-687.5"/>
<text text-anchor="middle" x="124.5" y="-732.5" font-family="JetBrains Mono" font-size="10.00">global::ThrowingObject</text>
<polyline fill="none" stroke="black" points="50,-725.5 199,-725.5 "/>
<text text-anchor="middle" x="124.5" y="-713.5" font-family="JetBrains Mono" font-size="10.00"> </text>
<polyline fill="none" stroke="black" points="50,-706.5 199,-706.5 "/>
<text text-anchor="start" x="58" y="-694.5" font-family="JetBrains Mono" font-size="10.00">+ throwIf()</text>
</a>
</g>
</g>
<!-- Node6&#45;&gt;Node5 -->
<g id="edge5" class="edge">
<title>Node6&#45;&gt;Node5</title>
<path fill="none" stroke="midnightblue" d="M124.5,-677.24C124.5,-668.03 124.5,-658.35 124.5,-649.71"/>
<polygon fill="none" stroke="midnightblue" points="121,-677.35 124.5,-687.35 128,-677.35 121,-677.35"/>
</g>
<!-- Node7&#45;&gt;Node1 -->
<g id="edge6" class="edge">
<title>Node7&#45;&gt;Node1</title>
<path fill="none" stroke="#404040" d="M224.47,-204.3C216.86,-185.49 208.61,-165.12 200.88,-146.02"/>
<polygon fill="none" stroke="#404040" points="200.77,-145.75 194.81,-141.69 196.27,-134.63 202.23,-138.69 200.77,-145.75"/>
<text text-anchor="start" x="216.5" y="-178" font-family="JetBrains Mono" font-size="10.00"> #input_byte_buffer</text>
<text text-anchor="middle" x="277" y="-167" font-family="JetBrains Mono" font-size="10.00">_</text>
<text text-anchor="middle" x="277" y="-156" font-family="JetBrains Mono" font-size="10.00">#output_byte_buffer_</text>
</g>
<!-- Node8&#45;&gt;Node7 -->
<g id="edge7" class="edge">
<title>Node8&#45;&gt;Node7</title>
<path fill="none" stroke="midnightblue" d="M282.49,-393.96C278.85,-379.4 275.05,-364.2 271.44,-349.78"/>
<polygon fill="none" stroke="midnightblue" points="279.16,-395.07 284.98,-403.92 285.95,-393.37 279.16,-395.07"/>
</g>
</g>
</svg>
