<?xml version="1.0" encoding="UTF-8" standalone="no"?>
<!DOCTYPE svg PUBLIC "-//W3C//DTD SVG 1.1//EN"
 "http://www.w3.org/Graphics/SVG/1.1/DTD/svg11.dtd">
<!-- Generated by graphviz version 2.48.0 (20210717.1556)
 -->
<!-- Title: backend::ComplexParser Pages: 1 -->
<svg width="622pt" height="603pt"
 viewBox="0.00 0.00 622.00 603.00" xmlns="http://www.w3.org/2000/svg" xmlns:xlink="http://www.w3.org/1999/xlink">
<g id="graph0" class="graph" transform="scale(1 1) rotate(0) translate(4 599)">
<title>backend::ComplexParser</title>
<!-- Node1 -->
<g id="node1" class="node">
<title>Node1</title>
<g id="a_node1"><a xlink:title="This class provides composite objects which can have children.">
<polygon fill="#bfbfbf" stroke="black" points="239,-0.5 239,-156.5 406,-156.5 406,-0.5 239,-0.5"/>
<text text-anchor="middle" x="322.5" y="-144.5" font-family="JetBrains Mono" font-size="10.00">backend::ComplexParser</text>
<polyline fill="none" stroke="black" points="239,-137.5 406,-137.5 "/>
<text text-anchor="start" x="247" y="-125.5" font-family="JetBrains Mono" font-size="10.00"># children_</text>
<text text-anchor="start" x="247" y="-114.5" font-family="JetBrains Mono" font-size="10.00"># commands_count_</text>
<polyline fill="none" stroke="black" points="239,-107.5 406,-107.5 "/>
<text text-anchor="start" x="247" y="-95.5" font-family="JetBrains Mono" font-size="10.00">+ ComplexParser()</text>
<text text-anchor="start" x="247" y="-84.5" font-family="JetBrains Mono" font-size="10.00">+ isComposite()</text>
<text text-anchor="start" x="247" y="-73.5" font-family="JetBrains Mono" font-size="10.00">+ addChild()</text>
<text text-anchor="start" x="247" y="-62.5" font-family="JetBrains Mono" font-size="10.00">+ setBuffer()</text>
<text text-anchor="start" x="247" y="-51.5" font-family="JetBrains Mono" font-size="10.00"># checkCode()</text>
<text text-anchor="start" x="247" y="-40.5" font-family="JetBrains Mono" font-size="10.00"># proccessingLoop()</text>
<text text-anchor="start" x="247" y="-29.5" font-family="JetBrains Mono" font-size="10.00"># parseCommand()</text>
<text text-anchor="start" x="247" y="-18.5" font-family="JetBrains Mono" font-size="10.00"># specialPreOperations()</text>
<text text-anchor="start" x="247" y="-7.5" font-family="JetBrains Mono" font-size="10.00"># specialPostOperations()</text>
</a>
</g>
</g>
<!-- Node2 -->
<g id="node2" class="node">
<title>Node2</title>
<g id="a_node2"><a xlink:href="classbackend_1_1_parser_component.html" target="_top" xlink:title="This is the base class for all parsers in the parsing tree.">
<polygon fill="none" stroke="black" points="158,-194.5 158,-306.5 319,-306.5 319,-194.5 158,-194.5"/>
<text text-anchor="middle" x="238.5" y="-294.5" font-family="JetBrains Mono" font-size="10.00">backend::ParserComponent</text>
<polyline fill="none" stroke="black" points="158,-287.5 319,-287.5 "/>
<text text-anchor="start" x="166" y="-275.5" font-family="JetBrains Mono" font-size="10.00"># current_type_</text>
<polyline fill="none" stroke="black" points="158,-268.5 319,-268.5 "/>
<text text-anchor="start" x="166" y="-256.5" font-family="JetBrains Mono" font-size="10.00">+ getParent()</text>
<text text-anchor="start" x="166" y="-245.5" font-family="JetBrains Mono" font-size="10.00">+ setParent()</text>
<text text-anchor="start" x="166" y="-234.5" font-family="JetBrains Mono" font-size="10.00">+ addChild()</text>
<text text-anchor="start" x="166" y="-223.5" font-family="JetBrains Mono" font-size="10.00">+ isComposite()</text>
<text text-anchor="start" x="166" y="-212.5" font-family="JetBrains Mono" font-size="10.00">+ setBuffer()</text>
<text text-anchor="start" x="166" y="-201.5" font-family="JetBrains Mono" font-size="10.00"># createPackage()</text>
</a>
</g>
</g>
<!-- Node2&#45;&gt;Node1 -->
<g id="edge1" class="edge">
<title>Node2&#45;&gt;Node1</title>
<path fill="none" stroke="midnightblue" d="M270.3,-185.14C274.9,-175.83 279.67,-166.18 284.38,-156.65"/>
<polygon fill="none" stroke="midnightblue" points="267.06,-183.79 265.77,-194.31 273.34,-186.89 267.06,-183.79"/>
</g>
<!-- Node3 -->
<g id="node3" class="node">
<title>Node3</title>
<g id="a_node3"><a xlink:href="classinterface_1_1_parser_component.html" target="_top" xlink:title="ParserComponent common interface.">
<polygon fill="none" stroke="black" points="0,-354.5 0,-499.5 173,-499.5 173,-354.5 0,-354.5"/>
<text text-anchor="middle" x="86.5" y="-487.5" font-family="JetBrains Mono" font-size="10.00">interface::ParserComponent</text>
<polyline fill="none" stroke="black" points="0,-480.5 173,-480.5 "/>
<text text-anchor="middle" x="86.5" y="-468.5" font-family="JetBrains Mono" font-size="10.00"> </text>
<polyline fill="none" stroke="black" points="0,-461.5 173,-461.5 "/>
<text text-anchor="start" x="8" y="-449.5" font-family="JetBrains Mono" font-size="10.00">+ getParent()</text>
<text text-anchor="start" x="8" y="-438.5" font-family="JetBrains Mono" font-size="10.00">+ setParent()</text>
<text text-anchor="start" x="8" y="-427.5" font-family="JetBrains Mono" font-size="10.00">+ addChild()</text>
<text text-anchor="start" x="8" y="-416.5" font-family="JetBrains Mono" font-size="10.00">+ isComposite()</text>
<text text-anchor="start" x="8" y="-405.5" font-family="JetBrains Mono" font-size="10.00">+ setBuffer()</text>
<text text-anchor="start" x="8" y="-394.5" font-family="JetBrains Mono" font-size="10.00">+ parseCommand()</text>
<text text-anchor="start" x="8" y="-383.5" font-family="JetBrains Mono" font-size="10.00">+ createPackage()</text>
<text text-anchor="start" x="8" y="-372.5" font-family="JetBrains Mono" font-size="10.00">+ getPackage()</text>
<text text-anchor="start" x="8" y="-361.5" font-family="JetBrains Mono" font-size="10.00">+ startProcessing()</text>
</a>
</g>
</g>
<!-- Node3&#45;&gt;Node2 -->
<g id="edge2" class="edge">
<title>Node3&#45;&gt;Node2</title>
<path fill="none" stroke="midnightblue" d="M106.17,-345.11C109.64,-337.95 113.72,-331.11 118.5,-325 129.19,-311.34 143.18,-299.6 157.82,-289.77"/>
<polygon fill="none" stroke="midnightblue" points="102.94,-343.77 102.09,-354.33 109.34,-346.6 102.94,-343.77"/>
</g>
<!-- Node3&#45;&gt;Node2 -->
<g id="edge6" class="edge">
<title>Node3&#45;&gt;Node2</title>
<path fill="none" stroke="#404040" d="M148.98,-354.27C160.01,-341.61 171.43,-328.5 182.27,-316.05"/>
<polygon fill="none" stroke="#404040" points="182.55,-315.73 183.48,-308.58 190.43,-306.68 189.51,-313.83 182.55,-315.73"/>
<text text-anchor="middle" x="200" y="-328" font-family="JetBrains Mono" font-size="10.00"> #parent_</text>
</g>
<!-- Node4 -->
<g id="node4" class="node">
<title>Node4</title>
<g id="a_node4"><a xlink:title=" ">
<polygon fill="none" stroke="#bfbfbf" points="191,-398.5 191,-455.5 286,-455.5 286,-398.5 191,-398.5"/>
<text text-anchor="middle" x="238.5" y="-443.5" font-family="JetBrains Mono" font-size="10.00">AcceptedTypes</text>
<polyline fill="none" stroke="#bfbfbf" points="191,-436.5 286,-436.5 "/>
<text text-anchor="middle" x="238.5" y="-424.5" font-family="JetBrains Mono" font-size="10.00"> </text>
<polyline fill="none" stroke="#bfbfbf" points="191,-417.5 286,-417.5 "/>
<text text-anchor="middle" x="238.5" y="-405.5" font-family="JetBrains Mono" font-size="10.00"> </text>
</a>
</g>
</g>
<!-- Node4&#45;&gt;Node2 -->
<g id="edge3" class="edge">
<title>Node4&#45;&gt;Node2</title>
<path fill="none" stroke="#404040" d="M238.5,-398.35C238.5,-377 238.5,-346.54 238.5,-318.88"/>
<polygon fill="none" stroke="#404040" points="238.5,-318.83 234.5,-312.83 238.5,-306.83 242.5,-312.83 238.5,-318.83"/>
<text text-anchor="middle" x="269" y="-328" font-family="JetBrains Mono" font-size="10.00"> #package_</text>
</g>
<!-- Node5 -->
<g id="node5" class="node">
<title>Node5</title>
<g id="a_node5"><a xlink:href="classinterface_1_1_byte_buffer.html" target="_top" xlink:title="ByteBuffer common interface.">
<polygon fill="none" stroke="black" points="304,-360 304,-494 447,-494 447,-360 304,-360"/>
<text text-anchor="middle" x="375.5" y="-482" font-family="JetBrains Mono" font-size="10.00">interface::ByteBuffer</text>
<polyline fill="none" stroke="black" points="304,-475 447,-475 "/>
<text text-anchor="middle" x="375.5" y="-463" font-family="JetBrains Mono" font-size="10.00"> </text>
<polyline fill="none" stroke="black" points="304,-456 447,-456 "/>
<text text-anchor="start" x="312" y="-444" font-family="JetBrains Mono" font-size="10.00">+ ~ByteBuffer()</text>
<text text-anchor="start" x="312" y="-433" font-family="JetBrains Mono" font-size="10.00">+ appendBytes()</text>
<text text-anchor="start" x="312" y="-422" font-family="JetBrains Mono" font-size="10.00">+ appendByte()</text>
<text text-anchor="start" x="312" y="-411" font-family="JetBrains Mono" font-size="10.00">+ getAllBytes()</text>
<text text-anchor="start" x="312" y="-400" font-family="JetBrains Mono" font-size="10.00">+ getBytes()</text>
<text text-anchor="start" x="312" y="-389" font-family="JetBrains Mono" font-size="10.00">+ getByte()</text>
<text text-anchor="start" x="312" y="-378" font-family="JetBrains Mono" font-size="10.00">+ isEmpty()</text>
<text text-anchor="start" x="312" y="-367" font-family="JetBrains Mono" font-size="10.00">+ size()</text>
</a>
</g>
</g>
<!-- Node5&#45;&gt;Node2 -->
<g id="edge4" class="edge">
<title>Node5&#45;&gt;Node2</title>
<path fill="none" stroke="#404040" d="M329.81,-359.79C321.28,-348.04 312.28,-336.04 303.5,-325 301.19,-322.09 298.8,-319.15 296.36,-316.19"/>
<polygon fill="none" stroke="#404040" points="296.16,-315.96 289.25,-313.92 288.46,-306.76 295.38,-308.79 296.16,-315.96"/>
<text text-anchor="middle" x="340" y="-328" font-family="JetBrains Mono" font-size="10.00"> #buffer_</text>
</g>
<!-- Node6 -->
<g id="node6" class="node">
<title>Node6</title>
<g id="a_node6"><a xlink:title=" ">
<polygon fill="none" stroke="#bfbfbf" points="346,-537.5 346,-594.5 405,-594.5 405,-537.5 346,-537.5"/>
<text text-anchor="middle" x="375.5" y="-582.5" font-family="JetBrains Mono" font-size="10.00">QObject</text>
<polyline fill="none" stroke="#bfbfbf" points="346,-575.5 405,-575.5 "/>
<text text-anchor="middle" x="375.5" y="-563.5" font-family="JetBrains Mono" font-size="10.00"> </text>
<polyline fill="none" stroke="#bfbfbf" points="346,-556.5 405,-556.5 "/>
<text text-anchor="middle" x="375.5" y="-544.5" font-family="JetBrains Mono" font-size="10.00"> </text>
</a>
</g>
</g>
<!-- Node6&#45;&gt;Node5 -->
<g id="edge5" class="edge">
<title>Node6&#45;&gt;Node5</title>
<path fill="none" stroke="midnightblue" d="M375.5,-527.08C375.5,-516.85 375.5,-505.48 375.5,-494.19"/>
<polygon fill="none" stroke="midnightblue" points="372,-527.28 375.5,-537.28 379,-527.28 372,-527.28"/>
</g>
<!-- Node7 -->
<g id="node7" class="node">
<title>Node7</title>
<g id="a_node7"><a xlink:href="classglobal_1_1_program_object.html" target="_top" xlink:title="This class is used to provide basic program functionalites for objects.">
<polygon fill="none" stroke="black" points="402,-222 402,-279 545,-279 545,-222 402,-222"/>
<text text-anchor="middle" x="473.5" y="-267" font-family="JetBrains Mono" font-size="10.00">global::ProgramObject</text>
<polyline fill="none" stroke="black" points="402,-260 545,-260 "/>
<text text-anchor="middle" x="473.5" y="-248" font-family="JetBrains Mono" font-size="10.00"> </text>
<polyline fill="none" stroke="black" points="402,-241 545,-241 "/>
<text text-anchor="middle" x="473.5" y="-229" font-family="JetBrains Mono" font-size="10.00"> </text>
</a>
</g>
</g>
<!-- Node7&#45;&gt;Node1 -->
<g id="edge7" class="edge">
<title>Node7&#45;&gt;Node1</title>
<path fill="none" stroke="midnightblue" d="M441.93,-213.95C427.12,-197.28 408.84,-176.71 391.09,-156.72"/>
<polygon fill="none" stroke="midnightblue" points="439.65,-216.66 448.9,-221.81 444.88,-212.01 439.65,-216.66"/>
</g>
<!-- Node8 -->
<g id="node8" class="node">
<title>Node8</title>
<g id="a_node8"><a xlink:href="classglobal_1_1_throwing_object.html" target="_top" xlink:title="This is base class which allows us to check statements at runtime.">
<polygon fill="none" stroke="black" points="465,-398.5 465,-455.5 614,-455.5 614,-398.5 465,-398.5"/>
<text text-anchor="middle" x="539.5" y="-443.5" font-family="JetBrains Mono" font-size="10.00">global::ThrowingObject</text>
<polyline fill="none" stroke="black" points="465,-436.5 614,-436.5 "/>
<text text-anchor="middle" x="539.5" y="-424.5" font-family="JetBrains Mono" font-size="10.00"> </text>
<polyline fill="none" stroke="black" points="465,-417.5 614,-417.5 "/>
<text text-anchor="start" x="473" y="-405.5" font-family="JetBrains Mono" font-size="10.00">+ throwIf()</text>
</a>
</g>
</g>
<!-- Node8&#45;&gt;Node7 -->
<g id="edge8" class="edge">
<title>Node8&#45;&gt;Node7</title>
<path fill="none" stroke="midnightblue" d="M525.37,-388.63C512.92,-355.73 495.09,-308.58 483.91,-279.02"/>
<polygon fill="none" stroke="midnightblue" points="522.23,-390.23 529.04,-398.35 528.78,-387.76 522.23,-390.23"/>
</g>
</g>
</svg>
