<?xml version="1.0" encoding="UTF-8" standalone="no"?>
<!DOCTYPE svg PUBLIC "-//W3C//DTD SVG 1.1//EN"
 "http://www.w3.org/Graphics/SVG/1.1/DTD/svg11.dtd">
<!-- Generated by graphviz version 2.48.0 (20210717.1556)
 -->
<!-- Title: backend::ComplexParser::proccessingLoop Pages: 1 -->
<svg width="509pt" height="39pt"
 viewBox="0.00 0.00 509.00 39.00" xmlns="http://www.w3.org/2000/svg" xmlns:xlink="http://www.w3.org/1999/xlink">
<g id="graph0" class="graph" transform="scale(1 1) rotate(0) translate(4 35)">
<title>backend::ComplexParser::proccessingLoop</title>
<!-- Node1 -->
<g id="node1" class="node">
<title>Node1</title>
<g id="a_node1"><a xlink:title=" ">
<polygon fill="#bfbfbf" stroke="black" points="352,-0.5 352,-30.5 501,-30.5 501,-0.5 352,-0.5"/>
<text text-anchor="start" x="360" y="-18.5" font-family="JetBrains Mono" font-size="10.00">backend::ComplexParser</text>
<text text-anchor="middle" x="426.5" y="-7.5" font-family="JetBrains Mono" font-size="10.00">::proccessingLoop</text>
</a>
</g>
</g>
<!-- Node2 -->
<g id="node2" class="node">
<title>Node2</title>
<g id="a_node2"><a xlink:href="classbackend_1_1_complex_parser.html#a24ff46b718bc29b91c1f9dbd63b99cb8" target="_top" xlink:title=" ">
<polygon fill="none" stroke="black" points="167,-0.5 167,-30.5 316,-30.5 316,-0.5 167,-0.5"/>
<text text-anchor="start" x="175" y="-18.5" font-family="JetBrains Mono" font-size="10.00">backend::ComplexParser</text>
<text text-anchor="middle" x="241.5" y="-7.5" font-family="JetBrains Mono" font-size="10.00">::parseCommand</text>
</a>
</g>
</g>
<!-- Node1&#45;&gt;Node2 -->
<g id="edge1" class="edge">
<title>Node1&#45;&gt;Node2</title>
<path fill="none" stroke="midnightblue" d="M341.61,-8.77C333.16,-8.72 324.62,-8.76 316.29,-8.86"/>
<polygon fill="midnightblue" stroke="midnightblue" points="341.83,-12.27 351.86,-8.87 341.89,-5.27 341.83,-12.27"/>
</g>
<!-- Node2&#45;&gt;Node1 -->
<g id="edge2" class="edge">
<title>Node2&#45;&gt;Node1</title>
<path fill="none" stroke="midnightblue" d="M326.54,-22.23C334.99,-22.28 343.53,-22.24 351.86,-22.13"/>
<polygon fill="midnightblue" stroke="midnightblue" points="326.32,-18.73 316.29,-22.14 326.26,-25.73 326.32,-18.73"/>
</g>
<!-- Node3 -->
<g id="node3" class="node">
<title>Node3</title>
<g id="a_node3"><a xlink:href="classbackend_1_1_root_parser.html#aa9ec5690c984c1b3a3d8dd3c1063d109" target="_top" xlink:title="Starts parsing procedure for the entire tree.">
<polygon fill="none" stroke="black" points="0,-0.5 0,-30.5 131,-30.5 131,-0.5 0,-0.5"/>
<text text-anchor="start" x="8" y="-18.5" font-family="JetBrains Mono" font-size="10.00">backend::RootParser</text>
<text text-anchor="middle" x="65.5" y="-7.5" font-family="JetBrains Mono" font-size="10.00">::startProcessing</text>
</a>
</g>
</g>
<!-- Node2&#45;&gt;Node3 -->
<g id="edge3" class="edge">
<title>Node2&#45;&gt;Node3</title>
<path fill="none" stroke="midnightblue" d="M156.88,-15.5C148.26,-15.5 139.6,-15.5 131.23,-15.5"/>
<polygon fill="midnightblue" stroke="midnightblue" points="156.96,-19 166.96,-15.5 156.96,-12 156.96,-19"/>
</g>
</g>
</svg>
