<?xml version="1.0" encoding="UTF-8" standalone="no"?>
<!DOCTYPE svg PUBLIC "-//W3C//DTD SVG 1.1//EN"
 "http://www.w3.org/Graphics/SVG/1.1/DTD/svg11.dtd">
<!-- Generated by graphviz version 2.48.0 (20210717.1556)
 -->
<!-- Title: backend::PortStateOperator::PortStateOperator Pages: 1 -->
<svg width="593pt" height="235pt"
 viewBox="0.00 0.00 593.00 235.00" xmlns="http://www.w3.org/2000/svg" xmlns:xlink="http://www.w3.org/1999/xlink">
<g id="graph0" class="graph" transform="scale(1 1) rotate(0) translate(4 231)">
<title>backend::PortStateOperator::PortStateOperator</title>
<!-- Node1 -->
<g id="node1" class="node">
<title>Node1</title>
<g id="a_node1"><a xlink:title=" ">
<polygon fill="#bfbfbf" stroke="black" points="0,-98.5 0,-128.5 173,-128.5 173,-98.5 0,-98.5"/>
<text text-anchor="start" x="8" y="-116.5" font-family="JetBrains Mono" font-size="10.00">backend::PortStateOperator</text>
<text text-anchor="middle" x="86.5" y="-105.5" font-family="JetBrains Mono" font-size="10.00">::PortStateOperator</text>
</a>
</g>
</g>
<!-- Node2 -->
<g id="node2" class="node">
<title>Node2</title>
<g id="a_node2"><a xlink:href="classbackend_1_1_port_state_operator.html#a1a843c304d57ca8ce655b53984724d9f" target="_top" xlink:title=" ">
<polygon fill="none" stroke="black" points="209,-98.5 209,-128.5 382,-128.5 382,-98.5 209,-98.5"/>
<text text-anchor="start" x="217" y="-116.5" font-family="JetBrains Mono" font-size="10.00">backend::PortStateOperator</text>
<text text-anchor="middle" x="295.5" y="-105.5" font-family="JetBrains Mono" font-size="10.00">::changeSettings</text>
</a>
</g>
</g>
<!-- Node1&#45;&gt;Node2 -->
<g id="edge1" class="edge">
<title>Node1&#45;&gt;Node2</title>
<path fill="none" stroke="midnightblue" d="M173.19,-113.5C181.66,-113.5 190.3,-113.5 198.87,-113.5"/>
<polygon fill="midnightblue" stroke="midnightblue" points="198.88,-117 208.88,-113.5 198.88,-110 198.88,-117"/>
</g>
<!-- Node3 -->
<g id="node3" class="node">
<title>Node3</title>
<g id="a_node3"><a xlink:href="classbackend_1_1_port_flow_settings.html#a21d5def33996ea7854505c03d571f26d" target="_top" xlink:title=" ">
<polygon fill="none" stroke="black" points="418,-196.5 418,-226.5 585,-226.5 585,-196.5 418,-196.5"/>
<text text-anchor="start" x="426" y="-214.5" font-family="JetBrains Mono" font-size="10.00">backend::PortFlowSettings</text>
<text text-anchor="middle" x="501.5" y="-203.5" font-family="JetBrains Mono" font-size="10.00">::baudRate</text>
</a>
</g>
</g>
<!-- Node2&#45;&gt;Node3 -->
<g id="edge2" class="edge">
<title>Node2&#45;&gt;Node3</title>
<path fill="none" stroke="midnightblue" d="M317.51,-128.67C341.01,-145.08 380.71,-171.07 418,-187.5 422.46,-189.46 427.12,-191.32 431.86,-193.06"/>
<polygon fill="midnightblue" stroke="midnightblue" points="431.08,-196.49 441.67,-196.47 433.38,-189.88 431.08,-196.49"/>
</g>
<!-- Node4 -->
<g id="node4" class="node">
<title>Node4</title>
<g id="a_node4"><a xlink:href="classbackend_1_1_port_flow_settings.html#a2349298c66200bd5933a17ea39e33f31" target="_top" xlink:title=" ">
<polygon fill="none" stroke="black" points="418,-147.5 418,-177.5 585,-177.5 585,-147.5 418,-147.5"/>
<text text-anchor="start" x="426" y="-165.5" font-family="JetBrains Mono" font-size="10.00">backend::PortFlowSettings</text>
<text text-anchor="middle" x="501.5" y="-154.5" font-family="JetBrains Mono" font-size="10.00">::dataBits</text>
</a>
</g>
</g>
<!-- Node2&#45;&gt;Node4 -->
<g id="edge3" class="edge">
<title>Node2&#45;&gt;Node4</title>
<path fill="none" stroke="midnightblue" d="M359.09,-128.53C380.93,-133.78 405.61,-139.71 428.17,-145.13"/>
<polygon fill="midnightblue" stroke="midnightblue" points="427.48,-148.56 438.03,-147.49 429.12,-141.76 427.48,-148.56"/>
</g>
<!-- Node5 -->
<g id="node5" class="node">
<title>Node5</title>
<g id="a_node5"><a xlink:href="classbackend_1_1_port_flow_settings.html#a0f056fee60bb1654b89d840a4ba328c1" target="_top" xlink:title=" ">
<polygon fill="none" stroke="black" points="418,-98.5 418,-128.5 585,-128.5 585,-98.5 418,-98.5"/>
<text text-anchor="start" x="426" y="-116.5" font-family="JetBrains Mono" font-size="10.00">backend::PortFlowSettings</text>
<text text-anchor="middle" x="501.5" y="-105.5" font-family="JetBrains Mono" font-size="10.00">::flowControl</text>
</a>
</g>
</g>
<!-- Node2&#45;&gt;Node5 -->
<g id="edge4" class="edge">
<title>Node2&#45;&gt;Node5</title>
<path fill="none" stroke="midnightblue" d="M382.13,-113.5C390.5,-113.5 399.02,-113.5 407.46,-113.5"/>
<polygon fill="midnightblue" stroke="midnightblue" points="407.7,-117 417.7,-113.5 407.7,-110 407.7,-117"/>
</g>
<!-- Node6 -->
<g id="node6" class="node">
<title>Node6</title>
<g id="a_node6"><a xlink:href="classbackend_1_1_port_flow_settings.html#a16ab48acce2ff338cfbdb5e80842ebc1" target="_top" xlink:title=" ">
<polygon fill="none" stroke="black" points="418,-49.5 418,-79.5 585,-79.5 585,-49.5 418,-49.5"/>
<text text-anchor="start" x="426" y="-67.5" font-family="JetBrains Mono" font-size="10.00">backend::PortFlowSettings</text>
<text text-anchor="middle" x="501.5" y="-56.5" font-family="JetBrains Mono" font-size="10.00">::parity</text>
</a>
</g>
</g>
<!-- Node2&#45;&gt;Node6 -->
<g id="edge5" class="edge">
<title>Node2&#45;&gt;Node6</title>
<path fill="none" stroke="midnightblue" d="M359.09,-98.47C380.93,-93.22 405.61,-87.29 428.17,-81.87"/>
<polygon fill="midnightblue" stroke="midnightblue" points="429.12,-85.24 438.03,-79.51 427.48,-78.44 429.12,-85.24"/>
</g>
<!-- Node7 -->
<g id="node7" class="node">
<title>Node7</title>
<g id="a_node7"><a xlink:href="classbackend_1_1_port_flow_settings.html#a3661b93ea25ef037b0b25fbf331bd76f" target="_top" xlink:title=" ">
<polygon fill="none" stroke="black" points="418,-0.5 418,-30.5 585,-30.5 585,-0.5 418,-0.5"/>
<text text-anchor="start" x="426" y="-18.5" font-family="JetBrains Mono" font-size="10.00">backend::PortFlowSettings</text>
<text text-anchor="middle" x="501.5" y="-7.5" font-family="JetBrains Mono" font-size="10.00">::stopBits</text>
</a>
</g>
</g>
<!-- Node2&#45;&gt;Node7 -->
<g id="edge6" class="edge">
<title>Node2&#45;&gt;Node7</title>
<path fill="none" stroke="midnightblue" d="M318,-98.33C341.62,-82.22 381.11,-56.87 418,-40.5 423.26,-38.17 428.8,-35.97 434.41,-33.92"/>
<polygon fill="midnightblue" stroke="midnightblue" points="435.61,-37.21 443.91,-30.62 433.31,-30.6 435.61,-37.21"/>
</g>
</g>
</svg>
