<?xml version="1.0" encoding="UTF-8" standalone="no"?>
<!DOCTYPE svg PUBLIC "-//W3C//DTD SVG 1.1//EN"
 "http://www.w3.org/Graphics/SVG/1.1/DTD/svg11.dtd">
<!-- Generated by graphviz version 2.48.0 (20210717.1556)
 -->
<!-- Title: backend::ComplexParser::specialPreOperations Pages: 1 -->
<svg width="527pt" height="88pt"
 viewBox="0.00 0.00 527.00 88.00" xmlns="http://www.w3.org/2000/svg" xmlns:xlink="http://www.w3.org/1999/xlink">
<g id="graph0" class="graph" transform="scale(1 1) rotate(0) translate(4 84)">
<title>backend::ComplexParser::specialPreOperations</title>
<!-- Node1 -->
<g id="node1" class="node">
<title>Node1</title>
<g id="a_node1"><a xlink:title=" ">
<polygon fill="#bfbfbf" stroke="black" points="370,-49.5 370,-79.5 519,-79.5 519,-49.5 370,-49.5"/>
<text text-anchor="start" x="378" y="-67.5" font-family="JetBrains Mono" font-size="10.00">backend::ComplexParser</text>
<text text-anchor="middle" x="444.5" y="-56.5" font-family="JetBrains Mono" font-size="10.00">::specialPreOperations</text>
</a>
</g>
</g>
<!-- Node2 -->
<g id="node2" class="node">
<title>Node2</title>
<g id="a_node2"><a xlink:href="classbackend_1_1_complex_parser.html#a24ff46b718bc29b91c1f9dbd63b99cb8" target="_top" xlink:title=" ">
<polygon fill="none" stroke="black" points="185,-49.5 185,-79.5 334,-79.5 334,-49.5 185,-49.5"/>
<text text-anchor="start" x="193" y="-67.5" font-family="JetBrains Mono" font-size="10.00">backend::ComplexParser</text>
<text text-anchor="middle" x="259.5" y="-56.5" font-family="JetBrains Mono" font-size="10.00">::parseCommand</text>
</a>
</g>
</g>
<!-- Node1&#45;&gt;Node2 -->
<g id="edge1" class="edge">
<title>Node1&#45;&gt;Node2</title>
<path fill="none" stroke="midnightblue" d="M359.61,-64.5C351.16,-64.5 342.62,-64.5 334.29,-64.5"/>
<polygon fill="midnightblue" stroke="midnightblue" points="359.86,-68 369.86,-64.5 359.86,-61 359.86,-68"/>
</g>
<!-- Node3 -->
<g id="node3" class="node">
<title>Node3</title>
<g id="a_node3"><a xlink:href="classbackend_1_1_complex_parser.html#ae56300ff36c91f88abddbb64f2d2f567" target="_top" xlink:title=" ">
<polygon fill="none" stroke="black" points="0,-49.5 0,-79.5 149,-79.5 149,-49.5 0,-49.5"/>
<text text-anchor="start" x="8" y="-67.5" font-family="JetBrains Mono" font-size="10.00">backend::ComplexParser</text>
<text text-anchor="middle" x="74.5" y="-56.5" font-family="JetBrains Mono" font-size="10.00">::proccessingLoop</text>
</a>
</g>
</g>
<!-- Node2&#45;&gt;Node3 -->
<g id="edge2" class="edge">
<title>Node2&#45;&gt;Node3</title>
<path fill="none" stroke="midnightblue" d="M174.61,-57.77C166.16,-57.72 157.62,-57.76 149.29,-57.86"/>
<polygon fill="midnightblue" stroke="midnightblue" points="174.83,-61.27 184.86,-57.87 174.89,-54.27 174.83,-61.27"/>
</g>
<!-- Node4 -->
<g id="node4" class="node">
<title>Node4</title>
<g id="a_node4"><a xlink:href="classbackend_1_1_root_parser.html#aa9ec5690c984c1b3a3d8dd3c1063d109" target="_top" xlink:title="Starts parsing procedure for the entire tree.">
<polygon fill="none" stroke="black" points="9,-0.5 9,-30.5 140,-30.5 140,-0.5 9,-0.5"/>
<text text-anchor="start" x="17" y="-18.5" font-family="JetBrains Mono" font-size="10.00">backend::RootParser</text>
<text text-anchor="middle" x="74.5" y="-7.5" font-family="JetBrains Mono" font-size="10.00">::startProcessing</text>
</a>
</g>
</g>
<!-- Node2&#45;&gt;Node4 -->
<g id="edge4" class="edge">
<title>Node2&#45;&gt;Node4</title>
<path fill="none" stroke="midnightblue" d="M192.21,-46.75C172.38,-41.44 150.83,-35.67 131.71,-30.55"/>
<polygon fill="midnightblue" stroke="midnightblue" points="191.54,-50.19 202.1,-49.4 193.35,-43.43 191.54,-50.19"/>
</g>
<!-- Node3&#45;&gt;Node2 -->
<g id="edge3" class="edge">
<title>Node3&#45;&gt;Node2</title>
<path fill="none" stroke="midnightblue" d="M159.54,-71.23C167.99,-71.28 176.53,-71.24 184.86,-71.13"/>
<polygon fill="midnightblue" stroke="midnightblue" points="159.32,-67.73 149.29,-71.14 159.26,-74.73 159.32,-67.73"/>
</g>
</g>
</svg>
