<?xml version="1.0" encoding="UTF-8" standalone="no"?>
<!DOCTYPE svg PUBLIC "-//W3C//DTD SVG 1.1//EN"
 "http://www.w3.org/Graphics/SVG/1.1/DTD/svg11.dtd">
<!-- Generated by graphviz version 2.48.0 (20210717.1556)
 -->
<!-- Title: bridge::TerminalSettings Pages: 1 -->
<svg width="169pt" height="452pt"
 viewBox="0.00 0.00 169.00 452.00" xmlns="http://www.w3.org/2000/svg" xmlns:xlink="http://www.w3.org/1999/xlink">
<g id="graph0" class="graph" transform="scale(1 1) rotate(0) translate(4 448)">
<title>bridge::TerminalSettings</title>
<!-- Node1 -->
<g id="node1" class="node">
<title>Node1</title>
<g id="a_node1"><a xlink:title="This class object is direct binding with terminal settings window in QML.">
<polygon fill="#bfbfbf" stroke="black" points="0,-0.5 0,-79.5 161,-79.5 161,-0.5 0,-0.5"/>
<text text-anchor="middle" x="80.5" y="-67.5" font-family="JetBrains Mono" font-size="10.00">bridge::TerminalSettings</text>
<polyline fill="none" stroke="black" points="0,-60.5 161,-60.5 "/>
<text text-anchor="start" x="8" y="-48.5" font-family="JetBrains Mono" font-size="10.00">+ dataBits</text>
<polyline fill="none" stroke="black" points="0,-41.5 161,-41.5 "/>
<text text-anchor="start" x="8" y="-29.5" font-family="JetBrains Mono" font-size="10.00">+ getDataBits()</text>
<text text-anchor="start" x="8" y="-18.5" font-family="JetBrains Mono" font-size="10.00">+ setDataBits()</text>
<text text-anchor="start" x="8" y="-7.5" font-family="JetBrains Mono" font-size="10.00"># prepareSettings()</text>
</a>
</g>
</g>
<!-- Node2 -->
<g id="node2" class="node">
<title>Node2</title>
<g id="a_node2"><a xlink:href="classbridge_1_1_settings.html" target="_top" xlink:title="This class is common base for other settings classes.">
<polygon fill="none" stroke="black" points="15,-116.5 15,-349.5 146,-349.5 146,-116.5 15,-116.5"/>
<text text-anchor="middle" x="80.5" y="-337.5" font-family="JetBrains Mono" font-size="10.00">bridge::Settings</text>
<polyline fill="none" stroke="black" points="15,-330.5 146,-330.5 "/>
<text text-anchor="start" x="23" y="-318.5" font-family="JetBrains Mono" font-size="10.00">+ parity</text>
<text text-anchor="start" x="23" y="-307.5" font-family="JetBrains Mono" font-size="10.00">+ stopBits</text>
<text text-anchor="start" x="23" y="-296.5" font-family="JetBrains Mono" font-size="10.00">+ baudRate</text>
<text text-anchor="start" x="23" y="-285.5" font-family="JetBrains Mono" font-size="10.00">+ flowControl</text>
<text text-anchor="start" x="23" y="-274.5" font-family="JetBrains Mono" font-size="10.00">+ portNames</text>
<polyline fill="none" stroke="black" points="15,-267.5 146,-267.5 "/>
<text text-anchor="start" x="23" y="-255.5" font-family="JetBrains Mono" font-size="10.00">+ Settings()</text>
<text text-anchor="start" x="23" y="-244.5" font-family="JetBrains Mono" font-size="10.00">+ getParity()</text>
<text text-anchor="start" x="23" y="-233.5" font-family="JetBrains Mono" font-size="10.00">+ getStopBits()</text>
<text text-anchor="start" x="23" y="-222.5" font-family="JetBrains Mono" font-size="10.00">+ getBaudRate()</text>
<text text-anchor="start" x="23" y="-211.5" font-family="JetBrains Mono" font-size="10.00">+ getFlowControl()</text>
<text text-anchor="start" x="23" y="-200.5" font-family="JetBrains Mono" font-size="10.00">+ getPortNames()</text>
<text text-anchor="start" x="23" y="-189.5" font-family="JetBrains Mono" font-size="10.00">+ setParity()</text>
<text text-anchor="start" x="23" y="-178.5" font-family="JetBrains Mono" font-size="10.00">+ setStopBits()</text>
<text text-anchor="start" x="23" y="-167.5" font-family="JetBrains Mono" font-size="10.00">+ setBaudRate()</text>
<text text-anchor="start" x="23" y="-156.5" font-family="JetBrains Mono" font-size="10.00">+ setPortNames()</text>
<text text-anchor="start" x="23" y="-145.5" font-family="JetBrains Mono" font-size="10.00">+ setFlowControl()</text>
<text text-anchor="start" x="23" y="-134.5" font-family="JetBrains Mono" font-size="10.00">+ sendSettings()</text>
<text text-anchor="start" x="23" y="-123.5" font-family="JetBrains Mono" font-size="10.00"># prepareSettings()</text>
</a>
</g>
</g>
<!-- Node2&#45;&gt;Node1 -->
<g id="edge1" class="edge">
<title>Node2&#45;&gt;Node1</title>
<path fill="none" stroke="midnightblue" d="M80.5,-106.4C80.5,-96.87 80.5,-87.77 80.5,-79.57"/>
<polygon fill="none" stroke="midnightblue" points="77,-106.49 80.5,-116.49 84,-106.49 77,-106.49"/>
</g>
<!-- Node3 -->
<g id="node3" class="node">
<title>Node3</title>
<g id="a_node3"><a xlink:title=" ">
<polygon fill="none" stroke="#bfbfbf" points="51,-386.5 51,-443.5 110,-443.5 110,-386.5 51,-386.5"/>
<text text-anchor="middle" x="80.5" y="-431.5" font-family="JetBrains Mono" font-size="10.00">QObject</text>
<polyline fill="none" stroke="#bfbfbf" points="51,-424.5 110,-424.5 "/>
<text text-anchor="middle" x="80.5" y="-412.5" font-family="JetBrains Mono" font-size="10.00"> </text>
<polyline fill="none" stroke="#bfbfbf" points="51,-405.5 110,-405.5 "/>
<text text-anchor="middle" x="80.5" y="-393.5" font-family="JetBrains Mono" font-size="10.00"> </text>
</a>
</g>
</g>
<!-- Node3&#45;&gt;Node2 -->
<g id="edge2" class="edge">
<title>Node3&#45;&gt;Node2</title>
<path fill="none" stroke="midnightblue" d="M80.5,-376.14C80.5,-368.03 80.5,-359.05 80.5,-349.67"/>
<polygon fill="none" stroke="midnightblue" points="77,-376.27 80.5,-386.27 84,-376.27 77,-376.27"/>
</g>
</g>
</svg>
