<?xml version="1.0" encoding="UTF-8" standalone="no"?>
<!DOCTYPE svg PUBLIC "-//W3C//DTD SVG 1.1//EN"
 "http://www.w3.org/Graphics/SVG/1.1/DTD/svg11.dtd">
<!-- Generated by graphviz version 2.48.0 (20210717.1556)
 -->
<!-- Title: interface::ByteBuffer::getByte Pages: 1 -->
<svg width="730pt" height="284pt"
 viewBox="0.00 0.00 730.00 284.00" xmlns="http://www.w3.org/2000/svg" xmlns:xlink="http://www.w3.org/1999/xlink">
<g id="graph0" class="graph" transform="scale(1 1) rotate(0) translate(4 280)">
<title>interface::ByteBuffer::getByte</title>
<!-- Node1 -->
<g id="node1" class="node">
<title>Node1</title>
<g id="a_node1"><a xlink:title=" ">
<polygon fill="#bfbfbf" stroke="black" points="579,-122.5 579,-152.5 722,-152.5 722,-122.5 579,-122.5"/>
<text text-anchor="start" x="587" y="-140.5" font-family="JetBrains Mono" font-size="10.00">interface::ByteBuffer</text>
<text text-anchor="middle" x="650.5" y="-129.5" font-family="JetBrains Mono" font-size="10.00">::getByte</text>
</a>
</g>
</g>
<!-- Node2 -->
<g id="node2" class="node">
<title>Node2</title>
<g id="a_node2"><a xlink:href="classbackend_1_1_name_parser.html#a0bab4d9c4ad38901431388f8287dcde4" target="_top" xlink:title=" ">
<polygon fill="none" stroke="black" points="382,-245.5 382,-275.5 513,-275.5 513,-245.5 382,-245.5"/>
<text text-anchor="start" x="390" y="-263.5" font-family="JetBrains Mono" font-size="10.00">backend::NameParser</text>
<text text-anchor="middle" x="447.5" y="-252.5" font-family="JetBrains Mono" font-size="10.00">::parseCommand</text>
</a>
</g>
</g>
<!-- Node1&#45;&gt;Node2 -->
<g id="edge1" class="edge">
<title>Node1&#45;&gt;Node2</title>
<path fill="none" stroke="midnightblue" d="M630.88,-160.54C611.33,-183.2 578.54,-217.14 543,-236.5 533.78,-241.52 523.49,-245.52 513.18,-248.69"/>
<polygon fill="midnightblue" stroke="midnightblue" points="633.68,-162.65 637.46,-152.75 628.34,-158.13 633.68,-162.65"/>
</g>
<!-- Node3 -->
<g id="node3" class="node">
<title>Node3</title>
<g id="a_node3"><a xlink:href="classbackend_1_1_type_descriptor_parser.html#ac4a48d12b57d9328586eb496de32fd9a" target="_top" xlink:title=" ">
<polygon fill="none" stroke="black" points="352,-196.5 352,-226.5 543,-226.5 543,-196.5 352,-196.5"/>
<text text-anchor="start" x="360" y="-214.5" font-family="JetBrains Mono" font-size="10.00">backend::TypeDescriptorParser</text>
<text text-anchor="middle" x="447.5" y="-203.5" font-family="JetBrains Mono" font-size="10.00">::parseCommand</text>
</a>
</g>
</g>
<!-- Node1&#45;&gt;Node3 -->
<g id="edge2" class="edge">
<title>Node1&#45;&gt;Node3</title>
<path fill="none" stroke="midnightblue" d="M612.08,-157.21C591.99,-167.24 566.57,-179.06 543,-187.5 533.92,-190.75 524.19,-193.75 514.56,-196.44"/>
<polygon fill="midnightblue" stroke="midnightblue" points="613.85,-160.23 621.2,-152.6 610.69,-153.99 613.85,-160.23"/>
</g>
<!-- Node4 -->
<g id="node4" class="node">
<title>Node4</title>
<g id="a_node4"><a xlink:href="classbackend_1_1_test_result_parser.html#aa7e68b4a0fbd612ac1535a97625f824a" target="_top" xlink:title=" ">
<polygon fill="none" stroke="black" points="364,-147.5 364,-177.5 531,-177.5 531,-147.5 364,-147.5"/>
<text text-anchor="start" x="372" y="-165.5" font-family="JetBrains Mono" font-size="10.00">backend::TestResultParser</text>
<text text-anchor="middle" x="447.5" y="-154.5" font-family="JetBrains Mono" font-size="10.00">::parseCommand</text>
</a>
</g>
</g>
<!-- Node1&#45;&gt;Node4 -->
<g id="edge3" class="edge">
<title>Node1&#45;&gt;Node4</title>
<path fill="none" stroke="midnightblue" d="M568.69,-147.55C556.38,-149.08 543.66,-150.66 531.31,-152.2"/>
<polygon fill="midnightblue" stroke="midnightblue" points="569.43,-150.99 578.92,-146.28 568.56,-144.04 569.43,-150.99"/>
</g>
<!-- Node5 -->
<g id="node5" class="node">
<title>Node5</title>
<g id="a_node5"><a xlink:href="classbackend_1_1_value_parser.html#a30fb2da048b261d72a5db26ccfe5d4df" target="_top" xlink:title=" ">
<polygon fill="none" stroke="black" points="379,-98.5 379,-128.5 516,-128.5 516,-98.5 379,-98.5"/>
<text text-anchor="start" x="387" y="-116.5" font-family="JetBrains Mono" font-size="10.00">backend::ValueParser</text>
<text text-anchor="middle" x="447.5" y="-105.5" font-family="JetBrains Mono" font-size="10.00">::parseCommand</text>
</a>
</g>
</g>
<!-- Node1&#45;&gt;Node5 -->
<g id="edge4" class="edge">
<title>Node1&#45;&gt;Node5</title>
<path fill="none" stroke="midnightblue" d="M568.77,-127.86C551.34,-125.78 533.08,-123.6 516.21,-121.58"/>
<polygon fill="midnightblue" stroke="midnightblue" points="568.57,-131.36 578.92,-129.07 569.4,-124.41 568.57,-131.36"/>
</g>
<!-- Node6 -->
<g id="node6" class="node">
<title>Node6</title>
<g id="a_node6"><a xlink:href="classbackend_1_1_complex_parser.html#ae56300ff36c91f88abddbb64f2d2f567" target="_top" xlink:title=" ">
<polygon fill="none" stroke="black" points="373,-49.5 373,-79.5 522,-79.5 522,-49.5 373,-49.5"/>
<text text-anchor="start" x="381" y="-67.5" font-family="JetBrains Mono" font-size="10.00">backend::ComplexParser</text>
<text text-anchor="middle" x="447.5" y="-56.5" font-family="JetBrains Mono" font-size="10.00">::proccessingLoop</text>
</a>
</g>
</g>
<!-- Node1&#45;&gt;Node6 -->
<g id="edge5" class="edge">
<title>Node1&#45;&gt;Node6</title>
<path fill="none" stroke="midnightblue" d="M610.68,-118.14C590.77,-108.69 565.93,-97.64 543,-89.5 532.84,-85.9 521.91,-82.54 511.21,-79.53"/>
<polygon fill="midnightblue" stroke="midnightblue" points="609.22,-121.32 619.74,-122.49 612.24,-115.01 609.22,-121.32"/>
</g>
<!-- Node9 -->
<g id="node9" class="node">
<title>Node9</title>
<g id="a_node9"><a xlink:href="classbackend_1_1_test_case_parser.html#a396724f06606abfeee74ae22a83dc252" target="_top" xlink:title=" ">
<polygon fill="none" stroke="black" points="370,-0.5 370,-30.5 525,-30.5 525,-0.5 370,-0.5"/>
<text text-anchor="start" x="378" y="-18.5" font-family="JetBrains Mono" font-size="10.00">backend::TestCaseParser</text>
<text text-anchor="middle" x="447.5" y="-7.5" font-family="JetBrains Mono" font-size="10.00">::specialPreOperations</text>
</a>
</g>
</g>
<!-- Node1&#45;&gt;Node9 -->
<g id="edge9" class="edge">
<title>Node1&#45;&gt;Node9</title>
<path fill="none" stroke="midnightblue" d="M630.41,-114.64C610.72,-92.51 578.01,-59.57 543,-40.5 536,-36.69 528.38,-33.43 520.61,-30.65"/>
<polygon fill="midnightblue" stroke="midnightblue" points="627.85,-117.03 637.06,-122.26 633.13,-112.43 627.85,-117.03"/>
</g>
<!-- Node7 -->
<g id="node7" class="node">
<title>Node7</title>
<g id="a_node7"><a xlink:href="classbackend_1_1_complex_parser.html#a24ff46b718bc29b91c1f9dbd63b99cb8" target="_top" xlink:title=" ">
<polygon fill="none" stroke="black" points="167,-49.5 167,-79.5 316,-79.5 316,-49.5 167,-49.5"/>
<text text-anchor="start" x="175" y="-67.5" font-family="JetBrains Mono" font-size="10.00">backend::ComplexParser</text>
<text text-anchor="middle" x="241.5" y="-56.5" font-family="JetBrains Mono" font-size="10.00">::parseCommand</text>
</a>
</g>
</g>
<!-- Node6&#45;&gt;Node7 -->
<g id="edge6" class="edge">
<title>Node6&#45;&gt;Node7</title>
<path fill="none" stroke="midnightblue" d="M362.77,-57.85C347.28,-57.68 331.2,-57.73 316.04,-57.99"/>
<polygon fill="midnightblue" stroke="midnightblue" points="362.8,-61.35 372.85,-57.99 362.9,-54.35 362.8,-61.35"/>
</g>
<!-- Node7&#45;&gt;Node6 -->
<g id="edge7" class="edge">
<title>Node7&#45;&gt;Node6</title>
<path fill="none" stroke="midnightblue" d="M326.12,-71.15C341.61,-71.32 357.68,-71.27 372.85,-71.01"/>
<polygon fill="midnightblue" stroke="midnightblue" points="326.09,-67.65 316.04,-71.01 325.99,-74.65 326.09,-67.65"/>
</g>
<!-- Node8 -->
<g id="node8" class="node">
<title>Node8</title>
<g id="a_node8"><a xlink:href="classbackend_1_1_root_parser.html#aa9ec5690c984c1b3a3d8dd3c1063d109" target="_top" xlink:title="Starts parsing procedure for the entire tree.">
<polygon fill="none" stroke="black" points="0,-49.5 0,-79.5 131,-79.5 131,-49.5 0,-49.5"/>
<text text-anchor="start" x="8" y="-67.5" font-family="JetBrains Mono" font-size="10.00">backend::RootParser</text>
<text text-anchor="middle" x="65.5" y="-56.5" font-family="JetBrains Mono" font-size="10.00">::startProcessing</text>
</a>
</g>
</g>
<!-- Node7&#45;&gt;Node8 -->
<g id="edge8" class="edge">
<title>Node7&#45;&gt;Node8</title>
<path fill="none" stroke="midnightblue" d="M156.88,-64.5C148.26,-64.5 139.6,-64.5 131.23,-64.5"/>
<polygon fill="midnightblue" stroke="midnightblue" points="156.96,-68 166.96,-64.5 156.96,-61 156.96,-68"/>
</g>
</g>
</svg>
