<?xml version="1.0" encoding="UTF-8" standalone="no"?>
<!DOCTYPE svg PUBLIC "-//W3C//DTD SVG 1.1//EN"
 "http://www.w3.org/Graphics/SVG/1.1/DTD/svg11.dtd">
<!-- Generated by graphviz version 2.48.0 (20210717.1556)
 -->
<!-- Title: backend::ByteBuffer Pages: 1 -->
<svg width="315pt" height="419pt"
 viewBox="0.00 0.00 315.00 419.00" xmlns="http://www.w3.org/2000/svg" xmlns:xlink="http://www.w3.org/1999/xlink">
<g id="graph0" class="graph" transform="scale(1 1) rotate(0) translate(4 415)">
<title>backend::ByteBuffer</title>
<!-- Node1 -->
<g id="node1" class="node">
<title>Node1</title>
<g id="a_node1"><a xlink:title="Objects of this class are buffers which can be shared and modified by several objects.">
<polygon fill="#bfbfbf" stroke="black" points="86,-0.5 86,-145.5 217,-145.5 217,-0.5 86,-0.5"/>
<text text-anchor="middle" x="151.5" y="-133.5" font-family="JetBrains Mono" font-size="10.00">backend::ByteBuffer</text>
<polyline fill="none" stroke="black" points="86,-126.5 217,-126.5 "/>
<text text-anchor="middle" x="151.5" y="-114.5" font-family="JetBrains Mono" font-size="10.00"> </text>
<polyline fill="none" stroke="black" points="86,-107.5 217,-107.5 "/>
<text text-anchor="start" x="94" y="-95.5" font-family="JetBrains Mono" font-size="10.00">+ ByteBuffer()</text>
<text text-anchor="start" x="94" y="-84.5" font-family="JetBrains Mono" font-size="10.00">+ ~ByteBuffer()</text>
<text text-anchor="start" x="94" y="-73.5" font-family="JetBrains Mono" font-size="10.00">+ appendBytes()</text>
<text text-anchor="start" x="94" y="-62.5" font-family="JetBrains Mono" font-size="10.00">+ appendByte()</text>
<text text-anchor="start" x="94" y="-51.5" font-family="JetBrains Mono" font-size="10.00">+ getAllBytes()</text>
<text text-anchor="start" x="94" y="-40.5" font-family="JetBrains Mono" font-size="10.00">+ getBytes()</text>
<text text-anchor="start" x="94" y="-29.5" font-family="JetBrains Mono" font-size="10.00">+ getByte()</text>
<text text-anchor="start" x="94" y="-18.5" font-family="JetBrains Mono" font-size="10.00">+ isEmpty()</text>
<text text-anchor="start" x="94" y="-7.5" font-family="JetBrains Mono" font-size="10.00">+ size()</text>
</a>
</g>
</g>
<!-- Node2 -->
<g id="node2" class="node">
<title>Node2</title>
<g id="a_node2"><a xlink:href="classinterface_1_1_byte_buffer.html" target="_top" xlink:title="ByteBuffer common interface.">
<polygon fill="none" stroke="black" points="0,-182.5 0,-316.5 143,-316.5 143,-182.5 0,-182.5"/>
<text text-anchor="middle" x="71.5" y="-304.5" font-family="JetBrains Mono" font-size="10.00">interface::ByteBuffer</text>
<polyline fill="none" stroke="black" points="0,-297.5 143,-297.5 "/>
<text text-anchor="middle" x="71.5" y="-285.5" font-family="JetBrains Mono" font-size="10.00"> </text>
<polyline fill="none" stroke="black" points="0,-278.5 143,-278.5 "/>
<text text-anchor="start" x="8" y="-266.5" font-family="JetBrains Mono" font-size="10.00">+ ~ByteBuffer()</text>
<text text-anchor="start" x="8" y="-255.5" font-family="JetBrains Mono" font-size="10.00">+ appendBytes()</text>
<text text-anchor="start" x="8" y="-244.5" font-family="JetBrains Mono" font-size="10.00">+ appendByte()</text>
<text text-anchor="start" x="8" y="-233.5" font-family="JetBrains Mono" font-size="10.00">+ getAllBytes()</text>
<text text-anchor="start" x="8" y="-222.5" font-family="JetBrains Mono" font-size="10.00">+ getBytes()</text>
<text text-anchor="start" x="8" y="-211.5" font-family="JetBrains Mono" font-size="10.00">+ getByte()</text>
<text text-anchor="start" x="8" y="-200.5" font-family="JetBrains Mono" font-size="10.00">+ isEmpty()</text>
<text text-anchor="start" x="8" y="-189.5" font-family="JetBrains Mono" font-size="10.00">+ size()</text>
</a>
</g>
</g>
<!-- Node2&#45;&gt;Node1 -->
<g id="edge1" class="edge">
<title>Node2&#45;&gt;Node1</title>
<path fill="none" stroke="midnightblue" d="M106.25,-172.7C110.39,-163.67 114.6,-154.48 118.71,-145.51"/>
<polygon fill="none" stroke="midnightblue" points="102.96,-171.48 101.97,-182.03 109.32,-174.4 102.96,-171.48"/>
</g>
<!-- Node3 -->
<g id="node3" class="node">
<title>Node3</title>
<g id="a_node3"><a xlink:title=" ">
<polygon fill="none" stroke="#bfbfbf" points="42,-353.5 42,-410.5 101,-410.5 101,-353.5 42,-353.5"/>
<text text-anchor="middle" x="71.5" y="-398.5" font-family="JetBrains Mono" font-size="10.00">QObject</text>
<polyline fill="none" stroke="#bfbfbf" points="42,-391.5 101,-391.5 "/>
<text text-anchor="middle" x="71.5" y="-379.5" font-family="JetBrains Mono" font-size="10.00"> </text>
<polyline fill="none" stroke="#bfbfbf" points="42,-372.5 101,-372.5 "/>
<text text-anchor="middle" x="71.5" y="-360.5" font-family="JetBrains Mono" font-size="10.00"> </text>
</a>
</g>
</g>
<!-- Node3&#45;&gt;Node2 -->
<g id="edge2" class="edge">
<title>Node3&#45;&gt;Node2</title>
<path fill="none" stroke="midnightblue" d="M71.5,-343.16C71.5,-334.78 71.5,-325.67 71.5,-316.53"/>
<polygon fill="none" stroke="midnightblue" points="68,-343.32 71.5,-353.32 75,-343.32 68,-343.32"/>
</g>
<!-- Node4 -->
<g id="node4" class="node">
<title>Node4</title>
<g id="a_node4"><a xlink:href="classglobal_1_1_program_object.html" target="_top" xlink:title="This class is used to provide basic program functionalites for objects.">
<polygon fill="none" stroke="black" points="161,-221 161,-278 304,-278 304,-221 161,-221"/>
<text text-anchor="middle" x="232.5" y="-266" font-family="JetBrains Mono" font-size="10.00">global::ProgramObject</text>
<polyline fill="none" stroke="black" points="161,-259 304,-259 "/>
<text text-anchor="middle" x="232.5" y="-247" font-family="JetBrains Mono" font-size="10.00"> </text>
<polyline fill="none" stroke="black" points="161,-240 304,-240 "/>
<text text-anchor="middle" x="232.5" y="-228" font-family="JetBrains Mono" font-size="10.00"> </text>
</a>
</g>
</g>
<!-- Node4&#45;&gt;Node1 -->
<g id="edge3" class="edge">
<title>Node4&#45;&gt;Node1</title>
<path fill="none" stroke="midnightblue" d="M215.36,-211.57C206.45,-192.37 195.24,-168.24 184.72,-145.56"/>
<polygon fill="none" stroke="midnightblue" points="212.28,-213.25 219.67,-220.85 218.63,-210.31 212.28,-213.25"/>
</g>
<!-- Node5 -->
<g id="node5" class="node">
<title>Node5</title>
<g id="a_node5"><a xlink:href="classglobal_1_1_throwing_object.html" target="_top" xlink:title="This is base class which allows us to check statements at runtime.">
<polygon fill="none" stroke="black" points="158,-353.5 158,-410.5 307,-410.5 307,-353.5 158,-353.5"/>
<text text-anchor="middle" x="232.5" y="-398.5" font-family="JetBrains Mono" font-size="10.00">global::ThrowingObject</text>
<polyline fill="none" stroke="black" points="158,-391.5 307,-391.5 "/>
<text text-anchor="middle" x="232.5" y="-379.5" font-family="JetBrains Mono" font-size="10.00"> </text>
<polyline fill="none" stroke="black" points="158,-372.5 307,-372.5 "/>
<text text-anchor="start" x="166" y="-360.5" font-family="JetBrains Mono" font-size="10.00">+ throwIf()</text>
</a>
</g>
</g>
<!-- Node5&#45;&gt;Node4 -->
<g id="edge4" class="edge">
<title>Node5&#45;&gt;Node4</title>
<path fill="none" stroke="midnightblue" d="M232.5,-343.23C232.5,-322.43 232.5,-297.07 232.5,-278.14"/>
<polygon fill="none" stroke="midnightblue" points="229,-343.32 232.5,-353.32 236,-343.32 229,-343.32"/>
</g>
</g>
</svg>
