<?xml version="1.0" encoding="UTF-8" standalone="no"?>
<!DOCTYPE svg PUBLIC "-//W3C//DTD SVG 1.1//EN"
 "http://www.w3.org/Graphics/SVG/1.1/DTD/svg11.dtd">
<!-- Generated by graphviz version 2.48.0 (20210717.1556)
 -->
<!-- Title: backend::ComplexParser Pages: 1 -->
<svg width="497pt" height="656pt"
 viewBox="0.00 0.00 497.00 656.00" xmlns="http://www.w3.org/2000/svg" xmlns:xlink="http://www.w3.org/1999/xlink">
<g id="graph0" class="graph" transform="scale(1 1) rotate(0) translate(4 652)">
<title>backend::ComplexParser</title>
<!-- Node1 -->
<g id="node1" class="node">
<title>Node1</title>
<g id="a_node1"><a xlink:title="This class provides composite objects which can have children.">
<polygon fill="#bfbfbf" stroke="black" points="146,-127.5 146,-283.5 313,-283.5 313,-127.5 146,-127.5"/>
<text text-anchor="middle" x="229.5" y="-271.5" font-family="JetBrains Mono" font-size="10.00">backend::ComplexParser</text>
<polyline fill="none" stroke="black" points="146,-264.5 313,-264.5 "/>
<text text-anchor="start" x="154" y="-252.5" font-family="JetBrains Mono" font-size="10.00"># children_</text>
<text text-anchor="start" x="154" y="-241.5" font-family="JetBrains Mono" font-size="10.00"># commands_count_</text>
<polyline fill="none" stroke="black" points="146,-234.5 313,-234.5 "/>
<text text-anchor="start" x="154" y="-222.5" font-family="JetBrains Mono" font-size="10.00">+ ComplexParser()</text>
<text text-anchor="start" x="154" y="-211.5" font-family="JetBrains Mono" font-size="10.00">+ isComposite()</text>
<text text-anchor="start" x="154" y="-200.5" font-family="JetBrains Mono" font-size="10.00">+ addChild()</text>
<text text-anchor="start" x="154" y="-189.5" font-family="JetBrains Mono" font-size="10.00">+ setBuffer()</text>
<text text-anchor="start" x="154" y="-178.5" font-family="JetBrains Mono" font-size="10.00"># checkCode()</text>
<text text-anchor="start" x="154" y="-167.5" font-family="JetBrains Mono" font-size="10.00"># proccessingLoop()</text>
<text text-anchor="start" x="154" y="-156.5" font-family="JetBrains Mono" font-size="10.00"># parseCommand()</text>
<text text-anchor="start" x="154" y="-145.5" font-family="JetBrains Mono" font-size="10.00"># specialPreOperations()</text>
<text text-anchor="start" x="154" y="-134.5" font-family="JetBrains Mono" font-size="10.00"># specialPostOperations()</text>
</a>
</g>
</g>
<!-- Node6 -->
<g id="node6" class="node">
<title>Node6</title>
<g id="a_node6"><a xlink:href="classbackend_1_1_root_parser.html" target="_top" xlink:title="Root of the processing tree.">
<polygon fill="none" stroke="black" points="0,-0.5 0,-90.5 131,-90.5 131,-0.5 0,-0.5"/>
<text text-anchor="middle" x="65.5" y="-78.5" font-family="JetBrains Mono" font-size="10.00">backend::RootParser</text>
<polyline fill="none" stroke="black" points="0,-71.5 131,-71.5 "/>
<text text-anchor="middle" x="65.5" y="-59.5" font-family="JetBrains Mono" font-size="10.00"> </text>
<polyline fill="none" stroke="black" points="0,-52.5 131,-52.5 "/>
<text text-anchor="start" x="8" y="-40.5" font-family="JetBrains Mono" font-size="10.00">+ RootParser()</text>
<text text-anchor="start" x="8" y="-29.5" font-family="JetBrains Mono" font-size="10.00">+ createPackage()</text>
<text text-anchor="start" x="8" y="-18.5" font-family="JetBrains Mono" font-size="10.00">+ getPackage()</text>
<text text-anchor="start" x="8" y="-7.5" font-family="JetBrains Mono" font-size="10.00">+ startProcessing()</text>
</a>
</g>
</g>
<!-- Node1&#45;&gt;Node6 -->
<g id="edge5" class="edge">
<title>Node1&#45;&gt;Node6</title>
<path fill="none" stroke="midnightblue" d="M142.11,-120.3C131.55,-110.14 121.12,-100.09 111.51,-90.83"/>
<polygon fill="none" stroke="midnightblue" points="139.79,-122.93 149.42,-127.35 144.65,-117.89 139.79,-122.93"/>
</g>
<!-- Node7 -->
<g id="node7" class="node">
<title>Node7</title>
<g id="a_node7"><a xlink:href="classbackend_1_1_test_case_parser.html" target="_top" xlink:title="Parses all test case. It receives commands from buffer and processes it. Recognizes commands from Tes...">
<polygon fill="none" stroke="black" points="149,-6 149,-85 310,-85 310,-6 149,-6"/>
<text text-anchor="middle" x="229.5" y="-73" font-family="JetBrains Mono" font-size="10.00">backend::TestCaseParser</text>
<polyline fill="none" stroke="black" points="149,-66 310,-66 "/>
<text text-anchor="middle" x="229.5" y="-54" font-family="JetBrains Mono" font-size="10.00"> </text>
<polyline fill="none" stroke="black" points="149,-47 310,-47 "/>
<text text-anchor="start" x="157" y="-35" font-family="JetBrains Mono" font-size="10.00">+ TestCaseParser()</text>
<text text-anchor="start" x="157" y="-24" font-family="JetBrains Mono" font-size="10.00"># createPackage()</text>
<text text-anchor="start" x="157" y="-13" font-family="JetBrains Mono" font-size="10.00"># specialPreOperations()</text>
</a>
</g>
</g>
<!-- Node1&#45;&gt;Node7 -->
<g id="edge6" class="edge">
<title>Node1&#45;&gt;Node7</title>
<path fill="none" stroke="midnightblue" d="M229.5,-117.12C229.5,-106.02 229.5,-95.14 229.5,-85.37"/>
<polygon fill="none" stroke="midnightblue" points="226,-117.35 229.5,-127.35 233,-117.35 226,-117.35"/>
</g>
<!-- Node8 -->
<g id="node8" class="node">
<title>Node8</title>
<g id="a_node8"><a xlink:href="classbackend_1_1_unit_test_parser.html" target="_top" xlink:title="Parses all unit test It receives commands from buffer and processes it. Recognizes commands from Unit...">
<polygon fill="none" stroke="black" points="328,-11.5 328,-79.5 489,-79.5 489,-11.5 328,-11.5"/>
<text text-anchor="middle" x="408.5" y="-67.5" font-family="JetBrains Mono" font-size="10.00">backend::UnitTestParser</text>
<polyline fill="none" stroke="black" points="328,-60.5 489,-60.5 "/>
<text text-anchor="middle" x="408.5" y="-48.5" font-family="JetBrains Mono" font-size="10.00"> </text>
<polyline fill="none" stroke="black" points="328,-41.5 489,-41.5 "/>
<text text-anchor="start" x="336" y="-29.5" font-family="JetBrains Mono" font-size="10.00">+ UnitTestParser()</text>
<text text-anchor="start" x="336" y="-18.5" font-family="JetBrains Mono" font-size="10.00"># specialPreOperations()</text>
</a>
</g>
</g>
<!-- Node1&#45;&gt;Node8 -->
<g id="edge7" class="edge">
<title>Node1&#45;&gt;Node8</title>
<path fill="none" stroke="midnightblue" d="M320.82,-123.89C338.52,-108.27 356.13,-92.72 370.88,-79.71"/>
<polygon fill="none" stroke="midnightblue" points="318.42,-121.35 313.23,-130.59 323.05,-126.6 318.42,-121.35"/>
</g>
<!-- Node2 -->
<g id="node2" class="node">
<title>Node2</title>
<g id="a_node2"><a xlink:href="classbackend_1_1_parser_component.html" target="_top" xlink:title="This is the base class for all parsers in the parsing tree.">
<polygon fill="none" stroke="black" points="62,-320.5 62,-465.5 223,-465.5 223,-320.5 62,-320.5"/>
<text text-anchor="middle" x="142.5" y="-453.5" font-family="JetBrains Mono" font-size="10.00">backend::ParserComponent</text>
<polyline fill="none" stroke="black" points="62,-446.5 223,-446.5 "/>
<text text-anchor="start" x="70" y="-434.5" font-family="JetBrains Mono" font-size="10.00"># parent_</text>
<text text-anchor="start" x="70" y="-423.5" font-family="JetBrains Mono" font-size="10.00"># buffer_</text>
<text text-anchor="start" x="70" y="-412.5" font-family="JetBrains Mono" font-size="10.00"># package_</text>
<text text-anchor="start" x="70" y="-401.5" font-family="JetBrains Mono" font-size="10.00"># current_type_</text>
<polyline fill="none" stroke="black" points="62,-394.5 223,-394.5 "/>
<text text-anchor="start" x="70" y="-382.5" font-family="JetBrains Mono" font-size="10.00">+ getParent()</text>
<text text-anchor="start" x="70" y="-371.5" font-family="JetBrains Mono" font-size="10.00">+ setParent()</text>
<text text-anchor="start" x="70" y="-360.5" font-family="JetBrains Mono" font-size="10.00">+ addChild()</text>
<text text-anchor="start" x="70" y="-349.5" font-family="JetBrains Mono" font-size="10.00">+ isComposite()</text>
<text text-anchor="start" x="70" y="-338.5" font-family="JetBrains Mono" font-size="10.00">+ setBuffer()</text>
<text text-anchor="start" x="70" y="-327.5" font-family="JetBrains Mono" font-size="10.00"># createPackage()</text>
</a>
</g>
</g>
<!-- Node2&#45;&gt;Node1 -->
<g id="edge1" class="edge">
<title>Node2&#45;&gt;Node1</title>
<path fill="none" stroke="midnightblue" d="M180.41,-311.18C184.71,-302.01 189.08,-292.68 193.36,-283.56"/>
<polygon fill="none" stroke="midnightblue" points="177.21,-309.74 176.14,-320.28 183.55,-312.71 177.21,-309.74"/>
</g>
<!-- Node3 -->
<g id="node3" class="node">
<title>Node3</title>
<g id="a_node3"><a xlink:href="classinterface_1_1_parser_component.html" target="_top" xlink:title="ParserComponent common interface.">
<polygon fill="none" stroke="black" points="54,-502.5 54,-647.5 227,-647.5 227,-502.5 54,-502.5"/>
<text text-anchor="middle" x="140.5" y="-635.5" font-family="JetBrains Mono" font-size="10.00">interface::ParserComponent</text>
<polyline fill="none" stroke="black" points="54,-628.5 227,-628.5 "/>
<text text-anchor="middle" x="140.5" y="-616.5" font-family="JetBrains Mono" font-size="10.00"> </text>
<polyline fill="none" stroke="black" points="54,-609.5 227,-609.5 "/>
<text text-anchor="start" x="62" y="-597.5" font-family="JetBrains Mono" font-size="10.00">+ getParent()</text>
<text text-anchor="start" x="62" y="-586.5" font-family="JetBrains Mono" font-size="10.00">+ setParent()</text>
<text text-anchor="start" x="62" y="-575.5" font-family="JetBrains Mono" font-size="10.00">+ addChild()</text>
<text text-anchor="start" x="62" y="-564.5" font-family="JetBrains Mono" font-size="10.00">+ isComposite()</text>
<text text-anchor="start" x="62" y="-553.5" font-family="JetBrains Mono" font-size="10.00">+ setBuffer()</text>
<text text-anchor="start" x="62" y="-542.5" font-family="JetBrains Mono" font-size="10.00">+ parseCommand()</text>
<text text-anchor="start" x="62" y="-531.5" font-family="JetBrains Mono" font-size="10.00">+ createPackage()</text>
<text text-anchor="start" x="62" y="-520.5" font-family="JetBrains Mono" font-size="10.00">+ getPackage()</text>
<text text-anchor="start" x="62" y="-509.5" font-family="JetBrains Mono" font-size="10.00">+ startProcessing()</text>
</a>
</g>
</g>
<!-- Node3&#45;&gt;Node2 -->
<g id="edge2" class="edge">
<title>Node3&#45;&gt;Node2</title>
<path fill="none" stroke="midnightblue" d="M141.41,-492.08C141.51,-483.28 141.61,-474.37 141.7,-465.71"/>
<polygon fill="none" stroke="midnightblue" points="137.91,-492.3 141.3,-502.34 144.91,-492.38 137.91,-492.3"/>
</g>
<!-- Node4 -->
<g id="node4" class="node">
<title>Node4</title>
<g id="a_node4"><a xlink:href="classglobal_1_1_program_object.html" target="_top" xlink:title="This class is used to provide basic program functionalites for objects.">
<polygon fill="none" stroke="black" points="245,-364.5 245,-421.5 388,-421.5 388,-364.5 245,-364.5"/>
<text text-anchor="middle" x="316.5" y="-409.5" font-family="JetBrains Mono" font-size="10.00">global::ProgramObject</text>
<polyline fill="none" stroke="black" points="245,-402.5 388,-402.5 "/>
<text text-anchor="middle" x="316.5" y="-390.5" font-family="JetBrains Mono" font-size="10.00"> </text>
<polyline fill="none" stroke="black" points="245,-383.5 388,-383.5 "/>
<text text-anchor="middle" x="316.5" y="-371.5" font-family="JetBrains Mono" font-size="10.00"> </text>
</a>
</g>
</g>
<!-- Node4&#45;&gt;Node1 -->
<g id="edge3" class="edge">
<title>Node4&#45;&gt;Node1</title>
<path fill="none" stroke="midnightblue" d="M299.14,-354.99C289.57,-334.59 277.32,-308.47 265.77,-283.83"/>
<polygon fill="none" stroke="midnightblue" points="296.06,-356.66 303.48,-364.23 302.4,-353.69 296.06,-356.66"/>
</g>
<!-- Node5 -->
<g id="node5" class="node">
<title>Node5</title>
<g id="a_node5"><a xlink:href="classglobal_1_1_throwing_object.html" target="_top" xlink:title="This is base class which allows us to check statements at runtime.">
<polygon fill="none" stroke="black" points="245,-546.5 245,-603.5 394,-603.5 394,-546.5 245,-546.5"/>
<text text-anchor="middle" x="319.5" y="-591.5" font-family="JetBrains Mono" font-size="10.00">global::ThrowingObject</text>
<polyline fill="none" stroke="black" points="245,-584.5 394,-584.5 "/>
<text text-anchor="middle" x="319.5" y="-572.5" font-family="JetBrains Mono" font-size="10.00"> </text>
<polyline fill="none" stroke="black" points="245,-565.5 394,-565.5 "/>
<text text-anchor="start" x="253" y="-553.5" font-family="JetBrains Mono" font-size="10.00">+ throwIf()</text>
</a>
</g>
</g>
<!-- Node5&#45;&gt;Node4 -->
<g id="edge4" class="edge">
<title>Node5&#45;&gt;Node4</title>
<path fill="none" stroke="midnightblue" d="M318.87,-536.19C318.3,-501.99 317.47,-452.43 316.96,-421.76"/>
<polygon fill="none" stroke="midnightblue" points="315.37,-536.33 319.04,-546.27 322.37,-536.21 315.37,-536.33"/>
</g>
</g>
</svg>
