<?xml version="1.0" encoding="UTF-8" standalone="no"?>
<!DOCTYPE svg PUBLIC "-//W3C//DTD SVG 1.1//EN"
 "http://www.w3.org/Graphics/SVG/1.1/DTD/svg11.dtd">
<!-- Generated by graphviz version 2.48.0 (20210717.1556)
 -->
<!-- Title: backend::PortScanner Pages: 1 -->
<svg width="339pt" height="441pt"
 viewBox="0.00 0.00 339.00 441.00" xmlns="http://www.w3.org/2000/svg" xmlns:xlink="http://www.w3.org/1999/xlink">
<g id="graph0" class="graph" transform="scale(1 1) rotate(0) translate(4 437)">
<title>backend::PortScanner</title>
<!-- Node1 -->
<g id="node1" class="node">
<title>Node1</title>
<g id="a_node1"><a xlink:title="Objects of this class are looking for avalaible RS232 ports.">
<polygon fill="#bfbfbf" stroke="black" points="86,-0.5 86,-167.5 253,-167.5 253,-0.5 86,-0.5"/>
<text text-anchor="middle" x="169.5" y="-155.5" font-family="JetBrains Mono" font-size="10.00">backend::PortScanner</text>
<polyline fill="none" stroke="black" points="86,-148.5 253,-148.5 "/>
<text text-anchor="middle" x="169.5" y="-136.5" font-family="JetBrains Mono" font-size="10.00"> </text>
<polyline fill="none" stroke="black" points="86,-129.5 253,-129.5 "/>
<text text-anchor="start" x="94" y="-117.5" font-family="JetBrains Mono" font-size="10.00">+ PortScanner()</text>
<text text-anchor="start" x="94" y="-106.5" font-family="JetBrains Mono" font-size="10.00">+ ~PortScanner()</text>
<text text-anchor="start" x="94" y="-95.5" font-family="JetBrains Mono" font-size="10.00">+ getPortByNumber()</text>
<text text-anchor="start" x="94" y="-84.5" font-family="JetBrains Mono" font-size="10.00">+ getPortByName()</text>
<text text-anchor="start" x="94" y="-73.5" font-family="JetBrains Mono" font-size="10.00">+ getProductIndetifiers()</text>
<text text-anchor="start" x="94" y="-62.5" font-family="JetBrains Mono" font-size="10.00">+ getVendorIndetifiers()</text>
<text text-anchor="start" x="94" y="-51.5" font-family="JetBrains Mono" font-size="10.00">+ getPortNames()</text>
<text text-anchor="start" x="94" y="-40.5" font-family="JetBrains Mono" font-size="10.00">+ getPortDescriptions()</text>
<text text-anchor="start" x="94" y="-29.5" font-family="JetBrains Mono" font-size="10.00">+ getCompletePortData()</text>
<text text-anchor="start" x="94" y="-18.5" font-family="JetBrains Mono" font-size="10.00">+ portsCount()</text>
<text text-anchor="start" x="94" y="-7.5" font-family="JetBrains Mono" font-size="10.00">+ rescan()</text>
</a>
</g>
</g>
<!-- Node2 -->
<g id="node2" class="node">
<title>Node2</title>
<g id="a_node2"><a xlink:href="classinterface_1_1_port_scanner.html" target="_top" xlink:title="PortScanner common interface.">
<polygon fill="none" stroke="black" points="0,-204.5 0,-338.5 167,-338.5 167,-204.5 0,-204.5"/>
<text text-anchor="middle" x="83.5" y="-326.5" font-family="JetBrains Mono" font-size="10.00">interface::PortScanner</text>
<polyline fill="none" stroke="black" points="0,-319.5 167,-319.5 "/>
<text text-anchor="middle" x="83.5" y="-307.5" font-family="JetBrains Mono" font-size="10.00"> </text>
<polyline fill="none" stroke="black" points="0,-300.5 167,-300.5 "/>
<text text-anchor="start" x="8" y="-288.5" font-family="JetBrains Mono" font-size="10.00">+ ~PortScanner()</text>
<text text-anchor="start" x="8" y="-277.5" font-family="JetBrains Mono" font-size="10.00">+ getPortByNumber()</text>
<text text-anchor="start" x="8" y="-266.5" font-family="JetBrains Mono" font-size="10.00">+ getPortByName()</text>
<text text-anchor="start" x="8" y="-255.5" font-family="JetBrains Mono" font-size="10.00">+ getProductIndetifiers()</text>
<text text-anchor="start" x="8" y="-244.5" font-family="JetBrains Mono" font-size="10.00">+ getPortNames()</text>
<text text-anchor="start" x="8" y="-233.5" font-family="JetBrains Mono" font-size="10.00">+ getPortDescriptions()</text>
<text text-anchor="start" x="8" y="-222.5" font-family="JetBrains Mono" font-size="10.00">+ getCompletePortData()</text>
<text text-anchor="start" x="8" y="-211.5" font-family="JetBrains Mono" font-size="10.00">+ rescan()</text>
</a>
</g>
</g>
<!-- Node2&#45;&gt;Node1 -->
<g id="edge1" class="edge">
<title>Node2&#45;&gt;Node1</title>
<path fill="none" stroke="midnightblue" d="M118.49,-195.03C122.66,-186.03 126.94,-176.8 131.16,-167.7"/>
<polygon fill="none" stroke="midnightblue" points="115.21,-193.77 114.18,-204.32 121.57,-196.72 115.21,-193.77"/>
</g>
<!-- Node3 -->
<g id="node3" class="node">
<title>Node3</title>
<g id="a_node3"><a xlink:href="classglobal_1_1_program_object.html" target="_top" xlink:title="This class is used to provide basic program functionalites for objects.">
<polygon fill="none" stroke="black" points="185,-243 185,-300 328,-300 328,-243 185,-243"/>
<text text-anchor="middle" x="256.5" y="-288" font-family="JetBrains Mono" font-size="10.00">global::ProgramObject</text>
<polyline fill="none" stroke="black" points="185,-281 328,-281 "/>
<text text-anchor="middle" x="256.5" y="-269" font-family="JetBrains Mono" font-size="10.00"> </text>
<polyline fill="none" stroke="black" points="185,-262 328,-262 "/>
<text text-anchor="middle" x="256.5" y="-250" font-family="JetBrains Mono" font-size="10.00"> </text>
</a>
</g>
</g>
<!-- Node3&#45;&gt;Node1 -->
<g id="edge2" class="edge">
<title>Node3&#45;&gt;Node1</title>
<path fill="none" stroke="midnightblue" d="M239.18,-233.57C230.29,-214.61 219.07,-190.7 208.25,-167.63"/>
<polygon fill="none" stroke="midnightblue" points="236.06,-235.16 243.48,-242.73 242.4,-232.19 236.06,-235.16"/>
</g>
<!-- Node4 -->
<g id="node4" class="node">
<title>Node4</title>
<g id="a_node4"><a xlink:href="classglobal_1_1_throwing_object.html" target="_top" xlink:title="This is base class which allows us to check statements at runtime.">
<polygon fill="none" stroke="black" points="182,-375.5 182,-432.5 331,-432.5 331,-375.5 182,-375.5"/>
<text text-anchor="middle" x="256.5" y="-420.5" font-family="JetBrains Mono" font-size="10.00">global::ThrowingObject</text>
<polyline fill="none" stroke="black" points="182,-413.5 331,-413.5 "/>
<text text-anchor="middle" x="256.5" y="-401.5" font-family="JetBrains Mono" font-size="10.00"> </text>
<polyline fill="none" stroke="black" points="182,-394.5 331,-394.5 "/>
<text text-anchor="start" x="190" y="-382.5" font-family="JetBrains Mono" font-size="10.00">+ throwIf()</text>
</a>
</g>
</g>
<!-- Node4&#45;&gt;Node3 -->
<g id="edge3" class="edge">
<title>Node4&#45;&gt;Node3</title>
<path fill="none" stroke="midnightblue" d="M256.5,-365.23C256.5,-344.43 256.5,-319.07 256.5,-300.14"/>
<polygon fill="none" stroke="midnightblue" points="253,-365.32 256.5,-375.32 260,-365.32 253,-365.32"/>
</g>
</g>
</svg>
