<?xml version="1.0" encoding="UTF-8" standalone="no"?>
<!DOCTYPE svg PUBLIC "-//W3C//DTD SVG 1.1//EN"
 "http://www.w3.org/Graphics/SVG/1.1/DTD/svg11.dtd">
<!-- Generated by graphviz version 2.48.0 (20210717.1556)
 -->
<!-- Title: modules/bridge Pages: 1 -->
<svg width="100pt" height="167pt"
 viewBox="0.00 0.00 100.00 167.00" xmlns="http://www.w3.org/2000/svg" xmlns:xlink="http://www.w3.org/1999/xlink">
<g id="graph0" class="graph" transform="scale(1 1) rotate(0) translate(4 163)">
<title>modules/bridge</title>
<g id="clust1" class="cluster">
<title>clusterdir_e05d7e2b1ecd646af5bb94391405f3b5</title>
<g id="a_clust1"><a xlink:href="dir_e05d7e2b1ecd646af5bb94391405f3b5.html" target="_top" xlink:title="modules">
<polygon fill="#ddddee" stroke="black" points="8,-8 8,-151 84,-151 84,-8 8,-8"/>
<text text-anchor="middle" x="46" y="-139" font-family="JetBrains Mono" font-size="10.00">modules</text>
</a>
</g>
</g>
<!-- dir_5babf65b73118f5e580c09ccea63f1c7 -->
<g id="node1" class="node">
<title>dir_5babf65b73118f5e580c09ccea63f1c7</title>
<g id="a_node1"><a xlink:href="dir_5babf65b73118f5e580c09ccea63f1c7.html" target="_top" xlink:title="backend">
<polygon fill="none" stroke="red" points="75.5,-52 16.5,-52 16.5,-16 75.5,-16 75.5,-52"/>
<text text-anchor="middle" x="46" y="-31.5" font-family="JetBrains Mono" font-size="10.00">backend</text>
</a>
</g>
</g>
<!-- dir_9019c3c717440ba197170a42f40d3eb2 -->
<g id="node2" class="node">
<title>dir_9019c3c717440ba197170a42f40d3eb2</title>
<g id="a_node2"><a xlink:href="dir_9019c3c717440ba197170a42f40d3eb2.html" target="_top" xlink:title="bridge">
<polygon fill="#eeeeff" stroke="black" points="73,-124 19,-124 19,-88 73,-88 73,-124"/>
<text text-anchor="middle" x="46" y="-103.5" font-family="JetBrains Mono" font-size="10.00">bridge</text>
</a>
</g>
</g>
<!-- dir_9019c3c717440ba197170a42f40d3eb2&#45;&gt;dir_5babf65b73118f5e580c09ccea63f1c7 -->
<g id="edge1" class="edge">
<title>dir_9019c3c717440ba197170a42f40d3eb2&#45;&gt;dir_5babf65b73118f5e580c09ccea63f1c7</title>
<path fill="none" stroke="black" d="M46,-87.7C46,-79.98 46,-70.71 46,-62.11"/>
<polygon fill="black" stroke="black" points="49.5,-62.1 46,-52.1 42.5,-62.1 49.5,-62.1"/>
<g id="a_edge1&#45;headlabel"><a xlink:href="dir_000005_000001.html" target="_top" xlink:title="10">
<text text-anchor="middle" x="52.34" y="-63.2" font-family="JetBrains Mono" font-size="10.00">10</text>
</a>
</g>
</g>
</g>
</svg>
