<?xml version="1.0" encoding="UTF-8" standalone="no"?>
<!DOCTYPE svg PUBLIC "-//W3C//DTD SVG 1.1//EN"
 "http://www.w3.org/Graphics/SVG/1.1/DTD/svg11.dtd">
<!-- Generated by graphviz version 2.48.0 (20210717.1556)
 -->
<!-- Title: modules Pages: 1 -->
<svg width="172pt" height="220pt"
 viewBox="0.00 0.00 172.00 220.00" xmlns="http://www.w3.org/2000/svg" xmlns:xlink="http://www.w3.org/1999/xlink">
<g id="graph0" class="graph" transform="scale(1 1) rotate(0) translate(4 216)">
<title>modules</title>
<g id="clust1" class="cluster">
<title>clusterdir_e05d7e2b1ecd646af5bb94391405f3b5</title>
<g id="a_clust1"><a xlink:href="dir_e05d7e2b1ecd646af5bb94391405f3b5.html" target="_top">
<polygon fill="#eeeeff" stroke="black" points="8,-8 8,-204 156,-204 156,-8 8,-8"/>
</a>
</g>
</g>
<!-- dir_e05d7e2b1ecd646af5bb94391405f3b5 -->
<g id="node1" class="node">
<title>dir_e05d7e2b1ecd646af5bb94391405f3b5</title>
<text text-anchor="middle" x="118" y="-175.5" font-family="JetBrains Mono" font-size="10.00">modules</text>
</g>
<!-- dir_5babf65b73118f5e580c09ccea63f1c7 -->
<g id="node2" class="node">
<title>dir_5babf65b73118f5e580c09ccea63f1c7</title>
<g id="a_node2"><a xlink:href="dir_5babf65b73118f5e580c09ccea63f1c7.html" target="_top" xlink:title="backend">
<polygon fill="white" stroke="red" points="75.5,-124 16.5,-124 16.5,-88 75.5,-88 75.5,-124"/>
<text text-anchor="middle" x="46" y="-103.5" font-family="JetBrains Mono" font-size="10.00">backend</text>
</a>
</g>
</g>
<!-- dir_21509dd048060c13095dec00b0684891 -->
<g id="node4" class="node">
<title>dir_21509dd048060c13095dec00b0684891</title>
<g id="a_node4"><a xlink:href="dir_21509dd048060c13095dec00b0684891.html" target="_top" xlink:title="global">
<polygon fill="white" stroke="red" points="73,-52 19,-52 19,-16 73,-16 73,-52"/>
<text text-anchor="middle" x="46" y="-31.5" font-family="JetBrains Mono" font-size="10.00">global</text>
</a>
</g>
</g>
<!-- dir_5babf65b73118f5e580c09ccea63f1c7&#45;&gt;dir_21509dd048060c13095dec00b0684891 -->
<g id="edge2" class="edge">
<title>dir_5babf65b73118f5e580c09ccea63f1c7&#45;&gt;dir_21509dd048060c13095dec00b0684891</title>
<path fill="none" stroke="black" d="M46,-87.7C46,-79.98 46,-70.71 46,-62.11"/>
<polygon fill="black" stroke="black" points="49.5,-62.1 46,-52.1 42.5,-62.1 49.5,-62.1"/>
<g id="a_edge2&#45;headlabel"><a xlink:href="dir_000001_000006.html" target="_top" xlink:title="7">
<text text-anchor="middle" x="52.34" y="-63.2" font-family="JetBrains Mono" font-size="10.00">7</text>
</a>
</g>
</g>
<!-- dir_9019c3c717440ba197170a42f40d3eb2 -->
<g id="node3" class="node">
<title>dir_9019c3c717440ba197170a42f40d3eb2</title>
<g id="a_node3"><a xlink:href="dir_9019c3c717440ba197170a42f40d3eb2.html" target="_top" xlink:title="bridge">
<polygon fill="white" stroke="black" points="70,-196 16,-196 16,-160 70,-160 70,-196"/>
<text text-anchor="middle" x="43" y="-175.5" font-family="JetBrains Mono" font-size="10.00">bridge</text>
</a>
</g>
</g>
<!-- dir_9019c3c717440ba197170a42f40d3eb2&#45;&gt;dir_5babf65b73118f5e580c09ccea63f1c7 -->
<g id="edge1" class="edge">
<title>dir_9019c3c717440ba197170a42f40d3eb2&#45;&gt;dir_5babf65b73118f5e580c09ccea63f1c7</title>
<path fill="none" stroke="black" d="M43.74,-159.7C44.07,-151.98 44.47,-142.71 44.84,-134.11"/>
<polygon fill="black" stroke="black" points="48.34,-134.25 45.27,-124.1 41.34,-133.95 48.34,-134.25"/>
<g id="a_edge1&#45;headlabel"><a xlink:href="dir_000005_000001.html" target="_top" xlink:title="10">
<text text-anchor="middle" x="51.02" y="-135.46" font-family="JetBrains Mono" font-size="10.00">10</text>
</a>
</g>
</g>
</g>
</svg>
