<?xml version="1.0" encoding="UTF-8" standalone="no"?>
<!DOCTYPE svg PUBLIC "-//W3C//DTD SVG 1.1//EN"
 "http://www.w3.org/Graphics/SVG/1.1/DTD/svg11.dtd">
<!-- Generated by graphviz version 2.48.0 (20210717.1556)
 -->
<!-- Title: modules/backend Pages: 1 -->
<svg width="349pt" height="175pt"
 viewBox="0.00 0.00 349.00 175.00" xmlns="http://www.w3.org/2000/svg" xmlns:xlink="http://www.w3.org/1999/xlink">
<g id="graph0" class="graph" transform="scale(1 1) rotate(0) translate(4 171)">
<title>modules/backend</title>
<g id="clust1" class="cluster">
<title>clusterdir_e05d7e2b1ecd646af5bb94391405f3b5</title>
<g id="a_clust1"><a xlink:href="dir_e05d7e2b1ecd646af5bb94391405f3b5.html" target="_top" xlink:title="modules">
<polygon fill="#ddddee" stroke="black" points="8,-8 8,-159 333,-159 333,-8 8,-8"/>
<text text-anchor="middle" x="170.5" y="-147" font-family="JetBrains Mono" font-size="10.00">modules</text>
</a>
</g>
</g>
<g id="clust2" class="cluster">
<title>clusterdir_5babf65b73118f5e580c09ccea63f1c7</title>
<g id="a_clust2"><a xlink:href="dir_5babf65b73118f5e580c09ccea63f1c7.html" target="_top">
<polygon fill="#eeeeff" stroke="black" points="16,-80 16,-132 325,-132 325,-80 16,-80"/>
</a>
</g>
</g>
<!-- dir_21509dd048060c13095dec00b0684891 -->
<g id="node1" class="node">
<title>dir_21509dd048060c13095dec00b0684891</title>
<g id="a_node1"><a xlink:href="dir_21509dd048060c13095dec00b0684891.html" target="_top" xlink:title="global">
<polygon fill="none" stroke="red" points="196,-52 142,-52 142,-16 196,-16 196,-52"/>
<text text-anchor="middle" x="169" y="-31.5" font-family="JetBrains Mono" font-size="10.00">global</text>
</a>
</g>
</g>
<!-- dir_5babf65b73118f5e580c09ccea63f1c7 -->
<g id="node2" class="node">
<title>dir_5babf65b73118f5e580c09ccea63f1c7</title>
<text text-anchor="middle" x="287" y="-103.5" font-family="JetBrains Mono" font-size="10.00">backend</text>
</g>
<!-- dir_5babf65b73118f5e580c09ccea63f1c7&#45;&gt;dir_21509dd048060c13095dec00b0684891 -->
<g id="edge1" class="edge">
<title>dir_5babf65b73118f5e580c09ccea63f1c7&#45;&gt;dir_21509dd048060c13095dec00b0684891</title>
<path fill="none" stroke="black" d="M261.4,-87.81C257.28,-85.15 253.05,-82.47 249,-80 234.82,-71.36 218.93,-62.3 205.08,-54.6"/>
<polygon fill="black" stroke="black" points="206.75,-51.52 196.3,-49.74 203.36,-57.65 206.75,-51.52"/>
<g id="a_edge1&#45;headlabel"><a xlink:href="dir_000001_000006.html" target="_top" xlink:title="7">
<text text-anchor="middle" x="211.27" y="-48.27" font-family="JetBrains Mono" font-size="10.00">7</text>
</a>
</g>
</g>
<!-- dir_9cd36f95eff4822106e440119d040a40 -->
<g id="node3" class="node">
<title>dir_9cd36f95eff4822106e440119d040a40</title>
<g id="a_node3"><a xlink:href="dir_9cd36f95eff4822106e440119d040a40.html" target="_top" xlink:title="converter">
<polygon fill="white" stroke="black" points="239.5,-124 168.5,-124 168.5,-88 239.5,-88 239.5,-124"/>
<text text-anchor="middle" x="204" y="-103.5" font-family="JetBrains Mono" font-size="10.00">converter</text>
</a>
</g>
</g>
<!-- dir_bbcdcdb0c1a4002c4e12480ef2493af0 -->
<g id="node4" class="node">
<title>dir_bbcdcdb0c1a4002c4e12480ef2493af0</title>
<g id="a_node4"><a xlink:href="dir_bbcdcdb0c1a4002c4e12480ef2493af0.html" target="_top" xlink:title="parser">
<polygon fill="white" stroke="black" points="150,-124 96,-124 96,-88 150,-88 150,-124"/>
<text text-anchor="middle" x="123" y="-103.5" font-family="JetBrains Mono" font-size="10.00">parser</text>
</a>
</g>
</g>
<!-- dir_e2c71af94096d520bd8a82bb69e246c3 -->
<g id="node5" class="node">
<title>dir_e2c71af94096d520bd8a82bb69e246c3</title>
<g id="a_node5"><a xlink:href="dir_e2c71af94096d520bd8a82bb69e246c3.html" target="_top" xlink:title="port">
<polygon fill="white" stroke="black" points="78,-124 24,-124 24,-88 78,-88 78,-124"/>
<text text-anchor="middle" x="51" y="-103.5" font-family="JetBrains Mono" font-size="10.00">port</text>
</a>
</g>
</g>
<!-- dir_e2c71af94096d520bd8a82bb69e246c3&#45;&gt;dir_21509dd048060c13095dec00b0684891 -->
<g id="edge2" class="edge">
<title>dir_e2c71af94096d520bd8a82bb69e246c3&#45;&gt;dir_21509dd048060c13095dec00b0684891</title>
<path fill="none" stroke="black" d="M74.78,-87.97C78.81,-85.23 82.99,-82.48 87,-80 101.61,-70.95 118.15,-61.7 132.53,-53.95"/>
<polygon fill="black" stroke="black" points="134.46,-56.89 141.63,-49.09 131.16,-50.72 134.46,-56.89"/>
<g id="a_edge2&#45;headlabel"><a xlink:href="dir_000004_000006.html" target="_top" xlink:title="1">
<text text-anchor="middle" x="132.62" y="-58.59" font-family="JetBrains Mono" font-size="10.00">1</text>
</a>
</g>
</g>
</g>
</svg>
