<?xml version="1.0" encoding="UTF-8" standalone="no"?>
<!DOCTYPE svg PUBLIC "-//W3C//DTD SVG 1.1//EN"
 "http://www.w3.org/Graphics/SVG/1.1/DTD/svg11.dtd">
<!-- Generated by graphviz version 2.48.0 (20210717.1556)
 -->
<!-- Title: Graphical Class Hierarchy Pages: 1 -->
<svg width="1029pt" height="639pt"
 viewBox="0.00 0.00 1029.00 639.00" xmlns="http://www.w3.org/2000/svg" xmlns:xlink="http://www.w3.org/1999/xlink">
<g id="graph0" class="graph" transform="scale(1 1) rotate(0) translate(4 635)">
<title>Graphical Class Hierarchy</title>
<!-- Node0 -->
<g id="node1" class="node">
<title>Node0</title>
<g id="a_node1"><a xlink:href="classinterface_1_1_parser_component.html" target="_top" xlink:title="ParserComponent common interface.">
<polygon fill="none" stroke="black" points="0,-497.5 0,-516.5 173,-516.5 173,-497.5 0,-497.5"/>
<text text-anchor="middle" x="86.5" y="-504.5" font-family="JetBrains Mono" font-size="10.00">interface::ParserComponent</text>
</a>
</g>
</g>
<!-- Node1 -->
<g id="node2" class="node">
<title>Node1</title>
<g id="a_node2"><a xlink:href="classbackend_1_1_parser_component.html" target="_top" xlink:title="This is the base class for all parsers in the parsing tree.">
<polygon fill="none" stroke="black" points="209,-497.5 209,-516.5 370,-516.5 370,-497.5 209,-497.5"/>
<text text-anchor="middle" x="289.5" y="-504.5" font-family="JetBrains Mono" font-size="10.00">backend::ParserComponent</text>
</a>
</g>
</g>
<!-- Node0&#45;&gt;Node1 -->
<g id="edge1" class="edge">
<title>Node0&#45;&gt;Node1</title>
<path fill="none" stroke="midnightblue" d="M183.09,-507C191.69,-507 200.34,-507 208.79,-507"/>
<polygon fill="midnightblue" stroke="midnightblue" points="183.03,-503.5 173.03,-507 183.03,-510.5 183.03,-503.5"/>
</g>
<!-- Node2 -->
<g id="node3" class="node">
<title>Node2</title>
<g id="a_node3"><a xlink:href="classbackend_1_1_complex_parser.html" target="_top" xlink:title="This class provides composite objects which can have children.">
<polygon fill="none" stroke="black" points="427,-383.5 427,-402.5 576,-402.5 576,-383.5 427,-383.5"/>
<text text-anchor="middle" x="501.5" y="-390.5" font-family="JetBrains Mono" font-size="10.00">backend::ComplexParser</text>
</a>
</g>
</g>
<!-- Node1&#45;&gt;Node2 -->
<g id="edge2" class="edge">
<title>Node1&#45;&gt;Node2</title>
<path fill="none" stroke="midnightblue" d="M305.97,-489.89C326.59,-468.22 365.24,-431.36 406,-412 414.24,-408.09 423.25,-404.98 432.34,-402.51"/>
<polygon fill="midnightblue" stroke="midnightblue" points="303.24,-487.69 298.98,-497.39 308.36,-492.46 303.24,-487.69"/>
</g>
<!-- Node6 -->
<g id="node7" class="node">
<title>Node6</title>
<g id="a_node7"><a xlink:href="classbackend_1_1_end_parser.html" target="_top" xlink:title="Returns false ,so parsing of all package is finished.">
<polygon fill="none" stroke="black" points="439,-459.5 439,-478.5 564,-478.5 564,-459.5 439,-459.5"/>
<text text-anchor="middle" x="501.5" y="-466.5" font-family="JetBrains Mono" font-size="10.00">backend::EndParser</text>
</a>
</g>
</g>
<!-- Node1&#45;&gt;Node6 -->
<g id="edge6" class="edge">
<title>Node1&#45;&gt;Node6</title>
<path fill="none" stroke="midnightblue" d="M353.21,-495.65C383.34,-490.2 419.05,-483.74 447.76,-478.54"/>
<polygon fill="midnightblue" stroke="midnightblue" points="352.44,-492.24 343.22,-497.46 353.68,-499.12 352.44,-492.24"/>
</g>
<!-- Node7 -->
<g id="node8" class="node">
<title>Node7</title>
<g id="a_node8"><a xlink:href="classbackend_1_1_global_start_parser.html" target="_top" xlink:title="This parser recognizes start signal and returns true.">
<polygon fill="none" stroke="black" points="415,-421.5 415,-440.5 588,-440.5 588,-421.5 415,-421.5"/>
<text text-anchor="middle" x="501.5" y="-428.5" font-family="JetBrains Mono" font-size="10.00">backend::GlobalStartParser</text>
</a>
</g>
</g>
<!-- Node1&#45;&gt;Node7 -->
<g id="edge7" class="edge">
<title>Node1&#45;&gt;Node7</title>
<path fill="none" stroke="midnightblue" d="M315.07,-492.53C337.91,-479.64 373.26,-461.16 406,-450 417.09,-446.22 429.18,-443.09 440.89,-440.53"/>
<polygon fill="midnightblue" stroke="midnightblue" points="313.32,-489.5 306.37,-497.5 316.79,-495.57 313.32,-489.5"/>
</g>
<!-- Node8 -->
<g id="node9" class="node">
<title>Node8</title>
<g id="a_node9"><a xlink:href="classbackend_1_1_name_parser.html" target="_top" xlink:title="Parses unit test expression name.">
<polygon fill="none" stroke="black" points="436,-611.5 436,-630.5 567,-630.5 567,-611.5 436,-611.5"/>
<text text-anchor="middle" x="501.5" y="-618.5" font-family="JetBrains Mono" font-size="10.00">backend::NameParser</text>
</a>
</g>
</g>
<!-- Node1&#45;&gt;Node8 -->
<g id="edge8" class="edge">
<title>Node1&#45;&gt;Node8</title>
<path fill="none" stroke="midnightblue" d="M305.97,-524.11C326.59,-545.78 365.24,-582.64 406,-602 415.3,-606.41 425.58,-609.81 435.84,-612.41"/>
<polygon fill="midnightblue" stroke="midnightblue" points="308.36,-521.54 298.98,-516.61 303.24,-526.31 308.36,-521.54"/>
</g>
<!-- Node9 -->
<g id="node10" class="node">
<title>Node9</title>
<g id="a_node10"><a xlink:href="classbackend_1_1_test_result_parser.html" target="_top" xlink:title="This parser reads unit test result from the buffer.">
<polygon fill="none" stroke="black" points="418,-573.5 418,-592.5 585,-592.5 585,-573.5 418,-573.5"/>
<text text-anchor="middle" x="501.5" y="-580.5" font-family="JetBrains Mono" font-size="10.00">backend::TestResultParser</text>
</a>
</g>
</g>
<!-- Node1&#45;&gt;Node9 -->
<g id="edge9" class="edge">
<title>Node1&#45;&gt;Node9</title>
<path fill="none" stroke="midnightblue" d="M315.07,-521.47C337.91,-534.36 373.26,-552.84 406,-564 417.09,-567.78 429.18,-570.91 440.89,-573.47"/>
<polygon fill="midnightblue" stroke="midnightblue" points="316.79,-518.43 306.37,-516.5 313.32,-524.5 316.79,-518.43"/>
</g>
<!-- Node10 -->
<g id="node11" class="node">
<title>Node10</title>
<g id="a_node11"><a xlink:href="classbackend_1_1_type_descriptor_parser.html" target="_top" xlink:title="Parses unit test type descriptor.">
<polygon fill="none" stroke="black" points="406,-535.5 406,-554.5 597,-554.5 597,-535.5 406,-535.5"/>
<text text-anchor="middle" x="501.5" y="-542.5" font-family="JetBrains Mono" font-size="10.00">backend::TypeDescriptorParser</text>
</a>
</g>
</g>
<!-- Node1&#45;&gt;Node10 -->
<g id="edge10" class="edge">
<title>Node1&#45;&gt;Node10</title>
<path fill="none" stroke="midnightblue" d="M353.21,-518.35C383.34,-523.8 419.05,-530.26 447.76,-535.46"/>
<polygon fill="midnightblue" stroke="midnightblue" points="353.68,-514.88 343.22,-516.54 352.44,-521.76 353.68,-514.88"/>
</g>
<!-- Node11 -->
<g id="node12" class="node">
<title>Node11</title>
<g id="a_node12"><a xlink:href="classbackend_1_1_value_parser.html" target="_top" xlink:title="Base class for parsers which parses a numeric value.">
<polygon fill="none" stroke="black" points="433,-497.5 433,-516.5 570,-516.5 570,-497.5 433,-497.5"/>
<text text-anchor="middle" x="501.5" y="-504.5" font-family="JetBrains Mono" font-size="10.00">backend::ValueParser</text>
</a>
</g>
</g>
<!-- Node1&#45;&gt;Node11 -->
<g id="edge11" class="edge">
<title>Node1&#45;&gt;Node11</title>
<path fill="none" stroke="midnightblue" d="M380.45,-507C398.02,-507 416.16,-507 432.86,-507"/>
<polygon fill="midnightblue" stroke="midnightblue" points="380.19,-503.5 370.19,-507 380.19,-510.5 380.19,-503.5"/>
</g>
<!-- Node3 -->
<g id="node4" class="node">
<title>Node3</title>
<g id="a_node4"><a xlink:href="classbackend_1_1_root_parser.html" target="_top" xlink:title="Root of the processing tree.">
<polygon fill="none" stroke="black" points="660,-383.5 660,-402.5 791,-402.5 791,-383.5 660,-383.5"/>
<text text-anchor="middle" x="725.5" y="-390.5" font-family="JetBrains Mono" font-size="10.00">backend::RootParser</text>
</a>
</g>
</g>
<!-- Node2&#45;&gt;Node3 -->
<g id="edge3" class="edge">
<title>Node2&#45;&gt;Node3</title>
<path fill="none" stroke="midnightblue" d="M586.39,-393C610.65,-393 636.75,-393 659.66,-393"/>
<polygon fill="midnightblue" stroke="midnightblue" points="586.11,-389.5 576.11,-393 586.11,-396.5 586.11,-389.5"/>
</g>
<!-- Node4 -->
<g id="node5" class="node">
<title>Node4</title>
<g id="a_node5"><a xlink:href="classbackend_1_1_test_case_parser.html" target="_top" xlink:title="Parses all test case. It receives commands from buffer and processes it. Recognizes commands from Tes...">
<polygon fill="none" stroke="black" points="648,-345.5 648,-364.5 803,-364.5 803,-345.5 648,-345.5"/>
<text text-anchor="middle" x="725.5" y="-352.5" font-family="JetBrains Mono" font-size="10.00">backend::TestCaseParser</text>
</a>
</g>
</g>
<!-- Node2&#45;&gt;Node4 -->
<g id="edge4" class="edge">
<title>Node2&#45;&gt;Node4</title>
<path fill="none" stroke="midnightblue" d="M568.37,-381.72C600.31,-376.26 638.26,-369.76 668.74,-364.54"/>
<polygon fill="midnightblue" stroke="midnightblue" points="567.5,-378.32 558.23,-383.46 568.68,-385.22 567.5,-378.32"/>
</g>
<!-- Node5 -->
<g id="node6" class="node">
<title>Node5</title>
<g id="a_node6"><a xlink:href="classbackend_1_1_unit_test_parser.html" target="_top" xlink:title="Parses all unit test It receives commands from buffer and processes it. Recognizes commands from Unit...">
<polygon fill="none" stroke="black" points="648,-421.5 648,-440.5 803,-440.5 803,-421.5 648,-421.5"/>
<text text-anchor="middle" x="725.5" y="-428.5" font-family="JetBrains Mono" font-size="10.00">backend::UnitTestParser</text>
</a>
</g>
</g>
<!-- Node2&#45;&gt;Node5 -->
<g id="edge5" class="edge">
<title>Node2&#45;&gt;Node5</title>
<path fill="none" stroke="midnightblue" d="M568.37,-404.28C600.31,-409.74 638.26,-416.24 668.74,-421.46"/>
<polygon fill="midnightblue" stroke="midnightblue" points="568.68,-400.78 558.23,-402.54 567.5,-407.68 568.68,-400.78"/>
</g>
<!-- Node12 -->
<g id="node13" class="node">
<title>Node12</title>
<g id="a_node13"><a xlink:href="classbackend_1_1_current_value_parser.html" target="_top" xlink:title="Redirects number&#39;s bytes to unit test current value.">
<polygon fill="none" stroke="black" points="636,-573.5 636,-592.5 815,-592.5 815,-573.5 636,-573.5"/>
<text text-anchor="middle" x="725.5" y="-580.5" font-family="JetBrains Mono" font-size="10.00">backend::CurrentValueParser</text>
</a>
</g>
</g>
<!-- Node11&#45;&gt;Node12 -->
<g id="edge12" class="edge">
<title>Node11&#45;&gt;Node12</title>
<path fill="none" stroke="midnightblue" d="M580.3,-518.54C586.11,-520.63 591.75,-523.09 597,-526 617.36,-537.26 612.68,-552.67 633,-564 639.94,-567.87 647.58,-570.96 655.39,-573.41"/>
<polygon fill="midnightblue" stroke="midnightblue" points="580.99,-515.08 570.4,-515.36 578.85,-521.75 580.99,-515.08"/>
</g>
<!-- Node13 -->
<g id="node14" class="node">
<title>Node13</title>
<g id="a_node14"><a xlink:href="classbackend_1_1_expected_value_parser.html" target="_top" xlink:title="Redirects number&#39;s bytes to unit test expected value.">
<polygon fill="none" stroke="black" points="633,-535.5 633,-554.5 818,-554.5 818,-535.5 633,-535.5"/>
<text text-anchor="middle" x="725.5" y="-542.5" font-family="JetBrains Mono" font-size="10.00">backend::ExpectedValueParser</text>
</a>
</g>
</g>
<!-- Node11&#45;&gt;Node13 -->
<g id="edge13" class="edge">
<title>Node11&#45;&gt;Node13</title>
<path fill="none" stroke="midnightblue" d="M568.37,-518.28C600.31,-523.74 638.26,-530.24 668.74,-535.46"/>
<polygon fill="midnightblue" stroke="midnightblue" points="568.68,-514.78 558.23,-516.54 567.5,-521.68 568.68,-514.78"/>
</g>
<!-- Node14 -->
<g id="node15" class="node">
<title>Node14</title>
<g id="a_node15"><a xlink:href="classbackend_1_1_lower_value_parser.html" target="_top" xlink:title="Redirects number&#39;s bytes to unit test lower value.">
<polygon fill="none" stroke="black" points="642,-497.5 642,-516.5 809,-516.5 809,-497.5 642,-497.5"/>
<text text-anchor="middle" x="725.5" y="-504.5" font-family="JetBrains Mono" font-size="10.00">backend::LowerValueParser</text>
</a>
</g>
</g>
<!-- Node11&#45;&gt;Node14 -->
<g id="edge14" class="edge">
<title>Node11&#45;&gt;Node14</title>
<path fill="none" stroke="midnightblue" d="M580.24,-507C600.1,-507 621.53,-507 641.63,-507"/>
<polygon fill="midnightblue" stroke="midnightblue" points="580.01,-503.5 570.01,-507 580.01,-510.5 580.01,-503.5"/>
</g>
<!-- Node15 -->
<g id="node16" class="node">
<title>Node15</title>
<g id="a_node16"><a xlink:href="classbackend_1_1_upper_value_parser.html" target="_top" xlink:title="Redirects number&#39;s bytes to unit test upper value.">
<polygon fill="none" stroke="black" points="642,-459.5 642,-478.5 809,-478.5 809,-459.5 642,-459.5"/>
<text text-anchor="middle" x="725.5" y="-466.5" font-family="JetBrains Mono" font-size="10.00">backend::UpperValueParser</text>
</a>
</g>
</g>
<!-- Node11&#45;&gt;Node15 -->
<g id="edge15" class="edge">
<title>Node11&#45;&gt;Node15</title>
<path fill="none" stroke="midnightblue" d="M568.37,-495.72C600.31,-490.26 638.26,-483.76 668.74,-478.54"/>
<polygon fill="midnightblue" stroke="midnightblue" points="567.5,-492.32 558.23,-497.46 568.68,-499.22 567.5,-492.32"/>
</g>
<!-- Node30 -->
<g id="node17" class="node">
<title>Node30</title>
<g id="a_node17"><a xlink:href="classinterface_1_1_port_scanner.html" target="_top" xlink:title="PortScanner common interface.">
<polygon fill="none" stroke="black" points="215,-345.5 215,-364.5 364,-364.5 364,-345.5 215,-345.5"/>
<text text-anchor="middle" x="289.5" y="-352.5" font-family="JetBrains Mono" font-size="10.00">interface::PortScanner</text>
</a>
</g>
</g>
<!-- Node31 -->
<g id="node18" class="node">
<title>Node31</title>
<g id="a_node18"><a xlink:href="classbackend_1_1_port_scanner.html" target="_top" xlink:title="Objects of this class are looking for avalaible RS232 ports.">
<polygon fill="none" stroke="black" points="433,-345.5 433,-364.5 570,-364.5 570,-345.5 433,-345.5"/>
<text text-anchor="middle" x="501.5" y="-352.5" font-family="JetBrains Mono" font-size="10.00">backend::PortScanner</text>
</a>
</g>
</g>
<!-- Node30&#45;&gt;Node31 -->
<g id="edge16" class="edge">
<title>Node30&#45;&gt;Node31</title>
<path fill="none" stroke="midnightblue" d="M374.31,-355C393.77,-355 414.24,-355 432.9,-355"/>
<polygon fill="midnightblue" stroke="midnightblue" points="374.24,-351.5 364.24,-355 374.24,-358.5 374.24,-351.5"/>
</g>
<!-- Node33 -->
<g id="node19" class="node">
<title>Node33</title>
<g id="a_node19"><a xlink:title=" ">
<polygon fill="none" stroke="#bfbfbf" points="57,-114.5 57,-133.5 116,-133.5 116,-114.5 57,-114.5"/>
<text text-anchor="middle" x="86.5" y="-121.5" font-family="JetBrains Mono" font-size="10.00">QObject</text>
</a>
</g>
</g>
<!-- Node34 -->
<g id="node20" class="node">
<title>Node34</title>
<g id="a_node20"><a xlink:href="classbackend_1_1_port_state_operator.html" target="_top" xlink:title="This base class provides basic RS232 port operators.">
<polygon fill="none" stroke="black" points="415,-269.5 415,-288.5 588,-288.5 588,-269.5 415,-269.5"/>
<text text-anchor="middle" x="501.5" y="-276.5" font-family="JetBrains Mono" font-size="10.00">backend::PortStateOperator</text>
</a>
</g>
</g>
<!-- Node33&#45;&gt;Node34 -->
<g id="edge17" class="edge">
<title>Node33&#45;&gt;Node34</title>
<path fill="none" stroke="midnightblue" d="M101.51,-141.59C122.19,-166.21 163.39,-210.35 209,-232 273.71,-262.72 354.64,-273.91 414.8,-277.73"/>
<polygon fill="midnightblue" stroke="midnightblue" points="104.13,-139.27 95.08,-133.77 98.72,-143.72 104.13,-139.27"/>
</g>
<!-- Node37 -->
<g id="node23" class="node">
<title>Node37</title>
<g id="a_node23"><a xlink:href="classbridge_1_1_error_reporter.html" target="_top" xlink:title="Object of this class propagates errors from C++ to QML.">
<polygon fill="none" stroke="black" points="218,-38.5 218,-57.5 361,-57.5 361,-38.5 218,-38.5"/>
<text text-anchor="middle" x="289.5" y="-45.5" font-family="JetBrains Mono" font-size="10.00">bridge::ErrorReporter</text>
</a>
</g>
</g>
<!-- Node33&#45;&gt;Node37 -->
<g id="edge20" class="edge">
<title>Node33&#45;&gt;Node37</title>
<path fill="none" stroke="midnightblue" d="M114.05,-109.61C138.23,-96.98 175.22,-78.82 209,-67 219.31,-63.39 230.62,-60.23 241.38,-57.58"/>
<polygon fill="midnightblue" stroke="midnightblue" points="112.34,-106.56 105.13,-114.32 115.61,-112.75 112.34,-106.56"/>
</g>
<!-- Node38 -->
<g id="node24" class="node">
<title>Node38</title>
<g id="a_node24"><a xlink:href="classbridge_1_1_scanner.html" target="_top" xlink:title="This class is proxy for the types compatible with interface::PortScanner interface.">
<polygon fill="none" stroke="black" points="236,-0.5 236,-19.5 343,-19.5 343,-0.5 236,-0.5"/>
<text text-anchor="middle" x="289.5" y="-7.5" font-family="JetBrains Mono" font-size="10.00">bridge::Scanner</text>
</a>
</g>
</g>
<!-- Node33&#45;&gt;Node38 -->
<g id="edge21" class="edge">
<title>Node33&#45;&gt;Node38</title>
<path fill="none" stroke="midnightblue" d="M104.12,-107.11C126.14,-85.71 167.11,-49.19 209,-29 217.31,-25 226.52,-21.8 235.65,-19.26"/>
<polygon fill="midnightblue" stroke="midnightblue" points="101.55,-104.73 96.9,-114.25 106.47,-109.71 101.55,-104.73"/>
</g>
<!-- Node39 -->
<g id="node25" class="node">
<title>Node39</title>
<g id="a_node25"><a xlink:href="classbridge_1_1_settings.html" target="_top" xlink:title="This class is common base for other settings classes.">
<polygon fill="none" stroke="black" points="233,-155.5 233,-174.5 346,-174.5 346,-155.5 233,-155.5"/>
<text text-anchor="middle" x="289.5" y="-162.5" font-family="JetBrains Mono" font-size="10.00">bridge::Settings</text>
</a>
</g>
</g>
<!-- Node33&#45;&gt;Node39 -->
<g id="edge22" class="edge">
<title>Node33&#45;&gt;Node39</title>
<path fill="none" stroke="midnightblue" d="M126.48,-131.95C159.49,-138.68 206.89,-148.35 241.9,-155.49"/>
<polygon fill="midnightblue" stroke="midnightblue" points="126.8,-128.44 116.3,-129.87 125.4,-135.3 126.8,-128.44"/>
</g>
<!-- Node42 -->
<g id="node28" class="node">
<title>Node42</title>
<g id="a_node28"><a xlink:href="classbridge_1_1_terminal_base.html" target="_top" xlink:title="This is base class for a terminal window direct binding.">
<polygon fill="none" stroke="black" points="221,-76.5 221,-95.5 358,-95.5 358,-76.5 221,-76.5"/>
<text text-anchor="middle" x="289.5" y="-83.5" font-family="JetBrains Mono" font-size="10.00">bridge::TerminalBase</text>
</a>
</g>
</g>
<!-- Node33&#45;&gt;Node42 -->
<g id="edge25" class="edge">
<title>Node33&#45;&gt;Node42</title>
<path fill="none" stroke="midnightblue" d="M126.54,-116.62C158.33,-110.61 203.45,-102.08 238,-95.55"/>
<polygon fill="midnightblue" stroke="midnightblue" points="125.47,-113.26 116.3,-118.56 126.77,-120.14 125.47,-113.26"/>
</g>
<!-- Node45 -->
<g id="node31" class="node">
<title>Node45</title>
<g id="a_node31"><a xlink:href="classbridge_1_1_tests_body.html" target="_top" xlink:title="This is base class for a tests window direct binding.">
<polygon fill="none" stroke="black" points="230,-114.5 230,-133.5 349,-133.5 349,-114.5 230,-114.5"/>
<text text-anchor="middle" x="289.5" y="-121.5" font-family="JetBrains Mono" font-size="10.00">bridge::TestsBody</text>
</a>
</g>
</g>
<!-- Node33&#45;&gt;Node45 -->
<g id="edge28" class="edge">
<title>Node33&#45;&gt;Node45</title>
<path fill="none" stroke="midnightblue" d="M126.57,-124C155.94,-124 196.66,-124 229.92,-124"/>
<polygon fill="midnightblue" stroke="midnightblue" points="126.3,-120.5 116.3,-124 126.3,-127.5 126.3,-120.5"/>
</g>
<!-- Node47 -->
<g id="node33" class="node">
<title>Node47</title>
<g id="a_node33"><a xlink:href="classinterface_1_1_byte_buffer.html" target="_top" xlink:title="ByteBuffer common interface.">
<polygon fill="none" stroke="black" points="218,-203.5 218,-222.5 361,-222.5 361,-203.5 218,-203.5"/>
<text text-anchor="middle" x="289.5" y="-210.5" font-family="JetBrains Mono" font-size="10.00">interface::ByteBuffer</text>
</a>
</g>
</g>
<!-- Node33&#45;&gt;Node47 -->
<g id="edge30" class="edge">
<title>Node33&#45;&gt;Node47</title>
<path fill="none" stroke="midnightblue" d="M114.32,-138.3C138.68,-151.03 175.78,-169.79 209,-184 225.61,-191.11 244.62,-198.08 259.88,-203.41"/>
<polygon fill="midnightblue" stroke="midnightblue" points="115.81,-135.13 105.33,-133.57 112.55,-141.32 115.81,-135.13"/>
</g>
<!-- Node35 -->
<g id="node21" class="node">
<title>Node35</title>
<g id="a_node21"><a xlink:href="classbackend_1_1_port_flow_operator.html" target="_top" xlink:title="Extended PortStateOperator which allows to exchange data.">
<polygon fill="none" stroke="black" points="642,-269.5 642,-288.5 809,-288.5 809,-269.5 642,-269.5"/>
<text text-anchor="middle" x="725.5" y="-276.5" font-family="JetBrains Mono" font-size="10.00">backend::PortFlowOperator</text>
</a>
</g>
</g>
<!-- Node34&#45;&gt;Node35 -->
<g id="edge18" class="edge">
<title>Node34&#45;&gt;Node35</title>
<path fill="none" stroke="midnightblue" d="M598.06,-279C612.67,-279 627.65,-279 641.95,-279"/>
<polygon fill="midnightblue" stroke="midnightblue" points="598.01,-275.5 588.01,-279 598.01,-282.5 598.01,-275.5"/>
</g>
<!-- Node36 -->
<g id="node22" class="node">
<title>Node36</title>
<g id="a_node22"><a xlink:href="classbackend_1_1_buffered_port_flow_operator.html" target="_top" xlink:title="Extended PortFlowOperator which operates on the buffers.">
<polygon fill="none" stroke="black" points="854,-264 854,-294 1021,-294 1021,-264 854,-264"/>
<text text-anchor="start" x="862" y="-282" font-family="JetBrains Mono" font-size="10.00">backend::BufferedPortFlow</text>
<text text-anchor="middle" x="937.5" y="-271" font-family="JetBrains Mono" font-size="10.00">Operator</text>
</a>
</g>
</g>
<!-- Node35&#45;&gt;Node36 -->
<g id="edge19" class="edge">
<title>Node35&#45;&gt;Node36</title>
<path fill="none" stroke="midnightblue" d="M819.26,-279C830.79,-279 842.52,-279 853.88,-279"/>
<polygon fill="midnightblue" stroke="midnightblue" points="819.2,-275.5 809.2,-279 819.2,-282.5 819.2,-275.5"/>
</g>
<!-- Node40 -->
<g id="node26" class="node">
<title>Node40</title>
<g id="a_node26"><a xlink:href="classbridge_1_1_terminal_settings.html" target="_top" xlink:title="This class object is direct binding with terminal settings window in QML.">
<polygon fill="none" stroke="black" points="421,-155.5 421,-174.5 582,-174.5 582,-155.5 421,-155.5"/>
<text text-anchor="middle" x="501.5" y="-162.5" font-family="JetBrains Mono" font-size="10.00">bridge::TerminalSettings</text>
</a>
</g>
</g>
<!-- Node39&#45;&gt;Node40 -->
<g id="edge23" class="edge">
<title>Node39&#45;&gt;Node40</title>
<path fill="none" stroke="midnightblue" d="M356.36,-165C376.79,-165 399.53,-165 420.79,-165"/>
<polygon fill="midnightblue" stroke="midnightblue" points="356.22,-161.5 346.22,-165 356.22,-168.5 356.22,-161.5"/>
</g>
<!-- Node41 -->
<g id="node27" class="node">
<title>Node41</title>
<g id="a_node27"><a xlink:href="classbridge_1_1_tests_settings.html" target="_top" xlink:title="This class object is direct binding with tests settings window in QML.">
<polygon fill="none" stroke="black" points="430,-193.5 430,-212.5 573,-212.5 573,-193.5 430,-193.5"/>
<text text-anchor="middle" x="501.5" y="-200.5" font-family="JetBrains Mono" font-size="10.00">bridge::TestsSettings</text>
</a>
</g>
</g>
<!-- Node39&#45;&gt;Node41 -->
<g id="edge24" class="edge">
<title>Node39&#45;&gt;Node41</title>
<path fill="none" stroke="midnightblue" d="M353.21,-176.35C383.34,-181.8 419.05,-188.26 447.76,-193.46"/>
<polygon fill="midnightblue" stroke="midnightblue" points="353.68,-172.88 343.22,-174.54 352.44,-179.76 353.68,-172.88"/>
</g>
<!-- Node43 -->
<g id="node29" class="node">
<title>Node43</title>
<g id="a_node29"><a xlink:href="classbridge_1_1_terminal.html" target="_top" xlink:title=" ">
<polygon fill="none" stroke="black" points="418,-8 418,-38 585,-38 585,-8 418,-8"/>
<text text-anchor="start" x="426" y="-26" font-family="JetBrains Mono" font-size="10.00">bridge::Terminal&lt; Buffer</text>
<text text-anchor="middle" x="501.5" y="-15" font-family="JetBrains Mono" font-size="10.00">Type, PortOperatortType &gt;</text>
</a>
</g>
</g>
<!-- Node42&#45;&gt;Node43 -->
<g id="edge26" class="edge">
<title>Node42&#45;&gt;Node43</title>
<path fill="none" stroke="midnightblue" d="M349.93,-73.69C356.78,-71.71 363.6,-69.49 370,-67 387.06,-60.37 388.99,-53.75 406,-47 414.42,-43.66 423.44,-40.67 432.46,-38.02"/>
<polygon fill="midnightblue" stroke="midnightblue" points="348.65,-70.41 339.91,-76.4 350.48,-77.17 348.65,-70.41"/>
</g>
<!-- Node44 -->
<g id="node30" class="node">
<title>Node44</title>
<g id="a_node30"><a xlink:href="classbridge_1_1_terminal.html" target="_top" xlink:title="This class object is direct binding with terminal window in QML.">
<polygon fill="none" stroke="black" points="421,-57 421,-87 582,-87 582,-57 421,-57"/>
<text text-anchor="start" x="429" y="-75" font-family="JetBrains Mono" font-size="10.00">bridge::Terminal&lt; Buffer</text>
<text text-anchor="middle" x="501.5" y="-64" font-family="JetBrains Mono" font-size="10.00">Type, PortOperatorType &gt;</text>
</a>
</g>
</g>
<!-- Node42&#45;&gt;Node44 -->
<g id="edge27" class="edge">
<title>Node42&#45;&gt;Node44</title>
<path fill="none" stroke="midnightblue" d="M368.11,-80.83C385.34,-79.68 403.63,-78.46 420.94,-77.3"/>
<polygon fill="midnightblue" stroke="midnightblue" points="367.85,-77.34 358.1,-81.49 368.31,-84.32 367.85,-77.34"/>
</g>
<!-- Node46 -->
<g id="node32" class="node">
<title>Node46</title>
<g id="a_node32"><a xlink:href="classbridge_1_1_tests.html" target="_top" xlink:title="This class object is direct binding with terminal window in QML.">
<polygon fill="none" stroke="black" points="415,-106 415,-136 588,-136 588,-106 415,-106"/>
<text text-anchor="start" x="423" y="-124" font-family="JetBrains Mono" font-size="10.00">bridge::Tests&lt; BufferType,</text>
<text text-anchor="middle" x="501.5" y="-113" font-family="JetBrains Mono" font-size="10.00"> PortOperatortType &gt;</text>
</a>
</g>
</g>
<!-- Node45&#45;&gt;Node46 -->
<g id="edge29" class="edge">
<title>Node45&#45;&gt;Node46</title>
<path fill="none" stroke="midnightblue" d="M359.46,-123.01C377.1,-122.76 396.28,-122.49 414.65,-122.23"/>
<polygon fill="midnightblue" stroke="midnightblue" points="359.22,-119.52 349.28,-123.16 359.32,-126.52 359.22,-119.52"/>
</g>
<!-- Node48 -->
<g id="node34" class="node">
<title>Node48</title>
<g id="a_node34"><a xlink:href="classbackend_1_1_byte_buffer.html" target="_top" xlink:title="Objects of this class are buffers which can be shared and modified by several objects.">
<polygon fill="none" stroke="black" points="436,-231.5 436,-250.5 567,-250.5 567,-231.5 436,-231.5"/>
<text text-anchor="middle" x="501.5" y="-238.5" font-family="JetBrains Mono" font-size="10.00">backend::ByteBuffer</text>
</a>
</g>
</g>
<!-- Node47&#45;&gt;Node48 -->
<g id="edge31" class="edge">
<title>Node47&#45;&gt;Node48</title>
<path fill="none" stroke="midnightblue" d="M371.07,-223.74C392.5,-226.6 415.38,-229.65 435.84,-232.38"/>
<polygon fill="midnightblue" stroke="midnightblue" points="371.39,-220.25 361.01,-222.4 370.46,-227.19 371.39,-220.25"/>
</g>
<!-- Node53 -->
<g id="node35" class="node">
<title>Node53</title>
<g id="a_node35"><a xlink:href="classglobal_1_1_throwing_object.html" target="_top" xlink:title="This is base class which allows us to check statements at runtime.">
<polygon fill="none" stroke="black" points="12,-307.5 12,-326.5 161,-326.5 161,-307.5 12,-307.5"/>
<text text-anchor="middle" x="86.5" y="-314.5" font-family="JetBrains Mono" font-size="10.00">global::ThrowingObject</text>
</a>
</g>
</g>
<!-- Node54 -->
<g id="node36" class="node">
<title>Node54</title>
<g id="a_node36"><a xlink:href="classglobal_1_1_program_object.html" target="_top" xlink:title="This class is used to provide basic program functionalites for objects.">
<polygon fill="none" stroke="black" points="218,-307.5 218,-326.5 361,-326.5 361,-307.5 218,-307.5"/>
<text text-anchor="middle" x="289.5" y="-314.5" font-family="JetBrains Mono" font-size="10.00">global::ProgramObject</text>
</a>
</g>
</g>
<!-- Node53&#45;&gt;Node54 -->
<g id="edge32" class="edge">
<title>Node53&#45;&gt;Node54</title>
<path fill="none" stroke="midnightblue" d="M171.28,-317C186.76,-317 202.78,-317 217.82,-317"/>
<polygon fill="midnightblue" stroke="midnightblue" points="171.2,-313.5 161.2,-317 171.2,-320.5 171.2,-313.5"/>
</g>
<!-- Node54&#45;&gt;Node2 -->
<g id="edge34" class="edge">
<title>Node54&#45;&gt;Node2</title>
<path fill="none" stroke="midnightblue" d="M357.63,-330C361.93,-331.76 366.09,-333.74 370,-336 390.15,-347.63 385.64,-362.74 406,-374 413.03,-377.89 420.74,-380.99 428.64,-383.46"/>
<polygon fill="midnightblue" stroke="midnightblue" points="358.66,-326.65 348.07,-326.53 356.27,-333.23 358.66,-326.65"/>
</g>
<!-- Node54&#45;&gt;Node31 -->
<g id="edge35" class="edge">
<title>Node54&#45;&gt;Node31</title>
<path fill="none" stroke="midnightblue" d="M353.21,-328.35C383.34,-333.8 419.05,-340.26 447.76,-345.46"/>
<polygon fill="midnightblue" stroke="midnightblue" points="353.68,-324.88 343.22,-326.54 352.44,-331.76 353.68,-324.88"/>
</g>
<!-- Node54&#45;&gt;Node34 -->
<g id="edge36" class="edge">
<title>Node54&#45;&gt;Node34</title>
<path fill="none" stroke="midnightblue" d="M353.21,-305.65C383.34,-300.2 419.05,-293.74 447.76,-288.54"/>
<polygon fill="midnightblue" stroke="midnightblue" points="352.44,-302.24 343.22,-307.46 353.68,-309.12 352.44,-302.24"/>
</g>
<!-- Node54&#45;&gt;Node48 -->
<g id="edge33" class="edge">
<title>Node54&#45;&gt;Node48</title>
<path fill="none" stroke="midnightblue" d="M315.07,-302.53C337.91,-289.64 373.26,-271.16 406,-260 417.09,-256.22 429.18,-253.09 440.89,-250.53"/>
<polygon fill="midnightblue" stroke="midnightblue" points="313.32,-299.5 306.37,-307.5 316.79,-305.57 313.32,-299.5"/>
</g>
<!-- Node55 -->
<g id="node37" class="node">
<title>Node55</title>
<g id="a_node37"><a xlink:href="classbackend_1_1_unit_test_converter.html" target="_top" xlink:title="This class converts UnitTestDataPackage objects to UnitTest object which can be send to QML or JS fun...">
<polygon fill="none" stroke="black" points="415,-307.5 415,-326.5 588,-326.5 588,-307.5 415,-307.5"/>
<text text-anchor="middle" x="501.5" y="-314.5" font-family="JetBrains Mono" font-size="10.00">backend::UnitTestConverter</text>
</a>
</g>
</g>
<!-- Node54&#45;&gt;Node55 -->
<g id="edge37" class="edge">
<title>Node54&#45;&gt;Node55</title>
<path fill="none" stroke="midnightblue" d="M371.28,-317C385.56,-317 400.46,-317 414.87,-317"/>
<polygon fill="midnightblue" stroke="midnightblue" points="371.01,-313.5 361.01,-317 371.01,-320.5 371.01,-313.5"/>
</g>
</g>
</svg>
