<?xml version="1.0" encoding="UTF-8" standalone="no"?>
<!DOCTYPE svg PUBLIC "-//W3C//DTD SVG 1.1//EN"
 "http://www.w3.org/Graphics/SVG/1.1/DTD/svg11.dtd">
<!-- Generated by graphviz version 2.48.0 (20210717.1556)
 -->
<!-- Title: Graphical Class Hierarchy Pages: 1 -->
<svg width="426pt" height="389pt"
 viewBox="0.00 0.00 426.00 388.50" xmlns="http://www.w3.org/2000/svg" xmlns:xlink="http://www.w3.org/1999/xlink">
<g id="graph0" class="graph" transform="scale(1 1) rotate(0) translate(4 384.5)">
<title>Graphical Class Hierarchy</title>
<!-- Node0 -->
<g id="node1" class="node">
<title>Node0</title>
<g id="a_node1"><a xlink:href="classbackend_1_1_abstract_value_converter.html" target="_top" xlink:title="This is interface for all value converters.">
<polygon fill="none" stroke="black" points="0,-192 0,-211 203,-211 203,-192 0,-192"/>
<text text-anchor="middle" x="101.5" y="-199" font-family="JetBrains Mono" font-size="10.00">backend::AbstractValueConverter</text>
</a>
</g>
</g>
<!-- Node1 -->
<g id="node2" class="node">
<title>Node1</title>
<g id="a_node2"><a xlink:href="classbackend_1_1_bit_value_converter.html" target="_top" xlink:title="Converts a 1&#45;byte value to a bit type.">
<polygon fill="none" stroke="black" points="242,-361 242,-380 415,-380 415,-361 242,-361"/>
<text text-anchor="middle" x="328.5" y="-368" font-family="JetBrains Mono" font-size="10.00">backend::BitValueConverter</text>
</a>
</g>
</g>
<!-- Node0&#45;&gt;Node1 -->
<g id="edge1" class="edge">
<title>Node0&#45;&gt;Node1</title>
<path fill="none" stroke="midnightblue" d="M113.67,-219.92C134.2,-252.09 181.19,-318.25 239,-351.5 245.67,-355.34 253.04,-358.4 260.58,-360.85"/>
<polygon fill="midnightblue" stroke="midnightblue" points="116.43,-217.73 108.16,-211.1 110.49,-221.44 116.43,-217.73"/>
</g>
<!-- Node2 -->
<g id="node3" class="node">
<title>Node2</title>
<g id="a_node3"><a xlink:href="classbackend_1_1_bool_value_converter.html" target="_top" xlink:title="Converts a 1&#45;byte value to a bool type.">
<polygon fill="none" stroke="black" points="239,-323 239,-342 418,-342 418,-323 239,-323"/>
<text text-anchor="middle" x="328.5" y="-330" font-family="JetBrains Mono" font-size="10.00">backend::BoolValueConverter</text>
</a>
</g>
</g>
<!-- Node0&#45;&gt;Node2 -->
<g id="edge2" class="edge">
<title>Node0&#45;&gt;Node2</title>
<path fill="none" stroke="midnightblue" d="M118.08,-218.67C141.7,-243.6 189.14,-289.46 239,-313.5 247.07,-317.39 255.93,-320.49 264.83,-322.96"/>
<polygon fill="midnightblue" stroke="midnightblue" points="120.39,-216.02 111.01,-211.08 115.26,-220.79 120.39,-216.02"/>
</g>
<!-- Node3 -->
<g id="node4" class="node">
<title>Node3</title>
<g id="a_node4"><a xlink:href="classbackend_1_1_char_value_converter.html" target="_top" xlink:title="Converts a 1&#45;byte value to a char.">
<polygon fill="none" stroke="black" points="239,-285 239,-304 418,-304 418,-285 239,-285"/>
<text text-anchor="middle" x="328.5" y="-292" font-family="JetBrains Mono" font-size="10.00">backend::CharValueConverter</text>
</a>
</g>
</g>
<!-- Node0&#45;&gt;Node3 -->
<g id="edge3" class="edge">
<title>Node0&#45;&gt;Node3</title>
<path fill="none" stroke="midnightblue" d="M125.51,-216.64C151.89,-233.35 196.93,-259.95 239,-275.5 249.17,-279.26 260.29,-282.37 271.1,-284.92"/>
<polygon fill="midnightblue" stroke="midnightblue" points="127.29,-213.63 116.99,-211.17 123.51,-219.52 127.29,-213.63"/>
</g>
<!-- Node4 -->
<g id="node5" class="node">
<title>Node4</title>
<g id="a_node5"><a xlink:href="classbackend_1_1_int16_numeric_value_converter.html" target="_top" xlink:title="This converter converts 2&#45;byte value to stringlized int16_t type.">
<polygon fill="none" stroke="black" points="242,-235.5 242,-265.5 415,-265.5 415,-235.5 242,-235.5"/>
<text text-anchor="start" x="250" y="-253.5" font-family="JetBrains Mono" font-size="10.00">backend::Int16NumericValue</text>
<text text-anchor="middle" x="328.5" y="-242.5" font-family="JetBrains Mono" font-size="10.00">Converter</text>
</a>
</g>
</g>
<!-- Node0&#45;&gt;Node4 -->
<g id="edge4" class="edge">
<title>Node0&#45;&gt;Node4</title>
<path fill="none" stroke="midnightblue" d="M156.19,-213.19C186.79,-219.86 225.45,-228.27 258.3,-235.43"/>
<polygon fill="midnightblue" stroke="midnightblue" points="156.66,-209.71 146.15,-211.01 155.18,-216.55 156.66,-209.71"/>
</g>
<!-- Node5 -->
<g id="node6" class="node">
<title>Node5</title>
<g id="a_node6"><a xlink:href="classbackend_1_1_int32_numeric_value_converter.html" target="_top" xlink:title="This converter converts 4&#45;byte value to stringlized int32_t type.">
<polygon fill="none" stroke="black" points="242,-186.5 242,-216.5 415,-216.5 415,-186.5 242,-186.5"/>
<text text-anchor="start" x="250" y="-204.5" font-family="JetBrains Mono" font-size="10.00">backend::Int32NumericValue</text>
<text text-anchor="middle" x="328.5" y="-193.5" font-family="JetBrains Mono" font-size="10.00">Converter</text>
</a>
</g>
</g>
<!-- Node0&#45;&gt;Node5 -->
<g id="edge5" class="edge">
<title>Node0&#45;&gt;Node5</title>
<path fill="none" stroke="midnightblue" d="M213.44,-201.5C222.94,-201.5 232.45,-201.5 241.71,-201.5"/>
<polygon fill="midnightblue" stroke="midnightblue" points="213.15,-198 203.15,-201.5 213.15,-205 213.15,-198"/>
</g>
<!-- Node6 -->
<g id="node7" class="node">
<title>Node6</title>
<g id="a_node7"><a xlink:href="classbackend_1_1_int64_numeric_value_converter.html" target="_top" xlink:title="This converter converts 8&#45;byte value to stringlized int64_t type.">
<polygon fill="none" stroke="black" points="242,-137.5 242,-167.5 415,-167.5 415,-137.5 242,-137.5"/>
<text text-anchor="start" x="250" y="-155.5" font-family="JetBrains Mono" font-size="10.00">backend::Int64NumericValue</text>
<text text-anchor="middle" x="328.5" y="-144.5" font-family="JetBrains Mono" font-size="10.00">Converter</text>
</a>
</g>
</g>
<!-- Node0&#45;&gt;Node6 -->
<g id="edge6" class="edge">
<title>Node0&#45;&gt;Node6</title>
<path fill="none" stroke="midnightblue" d="M156.19,-189.81C186.79,-183.14 225.45,-174.73 258.3,-167.57"/>
<polygon fill="midnightblue" stroke="midnightblue" points="155.18,-186.45 146.15,-191.99 156.66,-193.29 155.18,-186.45"/>
</g>
<!-- Node7 -->
<g id="node8" class="node">
<title>Node7</title>
<g id="a_node8"><a xlink:href="classbackend_1_1_int8_numeric_value_converter.html" target="_top" xlink:title="This converter converts 1&#45;byte value to stringlized int8_t type.">
<polygon fill="none" stroke="black" points="245,-88.5 245,-118.5 412,-118.5 412,-88.5 245,-88.5"/>
<text text-anchor="start" x="253" y="-106.5" font-family="JetBrains Mono" font-size="10.00">backend::Int8NumericValue</text>
<text text-anchor="middle" x="328.5" y="-95.5" font-family="JetBrains Mono" font-size="10.00">Converter</text>
</a>
</g>
</g>
<!-- Node0&#45;&gt;Node7 -->
<g id="edge7" class="edge">
<title>Node0&#45;&gt;Node7</title>
<path fill="none" stroke="midnightblue" d="M126.59,-186.55C153.28,-170.49 197.98,-145.04 239,-128.5 248.03,-124.86 257.79,-121.53 267.4,-118.58"/>
<polygon fill="midnightblue" stroke="midnightblue" points="124.66,-183.63 117.94,-191.81 128.3,-189.61 124.66,-183.63"/>
</g>
<!-- Node8 -->
<g id="node9" class="node">
<title>Node8</title>
<g id="a_node9"><a xlink:href="classbackend_1_1_ptr_value_converter.html" target="_top" xlink:title="Converts a 1&#45;byte value to a pointer type.">
<polygon fill="none" stroke="black" points="242,-50 242,-69 415,-69 415,-50 242,-50"/>
<text text-anchor="middle" x="328.5" y="-57" font-family="JetBrains Mono" font-size="10.00">backend::PtrValueConverter</text>
</a>
</g>
</g>
<!-- Node0&#45;&gt;Node8 -->
<g id="edge8" class="edge">
<title>Node0&#45;&gt;Node8</title>
<path fill="none" stroke="midnightblue" d="M116.79,-183.97C139.67,-157.13 187.25,-106.17 239,-79.5 247.4,-75.17 256.73,-71.77 266.08,-69.11"/>
<polygon fill="midnightblue" stroke="midnightblue" points="113.99,-181.86 110.25,-191.78 119.36,-186.36 113.99,-181.86"/>
</g>
<!-- Node9 -->
<g id="node10" class="node">
<title>Node9</title>
<g id="a_node10"><a xlink:href="classbackend_1_1_unsigned_numeric_value_converter.html" target="_top" xlink:title="This converter converts several bytes to unsigned numeric value.">
<polygon fill="none" stroke="black" points="248,-0.5 248,-30.5 409,-30.5 409,-0.5 248,-0.5"/>
<text text-anchor="start" x="256" y="-18.5" font-family="JetBrains Mono" font-size="10.00">backend::UnsignedNumeric</text>
<text text-anchor="middle" x="328.5" y="-7.5" font-family="JetBrains Mono" font-size="10.00">ValueConverter</text>
</a>
</g>
</g>
<!-- Node0&#45;&gt;Node9 -->
<g id="edge9" class="edge">
<title>Node0&#45;&gt;Node9</title>
<path fill="none" stroke="midnightblue" d="M113,-183.02C133.06,-149.44 180.09,-78.38 239,-40.5 245.04,-36.61 251.7,-33.32 258.56,-30.53"/>
<polygon fill="midnightblue" stroke="midnightblue" points="109.89,-181.41 107.87,-191.8 115.94,-184.94 109.89,-181.41"/>
</g>
</g>
</svg>
